mtllib bridge.mtl
o core
g core_plank
usemtl plank
v -0.94250 0.00909 0.15000
v -0.94631 0.03380 -0.15000
v -0.94631 0.03380 0.15000
v -0.94250 0.00909 -0.15000
v -0.94250 0.00909 -0.15000
v -0.82563 0.05243 -0.15000
v -0.94631 0.03380 -0.15000
v -0.82181 0.02772 -0.15000
v -0.82181 0.02772 -0.15000
v -0.82563 0.05243 0.15000
v -0.82563 0.05243 -0.15000
v -0.82181 0.02772 0.15000
v -0.82181 0.02772 0.15000
v -0.94631 0.03380 0.15000
v -0.82563 0.05243 0.15000
v -0.94250 0.00909 0.15000
v -0.94250 0.00909 -0.15000
v -0.82181 0.02772 0.15000
v -0.82181 0.02772 -0.15000
v -0.94250 0.00909 0.15000
v -0.82563 0.05243 -0.15000
v -0.94631 0.03380 0.15000
v -0.94631 0.03380 -0.15000
v -0.82563 0.05243 0.15000
v -0.80688 0.03003 0.15000
v -0.81046 0.05478 -0.15000
v -0.81046 0.05478 0.15000
v -0.80688 0.03003 -0.15000
v -0.80688 0.03003 -0.15000
v -0.68957 0.07228 -0.15000
v -0.81046 0.05478 -0.15000
v -0.68599 0.04754 -0.15000
v -0.68599 0.04754 -0.15000
v -0.68957 0.07228 0.15000
v -0.68957 0.07228 -0.15000
v -0.68599 0.04754 0.15000
v -0.68599 0.04754 0.15000
v -0.81046 0.05478 0.15000
v -0.68957 0.07228 0.15000
v -0.80688 0.03003 0.15000
v -0.80688 0.03003 -0.15000
v -0.68599 0.04754 0.15000
v -0.68599 0.04754 -0.15000
v -0.80688 0.03003 0.15000
v -0.68957 0.07228 -0.15000
v -0.81046 0.05478 0.15000
v -0.81046 0.05478 -0.15000
v -0.68957 0.07228 0.15000
v -0.67129 0.04962 0.15000
v -0.67450 0.07441 -0.15000
v -0.67450 0.07441 0.15000
v -0.67129 0.04962 -0.15000
v -0.67129 0.04962 -0.15000
v -0.55335 0.08999 -0.15000
v -0.67450 0.07441 -0.15000
v -0.55014 0.06520 -0.15000
v -0.55014 0.06520 -0.15000
v -0.55335 0.08999 0.15000
v -0.55335 0.08999 -0.15000
v -0.55014 0.06520 0.15000
v -0.55014 0.06520 0.15000
v -0.67450 0.07441 0.15000
v -0.55335 0.08999 0.15000
v -0.67129 0.04962 0.15000
v -0.67129 0.04962 -0.15000
v -0.55014 0.06520 0.15000
v -0.55014 0.06520 -0.15000
v -0.67129 0.04962 0.15000
v -0.55335 0.08999 -0.15000
v -0.67450 0.07441 0.15000
v -0.67450 0.07441 -0.15000
v -0.55335 0.08999 0.15000
v -0.53573 0.06696 0.15000
v -0.53839 0.09182 -0.15000
v -0.53839 0.09182 0.15000
v -0.53573 0.06696 -0.15000
v -0.53573 0.06696 -0.15000
v -0.41695 0.10477 -0.15000
v -0.53839 0.09182 -0.15000
v -0.41429 0.07991 -0.15000
v -0.41429 0.07991 -0.15000
v -0.41695 0.10477 0.15000
v -0.41695 0.10477 -0.15000
v -0.41429 0.07991 0.15000
v -0.41429 0.07991 0.15000
v -0.53839 0.09182 0.15000
v -0.41695 0.10477 0.15000
v -0.53573 0.06696 0.15000
v -0.53573 0.06696 -0.15000
v -0.41429 0.07991 0.15000
v -0.41429 0.07991 -0.15000
v -0.53573 0.06696 0.15000
v -0.41695 0.10477 -0.15000
v -0.53839 0.09182 0.15000
v -0.53839 0.09182 -0.15000
v -0.41695 0.10477 0.15000
v -0.40017 0.08127 0.15000
v -0.40216 0.10619 -0.15000
v -0.40216 0.10619 0.15000
v -0.40017 0.08127 -0.15000
v -0.40017 0.08127 -0.15000
v -0.28041 0.11591 -0.15000
v -0.40216 0.10619 -0.15000
v -0.27841 0.09099 -0.15000
v -0.27841 0.09099 -0.15000
v -0.28041 0.11591 0.15000
v -0.28041 0.11591 -0.15000
v -0.27841 0.09099 0.15000
v -0.27841 0.09099 0.15000
v -0.40216 0.10619 0.15000
v -0.28041 0.11591 0.15000
v -0.40017 0.08127 0.15000
v -0.40017 0.08127 -0.15000
v -0.27841 0.09099 0.15000
v -0.27841 0.09099 -0.15000
v -0.40017 0.08127 0.15000
v -0.28041 0.11591 -0.15000
v -0.40216 0.10619 0.15000
v -0.40216 0.10619 -0.15000
v -0.28041 0.11591 0.15000
v -0.26458 0.09192 0.15000
v -0.26582 0.11689 -0.15000
v -0.26582 0.11689 0.15000
v -0.26458 0.09192 -0.15000
v -0.26458 0.09192 -0.15000
v -0.14384 0.12291 -0.15000
v -0.26582 0.11689 -0.15000
v -0.14259 0.09794 -0.15000
v -0.14259 0.09794 -0.15000
v -0.14384 0.12291 0.15000
v -0.14384 0.12291 -0.15000
v -0.14259 0.09794 0.15000
v -0.14259 0.09794 0.15000
v -0.26582 0.11689 0.15000
v -0.14384 0.12291 0.15000
v -0.26458 0.09192 0.15000
v -0.26458 0.09192 -0.15000
v -0.14259 0.09794 0.15000
v -0.14259 0.09794 -0.15000
v -0.26458 0.09192 0.15000
v -0.14384 0.12291 -0.15000
v -0.26582 0.11689 0.15000
v -0.26582 0.11689 -0.15000
v -0.14384 0.12291 0.15000
v -0.12893 0.09841 0.15000
v -0.12937 0.12341 -0.15000
v -0.12937 0.12341 0.15000
v -0.12893 0.09841 -0.15000
v -0.12893 0.09841 -0.15000
v -0.00723 0.12545 -0.15000
v -0.12937 0.12341 -0.15000
v -0.00680 0.10045 -0.15000
v -0.00680 0.10045 -0.15000
v -0.00723 0.12545 0.15000
v -0.00723 0.12545 -0.15000
v -0.00680 0.10045 0.15000
v -0.00680 0.10045 0.15000
v -0.12937 0.12341 0.15000
v -0.00723 0.12545 0.15000
v -0.12893 0.09841 0.15000
v -0.12893 0.09841 -0.15000
v -0.00680 0.10045 0.15000
v -0.00680 0.10045 -0.15000
v -0.12893 0.09841 0.15000
v -0.00723 0.12545 -0.15000
v -0.12937 0.12341 0.15000
v -0.12937 0.12341 -0.15000
v -0.00723 0.12545 0.15000
v 0.00677 0.10045 0.15000
v 0.00721 0.12545 -0.15000
v 0.00721 0.12545 0.15000
v 0.00677 0.10045 -0.15000
v 0.00677 0.10045 -0.15000
v 0.12934 0.12341 -0.15000
v 0.00721 0.12545 -0.15000
v 0.12890 0.09841 -0.15000
v 0.12890 0.09841 -0.15000
v 0.12934 0.12341 0.15000
v 0.12934 0.12341 -0.15000
v 0.12890 0.09841 0.15000
v 0.12890 0.09841 0.15000
v 0.00721 0.12545 0.15000
v 0.12934 0.12341 0.15000
v 0.00677 0.10045 0.15000
v 0.00677 0.10045 -0.15000
v 0.12890 0.09841 0.15000
v 0.12890 0.09841 -0.15000
v 0.00677 0.10045 0.15000
v 0.12934 0.12341 -0.15000
v 0.00721 0.12545 0.15000
v 0.00721 0.12545 -0.15000
v 0.12934 0.12341 0.15000
v 0.14256 0.09794 0.15000
v 0.14381 0.12291 -0.15000
v 0.14381 0.12291 0.15000
v 0.14256 0.09794 -0.15000
v 0.14256 0.09794 -0.15000
v 0.26579 0.11689 -0.15000
v 0.14381 0.12291 -0.15000
v 0.26455 0.09192 -0.15000
v 0.26455 0.09192 -0.15000
v 0.26579 0.11689 0.15000
v 0.26579 0.11689 -0.15000
v 0.26455 0.09192 0.15000
v 0.26455 0.09192 0.15000
v 0.14381 0.12291 0.15000
v 0.26579 0.11689 0.15000
v 0.14256 0.09794 0.15000
v 0.14256 0.09794 -0.15000
v 0.26455 0.09192 0.15000
v 0.26455 0.09192 -0.15000
v 0.14256 0.09794 0.15000
v 0.26579 0.11689 -0.15000
v 0.14381 0.12291 0.15000
v 0.14381 0.12291 -0.15000
v 0.26579 0.11689 0.15000
v 0.27839 0.09099 0.15000
v 0.28038 0.11591 -0.15000
v 0.28038 0.11591 0.15000
v 0.27839 0.09099 -0.15000
v 0.27839 0.09099 -0.15000
v 0.40213 0.10619 -0.15000
v 0.28038 0.11591 -0.15000
v 0.40014 0.08127 -0.15000
v 0.40014 0.08127 -0.15000
v 0.40213 0.10619 0.15000
v 0.40213 0.10619 -0.15000
v 0.40014 0.08127 0.15000
v 0.40014 0.08127 0.15000
v 0.28038 0.11591 0.15000
v 0.40213 0.10619 0.15000
v 0.27839 0.09099 0.15000
v 0.27839 0.09099 -0.15000
v 0.40014 0.08127 0.15000
v 0.40014 0.08127 -0.15000
v 0.27839 0.09099 0.15000
v 0.40213 0.10619 -0.15000
v 0.28038 0.11591 0.15000
v 0.28038 0.11591 -0.15000
v 0.40213 0.10619 0.15000
v 0.41426 0.07991 0.15000
v 0.41692 0.10477 -0.15000
v 0.41692 0.10477 0.15000
v 0.41426 0.07991 -0.15000
v 0.41426 0.07991 -0.15000
v 0.53836 0.09182 -0.15000
v 0.41692 0.10477 -0.15000
v 0.53570 0.06696 -0.15000
v 0.53570 0.06696 -0.15000
v 0.53836 0.09182 0.15000
v 0.53836 0.09182 -0.15000
v 0.53570 0.06696 0.15000
v 0.53570 0.06696 0.15000
v 0.41692 0.10477 0.15000
v 0.53836 0.09182 0.15000
v 0.41426 0.07991 0.15000
v 0.41426 0.07991 -0.15000
v 0.53570 0.06696 0.15000
v 0.53570 0.06696 -0.15000
v 0.41426 0.07991 0.15000
v 0.53836 0.09182 -0.15000
v 0.41692 0.10477 0.15000
v 0.41692 0.10477 -0.15000
v 0.53836 0.09182 0.15000
v 0.55011 0.06520 0.15000
v 0.55332 0.08999 -0.15000
v 0.55332 0.08999 0.15000
v 0.55011 0.06520 -0.15000
v 0.55011 0.06520 -0.15000
v 0.67447 0.07441 -0.15000
v 0.55332 0.08999 -0.15000
v 0.67126 0.04962 -0.15000
v 0.67126 0.04962 -0.15000
v 0.67447 0.07441 0.15000
v 0.67447 0.07441 -0.15000
v 0.67126 0.04962 0.15000
v 0.67126 0.04962 0.15000
v 0.55332 0.08999 0.15000
v 0.67447 0.07441 0.15000
v 0.55011 0.06520 0.15000
v 0.55011 0.06520 -0.15000
v 0.67126 0.04962 0.15000
v 0.67126 0.04962 -0.15000
v 0.55011 0.06520 0.15000
v 0.67447 0.07441 -0.15000
v 0.55332 0.08999 0.15000
v 0.55332 0.08999 -0.15000
v 0.67447 0.07441 0.15000
v 0.68596 0.04754 0.15000
v 0.68954 0.07228 -0.15000
v 0.68954 0.07228 0.15000
v 0.68596 0.04754 -0.15000
v 0.68596 0.04754 -0.15000
v 0.81044 0.05478 -0.15000
v 0.68954 0.07228 -0.15000
v 0.80685 0.03003 -0.15000
v 0.80685 0.03003 -0.15000
v 0.81044 0.05478 0.15000
v 0.81044 0.05478 -0.15000
v 0.80685 0.03003 0.15000
v 0.80685 0.03003 0.15000
v 0.68954 0.07228 0.15000
v 0.81044 0.05478 0.15000
v 0.68596 0.04754 0.15000
v 0.68596 0.04754 -0.15000
v 0.80685 0.03003 0.15000
v 0.80685 0.03003 -0.15000
v 0.68596 0.04754 0.15000
v 0.81044 0.05478 -0.15000
v 0.68954 0.07228 0.15000
v 0.68954 0.07228 -0.15000
v 0.81044 0.05478 0.15000
v 0.82178 0.02772 0.15000
v 0.82560 0.05243 -0.15000
v 0.82560 0.05243 0.15000
v 0.82178 0.02772 -0.15000
v 0.82178 0.02772 -0.15000
v 0.94631 0.03380 -0.15000
v 0.82560 0.05243 -0.15000
v 0.94247 0.00909 -0.15000
v 0.94247 0.00909 -0.15000
v 0.94631 0.03380 0.15000
v 0.94631 0.03380 -0.15000
v 0.94247 0.00909 0.15000
v 0.94247 0.00909 0.15000
v 0.82560 0.05243 0.15000
v 0.94631 0.03380 0.15000
v 0.82178 0.02772 0.15000
v 0.82178 0.02772 -0.15000
v 0.94247 0.00909 0.15000
v 0.94247 0.00909 -0.15000
v 0.82178 0.02772 0.15000
v 0.94631 0.03380 -0.15000
v 0.82560 0.05243 0.15000
v 0.82560 0.05243 -0.15000
v 0.94631 0.03380 0.15000
vn 0.0009 0.9884 -0.1517
vn 0.0009 0.9884 -0.1517
vn 0.0009 0.9884 -0.1517
vn 0.0009 0.9884 -0.1517
vn -0.7071 0.7071 -0.0000
vn -0.7071 0.7071 -0.0000
vn -0.7071 0.7071 -0.0000
vn -0.7071 0.7071 -0.0000
vn -0.6987 -0.1085 -0.7072
vn -0.6987 -0.1085 -0.7072
vn -0.6987 -0.1085 -0.7072
vn -0.6987 -0.1085 -0.7072
vn -0.0000 -0.0000 1.0000
vn -0.0000 -0.0000 1.0000
vn -0.0000 -0.0000 1.0000
vn -0.0000 -0.0000 1.0000
vn 0.0625 -0.7051 0.7064
vn 0.0625 -0.7051 0.7064
vn 0.0625 -0.7051 0.7064
vn 0.0625 -0.7051 0.7064
vn -0.0459 0.7070 0.7057
vn -0.0459 0.7070 0.7057
vn -0.0459 0.7070 0.7057
vn -0.0459 0.7070 0.7057
vn 0.0008 0.9898 -0.1425
vn 0.0008 0.9898 -0.1425
vn 0.0008 0.9898 -0.1425
vn 0.0008 0.9898 -0.1425
vn -0.7071 0.7071 -0.0000
vn -0.7071 0.7071 -0.0000
vn -0.7071 0.7071 -0.0000
vn -0.7071 0.7071 -0.0000
vn -0.6997 -0.1018 -0.7071
vn -0.6997 -0.1018 -0.7071
vn -0.6997 -0.1018 -0.7071
vn -0.6997 -0.1018 -0.7071
vn -0.0000 -0.0000 1.0000
vn -0.0000 -0.0000 1.0000
vn -0.0000 -0.0000 1.0000
vn -0.0000 -0.0000 1.0000
vn 0.0582 -0.7054 0.7064
vn 0.0582 -0.7054 0.7064
vn 0.0582 -0.7054 0.7064
vn 0.0582 -0.7054 0.7064
vn -0.0436 0.7070 0.7059
vn -0.0436 0.7070 0.7059
vn -0.0436 0.7070 0.7059
vn -0.0436 0.7070 0.7059
vn 0.0005 0.9919 -0.1270
vn 0.0005 0.9919 -0.1270
vn 0.0005 0.9919 -0.1270
vn 0.0005 0.9919 -0.1270
vn -0.7071 0.7071 -0.0000
vn -0.7071 0.7071 -0.0000
vn -0.7071 0.7071 -0.0000
vn -0.7071 0.7071 -0.0000
vn -0.7012 -0.0906 -0.7072
vn -0.7012 -0.0906 -0.7072
vn -0.7012 -0.0906 -0.7072
vn -0.7012 -0.0906 -0.7072
vn -0.0000 -0.0000 1.0000
vn -0.0000 -0.0000 1.0000
vn -0.0000 -0.0000 1.0000
vn -0.0000 -0.0000 1.0000
vn 0.0510 -0.7058 0.7065
vn 0.0510 -0.7058 0.7065
vn 0.0510 -0.7058 0.7065
vn 0.0510 -0.7058 0.7065
vn -0.0395 0.7069 0.7062
vn -0.0395 0.7069 0.7062
vn -0.0395 0.7069 0.7062
vn -0.0395 0.7069 0.7062
vn 0.0003 0.9944 -0.1057
vn 0.0003 0.9944 -0.1057
vn 0.0003 0.9944 -0.1057
vn 0.0003 0.9944 -0.1057
vn -0.7071 0.7071 -0.0000
vn -0.7071 0.7071 -0.0000
vn -0.7071 0.7071 -0.0000
vn -0.7071 0.7071 -0.0000
vn -0.7031 -0.0752 -0.7072
vn -0.7031 -0.0752 -0.7072
vn -0.7031 -0.0752 -0.7072
vn -0.7031 -0.0752 -0.7072
vn -0.0000 -0.0000 1.0000
vn -0.0000 -0.0000 1.0000
vn -0.0000 -0.0000 1.0000
vn -0.0000 -0.0000 1.0000
vn 0.0415 -0.7063 0.7067
vn 0.0415 -0.7063 0.7067
vn 0.0415 -0.7063 0.7067
vn 0.0415 -0.7063 0.7067
vn -0.0336 0.7069 0.7065
vn -0.0336 0.7069 0.7065
vn -0.0336 0.7069 0.7065
vn -0.0336 0.7069 0.7065
vn 0.0001 0.9968 -0.0794
vn 0.0001 0.9968 -0.0794
vn 0.0001 0.9968 -0.0794
vn 0.0001 0.9968 -0.0794
vn -0.7071 0.7071 -0.0000
vn -0.7071 0.7071 -0.0000
vn -0.7071 0.7071 -0.0000
vn -0.7071 0.7071 -0.0000
vn -0.7048 -0.0564 -0.7071
vn -0.7048 -0.0564 -0.7071
vn -0.7048 -0.0564 -0.7071
vn -0.7048 -0.0564 -0.7071
vn -0.0000 -0.0000 1.0000
vn -0.0000 -0.0000 1.0000
vn -0.0000 -0.0000 1.0000
vn -0.0000 -0.0000 1.0000
vn 0.0304 -0.7067 0.7068
vn 0.0304 -0.7067 0.7068
vn 0.0304 -0.7067 0.7068
vn 0.0304 -0.7067 0.7068
vn -0.0259 0.7070 0.7068
vn -0.0259 0.7070 0.7068
vn -0.0259 0.7070 0.7068
vn -0.0259 0.7070 0.7068
vn 0.0000 0.9988 -0.0492
vn 0.0000 0.9988 -0.0492
vn 0.0000 0.9988 -0.0492
vn 0.0000 0.9988 -0.0492
vn -0.7071 0.7071 -0.0000
vn -0.7071 0.7071 -0.0000
vn -0.7071 0.7071 -0.0000
vn -0.7071 0.7071 -0.0000
vn -0.7062 -0.0358 -0.7071
vn -0.7062 -0.0358 -0.7071
vn -0.7062 -0.0358 -0.7071
vn -0.7062 -0.0358 -0.7071
vn -0.0000 -0.0000 1.0000
vn -0.0000 -0.0000 1.0000
vn -0.0000 -0.0000 1.0000
vn -0.0000 -0.0000 1.0000
vn 0.0183 -0.7070 0.7070
vn 0.0183 -0.7070 0.7070
vn 0.0183 -0.7070 0.7070
vn 0.0183 -0.7070 0.7070
vn -0.0166 0.7070 0.7070
vn -0.0166 0.7070 0.7070
vn -0.0166 0.7070 0.7070
vn -0.0166 0.7070 0.7070
vn 0.0000 0.9999 -0.0166
vn 0.0000 0.9999 -0.0166
vn 0.0000 0.9999 -0.0166
vn 0.0000 0.9999 -0.0166
vn -0.7071 0.7071 -0.0000
vn -0.7071 0.7071 -0.0000
vn -0.7071 0.7071 -0.0000
vn -0.7071 0.7071 -0.0000
vn 0.7070 0.0118 0.7071
vn 0.7070 0.0118 0.7071
vn 0.7070 0.0118 0.7071
vn 0.7070 0.0118 0.7071
vn -0.0000 -0.0000 1.0000
vn -0.0000 -0.0000 1.0000
vn -0.0000 -0.0000 1.0000
vn -0.0000 -0.0000 1.0000
vn 0.0060 -0.7071 0.7071
vn 0.0060 -0.7071 0.7071
vn 0.0060 -0.7071 0.7071
vn 0.0060 -0.7071 0.7071
vn -0.0058 0.7071 0.7071
vn -0.0058 0.7071 0.7071
vn -0.0058 0.7071 0.7071
vn -0.0058 0.7071 0.7071
vn -0.0000 0.9999 0.0167
vn -0.0000 0.9999 0.0167
vn -0.0000 0.9999 0.0167
vn -0.0000 0.9999 0.0167
vn -0.7071 0.7071 -0.0000
vn -0.7071 0.7071 -0.0000
vn -0.7071 0.7071 -0.0000
vn -0.7071 0.7071 -0.0000
vn 0.7070 -0.0118 0.7071
vn 0.7070 -0.0118 0.7071
vn 0.7070 -0.0118 0.7071
vn 0.7070 -0.0118 0.7071
vn -0.0000 -0.0000 1.0000
vn -0.0000 -0.0000 1.0000
vn -0.0000 -0.0000 1.0000
vn -0.0000 -0.0000 1.0000
vn 0.0058 0.7071 -0.7071
vn 0.0058 0.7071 -0.7071
vn 0.0058 0.7071 -0.7071
vn 0.0058 0.7071 -0.7071
vn -0.0060 -0.7071 -0.7071
vn -0.0060 -0.7071 -0.7071
vn -0.0060 -0.7071 -0.7071
vn -0.0060 -0.7071 -0.7071
vn -0.0000 0.9988 0.0493
vn -0.0000 0.9988 0.0493
vn -0.0000 0.9988 0.0493
vn -0.0000 0.9988 0.0493
vn -0.7071 0.7071 -0.0000
vn -0.7071 0.7071 -0.0000
vn -0.7071 0.7071 -0.0000
vn -0.7071 0.7071 -0.0000
vn 0.7062 -0.0359 0.7071
vn 0.7062 -0.0359 0.7071
vn 0.7062 -0.0359 0.7071
vn 0.7062 -0.0359 0.7071
vn -0.0000 -0.0000 1.0000
vn -0.0000 -0.0000 1.0000
vn -0.0000 -0.0000 1.0000
vn -0.0000 -0.0000 1.0000
vn 0.0166 0.7071 -0.7070
vn 0.0166 0.7071 -0.7070
vn 0.0166 0.7071 -0.7070
vn 0.0166 0.7071 -0.7070
vn -0.0183 -0.7069 -0.7071
vn -0.0183 -0.7069 -0.7071
vn -0.0183 -0.7069 -0.7071
vn -0.0183 -0.7069 -0.7071
vn -0.0001 0.9968 0.0795
vn -0.0001 0.9968 0.0795
vn -0.0001 0.9968 0.0795
vn -0.0001 0.9968 0.0795
vn -0.7071 0.7071 -0.0000
vn -0.7071 0.7071 -0.0000
vn -0.7071 0.7071 -0.0000
vn -0.7071 0.7071 -0.0000
vn 0.7048 -0.0564 0.7071
vn 0.7048 -0.0564 0.7071
vn 0.7048 -0.0564 0.7071
vn 0.7048 -0.0564 0.7071
vn -0.0000 -0.0000 1.0000
vn -0.0000 -0.0000 1.0000
vn -0.0000 -0.0000 1.0000
vn -0.0000 -0.0000 1.0000
vn 0.0260 0.7070 -0.7067
vn 0.0260 0.7070 -0.7067
vn 0.0260 0.7070 -0.7067
vn 0.0260 0.7070 -0.7067
vn -0.0304 -0.7067 -0.7069
vn -0.0304 -0.7067 -0.7069
vn -0.0304 -0.7067 -0.7069
vn -0.0304 -0.7067 -0.7069
vn -0.0003 0.9944 0.1057
vn -0.0003 0.9944 0.1057
vn -0.0003 0.9944 0.1057
vn -0.0003 0.9944 0.1057
vn -0.7071 0.7071 -0.0000
vn -0.7071 0.7071 -0.0000
vn -0.7071 0.7071 -0.0000
vn -0.7071 0.7071 -0.0000
vn 0.7031 -0.0753 0.7071
vn 0.7031 -0.0753 0.7071
vn 0.7031 -0.0753 0.7071
vn 0.7031 -0.0753 0.7071
vn -0.0000 -0.0000 1.0000
vn -0.0000 -0.0000 1.0000
vn -0.0000 -0.0000 1.0000
vn -0.0000 -0.0000 1.0000
vn 0.0336 0.7070 -0.7065
vn 0.0336 0.7070 -0.7065
vn 0.0336 0.7070 -0.7065
vn 0.0336 0.7070 -0.7065
vn -0.0415 -0.7063 -0.7067
vn -0.0415 -0.7063 -0.7067
vn -0.0415 -0.7063 -0.7067
vn -0.0415 -0.7063 -0.7067
vn -0.0005 0.9919 0.1271
vn -0.0005 0.9919 0.1271
vn -0.0005 0.9919 0.1271
vn -0.0005 0.9919 0.1271
vn -0.7071 0.7071 -0.0000
vn -0.7071 0.7071 -0.0000
vn -0.7071 0.7071 -0.0000
vn -0.7071 0.7071 -0.0000
vn 0.7013 -0.0906 0.7071
vn 0.7013 -0.0906 0.7071
vn 0.7013 -0.0906 0.7071
vn 0.7013 -0.0906 0.7071
vn -0.0000 -0.0000 1.0000
vn -0.0000 -0.0000 1.0000
vn -0.0000 -0.0000 1.0000
vn -0.0000 -0.0000 1.0000
vn 0.0395 0.7069 -0.7062
vn 0.0395 0.7069 -0.7062
vn 0.0395 0.7069 -0.7062
vn 0.0395 0.7069 -0.7062
vn -0.0510 -0.7058 -0.7066
vn -0.0510 -0.7058 -0.7066
vn -0.0510 -0.7058 -0.7066
vn -0.0510 -0.7058 -0.7066
vn -0.0007 0.9898 0.1426
vn -0.0007 0.9898 0.1426
vn -0.0007 0.9898 0.1426
vn -0.0007 0.9898 0.1426
vn -0.7071 0.7071 -0.0000
vn -0.7071 0.7071 -0.0000
vn -0.7071 0.7071 -0.0000
vn -0.7071 0.7071 -0.0000
vn 0.6997 -0.1019 0.7071
vn 0.6997 -0.1019 0.7071
vn 0.6997 -0.1019 0.7071
vn 0.6997 -0.1019 0.7071
vn -0.0000 -0.0000 1.0000
vn -0.0000 -0.0000 1.0000
vn -0.0000 -0.0000 1.0000
vn -0.0000 -0.0000 1.0000
vn 0.0436 0.7070 -0.7059
vn 0.0436 0.7070 -0.7059
vn 0.0436 0.7070 -0.7059
vn 0.0436 0.7070 -0.7059
vn -0.0581 -0.7053 -0.7065
vn -0.0581 -0.7053 -0.7065
vn -0.0581 -0.7053 -0.7065
vn -0.0581 -0.7053 -0.7065
vn -0.0009 0.9884 0.1517
vn -0.0009 0.9884 0.1517
vn -0.0009 0.9884 0.1517
vn -0.0009 0.9884 0.1517
vn -0.7071 0.7071 -0.0000
vn -0.7071 0.7071 -0.0000
vn -0.7071 0.7071 -0.0000
vn -0.7071 0.7071 -0.0000
vn 0.6987 -0.1085 0.7071
vn 0.6987 -0.1085 0.7071
vn 0.6987 -0.1085 0.7071
vn 0.6987 -0.1085 0.7071
vn -0.0000 -0.0000 1.0000
vn -0.0000 -0.0000 1.0000
vn -0.0000 -0.0000 1.0000
vn -0.0000 -0.0000 1.0000
vn 0.0459 0.7070 -0.7057
vn 0.0459 0.7070 -0.7057
vn 0.0459 0.7070 -0.7057
vn 0.0459 0.7070 -0.7057
vn -0.0624 -0.7051 -0.7064
vn -0.0624 -0.7051 -0.7064
vn -0.0624 -0.7051 -0.7064
vn -0.0624 -0.7051 -0.7064
f 1//1 3//3 2//2
f 1//1 2//2 4//4
f 5//5 7//7 6//6
f 5//5 6//6 8//8
f 9//9 11//11 10//10
f 9//9 10//10 12//12
f 13//13 15//15 14//14
f 13//13 14//14 16//16
f 17//17 19//19 18//18
f 17//17 18//18 20//20
f 21//21 23//23 22//22
f 21//21 22//22 24//24
f 25//25 27//27 26//26
f 25//25 26//26 28//28
f 29//29 31//31 30//30
f 29//29 30//30 32//32
f 33//33 35//35 34//34
f 33//33 34//34 36//36
f 37//37 39//39 38//38
f 37//37 38//38 40//40
f 41//41 43//43 42//42
f 41//41 42//42 44//44
f 45//45 47//47 46//46
f 45//45 46//46 48//48
f 49//49 51//51 50//50
f 49//49 50//50 52//52
f 53//53 55//55 54//54
f 53//53 54//54 56//56
f 57//57 59//59 58//58
f 57//57 58//58 60//60
f 61//61 63//63 62//62
f 61//61 62//62 64//64
f 65//65 67//67 66//66
f 65//65 66//66 68//68
f 69//69 71//71 70//70
f 69//69 70//70 72//72
f 73//73 75//75 74//74
f 73//73 74//74 76//76
f 77//77 79//79 78//78
f 77//77 78//78 80//80
f 81//81 83//83 82//82
f 81//81 82//82 84//84
f 85//85 87//87 86//86
f 85//85 86//86 88//88
f 89//89 91//91 90//90
f 89//89 90//90 92//92
f 93//93 95//95 94//94
f 93//93 94//94 96//96
f 97//97 99//99 98//98
f 97//97 98//98 100//100
f 101//101 103//103 102//102
f 101//101 102//102 104//104
f 105//105 107//107 106//106
f 105//105 106//106 108//108
f 109//109 111//111 110//110
f 109//109 110//110 112//112
f 113//113 115//115 114//114
f 113//113 114//114 116//116
f 117//117 119//119 118//118
f 117//117 118//118 120//120
f 121//121 123//123 122//122
f 121//121 122//122 124//124
f 125//125 127//127 126//126
f 125//125 126//126 128//128
f 129//129 131//131 130//130
f 129//129 130//130 132//132
f 133//133 135//135 134//134
f 133//133 134//134 136//136
f 137//137 139//139 138//138
f 137//137 138//138 140//140
f 141//141 143//143 142//142
f 141//141 142//142 144//144
f 145//145 147//147 146//146
f 145//145 146//146 148//148
f 149//149 151//151 150//150
f 149//149 150//150 152//152
f 153//153 155//155 154//154
f 153//153 154//154 156//156
f 157//157 159//159 158//158
f 157//157 158//158 160//160
f 161//161 163//163 162//162
f 161//161 162//162 164//164
f 165//165 167//167 166//166
f 165//165 166//166 168//168
f 169//169 171//171 170//170
f 169//169 170//170 172//172
f 173//173 175//175 174//174
f 173//173 174//174 176//176
f 177//177 179//179 178//178
f 177//177 178//178 180//180
f 181//181 183//183 182//182
f 181//181 182//182 184//184
f 185//185 187//187 186//186
f 185//185 186//186 188//188
f 189//189 191//191 190//190
f 189//189 190//190 192//192
f 193//193 195//195 194//194
f 193//193 194//194 196//196
f 197//197 199//199 198//198
f 197//197 198//198 200//200
f 201//201 203//203 202//202
f 201//201 202//202 204//204
f 205//205 207//207 206//206
f 205//205 206//206 208//208
f 209//209 211//211 210//210
f 209//209 210//210 212//212
f 213//213 215//215 214//214
f 213//213 214//214 216//216
f 217//217 219//219 218//218
f 217//217 218//218 220//220
f 221//221 223//223 222//222
f 221//221 222//222 224//224
f 225//225 227//227 226//226
f 225//225 226//226 228//228
f 229//229 231//231 230//230
f 229//229 230//230 232//232
f 233//233 235//235 234//234
f 233//233 234//234 236//236
f 237//237 239//239 238//238
f 237//237 238//238 240//240
f 241//241 243//243 242//242
f 241//241 242//242 244//244
f 245//245 247//247 246//246
f 245//245 246//246 248//248
f 249//249 251//251 250//250
f 249//249 250//250 252//252
f 253//253 255//255 254//254
f 253//253 254//254 256//256
f 257//257 259//259 258//258
f 257//257 258//258 260//260
f 261//261 263//263 262//262
f 261//261 262//262 264//264
f 265//265 267//267 266//266
f 265//265 266//266 268//268
f 269//269 271//271 270//270
f 269//269 270//270 272//272
f 273//273 275//275 274//274
f 273//273 274//274 276//276
f 277//277 279//279 278//278
f 277//277 278//278 280//280
f 281//281 283//283 282//282
f 281//281 282//282 284//284
f 285//285 287//287 286//286
f 285//285 286//286 288//288
f 289//289 291//291 290//290
f 289//289 290//290 292//292
f 293//293 295//295 294//294
f 293//293 294//294 296//296
f 297//297 299//299 298//298
f 297//297 298//298 300//300
f 301//301 303//303 302//302
f 301//301 302//302 304//304
f 305//305 307//307 306//306
f 305//305 306//306 308//308
f 309//309 311//311 310//310
f 309//309 310//310 312//312
f 313//313 315//315 314//314
f 313//313 314//314 316//316
f 317//317 319//319 318//318
f 317//317 318//318 320//320
f 321//321 323//323 322//322
f 321//321 322//322 324//324
f 325//325 327//327 326//326
f 325//325 326//326 328//328
f 329//329 331//331 330//330
f 329//329 330//330 332//332
f 333//333 335//335 334//334
f 333//333 334//334 336//336
g core_wood_dark
usemtl wood_dark
v -0.40000 -0.20000 0.08500
v -0.37837 0.05000 0.09750
v -0.40000 0.05000 0.08500
v -0.37837 -0.20000 0.09750
v -0.37837 -0.20000 0.09750
v -0.37837 0.05000 0.12250
v -0.37837 0.05000 0.09750
v -0.37837 -0.20000 0.12250
v -0.37837 -0.20000 0.12250
v -0.40000 0.05000 0.13500
v -0.37837 0.05000 0.12250
v -0.40000 -0.20000 0.13500
v -0.40000 -0.20000 0.13500
v -0.42165 0.05000 0.12250
v -0.40000 0.05000 0.13500
v -0.42165 -0.20000 0.12250
v -0.37837 0.05000 0.12250
v -0.40000 0.05000 0.08500
v -0.37837 0.05000 0.09750
v -0.42165 0.05000 0.12250
v -0.40000 0.05000 0.13500
v -0.42165 0.05000 0.09750
v -0.42165 -0.20000 0.12250
v -0.42165 0.05000 0.09750
v -0.42165 0.05000 0.12250
v -0.42165 -0.20000 0.09750
v -0.42165 -0.20000 0.09750
v -0.40000 0.05000 0.08500
v -0.42165 0.05000 0.09750
v -0.40000 -0.20000 0.08500
v -0.42165 -0.20000 0.09750
v -0.37837 -0.20000 0.09750
v -0.40000 -0.20000 0.08500
v -0.40000 -0.20000 0.13500
v -0.42165 -0.20000 0.12250
v -0.37837 -0.20000 0.12250
v 0.39998 -0.20000 0.08500
v 0.42163 0.05000 0.09750
v 0.39998 0.05000 0.08500
v 0.42163 -0.20000 0.09750
v 0.42163 -0.20000 0.09750
v 0.42163 0.05000 0.12250
v 0.42163 0.05000 0.09750
v 0.42163 -0.20000 0.12250
v 0.42163 -0.20000 0.12250
v 0.39998 0.05000 0.13500
v 0.42163 0.05000 0.12250
v 0.39998 -0.20000 0.13500
v 0.39998 -0.20000 0.13500
v 0.37835 0.05000 0.12250
v 0.39998 0.05000 0.13500
v 0.37835 -0.20000 0.12250
v 0.42163 0.05000 0.12250
v 0.39998 0.05000 0.08500
v 0.42163 0.05000 0.09750
v 0.37835 0.05000 0.12250
v 0.39998 0.05000 0.13500
v 0.37835 0.05000 0.09750
v 0.37835 -0.20000 0.12250
v 0.37835 0.05000 0.09750
v 0.37835 0.05000 0.12250
v 0.37835 -0.20000 0.09750
v 0.37835 -0.20000 0.09750
v 0.39998 0.05000 0.08500
v 0.37835 0.05000 0.09750
v 0.39998 -0.20000 0.08500
v 0.37835 -0.20000 0.09750
v 0.42163 -0.20000 0.09750
v 0.39998 -0.20000 0.08500
v 0.39998 -0.20000 0.13500
v 0.37835 -0.20000 0.12250
v 0.42163 -0.20000 0.12250
v -0.40000 -0.20000 -0.13500
v -0.37837 0.05000 -0.12250
v -0.40000 0.05000 -0.13500
v -0.37837 -0.20000 -0.12250
v -0.37837 -0.20000 -0.12250
v -0.37837 0.05000 -0.09750
v -0.37837 0.05000 -0.12250
v -0.37837 -0.20000 -0.09750
v -0.37837 -0.20000 -0.09750
v -0.40000 0.05000 -0.08500
v -0.37837 0.05000 -0.09750
v -0.40000 -0.20000 -0.08500
v -0.40000 -0.20000 -0.08500
v -0.42165 0.05000 -0.09750
v -0.40000 0.05000 -0.08500
v -0.42165 -0.20000 -0.09750
v -0.37837 0.05000 -0.09750
v -0.40000 0.05000 -0.13500
v -0.37837 0.05000 -0.12250
v -0.42165 0.05000 -0.09750
v -0.40000 0.05000 -0.08500
v -0.42165 0.05000 -0.12250
v -0.42165 -0.20000 -0.09750
v -0.42165 0.05000 -0.12250
v -0.42165 0.05000 -0.09750
v -0.42165 -0.20000 -0.12250
v -0.42165 -0.20000 -0.12250
v -0.40000 0.05000 -0.13500
v -0.42165 0.05000 -0.12250
v -0.40000 -0.20000 -0.13500
v -0.42165 -0.20000 -0.12250
v -0.37837 -0.20000 -0.12250
v -0.40000 -0.20000 -0.13500
v -0.40000 -0.20000 -0.08500
v -0.42165 -0.20000 -0.09750
v -0.37837 -0.20000 -0.09750
v 0.39998 -0.20000 -0.13500
v 0.42163 0.05000 -0.12250
v 0.39998 0.05000 -0.13500
v 0.42163 -0.20000 -0.12250
v 0.42163 -0.20000 -0.12250
v 0.42163 0.05000 -0.09750
v 0.42163 0.05000 -0.12250
v 0.42163 -0.20000 -0.09750
v 0.42163 -0.20000 -0.09750
v 0.39998 0.05000 -0.08500
v 0.42163 0.05000 -0.09750
v 0.39998 -0.20000 -0.08500
v 0.39998 -0.20000 -0.08500
v 0.37835 0.05000 -0.09750
v 0.39998 0.05000 -0.08500
v 0.37835 -0.20000 -0.09750
v 0.42163 0.05000 -0.09750
v 0.39998 0.05000 -0.13500
v 0.42163 0.05000 -0.12250
v 0.37835 0.05000 -0.09750
v 0.39998 0.05000 -0.08500
v 0.37835 0.05000 -0.12250
v 0.37835 -0.20000 -0.09750
v 0.37835 0.05000 -0.12250
v 0.37835 0.05000 -0.09750
v 0.37835 -0.20000 -0.12250
v 0.37835 -0.20000 -0.12250
v 0.39998 0.05000 -0.13500
v 0.37835 0.05000 -0.12250
v 0.39998 -0.20000 -0.13500
v 0.37835 -0.20000 -0.12250
v 0.42163 -0.20000 -0.12250
v 0.39998 -0.20000 -0.13500
v 0.39998 -0.20000 -0.08500
v 0.37835 -0.20000 -0.09750
v 0.42163 -0.20000 -0.09750
v -0.81000 0.03090 0.15000
v -0.81000 0.11090 0.13000
v -0.81000 0.11090 0.15000
v -0.81000 0.03090 0.13000
v -0.81000 0.03090 0.13000
v -0.79000 0.11090 0.13000
v -0.81000 0.11090 0.13000
v -0.79000 0.03090 0.13000
v -0.79000 0.03090 0.13000
v -0.79000 0.11090 0.15000
v -0.79000 0.11090 0.13000
v -0.79000 0.03090 0.15000
v -0.79000 0.03090 0.15000
v -0.81000 0.11090 0.15000
v -0.79000 0.11090 0.15000
v -0.81000 0.03090 0.15000
v -0.81000 0.03090 0.13000
v -0.79000 0.03090 0.15000
v -0.79000 0.03090 0.13000
v -0.81000 0.03090 0.15000
v -0.79000 0.11090 0.13000
v -0.81000 0.11090 0.15000
v -0.81000 0.11090 0.13000
v -0.79000 0.11090 0.15000
v -0.41001 0.08090 0.15000
v -0.41001 0.16090 0.13000
v -0.41001 0.16090 0.15000
v -0.41001 0.08090 0.13000
v -0.41001 0.08090 0.13000
v -0.39001 0.16090 0.13000
v -0.41001 0.16090 0.13000
v -0.39001 0.08090 0.13000
v -0.39001 0.08090 0.13000
v -0.39001 0.16090 0.15000
v -0.39001 0.16090 0.13000
v -0.39001 0.08090 0.15000
v -0.39001 0.08090 0.15000
v -0.41001 0.16090 0.15000
v -0.39001 0.16090 0.15000
v -0.41001 0.08090 0.15000
v -0.41001 0.08090 0.13000
v -0.39001 0.08090 0.15000
v -0.39001 0.08090 0.13000
v -0.41001 0.08090 0.15000
v -0.39001 0.16090 0.13000
v -0.41001 0.16090 0.15000
v -0.41001 0.16090 0.13000
v -0.39001 0.16090 0.15000
v -0.01002 0.10000 0.15000
v -0.01002 0.18000 0.13000
v -0.01002 0.18000 0.15000
v -0.01002 0.10000 0.13000
v -0.01002 0.10000 0.13000
v 0.01000 0.18000 0.13000
v -0.01002 0.18000 0.13000
v 0.01000 0.10000 0.13000
v 0.01000 0.10000 0.13000
v 0.01000 0.18000 0.15000
v 0.01000 0.18000 0.13000
v 0.01000 0.10000 0.15000
v 0.01000 0.10000 0.15000
v -0.01002 0.18000 0.15000
v 0.01000 0.18000 0.15000
v -0.01002 0.10000 0.15000
v -0.01002 0.10000 0.13000
v 0.01000 0.10000 0.15000
v 0.01000 0.10000 0.13000
v -0.01002 0.10000 0.15000
v 0.01000 0.18000 0.13000
v -0.01002 0.18000 0.15000
v -0.01002 0.18000 0.13000
v 0.01000 0.18000 0.15000
v 0.38999 0.08090 0.15000
v 0.38999 0.16090 0.13000
v 0.38999 0.16090 0.15000
v 0.38999 0.08090 0.13000
v 0.38999 0.08090 0.13000
v 0.40999 0.16090 0.13000
v 0.38999 0.16090 0.13000
v 0.40999 0.08090 0.13000
v 0.40999 0.08090 0.13000
v 0.40999 0.16090 0.15000
v 0.40999 0.16090 0.13000
v 0.40999 0.08090 0.15000
v 0.40999 0.08090 0.15000
v 0.38999 0.16090 0.15000
v 0.40999 0.16090 0.15000
v 0.38999 0.08090 0.15000
v 0.38999 0.08090 0.13000
v 0.40999 0.08090 0.15000
v 0.40999 0.08090 0.13000
v 0.38999 0.08090 0.15000
v 0.40999 0.16090 0.13000
v 0.38999 0.16090 0.15000
v 0.38999 0.16090 0.13000
v 0.40999 0.16090 0.15000
v 0.78998 0.03090 0.15000
v 0.78998 0.11090 0.13000
v 0.78998 0.11090 0.15000
v 0.78998 0.03090 0.13000
v 0.78998 0.03090 0.13000
v 0.81000 0.11090 0.13000
v 0.78998 0.11090 0.13000
v 0.81000 0.03090 0.13000
v 0.81000 0.03090 0.13000
v 0.81000 0.11090 0.15000
v 0.81000 0.11090 0.13000
v 0.81000 0.03090 0.15000
v 0.81000 0.03090 0.15000
v 0.78998 0.11090 0.15000
v 0.81000 0.11090 0.15000
v 0.78998 0.03090 0.15000
v 0.78998 0.03090 0.13000
v 0.81000 0.03090 0.15000
v 0.81000 0.03090 0.13000
v 0.78998 0.03090 0.15000
v 0.81000 0.11090 0.13000
v 0.78998 0.11090 0.15000
v 0.78998 0.11090 0.13000
v 0.81000 0.11090 0.15000
v -0.81000 0.03090 -0.13000
v -0.81000 0.11090 -0.15000
v -0.81000 0.11090 -0.13000
v -0.81000 0.03090 -0.15000
v -0.81000 0.03090 -0.15000
v -0.79000 0.11090 -0.15000
v -0.81000 0.11090 -0.15000
v -0.79000 0.03090 -0.15000
v -0.79000 0.03090 -0.15000
v -0.79000 0.11090 -0.13000
v -0.79000 0.11090 -0.15000
v -0.79000 0.03090 -0.13000
v -0.79000 0.03090 -0.13000
v -0.81000 0.11090 -0.13000
v -0.79000 0.11090 -0.13000
v -0.81000 0.03090 -0.13000
v -0.81000 0.03090 -0.15000
v -0.79000 0.03090 -0.13000
v -0.79000 0.03090 -0.15000
v -0.81000 0.03090 -0.13000
v -0.79000 0.11090 -0.15000
v -0.81000 0.11090 -0.13000
v -0.81000 0.11090 -0.15000
v -0.79000 0.11090 -0.13000
v -0.41001 0.08090 -0.13000
v -0.41001 0.16090 -0.15000
v -0.41001 0.16090 -0.13000
v -0.41001 0.08090 -0.15000
v -0.41001 0.08090 -0.15000
v -0.39001 0.16090 -0.15000
v -0.41001 0.16090 -0.15000
v -0.39001 0.08090 -0.15000
v -0.39001 0.08090 -0.15000
v -0.39001 0.16090 -0.13000
v -0.39001 0.16090 -0.15000
v -0.39001 0.08090 -0.13000
v -0.39001 0.08090 -0.13000
v -0.41001 0.16090 -0.13000
v -0.39001 0.16090 -0.13000
v -0.41001 0.08090 -0.13000
v -0.41001 0.08090 -0.15000
v -0.39001 0.08090 -0.13000
v -0.39001 0.08090 -0.15000
v -0.41001 0.08090 -0.13000
v -0.39001 0.16090 -0.15000
v -0.41001 0.16090 -0.13000
v -0.41001 0.16090 -0.15000
v -0.39001 0.16090 -0.13000
v -0.01002 0.10000 -0.13000
v -0.01002 0.18000 -0.15000
v -0.01002 0.18000 -0.13000
v -0.01002 0.10000 -0.15000
v -0.01002 0.10000 -0.15000
v 0.01000 0.18000 -0.15000
v -0.01002 0.18000 -0.15000
v 0.01000 0.10000 -0.15000
v 0.01000 0.10000 -0.15000
v 0.01000 0.18000 -0.13000
v 0.01000 0.18000 -0.15000
v 0.01000 0.10000 -0.13000
v 0.01000 0.10000 -0.13000
v -0.01002 0.18000 -0.13000
v 0.01000 0.18000 -0.13000
v -0.01002 0.10000 -0.13000
v -0.01002 0.10000 -0.15000
v 0.01000 0.10000 -0.13000
v 0.01000 0.10000 -0.15000
v -0.01002 0.10000 -0.13000
v 0.01000 0.18000 -0.15000
v -0.01002 0.18000 -0.13000
v -0.01002 0.18000 -0.15000
v 0.01000 0.18000 -0.13000
v 0.38999 0.08090 -0.13000
v 0.38999 0.16090 -0.15000
v 0.38999 0.16090 -0.13000
v 0.38999 0.08090 -0.15000
v 0.38999 0.08090 -0.15000
v 0.40999 0.16090 -0.15000
v 0.38999 0.16090 -0.15000
v 0.40999 0.08090 -0.15000
v 0.40999 0.08090 -0.15000
v 0.40999 0.16090 -0.13000
v 0.40999 0.16090 -0.15000
v 0.40999 0.08090 -0.13000
v 0.40999 0.08090 -0.13000
v 0.38999 0.16090 -0.13000
v 0.40999 0.16090 -0.13000
v 0.38999 0.08090 -0.13000
v 0.38999 0.08090 -0.15000
v 0.40999 0.08090 -0.13000
v 0.40999 0.08090 -0.15000
v 0.38999 0.08090 -0.13000
v 0.40999 0.16090 -0.15000
v 0.38999 0.16090 -0.13000
v 0.38999 0.16090 -0.15000
v 0.40999 0.16090 -0.13000
v 0.78998 0.03090 -0.13000
v 0.78998 0.11090 -0.15000
v 0.78998 0.11090 -0.13000
v 0.78998 0.03090 -0.15000
v 0.78998 0.03090 -0.15000
v 0.81000 0.11090 -0.15000
v 0.78998 0.11090 -0.15000
v 0.81000 0.03090 -0.15000
v 0.81000 0.03090 -0.15000
v 0.81000 0.11090 -0.13000
v 0.81000 0.11090 -0.15000
v 0.81000 0.03090 -0.13000
v 0.81000 0.03090 -0.13000
v 0.78998 0.11090 -0.13000
v 0.81000 0.11090 -0.13000
v 0.78998 0.03090 -0.13000
v 0.78998 0.03090 -0.15000
v 0.81000 0.03090 -0.13000
v 0.81000 0.03090 -0.15000
v 0.78998 0.03090 -0.13000
v 0.81000 0.11090 -0.15000
v 0.78998 0.11090 -0.13000
v 0.78998 0.11090 -0.15000
v 0.81000 0.11090 -0.13000
vn 0.8581 -0.4592 0.2299
vn 0.8581 -0.4592 0.2299
vn 0.8581 -0.4592 0.2299
vn 0.8581 -0.4592 0.2299
vn 0.7071 -0.0000 0.7071
vn 0.7071 -0.0000 0.7071
vn 0.7071 -0.0000 0.7071
vn 0.7071 -0.0000 0.7071
vn 0.2563 -0.1372 0.9568
vn 0.2563 -0.1372 0.9568
vn 0.2563 -0.1372 0.9568
vn 0.2563 -0.1372 0.9568
vn -0.2330 0.4353 0.8696
vn -0.2330 0.4353 0.8696
vn -0.2330 0.4353 0.8696
vn -0.2330 0.4353 0.8696
vn -0.0000 0.7071 0.7071
vn -0.0000 0.7071 0.7071
vn -0.0000 0.7071 0.7071
vn -0.0000 0.7071 0.7071
vn -0.0000 0.7071 0.7071
vn -0.0000 0.7071 0.7071
vn 0.0000 1.0000 -0.0000
vn 0.0000 1.0000 -0.0000
vn 0.0000 1.0000 -0.0000
vn 0.0000 1.0000 -0.0000
vn -0.4681 0.8747 0.1254
vn -0.4681 0.8747 0.1254
vn -0.4681 0.8747 0.1254
vn -0.4681 0.8747 0.1254
vn -0.0000 -0.7071 0.7071
vn -0.0000 -0.7071 0.7071
vn -0.0000 -0.7071 0.7071
vn -0.0000 -0.7071 0.7071
vn -0.0000 -0.7071 0.7071
vn -0.0000 -0.7071 0.7071
vn 0.8581 -0.4592 0.2299
vn 0.8581 -0.4592 0.2299
vn 0.8581 -0.4592 0.2299
vn 0.8581 -0.4592 0.2299
vn 0.7071 -0.0000 0.7071
vn 0.7071 -0.0000 0.7071
vn 0.7071 -0.0000 0.7071
vn 0.7071 -0.0000 0.7071
vn 0.2563 -0.1372 0.9568
vn 0.2563 -0.1372 0.9568
vn 0.2563 -0.1372 0.9568
vn 0.2563 -0.1372 0.9568
vn -0.2330 0.4353 0.8696
vn -0.2330 0.4353 0.8696
vn -0.2330 0.4353 0.8696
vn -0.2330 0.4353 0.8696
vn -0.0000 0.7071 0.7071
vn -0.0000 0.7071 0.7071
vn -0.0000 0.7071 0.7071
vn -0.0000 0.7071 0.7071
vn -0.0000 0.7071 0.7071
vn -0.0000 0.7071 0.7071
vn 0.0000 1.0000 -0.0000
vn 0.0000 1.0000 -0.0000
vn 0.0000 1.0000 -0.0000
vn 0.0000 1.0000 -0.0000
vn -0.4681 0.8747 0.1254
vn -0.4681 0.8747 0.1254
vn -0.4681 0.8747 0.1254
vn -0.4681 0.8747 0.1254
vn -0.0000 -0.7071 0.7071
vn -0.0000 -0.7071 0.7071
vn -0.0000 -0.7071 0.7071
vn -0.0000 -0.7071 0.7071
vn -0.0000 -0.7071 0.7071
vn -0.0000 -0.7071 0.7071
vn 0.8581 -0.4592 0.2299
vn 0.8581 -0.4592 0.2299
vn 0.8581 -0.4592 0.2299
vn 0.8581 -0.4592 0.2299
vn 0.7071 -0.0000 0.7071
vn 0.7071 -0.0000 0.7071
vn 0.7071 -0.0000 0.7071
vn 0.7071 -0.0000 0.7071
vn 0.2563 -0.1372 0.9568
vn 0.2563 -0.1372 0.9568
vn 0.2563 -0.1372 0.9568
vn 0.2563 -0.1372 0.9568
vn -0.2330 0.4353 0.8696
vn -0.2330 0.4353 0.8696
vn -0.2330 0.4353 0.8696
vn -0.2330 0.4353 0.8696
vn -0.0000 0.7071 0.7071
vn -0.0000 0.7071 0.7071
vn -0.0000 0.7071 0.7071
vn -0.0000 0.7071 0.7071
vn -0.0000 0.7071 0.7071
vn -0.0000 0.7071 0.7071
vn 0.0000 1.0000 -0.0000
vn 0.0000 1.0000 -0.0000
vn 0.0000 1.0000 -0.0000
vn 0.0000 1.0000 -0.0000
vn -0.4681 0.8747 0.1254
vn -0.4681 0.8747 0.1254
vn -0.4681 0.8747 0.1254
vn -0.4681 0.8747 0.1254
vn -0.0000 -0.7071 0.7071
vn -0.0000 -0.7071 0.7071
vn -0.0000 -0.7071 0.7071
vn -0.0000 -0.7071 0.7071
vn -0.0000 -0.7071 0.7071
vn -0.0000 -0.7071 0.7071
vn 0.8581 -0.4592 0.2299
vn 0.8581 -0.4592 0.2299
vn 0.8581 -0.4592 0.2299
vn 0.8581 -0.4592 0.2299
vn 0.7071 -0.0000 0.7071
vn 0.7071 -0.0000 0.7071
vn 0.7071 -0.0000 0.7071
vn 0.7071 -0.0000 0.7071
vn 0.2563 -0.1372 0.9568
vn 0.2563 -0.1372 0.9568
vn 0.2563 -0.1372 0.9568
vn 0.2563 -0.1372 0.9568
vn -0.2330 0.4353 0.8696
vn -0.2330 0.4353 0.8696
vn -0.2330 0.4353 0.8696
vn -0.2330 0.4353 0.8696
vn -0.0000 0.7071 0.7071
vn -0.0000 0.7071 0.7071
vn -0.0000 0.7071 0.7071
vn -0.0000 0.7071 0.7071
vn -0.0000 0.7071 0.7071
vn -0.0000 0.7071 0.7071
vn 0.0000 1.0000 -0.0000
vn 0.0000 1.0000 -0.0000
vn 0.0000 1.0000 -0.0000
vn 0.0000 1.0000 -0.0000
vn -0.4681 0.8747 0.1254
vn -0.4681 0.8747 0.1254
vn -0.4681 0.8747 0.1254
vn -0.4681 0.8747 0.1254
vn -0.0000 -0.7071 0.7071
vn -0.0000 -0.7071 0.7071
vn -0.0000 -0.7071 0.7071
vn -0.0000 -0.7071 0.7071
vn -0.0000 -0.7071 0.7071
vn -0.0000 -0.7071 0.7071
vn 0.0000 1.0000 -0.0000
vn 0.0000 1.0000 -0.0000
vn 0.0000 1.0000 -0.0000
vn 0.0000 1.0000 -0.0000
vn -0.7071 0.7071 -0.0000
vn -0.7071 0.7071 -0.0000
vn -0.7071 0.7071 -0.0000
vn -0.7071 0.7071 -0.0000
vn 0.7071 -0.0000 0.7071
vn 0.7071 -0.0000 0.7071
vn 0.7071 -0.0000 0.7071
vn 0.7071 -0.0000 0.7071
vn -0.0000 -0.0000 1.0000
vn -0.0000 -0.0000 1.0000
vn -0.0000 -0.0000 1.0000
vn -0.0000 -0.0000 1.0000
vn -0.0000 -0.7071 0.7071
vn -0.0000 -0.7071 0.7071
vn -0.0000 -0.7071 0.7071
vn -0.0000 -0.7071 0.7071
vn -0.0000 0.7071 0.7071
vn -0.0000 0.7071 0.7071
vn -0.0000 0.7071 0.7071
vn -0.0000 0.7071 0.7071
vn 0.0000 1.0000 -0.0000
vn 0.0000 1.0000 -0.0000
vn 0.0000 1.0000 -0.0000
vn 0.0000 1.0000 -0.0000
vn -0.7071 0.7071 -0.0000
vn -0.7071 0.7071 -0.0000
vn -0.7071 0.7071 -0.0000
vn -0.7071 0.7071 -0.0000
vn 0.7071 -0.0000 0.7071
vn 0.7071 -0.0000 0.7071
vn 0.7071 -0.0000 0.7071
vn 0.7071 -0.0000 0.7071
vn -0.0000 -0.0000 1.0000
vn -0.0000 -0.0000 1.0000
vn -0.0000 -0.0000 1.0000
vn -0.0000 -0.0000 1.0000
vn -0.0000 -0.7071 0.7071
vn -0.0000 -0.7071 0.7071
vn -0.0000 -0.7071 0.7071
vn -0.0000 -0.7071 0.7071
vn -0.0000 0.7071 0.7071
vn -0.0000 0.7071 0.7071
vn -0.0000 0.7071 0.7071
vn -0.0000 0.7071 0.7071
vn 0.0000 1.0000 -0.0000
vn 0.0000 1.0000 -0.0000
vn 0.0000 1.0000 -0.0000
vn 0.0000 1.0000 -0.0000
vn -0.7071 0.7071 -0.0000
vn -0.7071 0.7071 -0.0000
vn -0.7071 0.7071 -0.0000
vn -0.7071 0.7071 -0.0000
vn 0.7071 -0.0000 0.7071
vn 0.7071 -0.0000 0.7071
vn 0.7071 -0.0000 0.7071
vn 0.7071 -0.0000 0.7071
vn -0.0000 -0.0000 1.0000
vn -0.0000 -0.0000 1.0000
vn -0.0000 -0.0000 1.0000
vn -0.0000 -0.0000 1.0000
vn -0.0000 -0.7071 0.7071
vn -0.0000 -0.7071 0.7071
vn -0.0000 -0.7071 0.7071
vn -0.0000 -0.7071 0.7071
vn -0.0000 0.7071 0.7071
vn -0.0000 0.7071 0.7071
vn -0.0000 0.7071 0.7071
vn -0.0000 0.7071 0.7071
vn 0.0000 1.0000 -0.0000
vn 0.0000 1.0000 -0.0000
vn 0.0000 1.0000 -0.0000
vn 0.0000 1.0000 -0.0000
vn -0.7071 0.7071 -0.0000
vn -0.7071 0.7071 -0.0000
vn -0.7071 0.7071 -0.0000
vn -0.7071 0.7071 -0.0000
vn 0.7071 -0.0000 0.7071
vn 0.7071 -0.0000 0.7071
vn 0.7071 -0.0000 0.7071
vn 0.7071 -0.0000 0.7071
vn -0.0000 -0.0000 1.0000
vn -0.0000 -0.0000 1.0000
vn -0.0000 -0.0000 1.0000
vn -0.0000 -0.0000 1.0000
vn -0.0000 -0.7071 0.7071
vn -0.0000 -0.7071 0.7071
vn -0.0000 -0.7071 0.7071
vn -0.0000 -0.7071 0.7071
vn -0.0000 0.7071 0.7071
vn -0.0000 0.7071 0.7071
vn -0.0000 0.7071 0.7071
vn -0.0000 0.7071 0.7071
vn 0.0000 1.0000 -0.0000
vn 0.0000 1.0000 -0.0000
vn 0.0000 1.0000 -0.0000
vn 0.0000 1.0000 -0.0000
vn -0.7071 0.7071 -0.0000
vn -0.7071 0.7071 -0.0000
vn -0.7071 0.7071 -0.0000
vn -0.7071 0.7071 -0.0000
vn 0.7071 -0.0000 0.7071
vn 0.7071 -0.0000 0.7071
vn 0.7071 -0.0000 0.7071
vn 0.7071 -0.0000 0.7071
vn -0.0000 -0.0000 1.0000
vn -0.0000 -0.0000 1.0000
vn -0.0000 -0.0000 1.0000
vn -0.0000 -0.0000 1.0000
vn -0.0000 -0.7071 0.7071
vn -0.0000 -0.7071 0.7071
vn -0.0000 -0.7071 0.7071
vn -0.0000 -0.7071 0.7071
vn -0.0000 0.7071 0.7071
vn -0.0000 0.7071 0.7071
vn -0.0000 0.7071 0.7071
vn -0.0000 0.7071 0.7071
vn 0.0000 1.0000 -0.0000
vn 0.0000 1.0000 -0.0000
vn 0.0000 1.0000 -0.0000
vn 0.0000 1.0000 -0.0000
vn -0.7071 0.7071 -0.0000
vn -0.7071 0.7071 -0.0000
vn -0.7071 0.7071 -0.0000
vn -0.7071 0.7071 -0.0000
vn 0.7071 -0.0000 0.7071
vn 0.7071 -0.0000 0.7071
vn 0.7071 -0.0000 0.7071
vn 0.7071 -0.0000 0.7071
vn -0.0000 -0.0000 1.0000
vn -0.0000 -0.0000 1.0000
vn -0.0000 -0.0000 1.0000
vn -0.0000 -0.0000 1.0000
vn -0.0000 -0.7071 0.7071
vn -0.0000 -0.7071 0.7071
vn -0.0000 -0.7071 0.7071
vn -0.0000 -0.7071 0.7071
vn -0.0000 0.7071 0.7071
vn -0.0000 0.7071 0.7071
vn -0.0000 0.7071 0.7071
vn -0.0000 0.7071 0.7071
vn 0.0000 1.0000 -0.0000
vn 0.0000 1.0000 -0.0000
vn 0.0000 1.0000 -0.0000
vn 0.0000 1.0000 -0.0000
vn -0.7071 0.7071 -0.0000
vn -0.7071 0.7071 -0.0000
vn -0.7071 0.7071 -0.0000
vn -0.7071 0.7071 -0.0000
vn 0.7071 -0.0000 0.7071
vn 0.7071 -0.0000 0.7071
vn 0.7071 -0.0000 0.7071
vn 0.7071 -0.0000 0.7071
vn -0.0000 -0.0000 1.0000
vn -0.0000 -0.0000 1.0000
vn -0.0000 -0.0000 1.0000
vn -0.0000 -0.0000 1.0000
vn -0.0000 -0.7071 0.7071
vn -0.0000 -0.7071 0.7071
vn -0.0000 -0.7071 0.7071
vn -0.0000 -0.7071 0.7071
vn -0.0000 0.7071 0.7071
vn -0.0000 0.7071 0.7071
vn -0.0000 0.7071 0.7071
vn -0.0000 0.7071 0.7071
vn 0.0000 1.0000 -0.0000
vn 0.0000 1.0000 -0.0000
vn 0.0000 1.0000 -0.0000
vn 0.0000 1.0000 -0.0000
vn -0.7071 0.7071 -0.0000
vn -0.7071 0.7071 -0.0000
vn -0.7071 0.7071 -0.0000
vn -0.7071 0.7071 -0.0000
vn 0.7071 -0.0000 0.7071
vn 0.7071 -0.0000 0.7071
vn 0.7071 -0.0000 0.7071
vn 0.7071 -0.0000 0.7071
vn -0.0000 -0.0000 1.0000
vn -0.0000 -0.0000 1.0000
vn -0.0000 -0.0000 1.0000
vn -0.0000 -0.0000 1.0000
vn -0.0000 -0.7071 0.7071
vn -0.0000 -0.7071 0.7071
vn -0.0000 -0.7071 0.7071
vn -0.0000 -0.7071 0.7071
vn -0.0000 0.7071 0.7071
vn -0.0000 0.7071 0.7071
vn -0.0000 0.7071 0.7071
vn -0.0000 0.7071 0.7071
vn 0.0000 1.0000 -0.0000
vn 0.0000 1.0000 -0.0000
vn 0.0000 1.0000 -0.0000
vn 0.0000 1.0000 -0.0000
vn -0.7071 0.7071 -0.0000
vn -0.7071 0.7071 -0.0000
vn -0.7071 0.7071 -0.0000
vn -0.7071 0.7071 -0.0000
vn 0.7071 -0.0000 0.7071
vn 0.7071 -0.0000 0.7071
vn 0.7071 -0.0000 0.7071
vn 0.7071 -0.0000 0.7071
vn -0.0000 -0.0000 1.0000
vn -0.0000 -0.0000 1.0000
vn -0.0000 -0.0000 1.0000
vn -0.0000 -0.0000 1.0000
vn -0.0000 -0.7071 0.7071
vn -0.0000 -0.7071 0.7071
vn -0.0000 -0.7071 0.7071
vn -0.0000 -0.7071 0.7071
vn -0.0000 0.7071 0.7071
vn -0.0000 0.7071 0.7071
vn -0.0000 0.7071 0.7071
vn -0.0000 0.7071 0.7071
vn 0.0000 1.0000 -0.0000
vn 0.0000 1.0000 -0.0000
vn 0.0000 1.0000 -0.0000
vn 0.0000 1.0000 -0.0000
vn -0.7071 0.7071 -0.0000
vn -0.7071 0.7071 -0.0000
vn -0.7071 0.7071 -0.0000
vn -0.7071 0.7071 -0.0000
vn 0.7071 -0.0000 0.7071
vn 0.7071 -0.0000 0.7071
vn 0.7071 -0.0000 0.7071
vn 0.7071 -0.0000 0.7071
vn -0.0000 -0.0000 1.0000
vn -0.0000 -0.0000 1.0000
vn -0.0000 -0.0000 1.0000
vn -0.0000 -0.0000 1.0000
vn -0.0000 -0.7071 0.7071
vn -0.0000 -0.7071 0.7071
vn -0.0000 -0.7071 0.7071
vn -0.0000 -0.7071 0.7071
vn -0.0000 0.7071 0.7071
vn -0.0000 0.7071 0.7071
vn -0.0000 0.7071 0.7071
vn -0.0000 0.7071 0.7071
f 481//481 483//483 482//482
f 481//481 482//482 484//484
f 485//485 487//487 486//486
f 485//485 486//486 488//488
f 489//489 491//491 490//490
f 489//489 490//490 492//492
f 493//493 495//495 494//494
f 493//493 494//494 496//496
f 497//497 499//499 498//498
f 497//497 498//498 500//500
f 501//501 503//503 502//502
f 501//501 502//502 504//504
f 505//505 507//507 506//506
f 505//505 506//506 508//508
f 509//509 511//511 510//510
f 509//509 510//510 512//512
f 513//513 515//515 514//514
f 513//513 514//514 516//516
f 517//517 519//519 518//518
f 517//517 518//518 520//520
f 521//521 523//523 522//522
f 521//521 522//522 524//524
f 525//525 527//527 526//526
f 525//525 526//526 528//528
f 529//529 531//531 530//530
f 529//529 530//530 532//532
f 533//533 535//535 534//534
f 533//533 534//534 536//536
f 537//537 539//539 538//538
f 537//537 538//538 540//540
f 541//541 543//543 542//542
f 541//541 542//542 544//544
f 545//545 547//547 546//546
f 545//545 546//546 548//548
f 549//549 551//551 550//550
f 549//549 550//550 552//552
f 553//553 555//555 554//554
f 553//553 554//554 556//556
f 557//557 559//559 558//558
f 557//557 558//558 560//560
f 561//561 563//563 562//562
f 561//561 562//562 564//564
f 565//565 567//567 566//566
f 565//565 566//566 568//568
f 569//569 571//571 570//570
f 569//569 570//570 572//572
f 573//573 575//575 574//574
f 573//573 574//574 576//576
f 577//577 579//579 578//578
f 577//577 578//578 580//580
f 581//581 583//583 582//582
f 581//581 582//582 584//584
f 585//585 587//587 586//586
f 585//585 586//586 588//588
f 589//589 591//591 590//590
f 589//589 590//590 592//592
f 593//593 595//595 594//594
f 593//593 594//594 596//596
f 597//597 599//599 598//598
f 597//597 598//598 600//600
f 337//337 339//339 338//338
f 337//337 338//338 340//340
f 341//341 343//343 342//342
f 341//341 342//342 344//344
f 345//345 347//347 346//346
f 345//345 346//346 348//348
f 349//349 351//351 350//350
f 349//349 350//350 352//352
f 353//353 355//355 354//354
f 354//354 356//356 353//353
f 356//356 357//357 353//353
f 354//354 358//358 356//356
f 359//359 361//361 360//360
f 359//359 360//360 362//362
f 363//363 365//365 364//364
f 363//363 364//364 366//366
f 367//367 369//369 368//368
f 368//368 370//370 367//367
f 370//370 371//371 367//367
f 368//368 372//372 370//370
f 373//373 375//375 374//374
f 373//373 374//374 376//376
f 377//377 379//379 378//378
f 377//377 378//378 380//380
f 381//381 383//383 382//382
f 381//381 382//382 384//384
f 385//385 387//387 386//386
f 385//385 386//386 388//388
f 389//389 391//391 390//390
f 390//390 392//392 389//389
f 392//392 393//393 389//389
f 390//390 394//394 392//392
f 395//395 397//397 396//396
f 395//395 396//396 398//398
f 399//399 401//401 400//400
f 399//399 400//400 402//402
f 403//403 405//405 404//404
f 404//404 406//406 403//403
f 406//406 407//407 403//403
f 404//404 408//408 406//406
f 601//601 603//603 602//602
f 601//601 602//602 604//604
f 605//605 607//607 606//606
f 605//605 606//606 608//608
f 609//609 611//611 610//610
f 609//609 610//610 612//612
f 613//613 615//615 614//614
f 613//613 614//614 616//616
f 617//617 619//619 618//618
f 617//617 618//618 620//620
f 621//621 623//623 622//622
f 621//621 622//622 624//624
f 625//625 627//627 626//626
f 625//625 626//626 628//628
f 629//629 631//631 630//630
f 629//629 630//630 632//632
f 633//633 635//635 634//634
f 633//633 634//634 636//636
f 637//637 639//639 638//638
f 637//637 638//638 640//640
f 641//641 643//643 642//642
f 641//641 642//642 644//644
f 645//645 647//647 646//646
f 645//645 646//646 648//648
f 649//649 651//651 650//650
f 649//649 650//650 652//652
f 653//653 655//655 654//654
f 653//653 654//654 656//656
f 657//657 659//659 658//658
f 657//657 658//658 660//660
f 661//661 663//663 662//662
f 661//661 662//662 664//664
f 665//665 667//667 666//666
f 665//665 666//666 668//668
f 669//669 671//671 670//670
f 669//669 670//670 672//672
f 673//673 675//675 674//674
f 673//673 674//674 676//676
f 677//677 679//679 678//678
f 677//677 678//678 680//680
f 681//681 683//683 682//682
f 681//681 682//682 684//684
f 685//685 687//687 686//686
f 685//685 686//686 688//688
f 689//689 691//691 690//690
f 689//689 690//690 692//692
f 693//693 695//695 694//694
f 693//693 694//694 696//696
f 697//697 699//699 698//698
f 697//697 698//698 700//700
f 701//701 703//703 702//702
f 701//701 702//702 704//704
f 705//705 707//707 706//706
f 705//705 706//706 708//708
f 709//709 711//711 710//710
f 709//709 710//710 712//712
f 713//713 715//715 714//714
f 713//713 714//714 716//716
f 717//717 719//719 718//718
f 717//717 718//718 720//720
f 409//409 411//411 410//410
f 409//409 410//410 412//412
f 413//413 415//415 414//414
f 413//413 414//414 416//416
f 417//417 419//419 418//418
f 417//417 418//418 420//420
f 421//421 423//423 422//422
f 421//421 422//422 424//424
f 425//425 427//427 426//426
f 426//426 428//428 425//425
f 428//428 429//429 425//425
f 426//426 430//430 428//428
f 431//431 433//433 432//432
f 431//431 432//432 434//434
f 435//435 437//437 436//436
f 435//435 436//436 438//438
f 439//439 441//441 440//440
f 440//440 442//442 439//439
f 442//442 443//443 439//439
f 440//440 444//444 442//442
f 445//445 447//447 446//446
f 445//445 446//446 448//448
f 449//449 451//451 450//450
f 449//449 450//450 452//452
f 453//453 455//455 454//454
f 453//453 454//454 456//456
f 457//457 459//459 458//458
f 457//457 458//458 460//460
f 461//461 463//463 462//462
f 462//462 464//464 461//461
f 464//464 465//465 461//461
f 462//462 466//466 464//464
f 467//467 469//469 468//468
f 467//467 468//468 470//470
f 471//471 473//473 472//472
f 471//471 472//472 474//474
f 475//475 477//477 476//476
f 476//476 478//478 475//475
f 478//478 479//479 475//475
f 476//476 480//480 478//478
g core_wood
usemtl wood
v -0.79913 0.09896 0.14700
v -0.40089 0.16285 0.14700
v -0.39913 0.14895 0.14700
v -0.80087 0.11285 0.14700
v -0.80087 0.11285 0.14700
v -0.40089 0.16285 0.13300
v -0.40089 0.16285 0.14700
v -0.80087 0.11285 0.13300
v -0.80087 0.11285 0.13300
v -0.39913 0.14895 0.13300
v -0.40089 0.16285 0.13300
v -0.79913 0.09896 0.13300
v -0.79913 0.09896 0.13300
v -0.39913 0.14895 0.14700
v -0.39913 0.14895 0.13300
v -0.79913 0.09896 0.14700
v -0.80087 0.11285 0.14700
v -0.79913 0.09896 0.13300
v -0.80087 0.11285 0.13300
v -0.79913 0.09896 0.14700
v -0.40089 0.16285 0.13300
v -0.39913 0.14895 0.14700
v -0.40089 0.16285 0.14700
v -0.39913 0.14895 0.13300
v -0.39967 0.14891 0.14700
v -0.00035 0.18199 0.14700
v 0.00033 0.16801 0.14700
v -0.40035 0.16289 0.14700
v -0.40035 0.16289 0.14700
v -0.00035 0.18199 0.13300
v -0.00035 0.18199 0.14700
v -0.40035 0.16289 0.13300
v -0.40035 0.16289 0.13300
v 0.00033 0.16801 0.13300
v -0.00035 0.18199 0.13300
v -0.39967 0.14891 0.13300
v -0.39967 0.14891 0.13300
v 0.00033 0.16801 0.14700
v 0.00033 0.16801 0.13300
v -0.39967 0.14891 0.14700
v -0.40035 0.16289 0.14700
v -0.39967 0.14891 0.13300
v -0.40035 0.16289 0.13300
v -0.39967 0.14891 0.14700
v -0.00035 0.18199 0.13300
v 0.00033 0.16801 0.14700
v -0.00035 0.18199 0.14700
v 0.00033 0.16801 0.13300
v -0.00035 0.16801 0.14700
v 0.40033 0.16289 0.14700
v 0.39965 0.14891 0.14700
v 0.00033 0.18199 0.14700
v 0.00033 0.18199 0.14700
v 0.40033 0.16289 0.13300
v 0.40033 0.16289 0.14700
v 0.00033 0.18199 0.13300
v 0.00033 0.18199 0.13300
v 0.39965 0.14891 0.13300
v 0.40033 0.16289 0.13300
v -0.00035 0.16801 0.13300
v -0.00035 0.16801 0.13300
v 0.39965 0.14891 0.14700
v 0.39965 0.14891 0.13300
v -0.00035 0.16801 0.14700
v 0.00033 0.18199 0.14700
v -0.00035 0.16801 0.13300
v 0.00033 0.18199 0.13300
v -0.00035 0.16801 0.14700
v 0.40033 0.16289 0.13300
v 0.39965 0.14891 0.14700
v 0.40033 0.16289 0.14700
v 0.39965 0.14891 0.13300
v 0.39911 0.14895 0.14700
v 0.80087 0.11285 0.14700
v 0.79911 0.09896 0.14700
v 0.40087 0.16285 0.14700
v 0.40087 0.16285 0.14700
v 0.80087 0.11285 0.13300
v 0.80087 0.11285 0.14700
v 0.40087 0.16285 0.13300
v 0.40087 0.16285 0.13300
v 0.79911 0.09896 0.13300
v 0.80087 0.11285 0.13300
v 0.39911 0.14895 0.13300
v 0.39911 0.14895 0.13300
v 0.79911 0.09896 0.14700
v 0.79911 0.09896 0.13300
v 0.39911 0.14895 0.14700
v 0.40087 0.16285 0.14700
v 0.39911 0.14895 0.13300
v 0.40087 0.16285 0.13300
v 0.39911 0.14895 0.14700
v 0.80087 0.11285 0.13300
v 0.79911 0.09896 0.14700
v 0.80087 0.11285 0.14700
v 0.79911 0.09896 0.13300
v -0.79913 0.09896 -0.13300
v -0.40089 0.16285 -0.13300
v -0.39913 0.14895 -0.13300
v -0.80087 0.11285 -0.13300
v -0.80087 0.11285 -0.13300
v -0.40089 0.16285 -0.14700
v -0.40089 0.16285 -0.13300
v -0.80087 0.11285 -0.14700
v -0.80087 0.11285 -0.14700
v -0.39913 0.14895 -0.14700
v -0.40089 0.16285 -0.14700
v -0.79913 0.09896 -0.14700
v -0.79913 0.09896 -0.14700
v -0.39913 0.14895 -0.13300
v -0.39913 0.14895 -0.14700
v -0.79913 0.09896 -0.13300
v -0.80087 0.11285 -0.13300
v -0.79913 0.09896 -0.14700
v -0.80087 0.11285 -0.14700
v -0.79913 0.09896 -0.13300
v -0.40089 0.16285 -0.14700
v -0.39913 0.14895 -0.13300
v -0.40089 0.16285 -0.13300
v -0.39913 0.14895 -0.14700
v -0.39967 0.14891 -0.13300
v -0.00035 0.18199 -0.13300
v 0.00033 0.16801 -0.13300
v -0.40035 0.16289 -0.13300
v -0.40035 0.16289 -0.13300
v -0.00035 0.18199 -0.14700
v -0.00035 0.18199 -0.13300
v -0.40035 0.16289 -0.14700
v -0.40035 0.16289 -0.14700
v 0.00033 0.16801 -0.14700
v -0.00035 0.18199 -0.14700
v -0.39967 0.14891 -0.14700
v -0.39967 0.14891 -0.14700
v 0.00033 0.16801 -0.13300
v 0.00033 0.16801 -0.14700
v -0.39967 0.14891 -0.13300
v -0.40035 0.16289 -0.13300
v -0.39967 0.14891 -0.14700
v -0.40035 0.16289 -0.14700
v -0.39967 0.14891 -0.13300
v -0.00035 0.18199 -0.14700
v 0.00033 0.16801 -0.13300
v -0.00035 0.18199 -0.13300
v 0.00033 0.16801 -0.14700
v -0.00035 0.16801 -0.13300
v 0.40033 0.16289 -0.13300
v 0.39965 0.14891 -0.13300
v 0.00033 0.18199 -0.13300
v 0.00033 0.18199 -0.13300
v 0.40033 0.16289 -0.14700
v 0.40033 0.16289 -0.13300
v 0.00033 0.18199 -0.14700
v 0.00033 0.18199 -0.14700
v 0.39965 0.14891 -0.14700
v 0.40033 0.16289 -0.14700
v -0.00035 0.16801 -0.14700
v -0.00035 0.16801 -0.14700
v 0.39965 0.14891 -0.13300
v 0.39965 0.14891 -0.14700
v -0.00035 0.16801 -0.13300
v 0.00033 0.18199 -0.13300
v -0.00035 0.16801 -0.14700
v 0.00033 0.18199 -0.14700
v -0.00035 0.16801 -0.13300
v 0.40033 0.16289 -0.14700
v 0.39965 0.14891 -0.13300
v 0.40033 0.16289 -0.13300
v 0.39965 0.14891 -0.14700
v 0.39911 0.14895 -0.13300
v 0.80087 0.11285 -0.13300
v 0.79911 0.09896 -0.13300
v 0.40087 0.16285 -0.13300
v 0.40087 0.16285 -0.13300
v 0.80087 0.11285 -0.14700
v 0.80087 0.11285 -0.13300
v 0.40087 0.16285 -0.14700
v 0.40087 0.16285 -0.14700
v 0.79911 0.09896 -0.14700
v 0.80087 0.11285 -0.14700
v 0.39911 0.14895 -0.14700
v 0.39911 0.14895 -0.14700
v 0.79911 0.09896 -0.13300
v 0.79911 0.09896 -0.14700
v 0.39911 0.14895 -0.13300
v 0.40087 0.16285 -0.13300
v 0.39911 0.14895 -0.14700
v 0.40087 0.16285 -0.14700
v 0.39911 0.14895 -0.13300
v 0.80087 0.11285 -0.14700
v 0.79911 0.09896 -0.13300
v 0.80087 0.11285 -0.13300
v 0.79911 0.09896 -0.14700
vn -0.0000 -0.0000 1.0000
vn -0.0000 -0.0000 1.0000
vn -0.0000 -0.0000 1.0000
vn -0.0000 -0.0000 1.0000
vn -0.0385 0.7069 0.7062
vn -0.0385 0.7069 0.7062
vn -0.0385 0.7069 0.7062
vn -0.0385 0.7069 0.7062
vn -0.7071 0.7071 -0.0000
vn -0.7071 0.7071 -0.0000
vn -0.7071 0.7071 -0.0000
vn -0.7071 0.7071 -0.0000
vn 0.0494 -0.7059 0.7066
vn 0.0494 -0.7059 0.7066
vn 0.0494 -0.7059 0.7066
vn 0.0494 -0.7059 0.7066
vn 0.0005 0.9923 -0.1235
vn 0.0005 0.9923 -0.1235
vn 0.0005 0.9923 -0.1235
vn 0.0005 0.9923 -0.1235
vn -0.7016 -0.0880 -0.7071
vn -0.7016 -0.0880 -0.7071
vn -0.7016 -0.0880 -0.7071
vn -0.7016 -0.0880 -0.7071
vn -0.0000 -0.0000 1.0000
vn -0.0000 -0.0000 1.0000
vn -0.0000 -0.0000 1.0000
vn -0.0000 -0.0000 1.0000
vn -0.0161 0.7070 0.7070
vn -0.0161 0.7070 0.7070
vn -0.0161 0.7070 0.7070
vn -0.0161 0.7070 0.7070
vn -0.7071 0.7071 -0.0000
vn -0.7071 0.7071 -0.0000
vn -0.7071 0.7071 -0.0000
vn -0.7071 0.7071 -0.0000
vn 0.0177 -0.7070 0.7070
vn 0.0177 -0.7070 0.7070
vn 0.0177 -0.7070 0.7070
vn 0.0177 -0.7070 0.7070
vn 0.0000 0.9989 -0.0476
vn 0.0000 0.9989 -0.0476
vn 0.0000 0.9989 -0.0476
vn 0.0000 0.9989 -0.0476
vn -0.7063 -0.0334 -0.7071
vn -0.7063 -0.0334 -0.7071
vn -0.7063 -0.0334 -0.7071
vn -0.7063 -0.0334 -0.7071
vn -0.0000 -0.0000 1.0000
vn -0.0000 -0.0000 1.0000
vn -0.0000 -0.0000 1.0000
vn -0.0000 -0.0000 1.0000
vn -0.0177 -0.7070 -0.7070
vn -0.0177 -0.7070 -0.7070
vn -0.0177 -0.7070 -0.7070
vn -0.0177 -0.7070 -0.7070
vn -0.7071 0.7071 -0.0000
vn -0.7071 0.7071 -0.0000
vn -0.7071 0.7071 -0.0000
vn -0.7071 0.7071 -0.0000
vn 0.0161 0.7071 -0.7069
vn 0.0161 0.7071 -0.7069
vn 0.0161 0.7071 -0.7069
vn 0.0161 0.7071 -0.7069
vn -0.0000 0.9989 0.0477
vn -0.0000 0.9989 0.0477
vn -0.0000 0.9989 0.0477
vn -0.0000 0.9989 0.0477
vn 0.7063 -0.0334 0.7071
vn 0.7063 -0.0334 0.7071
vn 0.7063 -0.0334 0.7071
vn 0.7063 -0.0334 0.7071
vn -0.0000 -0.0000 1.0000
vn -0.0000 -0.0000 1.0000
vn -0.0000 -0.0000 1.0000
vn -0.0000 -0.0000 1.0000
vn -0.0494 -0.7059 -0.7066
vn -0.0494 -0.7059 -0.7066
vn -0.0494 -0.7059 -0.7066
vn -0.0494 -0.7059 -0.7066
vn -0.7071 0.7071 -0.0000
vn -0.7071 0.7071 -0.0000
vn -0.7071 0.7071 -0.0000
vn -0.7071 0.7071 -0.0000
vn 0.0385 0.7069 -0.7062
vn 0.0385 0.7069 -0.7062
vn 0.0385 0.7069 -0.7062
vn 0.0385 0.7069 -0.7062
vn -0.0005 0.9923 0.1235
vn -0.0005 0.9923 0.1235
vn -0.0005 0.9923 0.1235
vn -0.0005 0.9923 0.1235
vn 0.7016 -0.0880 0.7071
vn 0.7016 -0.0880 0.7071
vn 0.7016 -0.0880 0.7071
vn 0.7016 -0.0880 0.7071
vn -0.0000 -0.0000 1.0000
vn -0.0000 -0.0000 1.0000
vn -0.0000 -0.0000 1.0000
vn -0.0000 -0.0000 1.0000
vn -0.0385 0.7069 0.7062
vn -0.0385 0.7069 0.7062
vn -0.0385 0.7069 0.7062
vn -0.0385 0.7069 0.7062
vn -0.7071 0.7071 -0.0000
vn -0.7071 0.7071 -0.0000
vn -0.7071 0.7071 -0.0000
vn -0.7071 0.7071 -0.0000
vn 0.0494 -0.7059 0.7066
vn 0.0494 -0.7059 0.7066
vn 0.0494 -0.7059 0.7066
vn 0.0494 -0.7059 0.7066
vn 0.0005 0.9923 -0.1235
vn 0.0005 0.9923 -0.1235
vn 0.0005 0.9923 -0.1235
vn 0.0005 0.9923 -0.1235
vn -0.7016 -0.0880 -0.7071
vn -0.7016 -0.0880 -0.7071
vn -0.7016 -0.0880 -0.7071
vn -0.7016 -0.0880 -0.7071
vn -0.0000 -0.0000 1.0000
vn -0.0000 -0.0000 1.0000
vn -0.0000 -0.0000 1.0000
vn -0.0000 -0.0000 1.0000
vn -0.0161 0.7070 0.7070
vn -0.0161 0.7070 0.7070
vn -0.0161 0.7070 0.7070
vn -0.0161 0.7070 0.7070
vn -0.7071 0.7071 -0.0000
vn -0.7071 0.7071 -0.0000
vn -0.7071 0.7071 -0.0000
vn -0.7071 0.7071 -0.0000
vn 0.0177 -0.7070 0.7070
vn 0.0177 -0.7070 0.7070
vn 0.0177 -0.7070 0.7070
vn 0.0177 -0.7070 0.7070
vn 0.0000 0.9989 -0.0476
vn 0.0000 0.9989 -0.0476
vn 0.0000 0.9989 -0.0476
vn 0.0000 0.9989 -0.0476
vn -0.7063 -0.0334 -0.7071
vn -0.7063 -0.0334 -0.7071
vn -0.7063 -0.0334 -0.7071
vn -0.7063 -0.0334 -0.7071
vn -0.0000 -0.0000 1.0000
vn -0.0000 -0.0000 1.0000
vn -0.0000 -0.0000 1.0000
vn -0.0000 -0.0000 1.0000
vn -0.0177 -0.7070 -0.7070
vn -0.0177 -0.7070 -0.7070
vn -0.0177 -0.7070 -0.7070
vn -0.0177 -0.7070 -0.7070
vn -0.7071 0.7071 -0.0000
vn -0.7071 0.7071 -0.0000
vn -0.7071 0.7071 -0.0000
vn -0.7071 0.7071 -0.0000
vn 0.0161 0.7071 -0.7069
vn 0.0161 0.7071 -0.7069
vn 0.0161 0.7071 -0.7069
vn 0.0161 0.7071 -0.7069
vn -0.0000 0.9989 0.0477
vn -0.0000 0.9989 0.0477
vn -0.0000 0.9989 0.0477
vn -0.0000 0.9989 0.0477
vn 0.7063 -0.0334 0.7071
vn 0.7063 -0.0334 0.7071
vn 0.7063 -0.0334 0.7071
vn 0.7063 -0.0334 0.7071
vn -0.0000 -0.0000 1.0000
vn -0.0000 -0.0000 1.0000
vn -0.0000 -0.0000 1.0000
vn -0.0000 -0.0000 1.0000
vn -0.0494 -0.7059 -0.7066
vn -0.0494 -0.7059 -0.7066
vn -0.0494 -0.7059 -0.7066
vn -0.0494 -0.7059 -0.7066
vn -0.7071 0.7071 -0.0000
vn -0.7071 0.7071 -0.0000
vn -0.7071 0.7071 -0.0000
vn -0.7071 0.7071 -0.0000
vn 0.0385 0.7069 -0.7062
vn 0.0385 0.7069 -0.7062
vn 0.0385 0.7069 -0.7062
vn 0.0385 0.7069 -0.7062
vn -0.0005 0.9923 0.1235
vn -0.0005 0.9923 0.1235
vn -0.0005 0.9923 0.1235
vn -0.0005 0.9923 0.1235
vn 0.7016 -0.0880 0.7071
vn 0.7016 -0.0880 0.7071
vn 0.7016 -0.0880 0.7071
vn 0.7016 -0.0880 0.7071
f 721//721 723//723 722//722
f 721//721 722//722 724//724
f 725//725 727//727 726//726
f 725//725 726//726 728//728
f 729//729 731//731 730//730
f 729//729 730//730 732//732
f 733//733 735//735 734//734
f 733//733 734//734 736//736
f 737//737 739//739 738//738
f 737//737 738//738 740//740
f 741//741 743//743 742//742
f 741//741 742//742 744//744
f 745//745 747//747 746//746
f 745//745 746//746 748//748
f 749//749 751//751 750//750
f 749//749 750//750 752//752
f 753//753 755//755 754//754
f 753//753 754//754 756//756
f 757//757 759//759 758//758
f 757//757 758//758 760//760
f 761//761 763//763 762//762
f 761//761 762//762 764//764
f 765//765 767//767 766//766
f 765//765 766//766 768//768
f 769//769 771//771 770//770
f 769//769 770//770 772//772
f 773//773 775//775 774//774
f 773//773 774//774 776//776
f 777//777 779//779 778//778
f 777//777 778//778 780//780
f 781//781 783//783 782//782
f 781//781 782//782 784//784
f 785//785 787//787 786//786
f 785//785 786//786 788//788
f 789//789 791//791 790//790
f 789//789 790//790 792//792
f 793//793 795//795 794//794
f 793//793 794//794 796//796
f 797//797 799//799 798//798
f 797//797 798//798 800//800
f 801//801 803//803 802//802
f 801//801 802//802 804//804
f 805//805 807//807 806//806
f 805//805 806//806 808//808
f 809//809 811//811 810//810
f 809//809 810//810 812//812
f 813//813 815//815 814//814
f 813//813 814//814 816//816
f 817//817 819//819 818//818
f 817//817 818//818 820//820
f 821//821 823//823 822//822
f 821//821 822//822 824//824
f 825//825 827//827 826//826
f 825//825 826//826 828//828
f 829//829 831//831 830//830
f 829//829 830//830 832//832
f 833//833 835//835 834//834
f 833//833 834//834 836//836
f 837//837 839//839 838//838
f 837//837 838//838 840//840
f 841//841 843//843 842//842
f 841//841 842//842 844//844
f 845//845 847//847 846//846
f 845//845 846//846 848//848
f 849//849 851//851 850//850
f 849//849 850//850 852//852
f 853//853 855//855 854//854
f 853//853 854//854 856//856
f 857//857 859//859 858//858
f 857//857 858//858 860//860
f 861//861 863//863 862//862
f 861//861 862//862 864//864
f 865//865 867//867 866//866
f 865//865 866//866 868//868
f 869//869 871//871 870//870
f 869//869 870//870 872//872
f 873//873 875//875 874//874
f 873//873 874//874 876//876
f 877//877 879//879 878//878
f 877//877 878//878 880//880
f 881//881 883//883 882//882
f 881//881 882//882 884//884
f 885//885 887//887 886//886
f 885//885 886//886 888//888
f 889//889 891//891 890//890
f 889//889 890//890 892//892
f 893//893 895//895 894//894
f 893//893 894//894 896//896
f 897//897 899//899 898//898
f 897//897 898//898 900//900
f 901//901 903//903 902//902
f 901//901 902//902 904//904
f 905//905 907//907 906//906
f 905//905 906//906 908//908
f 909//909 911//911 910//910
f 909//909 910//910 912//912
