mtllib farm.mtl
o core
g core_dirt
usemtl dirt
v -0.44392 0.00000 -0.02004
v -0.44792 0.00400 -0.01976
v -0.44364 0.00400 -0.01605
v -0.44364 0.01000 -0.01605
v -0.44792 0.01000 -0.01976
v -0.44392 0.01400 -0.02004
v -0.46708 0.00000 -0.35123
v -0.46736 0.00400 -0.35522
v -0.47108 0.00400 -0.35096
v -0.46708 0.01400 -0.35123
v -0.47108 0.01000 -0.35096
v -0.46736 0.01000 -0.35522
v -0.03293 0.00000 -0.04878
v -0.03265 0.00400 -0.04479
v -0.02894 0.00400 -0.04906
v -0.03293 0.01400 -0.04878
v -0.02894 0.01000 -0.04906
v -0.03265 0.01000 -0.04479
v -0.05609 0.00000 -0.37997
v -0.05209 0.00400 -0.38025
v -0.05637 0.00400 -0.38396
v -0.05609 0.01400 -0.37997
v -0.05637 0.01000 -0.38396
v -0.05209 0.01000 -0.38025
v -0.46708 0.00000 -0.35123
v -0.44792 0.00400 -0.01976
v -0.44392 0.00000 -0.02004
v -0.47108 0.00400 -0.35096
v -0.44364 0.00400 -0.01605
v -0.44792 0.01000 -0.01976
v -0.44364 0.01000 -0.01605
v -0.44792 0.00400 -0.01976
v -0.44392 0.01400 -0.02004
v -0.47108 0.01000 -0.35096
v -0.46708 0.01400 -0.35123
v -0.44792 0.01000 -0.01976
v -0.46736 0.01000 -0.35522
v -0.47108 0.00400 -0.35096
v -0.46736 0.00400 -0.35522
v -0.47108 0.01000 -0.35096
v -0.05609 0.00000 -0.37997
v -0.46736 0.00400 -0.35522
v -0.46708 0.00000 -0.35123
v -0.05637 0.00400 -0.38396
v -0.46708 0.01400 -0.35123
v -0.05637 0.01000 -0.38396
v -0.05609 0.01400 -0.37997
v -0.46736 0.01000 -0.35522
v -0.05209 0.01000 -0.38025
v -0.05637 0.00400 -0.38396
v -0.05209 0.00400 -0.38025
v -0.05637 0.01000 -0.38396
v -0.03293 0.00000 -0.04878
v -0.05209 0.00400 -0.38025
v -0.05609 0.00000 -0.37997
v -0.02894 0.00400 -0.04906
v -0.05609 0.01400 -0.37997
v -0.02894 0.01000 -0.04906
v -0.03293 0.01400 -0.04878
v -0.05209 0.01000 -0.38025
v -0.03265 0.01000 -0.04479
v -0.02894 0.00400 -0.04906
v -0.03265 0.00400 -0.04479
v -0.02894 0.01000 -0.04906
v -0.44392 0.00000 -0.02004
v -0.03265 0.00400 -0.04479
v -0.03293 0.00000 -0.04878
v -0.44364 0.00400 -0.01605
v -0.03293 0.01400 -0.04878
v -0.44364 0.01000 -0.01605
v -0.44392 0.01400 -0.02004
v -0.03265 0.01000 -0.04479
v -0.46708 0.00000 -0.35123
v -0.03293 0.00000 -0.04878
v -0.05609 0.00000 -0.37997
v -0.44392 0.00000 -0.02004
v -0.44792 0.00400 -0.01976
v -0.47108 0.01000 -0.35096
v -0.44792 0.01000 -0.01976
v -0.47108 0.00400 -0.35096
v -0.03265 0.00400 -0.04479
v -0.44364 0.01000 -0.01605
v -0.03265 0.01000 -0.04479
v -0.44364 0.00400 -0.01605
v -0.05609 0.01400 -0.37997
v -0.44392 0.01400 -0.02004
v -0.46708 0.01400 -0.35123
v -0.03293 0.01400 -0.04878
v -0.46736 0.00400 -0.35522
v -0.05637 0.01000 -0.38396
v -0.46736 0.01000 -0.35522
v -0.05637 0.00400 -0.38396
v -0.05209 0.00400 -0.38025
v -0.02894 0.01000 -0.04906
v -0.05209 0.01000 -0.38025
v -0.02894 0.00400 -0.04906
v 0.02772 0.00000 -0.07540
v 0.02374 0.00400 -0.07582
v 0.02730 0.00400 -0.07143
v 0.02730 0.01000 -0.07143
v 0.02374 0.01000 -0.07582
v 0.02772 0.01400 -0.07540
v 0.06243 0.00000 -0.40559
v 0.06284 0.00400 -0.40956
v 0.05844 0.00400 -0.40601
v 0.06243 0.01400 -0.40559
v 0.05844 0.01000 -0.40601
v 0.06284 0.01000 -0.40956
v 0.41757 0.00000 -0.03443
v 0.41714 0.00400 -0.03045
v 0.42155 0.00400 -0.03401
v 0.41757 0.01400 -0.03443
v 0.42155 0.01000 -0.03401
v 0.41714 0.01000 -0.03045
v 0.45227 0.00000 -0.36462
v 0.45626 0.00400 -0.36419
v 0.45268 0.00400 -0.36858
v 0.45227 0.01400 -0.36462
v 0.45268 0.01000 -0.36858
v 0.45626 0.01000 -0.36419
v 0.06243 0.00000 -0.40559
v 0.02374 0.00400 -0.07582
v 0.02772 0.00000 -0.07540
v 0.05844 0.00400 -0.40601
v 0.02730 0.00400 -0.07143
v 0.02374 0.01000 -0.07582
v 0.02730 0.01000 -0.07143
v 0.02374 0.00400 -0.07582
v 0.02772 0.01400 -0.07540
v 0.05844 0.01000 -0.40601
v 0.06243 0.01400 -0.40559
v 0.02374 0.01000 -0.07582
v 0.06284 0.01000 -0.40956
v 0.05844 0.00400 -0.40601
v 0.06284 0.00400 -0.40956
v 0.05844 0.01000 -0.40601
v 0.45227 0.00000 -0.36462
v 0.06284 0.00400 -0.40956
v 0.06243 0.00000 -0.40559
v 0.45268 0.00400 -0.36858
v 0.06243 0.01400 -0.40559
v 0.45268 0.01000 -0.36858
v 0.45227 0.01400 -0.36462
v 0.06284 0.01000 -0.40956
v 0.45626 0.01000 -0.36419
v 0.45268 0.00400 -0.36858
v 0.45626 0.00400 -0.36419
v 0.45268 0.01000 -0.36858
v 0.41757 0.00000 -0.03443
v 0.45626 0.00400 -0.36419
v 0.45227 0.00000 -0.36462
v 0.42155 0.00400 -0.03401
v 0.45227 0.01400 -0.36462
v 0.42155 0.01000 -0.03401
v 0.41757 0.01400 -0.03443
v 0.45626 0.01000 -0.36419
v 0.41714 0.01000 -0.03045
v 0.42155 0.00400 -0.03401
v 0.41714 0.00400 -0.03045
v 0.42155 0.01000 -0.03401
v 0.02772 0.00000 -0.07540
v 0.41714 0.00400 -0.03045
v 0.41757 0.00000 -0.03443
v 0.02730 0.00400 -0.07143
v 0.41757 0.01400 -0.03443
v 0.02730 0.01000 -0.07143
v 0.02772 0.01400 -0.07540
v 0.41714 0.01000 -0.03045
v 0.06243 0.00000 -0.40559
v 0.41757 0.00000 -0.03443
v 0.45227 0.00000 -0.36462
v 0.02772 0.00000 -0.07540
v 0.02374 0.00400 -0.07582
v 0.05844 0.01000 -0.40601
v 0.02374 0.01000 -0.07582
v 0.05844 0.00400 -0.40601
v 0.41714 0.00400 -0.03045
v 0.02730 0.01000 -0.07143
v 0.41714 0.01000 -0.03045
v 0.02730 0.00400 -0.07143
v 0.45227 0.01400 -0.36462
v 0.02772 0.01400 -0.07540
v 0.06243 0.01400 -0.40559
v 0.41757 0.01400 -0.03443
v 0.06284 0.00400 -0.40956
v 0.45268 0.01000 -0.36858
v 0.06284 0.01000 -0.40956
v 0.45268 0.00400 -0.36858
v 0.45626 0.00400 -0.36419
v 0.42155 0.01000 -0.03401
v 0.45626 0.01000 -0.36419
v 0.42155 0.00400 -0.03401
v -0.41951 0.00000 0.42295
v -0.42348 0.00400 0.42351
v -0.41895 0.00400 0.42692
v -0.41895 0.01000 0.42692
v -0.42348 0.01000 0.42351
v -0.41951 0.01400 0.42295
v -0.46850 0.00000 0.07438
v -0.46905 0.00400 0.07041
v -0.47245 0.00400 0.07493
v -0.46850 0.01400 0.07438
v -0.47245 0.01000 0.07493
v -0.46905 0.01000 0.07041
v -0.01152 0.00000 0.36561
v -0.01097 0.00400 0.36957
v -0.00755 0.00400 0.36505
v -0.01152 0.01400 0.36561
v -0.00755 0.01000 0.36505
v -0.01097 0.01000 0.36957
v -0.06051 0.00000 0.01703
v -0.05654 0.00400 0.01649
v -0.06106 0.00400 0.01308
v -0.06051 0.01400 0.01703
v -0.06106 0.01000 0.01308
v -0.05654 0.01000 0.01649
v -0.46850 0.00000 0.07438
v -0.42348 0.00400 0.42351
v -0.41951 0.00000 0.42295
v -0.47245 0.00400 0.07493
v -0.41895 0.00400 0.42692
v -0.42348 0.01000 0.42351
v -0.41895 0.01000 0.42692
v -0.42348 0.00400 0.42351
v -0.41951 0.01400 0.42295
v -0.47245 0.01000 0.07493
v -0.46850 0.01400 0.07438
v -0.42348 0.01000 0.42351
v -0.46905 0.01000 0.07041
v -0.47245 0.00400 0.07493
v -0.46905 0.00400 0.07041
v -0.47245 0.01000 0.07493
v -0.06051 0.00000 0.01703
v -0.46905 0.00400 0.07041
v -0.46850 0.00000 0.07438
v -0.06106 0.00400 0.01308
v -0.46850 0.01400 0.07438
v -0.06106 0.01000 0.01308
v -0.06051 0.01400 0.01703
v -0.46905 0.01000 0.07041
v -0.05654 0.01000 0.01649
v -0.06106 0.00400 0.01308
v -0.05654 0.00400 0.01649
v -0.06106 0.01000 0.01308
v -0.01152 0.00000 0.36561
v -0.05654 0.00400 0.01649
v -0.06051 0.00000 0.01703
v -0.00755 0.00400 0.36505
v -0.06051 0.01400 0.01703
v -0.00755 0.01000 0.36505
v -0.01152 0.01400 0.36561
v -0.05654 0.01000 0.01649
v -0.01097 0.01000 0.36957
v -0.00755 0.00400 0.36505
v -0.01097 0.00400 0.36957
v -0.00755 0.01000 0.36505
v -0.41951 0.00000 0.42295
v -0.01097 0.00400 0.36957
v -0.01152 0.00000 0.36561
v -0.41895 0.00400 0.42692
v -0.01152 0.01400 0.36561
v -0.41895 0.01000 0.42692
v -0.41951 0.01400 0.42295
v -0.01097 0.01000 0.36957
v -0.46850 0.00000 0.07438
v -0.01152 0.00000 0.36561
v -0.06051 0.00000 0.01703
v -0.41951 0.00000 0.42295
v -0.42348 0.00400 0.42351
v -0.47245 0.01000 0.07493
v -0.42348 0.01000 0.42351
v -0.47245 0.00400 0.07493
v -0.01097 0.00400 0.36957
v -0.41895 0.01000 0.42692
v -0.01097 0.01000 0.36957
v -0.41895 0.00400 0.42692
v -0.06051 0.01400 0.01703
v -0.41951 0.01400 0.42295
v -0.46850 0.01400 0.07438
v -0.01152 0.01400 0.36561
v -0.46905 0.00400 0.07041
v -0.06106 0.01000 0.01308
v -0.46905 0.01000 0.07041
v -0.06106 0.00400 0.01308
v -0.05654 0.00400 0.01649
v -0.00755 0.01000 0.36505
v -0.05654 0.01000 0.01649
v -0.00755 0.00400 0.36505
v 0.05504 0.00000 0.36602
v 0.05105 0.00400 0.36580
v 0.05483 0.00400 0.37002
v 0.05483 0.01000 0.37002
v 0.05105 0.01000 0.36580
v 0.05504 0.01400 0.36602
v 0.07346 0.00000 0.01449
v 0.07366 0.00400 0.01050
v 0.06947 0.00400 0.01429
v 0.07346 0.01400 0.01449
v 0.06947 0.01000 0.01429
v 0.07366 0.01000 0.01050
v 0.42652 0.00000 0.38549
v 0.42631 0.00400 0.38948
v 0.43052 0.00400 0.38569
v 0.42652 0.01400 0.38549
v 0.43052 0.01000 0.38569
v 0.42631 0.01000 0.38948
v 0.44495 0.00000 0.03397
v 0.44894 0.00400 0.03418
v 0.44516 0.00400 0.02998
v 0.44495 0.01400 0.03397
v 0.44516 0.01000 0.02998
v 0.44894 0.01000 0.03418
v 0.07346 0.00000 0.01449
v 0.05105 0.00400 0.36580
v 0.05504 0.00000 0.36602
v 0.06947 0.00400 0.01429
v 0.05483 0.00400 0.37002
v 0.05105 0.01000 0.36580
v 0.05483 0.01000 0.37002
v 0.05105 0.00400 0.36580
v 0.05504 0.01400 0.36602
v 0.06947 0.01000 0.01429
v 0.07346 0.01400 0.01449
v 0.05105 0.01000 0.36580
v 0.07366 0.01000 0.01050
v 0.06947 0.00400 0.01429
v 0.07366 0.00400 0.01050
v 0.06947 0.01000 0.01429
v 0.44495 0.00000 0.03397
v 0.07366 0.00400 0.01050
v 0.07346 0.00000 0.01449
v 0.44516 0.00400 0.02998
v 0.07346 0.01400 0.01449
v 0.44516 0.01000 0.02998
v 0.44495 0.01400 0.03397
v 0.07366 0.01000 0.01050
v 0.44894 0.01000 0.03418
v 0.44516 0.00400 0.02998
v 0.44894 0.00400 0.03418
v 0.44516 0.01000 0.02998
v 0.42652 0.00000 0.38549
v 0.44894 0.00400 0.03418
v 0.44495 0.00000 0.03397
v 0.43052 0.00400 0.38569
v 0.44495 0.01400 0.03397
v 0.43052 0.01000 0.38569
v 0.42652 0.01400 0.38549
v 0.44894 0.01000 0.03418
v 0.42631 0.01000 0.38948
v 0.43052 0.00400 0.38569
v 0.42631 0.00400 0.38948
v 0.43052 0.01000 0.38569
v 0.05504 0.00000 0.36602
v 0.42631 0.00400 0.38948
v 0.42652 0.00000 0.38549
v 0.05483 0.00400 0.37002
v 0.42652 0.01400 0.38549
v 0.05483 0.01000 0.37002
v 0.05504 0.01400 0.36602
v 0.42631 0.01000 0.38948
v 0.07346 0.00000 0.01449
v 0.42652 0.00000 0.38549
v 0.44495 0.00000 0.03397
v 0.05504 0.00000 0.36602
v 0.05105 0.00400 0.36580
v 0.06947 0.01000 0.01429
v 0.05105 0.01000 0.36580
v 0.06947 0.00400 0.01429
v 0.42631 0.00400 0.38948
v 0.05483 0.01000 0.37002
v 0.42631 0.01000 0.38948
v 0.05483 0.00400 0.37002
v 0.44495 0.01400 0.03397
v 0.05504 0.01400 0.36602
v 0.07346 0.01400 0.01449
v 0.42652 0.01400 0.38549
v 0.07366 0.00400 0.01050
v 0.44516 0.01000 0.02998
v 0.07366 0.01000 0.01050
v 0.44516 0.00400 0.02998
v 0.44894 0.00400 0.03418
v 0.43052 0.01000 0.38569
v 0.44894 0.01000 0.03418
v 0.43052 0.00400 0.38569
vn -0.5151 -0.0888 0.8525
vn -0.5151 -0.0888 0.8525
vn -0.5151 -0.0888 0.8525
vn 0.0918 0.6089 0.7879
vn 0.0918 0.6089 0.7879
vn 0.0918 0.6089 0.7879
vn -0.0946 0.9437 -0.3169
vn -0.0946 0.9437 -0.3169
vn -0.0946 0.9437 -0.3169
vn -0.3191 0.8378 0.4430
vn -0.3191 0.8378 0.4430
vn -0.3191 0.8378 0.4430
vn 0.2224 -0.4558 0.8619
vn 0.2224 -0.4558 0.8619
vn 0.2224 -0.4558 0.8619
vn 0.3841 0.2938 0.8753
vn 0.3841 0.2938 0.8753
vn 0.3841 0.2938 0.8753
vn -0.7044 0.5616 -0.4341
vn -0.7044 0.5616 -0.4341
vn -0.7044 0.5616 -0.4341
vn 0.6041 -0.7926 -0.0829
vn 0.6041 -0.7926 -0.0829
vn 0.6041 -0.7926 -0.0829
vn 0.0722 0.7739 -0.6291
vn 0.0722 0.7739 -0.6291
vn 0.0722 0.7739 -0.6291
vn 0.0722 0.7739 -0.6291
vn -0.2555 0.6840 0.6833
vn -0.2555 0.6840 0.6833
vn -0.2555 0.6840 0.6833
vn -0.2555 0.6840 0.6833
vn -0.0478 0.7842 0.6187
vn -0.0478 0.7842 0.6187
vn -0.0478 0.7842 0.6187
vn -0.0478 0.7842 0.6187
vn -0.2546 0.9601 0.1160
vn -0.2546 0.9601 0.1160
vn -0.2546 0.9601 0.1160
vn -0.2546 0.9601 0.1160
vn -0.4024 0.8497 -0.3407
vn -0.4024 0.8497 -0.3407
vn -0.4024 0.8497 -0.3407
vn -0.4024 0.8497 -0.3407
vn 0.4301 -0.8295 -0.3564
vn 0.4301 -0.8295 -0.3564
vn 0.4301 -0.8295 -0.3564
vn 0.4301 -0.8295 -0.3564
vn 0.8841 -0.3303 0.3306
vn 0.8841 -0.3303 0.3306
vn 0.8841 -0.3303 0.3306
vn 0.8841 -0.3303 0.3306
vn 0.4798 -0.5435 0.6888
vn 0.4798 -0.5435 0.6888
vn 0.4798 -0.5435 0.6888
vn 0.4798 -0.5435 0.6888
vn -0.4626 -0.5592 -0.6880
vn -0.4626 -0.5592 -0.6880
vn -0.4626 -0.5592 -0.6880
vn -0.4626 -0.5592 -0.6880
vn 0.4122 -0.1093 0.9045
vn 0.4122 -0.1093 0.9045
vn 0.4122 -0.1093 0.9045
vn 0.4122 -0.1093 0.9045
vn -0.1686 -0.3891 0.9056
vn -0.1686 -0.3891 0.9056
vn -0.1686 -0.3891 0.9056
vn -0.1686 -0.3891 0.9056
vn 0.2046 0.3642 0.9085
vn 0.2046 0.3642 0.9085
vn 0.2046 0.3642 0.9085
vn 0.2046 0.3642 0.9085
vn -0.0000 -0.7071 0.7071
vn -0.0000 -0.7071 0.7071
vn -0.0000 -0.7071 0.7071
vn -0.0000 -0.7071 0.7071
vn -0.0025 1.0000 0.0026
vn -0.0025 1.0000 0.0026
vn -0.0025 1.0000 0.0026
vn -0.0025 1.0000 0.0026
vn 0.0349 -0.0326 0.9989
vn 0.0349 -0.0326 0.9989
vn 0.0349 -0.0326 0.9989
vn 0.0349 -0.0326 0.9989
vn -0.0000 0.7071 0.7071
vn -0.0000 0.7071 0.7071
vn -0.0000 0.7071 0.7071
vn -0.0000 0.7071 0.7071
vn -0.6818 0.7312 0.0238
vn -0.6818 0.7312 0.0238
vn -0.6818 0.7312 0.0238
vn -0.6818 0.7312 0.0238
vn 0.7314 -0.0018 0.6820
vn 0.7314 -0.0018 0.6820
vn 0.7314 -0.0018 0.6820
vn 0.7314 -0.0018 0.6820
vn -0.0544 0.6774 -0.7336
vn -0.0544 0.6774 -0.7336
vn -0.0544 0.6774 -0.7336
vn 0.0740 0.6887 0.7213
vn 0.0740 0.6887 0.7213
vn 0.0740 0.6887 0.7213
vn -0.1748 0.9444 -0.2787
vn -0.1748 0.9444 -0.2787
vn -0.1748 0.9444 -0.2787
vn -0.3818 0.8273 0.4122
vn -0.3818 0.8273 0.4122
vn -0.3818 0.8273 0.4122
vn 0.1342 -0.4419 0.8869
vn 0.1342 -0.4419 0.8869
vn 0.1342 -0.4419 0.8869
vn 0.3422 0.2659 0.9012
vn 0.3422 0.2659 0.9012
vn 0.3422 0.2659 0.9012
vn -0.7034 0.5141 -0.4909
vn -0.7034 0.5141 -0.4909
vn -0.7034 0.5141 -0.4909
vn 0.6889 0.5325 0.4919
vn 0.6889 0.5325 0.4919
vn 0.6889 0.5325 0.4919
vn 0.0588 0.8157 -0.5755
vn 0.0588 0.8157 -0.5755
vn 0.0588 0.8157 -0.5755
vn 0.0588 0.8157 -0.5755
vn -0.2097 0.8733 0.4397
vn -0.2097 0.8733 0.4397
vn -0.2097 0.8733 0.4397
vn -0.2097 0.8733 0.4397
vn -0.0990 0.8001 0.5917
vn -0.0990 0.8001 0.5917
vn -0.0990 0.8001 0.5917
vn -0.0990 0.8001 0.5917
vn -0.3699 0.9198 0.1310
vn -0.3699 0.9198 0.1310
vn -0.3699 0.9198 0.1310
vn -0.3699 0.9198 0.1310
vn -0.4714 0.8071 -0.3555
vn -0.4714 0.8071 -0.3555
vn -0.4714 0.8071 -0.3555
vn -0.4714 0.8071 -0.3555
vn 0.4286 -0.8409 -0.3305
vn 0.4286 -0.8409 -0.3305
vn 0.4286 -0.8409 -0.3305
vn 0.4286 -0.8409 -0.3305
vn 0.8821 -0.2118 0.4208
vn 0.8821 -0.2118 0.4208
vn 0.8821 -0.2118 0.4208
vn 0.8821 -0.2118 0.4208
vn 0.4186 -0.5400 0.7302
vn 0.4186 -0.5400 0.7302
vn 0.4186 -0.5400 0.7302
vn 0.4186 -0.5400 0.7302
vn -0.4445 -0.5164 -0.7319
vn -0.4445 -0.5164 -0.7319
vn -0.4445 -0.5164 -0.7319
vn -0.4445 -0.5164 -0.7319
vn 0.3308 -0.1331 0.9342
vn 0.3308 -0.1331 0.9342
vn 0.3308 -0.1331 0.9342
vn 0.3308 -0.1331 0.9342
vn -0.2309 -0.3560 0.9055
vn -0.2309 -0.3560 0.9055
vn -0.2309 -0.3560 0.9055
vn -0.2309 -0.3560 0.9055
vn 0.1792 0.3966 0.9003
vn 0.1792 0.3966 0.9003
vn 0.1792 0.3966 0.9003
vn 0.1792 0.3966 0.9003
vn -0.0000 -0.7071 0.7071
vn -0.0000 -0.7071 0.7071
vn -0.0000 -0.7071 0.7071
vn -0.0000 -0.7071 0.7071
vn -0.0055 1.0000 0.0049
vn -0.0055 1.0000 0.0049
vn -0.0055 1.0000 0.0049
vn -0.0055 1.0000 0.0049
vn -0.0523 0.0580 0.9969
vn -0.0523 0.0580 0.9969
vn -0.0523 0.0580 0.9969
vn -0.0523 0.0580 0.9969
vn -0.0000 0.7071 0.7071
vn -0.0000 0.7071 0.7071
vn -0.0000 0.7071 0.7071
vn -0.0000 0.7071 0.7071
vn 0.7427 -0.6684 0.0389
vn 0.7427 -0.6684 0.0389
vn 0.7427 -0.6684 0.0389
vn 0.7427 -0.6684 0.0389
vn 0.6691 -0.0037 0.7431
vn 0.6691 -0.0037 0.7431
vn 0.6691 -0.0037 0.7431
vn 0.6691 -0.0037 0.7431
vn -0.4872 -0.1077 0.8666
vn -0.4872 -0.1077 0.8666
vn -0.4872 -0.1077 0.8666
vn 0.0995 0.5743 0.8125
vn 0.0995 0.5743 0.8125
vn 0.0995 0.5743 0.8125
vn -0.0677 0.9400 -0.3343
vn -0.0677 0.9400 -0.3343
vn -0.0677 0.9400 -0.3343
vn -0.2917 0.8422 0.4535
vn -0.2917 0.8422 0.4535
vn -0.2917 0.8422 0.4535
vn 0.2579 -0.4581 0.8507
vn 0.2579 -0.4581 0.8507
vn 0.2579 -0.4581 0.8507
vn 0.4013 0.3069 0.8630
vn 0.4013 0.3069 0.8630
vn 0.4013 0.3069 0.8630
vn -0.7004 0.5828 -0.4120
vn -0.7004 0.5828 -0.4120
vn -0.7004 0.5828 -0.4120
vn 0.6008 -0.7933 -0.0986
vn 0.6008 -0.7933 -0.0986
vn 0.6008 -0.7933 -0.0986
vn 0.0767 0.7548 -0.6514
vn 0.0767 0.7548 -0.6514
vn 0.0767 0.7548 -0.6514
vn 0.0767 0.7548 -0.6514
vn -0.2556 0.5926 0.7639
vn -0.2556 0.5926 0.7639
vn -0.2556 0.5926 0.7639
vn -0.2556 0.5926 0.7639
vn -0.0294 0.7753 0.6309
vn -0.0294 0.7753 0.6309
vn -0.0294 0.7753 0.6309
vn -0.0294 0.7753 0.6309
vn -0.2101 0.9720 0.1048
vn -0.2101 0.9720 0.1048
vn -0.2101 0.9720 0.1048
vn -0.2101 0.9720 0.1048
vn -0.3716 0.8646 -0.3381
vn -0.3716 0.8646 -0.3381
vn -0.3716 0.8646 -0.3381
vn -0.3716 0.8646 -0.3381
vn 0.4266 -0.8261 -0.3682
vn 0.4266 -0.8261 -0.3682
vn 0.4266 -0.8261 -0.3682
vn 0.4266 -0.8261 -0.3682
vn 0.8777 -0.3786 0.2937
vn 0.8777 -0.3786 0.2937
vn 0.8777 -0.3786 0.2937
vn 0.8777 -0.3786 0.2937
vn 0.5013 -0.5462 0.6711
vn 0.5013 -0.5462 0.6711
vn 0.5013 -0.5462 0.6711
vn 0.5013 -0.5462 0.6711
vn -0.4667 -0.5779 -0.6695
vn -0.4667 -0.5779 -0.6695
vn -0.4667 -0.5779 -0.6695
vn -0.4667 -0.5779 -0.6695
vn 0.4441 -0.0960 0.8908
vn 0.4441 -0.0960 0.8908
vn 0.4441 -0.0960 0.8908
vn 0.4441 -0.0960 0.8908
vn -0.1419 -0.4031 0.9041
vn -0.1419 -0.4031 0.9041
vn -0.1419 -0.4031 0.9041
vn -0.1419 -0.4031 0.9041
vn 0.2152 0.3556 0.9095
vn 0.2152 0.3556 0.9095
vn 0.2152 0.3556 0.9095
vn 0.2152 0.3556 0.9095
vn -0.0000 -0.7071 0.7071
vn -0.0000 -0.7071 0.7071
vn -0.0000 -0.7071 0.7071
vn -0.0000 -0.7071 0.7071
vn -0.0098 0.9999 0.0113
vn -0.0098 0.9999 0.0113
vn -0.0098 0.9999 0.0113
vn -0.0098 0.9999 0.0113
vn 0.0696 -0.0605 0.9957
vn 0.0696 -0.0605 0.9957
vn 0.0696 -0.0605 0.9957
vn 0.0696 -0.0605 0.9957
vn -0.0000 0.7071 0.7071
vn -0.0000 0.7071 0.7071
vn -0.0000 0.7071 0.7071
vn -0.0000 0.7071 0.7071
vn -0.6549 0.7544 0.0458
vn -0.6549 0.7544 0.0458
vn -0.6549 0.7544 0.0458
vn -0.6549 0.7544 0.0458
vn 0.7547 -0.0074 0.6560
vn 0.7547 -0.0074 0.6560
vn 0.7547 -0.0074 0.6560
vn 0.7547 -0.0074 0.6560
vn -0.0693 0.6604 -0.7477
vn -0.0693 0.6604 -0.7477
vn -0.0693 0.6604 -0.7477
vn 0.0792 0.6660 0.7417
vn 0.0792 0.6660 0.7417
vn 0.0792 0.6660 0.7417
vn -0.1489 0.9456 -0.2892
vn -0.1489 0.9456 -0.2892
vn -0.1489 0.9456 -0.2892
vn -0.3640 0.8303 0.4221
vn -0.3640 0.8303 0.4221
vn -0.3640 0.8303 0.4221
vn 0.1605 -0.4473 0.8799
vn 0.1605 -0.4473 0.8799
vn 0.1605 -0.4473 0.8799
vn 0.3545 0.2734 0.8942
vn 0.3545 0.2734 0.8942
vn 0.3545 0.2734 0.8942
vn -0.7053 0.5274 -0.4737
vn -0.7053 0.5274 -0.4737
vn -0.7053 0.5274 -0.4737
vn 0.6976 0.5370 0.4743
vn 0.6976 0.5370 0.4743
vn 0.6976 0.5370 0.4743
vn 0.0634 0.8040 -0.5913
vn 0.0634 0.8040 -0.5913
vn 0.0634 0.8040 -0.5913
vn 0.0634 0.8040 -0.5913
vn -0.2295 0.8256 0.5155
vn -0.2295 0.8256 0.5155
vn -0.2295 0.8256 0.5155
vn -0.2295 0.8256 0.5155
vn -0.0830 0.7962 0.5994
vn -0.0830 0.7962 0.5994
vn -0.0830 0.7962 0.5994
vn -0.0830 0.7962 0.5994
vn -0.3354 0.9332 0.1288
vn -0.3354 0.9332 0.1288
vn -0.3354 0.9332 0.1288
vn -0.3354 0.9332 0.1288
vn -0.4520 0.8205 -0.3499
vn -0.4520 0.8205 -0.3499
vn -0.4520 0.8205 -0.3499
vn -0.4520 0.8205 -0.3499
vn 0.4308 -0.8369 -0.3376
vn 0.4308 -0.8369 -0.3376
vn 0.4308 -0.8369 -0.3376
vn 0.4308 -0.8369 -0.3376
vn 0.8854 -0.2462 0.3942
vn 0.8854 -0.2462 0.3942
vn 0.8854 -0.2462 0.3942
vn 0.8854 -0.2462 0.3942
vn 0.4380 -0.5407 0.7182
vn 0.4380 -0.5407 0.7182
vn 0.4380 -0.5407 0.7182
vn 0.4380 -0.5407 0.7182
vn -0.4509 -0.5288 -0.7190
vn -0.4509 -0.5288 -0.7190
vn -0.4509 -0.5288 -0.7190
vn -0.4509 -0.5288 -0.7190
vn 0.3554 -0.1277 0.9259
vn 0.3554 -0.1277 0.9259
vn 0.3554 -0.1277 0.9259
vn 0.3554 -0.1277 0.9259
vn -0.2130 -0.3655 0.9061
vn -0.2130 -0.3655 0.9061
vn -0.2130 -0.3655 0.9061
vn -0.2130 -0.3655 0.9061
vn 0.1867 0.3853 0.9037
vn 0.1867 0.3853 0.9037
vn 0.1867 0.3853 0.9037
vn 0.1867 0.3853 0.9037
vn -0.0000 -0.7071 0.7071
vn -0.0000 -0.7071 0.7071
vn -0.0000 -0.7071 0.7071
vn -0.0000 -0.7071 0.7071
vn -0.0014 1.0000 0.0013
vn -0.0014 1.0000 0.0013
vn -0.0014 1.0000 0.0013
vn -0.0014 1.0000 0.0013
vn -0.0262 0.0276 0.9993
vn -0.0262 0.0276 0.9993
vn -0.0262 0.0276 0.9993
vn -0.0262 0.0276 0.9993
vn -0.0000 0.7071 0.7071
vn -0.0000 0.7071 0.7071
vn -0.0000 0.7071 0.7071
vn -0.0000 0.7071 0.7071
vn 0.7252 -0.6882 0.0190
vn 0.7252 -0.6882 0.0190
vn 0.7252 -0.6882 0.0190
vn 0.7252 -0.6882 0.0190
vn 0.6883 -0.0010 0.7254
vn 0.6883 -0.0010 0.7254
vn 0.6883 -0.0010 0.7254
vn 0.6883 -0.0010 0.7254
f 1//1 3//3 2//2
f 4//4 6//6 5//5
f 7//7 9//9 8//8
f 10//10 12//12 11//11
f 13//13 15//15 14//14
f 16//16 18//18 17//17
f 19//19 21//21 20//20
f 22//22 24//24 23//23
f 25//25 27//27 26//26
f 25//25 26//26 28//28
f 29//29 31//31 30//30
f 29//29 30//30 32//32
f 33//33 35//35 34//34
f 33//33 34//34 36//36
f 37//37 39//39 38//38
f 37//37 38//38 40//40
f 41//41 43//43 42//42
f 41//41 42//42 44//44
f 45//45 47//47 46//46
f 45//45 46//46 48//48
f 49//49 51//51 50//50
f 49//49 50//50 52//52
f 53//53 55//55 54//54
f 53//53 54//54 56//56
f 57//57 59//59 58//58
f 57//57 58//58 60//60
f 61//61 63//63 62//62
f 61//61 62//62 64//64
f 65//65 67//67 66//66
f 65//65 66//66 68//68
f 69//69 71//71 70//70
f 69//69 70//70 72//72
f 73//73 75//75 74//74
f 73//73 74//74 76//76
f 77//77 79//79 78//78
f 77//77 78//78 80//80
f 81//81 83//83 82//82
f 81//81 82//82 84//84
f 85//85 87//87 86//86
f 85//85 86//86 88//88
f 89//89 91//91 90//90
f 89//89 90//90 92//92
f 93//93 95//95 94//94
f 93//93 94//94 96//96
f 97//97 99//99 98//98
f 100//100 102//102 101//101
f 103//103 105//105 104//104
f 106//106 108//108 107//107
f 109//109 111//111 110//110
f 112//112 114//114 113//113
f 115//115 117//117 116//116
f 118//118 120//120 119//119
f 121//121 123//123 122//122
f 121//121 122//122 124//124
f 125//125 127//127 126//126
f 125//125 126//126 128//128
f 129//129 131//131 130//130
f 129//129 130//130 132//132
f 133//133 135//135 134//134
f 133//133 134//134 136//136
f 137//137 139//139 138//138
f 137//137 138//138 140//140
f 141//141 143//143 142//142
f 141//141 142//142 144//144
f 145//145 147//147 146//146
f 145//145 146//146 148//148
f 149//149 151//151 150//150
f 149//149 150//150 152//152
f 153//153 155//155 154//154
f 153//153 154//154 156//156
f 157//157 159//159 158//158
f 157//157 158//158 160//160
f 161//161 163//163 162//162
f 161//161 162//162 164//164
f 165//165 167//167 166//166
f 165//165 166//166 168//168
f 169//169 171//171 170//170
f 169//169 170//170 172//172
f 173//173 175//175 174//174
f 173//173 174//174 176//176
f 177//177 179//179 178//178
f 177//177 178//178 180//180
f 181//181 183//183 182//182
f 181//181 182//182 184//184
f 185//185 187//187 186//186
f 185//185 186//186 188//188
f 189//189 191//191 190//190
f 189//189 190//190 192//192
f 193//193 195//195 194//194
f 196//196 198//198 197//197
f 199//199 201//201 200//200
f 202//202 204//204 203//203
f 205//205 207//207 206//206
f 208//208 210//210 209//209
f 211//211 213//213 212//212
f 214//214 216//216 215//215
f 217//217 219//219 218//218
f 217//217 218//218 220//220
f 221//221 223//223 222//222
f 221//221 222//222 224//224
f 225//225 227//227 226//226
f 225//225 226//226 228//228
f 229//229 231//231 230//230
f 229//229 230//230 232//232
f 233//233 235//235 234//234
f 233//233 234//234 236//236
f 237//237 239//239 238//238
f 237//237 238//238 240//240
f 241//241 243//243 242//242
f 241//241 242//242 244//244
f 245//245 247//247 246//246
f 245//245 246//246 248//248
f 249//249 251//251 250//250
f 249//249 250//250 252//252
f 253//253 255//255 254//254
f 253//253 254//254 256//256
f 257//257 259//259 258//258
f 257//257 258//258 260//260
f 261//261 263//263 262//262
f 261//261 262//262 264//264
f 265//265 267//267 266//266
f 265//265 266//266 268//268
f 269//269 271//271 270//270
f 269//269 270//270 272//272
f 273//273 275//275 274//274
f 273//273 274//274 276//276
f 277//277 279//279 278//278
f 277//277 278//278 280//280
f 281//281 283//283 282//282
f 281//281 282//282 284//284
f 285//285 287//287 286//286
f 285//285 286//286 288//288
f 289//289 291//291 290//290
f 292//292 294//294 293//293
f 295//295 297//297 296//296
f 298//298 300//300 299//299
f 301//301 303//303 302//302
f 304//304 306//306 305//305
f 307//307 309//309 308//308
f 310//310 312//312 311//311
f 313//313 315//315 314//314
f 313//313 314//314 316//316
f 317//317 319//319 318//318
f 317//317 318//318 320//320
f 321//321 323//323 322//322
f 321//321 322//322 324//324
f 325//325 327//327 326//326
f 325//325 326//326 328//328
f 329//329 331//331 330//330
f 329//329 330//330 332//332
f 333//333 335//335 334//334
f 333//333 334//334 336//336
f 337//337 339//339 338//338
f 337//337 338//338 340//340
f 341//341 343//343 342//342
f 341//341 342//342 344//344
f 345//345 347//347 346//346
f 345//345 346//346 348//348
f 349//349 351//351 350//350
f 349//349 350//350 352//352
f 353//353 355//355 354//354
f 353//353 354//354 356//356
f 357//357 359//359 358//358
f 357//357 358//358 360//360
f 361//361 363//363 362//362
f 361//361 362//362 364//364
f 365//365 367//367 366//366
f 365//365 366//366 368//368
f 369//369 371//371 370//370
f 369//369 370//370 372//372
f 373//373 375//375 374//374
f 373//373 374//374 376//376
f 377//377 379//379 378//378
f 377//377 378//378 380//380
f 381//381 383//383 382//382
f 381//381 382//382 384//384
g core_crop
usemtl crop
v -0.43551 0.01000 -0.02287
v -0.43789 0.03600 -0.05704
v -0.43620 0.03600 -0.03278
v -0.43858 0.01000 -0.06696
v -0.43858 0.01000 -0.06696
v -0.04406 0.03600 -0.08457
v -0.43789 0.03600 -0.05704
v -0.04475 0.01000 -0.09450
v -0.04475 0.01000 -0.09450
v -0.04235 0.03600 -0.06033
v -0.04406 0.03600 -0.08457
v -0.04166 0.01000 -0.05041
v -0.04166 0.01000 -0.05041
v -0.43620 0.03600 -0.03278
v -0.04235 0.03600 -0.06033
v -0.43551 0.01000 -0.02287
v -0.43858 0.01000 -0.06696
v -0.04166 0.01000 -0.05041
v -0.04475 0.01000 -0.09450
v -0.43551 0.01000 -0.02287
v -0.04406 0.03600 -0.08457
v -0.43620 0.03600 -0.03278
v -0.43789 0.03600 -0.05704
v -0.04235 0.03600 -0.06033
v -0.43945 0.01000 -0.07939
v -0.44185 0.03600 -0.11357
v -0.44015 0.03600 -0.08932
v -0.44254 0.01000 -0.12349
v -0.44254 0.01000 -0.12349
v -0.04801 0.03600 -0.14111
v -0.44185 0.03600 -0.11357
v -0.04870 0.01000 -0.15102
v -0.04870 0.01000 -0.15102
v -0.04632 0.03600 -0.11686
v -0.04801 0.03600 -0.14111
v -0.04561 0.01000 -0.10694
v -0.04561 0.01000 -0.10694
v -0.44015 0.03600 -0.08932
v -0.04632 0.03600 -0.11686
v -0.43945 0.01000 -0.07939
v -0.44254 0.01000 -0.12349
v -0.04561 0.01000 -0.10694
v -0.04870 0.01000 -0.15102
v -0.43945 0.01000 -0.07939
v -0.04801 0.03600 -0.14111
v -0.44015 0.03600 -0.08932
v -0.44185 0.03600 -0.11357
v -0.04632 0.03600 -0.11686
v -0.44340 0.01000 -0.13593
v -0.44580 0.03600 -0.17010
v -0.44409 0.03600 -0.14584
v -0.44649 0.01000 -0.18001
v -0.44649 0.01000 -0.18001
v -0.05196 0.03600 -0.19763
v -0.44580 0.03600 -0.17010
v -0.05265 0.01000 -0.20756
v -0.05265 0.01000 -0.20756
v -0.05027 0.03600 -0.17339
v -0.05196 0.03600 -0.19763
v -0.04957 0.01000 -0.16347
v -0.04957 0.01000 -0.16347
v -0.44409 0.03600 -0.14584
v -0.05027 0.03600 -0.17339
v -0.44340 0.01000 -0.13593
v -0.44649 0.01000 -0.18001
v -0.04957 0.01000 -0.16347
v -0.05265 0.01000 -0.20756
v -0.44340 0.01000 -0.13593
v -0.05196 0.03600 -0.19763
v -0.44409 0.03600 -0.14584
v -0.44580 0.03600 -0.17010
v -0.05027 0.03600 -0.17339
v -0.44736 0.01000 -0.19245
v -0.44975 0.03600 -0.22662
v -0.44806 0.03600 -0.20238
v -0.45044 0.01000 -0.23655
v -0.45044 0.01000 -0.23655
v -0.05592 0.03600 -0.25417
v -0.44975 0.03600 -0.22662
v -0.05661 0.01000 -0.26408
v -0.05661 0.01000 -0.26408
v -0.05421 0.03600 -0.22992
v -0.05592 0.03600 -0.25417
v -0.05352 0.01000 -0.21999
v -0.05352 0.01000 -0.21999
v -0.44806 0.03600 -0.20238
v -0.05421 0.03600 -0.22992
v -0.44736 0.01000 -0.19245
v -0.45044 0.01000 -0.23655
v -0.05352 0.01000 -0.21999
v -0.05661 0.01000 -0.26408
v -0.44736 0.01000 -0.19245
v -0.05592 0.03600 -0.25417
v -0.44806 0.03600 -0.20238
v -0.44975 0.03600 -0.22662
v -0.05421 0.03600 -0.22992
v -0.45131 0.01000 -0.24899
v -0.45371 0.03600 -0.28316
v -0.45201 0.03600 -0.25890
v -0.45440 0.01000 -0.29307
v -0.45440 0.01000 -0.29307
v -0.05987 0.03600 -0.31069
v -0.45371 0.03600 -0.28316
v -0.06056 0.01000 -0.32062
v -0.06056 0.01000 -0.32062
v -0.05818 0.03600 -0.28644
v -0.05987 0.03600 -0.31069
v -0.05747 0.01000 -0.27652
v -0.05747 0.01000 -0.27652
v -0.45201 0.03600 -0.25890
v -0.05818 0.03600 -0.28644
v -0.45131 0.01000 -0.24899
v -0.45440 0.01000 -0.29307
v -0.05747 0.01000 -0.27652
v -0.06056 0.01000 -0.32062
v -0.45131 0.01000 -0.24899
v -0.05987 0.03600 -0.31069
v -0.45201 0.03600 -0.25890
v -0.45371 0.03600 -0.28316
v -0.05818 0.03600 -0.28644
v -0.45526 0.01000 -0.30551
v -0.45766 0.03600 -0.33968
v -0.45595 0.03600 -0.31543
v -0.45835 0.01000 -0.34961
v -0.45835 0.01000 -0.34961
v -0.06381 0.03600 -0.36723
v -0.45766 0.03600 -0.33968
v -0.06451 0.01000 -0.37714
v -0.06451 0.01000 -0.37714
v -0.06212 0.03600 -0.34298
v -0.06381 0.03600 -0.36723
v -0.06143 0.01000 -0.33305
v -0.06143 0.01000 -0.33305
v -0.45595 0.03600 -0.31543
v -0.06212 0.03600 -0.34298
v -0.45526 0.01000 -0.30551
v -0.45835 0.01000 -0.34961
v -0.06143 0.01000 -0.33305
v -0.06451 0.01000 -0.37714
v -0.45526 0.01000 -0.30551
v -0.06381 0.03600 -0.36723
v -0.45595 0.03600 -0.31543
v -0.45766 0.03600 -0.33968
v -0.06212 0.03600 -0.34298
v -0.41136 0.01000 0.41919
v -0.41640 0.03600 0.38326
v -0.41281 0.03600 0.40875
v -0.41787 0.01000 0.37284
v -0.41787 0.01000 0.37284
v -0.02544 0.03600 0.32831
v -0.41640 0.03600 0.38326
v -0.02691 0.01000 0.31789
v -0.02691 0.01000 0.31789
v -0.02186 0.03600 0.35381
v -0.02544 0.03600 0.32831
v -0.02040 0.01000 0.36424
v -0.02040 0.01000 0.36424
v -0.41281 0.03600 0.40875
v -0.02186 0.03600 0.35381
v -0.41136 0.01000 0.41919
v -0.41787 0.01000 0.37284
v -0.02040 0.01000 0.36424
v -0.02691 0.01000 0.31789
v -0.41136 0.01000 0.41919
v -0.02544 0.03600 0.32831
v -0.41281 0.03600 0.40875
v -0.41640 0.03600 0.38326
v -0.02186 0.03600 0.35381
v -0.41970 0.01000 0.35977
v -0.42475 0.03600 0.32384
v -0.42117 0.03600 0.34934
v -0.42622 0.01000 0.31342
v -0.42622 0.01000 0.31342
v -0.03379 0.03600 0.26890
v -0.42475 0.03600 0.32384
v -0.03526 0.01000 0.25847
v -0.03526 0.01000 0.25847
v -0.03020 0.03600 0.29439
v -0.03379 0.03600 0.26890
v -0.02875 0.01000 0.30482
v -0.02875 0.01000 0.30482
v -0.42117 0.03600 0.34934
v -0.03020 0.03600 0.29439
v -0.41970 0.01000 0.35977
v -0.42622 0.01000 0.31342
v -0.02875 0.01000 0.30482
v -0.03526 0.01000 0.25847
v -0.41970 0.01000 0.35977
v -0.03379 0.03600 0.26890
v -0.42117 0.03600 0.34934
v -0.42475 0.03600 0.32384
v -0.03020 0.03600 0.29439
v -0.42805 0.01000 0.30035
v -0.43311 0.03600 0.26443
v -0.42952 0.03600 0.28992
v -0.43456 0.01000 0.25400
v -0.43456 0.01000 0.25400
v -0.04215 0.03600 0.20949
v -0.43311 0.03600 0.26443
v -0.04362 0.01000 0.19906
v -0.04362 0.01000 0.19906
v -0.03856 0.03600 0.23497
v -0.04215 0.03600 0.20949
v -0.03709 0.01000 0.24540
v -0.03709 0.01000 0.24540
v -0.42952 0.03600 0.28992
v -0.03856 0.03600 0.23497
v -0.42805 0.01000 0.30035
v -0.43456 0.01000 0.25400
v -0.03709 0.01000 0.24540
v -0.04362 0.01000 0.19906
v -0.42805 0.01000 0.30035
v -0.04215 0.03600 0.20949
v -0.42952 0.03600 0.28992
v -0.43311 0.03600 0.26443
v -0.03856 0.03600 0.23497
v -0.43641 0.01000 0.24093
v -0.44145 0.03600 0.20502
v -0.43787 0.03600 0.23050
v -0.44292 0.01000 0.19458
v -0.44292 0.01000 0.19458
v -0.05050 0.03600 0.15007
v -0.44145 0.03600 0.20502
v -0.05196 0.01000 0.13964
v -0.05196 0.01000 0.13964
v -0.04691 0.03600 0.17555
v -0.05050 0.03600 0.15007
v -0.04544 0.01000 0.18599
v -0.04544 0.01000 0.18599
v -0.43787 0.03600 0.23050
v -0.04691 0.03600 0.17555
v -0.43641 0.01000 0.24093
v -0.44292 0.01000 0.19458
v -0.04544 0.01000 0.18599
v -0.05196 0.01000 0.13964
v -0.43641 0.01000 0.24093
v -0.05050 0.03600 0.15007
v -0.43787 0.03600 0.23050
v -0.44145 0.03600 0.20502
v -0.04691 0.03600 0.17555
v -0.44476 0.01000 0.18152
v -0.44980 0.03600 0.14560
v -0.44621 0.03600 0.17108
v -0.45127 0.01000 0.13517
v -0.45127 0.01000 0.13517
v -0.05884 0.03600 0.09065
v -0.44980 0.03600 0.14560
v -0.06031 0.01000 0.08022
v -0.06031 0.01000 0.08022
v -0.05527 0.03600 0.11615
v -0.05884 0.03600 0.09065
v -0.05380 0.01000 0.12657
v -0.05380 0.01000 0.12657
v -0.44621 0.03600 0.17108
v -0.05527 0.03600 0.11615
v -0.44476 0.01000 0.18152
v -0.45127 0.01000 0.13517
v -0.05380 0.01000 0.12657
v -0.06031 0.01000 0.08022
v -0.44476 0.01000 0.18152
v -0.05884 0.03600 0.09065
v -0.44621 0.03600 0.17108
v -0.44980 0.03600 0.14560
v -0.05527 0.03600 0.11615
v -0.45310 0.01000 0.12210
v -0.45816 0.03600 0.08618
v -0.45457 0.03600 0.11168
v -0.45961 0.01000 0.07575
v -0.45961 0.01000 0.07575
v -0.06720 0.03600 0.03123
v -0.45816 0.03600 0.08618
v -0.06866 0.01000 0.02080
v -0.06866 0.01000 0.02080
v -0.06361 0.03600 0.05673
v -0.06720 0.03600 0.03123
v -0.06215 0.01000 0.06715
v -0.06215 0.01000 0.06715
v -0.45457 0.03600 0.11168
v -0.06361 0.03600 0.05673
v -0.45310 0.01000 0.12210
v -0.45961 0.01000 0.07575
v -0.06215 0.01000 0.06715
v -0.06866 0.01000 0.02080
v -0.45310 0.01000 0.12210
v -0.06720 0.03600 0.03123
v -0.45457 0.03600 0.11168
v -0.45816 0.03600 0.08618
v -0.06361 0.03600 0.05673
v 0.03168 0.01000 -0.08122
v 0.07672 0.03600 -0.39785
v 0.04332 0.03600 -0.07999
v 0.06508 0.01000 -0.39906
v 0.06508 0.01000 -0.39906
v 0.10516 0.03600 -0.39486
v 0.07672 0.03600 -0.39785
v 0.11680 0.01000 -0.39363
v 0.11680 0.01000 -0.39363
v 0.07176 0.03600 -0.07701
v 0.10516 0.03600 -0.39486
v 0.08340 0.01000 -0.07578
v 0.08340 0.01000 -0.07578
v 0.04332 0.03600 -0.07999
v 0.07176 0.03600 -0.07701
v 0.03168 0.01000 -0.08122
v 0.06508 0.01000 -0.39906
v 0.08340 0.01000 -0.07578
v 0.11680 0.01000 -0.39363
v 0.03168 0.01000 -0.08122
v 0.10516 0.03600 -0.39486
v 0.04332 0.03600 -0.07999
v 0.07672 0.03600 -0.39785
v 0.07176 0.03600 -0.07701
v 0.09797 0.01000 -0.07425
v 0.14303 0.03600 -0.39087
v 0.10961 0.03600 -0.07303
v 0.13139 0.01000 -0.39210
v 0.13139 0.01000 -0.39210
v 0.17147 0.03600 -0.38789
v 0.14303 0.03600 -0.39087
v 0.18311 0.01000 -0.38667
v 0.18311 0.01000 -0.38667
v 0.13805 0.03600 -0.07004
v 0.17147 0.03600 -0.38789
v 0.14969 0.01000 -0.06882
v 0.14969 0.01000 -0.06882
v 0.10961 0.03600 -0.07303
v 0.13805 0.03600 -0.07004
v 0.09797 0.01000 -0.07425
v 0.13139 0.01000 -0.39210
v 0.14969 0.01000 -0.06882
v 0.18311 0.01000 -0.38667
v 0.09797 0.01000 -0.07425
v 0.17147 0.03600 -0.38789
v 0.10961 0.03600 -0.07303
v 0.14303 0.03600 -0.39087
v 0.13805 0.03600 -0.07004
v 0.16428 0.01000 -0.06728
v 0.20932 0.03600 -0.38391
v 0.17592 0.03600 -0.06606
v 0.19769 0.01000 -0.38513
v 0.19769 0.01000 -0.38513
v 0.23777 0.03600 -0.38092
v 0.20932 0.03600 -0.38391
v 0.24940 0.01000 -0.37970
v 0.24940 0.01000 -0.37970
v 0.20436 0.03600 -0.06307
v 0.23777 0.03600 -0.38092
v 0.21600 0.01000 -0.06185
v 0.21600 0.01000 -0.06185
v 0.17592 0.03600 -0.06606
v 0.20436 0.03600 -0.06307
v 0.16428 0.01000 -0.06728
v 0.19769 0.01000 -0.38513
v 0.21600 0.01000 -0.06185
v 0.24940 0.01000 -0.37970
v 0.16428 0.01000 -0.06728
v 0.23777 0.03600 -0.38092
v 0.17592 0.03600 -0.06606
v 0.20932 0.03600 -0.38391
v 0.20436 0.03600 -0.06307
v 0.23058 0.01000 -0.06031
v 0.27562 0.03600 -0.37694
v 0.24222 0.03600 -0.05909
v 0.26399 0.01000 -0.37816
v 0.26399 0.01000 -0.37816
v 0.30407 0.03600 -0.37396
v 0.27562 0.03600 -0.37694
v 0.31570 0.01000 -0.37273
v 0.31570 0.01000 -0.37273
v 0.27066 0.03600 -0.05611
v 0.30407 0.03600 -0.37396
v 0.28230 0.01000 -0.05488
v 0.28230 0.01000 -0.05488
v 0.24222 0.03600 -0.05909
v 0.27066 0.03600 -0.05611
v 0.23058 0.01000 -0.06031
v 0.26399 0.01000 -0.37816
v 0.28230 0.01000 -0.05488
v 0.31570 0.01000 -0.37273
v 0.23058 0.01000 -0.06031
v 0.30407 0.03600 -0.37396
v 0.24222 0.03600 -0.05909
v 0.27562 0.03600 -0.37694
v 0.27066 0.03600 -0.05611
v 0.29689 0.01000 -0.05335
v 0.34193 0.03600 -0.36997
v 0.30851 0.03600 -0.05212
v 0.33029 0.01000 -0.37120
v 0.33029 0.01000 -0.37120
v 0.37037 0.03600 -0.36699
v 0.34193 0.03600 -0.36997
v 0.38201 0.01000 -0.36576
v 0.38201 0.01000 -0.36576
v 0.33697 0.03600 -0.04914
v 0.37037 0.03600 -0.36699
v 0.34859 0.01000 -0.04792
v 0.34859 0.01000 -0.04792
v 0.30851 0.03600 -0.05212
v 0.33697 0.03600 -0.04914
v 0.29689 0.01000 -0.05335
v 0.33029 0.01000 -0.37120
v 0.34859 0.01000 -0.04792
v 0.38201 0.01000 -0.36576
v 0.29689 0.01000 -0.05335
v 0.37037 0.03600 -0.36699
v 0.30851 0.03600 -0.05212
v 0.34193 0.03600 -0.36997
v 0.33697 0.03600 -0.04914
v 0.36318 0.01000 -0.04638
v 0.40824 0.03600 -0.36301
v 0.37482 0.03600 -0.04516
v 0.39660 0.01000 -0.36423
v 0.39660 0.01000 -0.36423
v 0.43668 0.03600 -0.36001
v 0.40824 0.03600 -0.36301
v 0.44831 0.01000 -0.35880
v 0.44831 0.01000 -0.35880
v 0.40326 0.03600 -0.04216
v 0.43668 0.03600 -0.36001
v 0.41490 0.01000 -0.04094
v 0.41490 0.01000 -0.04094
v 0.37482 0.03600 -0.04516
v 0.40326 0.03600 -0.04216
v 0.36318 0.01000 -0.04638
v 0.39660 0.01000 -0.36423
v 0.41490 0.01000 -0.04094
v 0.44831 0.01000 -0.35880
v 0.36318 0.01000 -0.04638
v 0.43668 0.03600 -0.36001
v 0.37482 0.03600 -0.04516
v 0.40824 0.03600 -0.36301
v 0.40326 0.03600 -0.04216
v 0.05835 0.01000 0.35938
v 0.08717 0.03600 0.02203
v 0.06946 0.03600 0.35997
v 0.07607 0.01000 0.02144
v 0.07607 0.01000 0.02144
v 0.11429 0.03600 0.02345
v 0.08717 0.03600 0.02203
v 0.12540 0.01000 0.02403
v 0.12540 0.01000 0.02403
v 0.09659 0.03600 0.36139
v 0.11429 0.03600 0.02345
v 0.10768 0.01000 0.36196
v 0.10768 0.01000 0.36196
v 0.06946 0.03600 0.35997
v 0.09659 0.03600 0.36139
v 0.05835 0.01000 0.35938
v 0.07607 0.01000 0.02144
v 0.10768 0.01000 0.36196
v 0.12540 0.01000 0.02403
v 0.05835 0.01000 0.35938
v 0.11429 0.03600 0.02345
v 0.06946 0.03600 0.35997
v 0.08717 0.03600 0.02203
v 0.09659 0.03600 0.36139
v 0.12161 0.01000 0.36270
v 0.15041 0.03600 0.02534
v 0.13271 0.03600 0.36327
v 0.13931 0.01000 0.02476
v 0.13931 0.01000 0.02476
v 0.17755 0.03600 0.02676
v 0.15041 0.03600 0.02534
v 0.18865 0.01000 0.02735
v 0.18865 0.01000 0.02735
v 0.15983 0.03600 0.36470
v 0.17755 0.03600 0.02676
v 0.17093 0.01000 0.36528
v 0.17093 0.01000 0.36528
v 0.13271 0.03600 0.36327
v 0.15983 0.03600 0.36470
v 0.12161 0.01000 0.36270
v 0.13931 0.01000 0.02476
v 0.17093 0.01000 0.36528
v 0.18865 0.01000 0.02735
v 0.12161 0.01000 0.36270
v 0.17755 0.03600 0.02676
v 0.13271 0.03600 0.36327
v 0.15041 0.03600 0.02534
v 0.15983 0.03600 0.36470
v 0.18485 0.01000 0.36601
v 0.21365 0.03600 0.02866
v 0.19595 0.03600 0.36660
v 0.20256 0.01000 0.02807
v 0.20256 0.01000 0.02807
v 0.24079 0.03600 0.03008
v 0.21365 0.03600 0.02866
v 0.25189 0.01000 0.03066
v 0.25189 0.01000 0.03066
v 0.22308 0.03600 0.36802
v 0.24079 0.03600 0.03008
v 0.23419 0.01000 0.36859
v 0.23419 0.01000 0.36859
v 0.19595 0.03600 0.36660
v 0.22308 0.03600 0.36802
v 0.18485 0.01000 0.36601
v 0.20256 0.01000 0.02807
v 0.23419 0.01000 0.36859
v 0.25189 0.01000 0.03066
v 0.18485 0.01000 0.36601
v 0.24079 0.03600 0.03008
v 0.19595 0.03600 0.36660
v 0.21365 0.03600 0.02866
v 0.22308 0.03600 0.36802
v 0.24810 0.01000 0.36933
v 0.27690 0.03600 0.03197
v 0.25919 0.03600 0.36990
v 0.26580 0.01000 0.03139
v 0.26580 0.01000 0.03139
v 0.30404 0.03600 0.03339
v 0.27690 0.03600 0.03197
v 0.31514 0.01000 0.03398
v 0.31514 0.01000 0.03398
v 0.28633 0.03600 0.37133
v 0.30404 0.03600 0.03339
v 0.29743 0.01000 0.37191
v 0.29743 0.01000 0.37191
v 0.25919 0.03600 0.36990
v 0.28633 0.03600 0.37133
v 0.24810 0.01000 0.36933
v 0.26580 0.01000 0.03139
v 0.29743 0.01000 0.37191
v 0.31514 0.01000 0.03398
v 0.24810 0.01000 0.36933
v 0.30404 0.03600 0.03339
v 0.25919 0.03600 0.36990
v 0.27690 0.03600 0.03197
v 0.28633 0.03600 0.37133
v 0.31134 0.01000 0.37264
v 0.34016 0.03600 0.03529
v 0.32244 0.03600 0.37323
v 0.32905 0.01000 0.03470
v 0.32905 0.01000 0.03470
v 0.36728 0.03600 0.03671
v 0.34016 0.03600 0.03529
v 0.37838 0.01000 0.03729
v 0.37838 0.01000 0.03729
v 0.34958 0.03600 0.37465
v 0.36728 0.03600 0.03671
v 0.36067 0.01000 0.37522
v 0.36067 0.01000 0.37522
v 0.32244 0.03600 0.37323
v 0.34958 0.03600 0.37465
v 0.31134 0.01000 0.37264
v 0.32905 0.01000 0.03470
v 0.36067 0.01000 0.37522
v 0.37838 0.01000 0.03729
v 0.31134 0.01000 0.37264
v 0.36728 0.03600 0.03671
v 0.32244 0.03600 0.37323
v 0.34016 0.03600 0.03529
v 0.34958 0.03600 0.37465
v 0.37458 0.01000 0.37596
v 0.40340 0.03600 0.03860
v 0.38569 0.03600 0.37653
v 0.39230 0.01000 0.03802
v 0.39230 0.01000 0.03802
v 0.43053 0.03600 0.04002
v 0.40340 0.03600 0.03860
v 0.44164 0.01000 0.04061
v 0.44164 0.01000 0.04061
v 0.41282 0.03600 0.37796
v 0.43053 0.03600 0.04002
v 0.42392 0.01000 0.37854
v 0.42392 0.01000 0.37854
v 0.38569 0.03600 0.37653
v 0.41282 0.03600 0.37796
v 0.37458 0.01000 0.37596
v 0.39230 0.01000 0.03802
v 0.42392 0.01000 0.37854
v 0.44164 0.01000 0.04061
v 0.37458 0.01000 0.37596
v 0.43053 0.03600 0.04002
v 0.38569 0.03600 0.37653
v 0.40340 0.03600 0.03860
v 0.41282 0.03600 0.37796
vn -0.0025 1.0000 0.0026
vn -0.0025 1.0000 0.0026
vn -0.0025 1.0000 0.0026
vn -0.0025 1.0000 0.0026
vn 0.6307 -0.7590 -0.1617
vn 0.6307 -0.7590 -0.1617
vn 0.6307 -0.7590 -0.1617
vn 0.6307 -0.7590 -0.1617
vn 0.7314 -0.0018 0.6820
vn 0.7314 -0.0018 0.6820
vn 0.7314 -0.0018 0.6820
vn 0.7314 -0.0018 0.6820
vn 0.1773 0.1534 0.9721
vn 0.1773 0.1534 0.9721
vn 0.1773 0.1534 0.9721
vn 0.1773 0.1534 0.9721
vn -0.0000 -0.7071 0.7071
vn -0.0000 -0.7071 0.7071
vn -0.0000 -0.7071 0.7071
vn -0.0000 -0.7071 0.7071
vn -0.0000 0.7071 0.7071
vn -0.0000 0.7071 0.7071
vn -0.0000 0.7071 0.7071
vn -0.0000 0.7071 0.7071
vn -0.0025 1.0000 0.0026
vn -0.0025 1.0000 0.0026
vn -0.0025 1.0000 0.0026
vn -0.0025 1.0000 0.0026
vn 0.6307 -0.7590 -0.1617
vn 0.6307 -0.7590 -0.1617
vn 0.6307 -0.7590 -0.1617
vn 0.6307 -0.7590 -0.1617
vn 0.7314 -0.0018 0.6820
vn 0.7314 -0.0018 0.6820
vn 0.7314 -0.0018 0.6820
vn 0.7314 -0.0018 0.6820
vn 0.1773 0.1534 0.9721
vn 0.1773 0.1534 0.9721
vn 0.1773 0.1534 0.9721
vn 0.1773 0.1534 0.9721
vn -0.0000 -0.7071 0.7071
vn -0.0000 -0.7071 0.7071
vn -0.0000 -0.7071 0.7071
vn -0.0000 -0.7071 0.7071
vn -0.0000 0.7071 0.7071
vn -0.0000 0.7071 0.7071
vn -0.0000 0.7071 0.7071
vn -0.0000 0.7071 0.7071
vn -0.0025 1.0000 0.0026
vn -0.0025 1.0000 0.0026
vn -0.0025 1.0000 0.0026
vn -0.0025 1.0000 0.0026
vn 0.6307 -0.7590 -0.1617
vn 0.6307 -0.7590 -0.1617
vn 0.6307 -0.7590 -0.1617
vn 0.6307 -0.7590 -0.1617
vn 0.7314 -0.0018 0.6820
vn 0.7314 -0.0018 0.6820
vn 0.7314 -0.0018 0.6820
vn 0.7314 -0.0018 0.6820
vn 0.1773 0.1534 0.9721
vn 0.1773 0.1534 0.9721
vn 0.1773 0.1534 0.9721
vn 0.1773 0.1534 0.9721
vn -0.0000 -0.7071 0.7071
vn -0.0000 -0.7071 0.7071
vn -0.0000 -0.7071 0.7071
vn -0.0000 -0.7071 0.7071
vn -0.0000 0.7071 0.7071
vn -0.0000 0.7071 0.7071
vn -0.0000 0.7071 0.7071
vn -0.0000 0.7071 0.7071
vn -0.0025 1.0000 0.0026
vn -0.0025 1.0000 0.0026
vn -0.0025 1.0000 0.0026
vn -0.0025 1.0000 0.0026
vn 0.6307 -0.7590 -0.1617
vn 0.6307 -0.7590 -0.1617
vn 0.6307 -0.7590 -0.1617
vn 0.6307 -0.7590 -0.1617
vn 0.7314 -0.0018 0.6820
vn 0.7314 -0.0018 0.6820
vn 0.7314 -0.0018 0.6820
vn 0.7314 -0.0018 0.6820
vn 0.1773 0.1534 0.9721
vn 0.1773 0.1534 0.9721
vn 0.1773 0.1534 0.9721
vn 0.1773 0.1534 0.9721
vn -0.0000 -0.7071 0.7071
vn -0.0000 -0.7071 0.7071
vn -0.0000 -0.7071 0.7071
vn -0.0000 -0.7071 0.7071
vn -0.0000 0.7071 0.7071
vn -0.0000 0.7071 0.7071
vn -0.0000 0.7071 0.7071
vn -0.0000 0.7071 0.7071
vn -0.0025 1.0000 0.0026
vn -0.0025 1.0000 0.0026
vn -0.0025 1.0000 0.0026
vn -0.0025 1.0000 0.0026
vn 0.6307 -0.7590 -0.1617
vn 0.6307 -0.7590 -0.1617
vn 0.6307 -0.7590 -0.1617
vn 0.6307 -0.7590 -0.1617
vn 0.7314 -0.0018 0.6820
vn 0.7314 -0.0018 0.6820
vn 0.7314 -0.0018 0.6820
vn 0.7314 -0.0018 0.6820
vn 0.1773 0.1534 0.9721
vn 0.1773 0.1534 0.9721
vn 0.1773 0.1534 0.9721
vn 0.1773 0.1534 0.9721
vn -0.0000 -0.7071 0.7071
vn -0.0000 -0.7071 0.7071
vn -0.0000 -0.7071 0.7071
vn -0.0000 -0.7071 0.7071
vn -0.0000 0.7071 0.7071
vn -0.0000 0.7071 0.7071
vn -0.0000 0.7071 0.7071
vn -0.0000 0.7071 0.7071
vn -0.0025 1.0000 0.0026
vn -0.0025 1.0000 0.0026
vn -0.0025 1.0000 0.0026
vn -0.0025 1.0000 0.0026
vn 0.6307 -0.7590 -0.1617
vn 0.6307 -0.7590 -0.1617
vn 0.6307 -0.7590 -0.1617
vn 0.6307 -0.7590 -0.1617
vn 0.7314 -0.0018 0.6820
vn 0.7314 -0.0018 0.6820
vn 0.7314 -0.0018 0.6820
vn 0.7314 -0.0018 0.6820
vn 0.1773 0.1534 0.9721
vn 0.1773 0.1534 0.9721
vn 0.1773 0.1534 0.9721
vn 0.1773 0.1534 0.9721
vn -0.0000 -0.7071 0.7071
vn -0.0000 -0.7071 0.7071
vn -0.0000 -0.7071 0.7071
vn -0.0000 -0.7071 0.7071
vn -0.0000 0.7071 0.7071
vn -0.0000 0.7071 0.7071
vn -0.0000 0.7071 0.7071
vn -0.0000 0.7071 0.7071
vn -0.0098 0.9999 0.0113
vn -0.0098 0.9999 0.0113
vn -0.0098 0.9999 0.0113
vn -0.0098 0.9999 0.0113
vn 0.6045 -0.7731 -0.1920
vn 0.6045 -0.7731 -0.1920
vn 0.6045 -0.7731 -0.1920
vn 0.6045 -0.7731 -0.1920
vn 0.7547 -0.0074 0.6560
vn 0.7547 -0.0074 0.6560
vn 0.7547 -0.0074 0.6560
vn 0.7547 -0.0074 0.6560
vn 0.2025 0.1424 0.9689
vn 0.2025 0.1424 0.9689
vn 0.2025 0.1424 0.9689
vn 0.2025 0.1424 0.9689
vn -0.0000 -0.7071 0.7071
vn -0.0000 -0.7071 0.7071
vn -0.0000 -0.7071 0.7071
vn -0.0000 -0.7071 0.7071
vn -0.0000 0.7071 0.7071
vn -0.0000 0.7071 0.7071
vn -0.0000 0.7071 0.7071
vn -0.0000 0.7071 0.7071
vn -0.0098 0.9999 0.0113
vn -0.0098 0.9999 0.0113
vn -0.0098 0.9999 0.0113
vn -0.0098 0.9999 0.0113
vn 0.6045 -0.7731 -0.1920
vn 0.6045 -0.7731 -0.1920
vn 0.6045 -0.7731 -0.1920
vn 0.6045 -0.7731 -0.1920
vn 0.7547 -0.0074 0.6560
vn 0.7547 -0.0074 0.6560
vn 0.7547 -0.0074 0.6560
vn 0.7547 -0.0074 0.6560
vn 0.2025 0.1424 0.9689
vn 0.2025 0.1424 0.9689
vn 0.2025 0.1424 0.9689
vn 0.2025 0.1424 0.9689
vn -0.0000 -0.7071 0.7071
vn -0.0000 -0.7071 0.7071
vn -0.0000 -0.7071 0.7071
vn -0.0000 -0.7071 0.7071
vn -0.0000 0.7071 0.7071
vn -0.0000 0.7071 0.7071
vn -0.0000 0.7071 0.7071
vn -0.0000 0.7071 0.7071
vn -0.0098 0.9999 0.0113
vn -0.0098 0.9999 0.0113
vn -0.0098 0.9999 0.0113
vn -0.0098 0.9999 0.0113
vn 0.6045 -0.7731 -0.1920
vn 0.6045 -0.7731 -0.1920
vn 0.6045 -0.7731 -0.1920
vn 0.6045 -0.7731 -0.1920
vn 0.7547 -0.0074 0.6560
vn 0.7547 -0.0074 0.6560
vn 0.7547 -0.0074 0.6560
vn 0.7547 -0.0074 0.6560
vn 0.2025 0.1424 0.9689
vn 0.2025 0.1424 0.9689
vn 0.2025 0.1424 0.9689
vn 0.2025 0.1424 0.9689
vn -0.0000 -0.7071 0.7071
vn -0.0000 -0.7071 0.7071
vn -0.0000 -0.7071 0.7071
vn -0.0000 -0.7071 0.7071
vn -0.0000 0.7071 0.7071
vn -0.0000 0.7071 0.7071
vn -0.0000 0.7071 0.7071
vn -0.0000 0.7071 0.7071
vn -0.0098 0.9999 0.0113
vn -0.0098 0.9999 0.0113
vn -0.0098 0.9999 0.0113
vn -0.0098 0.9999 0.0113
vn 0.6045 -0.7731 -0.1920
vn 0.6045 -0.7731 -0.1920
vn 0.6045 -0.7731 -0.1920
vn 0.6045 -0.7731 -0.1920
vn 0.7547 -0.0074 0.6560
vn 0.7547 -0.0074 0.6560
vn 0.7547 -0.0074 0.6560
vn 0.7547 -0.0074 0.6560
vn 0.2025 0.1424 0.9689
vn 0.2025 0.1424 0.9689
vn 0.2025 0.1424 0.9689
vn 0.2025 0.1424 0.9689
vn -0.0000 -0.7071 0.7071
vn -0.0000 -0.7071 0.7071
vn -0.0000 -0.7071 0.7071
vn -0.0000 -0.7071 0.7071
vn -0.0000 0.7071 0.7071
vn -0.0000 0.7071 0.7071
vn -0.0000 0.7071 0.7071
vn -0.0000 0.7071 0.7071
vn -0.0098 0.9999 0.0113
vn -0.0098 0.9999 0.0113
vn -0.0098 0.9999 0.0113
vn -0.0098 0.9999 0.0113
vn 0.6045 -0.7731 -0.1920
vn 0.6045 -0.7731 -0.1920
vn 0.6045 -0.7731 -0.1920
vn 0.6045 -0.7731 -0.1920
vn 0.7547 -0.0074 0.6560
vn 0.7547 -0.0074 0.6560
vn 0.7547 -0.0074 0.6560
vn 0.7547 -0.0074 0.6560
vn 0.2025 0.1424 0.9689
vn 0.2025 0.1424 0.9689
vn 0.2025 0.1424 0.9689
vn 0.2025 0.1424 0.9689
vn -0.0000 -0.7071 0.7071
vn -0.0000 -0.7071 0.7071
vn -0.0000 -0.7071 0.7071
vn -0.0000 -0.7071 0.7071
vn -0.0000 0.7071 0.7071
vn -0.0000 0.7071 0.7071
vn -0.0000 0.7071 0.7071
vn -0.0000 0.7071 0.7071
vn -0.0098 0.9999 0.0113
vn -0.0098 0.9999 0.0113
vn -0.0098 0.9999 0.0113
vn -0.0098 0.9999 0.0113
vn 0.6045 -0.7731 -0.1920
vn 0.6045 -0.7731 -0.1920
vn 0.6045 -0.7731 -0.1920
vn 0.6045 -0.7731 -0.1920
vn 0.7547 -0.0074 0.6560
vn 0.7547 -0.0074 0.6560
vn 0.7547 -0.0074 0.6560
vn 0.7547 -0.0074 0.6560
vn 0.2025 0.1424 0.9689
vn 0.2025 0.1424 0.9689
vn 0.2025 0.1424 0.9689
vn 0.2025 0.1424 0.9689
vn -0.0000 -0.7071 0.7071
vn -0.0000 -0.7071 0.7071
vn -0.0000 -0.7071 0.7071
vn -0.0000 -0.7071 0.7071
vn -0.0000 0.7071 0.7071
vn -0.0000 0.7071 0.7071
vn -0.0000 0.7071 0.7071
vn -0.0000 0.7071 0.7071
vn -0.0447 0.9227 0.3828
vn -0.0447 0.9227 0.3828
vn -0.0447 0.9227 0.3828
vn -0.0447 0.9227 0.3828
vn 0.7427 -0.6684 0.0389
vn 0.7427 -0.6684 0.0389
vn 0.7427 -0.6684 0.0389
vn 0.7427 -0.6684 0.0389
vn -0.6069 -0.2900 -0.7400
vn -0.6069 -0.2900 -0.7400
vn -0.6069 -0.2900 -0.7400
vn -0.6069 -0.2900 -0.7400
vn -0.0523 0.0580 0.9969
vn -0.0523 0.0580 0.9969
vn -0.0523 0.0580 0.9969
vn -0.0523 0.0580 0.9969
vn -0.0000 -0.7071 0.7071
vn -0.0000 -0.7071 0.7071
vn -0.0000 -0.7071 0.7071
vn -0.0000 -0.7071 0.7071
vn -0.0000 0.7071 0.7071
vn -0.0000 0.7071 0.7071
vn -0.0000 0.7071 0.7071
vn -0.0000 0.7071 0.7071
vn -0.0447 0.9227 0.3828
vn -0.0447 0.9227 0.3828
vn -0.0447 0.9227 0.3828
vn -0.0447 0.9227 0.3828
vn 0.7427 -0.6684 0.0389
vn 0.7427 -0.6684 0.0389
vn 0.7427 -0.6684 0.0389
vn 0.7427 -0.6684 0.0389
vn -0.6069 -0.2900 -0.7400
vn -0.6069 -0.2900 -0.7400
vn -0.6069 -0.2900 -0.7400
vn -0.6069 -0.2900 -0.7400
vn -0.0523 0.0580 0.9969
vn -0.0523 0.0580 0.9969
vn -0.0523 0.0580 0.9969
vn -0.0523 0.0580 0.9969
vn -0.0000 -0.7071 0.7071
vn -0.0000 -0.7071 0.7071
vn -0.0000 -0.7071 0.7071
vn -0.0000 -0.7071 0.7071
vn -0.0000 0.7071 0.7071
vn -0.0000 0.7071 0.7071
vn -0.0000 0.7071 0.7071
vn -0.0000 0.7071 0.7071
vn -0.0447 0.9227 0.3828
vn -0.0447 0.9227 0.3828
vn -0.0447 0.9227 0.3828
vn -0.0447 0.9227 0.3828
vn 0.7427 -0.6684 0.0389
vn 0.7427 -0.6684 0.0389
vn 0.7427 -0.6684 0.0389
vn 0.7427 -0.6684 0.0389
vn -0.6069 -0.2900 -0.7400
vn -0.6069 -0.2900 -0.7400
vn -0.6069 -0.2900 -0.7400
vn -0.6069 -0.2900 -0.7400
vn -0.0523 0.0580 0.9969
vn -0.0523 0.0580 0.9969
vn -0.0523 0.0580 0.9969
vn -0.0523 0.0580 0.9969
vn -0.0000 -0.7071 0.7071
vn -0.0000 -0.7071 0.7071
vn -0.0000 -0.7071 0.7071
vn -0.0000 -0.7071 0.7071
vn -0.0000 0.7071 0.7071
vn -0.0000 0.7071 0.7071
vn -0.0000 0.7071 0.7071
vn -0.0000 0.7071 0.7071
vn -0.0447 0.9227 0.3828
vn -0.0447 0.9227 0.3828
vn -0.0447 0.9227 0.3828
vn -0.0447 0.9227 0.3828
vn 0.7427 -0.6684 0.0389
vn 0.7427 -0.6684 0.0389
vn 0.7427 -0.6684 0.0389
vn 0.7427 -0.6684 0.0389
vn -0.6069 -0.2900 -0.7400
vn -0.6069 -0.2900 -0.7400
vn -0.6069 -0.2900 -0.7400
vn -0.6069 -0.2900 -0.7400
vn -0.0523 0.0580 0.9969
vn -0.0523 0.0580 0.9969
vn -0.0523 0.0580 0.9969
vn -0.0523 0.0580 0.9969
vn -0.0000 -0.7071 0.7071
vn -0.0000 -0.7071 0.7071
vn -0.0000 -0.7071 0.7071
vn -0.0000 -0.7071 0.7071
vn -0.0000 0.7071 0.7071
vn -0.0000 0.7071 0.7071
vn -0.0000 0.7071 0.7071
vn -0.0000 0.7071 0.7071
vn -0.0447 0.9227 0.3828
vn -0.0447 0.9227 0.3828
vn -0.0447 0.9227 0.3828
vn -0.0447 0.9227 0.3828
vn 0.7427 -0.6684 0.0389
vn 0.7427 -0.6684 0.0389
vn 0.7427 -0.6684 0.0389
vn 0.7427 -0.6684 0.0389
vn -0.6069 -0.2900 -0.7400
vn -0.6069 -0.2900 -0.7400
vn -0.6069 -0.2900 -0.7400
vn -0.6069 -0.2900 -0.7400
vn -0.0523 0.0580 0.9969
vn -0.0523 0.0580 0.9969
vn -0.0523 0.0580 0.9969
vn -0.0523 0.0580 0.9969
vn -0.0000 -0.7071 0.7071
vn -0.0000 -0.7071 0.7071
vn -0.0000 -0.7071 0.7071
vn -0.0000 -0.7071 0.7071
vn -0.0000 0.7071 0.7071
vn -0.0000 0.7071 0.7071
vn -0.0000 0.7071 0.7071
vn -0.0000 0.7071 0.7071
vn -0.0447 0.9227 0.3828
vn -0.0447 0.9227 0.3828
vn -0.0447 0.9227 0.3828
vn -0.0447 0.9227 0.3828
vn 0.7427 -0.6684 0.0389
vn 0.7427 -0.6684 0.0389
vn 0.7427 -0.6684 0.0389
vn 0.7427 -0.6684 0.0389
vn -0.6069 -0.2900 -0.7400
vn -0.6069 -0.2900 -0.7400
vn -0.6069 -0.2900 -0.7400
vn -0.6069 -0.2900 -0.7400
vn -0.0523 0.0580 0.9969
vn -0.0523 0.0580 0.9969
vn -0.0523 0.0580 0.9969
vn -0.0523 0.0580 0.9969
vn -0.0000 -0.7071 0.7071
vn -0.0000 -0.7071 0.7071
vn -0.0000 -0.7071 0.7071
vn -0.0000 -0.7071 0.7071
vn -0.0000 0.7071 0.7071
vn -0.0000 0.7071 0.7071
vn -0.0000 0.7071 0.7071
vn -0.0000 0.7071 0.7071
vn -0.0273 0.9279 0.3719
vn -0.0273 0.9279 0.3719
vn -0.0273 0.9279 0.3719
vn -0.0273 0.9279 0.3719
vn 0.7252 -0.6882 0.0190
vn 0.7252 -0.6882 0.0190
vn 0.7252 -0.6882 0.0190
vn 0.7252 -0.6882 0.0190
vn -0.6291 -0.2832 -0.7239
vn -0.6291 -0.2832 -0.7239
vn -0.6291 -0.2832 -0.7239
vn -0.6291 -0.2832 -0.7239
vn -0.0262 0.0276 0.9993
vn -0.0262 0.0276 0.9993
vn -0.0262 0.0276 0.9993
vn -0.0262 0.0276 0.9993
vn -0.0000 -0.7071 0.7071
vn -0.0000 -0.7071 0.7071
vn -0.0000 -0.7071 0.7071
vn -0.0000 -0.7071 0.7071
vn -0.0000 0.7071 0.7071
vn -0.0000 0.7071 0.7071
vn -0.0000 0.7071 0.7071
vn -0.0000 0.7071 0.7071
vn -0.0273 0.9279 0.3719
vn -0.0273 0.9279 0.3719
vn -0.0273 0.9279 0.3719
vn -0.0273 0.9279 0.3719
vn 0.7252 -0.6882 0.0190
vn 0.7252 -0.6882 0.0190
vn 0.7252 -0.6882 0.0190
vn 0.7252 -0.6882 0.0190
vn -0.6291 -0.2832 -0.7239
vn -0.6291 -0.2832 -0.7239
vn -0.6291 -0.2832 -0.7239
vn -0.6291 -0.2832 -0.7239
vn -0.0262 0.0276 0.9993
vn -0.0262 0.0276 0.9993
vn -0.0262 0.0276 0.9993
vn -0.0262 0.0276 0.9993
vn -0.0000 -0.7071 0.7071
vn -0.0000 -0.7071 0.7071
vn -0.0000 -0.7071 0.7071
vn -0.0000 -0.7071 0.7071
vn -0.0000 0.7071 0.7071
vn -0.0000 0.7071 0.7071
vn -0.0000 0.7071 0.7071
vn -0.0000 0.7071 0.7071
vn -0.0273 0.9279 0.3719
vn -0.0273 0.9279 0.3719
vn -0.0273 0.9279 0.3719
vn -0.0273 0.9279 0.3719
vn 0.7252 -0.6882 0.0190
vn 0.7252 -0.6882 0.0190
vn 0.7252 -0.6882 0.0190
vn 0.7252 -0.6882 0.0190
vn -0.6291 -0.2832 -0.7239
vn -0.6291 -0.2832 -0.7239
vn -0.6291 -0.2832 -0.7239
vn -0.6291 -0.2832 -0.7239
vn -0.0262 0.0276 0.9993
vn -0.0262 0.0276 0.9993
vn -0.0262 0.0276 0.9993
vn -0.0262 0.0276 0.9993
vn -0.0000 -0.7071 0.7071
vn -0.0000 -0.7071 0.7071
vn -0.0000 -0.7071 0.7071
vn -0.0000 -0.7071 0.7071
vn -0.0000 0.7071 0.7071
vn -0.0000 0.7071 0.7071
vn -0.0000 0.7071 0.7071
vn -0.0000 0.7071 0.7071
vn -0.0273 0.9279 0.3719
vn -0.0273 0.9279 0.3719
vn -0.0273 0.9279 0.3719
vn -0.0273 0.9279 0.3719
vn 0.7252 -0.6882 0.0190
vn 0.7252 -0.6882 0.0190
vn 0.7252 -0.6882 0.0190
vn 0.7252 -0.6882 0.0190
vn -0.6291 -0.2832 -0.7239
vn -0.6291 -0.2832 -0.7239
vn -0.6291 -0.2832 -0.7239
vn -0.6291 -0.2832 -0.7239
vn -0.0262 0.0276 0.9993
vn -0.0262 0.0276 0.9993
vn -0.0262 0.0276 0.9993
vn -0.0262 0.0276 0.9993
vn -0.0000 -0.7071 0.7071
vn -0.0000 -0.7071 0.7071
vn -0.0000 -0.7071 0.7071
vn -0.0000 -0.7071 0.7071
vn -0.0000 0.7071 0.7071
vn -0.0000 0.7071 0.7071
vn -0.0000 0.7071 0.7071
vn -0.0000 0.7071 0.7071
vn -0.0273 0.9279 0.3719
vn -0.0273 0.9279 0.3719
vn -0.0273 0.9279 0.3719
vn -0.0273 0.9279 0.3719
vn 0.7252 -0.6882 0.0190
vn 0.7252 -0.6882 0.0190
vn 0.7252 -0.6882 0.0190
vn 0.7252 -0.6882 0.0190
vn -0.6291 -0.2832 -0.7239
vn -0.6291 -0.2832 -0.7239
vn -0.6291 -0.2832 -0.7239
vn -0.6291 -0.2832 -0.7239
vn -0.0262 0.0276 0.9993
vn -0.0262 0.0276 0.9993
vn -0.0262 0.0276 0.9993
vn -0.0262 0.0276 0.9993
vn -0.0000 -0.7071 0.7071
vn -0.0000 -0.7071 0.7071
vn -0.0000 -0.7071 0.7071
vn -0.0000 -0.7071 0.7071
vn -0.0000 0.7071 0.7071
vn -0.0000 0.7071 0.7071
vn -0.0000 0.7071 0.7071
vn -0.0000 0.7071 0.7071
vn -0.0273 0.9279 0.3719
vn -0.0273 0.9279 0.3719
vn -0.0273 0.9279 0.3719
vn -0.0273 0.9279 0.3719
vn 0.7252 -0.6882 0.0190
vn 0.7252 -0.6882 0.0190
vn 0.7252 -0.6882 0.0190
vn 0.7252 -0.6882 0.0190
vn -0.6291 -0.2832 -0.7239
vn -0.6291 -0.2832 -0.7239
vn -0.6291 -0.2832 -0.7239
vn -0.6291 -0.2832 -0.7239
vn -0.0262 0.0276 0.9993
vn -0.0262 0.0276 0.9993
vn -0.0262 0.0276 0.9993
vn -0.0262 0.0276 0.9993
vn -0.0000 -0.7071 0.7071
vn -0.0000 -0.7071 0.7071
vn -0.0000 -0.7071 0.7071
vn -0.0000 -0.7071 0.7071
vn -0.0000 0.7071 0.7071
vn -0.0000 0.7071 0.7071
vn -0.0000 0.7071 0.7071
vn -0.0000 0.7071 0.7071
f 385//385 387//387 386//386
f 385//385 386//386 388//388
f 389//389 391//391 390//390
f 389//389 390//390 392//392
f 393//393 395//395 394//394
f 393//393 394//394 396//396
f 397//397 399//399 398//398
f 397//397 398//398 400//400
f 401//401 403//403 402//402
f 401//401 402//402 404//404
f 405//405 407//407 406//406
f 405//405 406//406 408//408
f 409//409 411//411 410//410
f 409//409 410//410 412//412
f 413//413 415//415 414//414
f 413//413 414//414 416//416
f 417//417 419//419 418//418
f 417//417 418//418 420//420
f 421//421 423//423 422//422
f 421//421 422//422 424//424
f 425//425 427//427 426//426
f 425//425 426//426 428//428
f 429//429 431//431 430//430
f 429//429 430//430 432//432
f 433//433 435//435 434//434
f 433//433 434//434 436//436
f 437//437 439//439 438//438
f 437//437 438//438 440//440
f 441//441 443//443 442//442
f 441//441 442//442 444//444
f 445//445 447//447 446//446
f 445//445 446//446 448//448
f 449//449 451//451 450//450
f 449//449 450//450 452//452
f 453//453 455//455 454//454
f 453//453 454//454 456//456
f 457//457 459//459 458//458
f 457//457 458//458 460//460
f 461//461 463//463 462//462
f 461//461 462//462 464//464
f 465//465 467//467 466//466
f 465//465 466//466 468//468
f 469//469 471//471 470//470
f 469//469 470//470 472//472
f 473//473 475//475 474//474
f 473//473 474//474 476//476
f 477//477 479//479 478//478
f 477//477 478//478 480//480
f 481//481 483//483 482//482
f 481//481 482//482 484//484
f 485//485 487//487 486//486
f 485//485 486//486 488//488
f 489//489 491//491 490//490
f 489//489 490//490 492//492
f 493//493 495//495 494//494
f 493//493 494//494 496//496
f 497//497 499//499 498//498
f 497//497 498//498 500//500
f 501//501 503//503 502//502
f 501//501 502//502 504//504
f 505//505 507//507 506//506
f 505//505 506//506 508//508
f 509//509 511//511 510//510
f 509//509 510//510 512//512
f 513//513 515//515 514//514
f 513//513 514//514 516//516
f 517//517 519//519 518//518
f 517//517 518//518 520//520
f 521//521 523//523 522//522
f 521//521 522//522 524//524
f 525//525 527//527 526//526
f 525//525 526//526 528//528
f 673//673 675//675 674//674
f 673//673 674//674 676//676
f 677//677 679//679 678//678
f 677//677 678//678 680//680
f 681//681 683//683 682//682
f 681//681 682//682 684//684
f 685//685 687//687 686//686
f 685//685 686//686 688//688
f 689//689 691//691 690//690
f 689//689 690//690 692//692
f 693//693 695//695 694//694
f 693//693 694//694 696//696
f 697//697 699//699 698//698
f 697//697 698//698 700//700
f 701//701 703//703 702//702
f 701//701 702//702 704//704
f 705//705 707//707 706//706
f 705//705 706//706 708//708
f 709//709 711//711 710//710
f 709//709 710//710 712//712
f 713//713 715//715 714//714
f 713//713 714//714 716//716
f 717//717 719//719 718//718
f 717//717 718//718 720//720
f 721//721 723//723 722//722
f 721//721 722//722 724//724
f 725//725 727//727 726//726
f 725//725 726//726 728//728
f 729//729 731//731 730//730
f 729//729 730//730 732//732
f 733//733 735//735 734//734
f 733//733 734//734 736//736
f 737//737 739//739 738//738
f 737//737 738//738 740//740
f 741//741 743//743 742//742
f 741//741 742//742 744//744
f 745//745 747//747 746//746
f 745//745 746//746 748//748
f 749//749 751//751 750//750
f 749//749 750//750 752//752
f 753//753 755//755 754//754
f 753//753 754//754 756//756
f 757//757 759//759 758//758
f 757//757 758//758 760//760
f 761//761 763//763 762//762
f 761//761 762//762 764//764
f 765//765 767//767 766//766
f 765//765 766//766 768//768
f 769//769 771//771 770//770
f 769//769 770//770 772//772
f 773//773 775//775 774//774
f 773//773 774//774 776//776
f 777//777 779//779 778//778
f 777//777 778//778 780//780
f 781//781 783//783 782//782
f 781//781 782//782 784//784
f 785//785 787//787 786//786
f 785//785 786//786 788//788
f 789//789 791//791 790//790
f 789//789 790//790 792//792
f 793//793 795//795 794//794
f 793//793 794//794 796//796
f 797//797 799//799 798//798
f 797//797 798//798 800//800
f 801//801 803//803 802//802
f 801//801 802//802 804//804
f 805//805 807//807 806//806
f 805//805 806//806 808//808
f 809//809 811//811 810//810
f 809//809 810//810 812//812
f 813//813 815//815 814//814
f 813//813 814//814 816//816
f 529//529 531//531 530//530
f 529//529 530//530 532//532
f 533//533 535//535 534//534
f 533//533 534//534 536//536
f 537//537 539//539 538//538
f 537//537 538//538 540//540
f 541//541 543//543 542//542
f 541//541 542//542 544//544
f 545//545 547//547 546//546
f 545//545 546//546 548//548
f 549//549 551//551 550//550
f 549//549 550//550 552//552
f 553//553 555//555 554//554
f 553//553 554//554 556//556
f 557//557 559//559 558//558
f 557//557 558//558 560//560
f 561//561 563//563 562//562
f 561//561 562//562 564//564
f 565//565 567//567 566//566
f 565//565 566//566 568//568
f 569//569 571//571 570//570
f 569//569 570//570 572//572
f 573//573 575//575 574//574
f 573//573 574//574 576//576
f 577//577 579//579 578//578
f 577//577 578//578 580//580
f 581//581 583//583 582//582
f 581//581 582//582 584//584
f 585//585 587//587 586//586
f 585//585 586//586 588//588
f 589//589 591//591 590//590
f 589//589 590//590 592//592
f 593//593 595//595 594//594
f 593//593 594//594 596//596
f 597//597 599//599 598//598
f 597//597 598//598 600//600
f 601//601 603//603 602//602
f 601//601 602//602 604//604
f 605//605 607//607 606//606
f 605//605 606//606 608//608
f 609//609 611//611 610//610
f 609//609 610//610 612//612
f 613//613 615//615 614//614
f 613//613 614//614 616//616
f 617//617 619//619 618//618
f 617//617 618//618 620//620
f 621//621 623//623 622//622
f 621//621 622//622 624//624
f 625//625 627//627 626//626
f 625//625 626//626 628//628
f 629//629 631//631 630//630
f 629//629 630//630 632//632
f 633//633 635//635 634//634
f 633//633 634//634 636//636
f 637//637 639//639 638//638
f 637//637 638//638 640//640
f 641//641 643//643 642//642
f 641//641 642//642 644//644
f 645//645 647//647 646//646
f 645//645 646//646 648//648
f 649//649 651//651 650//650
f 649//649 650//650 652//652
f 653//653 655//655 654//654
f 653//653 654//654 656//656
f 657//657 659//659 658//658
f 657//657 658//658 660//660
f 661//661 663//663 662//662
f 661//661 662//662 664//664
f 665//665 667//667 666//666
f 665//665 666//666 668//668
f 669//669 671//671 670//670
f 669//669 670//670 672//672
f 817//817 819//819 818//818
f 817//817 818//818 820//820
f 821//821 823//823 822//822
f 821//821 822//822 824//824
f 825//825 827//827 826//826
f 825//825 826//826 828//828
f 829//829 831//831 830//830
f 829//829 830//830 832//832
f 833//833 835//835 834//834
f 833//833 834//834 836//836
f 837//837 839//839 838//838
f 837//837 838//838 840//840
f 841//841 843//843 842//842
f 841//841 842//842 844//844
f 845//845 847//847 846//846
f 845//845 846//846 848//848
f 849//849 851//851 850//850
f 849//849 850//850 852//852
f 853//853 855//855 854//854
f 853//853 854//854 856//856
f 857//857 859//859 858//858
f 857//857 858//858 860//860
f 861//861 863//863 862//862
f 861//861 862//862 864//864
f 865//865 867//867 866//866
f 865//865 866//866 868//868
f 869//869 871//871 870//870
f 869//869 870//870 872//872
f 873//873 875//875 874//874
f 873//873 874//874 876//876
f 877//877 879//879 878//878
f 877//877 878//878 880//880
f 881//881 883//883 882//882
f 881//881 882//882 884//884
f 885//885 887//887 886//886
f 885//885 886//886 888//888
f 889//889 891//891 890//890
f 889//889 890//890 892//892
f 893//893 895//895 894//894
f 893//893 894//894 896//896
f 897//897 899//899 898//898
f 897//897 898//898 900//900
f 901//901 903//903 902//902
f 901//901 902//902 904//904
f 905//905 907//907 906//906
f 905//905 906//906 908//908
f 909//909 911//911 910//910
f 909//909 910//910 912//912
f 913//913 915//915 914//914
f 913//913 914//914 916//916
f 917//917 919//919 918//918
f 917//917 918//918 920//920
f 921//921 923//923 922//922
f 921//921 922//922 924//924
f 925//925 927//927 926//926
f 925//925 926//926 928//928
f 929//929 931//931 930//930
f 929//929 930//930 932//932
f 933//933 935//935 934//934
f 933//933 934//934 936//936
f 937//937 939//939 938//938
f 937//937 938//938 940//940
f 941//941 943//943 942//942
f 941//941 942//942 944//944
f 945//945 947//947 946//946
f 945//945 946//946 948//948
f 949//949 951//951 950//950
f 949//949 950//950 952//952
f 953//953 955//955 954//954
f 953//953 954//954 956//956
f 957//957 959//959 958//958
f 957//957 958//958 960//960
g core_hay
usemtl hay
v -0.00000 0.00000 -0.05000
v 0.02828 0.06000 -0.02828
v -0.00000 0.06000 -0.04000
v 0.03535 0.00000 -0.03536
v 0.03535 0.00000 -0.03536
v 0.04000 0.06000 -0.00000
v 0.02828 0.06000 -0.02828
v 0.05000 0.00000 -0.00000
v 0.05000 0.00000 -0.00000
v 0.02828 0.06000 0.02828
v 0.04000 0.06000 -0.00000
v 0.03535 0.00000 0.03535
v 0.03535 0.00000 0.03535
v -0.00000 0.06000 0.04000
v 0.02828 0.06000 0.02828
v -0.00000 0.00000 0.05000
v -0.00000 0.00000 0.05000
v -0.02828 0.06000 0.02828
v -0.00000 0.06000 0.04000
v -0.03536 0.00000 0.03535
v -0.03536 0.00000 0.03535
v -0.04000 0.06000 -0.00000
v -0.02828 0.06000 0.02828
v -0.05000 0.00000 -0.00000
v 0.04000 0.06000 -0.00000
v -0.00000 0.06000 -0.04000
v 0.02828 0.06000 -0.02828
v -0.04000 0.06000 -0.00000
v -0.02828 0.06000 -0.02828
v -0.00000 0.06000 0.04000
v 0.02828 0.06000 0.02828
v -0.02828 0.06000 0.02828
v -0.05000 0.00000 -0.00000
v -0.02828 0.06000 -0.02828
v -0.04000 0.06000 -0.00000
v -0.03536 0.00000 -0.03536
v -0.03536 0.00000 -0.03536
v -0.00000 0.06000 -0.04000
v -0.02828 0.06000 -0.02828
v -0.00000 0.00000 -0.05000
v -0.03536 0.00000 -0.03536
v 0.03535 0.00000 -0.03536
v -0.00000 0.00000 -0.05000
v 0.03535 0.00000 0.03535
v 0.05000 0.00000 -0.00000
v -0.03536 0.00000 0.03535
v -0.05000 0.00000 -0.00000
v -0.00000 0.00000 0.05000
v -0.00000 0.06000 -0.00000
v 0.02970 0.06000 -0.02970
v -0.00000 0.06000 -0.04200
v 0.04200 0.06000 -0.00000
v -0.02970 0.06000 -0.02970
v 0.02970 0.06000 0.02970
v -0.04200 0.06000 -0.00000
v -0.00000 0.06000 0.04200
v -0.02970 0.06000 0.02970
v -0.00000 0.06000 -0.04200
v 0.02970 0.06000 -0.02970
v -0.00000 0.11000 -0.00000
v 0.02970 0.06000 -0.02970
v 0.04200 0.06000 -0.00000
v -0.00000 0.11000 -0.00000
v 0.04200 0.06000 -0.00000
v 0.02970 0.06000 0.02970
v -0.00000 0.11000 -0.00000
v 0.02970 0.06000 0.02970
v -0.00000 0.06000 0.04200
v -0.00000 0.11000 -0.00000
v -0.00000 0.06000 0.04200
v -0.02970 0.06000 0.02970
v -0.00000 0.11000 -0.00000
v -0.02970 0.06000 0.02970
v -0.04200 0.06000 -0.00000
v -0.00000 0.11000 -0.00000
v -0.04200 0.06000 -0.00000
v -0.02970 0.06000 -0.02970
v -0.00000 0.11000 -0.00000
v -0.02970 0.06000 -0.02970
v -0.00000 0.06000 -0.04200
v -0.00000 0.11000 -0.00000
vn 0.8260 -0.5509 0.1195
vn 0.8260 -0.5509 0.1195
vn 0.8260 -0.5509 0.1195
vn 0.8260 -0.5509 0.1195
vn 0.8309 0.0405 0.5550
vn 0.8309 0.0405 0.5550
vn 0.8309 0.0405 0.5550
vn 0.8309 0.0405 0.5550
vn 0.5546 0.0623 0.8298
vn 0.5546 0.0623 0.8298
vn 0.5546 0.0623 0.8298
vn 0.5546 0.0623 0.8298
vn 0.2383 -0.0381 0.9705
vn 0.2383 -0.0381 0.9705
vn 0.2383 -0.0381 0.9705
vn 0.2383 -0.0381 0.9705
vn -0.0735 0.3504 0.9337
vn -0.0735 0.3504 0.9337
vn -0.0735 0.3504 0.9337
vn -0.0735 0.3504 0.9337
vn -0.0310 0.9594 0.2804
vn -0.0310 0.9594 0.2804
vn -0.0310 0.9594 0.2804
vn -0.0310 0.9594 0.2804
vn -0.0000 0.7071 0.7071
vn -0.0000 0.7071 0.7071
vn -0.0000 0.7071 0.7071
vn -0.0000 0.7071 0.7071
vn -0.0000 0.7071 0.7071
vn -0.0000 0.7071 0.7071
vn -0.0000 0.7071 0.7071
vn -0.0000 0.7071 0.7071
vn -0.1074 0.9779 0.1792
vn -0.1074 0.9779 0.1792
vn -0.1074 0.9779 0.1792
vn -0.1074 0.9779 0.1792
vn -0.5471 0.8189 0.1733
vn -0.5471 0.8189 0.1733
vn -0.5471 0.8189 0.1733
vn -0.5471 0.8189 0.1733
vn -0.0000 -0.7071 0.7071
vn -0.0000 -0.7071 0.7071
vn -0.0000 -0.7071 0.7071
vn -0.0000 -0.7071 0.7071
vn -0.0000 -0.7071 0.7071
vn -0.0000 -0.7071 0.7071
vn -0.0000 -0.7071 0.7071
vn -0.0000 -0.7071 0.7071
vn -0.0000 -0.7071 0.7071
vn -0.0000 -0.7071 0.7071
vn -0.0000 -0.7071 0.7071
vn -0.0000 -0.7071 0.7071
vn -0.0000 -0.7071 0.7071
vn -0.0000 -0.7071 0.7071
vn -0.0000 -0.7071 0.7071
vn -0.0000 -0.7071 0.7071
vn -0.0000 -0.7071 0.7071
vn 0.5288 -0.8248 -0.1999
vn 0.5288 -0.8248 -0.1999
vn 0.5288 -0.8248 -0.1999
vn -0.5920 -0.5488 -0.5902
vn -0.5920 -0.5488 -0.5902
vn -0.5920 -0.5488 -0.5902
vn -0.4488 -0.3840 -0.8069
vn -0.4488 -0.3840 -0.8069
vn -0.4488 -0.3840 -0.8069
vn 0.2736 0.2716 0.9227
vn 0.2736 0.2716 0.9227
vn 0.2736 0.2716 0.9227
vn 0.1377 0.4554 0.8796
vn 0.1377 0.4554 0.8796
vn 0.1377 0.4554 0.8796
vn 0.0390 0.7705 0.6363
vn 0.0390 0.7705 0.6363
vn 0.0390 0.7705 0.6363
vn -0.1898 0.8430 0.5033
vn -0.1898 0.8430 0.5033
vn -0.1898 0.8430 0.5033
vn 0.4486 -0.8148 -0.3672
vn 0.4486 -0.8148 -0.3672
vn 0.4486 -0.8148 -0.3672
f 961//961 963//963 962//962
f 961//961 962//962 964//964
f 965//965 967//967 966//966
f 965//965 966//966 968//968
f 969//969 971//971 970//970
f 969//969 970//970 972//972
f 973//973 975//975 974//974
f 973//973 974//974 976//976
f 977//977 979//979 978//978
f 977//977 978//978 980//980
f 981//981 983//983 982//982
f 981//981 982//982 984//984
f 985//985 987//987 986//986
f 985//985 986//986 988//988
f 986//986 989//989 988//988
f 988//988 990//990 985//985
f 990//990 991//991 985//985
f 988//988 992//992 990//990
f 993//993 995//995 994//994
f 993//993 994//994 996//996
f 997//997 999//999 998//998
f 997//997 998//998 1000//1000
f 1001//1001 1003//1003 1002//1002
f 1001//1001 1002//1002 1004//1004
f 1002//1002 1005//1005 1004//1004
f 1004//1004 1006//1006 1001//1001
f 1006//1006 1007//1007 1001//1001
f 1004//1004 1008//1008 1006//1006
f 1009//1009 1011//1011 1010//1010
f 1009//1009 1010//1010 1012//1012
f 1009//1009 1013//1013 1011//1011
f 1009//1009 1012//1012 1014//1014
f 1009//1009 1015//1015 1013//1013
f 1009//1009 1014//1014 1016//1016
f 1009//1009 1017//1017 1015//1015
f 1009//1009 1016//1016 1017//1017
f 1018//1018 1020//1020 1019//1019
f 1021//1021 1023//1023 1022//1022
f 1024//1024 1026//1026 1025//1025
f 1027//1027 1029//1029 1028//1028
f 1030//1030 1032//1032 1031//1031
f 1033//1033 1035//1035 1034//1034
f 1036//1036 1038//1038 1037//1037
f 1039//1039 1041//1041 1040//1040
g core_wood
usemtl wood
v -0.52018 0.02750 0.02400
v -0.30018 0.03550 0.03400
v -0.30018 0.02750 0.03400
v -0.52018 0.03550 0.02400
v -0.52018 0.03550 0.02400
v -0.29982 0.03550 0.02600
v -0.30018 0.03550 0.03400
v -0.51982 0.03550 0.01600
v -0.51982 0.03550 0.01600
v -0.29982 0.02750 0.02600
v -0.29982 0.03550 0.02600
v -0.51982 0.02750 0.01600
v -0.51982 0.02750 0.01600
v -0.30018 0.02750 0.03400
v -0.29982 0.02750 0.02600
v -0.52018 0.02750 0.02400
v -0.52018 0.03550 0.02400
v -0.51982 0.02750 0.01600
v -0.51982 0.03550 0.01600
v -0.52018 0.02750 0.02400
v -0.29982 0.03550 0.02600
v -0.30018 0.02750 0.03400
v -0.30018 0.03550 0.03400
v -0.29982 0.02750 0.02600
v -0.52018 0.01175 0.02400
v -0.30018 0.01975 0.03400
v -0.30018 0.01175 0.03400
v -0.52018 0.01975 0.02400
v -0.52018 0.01975 0.02400
v -0.29982 0.01975 0.02600
v -0.30018 0.01975 0.03400
v -0.51982 0.01975 0.01600
v -0.51982 0.01975 0.01600
v -0.29982 0.01175 0.02600
v -0.29982 0.01975 0.02600
v -0.51982 0.01175 0.01600
v -0.51982 0.01175 0.01600
v -0.30018 0.01175 0.03400
v -0.29982 0.01175 0.02600
v -0.52018 0.01175 0.02400
v -0.52018 0.01975 0.02400
v -0.51982 0.01175 0.01600
v -0.51982 0.01975 0.01600
v -0.52018 0.01175 0.02400
v -0.29982 0.01975 0.02600
v -0.30018 0.01175 0.03400
v -0.30018 0.01975 0.03400
v -0.29982 0.01175 0.02600
v -0.29964 0.02750 0.03398
v -0.07964 0.03550 0.01398
v -0.07964 0.02750 0.01398
v -0.29964 0.03550 0.03398
v -0.29964 0.03550 0.03398
v -0.08037 0.03550 0.00602
v -0.07964 0.03550 0.01398
v -0.30036 0.03550 0.02602
v -0.30036 0.03550 0.02602
v -0.08037 0.02750 0.00602
v -0.08037 0.03550 0.00602
v -0.30036 0.02750 0.02602
v -0.30036 0.02750 0.02602
v -0.07964 0.02750 0.01398
v -0.08037 0.02750 0.00602
v -0.29964 0.02750 0.03398
v -0.29964 0.03550 0.03398
v -0.30036 0.02750 0.02602
v -0.30036 0.03550 0.02602
v -0.29964 0.02750 0.03398
v -0.08037 0.03550 0.00602
v -0.07964 0.02750 0.01398
v -0.07964 0.03550 0.01398
v -0.08037 0.02750 0.00602
v -0.29964 0.01175 0.03398
v -0.07964 0.01975 0.01398
v -0.07964 0.01175 0.01398
v -0.29964 0.01975 0.03398
v -0.29964 0.01975 0.03398
v -0.08037 0.01975 0.00602
v -0.07964 0.01975 0.01398
v -0.30036 0.01975 0.02602
v -0.30036 0.01975 0.02602
v -0.08037 0.01175 0.00602
v -0.08037 0.01975 0.00602
v -0.30036 0.01175 0.02602
v -0.30036 0.01175 0.02602
v -0.07964 0.01175 0.01398
v -0.08037 0.01175 0.00602
v -0.29964 0.01175 0.03398
v -0.29964 0.01975 0.03398
v -0.30036 0.01175 0.02602
v -0.30036 0.01975 0.02602
v -0.29964 0.01175 0.03398
v -0.08037 0.01975 0.00602
v -0.07964 0.01175 0.01398
v -0.07964 0.01975 0.01398
v -0.08037 0.01175 0.00602
v -0.52000 0.00000 0.01200
v -0.51240 0.04500 0.01753
v -0.52000 0.04500 0.01200
v -0.51240 0.00000 0.01753
v -0.51240 0.00000 0.01753
v -0.51530 0.04500 0.02647
v -0.51240 0.04500 0.01753
v -0.51530 0.00000 0.02647
v -0.51530 0.00000 0.02647
v -0.52470 0.04500 0.02647
v -0.51530 0.04500 0.02647
v -0.52470 0.00000 0.02647
v -0.51530 0.04500 0.02647
v -0.52000 0.04500 0.01200
v -0.51240 0.04500 0.01753
v -0.52470 0.04500 0.02647
v -0.52761 0.04500 0.01753
v -0.52470 0.00000 0.02647
v -0.52761 0.04500 0.01753
v -0.52470 0.04500 0.02647
v -0.52761 0.00000 0.01753
v -0.52761 0.00000 0.01753
v -0.52000 0.04500 0.01200
v -0.52761 0.04500 0.01753
v -0.52000 0.00000 0.01200
v -0.52761 0.00000 0.01753
v -0.51240 0.00000 0.01753
v -0.52000 0.00000 0.01200
v -0.52470 0.00000 0.02647
v -0.51530 0.00000 0.02647
v -0.30000 0.00000 0.02200
v -0.29240 0.04500 0.02753
v -0.30000 0.04500 0.02200
v -0.29240 0.00000 0.02753
v -0.29240 0.00000 0.02753
v -0.29530 0.04500 0.03647
v -0.29240 0.04500 0.02753
v -0.29530 0.00000 0.03647
v -0.29530 0.00000 0.03647
v -0.30471 0.04500 0.03647
v -0.29530 0.04500 0.03647
v -0.30471 0.00000 0.03647
v -0.29530 0.04500 0.03647
v -0.30000 0.04500 0.02200
v -0.29240 0.04500 0.02753
v -0.30471 0.04500 0.03647
v -0.30761 0.04500 0.02753
v -0.30471 0.00000 0.03647
v -0.30761 0.04500 0.02753
v -0.30471 0.04500 0.03647
v -0.30761 0.00000 0.02753
v -0.30761 0.00000 0.02753
v -0.30000 0.04500 0.02200
v -0.30761 0.04500 0.02753
v -0.30000 0.00000 0.02200
v -0.30761 0.00000 0.02753
v -0.29240 0.00000 0.02753
v -0.30000 0.00000 0.02200
v -0.30471 0.00000 0.03647
v -0.29530 0.00000 0.03647
v -0.08000 0.00000 0.00200
v -0.07239 0.04500 0.00753
v -0.08000 0.04500 0.00200
v -0.07239 0.00000 0.00753
v -0.07239 0.00000 0.00753
v -0.07530 0.04500 0.01647
v -0.07239 0.04500 0.00753
v -0.07530 0.00000 0.01647
v -0.07530 0.00000 0.01647
v -0.08471 0.04500 0.01647
v -0.07530 0.04500 0.01647
v -0.08471 0.00000 0.01647
v -0.07530 0.04500 0.01647
v -0.08000 0.04500 0.00200
v -0.07239 0.04500 0.00753
v -0.08471 0.04500 0.01647
v -0.08761 0.04500 0.00753
v -0.08471 0.00000 0.01647
v -0.08761 0.04500 0.00753
v -0.08471 0.04500 0.01647
v -0.08761 0.00000 0.00753
v -0.08761 0.00000 0.00753
v -0.08000 0.04500 0.00200
v -0.08761 0.04500 0.00753
v -0.08000 0.00000 0.00200
v -0.08761 0.00000 0.00753
v -0.07239 0.00000 0.00753
v -0.08000 0.00000 0.00200
v -0.08471 0.00000 0.01647
v -0.07530 0.00000 0.01647
vn -0.0227 0.0237 0.9995
vn -0.0227 0.0237 0.9995
vn -0.0227 0.0237 0.9995
vn -0.0227 0.0237 0.9995
vn -0.0000 0.7071 0.7071
vn -0.0000 0.7071 0.7071
vn -0.0000 0.7071 0.7071
vn -0.0000 0.7071 0.7071
vn 0.7229 -0.6908 0.0164
vn 0.7229 -0.6908 0.0164
vn 0.7229 -0.6908 0.0164
vn 0.7229 -0.6908 0.0164
vn -0.0000 -0.7071 0.7071
vn -0.0000 -0.7071 0.7071
vn -0.0000 -0.7071 0.7071
vn -0.0000 -0.7071 0.7071
vn -0.0011 1.0000 0.0010
vn -0.0011 1.0000 0.0010
vn -0.0011 1.0000 0.0010
vn -0.0011 1.0000 0.0010
vn 0.6909 -0.0008 0.7230
vn 0.6909 -0.0008 0.7230
vn 0.6909 -0.0008 0.7230
vn 0.6909 -0.0008 0.7230
vn -0.0227 0.0237 0.9995
vn -0.0227 0.0237 0.9995
vn -0.0227 0.0237 0.9995
vn -0.0227 0.0237 0.9995
vn -0.0000 0.7071 0.7071
vn -0.0000 0.7071 0.7071
vn -0.0000 0.7071 0.7071
vn -0.0000 0.7071 0.7071
vn 0.7229 -0.6908 0.0164
vn 0.7229 -0.6908 0.0164
vn 0.7229 -0.6908 0.0164
vn 0.7229 -0.6908 0.0164
vn -0.0000 -0.7071 0.7071
vn -0.0000 -0.7071 0.7071
vn -0.0000 -0.7071 0.7071
vn -0.0000 -0.7071 0.7071
vn -0.0011 1.0000 0.0010
vn -0.0011 1.0000 0.0010
vn -0.0011 1.0000 0.0010
vn -0.0011 1.0000 0.0010
vn 0.6909 -0.0008 0.7230
vn 0.6909 -0.0008 0.7230
vn 0.6909 -0.0008 0.7230
vn 0.6909 -0.0008 0.7230
vn 0.0452 -0.0413 0.9981
vn 0.0452 -0.0413 0.9981
vn 0.0452 -0.0413 0.9981
vn 0.0452 -0.0413 0.9981
vn -0.0000 0.7071 0.7071
vn -0.0000 0.7071 0.7071
vn -0.0000 0.7071 0.7071
vn -0.0000 0.7071 0.7071
vn -0.6739 0.7382 0.0305
vn -0.6739 0.7382 0.0305
vn -0.6739 0.7382 0.0305
vn -0.6739 0.7382 0.0305
vn -0.0000 -0.7071 0.7071
vn -0.0000 -0.7071 0.7071
vn -0.0000 -0.7071 0.7071
vn -0.0000 -0.7071 0.7071
vn -0.0041 1.0000 0.0045
vn -0.0041 1.0000 0.0045
vn -0.0041 1.0000 0.0045
vn -0.0041 1.0000 0.0045
vn 0.7384 -0.0030 0.6744
vn 0.7384 -0.0030 0.6744
vn 0.7384 -0.0030 0.6744
vn 0.7384 -0.0030 0.6744
vn 0.0452 -0.0413 0.9981
vn 0.0452 -0.0413 0.9981
vn 0.0452 -0.0413 0.9981
vn 0.0452 -0.0413 0.9981
vn -0.0000 0.7071 0.7071
vn -0.0000 0.7071 0.7071
vn -0.0000 0.7071 0.7071
vn -0.0000 0.7071 0.7071
vn -0.6739 0.7382 0.0305
vn -0.6739 0.7382 0.0305
vn -0.6739 0.7382 0.0305
vn -0.6739 0.7382 0.0305
vn -0.0000 -0.7071 0.7071
vn -0.0000 -0.7071 0.7071
vn -0.0000 -0.7071 0.7071
vn -0.0000 -0.7071 0.7071
vn -0.0041 1.0000 0.0045
vn -0.0041 1.0000 0.0045
vn -0.0041 1.0000 0.0045
vn -0.0041 1.0000 0.0045
vn 0.7384 -0.0030 0.6744
vn 0.7384 -0.0030 0.6744
vn 0.7384 -0.0030 0.6744
vn 0.7384 -0.0030 0.6744
vn 0.8755 -0.3905 0.2845
vn 0.8755 -0.3905 0.2845
vn 0.8755 -0.3905 0.2845
vn 0.8755 -0.3905 0.2845
vn 0.5875 -0.0294 0.8087
vn 0.5875 -0.0294 0.8087
vn 0.5875 -0.0294 0.8087
vn 0.5875 -0.0294 0.8087
vn -0.0000 -0.0000 1.0000
vn -0.0000 -0.0000 1.0000
vn -0.0000 -0.0000 1.0000
vn -0.0000 -0.0000 1.0000
vn -0.0000 0.7071 0.7071
vn -0.0000 0.7071 0.7071
vn -0.0000 0.7071 0.7071
vn -0.0000 0.7071 0.7071
vn -0.0000 0.7071 0.7071
vn -0.0499 0.9964 0.0687
vn -0.0499 0.9964 0.0687
vn -0.0499 0.9964 0.0687
vn -0.0499 0.9964 0.0687
vn -0.4038 0.9054 0.1312
vn -0.4038 0.9054 0.1312
vn -0.4038 0.9054 0.1312
vn -0.4038 0.9054 0.1312
vn -0.0000 -0.7071 0.7071
vn -0.0000 -0.7071 0.7071
vn -0.0000 -0.7071 0.7071
vn -0.0000 -0.7071 0.7071
vn -0.0000 -0.7071 0.7071
vn 0.8755 -0.3905 0.2845
vn 0.8755 -0.3905 0.2845
vn 0.8755 -0.3905 0.2845
vn 0.8755 -0.3905 0.2845
vn 0.5875 -0.0294 0.8087
vn 0.5875 -0.0294 0.8087
vn 0.5875 -0.0294 0.8087
vn 0.5875 -0.0294 0.8087
vn -0.0000 -0.0000 1.0000
vn -0.0000 -0.0000 1.0000
vn -0.0000 -0.0000 1.0000
vn -0.0000 -0.0000 1.0000
vn -0.0000 0.7071 0.7071
vn -0.0000 0.7071 0.7071
vn -0.0000 0.7071 0.7071
vn -0.0000 0.7071 0.7071
vn -0.0000 0.7071 0.7071
vn -0.0499 0.9964 0.0687
vn -0.0499 0.9964 0.0687
vn -0.0499 0.9964 0.0687
vn -0.0499 0.9964 0.0687
vn -0.4038 0.9054 0.1312
vn -0.4038 0.9054 0.1312
vn -0.4038 0.9054 0.1312
vn -0.4038 0.9054 0.1312
vn -0.0000 -0.7071 0.7071
vn -0.0000 -0.7071 0.7071
vn -0.0000 -0.7071 0.7071
vn -0.0000 -0.7071 0.7071
vn -0.0000 -0.7071 0.7071
vn 0.8755 -0.3905 0.2845
vn 0.8755 -0.3905 0.2845
vn 0.8755 -0.3905 0.2845
vn 0.8755 -0.3905 0.2845
vn 0.5875 -0.0294 0.8087
vn 0.5875 -0.0294 0.8087
vn 0.5875 -0.0294 0.8087
vn 0.5875 -0.0294 0.8087
vn -0.0000 -0.0000 1.0000
vn -0.0000 -0.0000 1.0000
vn -0.0000 -0.0000 1.0000
vn -0.0000 -0.0000 1.0000
vn -0.0000 0.7071 0.7071
vn -0.0000 0.7071 0.7071
vn -0.0000 0.7071 0.7071
vn -0.0000 0.7071 0.7071
vn -0.0000 0.7071 0.7071
vn -0.0499 0.9964 0.0687
vn -0.0499 0.9964 0.0687
vn -0.0499 0.9964 0.0687
vn -0.0499 0.9964 0.0687
vn -0.4038 0.9054 0.1312
vn -0.4038 0.9054 0.1312
vn -0.4038 0.9054 0.1312
vn -0.4038 0.9054 0.1312
vn -0.0000 -0.7071 0.7071
vn -0.0000 -0.7071 0.7071
vn -0.0000 -0.7071 0.7071
vn -0.0000 -0.7071 0.7071
vn -0.0000 -0.7071 0.7071
f 1138//1138 1140//1140 1139//1139
f 1138//1138 1139//1139 1141//1141
f 1142//1142 1144//1144 1143//1143
f 1142//1142 1143//1143 1145//1145
f 1146//1146 1148//1148 1147//1147
f 1146//1146 1147//1147 1149//1149
f 1150//1150 1152//1152 1151//1151
f 1151//1151 1153//1153 1150//1150
f 1151//1151 1154//1154 1153//1153
f 1155//1155 1157//1157 1156//1156
f 1155//1155 1156//1156 1158//1158
f 1159//1159 1161//1161 1160//1160
f 1159//1159 1160//1160 1162//1162
f 1163//1163 1165//1165 1164//1164
f 1164//1164 1166//1166 1163//1163
f 1164//1164 1167//1167 1166//1166
f 1042//1042 1044//1044 1043//1043
f 1042//1042 1043//1043 1045//1045
f 1046//1046 1048//1048 1047//1047
f 1046//1046 1047//1047 1049//1049
f 1050//1050 1052//1052 1051//1051
f 1050//1050 1051//1051 1053//1053
f 1054//1054 1056//1056 1055//1055
f 1054//1054 1055//1055 1057//1057
f 1058//1058 1060//1060 1059//1059
f 1058//1058 1059//1059 1061//1061
f 1062//1062 1064//1064 1063//1063
f 1062//1062 1063//1063 1065//1065
f 1066//1066 1068//1068 1067//1067
f 1066//1066 1067//1067 1069//1069
f 1070//1070 1072//1072 1071//1071
f 1070//1070 1071//1071 1073//1073
f 1074//1074 1076//1076 1075//1075
f 1074//1074 1075//1075 1077//1077
f 1078//1078 1080//1080 1079//1079
f 1078//1078 1079//1079 1081//1081
f 1082//1082 1084//1084 1083//1083
f 1082//1082 1083//1083 1085//1085
f 1086//1086 1088//1088 1087//1087
f 1086//1086 1087//1087 1089//1089
f 1168//1168 1170//1170 1169//1169
f 1168//1168 1169//1169 1171//1171
f 1172//1172 1174//1174 1173//1173
f 1172//1172 1173//1173 1175//1175
f 1176//1176 1178//1178 1177//1177
f 1176//1176 1177//1177 1179//1179
f 1180//1180 1182//1182 1181//1181
f 1181//1181 1183//1183 1180//1180
f 1181//1181 1184//1184 1183//1183
f 1185//1185 1187//1187 1186//1186
f 1185//1185 1186//1186 1188//1188
f 1189//1189 1191//1191 1190//1190
f 1189//1189 1190//1190 1192//1192
f 1193//1193 1195//1195 1194//1194
f 1194//1194 1196//1196 1193//1193
f 1194//1194 1197//1197 1196//1196
f 1090//1090 1092//1092 1091//1091
f 1090//1090 1091//1091 1093//1093
f 1094//1094 1096//1096 1095//1095
f 1094//1094 1095//1095 1097//1097
f 1098//1098 1100//1100 1099//1099
f 1098//1098 1099//1099 1101//1101
f 1102//1102 1104//1104 1103//1103
f 1102//1102 1103//1103 1105//1105
f 1106//1106 1108//1108 1107//1107
f 1106//1106 1107//1107 1109//1109
f 1110//1110 1112//1112 1111//1111
f 1110//1110 1111//1111 1113//1113
f 1114//1114 1116//1116 1115//1115
f 1114//1114 1115//1115 1117//1117
f 1118//1118 1120//1120 1119//1119
f 1118//1118 1119//1119 1121//1121
f 1122//1122 1124//1124 1123//1123
f 1122//1122 1123//1123 1125//1125
f 1126//1126 1128//1128 1127//1127
f 1126//1126 1127//1127 1129//1129
f 1130//1130 1132//1132 1131//1131
f 1130//1130 1131//1131 1133//1133
f 1134//1134 1136//1136 1135//1135
f 1134//1134 1135//1135 1137//1137
f 1198//1198 1200//1200 1199//1199
f 1198//1198 1199//1199 1201//1201
f 1202//1202 1204//1204 1203//1203
f 1202//1202 1203//1203 1205//1205
f 1206//1206 1208//1208 1207//1207
f 1206//1206 1207//1207 1209//1209
f 1210//1210 1212//1212 1211//1211
f 1211//1211 1213//1213 1210//1210
f 1211//1211 1214//1214 1213//1213
f 1215//1215 1217//1217 1216//1216
f 1215//1215 1216//1216 1218//1218
f 1219//1219 1221//1221 1220//1220
f 1219//1219 1220//1220 1222//1222
f 1223//1223 1225//1225 1224//1224
f 1224//1224 1226//1226 1223//1223
f 1224//1224 1227//1227 1226//1226
