mtllib goblin.mtl
o body
g body_goblin
usemtl goblin
v 0.05209 0.09422 0.03744
v -0.05957 0.18351 0.05995
v 0.05957 0.18351 0.05995
v -0.05209 0.09422 0.03744
v 0.06613 0.11020 -0.03792
v 0.07362 0.18646 0.04625
v 0.07362 0.20100 -0.02215
v 0.06613 0.09710 0.02373
v 0.06075 0.21476 -0.01977
v -0.06075 0.20000 0.04967
v -0.06075 0.21476 -0.01977
v 0.06075 0.20000 0.04967
v -0.06613 0.09710 0.02373
v -0.07362 0.20100 -0.02215
v -0.07362 0.18646 0.04625
v -0.06613 0.11020 -0.03792
v -0.05209 0.11315 -0.05162
v 0.05957 0.20388 -0.03586
v -0.05957 0.20388 -0.03586
v 0.05209 0.11315 -0.05162
v -0.05100 0.08355 0.02032
v -0.06613 0.09710 0.02373
v -0.05209 0.09422 0.03744
v -0.05957 0.18351 0.05995
v -0.07362 0.18646 0.04625
v -0.06075 0.20000 0.04967
v -0.05100 0.09645 -0.04032
v -0.05209 0.11315 -0.05162
v -0.06613 0.11020 -0.03792
v -0.06075 0.21476 -0.01977
v -0.07362 0.20100 -0.02215
v -0.05957 0.20388 -0.03586
v 0.05100 0.08355 0.02032
v 0.05209 0.09422 0.03744
v 0.06613 0.09710 0.02373
v 0.06075 0.20000 0.04967
v 0.07362 0.18646 0.04625
v 0.05957 0.18351 0.05995
v 0.05100 0.09645 -0.04032
v 0.06613 0.11020 -0.03792
v 0.05209 0.11315 -0.05162
v 0.06075 0.21476 -0.01977
v 0.05957 0.20388 -0.03586
v 0.07362 0.20100 -0.02215
v -0.05100 0.09645 -0.04032
v -0.06613 0.09710 0.02373
v -0.05100 0.08355 0.02032
v -0.06613 0.11020 -0.03792
v -0.05209 0.09422 0.03744
v -0.07362 0.18646 0.04625
v -0.05957 0.18351 0.05995
v -0.06613 0.09710 0.02373
v -0.06075 0.20000 0.04967
v -0.07362 0.20100 -0.02215
v -0.06075 0.21476 -0.01977
v -0.07362 0.18646 0.04625
v -0.05957 0.20388 -0.03586
v -0.06613 0.11020 -0.03792
v -0.05209 0.11315 -0.05162
v -0.07362 0.20100 -0.02215
v 0.05100 0.09645 -0.04032
v -0.05209 0.11315 -0.05162
v -0.05100 0.09645 -0.04032
v 0.05209 0.11315 -0.05162
v -0.06075 0.21476 -0.01977
v 0.05957 0.20388 -0.03586
v 0.06075 0.21476 -0.01977
v -0.05957 0.20388 -0.03586
v 0.07362 0.20100 -0.02215
v 0.05209 0.11315 -0.05162
v 0.06613 0.11020 -0.03792
v 0.05957 0.20388 -0.03586
v 0.05100 0.08355 0.02032
v 0.06613 0.11020 -0.03792
v 0.05100 0.09645 -0.04032
v 0.06613 0.09710 0.02373
v 0.06075 0.21476 -0.01977
v 0.07362 0.18646 0.04625
v 0.06075 0.20000 0.04967
v 0.07362 0.20100 -0.02215
v 0.05957 0.18351 0.05995
v 0.06613 0.09710 0.02373
v 0.05209 0.09422 0.03744
v 0.07362 0.18646 0.04625
v -0.05100 0.08355 0.02032
v 0.05209 0.09422 0.03744
v 0.05100 0.08355 0.02032
v -0.05209 0.09422 0.03744
v 0.06075 0.20000 0.04967
v -0.05957 0.18351 0.05995
v -0.06075 0.20000 0.04967
v 0.05957 0.18351 0.05995
v -0.05100 0.09645 -0.04032
v 0.05100 0.08355 0.02032
v 0.05100 0.09645 -0.04032
v -0.05100 0.08355 0.02032
v 0.00000 0.20350 0.02000
v -0.02128 0.24026 0.07954
v 0.05572 0.24026 0.05680
v 0.05572 0.24026 0.05680
v 0.05572 0.24026 -0.01680
v 0.00000 0.20350 0.02000
v 0.00000 0.20350 0.02000
v -0.06887 0.24026 0.02000
v -0.02128 0.24026 0.07954
v 0.00000 0.20350 0.02000
v -0.02128 0.24026 -0.03954
v -0.06887 0.24026 0.02000
v 0.00000 0.20350 0.02000
v 0.05572 0.24026 -0.01680
v -0.02128 0.24026 -0.03954
v 0.05572 0.24026 0.05680
v 0.06887 0.29974 0.02000
v 0.05572 0.24026 -0.01680
v -0.02128 0.24026 0.07954
v 0.02128 0.29974 0.07954
v 0.05572 0.24026 0.05680
v -0.06887 0.24026 0.02000
v -0.05572 0.29974 0.05680
v -0.02128 0.24026 0.07954
v -0.02128 0.24026 -0.03954
v -0.05572 0.29974 -0.01680
v -0.06887 0.24026 0.02000
v 0.05572 0.24026 -0.01680
v 0.02128 0.29974 -0.03954
v -0.02128 0.24026 -0.03954
v 0.05572 0.24026 0.05680
v 0.02128 0.29974 0.07954
v 0.06887 0.29974 0.02000
v -0.02128 0.24026 0.07954
v -0.05572 0.29974 0.05680
v 0.02128 0.29974 0.07954
v -0.06887 0.24026 0.02000
v -0.05572 0.29974 -0.01680
v -0.05572 0.29974 0.05680
v -0.02128 0.24026 -0.03954
v 0.02128 0.29974 -0.03954
v -0.05572 0.29974 -0.01680
v 0.05572 0.24026 -0.01680
v 0.06887 0.29974 0.02000
v 0.02128 0.29974 -0.03954
v 0.02128 0.29974 0.07954
v 0.00000 0.33650 0.02000
v 0.06887 0.29974 0.02000
v -0.05572 0.29974 0.05680
v 0.00000 0.33650 0.02000
v 0.02128 0.29974 0.07954
v -0.05572 0.29974 -0.01680
v 0.00000 0.33650 0.02000
v -0.05572 0.29974 0.05680
v 0.02128 0.29974 -0.03954
v 0.00000 0.33650 0.02000
v -0.05572 0.29974 -0.01680
v 0.06887 0.29974 0.02000
v 0.00000 0.33650 0.02000
v 0.02128 0.29974 -0.03954
v -0.06000 0.28000 -0.02000
v -0.05224 0.30898 0.01000
v -0.16625 0.30847 0.01000
v -0.06000 0.28000 -0.02000
v -0.06000 0.28000 0.04000
v -0.05224 0.30898 0.01000
v -0.06776 0.25102 0.01000
v -0.05224 0.30898 0.01000
v -0.06000 0.28000 0.04000
v -0.16625 0.30847 0.01000
v -0.06000 0.28000 0.04000
v -0.06776 0.25102 0.01000
v -0.16625 0.30847 0.01000
v -0.06776 0.25102 0.01000
v -0.06000 0.28000 -0.02000
v -0.16625 0.30847 0.01000
v 0.06000 0.28000 -0.02000
v 0.06776 0.25102 0.01000
v 0.16625 0.30847 0.01000
v 0.06776 0.25102 0.01000
v 0.06000 0.28000 0.04000
v 0.16625 0.30847 0.01000
v 0.06776 0.25102 0.01000
v 0.05224 0.30898 0.01000
v 0.06000 0.28000 0.04000
v 0.06000 0.28000 -0.02000
v 0.06000 0.28000 0.04000
v 0.05224 0.30898 0.01000
v 0.16625 0.30847 0.01000
v 0.05224 0.30898 0.01000
v 0.06000 0.28000 -0.02000
v 0.16625 0.30847 0.01000
v -0.01600 0.00600 0.04000
v -0.05400 0.01900 0.04000
v -0.01600 0.01900 0.04000
v -0.05400 0.00600 0.04000
v -0.01000 0.00600 -0.01400
v -0.01000 0.01900 0.03400
v -0.01000 0.01900 -0.01400
v -0.01000 0.00600 0.03400
v -0.01600 0.02500 -0.01400
v -0.05400 0.02500 0.03400
v -0.05400 0.02500 -0.01400
v -0.01600 0.02500 0.03400
v -0.06000 0.00600 0.03400
v -0.06000 0.01900 -0.01400
v -0.06000 0.01900 0.03400
v -0.06000 0.00600 -0.01400
v -0.05400 0.00600 -0.02000
v -0.01600 0.01900 -0.02000
v -0.05400 0.01900 -0.02000
v -0.01600 0.00600 -0.02000
v -0.05400 0.00000 0.03400
v -0.06000 0.00600 0.03400
v -0.05400 0.00600 0.04000
v -0.05400 0.01900 0.04000
v -0.06000 0.01900 0.03400
v -0.05400 0.02500 0.03400
v -0.05400 0.00000 -0.01400
v -0.05400 0.00600 -0.02000
v -0.06000 0.00600 -0.01400
v -0.05400 0.02500 -0.01400
v -0.06000 0.01900 -0.01400
v -0.05400 0.01900 -0.02000
v -0.01600 0.00000 0.03400
v -0.01600 0.00600 0.04000
v -0.01000 0.00600 0.03400
v -0.01600 0.02500 0.03400
v -0.01000 0.01900 0.03400
v -0.01600 0.01900 0.04000
v -0.01600 0.00000 -0.01400
v -0.01000 0.00600 -0.01400
v -0.01600 0.00600 -0.02000
v -0.01600 0.02500 -0.01400
v -0.01600 0.01900 -0.02000
v -0.01000 0.01900 -0.01400
v -0.05400 0.00000 -0.01400
v -0.06000 0.00600 0.03400
v -0.05400 0.00000 0.03400
v -0.06000 0.00600 -0.01400
v -0.05400 0.00600 0.04000
v -0.06000 0.01900 0.03400
v -0.05400 0.01900 0.04000
v -0.06000 0.00600 0.03400
v -0.05400 0.02500 0.03400
v -0.06000 0.01900 -0.01400
v -0.05400 0.02500 -0.01400
v -0.06000 0.01900 0.03400
v -0.05400 0.01900 -0.02000
v -0.06000 0.00600 -0.01400
v -0.05400 0.00600 -0.02000
v -0.06000 0.01900 -0.01400
v -0.01600 0.00000 -0.01400
v -0.05400 0.00600 -0.02000
v -0.05400 0.00000 -0.01400
v -0.01600 0.00600 -0.02000
v -0.05400 0.02500 -0.01400
v -0.01600 0.01900 -0.02000
v -0.01600 0.02500 -0.01400
v -0.05400 0.01900 -0.02000
v -0.01000 0.01900 -0.01400
v -0.01600 0.00600 -0.02000
v -0.01000 0.00600 -0.01400
v -0.01600 0.01900 -0.02000
v -0.01600 0.00000 0.03400
v -0.01000 0.00600 -0.01400
v -0.01600 0.00000 -0.01400
v -0.01000 0.00600 0.03400
v -0.01600 0.02500 -0.01400
v -0.01000 0.01900 0.03400
v -0.01600 0.02500 0.03400
v -0.01000 0.01900 -0.01400
v -0.01600 0.01900 0.04000
v -0.01000 0.00600 0.03400
v -0.01600 0.00600 0.04000
v -0.01000 0.01900 0.03400
v -0.05400 0.00000 0.03400
v -0.01600 0.00600 0.04000
v -0.01600 0.00000 0.03400
v -0.05400 0.00600 0.04000
v -0.01600 0.02500 0.03400
v -0.05400 0.01900 0.04000
v -0.05400 0.02500 0.03400
v -0.01600 0.01900 0.04000
v -0.05400 0.00000 -0.01400
v -0.01600 0.00000 0.03400
v -0.01600 0.00000 -0.01400
v -0.05400 0.00000 0.03400
v -0.02200 0.02600 0.02000
v -0.04600 0.09400 0.02000
v -0.02200 0.09400 0.02000
v -0.04600 0.02600 0.02000
v -0.01600 0.02600 -0.01400
v -0.01600 0.09400 0.01400
v -0.01600 0.09400 -0.01400
v -0.01600 0.02600 0.01400
v -0.02200 0.10000 -0.01400
v -0.04600 0.10000 0.01400
v -0.04600 0.10000 -0.01400
v -0.02200 0.10000 0.01400
v -0.05200 0.02600 0.01400
v -0.05200 0.09400 -0.01400
v -0.05200 0.09400 0.01400
v -0.05200 0.02600 -0.01400
v -0.04600 0.02600 -0.02000
v -0.02200 0.09400 -0.02000
v -0.04600 0.09400 -0.02000
v -0.02200 0.02600 -0.02000
v -0.04600 0.02000 0.01400
v -0.05200 0.02600 0.01400
v -0.04600 0.02600 0.02000
v -0.04600 0.09400 0.02000
v -0.05200 0.09400 0.01400
v -0.04600 0.10000 0.01400
v -0.04600 0.02000 -0.01400
v -0.04600 0.02600 -0.02000
v -0.05200 0.02600 -0.01400
v -0.04600 0.10000 -0.01400
v -0.05200 0.09400 -0.01400
v -0.04600 0.09400 -0.02000
v -0.02200 0.02000 0.01400
v -0.02200 0.02600 0.02000
v -0.01600 0.02600 0.01400
v -0.02200 0.10000 0.01400
v -0.01600 0.09400 0.01400
v -0.02200 0.09400 0.02000
v -0.02200 0.02000 -0.01400
v -0.01600 0.02600 -0.01400
v -0.02200 0.02600 -0.02000
v -0.02200 0.10000 -0.01400
v -0.02200 0.09400 -0.02000
v -0.01600 0.09400 -0.01400
v -0.04600 0.02000 -0.01400
v -0.05200 0.02600 0.01400
v -0.04600 0.02000 0.01400
v -0.05200 0.02600 -0.01400
v -0.04600 0.02600 0.02000
v -0.05200 0.09400 0.01400
v -0.04600 0.09400 0.02000
v -0.05200 0.02600 0.01400
v -0.04600 0.10000 0.01400
v -0.05200 0.09400 -0.01400
v -0.04600 0.10000 -0.01400
v -0.05200 0.09400 0.01400
v -0.04600 0.09400 -0.02000
v -0.05200 0.02600 -0.01400
v -0.04600 0.02600 -0.02000
v -0.05200 0.09400 -0.01400
v -0.02200 0.02000 -0.01400
v -0.04600 0.02600 -0.02000
v -0.04600 0.02000 -0.01400
v -0.02200 0.02600 -0.02000
v -0.04600 0.10000 -0.01400
v -0.02200 0.09400 -0.02000
v -0.02200 0.10000 -0.01400
v -0.04600 0.09400 -0.02000
v -0.01600 0.09400 -0.01400
v -0.02200 0.02600 -0.02000
v -0.01600 0.02600 -0.01400
v -0.02200 0.09400 -0.02000
v -0.02200 0.02000 0.01400
v -0.01600 0.02600 -0.01400
v -0.02200 0.02000 -0.01400
v -0.01600 0.02600 0.01400
v -0.02200 0.10000 -0.01400
v -0.01600 0.09400 0.01400
v -0.02200 0.10000 0.01400
v -0.01600 0.09400 -0.01400
v -0.02200 0.09400 0.02000
v -0.01600 0.02600 0.01400
v -0.02200 0.02600 0.02000
v -0.01600 0.09400 0.01400
v -0.04600 0.02000 0.01400
v -0.02200 0.02600 0.02000
v -0.02200 0.02000 0.01400
v -0.04600 0.02600 0.02000
v -0.02200 0.10000 0.01400
v -0.04600 0.09400 0.02000
v -0.04600 0.10000 0.01400
v -0.02200 0.09400 0.02000
v -0.04600 0.02000 -0.01400
v -0.02200 0.02000 0.01400
v -0.02200 0.02000 -0.01400
v -0.04600 0.02000 0.01400
v 0.05400 0.00600 0.04000
v 0.01600 0.01900 0.04000
v 0.05400 0.01900 0.04000
v 0.01600 0.00600 0.04000
v 0.06000 0.00600 -0.01400
v 0.06000 0.01900 0.03400
v 0.06000 0.01900 -0.01400
v 0.06000 0.00600 0.03400
v 0.05400 0.02500 -0.01400
v 0.01600 0.02500 0.03400
v 0.01600 0.02500 -0.01400
v 0.05400 0.02500 0.03400
v 0.01000 0.00600 0.03400
v 0.01000 0.01900 -0.01400
v 0.01000 0.01900 0.03400
v 0.01000 0.00600 -0.01400
v 0.01600 0.00600 -0.02000
v 0.05400 0.01900 -0.02000
v 0.01600 0.01900 -0.02000
v 0.05400 0.00600 -0.02000
v 0.01600 0.00000 0.03400
v 0.01000 0.00600 0.03400
v 0.01600 0.00600 0.04000
v 0.01600 0.01900 0.04000
v 0.01000 0.01900 0.03400
v 0.01600 0.02500 0.03400
v 0.01600 0.00000 -0.01400
v 0.01600 0.00600 -0.02000
v 0.01000 0.00600 -0.01400
v 0.01600 0.02500 -0.01400
v 0.01000 0.01900 -0.01400
v 0.01600 0.01900 -0.02000
v 0.05400 0.00000 0.03400
v 0.05400 0.00600 0.04000
v 0.06000 0.00600 0.03400
v 0.05400 0.02500 0.03400
v 0.06000 0.01900 0.03400
v 0.05400 0.01900 0.04000
v 0.05400 0.00000 -0.01400
v 0.06000 0.00600 -0.01400
v 0.05400 0.00600 -0.02000
v 0.05400 0.02500 -0.01400
v 0.05400 0.01900 -0.02000
v 0.06000 0.01900 -0.01400
v 0.01600 0.00000 -0.01400
v 0.01000 0.00600 0.03400
v 0.01600 0.00000 0.03400
v 0.01000 0.00600 -0.01400
v 0.01600 0.00600 0.04000
v 0.01000 0.01900 0.03400
v 0.01600 0.01900 0.04000
v 0.01000 0.00600 0.03400
v 0.01600 0.02500 0.03400
v 0.01000 0.01900 -0.01400
v 0.01600 0.02500 -0.01400
v 0.01000 0.01900 0.03400
v 0.01600 0.01900 -0.02000
v 0.01000 0.00600 -0.01400
v 0.01600 0.00600 -0.02000
v 0.01000 0.01900 -0.01400
v 0.05400 0.00000 -0.01400
v 0.01600 0.00600 -0.02000
v 0.01600 0.00000 -0.01400
v 0.05400 0.00600 -0.02000
v 0.01600 0.02500 -0.01400
v 0.05400 0.01900 -0.02000
v 0.05400 0.02500 -0.01400
v 0.01600 0.01900 -0.02000
v 0.06000 0.01900 -0.01400
v 0.05400 0.00600 -0.02000
v 0.06000 0.00600 -0.01400
v 0.05400 0.01900 -0.02000
v 0.05400 0.00000 0.03400
v 0.06000 0.00600 -0.01400
v 0.05400 0.00000 -0.01400
v 0.06000 0.00600 0.03400
v 0.05400 0.02500 -0.01400
v 0.06000 0.01900 0.03400
v 0.05400 0.02500 0.03400
v 0.06000 0.01900 -0.01400
v 0.05400 0.01900 0.04000
v 0.06000 0.00600 0.03400
v 0.05400 0.00600 0.04000
v 0.06000 0.01900 0.03400
v 0.01600 0.00000 0.03400
v 0.05400 0.00600 0.04000
v 0.05400 0.00000 0.03400
v 0.01600 0.00600 0.04000
v 0.05400 0.02500 0.03400
v 0.01600 0.01900 0.04000
v 0.01600 0.02500 0.03400
v 0.05400 0.01900 0.04000
v 0.01600 0.00000 -0.01400
v 0.05400 0.00000 0.03400
v 0.05400 0.00000 -0.01400
v 0.01600 0.00000 0.03400
v 0.04600 0.02600 0.02000
v 0.02200 0.09400 0.02000
v 0.04600 0.09400 0.02000
v 0.02200 0.02600 0.02000
v 0.05200 0.02600 -0.01400
v 0.05200 0.09400 0.01400
v 0.05200 0.09400 -0.01400
v 0.05200 0.02600 0.01400
v 0.04600 0.10000 -0.01400
v 0.02200 0.10000 0.01400
v 0.02200 0.10000 -0.01400
v 0.04600 0.10000 0.01400
v 0.01600 0.02600 0.01400
v 0.01600 0.09400 -0.01400
v 0.01600 0.09400 0.01400
v 0.01600 0.02600 -0.01400
v 0.02200 0.02600 -0.02000
v 0.04600 0.09400 -0.02000
v 0.02200 0.09400 -0.02000
v 0.04600 0.02600 -0.02000
v 0.02200 0.02000 0.01400
v 0.01600 0.02600 0.01400
v 0.02200 0.02600 0.02000
v 0.02200 0.09400 0.02000
v 0.01600 0.09400 0.01400
v 0.02200 0.10000 0.01400
v 0.02200 0.02000 -0.01400
v 0.02200 0.02600 -0.02000
v 0.01600 0.02600 -0.01400
v 0.02200 0.10000 -0.01400
v 0.01600 0.09400 -0.01400
v 0.02200 0.09400 -0.02000
v 0.04600 0.02000 0.01400
v 0.04600 0.02600 0.02000
v 0.05200 0.02600 0.01400
v 0.04600 0.10000 0.01400
v 0.05200 0.09400 0.01400
v 0.04600 0.09400 0.02000
v 0.04600 0.02000 -0.01400
v 0.05200 0.02600 -0.01400
v 0.04600 0.02600 -0.02000
v 0.04600 0.10000 -0.01400
v 0.04600 0.09400 -0.02000
v 0.05200 0.09400 -0.01400
v 0.02200 0.02000 -0.01400
v 0.01600 0.02600 0.01400
v 0.02200 0.02000 0.01400
v 0.01600 0.02600 -0.01400
v 0.02200 0.02600 0.02000
v 0.01600 0.09400 0.01400
v 0.02200 0.09400 0.02000
v 0.01600 0.02600 0.01400
v 0.02200 0.10000 0.01400
v 0.01600 0.09400 -0.01400
v 0.02200 0.10000 -0.01400
v 0.01600 0.09400 0.01400
v 0.02200 0.09400 -0.02000
v 0.01600 0.02600 -0.01400
v 0.02200 0.02600 -0.02000
v 0.01600 0.09400 -0.01400
v 0.04600 0.02000 -0.01400
v 0.02200 0.02600 -0.02000
v 0.02200 0.02000 -0.01400
v 0.04600 0.02600 -0.02000
v 0.02200 0.10000 -0.01400
v 0.04600 0.09400 -0.02000
v 0.04600 0.10000 -0.01400
v 0.02200 0.09400 -0.02000
v 0.05200 0.09400 -0.01400
v 0.04600 0.02600 -0.02000
v 0.05200 0.02600 -0.01400
v 0.04600 0.09400 -0.02000
v 0.04600 0.02000 0.01400
v 0.05200 0.02600 -0.01400
v 0.04600 0.02000 -0.01400
v 0.05200 0.02600 0.01400
v 0.04600 0.10000 -0.01400
v 0.05200 0.09400 0.01400
v 0.04600 0.10000 0.01400
v 0.05200 0.09400 -0.01400
v 0.04600 0.09400 0.02000
v 0.05200 0.02600 0.01400
v 0.04600 0.02600 0.02000
v 0.05200 0.09400 0.01400
v 0.02200 0.02000 0.01400
v 0.04600 0.02600 0.02000
v 0.04600 0.02000 0.01400
v 0.02200 0.02600 0.02000
v 0.04600 0.10000 0.01400
v 0.02200 0.09400 0.02000
v 0.02200 0.10000 0.01400
v 0.04600 0.09400 0.02000
v 0.02200 0.02000 -0.01400
v 0.04600 0.02000 0.01400
v 0.04600 0.02000 -0.01400
v 0.02200 0.02000 0.01400
v -0.06000 0.28000 0.01000
v -0.06949 0.10256 0.02800
v -0.05631 0.19141 0.02800
v -0.03939 0.18525 0.02800
v -0.08641 0.10872 0.02800
v -0.06385 0.10051 -0.00200
v -0.03375 0.18320 0.02200
v -0.03375 0.18320 -0.00200
v -0.06385 0.10051 0.02200
v -0.03734 0.19089 -0.00200
v -0.05426 0.19705 0.02200
v -0.05426 0.19705 -0.00200
v -0.03734 0.19089 0.02200
v -0.09204 0.11077 0.02200
v -0.06195 0.19346 -0.00200
v -0.06195 0.19346 0.02200
v -0.09204 0.11077 -0.00200
v -0.08641 0.10872 -0.00800
v -0.03939 0.18525 -0.00800
v -0.05631 0.19141 -0.00800
v -0.06949 0.10256 -0.00800
v -0.08846 0.10308 0.02200
v -0.09204 0.11077 0.02200
v -0.08641 0.10872 0.02800
v -0.05631 0.19141 0.02800
v -0.06195 0.19346 0.02200
v -0.05426 0.19705 0.02200
v -0.08846 0.10308 -0.00200
v -0.08641 0.10872 -0.00800
v -0.09204 0.11077 -0.00200
v -0.05426 0.19705 -0.00200
v -0.06195 0.19346 -0.00200
v -0.05631 0.19141 -0.00800
v -0.07154 0.09692 0.02200
v -0.06949 0.10256 0.02800
v -0.06385 0.10051 0.02200
v -0.03734 0.19089 0.02200
v -0.03375 0.18320 0.02200
v -0.03939 0.18525 0.02800
v -0.07154 0.09692 -0.00200
v -0.06385 0.10051 -0.00200
v -0.06949 0.10256 -0.00800
v -0.03734 0.19089 -0.00200
v -0.03939 0.18525 -0.00800
v -0.03375 0.18320 -0.00200
v -0.08846 0.10308 -0.00200
v -0.09204 0.11077 0.02200
v -0.08846 0.10308 0.02200
v -0.09204 0.11077 -0.00200
v -0.08641 0.10872 0.02800
v -0.06195 0.19346 0.02200
v -0.05631 0.19141 0.02800
v -0.09204 0.11077 0.02200
v -0.05426 0.19705 0.02200
v -0.06195 0.19346 -0.00200
v -0.05426 0.19705 -0.00200
v -0.06195 0.19346 0.02200
v -0.05631 0.19141 -0.00800
v -0.09204 0.11077 -0.00200
v -0.08641 0.10872 -0.00800
v -0.06195 0.19346 -0.00200
v -0.07154 0.09692 -0.00200
v -0.08641 0.10872 -0.00800
v -0.08846 0.10308 -0.00200
v -0.06949 0.10256 -0.00800
v -0.05426 0.19705 -0.00200
v -0.03939 0.18525 -0.00800
v -0.03734 0.19089 -0.00200
v -0.05631 0.19141 -0.00800
v -0.03375 0.18320 -0.00200
v -0.06949 0.10256 -0.00800
v -0.06385 0.10051 -0.00200
v -0.03939 0.18525 -0.00800
v -0.07154 0.09692 0.02200
v -0.06385 0.10051 -0.00200
v -0.07154 0.09692 -0.00200
v -0.06385 0.10051 0.02200
v -0.03734 0.19089 -0.00200
v -0.03375 0.18320 0.02200
v -0.03734 0.19089 0.02200
v -0.03375 0.18320 -0.00200
v -0.03939 0.18525 0.02800
v -0.06385 0.10051 0.02200
v -0.06949 0.10256 0.02800
v -0.03375 0.18320 0.02200
v -0.08846 0.10308 0.02200
v -0.06949 0.10256 0.02800
v -0.07154 0.09692 0.02200
v -0.08641 0.10872 0.02800
v -0.03734 0.19089 0.02200
v -0.05631 0.19141 0.02800
v -0.05426 0.19705 0.02200
v -0.03939 0.18525 0.02800
v -0.08846 0.10308 -0.00200
v -0.07154 0.09692 0.02200
v -0.07154 0.09692 -0.00200
v -0.08846 0.10308 0.02200
v 0.06000 0.28000 0.01000
v 0.08641 0.10872 0.02800
v 0.03939 0.18525 0.02800
v 0.05631 0.19141 0.02800
v 0.06949 0.10256 0.02800
v 0.09204 0.11077 -0.00200
v 0.06195 0.19346 0.02200
v 0.06195 0.19346 -0.00200
v 0.09204 0.11077 0.02200
v 0.05426 0.19705 -0.00200
v 0.03734 0.19089 0.02200
v 0.03734 0.19089 -0.00200
v 0.05426 0.19705 0.02200
v 0.06385 0.10051 0.02200
v 0.03375 0.18320 -0.00200
v 0.03375 0.18320 0.02200
v 0.06385 0.10051 -0.00200
v 0.06949 0.10256 -0.00800
v 0.05631 0.19141 -0.00800
v 0.03939 0.18525 -0.00800
v 0.08641 0.10872 -0.00800
v 0.07154 0.09692 0.02200
v 0.06385 0.10051 0.02200
v 0.06949 0.10256 0.02800
v 0.03939 0.18525 0.02800
v 0.03375 0.18320 0.02200
v 0.03734 0.19089 0.02200
v 0.07154 0.09692 -0.00200
v 0.06949 0.10256 -0.00800
v 0.06385 0.10051 -0.00200
v 0.03734 0.19089 -0.00200
v 0.03375 0.18320 -0.00200
v 0.03939 0.18525 -0.00800
v 0.08846 0.10308 0.02200
v 0.08641 0.10872 0.02800
v 0.09204 0.11077 0.02200
v 0.05426 0.19705 0.02200
v 0.06195 0.19346 0.02200
v 0.05631 0.19141 0.02800
v 0.08846 0.10308 -0.00200
v 0.09204 0.11077 -0.00200
v 0.08641 0.10872 -0.00800
v 0.05426 0.19705 -0.00200
v 0.05631 0.19141 -0.00800
v 0.06195 0.19346 -0.00200
v 0.07154 0.09692 -0.00200
v 0.06385 0.10051 0.02200
v 0.07154 0.09692 0.02200
v 0.06385 0.10051 -0.00200
v 0.06949 0.10256 0.02800
v 0.03375 0.18320 0.02200
v 0.03939 0.18525 0.02800
v 0.06385 0.10051 0.02200
v 0.03734 0.19089 0.02200
v 0.03375 0.18320 -0.00200
v 0.03734 0.19089 -0.00200
v 0.03375 0.18320 0.02200
v 0.03939 0.18525 -0.00800
v 0.06385 0.10051 -0.00200
v 0.06949 0.10256 -0.00800
v 0.03375 0.18320 -0.00200
v 0.08846 0.10308 -0.00200
v 0.06949 0.10256 -0.00800
v 0.07154 0.09692 -0.00200
v 0.08641 0.10872 -0.00800
v 0.03734 0.19089 -0.00200
v 0.05631 0.19141 -0.00800
v 0.05426 0.19705 -0.00200
v 0.03939 0.18525 -0.00800
v 0.06195 0.19346 -0.00200
v 0.08641 0.10872 -0.00800
v 0.09204 0.11077 -0.00200
v 0.05631 0.19141 -0.00800
v 0.08846 0.10308 0.02200
v 0.09204 0.11077 -0.00200
v 0.08846 0.10308 -0.00200
v 0.09204 0.11077 0.02200
v 0.05426 0.19705 -0.00200
v 0.06195 0.19346 0.02200
v 0.05426 0.19705 0.02200
v 0.06195 0.19346 -0.00200
v 0.05631 0.19141 0.02800
v 0.09204 0.11077 0.02200
v 0.08641 0.10872 0.02800
v 0.06195 0.19346 0.02200
v 0.07154 0.09692 0.02200
v 0.08641 0.10872 0.02800
v 0.08846 0.10308 0.02200
v 0.06949 0.10256 0.02800
v 0.05426 0.19705 0.02200
v 0.03939 0.18525 0.02800
v 0.03734 0.19089 0.02200
v 0.05631 0.19141 0.02800
v 0.07154 0.09692 -0.00200
v 0.08846 0.10308 0.02200
v 0.08846 0.10308 -0.00200
v 0.07154 0.09692 0.02200
v 0.00000 0.27000 0.08000
v 0.01200 0.27000 0.08000
v 0.00000 0.28200 0.08000
v 0.00000 0.25800 0.08000
v -0.01200 0.27000 0.08000
v 0.00000 0.28200 0.08000
v 0.01200 0.27000 0.08000
v 0.00000 0.27000 0.12000
v 0.01200 0.27000 0.08000
v 0.00000 0.25800 0.08000
v 0.00000 0.27000 0.12000
v 0.00000 0.25800 0.08000
v -0.01200 0.27000 0.08000
v 0.00000 0.27000 0.12000
v -0.01200 0.27000 0.08000
v 0.00000 0.28200 0.08000
v 0.00000 0.27000 0.12000
vn -0.0000 -0.2444 0.9697
vn -0.0000 -0.2444 0.9697
vn -0.0000 -0.2444 0.9697
vn -0.0000 -0.2444 0.9697
vn 0.9967 -0.0792 -0.0168
vn 0.9967 -0.0792 -0.0168
vn 0.9967 -0.0792 -0.0168
vn 0.9967 -0.0792 -0.0168
vn -0.0000 0.9782 0.2079
vn -0.0000 0.9782 0.2079
vn -0.0000 0.9782 0.2079
vn -0.0000 0.9782 0.2079
vn -0.9967 -0.0792 -0.0168
vn -0.9967 -0.0792 -0.0168
vn -0.9967 -0.0792 -0.0168
vn -0.9967 -0.0792 -0.0168
vn 0.0000 0.1711 -0.9852
vn 0.0000 0.1711 -0.9852
vn 0.0000 0.1711 -0.9852
vn 0.0000 0.1711 -0.9852
vn -0.5532 -0.7224 0.4148
vn -0.5532 -0.7224 0.4148
vn -0.5532 -0.7224 0.4148
vn -0.5986 0.3922 0.6985
vn -0.5986 0.3922 0.6985
vn -0.5986 0.3922 0.6985
vn -0.5532 -0.4912 -0.6728
vn -0.5532 -0.4912 -0.6728
vn -0.5532 -0.4912 -0.6728
vn -0.5987 0.6424 -0.4785
vn -0.5987 0.6424 -0.4785
vn -0.5987 0.6424 -0.4785
vn 0.5532 -0.7224 0.4149
vn 0.5532 -0.7224 0.4149
vn 0.5532 -0.7224 0.4149
vn 0.5985 0.3922 0.6985
vn 0.5985 0.3922 0.6985
vn 0.5985 0.3922 0.6985
vn 0.5532 -0.4913 -0.6728
vn 0.5532 -0.4913 -0.6728
vn 0.5532 -0.4913 -0.6728
vn 0.5987 0.6424 -0.4785
vn 0.5987 0.6424 -0.4785
vn 0.5987 0.6424 -0.4785
vn -0.6779 -0.7191 -0.1530
vn -0.6779 -0.7191 -0.1530
vn -0.6779 -0.7191 -0.1530
vn -0.6779 -0.7191 -0.1530
vn -0.7038 -0.2285 0.6727
vn -0.7038 -0.2285 0.6727
vn -0.7038 -0.2285 0.6727
vn -0.7038 -0.2285 0.6727
vn -0.7352 0.6631 0.1409
vn -0.7352 0.6631 0.1409
vn -0.7352 0.6631 0.1409
vn -0.7352 0.6631 0.1409
vn -0.7037 0.0649 -0.7075
vn -0.7037 0.0649 -0.7075
vn -0.7037 0.0649 -0.7075
vn -0.7037 0.0649 -0.7075
vn 0.0000 -0.5603 -0.8283
vn 0.0000 -0.5603 -0.8283
vn 0.0000 -0.5603 -0.8283
vn 0.0000 -0.5603 -0.8283
vn 0.0000 0.8283 -0.5603
vn 0.0000 0.8283 -0.5603
vn 0.0000 0.8283 -0.5603
vn 0.0000 0.8283 -0.5603
vn 0.7038 0.0649 -0.7075
vn 0.7038 0.0649 -0.7075
vn 0.7038 0.0649 -0.7075
vn 0.7038 0.0649 -0.7075
vn 0.6779 -0.7191 -0.1529
vn 0.6779 -0.7191 -0.1529
vn 0.6779 -0.7191 -0.1529
vn 0.6779 -0.7191 -0.1529
vn 0.7351 0.6631 0.1409
vn 0.7351 0.6631 0.1409
vn 0.7351 0.6631 0.1409
vn 0.7351 0.6631 0.1409
vn 0.7037 -0.2285 0.6727
vn 0.7037 -0.2285 0.6727
vn 0.7037 -0.2285 0.6727
vn 0.7037 -0.2285 0.6727
vn -0.0000 -0.8488 0.5288
vn -0.0000 -0.8488 0.5288
vn -0.0000 -0.8488 0.5288
vn -0.0000 -0.8488 0.5288
vn -0.0000 0.5288 0.8487
vn -0.0000 0.5288 0.8487
vn -0.0000 0.5288 0.8487
vn -0.0000 0.5288 0.8487
vn 0.0000 -0.9782 -0.2079
vn 0.0000 -0.9782 -0.2079
vn 0.0000 -0.9782 -0.2079
vn 0.0000 -0.9782 -0.2079
vn 0.1655 -0.8116 0.5602
vn 0.1655 -0.8116 0.5602
vn 0.1655 -0.8116 0.5602
vn 0.5507 -0.8347 0.0000
vn 0.5507 -0.8347 0.0000
vn 0.5507 -0.8347 0.0000
vn -0.4407 -0.8257 0.3521
vn -0.4407 -0.8257 0.3521
vn -0.4407 -0.8257 0.3521
vn -0.4407 -0.8257 -0.3523
vn -0.4407 -0.8257 -0.3523
vn -0.4407 -0.8257 -0.3523
vn 0.1655 -0.8117 -0.5602
vn 0.1655 -0.8117 -0.5602
vn 0.1655 -0.8117 -0.5602
vn 0.9764 -0.2159 0.0000
vn 0.9764 -0.2159 0.0000
vn 0.9764 -0.2159 0.0000
vn 0.2776 -0.1987 0.9399
vn 0.2776 -0.1987 0.9399
vn 0.2776 -0.1987 0.9399
vn -0.7639 -0.2088 0.6106
vn -0.7639 -0.2088 0.6106
vn -0.7639 -0.2088 0.6106
vn -0.7639 -0.2088 -0.6106
vn -0.7639 -0.2088 -0.6106
vn -0.7639 -0.2088 -0.6106
vn 0.2776 -0.1987 -0.9399
vn 0.2776 -0.1987 -0.9399
vn 0.2776 -0.1987 -0.9399
vn 0.7639 0.2088 0.6107
vn 0.7639 0.2088 0.6107
vn 0.7639 0.2088 0.6107
vn -0.2776 0.1987 0.9399
vn -0.2776 0.1987 0.9399
vn -0.2776 0.1987 0.9399
vn -0.9764 0.2159 0.0000
vn -0.9764 0.2159 0.0000
vn -0.9764 0.2159 0.0000
vn -0.2777 0.1987 -0.9399
vn -0.2777 0.1987 -0.9399
vn -0.2777 0.1987 -0.9399
vn 0.7639 0.2088 -0.6106
vn 0.7639 0.2088 -0.6106
vn 0.7639 0.2088 -0.6106
vn 0.4407 0.8257 0.3522
vn 0.4407 0.8257 0.3522
vn 0.4407 0.8257 0.3522
vn -0.1656 0.8116 0.5602
vn -0.1656 0.8116 0.5602
vn -0.1656 0.8116 0.5602
vn -0.5507 0.8347 0.0000
vn -0.5507 0.8347 0.0000
vn -0.5507 0.8347 0.0000
vn -0.1655 0.8116 -0.5602
vn -0.1655 0.8116 -0.5602
vn -0.1655 0.8116 -0.5602
vn 0.4407 0.8257 -0.3522
vn 0.4407 0.8257 -0.3522
vn 0.4407 0.8257 -0.3522
vn -0.0032 0.7197 -0.6943
vn -0.0032 0.7197 -0.6943
vn -0.0032 0.7197 -0.6943
vn 0.9659 -0.2588 0.0000
vn 0.9659 -0.2588 0.0000
vn 0.9659 -0.2588 0.0000
vn 0.9659 -0.2588 0.0000
vn -0.0032 0.7197 0.6943
vn -0.0032 0.7197 0.6943
vn -0.0032 0.7197 0.6943
vn -0.3627 -0.6217 0.6943
vn -0.3627 -0.6217 0.6943
vn -0.3627 -0.6217 0.6943
vn -0.3626 -0.6216 -0.6944
vn -0.3626 -0.6216 -0.6944
vn -0.3626 -0.6216 -0.6944
vn 0.3626 -0.6216 -0.6943
vn 0.3626 -0.6216 -0.6943
vn 0.3626 -0.6216 -0.6943
vn 0.3626 -0.6217 0.6943
vn 0.3626 -0.6217 0.6943
vn 0.3626 -0.6217 0.6943
vn -0.9659 -0.2588 -0.0000
vn -0.9659 -0.2588 -0.0000
vn -0.9659 -0.2588 -0.0000
vn -0.9659 -0.2588 -0.0000
vn 0.0032 0.7196 0.6943
vn 0.0032 0.7196 0.6943
vn 0.0032 0.7196 0.6943
vn 0.0032 0.7197 -0.6943
vn 0.0032 0.7197 -0.6943
vn 0.0032 0.7197 -0.6943
vn -0.0000 -0.0000 1.0000
vn -0.0000 -0.0000 1.0000
vn -0.0000 -0.0000 1.0000
vn -0.0000 -0.0000 1.0000
vn 1.0000 0.0000 -0.0000
vn 1.0000 0.0000 -0.0000
vn 1.0000 0.0000 -0.0000
vn 1.0000 0.0000 -0.0000
vn 0.0000 1.0000 -0.0000
vn 0.0000 1.0000 -0.0000
vn 0.0000 1.0000 -0.0000
vn 0.0000 1.0000 -0.0000
vn -1.0000 0.0000 -0.0000
vn -1.0000 0.0000 -0.0000
vn -1.0000 0.0000 -0.0000
vn -1.0000 0.0000 -0.0000
vn 0.0000 0.0000 -1.0000
vn 0.0000 0.0000 -1.0000
vn 0.0000 0.0000 -1.0000
vn 0.0000 0.0000 -1.0000
vn -0.5774 -0.5774 0.5772
vn -0.5774 -0.5774 0.5772
vn -0.5774 -0.5774 0.5772
vn -0.5773 0.5774 0.5774
vn -0.5773 0.5774 0.5774
vn -0.5773 0.5774 0.5774
vn -0.5773 -0.5773 -0.5774
vn -0.5773 -0.5773 -0.5774
vn -0.5773 -0.5773 -0.5774
vn -0.5773 0.5774 -0.5774
vn -0.5773 0.5774 -0.5774
vn -0.5773 0.5774 -0.5774
vn 0.5774 -0.5774 0.5773
vn 0.5774 -0.5774 0.5773
vn 0.5774 -0.5774 0.5773
vn 0.5774 0.5774 0.5774
vn 0.5774 0.5774 0.5774
vn 0.5774 0.5774 0.5774
vn 0.5773 -0.5774 -0.5774
vn 0.5773 -0.5774 -0.5774
vn 0.5773 -0.5774 -0.5774
vn 0.5774 0.5774 -0.5773
vn 0.5774 0.5774 -0.5773
vn 0.5774 0.5774 -0.5773
vn -0.7071 -0.7071 -0.0001
vn -0.7071 -0.7071 -0.0001
vn -0.7071 -0.7071 -0.0001
vn -0.7071 -0.7071 -0.0001
vn -0.7071 -0.0000 0.7071
vn -0.7071 -0.0000 0.7071
vn -0.7071 -0.0000 0.7071
vn -0.7071 -0.0000 0.7071
vn -0.7071 0.7071 -0.0000
vn -0.7071 0.7071 -0.0000
vn -0.7071 0.7071 -0.0000
vn -0.7071 0.7071 -0.0000
vn -0.7071 0.0000 -0.7071
vn -0.7071 0.0000 -0.7071
vn -0.7071 0.0000 -0.7071
vn -0.7071 0.0000 -0.7071
vn 0.0000 -0.7071 -0.7071
vn 0.0000 -0.7071 -0.7071
vn 0.0000 -0.7071 -0.7071
vn 0.0000 -0.7071 -0.7071
vn 0.0000 0.7071 -0.7071
vn 0.0000 0.7071 -0.7071
vn 0.0000 0.7071 -0.7071
vn 0.0000 0.7071 -0.7071
vn 0.7071 0.0000 -0.7071
vn 0.7071 0.0000 -0.7071
vn 0.7071 0.0000 -0.7071
vn 0.7071 0.0000 -0.7071
vn 0.7071 -0.7071 -0.0000
vn 0.7071 -0.7071 -0.0000
vn 0.7071 -0.7071 -0.0000
vn 0.7071 -0.7071 -0.0000
vn 0.7071 0.7071 0.0000
vn 0.7071 0.7071 0.0000
vn 0.7071 0.7071 0.0000
vn 0.7071 0.7071 0.0000
vn 0.7071 -0.0000 0.7071
vn 0.7071 -0.0000 0.7071
vn 0.7071 -0.0000 0.7071
vn 0.7071 -0.0000 0.7071
vn -0.0000 -0.7071 0.7071
vn -0.0000 -0.7071 0.7071
vn -0.0000 -0.7071 0.7071
vn -0.0000 -0.7071 0.7071
vn -0.0000 0.7071 0.7071
vn -0.0000 0.7071 0.7071
vn -0.0000 0.7071 0.7071
vn -0.0000 0.7071 0.7071
vn 0.0000 -1.0000 -0.0000
vn 0.0000 -1.0000 -0.0000
vn 0.0000 -1.0000 -0.0000
vn 0.0000 -1.0000 -0.0000
vn -0.0000 -0.0000 1.0000
vn -0.0000 -0.0000 1.0000
vn -0.0000 -0.0000 1.0000
vn -0.0000 -0.0000 1.0000
vn 1.0000 0.0000 -0.0000
vn 1.0000 0.0000 -0.0000
vn 1.0000 0.0000 -0.0000
vn 1.0000 0.0000 -0.0000
vn 0.0000 1.0000 -0.0000
vn 0.0000 1.0000 -0.0000
vn 0.0000 1.0000 -0.0000
vn 0.0000 1.0000 -0.0000
vn -1.0000 0.0000 -0.0000
vn -1.0000 0.0000 -0.0000
vn -1.0000 0.0000 -0.0000
vn -1.0000 0.0000 -0.0000
vn 0.0000 0.0000 -1.0000
vn 0.0000 0.0000 -1.0000
vn 0.0000 0.0000 -1.0000
vn 0.0000 0.0000 -1.0000
vn -0.5774 -0.5773 0.5774
vn -0.5774 -0.5773 0.5774
vn -0.5774 -0.5773 0.5774
vn -0.5773 0.5774 0.5774
vn -0.5773 0.5774 0.5774
vn -0.5773 0.5774 0.5774
vn -0.5774 -0.5773 -0.5774
vn -0.5774 -0.5773 -0.5774
vn -0.5774 -0.5773 -0.5774
vn -0.5773 0.5774 -0.5774
vn -0.5773 0.5774 -0.5774
vn -0.5773 0.5774 -0.5774
vn 0.5774 -0.5774 0.5773
vn 0.5774 -0.5774 0.5773
vn 0.5774 -0.5774 0.5773
vn 0.5772 0.5774 0.5775
vn 0.5772 0.5774 0.5775
vn 0.5772 0.5774 0.5775
vn 0.5773 -0.5774 -0.5774
vn 0.5773 -0.5774 -0.5774
vn 0.5773 -0.5774 -0.5774
vn 0.5773 0.5774 -0.5773
vn 0.5773 0.5774 -0.5773
vn 0.5773 0.5774 -0.5773
vn -0.7071 -0.7071 -0.0001
vn -0.7071 -0.7071 -0.0001
vn -0.7071 -0.7071 -0.0001
vn -0.7071 -0.7071 -0.0001
vn -0.7071 -0.0000 0.7071
vn -0.7071 -0.0000 0.7071
vn -0.7071 -0.0000 0.7071
vn -0.7071 -0.0000 0.7071
vn -0.7071 0.7071 -0.0000
vn -0.7071 0.7071 -0.0000
vn -0.7071 0.7071 -0.0000
vn -0.7071 0.7071 -0.0000
vn -0.7071 0.0000 -0.7071
vn -0.7071 0.0000 -0.7071
vn -0.7071 0.0000 -0.7071
vn -0.7071 0.0000 -0.7071
vn 0.0000 -0.7071 -0.7071
vn 0.0000 -0.7071 -0.7071
vn 0.0000 -0.7071 -0.7071
vn 0.0000 -0.7071 -0.7071
vn 0.0000 0.7071 -0.7071
vn 0.0000 0.7071 -0.7071
vn 0.0000 0.7071 -0.7071
vn 0.0000 0.7071 -0.7071
vn 0.7071 0.0000 -0.7071
vn 0.7071 0.0000 -0.7071
vn 0.7071 0.0000 -0.7071
vn 0.7071 0.0000 -0.7071
vn 0.7071 -0.7071 -0.0000
vn 0.7071 -0.7071 -0.0000
vn 0.7071 -0.7071 -0.0000
vn 0.7071 -0.7071 -0.0000
vn 0.7071 0.7071 0.0000
vn 0.7071 0.7071 0.0000
vn 0.7071 0.7071 0.0000
vn 0.7071 0.7071 0.0000
vn 0.7071 -0.0000 0.7071
vn 0.7071 -0.0000 0.7071
vn 0.7071 -0.0000 0.7071
vn 0.7071 -0.0000 0.7071
vn -0.0000 -0.7071 0.7071
vn -0.0000 -0.7071 0.7071
vn -0.0000 -0.7071 0.7071
vn -0.0000 -0.7071 0.7071
vn -0.0000 0.7071 0.7071
vn -0.0000 0.7071 0.7071
vn -0.0000 0.7071 0.7071
vn -0.0000 0.7071 0.7071
vn 0.0000 -1.0000 -0.0000
vn 0.0000 -1.0000 -0.0000
vn 0.0000 -1.0000 -0.0000
vn 0.0000 -1.0000 -0.0000
vn -0.0000 -0.0000 1.0000
vn -0.0000 -0.0000 1.0000
vn -0.0000 -0.0000 1.0000
vn -0.0000 -0.0000 1.0000
vn 1.0000 0.0000 -0.0000
vn 1.0000 0.0000 -0.0000
vn 1.0000 0.0000 -0.0000
vn 1.0000 0.0000 -0.0000
vn 0.0000 1.0000 -0.0000
vn 0.0000 1.0000 -0.0000
vn 0.0000 1.0000 -0.0000
vn 0.0000 1.0000 -0.0000
vn -1.0000 0.0000 -0.0000
vn -1.0000 0.0000 -0.0000
vn -1.0000 0.0000 -0.0000
vn -1.0000 0.0000 -0.0000
vn 0.0000 0.0000 -1.0000
vn 0.0000 0.0000 -1.0000
vn 0.0000 0.0000 -1.0000
vn 0.0000 0.0000 -1.0000
vn -0.5774 -0.5774 0.5772
vn -0.5774 -0.5774 0.5772
vn -0.5774 -0.5774 0.5772
vn -0.5774 0.5774 0.5773
vn -0.5774 0.5774 0.5773
vn -0.5774 0.5774 0.5773
vn -0.5773 -0.5773 -0.5774
vn -0.5773 -0.5773 -0.5774
vn -0.5773 -0.5773 -0.5774
vn -0.5774 0.5773 -0.5774
vn -0.5774 0.5773 -0.5774
vn -0.5774 0.5773 -0.5774
vn 0.5774 -0.5774 0.5773
vn 0.5774 -0.5774 0.5773
vn 0.5774 -0.5774 0.5773
vn 0.5772 0.5774 0.5775
vn 0.5772 0.5774 0.5775
vn 0.5772 0.5774 0.5775
vn 0.5773 -0.5774 -0.5774
vn 0.5773 -0.5774 -0.5774
vn 0.5773 -0.5774 -0.5774
vn 0.5773 0.5774 -0.5773
vn 0.5773 0.5774 -0.5773
vn 0.5773 0.5774 -0.5773
vn -0.7071 -0.7071 -0.0001
vn -0.7071 -0.7071 -0.0001
vn -0.7071 -0.7071 -0.0001
vn -0.7071 -0.7071 -0.0001
vn -0.7071 -0.0000 0.7071
vn -0.7071 -0.0000 0.7071
vn -0.7071 -0.0000 0.7071
vn -0.7071 -0.0000 0.7071
vn -0.7071 0.7071 -0.0000
vn -0.7071 0.7071 -0.0000
vn -0.7071 0.7071 -0.0000
vn -0.7071 0.7071 -0.0000
vn -0.7071 0.0000 -0.7071
vn -0.7071 0.0000 -0.7071
vn -0.7071 0.0000 -0.7071
vn -0.7071 0.0000 -0.7071
vn 0.0000 -0.7071 -0.7071
vn 0.0000 -0.7071 -0.7071
vn 0.0000 -0.7071 -0.7071
vn 0.0000 -0.7071 -0.7071
vn 0.0000 0.7071 -0.7071
vn 0.0000 0.7071 -0.7071
vn 0.0000 0.7071 -0.7071
vn 0.0000 0.7071 -0.7071
vn 0.7071 0.0000 -0.7071
vn 0.7071 0.0000 -0.7071
vn 0.7071 0.0000 -0.7071
vn 0.7071 0.0000 -0.7071
vn 0.7071 -0.7071 -0.0000
vn 0.7071 -0.7071 -0.0000
vn 0.7071 -0.7071 -0.0000
vn 0.7071 -0.7071 -0.0000
vn 0.7071 0.7071 0.0000
vn 0.7071 0.7071 0.0000
vn 0.7071 0.7071 0.0000
vn 0.7071 0.7071 0.0000
vn 0.7071 -0.0000 0.7071
vn 0.7071 -0.0000 0.7071
vn 0.7071 -0.0000 0.7071
vn 0.7071 -0.0000 0.7071
vn -0.0000 -0.7071 0.7071
vn -0.0000 -0.7071 0.7071
vn -0.0000 -0.7071 0.7071
vn -0.0000 -0.7071 0.7071
vn -0.0000 0.7071 0.7071
vn -0.0000 0.7071 0.7071
vn -0.0000 0.7071 0.7071
vn -0.0000 0.7071 0.7071
vn 0.0000 -1.0000 -0.0000
vn 0.0000 -1.0000 -0.0000
vn 0.0000 -1.0000 -0.0000
vn 0.0000 -1.0000 -0.0000
vn -0.0000 -0.0000 1.0000
vn -0.0000 -0.0000 1.0000
vn -0.0000 -0.0000 1.0000
vn -0.0000 -0.0000 1.0000
vn 1.0000 0.0000 -0.0000
vn 1.0000 0.0000 -0.0000
vn 1.0000 0.0000 -0.0000
vn 1.0000 0.0000 -0.0000
vn 0.0000 1.0000 -0.0000
vn 0.0000 1.0000 -0.0000
vn 0.0000 1.0000 -0.0000
vn 0.0000 1.0000 -0.0000
vn -1.0000 0.0000 -0.0000
vn -1.0000 0.0000 -0.0000
vn -1.0000 0.0000 -0.0000
vn -1.0000 0.0000 -0.0000
vn 0.0000 0.0000 -1.0000
vn 0.0000 0.0000 -1.0000
vn 0.0000 0.0000 -1.0000
vn 0.0000 0.0000 -1.0000
vn -0.5774 -0.5774 0.5772
vn -0.5774 -0.5774 0.5772
vn -0.5774 -0.5774 0.5772
vn -0.5773 0.5774 0.5774
vn -0.5773 0.5774 0.5774
vn -0.5773 0.5774 0.5774
vn -0.5773 -0.5773 -0.5774
vn -0.5773 -0.5773 -0.5774
vn -0.5773 -0.5773 -0.5774
vn -0.5773 0.5774 -0.5774
vn -0.5773 0.5774 -0.5774
vn -0.5773 0.5774 -0.5774
vn 0.5774 -0.5773 0.5774
vn 0.5774 -0.5773 0.5774
vn 0.5774 -0.5773 0.5774
vn 0.5772 0.5774 0.5775
vn 0.5772 0.5774 0.5775
vn 0.5772 0.5774 0.5775
vn 0.5774 -0.5773 -0.5774
vn 0.5774 -0.5773 -0.5774
vn 0.5774 -0.5773 -0.5774
vn 0.5773 0.5774 -0.5773
vn 0.5773 0.5774 -0.5773
vn 0.5773 0.5774 -0.5773
vn -0.7071 -0.7071 -0.0001
vn -0.7071 -0.7071 -0.0001
vn -0.7071 -0.7071 -0.0001
vn -0.7071 -0.7071 -0.0001
vn -0.7071 -0.0000 0.7071
vn -0.7071 -0.0000 0.7071
vn -0.7071 -0.0000 0.7071
vn -0.7071 -0.0000 0.7071
vn -0.7071 0.7071 -0.0000
vn -0.7071 0.7071 -0.0000
vn -0.7071 0.7071 -0.0000
vn -0.7071 0.7071 -0.0000
vn -0.7071 0.0000 -0.7071
vn -0.7071 0.0000 -0.7071
vn -0.7071 0.0000 -0.7071
vn -0.7071 0.0000 -0.7071
vn 0.0000 -0.7071 -0.7071
vn 0.0000 -0.7071 -0.7071
vn 0.0000 -0.7071 -0.7071
vn 0.0000 -0.7071 -0.7071
vn 0.0000 0.7071 -0.7071
vn 0.0000 0.7071 -0.7071
vn 0.0000 0.7071 -0.7071
vn 0.0000 0.7071 -0.7071
vn 0.7071 0.0000 -0.7071
vn 0.7071 0.0000 -0.7071
vn 0.7071 0.0000 -0.7071
vn 0.7071 0.0000 -0.7071
vn 0.7071 -0.7071 -0.0000
vn 0.7071 -0.7071 -0.0000
vn 0.7071 -0.7071 -0.0000
vn 0.7071 -0.7071 -0.0000
vn 0.7071 0.7071 0.0000
vn 0.7071 0.7071 0.0000
vn 0.7071 0.7071 0.0000
vn 0.7071 0.7071 0.0000
vn 0.7071 -0.0000 0.7071
vn 0.7071 -0.0000 0.7071
vn 0.7071 -0.0000 0.7071
vn 0.7071 -0.0000 0.7071
vn -0.0000 -0.7071 0.7071
vn -0.0000 -0.7071 0.7071
vn -0.0000 -0.7071 0.7071
vn -0.0000 -0.7071 0.7071
vn -0.0000 0.7071 0.7071
vn -0.0000 0.7071 0.7071
vn -0.0000 0.7071 0.7071
vn -0.0000 0.7071 0.7071
vn 0.0000 -1.0000 -0.0000
vn 0.0000 -1.0000 -0.0000
vn 0.0000 -1.0000 -0.0000
vn 0.0000 -1.0000 -0.0000
vn 0.9659 -0.2588 0.0000
vn -0.0000 -0.0000 1.0000
vn -0.0000 -0.0000 1.0000
vn -0.0000 -0.0000 1.0000
vn -0.0000 -0.0000 1.0000
vn 0.9397 -0.3420 0.0000
vn 0.9397 -0.3420 0.0000
vn 0.9397 -0.3420 0.0000
vn 0.9397 -0.3420 0.0000
vn 0.3420 0.9397 0.0001
vn 0.3420 0.9397 0.0001
vn 0.3420 0.9397 0.0001
vn 0.3420 0.9397 0.0001
vn -0.9397 0.3420 0.0000
vn -0.9397 0.3420 0.0000
vn -0.9397 0.3420 0.0000
vn -0.9397 0.3420 0.0000
vn 0.0000 0.0000 -1.0000
vn 0.0000 0.0000 -1.0000
vn 0.0000 0.0000 -1.0000
vn 0.0000 0.0000 -1.0000
vn -0.7400 -0.3451 0.5773
vn -0.7400 -0.3451 0.5773
vn -0.7400 -0.3451 0.5773
vn -0.3451 0.7399 0.5774
vn -0.3451 0.7399 0.5774
vn -0.3451 0.7399 0.5774
vn -0.7400 -0.3451 -0.5773
vn -0.7400 -0.3451 -0.5773
vn -0.7400 -0.3451 -0.5773
vn -0.3451 0.7400 -0.5774
vn -0.3451 0.7400 -0.5774
vn -0.3451 0.7400 -0.5774
vn 0.3451 -0.7400 0.5774
vn 0.3451 -0.7400 0.5774
vn 0.3451 -0.7400 0.5774
vn 0.7399 0.3451 0.5774
vn 0.7399 0.3451 0.5774
vn 0.7399 0.3451 0.5774
vn 0.3451 -0.7400 -0.5773
vn 0.3451 -0.7400 -0.5773
vn 0.3451 -0.7400 -0.5773
vn 0.7400 0.3451 -0.5773
vn 0.7400 0.3451 -0.5773
vn 0.7400 0.3451 -0.5773
vn -0.9063 -0.4226 -0.0000
vn -0.9063 -0.4226 -0.0000
vn -0.9063 -0.4226 -0.0000
vn -0.9063 -0.4226 -0.0000
vn -0.6645 0.2418 0.7071
vn -0.6645 0.2418 0.7071
vn -0.6645 0.2418 0.7071
vn -0.6645 0.2418 0.7071
vn -0.4226 0.9063 0.0000
vn -0.4226 0.9063 0.0000
vn -0.4226 0.9063 0.0000
vn -0.4226 0.9063 0.0000
vn -0.6645 0.2418 -0.7071
vn -0.6645 0.2418 -0.7071
vn -0.6645 0.2418 -0.7071
vn -0.6645 0.2418 -0.7071
vn -0.2418 -0.6644 -0.7072
vn -0.2418 -0.6644 -0.7072
vn -0.2418 -0.6644 -0.7072
vn -0.2418 -0.6644 -0.7072
vn 0.2418 0.6645 -0.7071
vn 0.2418 0.6645 -0.7071
vn 0.2418 0.6645 -0.7071
vn 0.2418 0.6645 -0.7071
vn 0.6645 -0.2418 -0.7071
vn 0.6645 -0.2418 -0.7071
vn 0.6645 -0.2418 -0.7071
vn 0.6645 -0.2418 -0.7071
vn 0.4226 -0.9063 0.0000
vn 0.4226 -0.9063 0.0000
vn 0.4226 -0.9063 0.0000
vn 0.4226 -0.9063 0.0000
vn 0.9063 0.4226 0.0001
vn 0.9063 0.4226 0.0001
vn 0.9063 0.4226 0.0001
vn 0.9063 0.4226 0.0001
vn 0.6645 -0.2418 0.7071
vn 0.6645 -0.2418 0.7071
vn 0.6645 -0.2418 0.7071
vn 0.6645 -0.2418 0.7071
vn -0.2418 -0.6645 0.7070
vn -0.2418 -0.6645 0.7070
vn -0.2418 -0.6645 0.7070
vn -0.2418 -0.6645 0.7070
vn 0.2418 0.6645 0.7071
vn 0.2418 0.6645 0.7071
vn 0.2418 0.6645 0.7071
vn 0.2418 0.6645 0.7071
vn -0.3420 -0.9397 -0.0000
vn -0.3420 -0.9397 -0.0000
vn -0.3420 -0.9397 -0.0000
vn -0.3420 -0.9397 -0.0000
vn -0.9659 -0.2588 -0.0000
vn -0.0000 -0.0000 1.0000
vn -0.0000 -0.0000 1.0000
vn -0.0000 -0.0000 1.0000
vn -0.0000 -0.0000 1.0000
vn 0.9397 0.3420 0.0001
vn 0.9397 0.3420 0.0001
vn 0.9397 0.3420 0.0001
vn 0.9397 0.3420 0.0001
vn -0.3420 0.9397 0.0000
vn -0.3420 0.9397 0.0000
vn -0.3420 0.9397 0.0000
vn -0.3420 0.9397 0.0000
vn -0.9397 -0.3420 -0.0000
vn -0.9397 -0.3420 -0.0000
vn -0.9397 -0.3420 -0.0000
vn -0.9397 -0.3420 -0.0000
vn 0.0000 0.0000 -1.0000
vn 0.0000 0.0000 -1.0000
vn 0.0000 0.0000 -1.0000
vn 0.0000 0.0000 -1.0000
vn -0.3451 -0.7400 0.5773
vn -0.3451 -0.7400 0.5773
vn -0.3451 -0.7400 0.5773
vn -0.7400 0.3451 0.5774
vn -0.7400 0.3451 0.5774
vn -0.7400 0.3451 0.5774
vn -0.3450 -0.7400 -0.5774
vn -0.3450 -0.7400 -0.5774
vn -0.3450 -0.7400 -0.5774
vn -0.7400 0.3450 -0.5774
vn -0.7400 0.3450 -0.5774
vn -0.7400 0.3450 -0.5774
vn 0.7400 -0.3451 0.5773
vn 0.7400 -0.3451 0.5773
vn 0.7400 -0.3451 0.5773
vn 0.3451 0.7399 0.5774
vn 0.3451 0.7399 0.5774
vn 0.3451 0.7399 0.5774
vn 0.7400 -0.3451 -0.5773
vn 0.7400 -0.3451 -0.5773
vn 0.7400 -0.3451 -0.5773
vn 0.3451 0.7401 -0.5772
vn 0.3451 0.7401 -0.5772
vn 0.3451 0.7401 -0.5772
vn -0.4226 -0.9063 -0.0000
vn -0.4226 -0.9063 -0.0000
vn -0.4226 -0.9063 -0.0000
vn -0.4226 -0.9063 -0.0000
vn -0.6645 -0.2418 0.7070
vn -0.6645 -0.2418 0.7070
vn -0.6645 -0.2418 0.7070
vn -0.6645 -0.2418 0.7070
vn -0.9063 0.4226 0.0000
vn -0.9063 0.4226 0.0000
vn -0.9063 0.4226 0.0000
vn -0.9063 0.4226 0.0000
vn -0.6644 -0.2418 -0.7072
vn -0.6644 -0.2418 -0.7072
vn -0.6644 -0.2418 -0.7072
vn -0.6644 -0.2418 -0.7072
vn 0.2418 -0.6645 -0.7071
vn 0.2418 -0.6645 -0.7071
vn 0.2418 -0.6645 -0.7071
vn 0.2418 -0.6645 -0.7071
vn -0.2418 0.6645 -0.7071
vn -0.2418 0.6645 -0.7071
vn -0.2418 0.6645 -0.7071
vn -0.2418 0.6645 -0.7071
vn 0.6645 0.2418 -0.7071
vn 0.6645 0.2418 -0.7071
vn 0.6645 0.2418 -0.7071
vn 0.6645 0.2418 -0.7071
vn 0.9063 -0.4226 0.0000
vn 0.9063 -0.4226 0.0000
vn 0.9063 -0.4226 0.0000
vn 0.9063 -0.4226 0.0000
vn 0.4226 0.9063 0.0001
vn 0.4226 0.9063 0.0001
vn 0.4226 0.9063 0.0001
vn 0.4226 0.9063 0.0001
vn 0.6645 0.2418 0.7071
vn 0.6645 0.2418 0.7071
vn 0.6645 0.2418 0.7071
vn 0.6645 0.2418 0.7071
vn 0.2418 -0.6645 0.7071
vn 0.2418 -0.6645 0.7071
vn 0.2418 -0.6645 0.7071
vn 0.2418 -0.6645 0.7071
vn -0.2418 0.6645 0.7071
vn -0.2418 0.6645 0.7071
vn -0.2418 0.6645 0.7071
vn -0.2418 0.6645 0.7071
vn 0.3420 -0.9397 0.0000
vn 0.3420 -0.9397 0.0000
vn 0.3420 -0.9397 0.0000
vn 0.3420 -0.9397 0.0000
vn 0.0000 0.0000 -1.0000
vn 0.0000 0.0000 -1.0000
vn 0.0000 0.0000 -1.0000
vn 0.0000 0.0000 -1.0000
vn 0.0000 0.0000 -1.0000
vn 0.6917 0.6917 0.2075
vn 0.6917 0.6917 0.2075
vn 0.6917 0.6917 0.2075
vn 0.6917 -0.6917 0.2075
vn 0.6917 -0.6917 0.2075
vn 0.6917 -0.6917 0.2075
vn -0.6917 -0.6917 0.2074
vn -0.6917 -0.6917 0.2074
vn -0.6917 -0.6917 0.2074
vn -0.6917 0.6917 0.2075
vn -0.6917 0.6917 0.2075
vn -0.6917 0.6917 0.2075
f 189//189 191//191 190//190
f 189//189 190//190 192//192
f 193//193 195//195 194//194
f 193//193 194//194 196//196
f 197//197 199//199 198//198
f 197//197 198//198 200//200
f 201//201 203//203 202//202
f 201//201 202//202 204//204
f 205//205 207//207 206//206
f 205//205 206//206 208//208
f 209//209 211//211 210//210
f 212//212 214//214 213//213
f 215//215 217//217 216//216
f 218//218 220//220 219//219
f 221//221 223//223 222//222
f 224//224 226//226 225//225
f 227//227 229//229 228//228
f 230//230 232//232 231//231
f 233//233 235//235 234//234
f 233//233 234//234 236//236
f 237//237 239//239 238//238
f 237//237 238//238 240//240
f 241//241 243//243 242//242
f 241//241 242//242 244//244
f 245//245 247//247 246//246
f 245//245 246//246 248//248
f 249//249 251//251 250//250
f 249//249 250//250 252//252
f 253//253 255//255 254//254
f 253//253 254//254 256//256
f 257//257 259//259 258//258
f 257//257 258//258 260//260
f 261//261 263//263 262//262
f 261//261 262//262 264//264
f 265//265 267//267 266//266
f 265//265 266//266 268//268
f 269//269 271//271 270//270
f 269//269 270//270 272//272
f 273//273 275//275 274//274
f 273//273 274//274 276//276
f 277//277 279//279 278//278
f 277//277 278//278 280//280
f 281//281 283//283 282//282
f 281//281 282//282 284//284
f 285//285 287//287 286//286
f 285//285 286//286 288//288
f 289//289 291//291 290//290
f 289//289 290//290 292//292
f 293//293 295//295 294//294
f 293//293 294//294 296//296
f 297//297 299//299 298//298
f 297//297 298//298 300//300
f 301//301 303//303 302//302
f 301//301 302//302 304//304
f 305//305 307//307 306//306
f 308//308 310//310 309//309
f 311//311 313//313 312//312
f 314//314 316//316 315//315
f 317//317 319//319 318//318
f 320//320 322//322 321//321
f 323//323 325//325 324//324
f 326//326 328//328 327//327
f 329//329 331//331 330//330
f 329//329 330//330 332//332
f 333//333 335//335 334//334
f 333//333 334//334 336//336
f 337//337 339//339 338//338
f 337//337 338//338 340//340
f 341//341 343//343 342//342
f 341//341 342//342 344//344
f 345//345 347//347 346//346
f 345//345 346//346 348//348
f 349//349 351//351 350//350
f 349//349 350//350 352//352
f 353//353 355//355 354//354
f 353//353 354//354 356//356
f 357//357 359//359 358//358
f 357//357 358//358 360//360
f 361//361 363//363 362//362
f 361//361 362//362 364//364
f 365//365 367//367 366//366
f 365//365 366//366 368//368
f 369//369 371//371 370//370
f 369//369 370//370 372//372
f 373//373 375//375 374//374
f 373//373 374//374 376//376
f 377//377 379//379 378//378
f 377//377 378//378 380//380
f 381//381 383//383 382//382
f 381//381 382//382 384//384
f 385//385 387//387 386//386
f 385//385 386//386 388//388
f 389//389 391//391 390//390
f 389//389 390//390 392//392
f 393//393 395//395 394//394
f 393//393 394//394 396//396
f 397//397 399//399 398//398
f 397//397 398//398 400//400
f 401//401 403//403 402//402
f 404//404 406//406 405//405
f 407//407 409//409 408//408
f 410//410 412//412 411//411
f 413//413 415//415 414//414
f 416//416 418//418 417//417
f 419//419 421//421 420//420
f 422//422 424//424 423//423
f 425//425 427//427 426//426
f 425//425 426//426 428//428
f 429//429 431//431 430//430
f 429//429 430//430 432//432
f 433//433 435//435 434//434
f 433//433 434//434 436//436
f 437//437 439//439 438//438
f 437//437 438//438 440//440
f 441//441 443//443 442//442
f 441//441 442//442 444//444
f 445//445 447//447 446//446
f 445//445 446//446 448//448
f 449//449 451//451 450//450
f 449//449 450//450 452//452
f 453//453 455//455 454//454
f 453//453 454//454 456//456
f 457//457 459//459 458//458
f 457//457 458//458 460//460
f 461//461 463//463 462//462
f 461//461 462//462 464//464
f 465//465 467//467 466//466
f 465//465 466//466 468//468
f 469//469 471//471 470//470
f 469//469 470//470 472//472
f 473//473 475//475 474//474
f 473//473 474//474 476//476
f 477//477 479//479 478//478
f 477//477 478//478 480//480
f 481//481 483//483 482//482
f 481//481 482//482 484//484
f 485//485 487//487 486//486
f 485//485 486//486 488//488
f 489//489 491//491 490//490
f 489//489 490//490 492//492
f 493//493 495//495 494//494
f 493//493 494//494 496//496
f 497//497 499//499 498//498
f 500//500 502//502 501//501
f 503//503 505//505 504//504
f 506//506 508//508 507//507
f 509//509 511//511 510//510
f 512//512 514//514 513//513
f 515//515 517//517 516//516
f 518//518 520//520 519//519
f 521//521 523//523 522//522
f 521//521 522//522 524//524
f 525//525 527//527 526//526
f 525//525 526//526 528//528
f 529//529 531//531 530//530
f 529//529 530//530 532//532
f 533//533 535//535 534//534
f 533//533 534//534 536//536
f 537//537 539//539 538//538
f 537//537 538//538 540//540
f 541//541 543//543 542//542
f 541//541 542//542 544//544
f 545//545 547//547 546//546
f 545//545 546//546 548//548
f 549//549 551//551 550//550
f 549//549 550//550 552//552
f 553//553 555//555 554//554
f 553//553 554//554 556//556
f 557//557 559//559 558//558
f 557//557 558//558 560//560
f 561//561 563//563 562//562
f 561//561 562//562 564//564
f 565//565 567//567 566//566
f 565//565 566//566 568//568
f 569//569 571//571 570//570
f 569//569 570//570 572//572
f 1//1 3//3 2//2
f 1//1 2//2 4//4
f 5//5 7//7 6//6
f 5//5 6//6 8//8
f 9//9 11//11 10//10
f 9//9 10//10 12//12
f 13//13 15//15 14//14
f 13//13 14//14 16//16
f 17//17 19//19 18//18
f 17//17 18//18 20//20
f 21//21 23//23 22//22
f 24//24 26//26 25//25
f 27//27 29//29 28//28
f 30//30 32//32 31//31
f 33//33 35//35 34//34
f 36//36 38//38 37//37
f 39//39 41//41 40//40
f 42//42 44//44 43//43
f 45//45 47//47 46//46
f 45//45 46//46 48//48
f 49//49 51//51 50//50
f 49//49 50//50 52//52
f 53//53 55//55 54//54
f 53//53 54//54 56//56
f 57//57 59//59 58//58
f 57//57 58//58 60//60
f 61//61 63//63 62//62
f 61//61 62//62 64//64
f 65//65 67//67 66//66
f 65//65 66//66 68//68
f 69//69 71//71 70//70
f 69//69 70//70 72//72
f 73//73 75//75 74//74
f 73//73 74//74 76//76
f 77//77 79//79 78//78
f 77//77 78//78 80//80
f 81//81 83//83 82//82
f 81//81 82//82 84//84
f 85//85 87//87 86//86
f 85//85 86//86 88//88
f 89//89 91//91 90//90
f 89//89 90//90 92//92
f 93//93 95//95 94//94
f 93//93 94//94 96//96
f 97//97 99//99 98//98
f 100//100 102//102 101//101
f 103//103 105//105 104//104
f 106//106 108//108 107//107
f 109//109 111//111 110//110
f 112//112 114//114 113//113
f 115//115 117//117 116//116
f 118//118 120//120 119//119
f 121//121 123//123 122//122
f 124//124 126//126 125//125
f 127//127 129//129 128//128
f 130//130 132//132 131//131
f 133//133 135//135 134//134
f 136//136 138//138 137//137
f 139//139 141//141 140//140
f 142//142 144//144 143//143
f 145//145 147//147 146//146
f 148//148 150//150 149//149
f 151//151 153//153 152//152
f 154//154 156//156 155//155
f 573//573 160//160 162//162
f 573//573 162//162 161//161
f 573//573 163//163 160//160
f 573//573 161//161 163//163
f 157//157 159//159 158//158
f 164//164 166//166 165//165
f 167//167 169//169 168//168
f 170//170 172//172 171//171
f 574//574 576//576 575//575
f 574//574 575//575 577//577
f 578//578 580//580 579//579
f 578//578 579//579 581//581
f 582//582 584//584 583//583
f 582//582 583//583 585//585
f 586//586 588//588 587//587
f 586//586 587//587 589//589
f 590//590 592//592 591//591
f 590//590 591//591 593//593
f 594//594 596//596 595//595
f 597//597 599//599 598//598
f 600//600 602//602 601//601
f 603//603 605//605 604//604
f 606//606 608//608 607//607
f 609//609 611//611 610//610
f 612//612 614//614 613//613
f 615//615 617//617 616//616
f 618//618 620//620 619//619
f 618//618 619//619 621//621
f 622//622 624//624 623//623
f 622//622 623//623 625//625
f 626//626 628//628 627//627
f 626//626 627//627 629//629
f 630//630 632//632 631//631
f 630//630 631//631 633//633
f 634//634 636//636 635//635
f 634//634 635//635 637//637
f 638//638 640//640 639//639
f 638//638 639//639 641//641
f 642//642 644//644 643//643
f 642//642 643//643 645//645
f 646//646 648//648 647//647
f 646//646 647//647 649//649
f 650//650 652//652 651//651
f 650//650 651//651 653//653
f 654//654 656//656 655//655
f 654//654 655//655 657//657
f 658//658 660//660 659//659
f 658//658 659//659 661//661
f 662//662 664//664 663//663
f 662//662 663//663 665//665
f 666//666 668//668 667//667
f 666//666 667//667 669//669
f 670//670 182//182 179//179
f 670//670 179//179 181//181
f 670//670 180//180 182//182
f 670//670 181//181 180//180
f 173//173 175//175 174//174
f 176//176 178//178 177//177
f 183//183 185//185 184//184
f 186//186 188//188 187//187
f 671//671 673//673 672//672
f 671//671 672//672 674//674
f 675//675 677//677 676//676
f 675//675 676//676 678//678
f 679//679 681//681 680//680
f 679//679 680//680 682//682
f 683//683 685//685 684//684
f 683//683 684//684 686//686
f 687//687 689//689 688//688
f 687//687 688//688 690//690
f 691//691 693//693 692//692
f 694//694 696//696 695//695
f 697//697 699//699 698//698
f 700//700 702//702 701//701
f 703//703 705//705 704//704
f 706//706 708//708 707//707
f 709//709 711//711 710//710
f 712//712 714//714 713//713
f 715//715 717//717 716//716
f 715//715 716//716 718//718
f 719//719 721//721 720//720
f 719//719 720//720 722//722
f 723//723 725//725 724//724
f 723//723 724//724 726//726
f 727//727 729//729 728//728
f 727//727 728//728 730//730
f 731//731 733//733 732//732
f 731//731 732//732 734//734
f 735//735 737//737 736//736
f 735//735 736//736 738//738
f 739//739 741//741 740//740
f 739//739 740//740 742//742
f 743//743 745//745 744//744
f 743//743 744//744 746//746
f 747//747 749//749 748//748
f 747//747 748//748 750//750
f 751//751 753//753 752//752
f 751//751 752//752 754//754
f 755//755 757//757 756//756
f 755//755 756//756 758//758
f 759//759 761//761 760//760
f 759//759 760//760 762//762
f 763//763 765//765 764//764
f 763//763 764//764 766//766
f 767//767 769//769 768//768
f 767//767 768//768 770//770
f 767//767 771//771 769//769
f 767//767 770//770 771//771
f 772//772 774//774 773//773
f 775//775 777//777 776//776
f 778//778 780//780 779//779
f 781//781 783//783 782//782
g body_rag
usemtl rag
v 0.06821 0.08598 0.04950
v -0.06220 0.13402 0.04550
v 0.06220 0.13402 0.04550
v -0.06821 0.08598 0.04950
v 0.07426 0.08595 -0.04348
v 0.06824 0.13405 0.03948
v 0.06824 0.13405 -0.03948
v 0.07426 0.08595 0.04348
v 0.06150 0.14000 -0.03900
v -0.06150 0.14000 0.03900
v -0.06150 0.14000 -0.03900
v 0.06150 0.14000 0.03900
v -0.07426 0.08595 0.04348
v -0.06825 0.13405 -0.03948
v -0.06825 0.13405 0.03948
v -0.07426 0.08595 -0.04348
v -0.06821 0.08598 -0.04950
v 0.06220 0.13402 -0.04550
v -0.06220 0.13402 -0.04550
v 0.06821 0.08598 -0.04950
v -0.06900 0.08000 0.04400
v -0.07426 0.08595 0.04348
v -0.06821 0.08598 0.04950
v -0.06220 0.13402 0.04550
v -0.06825 0.13405 0.03948
v -0.06150 0.14000 0.03900
v -0.06900 0.08000 -0.04400
v -0.06821 0.08598 -0.04950
v -0.07426 0.08595 -0.04348
v -0.06150 0.14000 -0.03900
v -0.06825 0.13405 -0.03948
v -0.06220 0.13402 -0.04550
v 0.06900 0.08000 0.04400
v 0.06821 0.08598 0.04950
v 0.07426 0.08595 0.04348
v 0.06150 0.14000 0.03900
v 0.06824 0.13405 0.03948
v 0.06220 0.13402 0.04550
v 0.06900 0.08000 -0.04400
v 0.07426 0.08595 -0.04348
v 0.06821 0.08598 -0.04950
v 0.06150 0.14000 -0.03900
v 0.06220 0.13402 -0.04550
v 0.06824 0.13405 -0.03948
v -0.06900 0.08000 -0.04400
v -0.07426 0.08595 0.04348
v -0.06900 0.08000 0.04400
v -0.07426 0.08595 -0.04348
v -0.06821 0.08598 0.04950
v -0.06825 0.13405 0.03948
v -0.06220 0.13402 0.04550
v -0.07426 0.08595 0.04348
v -0.06150 0.14000 0.03900
v -0.06825 0.13405 -0.03948
v -0.06150 0.14000 -0.03900
v -0.06825 0.13405 0.03948
v -0.06220 0.13402 -0.04550
v -0.07426 0.08595 -0.04348
v -0.06821 0.08598 -0.04950
v -0.06825 0.13405 -0.03948
v 0.06900 0.08000 -0.04400
v -0.06821 0.08598 -0.04950
v -0.06900 0.08000 -0.04400
v 0.06821 0.08598 -0.04950
v -0.06150 0.14000 -0.03900
v 0.06220 0.13402 -0.04550
v 0.06150 0.14000 -0.03900
v -0.06220 0.13402 -0.04550
v 0.06824 0.13405 -0.03948
v 0.06821 0.08598 -0.04950
v 0.07426 0.08595 -0.04348
v 0.06220 0.13402 -0.04550
v 0.06900 0.08000 0.04400
v 0.07426 0.08595 -0.04348
v 0.06900 0.08000 -0.04400
v 0.07426 0.08595 0.04348
v 0.06150 0.14000 -0.03900
v 0.06824 0.13405 0.03948
v 0.06150 0.14000 0.03900
v 0.06824 0.13405 -0.03948
v 0.06220 0.13402 0.04550
v 0.07426 0.08595 0.04348
v 0.06821 0.08598 0.04950
v 0.06824 0.13405 0.03948
v -0.06900 0.08000 0.04400
v 0.06821 0.08598 0.04950
v 0.06900 0.08000 0.04400
v -0.06821 0.08598 0.04950
v 0.06150 0.14000 0.03900
v -0.06220 0.13402 0.04550
v -0.06150 0.14000 0.03900
v 0.06220 0.13402 0.04550
v -0.06900 0.08000 -0.04400
v 0.06900 0.08000 0.04400
v 0.06900 0.08000 -0.04400
v -0.06900 0.08000 0.04400
vn 0.0412 0.0415 0.9983
vn 0.0412 0.0415 0.9983
vn 0.0412 0.0415 0.9983
vn 0.0412 0.0415 0.9983
vn -0.7016 -0.0880 -0.7071
vn -0.7016 -0.0880 -0.7071
vn -0.7016 -0.0880 -0.7071
vn -0.7016 -0.0880 -0.7071
vn -0.0000 0.7071 0.7071
vn -0.0000 0.7071 0.7071
vn -0.0000 0.7071 0.7071
vn -0.0000 0.7071 0.7071
vn -0.0005 0.9923 0.1235
vn -0.0005 0.9923 0.1235
vn -0.0005 0.9923 0.1235
vn -0.0005 0.9923 0.1235
vn 0.7043 -0.7093 -0.0295
vn 0.7043 -0.7093 -0.0295
vn 0.7043 -0.7093 -0.0295
vn 0.7043 -0.7093 -0.0295
vn -0.7047 0.6258 0.3342
vn -0.7047 0.6258 0.3342
vn -0.7047 0.6258 0.3342
vn 0.0910 0.6244 0.7758
vn 0.0910 0.6244 0.7758
vn 0.0910 0.6244 0.7758
vn -0.1541 0.9606 -0.2313
vn -0.1541 0.9606 -0.2313
vn -0.1541 0.9606 -0.2313
vn -0.3326 0.8220 0.4623
vn -0.3326 0.8220 0.4623
vn -0.3326 0.8220 0.4623
vn 0.2234 -0.4082 0.8851
vn 0.2234 -0.4082 0.8851
vn 0.2234 -0.4082 0.8851
vn 0.3462 0.3353 0.8762
vn 0.3462 0.3353 0.8762
vn 0.3462 0.3353 0.8762
vn -0.7563 0.4891 -0.4344
vn -0.7563 0.4891 -0.4344
vn -0.7563 0.4891 -0.4344
vn -0.0844 -0.9072 -0.4121
vn -0.0844 -0.9072 -0.4121
vn -0.0844 -0.9072 -0.4121
vn 0.0584 0.8118 -0.5810
vn 0.0584 0.8118 -0.5810
vn 0.0584 0.8118 -0.5810
vn 0.0584 0.8118 -0.5810
vn -0.1227 0.7487 0.6515
vn -0.1227 0.7487 0.6515
vn -0.1227 0.7487 0.6515
vn -0.1227 0.7487 0.6515
vn -0.0755 0.7732 0.6296
vn -0.0755 0.7732 0.6296
vn -0.0755 0.7732 0.6296
vn -0.0755 0.7732 0.6296
vn -0.3337 0.9177 0.2155
vn -0.3337 0.9177 0.2155
vn -0.3337 0.9177 0.2155
vn -0.3337 0.9177 0.2155
vn -0.4595 0.8275 -0.3228
vn -0.4595 0.8275 -0.3228
vn -0.4595 0.8275 -0.3228
vn -0.4595 0.8275 -0.3228
vn 0.4028 -0.8381 -0.3678
vn 0.4028 -0.8381 -0.3678
vn 0.4028 -0.8381 -0.3678
vn 0.4028 -0.8381 -0.3678
vn 0.9052 -0.2398 0.3510
vn 0.9052 -0.2398 0.3510
vn 0.9052 -0.2398 0.3510
vn 0.9052 -0.2398 0.3510
vn 0.4958 -0.5054 0.7062
vn 0.4958 -0.5054 0.7062
vn 0.4958 -0.5054 0.7062
vn 0.4958 -0.5054 0.7062
vn -0.4152 -0.5744 -0.7055
vn -0.4152 -0.5744 -0.7055
vn -0.4152 -0.5744 -0.7055
vn -0.4152 -0.5744 -0.7055
vn 0.3977 -0.0235 0.9172
vn 0.3977 -0.0235 0.9172
vn 0.3977 -0.0235 0.9172
vn 0.3977 -0.0235 0.9172
vn -0.1978 -0.3562 0.9132
vn -0.1978 -0.3562 0.9132
vn -0.1978 -0.3562 0.9132
vn -0.1978 -0.3562 0.9132
vn 0.1896 0.3945 0.8991
vn 0.1896 0.3945 0.8991
vn 0.1896 0.3945 0.8991
vn 0.1896 0.3945 0.8991
vn -0.0000 -0.7071 0.7071
vn -0.0000 -0.7071 0.7071
vn -0.0000 -0.7071 0.7071
vn -0.0000 -0.7071 0.7071
f 784//784 786//786 785//785
f 784//784 785//785 787//787
f 788//788 790//790 789//789
f 788//788 789//789 791//791
f 792//792 794//794 793//793
f 792//792 793//793 795//795
f 796//796 798//798 797//797
f 796//796 797//797 799//799
f 800//800 802//802 801//801
f 800//800 801//801 803//803
f 804//804 806//806 805//805
f 807//807 809//809 808//808
f 810//810 812//812 811//811
f 813//813 815//815 814//814
f 816//816 818//818 817//817
f 819//819 821//821 820//820
f 822//822 824//824 823//823
f 825//825 827//827 826//826
f 828//828 830//830 829//829
f 828//828 829//829 831//831
f 832//832 834//834 833//833
f 832//832 833//833 835//835
f 836//836 838//838 837//837
f 836//836 837//837 839//839
f 840//840 842//842 841//841
f 840//840 841//841 843//843
f 844//844 846//846 845//845
f 844//844 845//845 847//847
f 848//848 850//850 849//849
f 848//848 849//849 851//851
f 852//852 854//854 853//853
f 852//852 853//853 855//855
f 856//856 858//858 857//857
f 856//856 857//857 859//859
f 860//860 862//862 861//861
f 860//860 861//861 863//863
f 864//864 866//866 865//865
f 864//864 865//865 867//867
f 868//868 870//870 869//869
f 868//868 869//869 871//871
f 872//872 874//874 873//873
f 872//872 873//873 875//875
f 876//876 878//878 877//877
f 876//876 877//877 879//879
g body_fire
usemtl fire
v -0.03400 0.28500 0.09000
v -0.03400 0.29700 0.08200
v -0.03400 0.29700 0.09000
v -0.03400 0.28500 0.08200
v -0.03400 0.28500 0.08200
v -0.01800 0.29700 0.08200
v -0.03400 0.29700 0.08200
v -0.01800 0.28500 0.08200
v -0.01800 0.28500 0.08200
v -0.01800 0.29700 0.09000
v -0.01800 0.29700 0.08200
v -0.01800 0.28500 0.09000
v -0.01800 0.28500 0.09000
v -0.03400 0.29700 0.09000
v -0.01800 0.29700 0.09000
v -0.03400 0.28500 0.09000
v -0.03400 0.28500 0.08200
v -0.01800 0.28500 0.09000
v -0.01800 0.28500 0.08200
v -0.03400 0.28500 0.09000
v -0.01800 0.29700 0.08200
v -0.03400 0.29700 0.09000
v -0.03400 0.29700 0.08200
v -0.01800 0.29700 0.09000
v 0.01800 0.28500 0.09000
v 0.01800 0.29700 0.08200
v 0.01800 0.29700 0.09000
v 0.01800 0.28500 0.08200
v 0.01800 0.28500 0.08200
v 0.03400 0.29700 0.08200
v 0.01800 0.29700 0.08200
v 0.03400 0.28500 0.08200
v 0.03400 0.28500 0.08200
v 0.03400 0.29700 0.09000
v 0.03400 0.29700 0.08200
v 0.03400 0.28500 0.09000
v 0.03400 0.28500 0.09000
v 0.01800 0.29700 0.09000
v 0.03400 0.29700 0.09000
v 0.01800 0.28500 0.09000
v 0.01800 0.28500 0.08200
v 0.03400 0.28500 0.09000
v 0.03400 0.28500 0.08200
v 0.01800 0.28500 0.09000
v 0.03400 0.29700 0.08200
v 0.01800 0.29700 0.09000
v 0.01800 0.29700 0.08200
v 0.03400 0.29700 0.09000
vn 0.0000 1.0000 -0.0000
vn 0.0000 1.0000 -0.0000
vn 0.0000 1.0000 -0.0000
vn 0.0000 1.0000 -0.0000
vn -0.7071 0.7071 -0.0000
vn -0.7071 0.7071 -0.0000
vn -0.7071 0.7071 -0.0000
vn -0.7071 0.7071 -0.0000
vn 0.7071 -0.0000 0.7071
vn 0.7071 -0.0000 0.7071
vn 0.7071 -0.0000 0.7071
vn 0.7071 -0.0000 0.7071
vn -0.0000 -0.0000 1.0000
vn -0.0000 -0.0000 1.0000
vn -0.0000 -0.0000 1.0000
vn -0.0000 -0.0000 1.0000
vn -0.0000 -0.7071 0.7071
vn -0.0000 -0.7071 0.7071
vn -0.0000 -0.7071 0.7071
vn -0.0000 -0.7071 0.7071
vn -0.0000 0.7071 0.7071
vn -0.0000 0.7071 0.7071
vn -0.0000 0.7071 0.7071
vn -0.0000 0.7071 0.7071
vn 0.0000 1.0000 -0.0000
vn 0.0000 1.0000 -0.0000
vn 0.0000 1.0000 -0.0000
vn 0.0000 1.0000 -0.0000
vn -0.7071 0.7071 -0.0000
vn -0.7071 0.7071 -0.0000
vn -0.7071 0.7071 -0.0000
vn -0.7071 0.7071 -0.0000
vn 0.7071 -0.0000 0.7071
vn 0.7071 -0.0000 0.7071
vn 0.7071 -0.0000 0.7071
vn 0.7071 -0.0000 0.7071
vn -0.0000 -0.0000 1.0000
vn -0.0000 -0.0000 1.0000
vn -0.0000 -0.0000 1.0000
vn -0.0000 -0.0000 1.0000
vn -0.0000 -0.7071 0.7071
vn -0.0000 -0.7071 0.7071
vn -0.0000 -0.7071 0.7071
vn -0.0000 -0.7071 0.7071
vn -0.0000 0.7071 0.7071
vn -0.0000 0.7071 0.7071
vn -0.0000 0.7071 0.7071
vn -0.0000 0.7071 0.7071
f 880//880 882//882 881//881
f 880//880 881//881 883//883
f 884//884 886//886 885//885
f 884//884 885//885 887//887
f 888//888 890//890 889//889
f 888//888 889//889 891//891
f 892//892 894//894 893//893
f 892//892 893//893 895//895
f 896//896 898//898 897//897
f 896//896 897//897 899//899
f 900//900 902//902 901//901
f 900//900 901//901 903//903
f 904//904 906//906 905//905
f 904//904 905//905 907//907
f 908//908 910//910 909//909
f 908//908 909//909 911//911
f 912//912 914//914 913//913
f 912//912 913//913 915//915
f 916//916 918//918 917//917
f 916//916 917//917 919//919
f 920//920 922//922 921//921
f 920//920 921//921 923//923
f 924//924 926//926 925//925
f 924//924 925//925 927//927
g body_bone
usemtl bone
v -0.03000 0.23500 0.09800
v -0.03000 0.25000 0.07800
v -0.03000 0.25000 0.09800
v -0.03000 0.23500 0.07800
v -0.03000 0.23500 0.07800
v 0.03000 0.25000 0.07800
v -0.03000 0.25000 0.07800
v 0.03000 0.23500 0.07800
v 0.03000 0.23500 0.07800
v 0.03000 0.25000 0.09800
v 0.03000 0.25000 0.07800
v 0.03000 0.23500 0.09800
v 0.03000 0.23500 0.09800
v -0.03000 0.25000 0.09800
v 0.03000 0.25000 0.09800
v -0.03000 0.23500 0.09800
v -0.03000 0.23500 0.07800
v 0.03000 0.23500 0.09800
v 0.03000 0.23500 0.07800
v -0.03000 0.23500 0.09800
v 0.03000 0.25000 0.07800
v -0.03000 0.25000 0.09800
v -0.03000 0.25000 0.07800
v 0.03000 0.25000 0.09800
vn 0.0000 1.0000 -0.0000
vn 0.0000 1.0000 -0.0000
vn 0.0000 1.0000 -0.0000
vn 0.0000 1.0000 -0.0000
vn -0.7071 0.7071 -0.0000
vn -0.7071 0.7071 -0.0000
vn -0.7071 0.7071 -0.0000
vn -0.7071 0.7071 -0.0000
vn 0.7071 -0.0000 0.7071
vn 0.7071 -0.0000 0.7071
vn 0.7071 -0.0000 0.7071
vn 0.7071 -0.0000 0.7071
vn -0.0000 -0.0000 1.0000
vn -0.0000 -0.0000 1.0000
vn -0.0000 -0.0000 1.0000
vn -0.0000 -0.0000 1.0000
vn -0.0000 -0.7071 0.7071
vn -0.0000 -0.7071 0.7071
vn -0.0000 -0.7071 0.7071
vn -0.0000 -0.7071 0.7071
vn -0.0000 0.7071 0.7071
vn -0.0000 0.7071 0.7071
vn -0.0000 0.7071 0.7071
vn -0.0000 0.7071 0.7071
f 928//928 930//930 929//929
f 928//928 929//929 931//931
f 932//932 934//934 933//933
f 932//932 933//933 935//935
f 936//936 938//938 937//937
f 936//936 937//937 939//939
f 940//940 942//942 941//941
f 940//940 941//941 943//943
f 944//944 946//946 945//945
f 944//944 945//945 947//947
f 948//948 950//950 949//949
f 948//948 949//949 951//951
o tool
g tool_wood_dark
usemtl wood_dark
v 0.09500 0.09706 0.02165
v 0.10712 0.17614 0.00771
v 0.09500 0.17433 0.00095
v 0.10712 0.09887 0.02841
v 0.10712 0.09887 0.02841
v 0.10712 0.17977 0.02123
v 0.10712 0.17614 0.00771
v 0.10712 0.10249 0.04194
v 0.10712 0.10249 0.04194
v 0.09500 0.18158 0.02799
v 0.10712 0.17977 0.02123
v 0.09500 0.10430 0.04870
v 0.09500 0.10430 0.04870
v 0.08288 0.17977 0.02123
v 0.09500 0.18158 0.02799
v 0.08288 0.10249 0.04194
v 0.10712 0.17977 0.02123
v 0.09500 0.17433 0.00095
v 0.10712 0.17614 0.00771
v 0.08288 0.17977 0.02123
v 0.09500 0.18158 0.02799
v 0.08288 0.17614 0.00771
v 0.08288 0.10249 0.04194
v 0.08288 0.17614 0.00771
v 0.08288 0.17977 0.02123
v 0.08288 0.09887 0.02841
v 0.08288 0.09887 0.02841
v 0.09500 0.17433 0.00095
v 0.08288 0.17614 0.00771
v 0.09500 0.09706 0.02165
v 0.08288 0.09887 0.02841
v 0.10712 0.09887 0.02841
v 0.09500 0.09706 0.02165
v 0.09500 0.10430 0.04870
v 0.08288 0.10249 0.04194
v 0.10712 0.10249 0.04194
vn 0.8581 -0.3841 0.3409
vn 0.8581 -0.3841 0.3409
vn 0.8581 -0.3841 0.3409
vn 0.8581 -0.3841 0.3409
vn 0.7071 0.1830 0.6830
vn 0.7071 0.1830 0.6830
vn 0.7071 0.1830 0.6830
vn 0.7071 0.1830 0.6830
vn 0.2563 0.1151 0.9597
vn 0.2563 0.1151 0.9597
vn 0.2563 0.1151 0.9597
vn 0.2563 0.1151 0.9597
vn -0.2330 0.6456 0.7273
vn -0.2330 0.6456 0.7273
vn -0.2330 0.6456 0.7273
vn -0.2330 0.6456 0.7273
vn -0.0000 0.8660 0.5000
vn -0.0000 0.8660 0.5000
vn -0.0000 0.8660 0.5000
vn -0.0000 0.8660 0.5000
vn -0.0000 0.8660 0.5000
vn -0.0000 0.8660 0.5000
vn 0.0000 0.9659 -0.2588
vn 0.0000 0.9659 -0.2588
vn 0.0000 0.9659 -0.2588
vn 0.0000 0.9659 -0.2588
vn -0.4681 0.8774 -0.1052
vn -0.4681 0.8774 -0.1052
vn -0.4681 0.8774 -0.1052
vn -0.4681 0.8774 -0.1052
vn -0.0000 -0.5001 0.8660
vn -0.0000 -0.5001 0.8660
vn -0.0000 -0.5001 0.8660
vn -0.0000 -0.5001 0.8660
vn -0.0000 -0.5001 0.8660
vn -0.0000 -0.5001 0.8660
f 952//952 954//954 953//953
f 952//952 953//953 955//955
f 956//956 958//958 957//957
f 956//956 957//957 959//959
f 960//960 962//962 961//961
f 960//960 961//961 963//963
f 964//964 966//966 965//965
f 964//964 965//965 967//967
f 968//968 970//970 969//969
f 969//969 971//971 968//968
f 971//971 972//972 968//968
f 969//969 973//973 971//971
f 974//974 976//976 975//975
f 974//974 975//975 977//977
f 978//978 980//980 979//979
f 978//978 979//979 981//981
f 982//982 984//984 983//983
f 983//983 985//985 982//982
f 985//985 986//986 982//982
f 983//983 987//987 985//985
g tool_wood
usemtl wood
v 0.09500 0.16053 -0.01192
v 0.12964 0.25005 -0.02555
v 0.09500 0.24488 -0.04487
v 0.12098 0.16441 0.00257
v 0.12098 0.16441 0.00257
v 0.12964 0.26041 0.01308
v 0.12964 0.25005 -0.02555
v 0.12098 0.17218 0.03155
v 0.12098 0.17218 0.03155
v 0.09500 0.26558 0.03240
v 0.12964 0.26041 0.01308
v 0.09500 0.17606 0.04604
v 0.09500 0.17606 0.04604
v 0.06036 0.26041 0.01308
v 0.09500 0.26558 0.03240
v 0.06902 0.17218 0.03155
v 0.12964 0.26041 0.01308
v 0.09500 0.24488 -0.04487
v 0.12964 0.25005 -0.02555
v 0.06036 0.26041 0.01308
v 0.09500 0.26558 0.03240
v 0.06036 0.25005 -0.02555
v 0.06902 0.17218 0.03155
v 0.06036 0.25005 -0.02555
v 0.06036 0.26041 0.01308
v 0.06902 0.16441 0.00257
v 0.06902 0.16441 0.00257
v 0.09500 0.24488 -0.04487
v 0.06036 0.25005 -0.02555
v 0.09500 0.16053 -0.01192
v 0.06902 0.16441 0.00257
v 0.12098 0.16441 0.00257
v 0.09500 0.16053 -0.01192
v 0.09500 0.17606 0.04604
v 0.06902 0.17218 0.03155
v 0.12098 0.17218 0.03155
vn 0.8474 -0.3873 0.3632
vn 0.8474 -0.3873 0.3632
vn 0.8474 -0.3873 0.3632
vn 0.8474 -0.3873 0.3632
vn 0.7038 0.1175 0.7006
vn 0.7038 0.1175 0.7006
vn 0.7038 0.1175 0.7006
vn 0.7038 0.1175 0.7006
vn 0.2278 0.0621 0.9717
vn 0.2278 0.0621 0.9717
vn 0.2278 0.0621 0.9717
vn 0.2278 0.0621 0.9717
vn -0.3150 0.6012 0.7344
vn -0.3150 0.6012 0.7344
vn -0.3150 0.6012 0.7344
vn -0.3150 0.6012 0.7344
vn -0.0000 0.8660 0.5000
vn -0.0000 0.8660 0.5000
vn -0.0000 0.8660 0.5000
vn -0.0000 0.8660 0.5000
vn -0.0000 0.8660 0.5000
vn -0.0000 0.8660 0.5000
vn 0.0002 0.9368 -0.3499
vn 0.0002 0.9368 -0.3499
vn 0.0002 0.9368 -0.3499
vn 0.0002 0.9368 -0.3499
vn -0.4492 0.8792 -0.1587
vn -0.4492 0.8792 -0.1587
vn -0.4492 0.8792 -0.1587
vn -0.4492 0.8792 -0.1587
vn -0.0000 -0.5001 0.8660
vn -0.0000 -0.5001 0.8660
vn -0.0000 -0.5001 0.8660
vn -0.0000 -0.5001 0.8660
vn -0.0000 -0.5001 0.8660
vn -0.0000 -0.5001 0.8660
f 988//988 990//990 989//989
f 988//988 989//989 991//991
f 992//992 994//994 993//993
f 992//992 993//993 995//995
f 996//996 998//998 997//997
f 996//996 997//997 999//999
f 1000//1000 1002//1002 1001//1001
f 1000//1000 1001//1001 1003//1003
f 1004//1004 1006//1006 1005//1005
f 1005//1005 1007//1007 1004//1004
f 1007//1007 1008//1008 1004//1004
f 1005//1005 1009//1009 1007//1007
f 1010//1010 1012//1012 1011//1011
f 1010//1010 1011//1011 1013//1013
f 1014//1014 1016//1016 1015//1015
f 1014//1014 1015//1015 1017//1017
f 1018//1018 1020//1020 1019//1019
f 1019//1019 1021//1021 1018//1018
f 1021//1021 1022//1022 1018//1018
f 1019//1019 1023//1023 1021//1021
g tool_bone
usemtl bone
v 0.13000 0.19727 0.00929
v 0.13000 0.18761 0.01188
v 0.13000 0.19469 -0.00036
v 0.13000 0.19986 0.01895
v 0.13000 0.20693 0.00671
v 0.13000 0.19469 -0.00036
v 0.13000 0.18761 0.01188
v 0.16000 0.19727 0.00929
v 0.13000 0.18761 0.01188
v 0.13000 0.19986 0.01895
v 0.16000 0.19727 0.00929
v 0.13000 0.19986 0.01895
v 0.13000 0.20693 0.00671
v 0.16000 0.19727 0.00929
v 0.13000 0.20693 0.00671
v 0.13000 0.19469 -0.00036
v 0.16000 0.19727 0.00929
v 0.13000 0.22142 0.00282
v 0.13000 0.21176 0.00541
v 0.12134 0.22272 0.00765
v 0.13866 0.22013 -0.00201
v 0.13000 0.23108 0.00024
v 0.12134 0.22272 0.00765
v 0.13000 0.21176 0.00541
v 0.11500 0.21470 -0.02227
v 0.13000 0.21176 0.00541
v 0.13866 0.22013 -0.00201
v 0.11500 0.21470 -0.02227
v 0.13866 0.22013 -0.00201
v 0.13000 0.23108 0.00024
v 0.11500 0.21470 -0.02227
v 0.13000 0.23108 0.00024
v 0.12134 0.22272 0.00765
v 0.11500 0.21470 -0.02227
v 0.13000 0.24557 -0.00365
v 0.13000 0.23591 -0.00106
v 0.13866 0.24686 0.00118
v 0.12134 0.24428 -0.00848
v 0.13000 0.25523 -0.00624
v 0.13866 0.24686 0.00118
v 0.13000 0.23591 -0.00106
v 0.11500 0.25229 0.02145
v 0.13000 0.23591 -0.00106
v 0.12134 0.24428 -0.00848
v 0.11500 0.25229 0.02145
v 0.12134 0.24428 -0.00848
v 0.13000 0.25523 -0.00624
v 0.11500 0.25229 0.02145
v 0.13000 0.25523 -0.00624
v 0.13866 0.24686 0.00118
v 0.11500 0.25229 0.02145
vn 0.0000 0.9659 -0.2588
vn 0.0000 0.9659 -0.2588
vn 0.0000 0.9659 -0.2588
vn 0.0000 0.9659 -0.2588
vn 0.0000 0.9659 -0.2588
vn -0.5567 0.6172 -0.5561
vn -0.5567 0.6172 -0.5561
vn -0.5567 0.6172 -0.5561
vn -0.0664 -0.1823 0.9810
vn -0.0664 -0.1823 0.9810
vn -0.0664 -0.1823 0.9810
vn 0.2481 0.5543 0.7945
vn 0.2481 0.5543 0.7945
vn 0.2481 0.5543 0.7945
vn 0.4236 -0.9039 -0.0601
vn 0.4236 -0.9039 -0.0601
vn 0.4236 -0.9039 -0.0601
vn 0.2563 0.1151 0.9597
vn 0.2563 0.1151 0.9597
vn 0.2563 0.1151 0.9597
vn 0.2563 0.1151 0.9597
vn 0.2563 0.1151 0.9597
vn 0.0740 0.5490 -0.8326
vn 0.0740 0.5490 -0.8326
vn 0.0740 0.5490 -0.8326
vn -0.6147 0.4870 -0.6205
vn -0.6147 0.4870 -0.6205
vn -0.6147 0.4870 -0.6205
vn 0.0476 -0.9885 -0.1435
vn 0.0476 -0.9885 -0.1435
vn 0.0476 -0.9885 -0.1435
vn -0.0101 0.9119 0.4103
vn -0.0101 0.9119 0.4103
vn -0.0101 0.9119 0.4103
vn 0.8581 -0.3841 0.3409
vn 0.8581 -0.3841 0.3409
vn 0.8581 -0.3841 0.3409
vn 0.8581 -0.3841 0.3409
vn 0.8581 -0.3841 0.3409
vn 0.1098 -0.2557 0.9605
vn 0.1098 -0.2557 0.9605
vn 0.1098 -0.2557 0.9605
vn 0.0461 0.6761 -0.7353
vn 0.0461 0.6761 -0.7353
vn 0.0461 0.6761 -0.7353
vn -0.1278 0.9324 0.3381
vn -0.1278 0.9324 0.3381
vn -0.1278 0.9324 0.3381
vn 0.3221 0.5718 0.7545
vn 0.3221 0.5718 0.7545
vn 0.3221 0.5718 0.7545
f 1024//1024 1026//1026 1025//1025
f 1024//1024 1025//1025 1027//1027
f 1024//1024 1028//1028 1026//1026
f 1024//1024 1027//1027 1028//1028
f 1029//1029 1031//1031 1030//1030
f 1032//1032 1034//1034 1033//1033
f 1035//1035 1037//1037 1036//1036
f 1038//1038 1040//1040 1039//1039
f 1041//1041 1043//1043 1042//1042
f 1041//1041 1042//1042 1044//1044
f 1041//1041 1045//1045 1043//1043
f 1041//1041 1044//1044 1045//1045
f 1046//1046 1048//1048 1047//1047
f 1049//1049 1051//1051 1050//1050
f 1052//1052 1054//1054 1053//1053
f 1055//1055 1057//1057 1056//1056
f 1058//1058 1060//1060 1059//1059
f 1058//1058 1059//1059 1061//1061
f 1058//1058 1062//1062 1060//1060
f 1058//1058 1061//1061 1062//1062
f 1063//1063 1065//1065 1064//1064
f 1066//1066 1068//1068 1067//1067
f 1069//1069 1071//1071 1070//1070
f 1072//1072 1074//1074 1073//1073
