mtllib granary.mtl
o core
g core_stone
usemtl stone
v 0.02000 0.00000 -0.09000
v 0.06500 0.03000 -0.07794
v 0.02000 0.03000 -0.09000
v 0.06500 0.00000 -0.07794
v 0.06500 0.00000 -0.07794
v 0.09794 0.03000 -0.04500
v 0.06500 0.03000 -0.07794
v 0.09794 0.00000 -0.04500
v 0.09794 0.00000 -0.04500
v 0.11000 0.03000 -0.00000
v 0.09794 0.03000 -0.04500
v 0.11000 0.00000 -0.00000
v 0.11000 0.00000 -0.00000
v 0.09794 0.03000 0.04500
v 0.11000 0.03000 -0.00000
v 0.09794 0.00000 0.04500
v 0.09794 0.00000 0.04500
v 0.06500 0.03000 0.07794
v 0.09794 0.03000 0.04500
v 0.06500 0.00000 0.07794
v 0.06500 0.00000 0.07794
v 0.02000 0.03000 0.09000
v 0.06500 0.03000 0.07794
v 0.02000 0.00000 0.09000
v 0.02000 0.00000 0.09000
v -0.02500 0.03000 0.07794
v 0.02000 0.03000 0.09000
v -0.02500 0.00000 0.07794
v -0.02500 0.00000 0.07794
v -0.05794 0.03000 0.04500
v -0.02500 0.03000 0.07794
v -0.05794 0.00000 0.04500
v -0.05794 0.00000 0.04500
v -0.07000 0.03000 -0.00000
v -0.05794 0.03000 0.04500
v -0.07000 0.00000 -0.00000
v -0.07000 0.00000 -0.00000
v -0.05794 0.03000 -0.04500
v -0.07000 0.03000 -0.00000
v -0.05794 0.00000 -0.04500
v 0.09794 0.03000 -0.04500
v 0.02000 0.03000 -0.09000
v 0.06500 0.03000 -0.07794
v -0.05794 0.03000 -0.04500
v -0.02500 0.03000 -0.07794
v 0.09794 0.03000 0.04500
v 0.11000 0.03000 -0.00000
v 0.02000 0.03000 0.09000
v 0.06500 0.03000 0.07794
v -0.05794 0.03000 0.04500
v -0.02500 0.03000 0.07794
v -0.07000 0.03000 -0.00000
v -0.05794 0.00000 -0.04500
v -0.02500 0.03000 -0.07794
v -0.05794 0.03000 -0.04500
v -0.02500 0.00000 -0.07794
v -0.02500 0.00000 -0.07794
v 0.02000 0.03000 -0.09000
v -0.02500 0.03000 -0.07794
v 0.02000 0.00000 -0.09000
v -0.02500 0.00000 -0.07794
v 0.06500 0.00000 -0.07794
v 0.02000 0.00000 -0.09000
v 0.11000 0.00000 -0.00000
v 0.09794 0.00000 -0.04500
v -0.07000 0.00000 -0.00000
v -0.05794 0.00000 -0.04500
v -0.02500 0.00000 0.07794
v -0.05794 0.00000 0.04500
v 0.06500 0.00000 0.07794
v 0.02000 0.00000 0.09000
v 0.09794 0.00000 0.04500
vn 0.7917 -0.6020 0.1042
vn 0.7917 -0.6020 0.1042
vn 0.7917 -0.6020 0.1042
vn 0.7917 -0.6020 0.1042
vn 0.8864 -0.2818 0.3672
vn 0.8864 -0.2818 0.3672
vn 0.8864 -0.2818 0.3672
vn 0.8864 -0.2818 0.3672
vn 0.7930 -0.0275 0.6086
vn 0.7930 -0.0275 0.6086
vn 0.7930 -0.0275 0.6086
vn 0.7930 -0.0275 0.6086
vn 0.6086 -0.0211 0.7932
vn 0.6086 -0.0211 0.7932
vn 0.6086 -0.0211 0.7932
vn 0.6086 -0.0211 0.7932
vn 0.3799 -0.1208 0.9171
vn 0.3799 -0.1208 0.9171
vn 0.3799 -0.1208 0.9171
vn 0.3799 -0.1208 0.9171
vn 0.1299 -0.0988 0.9866
vn 0.1299 -0.0988 0.9866
vn 0.1299 -0.0988 0.9866
vn 0.1299 -0.0988 0.9866
vn -0.1287 0.1692 0.9772
vn -0.1287 0.1692 0.9772
vn -0.1287 0.1692 0.9772
vn -0.1287 0.1692 0.9772
vn -0.2445 0.7693 0.5903
vn -0.2445 0.7693 0.5903
vn -0.2445 0.7693 0.5903
vn -0.2445 0.7693 0.5903
vn -0.0346 0.9984 0.0451
vn -0.0346 0.9984 0.0451
vn -0.0346 0.9984 0.0451
vn -0.0346 0.9984 0.0451
vn -0.0346 0.9990 0.0265
vn -0.0346 0.9990 0.0265
vn -0.0346 0.9990 0.0265
vn -0.0346 0.9990 0.0265
vn -0.0000 0.7071 0.7071
vn -0.0000 0.7071 0.7071
vn -0.0000 0.7071 0.7071
vn -0.0000 0.7071 0.7071
vn -0.0000 0.7071 0.7071
vn -0.0000 0.7071 0.7071
vn -0.0000 0.7071 0.7071
vn -0.0000 0.7071 0.7071
vn -0.0000 0.7071 0.7071
vn -0.0000 0.7071 0.7071
vn -0.0000 0.7071 0.7071
vn -0.0000 0.7071 0.7071
vn -0.3006 0.9456 0.1245
vn -0.3006 0.9456 0.1245
vn -0.3006 0.9456 0.1245
vn -0.3006 0.9456 0.1245
vn -0.6034 0.7935 0.0795
vn -0.6034 0.7935 0.0795
vn -0.6034 0.7935 0.0795
vn -0.6034 0.7935 0.0795
vn -0.0000 -0.7071 0.7071
vn -0.0000 -0.7071 0.7071
vn -0.0000 -0.7071 0.7071
vn -0.0000 -0.7071 0.7071
vn -0.0000 -0.7071 0.7071
vn -0.0000 -0.7071 0.7071
vn -0.0000 -0.7071 0.7071
vn -0.0000 -0.7071 0.7071
vn -0.0000 -0.7071 0.7071
vn -0.0000 -0.7071 0.7071
vn -0.0000 -0.7071 0.7071
vn -0.0000 -0.7071 0.7071
f 1//1 3//3 2//2
f 1//1 2//2 4//4
f 5//5 7//7 6//6
f 5//5 6//6 8//8
f 9//9 11//11 10//10
f 9//9 10//10 12//12
f 13//13 15//15 14//14
f 13//13 14//14 16//16
f 17//17 19//19 18//18
f 17//17 18//18 20//20
f 21//21 23//23 22//22
f 21//21 22//22 24//24
f 25//25 27//27 26//26
f 25//25 26//26 28//28
f 29//29 31//31 30//30
f 29//29 30//30 32//32
f 33//33 35//35 34//34
f 33//33 34//34 36//36
f 37//37 39//39 38//38
f 37//37 38//38 40//40
f 41//41 43//43 42//42
f 41//41 42//42 44//44
f 42//42 45//45 44//44
f 46//46 47//47 41//41
f 48//48 46//46 41//41
f 44//44 48//48 41//41
f 48//48 49//49 46//46
f 44//44 50//50 48//48
f 50//50 51//51 48//48
f 44//44 52//52 50//50
f 53//53 55//55 54//54
f 53//53 54//54 56//56
f 57//57 59//59 58//58
f 57//57 58//58 60//60
f 61//61 63//63 62//62
f 61//61 62//62 64//64
f 62//62 65//65 64//64
f 66//66 67//67 61//61
f 68//68 66//66 61//61
f 64//64 68//68 61//61
f 68//68 69//69 66//66
f 64//64 70//70 68//68
f 70//70 71//71 68//68
f 64//64 72//72 70//70
g core_plank
usemtl plank
v 0.02000 -0.00000 -0.08400
v 0.06200 0.22000 -0.07275
v 0.02000 0.22000 -0.08400
v 0.06200 -0.00000 -0.07275
v 0.06200 -0.00000 -0.07275
v 0.09275 0.22000 -0.04200
v 0.06200 0.22000 -0.07275
v 0.09275 -0.00000 -0.04200
v 0.09275 -0.00000 -0.04200
v 0.10400 0.22000 -0.00000
v 0.09275 0.22000 -0.04200
v 0.10400 -0.00000 -0.00000
v 0.10400 -0.00000 -0.00000
v 0.09275 0.22000 0.04200
v 0.10400 0.22000 -0.00000
v 0.09275 -0.00000 0.04200
v 0.09275 -0.00000 0.04200
v 0.06200 0.22000 0.07274
v 0.09275 0.22000 0.04200
v 0.06200 -0.00000 0.07274
v 0.06200 -0.00000 0.07274
v 0.02000 0.22000 0.08400
v 0.06200 0.22000 0.07274
v 0.02000 -0.00000 0.08400
v 0.02000 -0.00000 0.08400
v -0.02200 0.22000 0.07274
v 0.02000 0.22000 0.08400
v -0.02200 -0.00000 0.07274
v -0.02200 -0.00000 0.07274
v -0.05275 0.22000 0.04200
v -0.02200 0.22000 0.07274
v -0.05275 -0.00000 0.04200
v -0.05275 -0.00000 0.04200
v -0.06400 0.22000 -0.00000
v -0.05275 0.22000 0.04200
v -0.06400 -0.00000 -0.00000
v -0.06400 -0.00000 -0.00000
v -0.05275 0.22000 -0.04200
v -0.06400 0.22000 -0.00000
v -0.05275 -0.00000 -0.04200
v 0.09275 0.22000 -0.04200
v 0.02000 0.22000 -0.08400
v 0.06200 0.22000 -0.07275
v -0.05275 0.22000 -0.04200
v -0.02200 0.22000 -0.07275
v 0.09275 0.22000 0.04200
v 0.10400 0.22000 -0.00000
v 0.02000 0.22000 0.08400
v 0.06200 0.22000 0.07274
v -0.05275 0.22000 0.04200
v -0.02200 0.22000 0.07274
v -0.06400 0.22000 -0.00000
v -0.05275 -0.00000 -0.04200
v -0.02200 0.22000 -0.07275
v -0.05275 0.22000 -0.04200
v -0.02200 -0.00000 -0.07275
v -0.02200 -0.00000 -0.07275
v 0.02000 0.22000 -0.08400
v -0.02200 0.22000 -0.07275
v 0.02000 -0.00000 -0.08400
v -0.02200 -0.00000 -0.07275
v 0.06200 -0.00000 -0.07275
v 0.02000 -0.00000 -0.08400
v 0.10400 -0.00000 -0.00000
v 0.09275 -0.00000 -0.04200
v -0.06400 -0.00000 -0.00000
v -0.05275 -0.00000 -0.04200
v -0.02200 -0.00000 0.07274
v -0.05275 -0.00000 0.04200
v 0.06200 -0.00000 0.07274
v 0.02000 -0.00000 0.08400
v 0.09275 -0.00000 0.04200
v -0.11500 -0.00000 -0.05500
v -0.01000 0.17000 -0.05500
v -0.11500 0.11000 -0.05500
v -0.01000 -0.00000 -0.05500
v -0.11500 -0.00000 0.05500
v -0.01000 0.17000 0.05500
v -0.01000 -0.00000 0.05500
v -0.11500 0.11000 0.05500
v -0.11500 -0.00000 -0.05500
v -0.01000 -0.00000 0.05500
v -0.01000 -0.00000 -0.05500
v -0.11500 -0.00000 0.05500
v -0.01000 -0.00000 -0.05500
v -0.01000 0.17000 0.05500
v -0.01000 0.17000 -0.05500
v -0.01000 -0.00000 0.05500
v -0.01000 0.17000 -0.05500
v -0.11500 0.11000 0.05500
v -0.11500 0.11000 -0.05500
v -0.01000 0.17000 0.05500
v -0.11500 0.11000 -0.05500
v -0.11500 -0.00000 0.05500
v -0.11500 -0.00000 -0.05500
v -0.11500 0.11000 0.05500
vn 0.7917 -0.6020 0.1042
vn 0.7917 -0.6020 0.1042
vn 0.7917 -0.6020 0.1042
vn 0.7917 -0.6020 0.1042
vn 0.8864 -0.2818 0.3672
vn 0.8864 -0.2818 0.3672
vn 0.8864 -0.2818 0.3672
vn 0.8864 -0.2818 0.3672
vn 0.7930 -0.0275 0.6086
vn 0.7930 -0.0275 0.6086
vn 0.7930 -0.0275 0.6086
vn 0.7930 -0.0275 0.6086
vn 0.6086 -0.0211 0.7932
vn 0.6086 -0.0211 0.7932
vn 0.6086 -0.0211 0.7932
vn 0.6086 -0.0211 0.7932
vn 0.3799 -0.1208 0.9171
vn 0.3799 -0.1208 0.9171
vn 0.3799 -0.1208 0.9171
vn 0.3799 -0.1208 0.9171
vn 0.1299 -0.0988 0.9866
vn 0.1299 -0.0988 0.9866
vn 0.1299 -0.0988 0.9866
vn 0.1299 -0.0988 0.9866
vn -0.1287 0.1692 0.9772
vn -0.1287 0.1692 0.9772
vn -0.1287 0.1692 0.9772
vn -0.1287 0.1692 0.9772
vn -0.2445 0.7693 0.5903
vn -0.2445 0.7693 0.5903
vn -0.2445 0.7693 0.5903
vn -0.2445 0.7693 0.5903
vn -0.0346 0.9984 0.0451
vn -0.0346 0.9984 0.0451
vn -0.0346 0.9984 0.0451
vn -0.0346 0.9984 0.0451
vn -0.0346 0.9990 0.0265
vn -0.0346 0.9990 0.0265
vn -0.0346 0.9990 0.0265
vn -0.0346 0.9990 0.0265
vn -0.0000 0.7071 0.7071
vn -0.0000 0.7071 0.7071
vn -0.0000 0.7071 0.7071
vn -0.0000 0.7071 0.7071
vn -0.0000 0.7071 0.7071
vn -0.0000 0.7071 0.7071
vn -0.0000 0.7071 0.7071
vn -0.0000 0.7071 0.7071
vn -0.0000 0.7071 0.7071
vn -0.0000 0.7071 0.7071
vn -0.0000 0.7071 0.7071
vn -0.0000 0.7071 0.7071
vn -0.3006 0.9456 0.1245
vn -0.3006 0.9456 0.1245
vn -0.3006 0.9456 0.1245
vn -0.3006 0.9456 0.1245
vn -0.6034 0.7935 0.0795
vn -0.6034 0.7935 0.0795
vn -0.6034 0.7935 0.0795
vn -0.6034 0.7935 0.0795
vn -0.0000 -0.7071 0.7071
vn -0.0000 -0.7071 0.7071
vn -0.0000 -0.7071 0.7071
vn -0.0000 -0.7071 0.7071
vn -0.0000 -0.7071 0.7071
vn -0.0000 -0.7071 0.7071
vn -0.0000 -0.7071 0.7071
vn -0.0000 -0.7071 0.7071
vn -0.0000 -0.7071 0.7071
vn -0.0000 -0.7071 0.7071
vn -0.0000 -0.7071 0.7071
vn -0.0000 -0.7071 0.7071
vn -0.7071 0.7071 -0.0000
vn -0.7071 0.7071 -0.0000
vn -0.7071 0.7071 -0.0000
vn -0.7071 0.7071 -0.0000
vn -0.0000 -0.0000 1.0000
vn -0.0000 -0.0000 1.0000
vn -0.0000 -0.0000 1.0000
vn -0.0000 -0.0000 1.0000
vn -0.0000 -0.7071 0.7071
vn -0.0000 -0.7071 0.7071
vn -0.0000 -0.7071 0.7071
vn -0.0000 -0.7071 0.7071
vn 0.7071 -0.0000 0.7071
vn 0.7071 -0.0000 0.7071
vn 0.7071 -0.0000 0.7071
vn 0.7071 -0.0000 0.7071
vn -0.0891 0.7298 0.6778
vn -0.0891 0.7298 0.6778
vn -0.0891 0.7298 0.6778
vn -0.0891 0.7298 0.6778
vn 0.0000 1.0000 -0.0000
vn 0.0000 1.0000 -0.0000
vn 0.0000 1.0000 -0.0000
vn 0.0000 1.0000 -0.0000
f 73//73 75//75 74//74
f 73//73 74//74 76//76
f 77//77 79//79 78//78
f 77//77 78//78 80//80
f 81//81 83//83 82//82
f 81//81 82//82 84//84
f 85//85 87//87 86//86
f 85//85 86//86 88//88
f 89//89 91//91 90//90
f 89//89 90//90 92//92
f 93//93 95//95 94//94
f 93//93 94//94 96//96
f 97//97 99//99 98//98
f 97//97 98//98 100//100
f 101//101 103//103 102//102
f 101//101 102//102 104//104
f 105//105 107//107 106//106
f 105//105 106//106 108//108
f 109//109 111//111 110//110
f 109//109 110//110 112//112
f 113//113 115//115 114//114
f 113//113 114//114 116//116
f 114//114 117//117 116//116
f 118//118 119//119 113//113
f 120//120 118//118 113//113
f 116//116 120//120 113//113
f 120//120 121//121 118//118
f 116//116 122//122 120//120
f 122//122 123//123 120//120
f 116//116 124//124 122//122
f 125//125 127//127 126//126
f 125//125 126//126 128//128
f 129//129 131//131 130//130
f 129//129 130//130 132//132
f 133//133 135//135 134//134
f 133//133 134//134 136//136
f 134//134 137//137 136//136
f 138//138 139//139 133//133
f 140//140 138//138 133//133
f 136//136 140//140 133//133
f 140//140 141//141 138//138
f 136//136 142//142 140//140
f 142//142 143//143 140//140
f 136//136 144//144 142//142
f 145//145 147//147 146//146
f 145//145 146//146 148//148
f 149//149 151//151 150//150
f 149//149 150//150 152//152
f 153//153 155//155 154//154
f 153//153 154//154 156//156
f 157//157 159//159 158//158
f 157//157 158//158 160//160
f 161//161 163//163 162//162
f 161//161 162//162 164//164
f 165//165 167//167 166//166
f 165//165 166//166 168//168
g core_wood_dark
usemtl wood_dark
v 0.02000 0.06000 -0.08900
v 0.06450 0.08400 -0.07708
v 0.02000 0.08400 -0.08900
v 0.06450 0.06000 -0.07708
v 0.06450 0.06000 -0.07708
v 0.09707 0.08400 -0.04450
v 0.06450 0.08400 -0.07708
v 0.09707 0.06000 -0.04450
v 0.09707 0.06000 -0.04450
v 0.10900 0.08400 -0.00000
v 0.09707 0.08400 -0.04450
v 0.10900 0.06000 -0.00000
v 0.10900 0.06000 -0.00000
v 0.09707 0.08400 0.04450
v 0.10900 0.08400 -0.00000
v 0.09707 0.06000 0.04450
v 0.09707 0.06000 0.04450
v 0.06450 0.08400 0.07707
v 0.09707 0.08400 0.04450
v 0.06450 0.06000 0.07707
v 0.06450 0.06000 0.07707
v 0.02000 0.08400 0.08900
v 0.06450 0.08400 0.07707
v 0.02000 0.06000 0.08900
v 0.02000 0.06000 0.08900
v -0.02450 0.08400 0.07707
v 0.02000 0.08400 0.08900
v -0.02450 0.06000 0.07707
v -0.02450 0.06000 0.07707
v -0.05708 0.08400 0.04450
v -0.02450 0.08400 0.07707
v -0.05708 0.06000 0.04450
v -0.05708 0.06000 0.04450
v -0.06900 0.08400 -0.00000
v -0.05708 0.08400 0.04450
v -0.06900 0.06000 -0.00000
v -0.06900 0.06000 -0.00000
v -0.05708 0.08400 -0.04450
v -0.06900 0.08400 -0.00000
v -0.05708 0.06000 -0.04450
v 0.09707 0.08400 -0.04450
v 0.02000 0.08400 -0.08900
v 0.06450 0.08400 -0.07708
v -0.05708 0.08400 -0.04450
v -0.02450 0.08400 -0.07708
v 0.09707 0.08400 0.04450
v 0.10900 0.08400 -0.00000
v 0.02000 0.08400 0.08900
v 0.06450 0.08400 0.07707
v -0.05708 0.08400 0.04450
v -0.02450 0.08400 0.07707
v -0.06900 0.08400 -0.00000
v -0.05708 0.06000 -0.04450
v -0.02450 0.08400 -0.07708
v -0.05708 0.08400 -0.04450
v -0.02450 0.06000 -0.07708
v -0.02450 0.06000 -0.07708
v 0.02000 0.08400 -0.08900
v -0.02450 0.08400 -0.07708
v 0.02000 0.06000 -0.08900
v -0.02450 0.06000 -0.07708
v 0.06450 0.06000 -0.07708
v 0.02000 0.06000 -0.08900
v 0.10900 0.06000 -0.00000
v 0.09707 0.06000 -0.04450
v -0.06900 0.06000 -0.00000
v -0.05708 0.06000 -0.04450
v -0.02450 0.06000 0.07707
v -0.05708 0.06000 0.04450
v 0.06450 0.06000 0.07707
v 0.02000 0.06000 0.08900
v 0.09707 0.06000 0.04450
v 0.02000 0.14000 -0.08900
v 0.06450 0.16400 -0.07708
v 0.02000 0.16400 -0.08900
v 0.06450 0.14000 -0.07708
v 0.06450 0.14000 -0.07708
v 0.09707 0.16400 -0.04450
v 0.06450 0.16400 -0.07708
v 0.09707 0.14000 -0.04450
v 0.09707 0.14000 -0.04450
v 0.10900 0.16400 -0.00000
v 0.09707 0.16400 -0.04450
v 0.10900 0.14000 -0.00000
v 0.10900 0.14000 -0.00000
v 0.09707 0.16400 0.04450
v 0.10900 0.16400 -0.00000
v 0.09707 0.14000 0.04450
v 0.09707 0.14000 0.04450
v 0.06450 0.16400 0.07707
v 0.09707 0.16400 0.04450
v 0.06450 0.14000 0.07707
v 0.06450 0.14000 0.07707
v 0.02000 0.16400 0.08900
v 0.06450 0.16400 0.07707
v 0.02000 0.14000 0.08900
v 0.02000 0.14000 0.08900
v -0.02450 0.16400 0.07707
v 0.02000 0.16400 0.08900
v -0.02450 0.14000 0.07707
v -0.02450 0.14000 0.07707
v -0.05708 0.16400 0.04450
v -0.02450 0.16400 0.07707
v -0.05708 0.14000 0.04450
v -0.05708 0.14000 0.04450
v -0.06900 0.16400 -0.00000
v -0.05708 0.16400 0.04450
v -0.06900 0.14000 -0.00000
v -0.06900 0.14000 -0.00000
v -0.05708 0.16400 -0.04450
v -0.06900 0.16400 -0.00000
v -0.05708 0.14000 -0.04450
v 0.09707 0.16400 -0.04450
v 0.02000 0.16400 -0.08900
v 0.06450 0.16400 -0.07708
v -0.05708 0.16400 -0.04450
v -0.02450 0.16400 -0.07708
v 0.09707 0.16400 0.04450
v 0.10900 0.16400 -0.00000
v 0.02000 0.16400 0.08900
v 0.06450 0.16400 0.07707
v -0.05708 0.16400 0.04450
v -0.02450 0.16400 0.07707
v -0.06900 0.16400 -0.00000
v -0.05708 0.14000 -0.04450
v -0.02450 0.16400 -0.07708
v -0.05708 0.16400 -0.04450
v -0.02450 0.14000 -0.07708
v -0.02450 0.14000 -0.07708
v 0.02000 0.16400 -0.08900
v -0.02450 0.16400 -0.07708
v 0.02000 0.14000 -0.08900
v -0.02450 0.14000 -0.07708
v 0.06450 0.14000 -0.07708
v 0.02000 0.14000 -0.08900
v 0.10900 0.14000 -0.00000
v 0.09707 0.14000 -0.04450
v -0.06900 0.14000 -0.00000
v -0.05708 0.14000 -0.04450
v -0.02450 0.14000 0.07707
v -0.05708 0.14000 0.04450
v 0.06450 0.14000 0.07707
v 0.02000 0.14000 0.08900
v 0.09707 0.14000 0.04450
v 0.02000 0.20000 -0.08900
v 0.06450 0.22400 -0.07708
v 0.02000 0.22400 -0.08900
v 0.06450 0.20000 -0.07708
v 0.06450 0.20000 -0.07708
v 0.09707 0.22400 -0.04450
v 0.06450 0.22400 -0.07708
v 0.09707 0.20000 -0.04450
v 0.09707 0.20000 -0.04450
v 0.10900 0.22400 -0.00000
v 0.09707 0.22400 -0.04450
v 0.10900 0.20000 -0.00000
v 0.10900 0.20000 -0.00000
v 0.09707 0.22400 0.04450
v 0.10900 0.22400 -0.00000
v 0.09707 0.20000 0.04450
v 0.09707 0.20000 0.04450
v 0.06450 0.22400 0.07707
v 0.09707 0.22400 0.04450
v 0.06450 0.20000 0.07707
v 0.06450 0.20000 0.07707
v 0.02000 0.22400 0.08900
v 0.06450 0.22400 0.07707
v 0.02000 0.20000 0.08900
v 0.02000 0.20000 0.08900
v -0.02450 0.22400 0.07707
v 0.02000 0.22400 0.08900
v -0.02450 0.20000 0.07707
v -0.02450 0.20000 0.07707
v -0.05708 0.22400 0.04450
v -0.02450 0.22400 0.07707
v -0.05708 0.20000 0.04450
v -0.05708 0.20000 0.04450
v -0.06900 0.22400 -0.00000
v -0.05708 0.22400 0.04450
v -0.06900 0.20000 -0.00000
v -0.06900 0.20000 -0.00000
v -0.05708 0.22400 -0.04450
v -0.06900 0.22400 -0.00000
v -0.05708 0.20000 -0.04450
v 0.09707 0.22400 -0.04450
v 0.02000 0.22400 -0.08900
v 0.06450 0.22400 -0.07708
v -0.05708 0.22400 -0.04450
v -0.02450 0.22400 -0.07708
v 0.09707 0.22400 0.04450
v 0.10900 0.22400 -0.00000
v 0.02000 0.22400 0.08900
v 0.06450 0.22400 0.07707
v -0.05708 0.22400 0.04450
v -0.02450 0.22400 0.07707
v -0.06900 0.22400 -0.00000
v -0.05708 0.20000 -0.04450
v -0.02450 0.22400 -0.07708
v -0.05708 0.22400 -0.04450
v -0.02450 0.20000 -0.07708
v -0.02450 0.20000 -0.07708
v 0.02000 0.22400 -0.08900
v -0.02450 0.22400 -0.07708
v 0.02000 0.20000 -0.08900
v -0.02450 0.20000 -0.07708
v 0.06450 0.20000 -0.07708
v 0.02000 0.20000 -0.08900
v 0.10900 0.20000 -0.00000
v 0.09707 0.20000 -0.04450
v -0.06900 0.20000 -0.00000
v -0.05708 0.20000 -0.04450
v -0.02450 0.20000 0.07707
v -0.05708 0.20000 0.04450
v 0.06450 0.20000 0.07707
v 0.02000 0.20000 0.08900
v 0.09707 0.20000 0.04450
v -0.00300 0.03000 0.08700
v -0.00300 0.11000 0.07300
v -0.00300 0.11000 0.08700
v -0.00300 0.03000 0.07300
v -0.00300 0.03000 0.07300
v 0.04300 0.11000 0.07300
v -0.00300 0.11000 0.07300
v 0.04300 0.03000 0.07300
v 0.04300 0.03000 0.07300
v 0.04300 0.11000 0.08700
v 0.04300 0.11000 0.07300
v 0.04300 0.03000 0.08700
v 0.04300 0.03000 0.08700
v -0.00300 0.11000 0.08700
v 0.04300 0.11000 0.08700
v -0.00300 0.03000 0.08700
v -0.00300 0.03000 0.07300
v 0.04300 0.03000 0.08700
v 0.04300 0.03000 0.07300
v -0.00300 0.03000 0.08700
v 0.04300 0.11000 0.07300
v -0.00300 0.11000 0.08700
v -0.00300 0.11000 0.07300
v 0.04300 0.11000 0.08700
v -0.07700 0.00000 0.06200
v -0.07700 0.06000 0.05000
v -0.07700 0.06000 0.06200
v -0.07700 0.00000 0.05000
v -0.07700 0.00000 0.05000
v -0.04300 0.06000 0.05000
v -0.07700 0.06000 0.05000
v -0.04300 0.00000 0.05000
v -0.04300 0.00000 0.05000
v -0.04300 0.06000 0.06200
v -0.04300 0.06000 0.05000
v -0.04300 0.00000 0.06200
v -0.04300 0.00000 0.06200
v -0.07700 0.06000 0.06200
v -0.04300 0.06000 0.06200
v -0.07700 0.00000 0.06200
v -0.07700 0.00000 0.05000
v -0.04300 0.00000 0.06200
v -0.04300 0.00000 0.05000
v -0.07700 0.00000 0.06200
v -0.04300 0.06000 0.05000
v -0.07700 0.06000 0.06200
v -0.07700 0.06000 0.05000
v -0.04300 0.06000 0.06200
vn 0.7917 -0.6020 0.1042
vn 0.7917 -0.6020 0.1042
vn 0.7917 -0.6020 0.1042
vn 0.7917 -0.6020 0.1042
vn 0.8864 -0.2818 0.3672
vn 0.8864 -0.2818 0.3672
vn 0.8864 -0.2818 0.3672
vn 0.8864 -0.2818 0.3672
vn 0.7930 -0.0275 0.6086
vn 0.7930 -0.0275 0.6086
vn 0.7930 -0.0275 0.6086
vn 0.7930 -0.0275 0.6086
vn 0.6086 -0.0211 0.7932
vn 0.6086 -0.0211 0.7932
vn 0.6086 -0.0211 0.7932
vn 0.6086 -0.0211 0.7932
vn 0.3799 -0.1208 0.9171
vn 0.3799 -0.1208 0.9171
vn 0.3799 -0.1208 0.9171
vn 0.3799 -0.1208 0.9171
vn 0.1299 -0.0988 0.9866
vn 0.1299 -0.0988 0.9866
vn 0.1299 -0.0988 0.9866
vn 0.1299 -0.0988 0.9866
vn -0.1287 0.1692 0.9772
vn -0.1287 0.1692 0.9772
vn -0.1287 0.1692 0.9772
vn -0.1287 0.1692 0.9772
vn -0.2445 0.7693 0.5903
vn -0.2445 0.7693 0.5903
vn -0.2445 0.7693 0.5903
vn -0.2445 0.7693 0.5903
vn -0.0346 0.9984 0.0451
vn -0.0346 0.9984 0.0451
vn -0.0346 0.9984 0.0451
vn -0.0346 0.9984 0.0451
vn -0.0346 0.9990 0.0265
vn -0.0346 0.9990 0.0265
vn -0.0346 0.9990 0.0265
vn -0.0346 0.9990 0.0265
vn -0.0000 0.7071 0.7071
vn -0.0000 0.7071 0.7071
vn -0.0000 0.7071 0.7071
vn -0.0000 0.7071 0.7071
vn -0.0000 0.7071 0.7071
vn -0.0000 0.7071 0.7071
vn -0.0000 0.7071 0.7071
vn -0.0000 0.7071 0.7071
vn -0.0000 0.7071 0.7071
vn -0.0000 0.7071 0.7071
vn -0.0000 0.7071 0.7071
vn -0.0000 0.7071 0.7071
vn -0.3006 0.9456 0.1245
vn -0.3006 0.9456 0.1245
vn -0.3006 0.9456 0.1245
vn -0.3006 0.9456 0.1245
vn -0.6034 0.7935 0.0795
vn -0.6034 0.7935 0.0795
vn -0.6034 0.7935 0.0795
vn -0.6034 0.7935 0.0795
vn -0.0000 -0.7071 0.7071
vn -0.0000 -0.7071 0.7071
vn -0.0000 -0.7071 0.7071
vn -0.0000 -0.7071 0.7071
vn -0.0000 -0.7071 0.7071
vn -0.0000 -0.7071 0.7071
vn -0.0000 -0.7071 0.7071
vn -0.0000 -0.7071 0.7071
vn -0.0000 -0.7071 0.7071
vn -0.0000 -0.7071 0.7071
vn -0.0000 -0.7071 0.7071
vn -0.0000 -0.7071 0.7071
vn 0.7917 -0.6020 0.1042
vn 0.7917 -0.6020 0.1042
vn 0.7917 -0.6020 0.1042
vn 0.7917 -0.6020 0.1042
vn 0.8864 -0.2818 0.3672
vn 0.8864 -0.2818 0.3672
vn 0.8864 -0.2818 0.3672
vn 0.8864 -0.2818 0.3672
vn 0.7930 -0.0275 0.6086
vn 0.7930 -0.0275 0.6086
vn 0.7930 -0.0275 0.6086
vn 0.7930 -0.0275 0.6086
vn 0.6086 -0.0211 0.7932
vn 0.6086 -0.0211 0.7932
vn 0.6086 -0.0211 0.7932
vn 0.6086 -0.0211 0.7932
vn 0.3799 -0.1208 0.9171
vn 0.3799 -0.1208 0.9171
vn 0.3799 -0.1208 0.9171
vn 0.3799 -0.1208 0.9171
vn 0.1299 -0.0988 0.9866
vn 0.1299 -0.0988 0.9866
vn 0.1299 -0.0988 0.9866
vn 0.1299 -0.0988 0.9866
vn -0.1287 0.1692 0.9772
vn -0.1287 0.1692 0.9772
vn -0.1287 0.1692 0.9772
vn -0.1287 0.1692 0.9772
vn -0.2445 0.7693 0.5903
vn -0.2445 0.7693 0.5903
vn -0.2445 0.7693 0.5903
vn -0.2445 0.7693 0.5903
vn -0.0346 0.9984 0.0451
vn -0.0346 0.9984 0.0451
vn -0.0346 0.9984 0.0451
vn -0.0346 0.9984 0.0451
vn -0.0346 0.9990 0.0265
vn -0.0346 0.9990 0.0265
vn -0.0346 0.9990 0.0265
vn -0.0346 0.9990 0.0265
vn -0.0000 0.7071 0.7071
vn -0.0000 0.7071 0.7071
vn -0.0000 0.7071 0.7071
vn -0.0000 0.7071 0.7071
vn -0.0000 0.7071 0.7071
vn -0.0000 0.7071 0.7071
vn -0.0000 0.7071 0.7071
vn -0.0000 0.7071 0.7071
vn -0.0000 0.7071 0.7071
vn -0.0000 0.7071 0.7071
vn -0.0000 0.7071 0.7071
vn -0.0000 0.7071 0.7071
vn -0.3006 0.9456 0.1245
vn -0.3006 0.9456 0.1245
vn -0.3006 0.9456 0.1245
vn -0.3006 0.9456 0.1245
vn -0.6034 0.7935 0.0795
vn -0.6034 0.7935 0.0795
vn -0.6034 0.7935 0.0795
vn -0.6034 0.7935 0.0795
vn -0.0000 -0.7071 0.7071
vn -0.0000 -0.7071 0.7071
vn -0.0000 -0.7071 0.7071
vn -0.0000 -0.7071 0.7071
vn -0.0000 -0.7071 0.7071
vn -0.0000 -0.7071 0.7071
vn -0.0000 -0.7071 0.7071
vn -0.0000 -0.7071 0.7071
vn -0.0000 -0.7071 0.7071
vn -0.0000 -0.7071 0.7071
vn -0.0000 -0.7071 0.7071
vn -0.0000 -0.7071 0.7071
vn 0.7917 -0.6020 0.1042
vn 0.7917 -0.6020 0.1042
vn 0.7917 -0.6020 0.1042
vn 0.7917 -0.6020 0.1042
vn 0.8864 -0.2818 0.3672
vn 0.8864 -0.2818 0.3672
vn 0.8864 -0.2818 0.3672
vn 0.8864 -0.2818 0.3672
vn 0.7930 -0.0275 0.6086
vn 0.7930 -0.0275 0.6086
vn 0.7930 -0.0275 0.6086
vn 0.7930 -0.0275 0.6086
vn 0.6086 -0.0211 0.7932
vn 0.6086 -0.0211 0.7932
vn 0.6086 -0.0211 0.7932
vn 0.6086 -0.0211 0.7932
vn 0.3799 -0.1208 0.9171
vn 0.3799 -0.1208 0.9171
vn 0.3799 -0.1208 0.9171
vn 0.3799 -0.1208 0.9171
vn 0.1299 -0.0988 0.9866
vn 0.1299 -0.0988 0.9866
vn 0.1299 -0.0988 0.9866
vn 0.1299 -0.0988 0.9866
vn -0.1287 0.1692 0.9772
vn -0.1287 0.1692 0.9772
vn -0.1287 0.1692 0.9772
vn -0.1287 0.1692 0.9772
vn -0.2445 0.7693 0.5903
vn -0.2445 0.7693 0.5903
vn -0.2445 0.7693 0.5903
vn -0.2445 0.7693 0.5903
vn -0.0346 0.9984 0.0451
vn -0.0346 0.9984 0.0451
vn -0.0346 0.9984 0.0451
vn -0.0346 0.9984 0.0451
vn -0.0346 0.9990 0.0265
vn -0.0346 0.9990 0.0265
vn -0.0346 0.9990 0.0265
vn -0.0346 0.9990 0.0265
vn -0.0000 0.7071 0.7071
vn -0.0000 0.7071 0.7071
vn -0.0000 0.7071 0.7071
vn -0.0000 0.7071 0.7071
vn -0.0000 0.7071 0.7071
vn -0.0000 0.7071 0.7071
vn -0.0000 0.7071 0.7071
vn -0.0000 0.7071 0.7071
vn -0.0000 0.7071 0.7071
vn -0.0000 0.7071 0.7071
vn -0.0000 0.7071 0.7071
vn -0.0000 0.7071 0.7071
vn -0.3006 0.9456 0.1245
vn -0.3006 0.9456 0.1245
vn -0.3006 0.9456 0.1245
vn -0.3006 0.9456 0.1245
vn -0.6034 0.7935 0.0795
vn -0.6034 0.7935 0.0795
vn -0.6034 0.7935 0.0795
vn -0.6034 0.7935 0.0795
vn -0.0000 -0.7071 0.7071
vn -0.0000 -0.7071 0.7071
vn -0.0000 -0.7071 0.7071
vn -0.0000 -0.7071 0.7071
vn -0.0000 -0.7071 0.7071
vn -0.0000 -0.7071 0.7071
vn -0.0000 -0.7071 0.7071
vn -0.0000 -0.7071 0.7071
vn -0.0000 -0.7071 0.7071
vn -0.0000 -0.7071 0.7071
vn -0.0000 -0.7071 0.7071
vn -0.0000 -0.7071 0.7071
vn 0.0000 1.0000 -0.0000
vn 0.0000 1.0000 -0.0000
vn 0.0000 1.0000 -0.0000
vn 0.0000 1.0000 -0.0000
vn -0.7071 0.7071 -0.0000
vn -0.7071 0.7071 -0.0000
vn -0.7071 0.7071 -0.0000
vn -0.7071 0.7071 -0.0000
vn 0.7071 -0.0000 0.7071
vn 0.7071 -0.0000 0.7071
vn 0.7071 -0.0000 0.7071
vn 0.7071 -0.0000 0.7071
vn -0.0000 -0.0000 1.0000
vn -0.0000 -0.0000 1.0000
vn -0.0000 -0.0000 1.0000
vn -0.0000 -0.0000 1.0000
vn -0.0000 -0.7071 0.7071
vn -0.0000 -0.7071 0.7071
vn -0.0000 -0.7071 0.7071
vn -0.0000 -0.7071 0.7071
vn -0.0000 0.7071 0.7071
vn -0.0000 0.7071 0.7071
vn -0.0000 0.7071 0.7071
vn -0.0000 0.7071 0.7071
vn 0.0000 1.0000 -0.0000
vn 0.0000 1.0000 -0.0000
vn 0.0000 1.0000 -0.0000
vn 0.0000 1.0000 -0.0000
vn -0.7071 0.7071 -0.0000
vn -0.7071 0.7071 -0.0000
vn -0.7071 0.7071 -0.0000
vn -0.7071 0.7071 -0.0000
vn 0.7071 -0.0000 0.7071
vn 0.7071 -0.0000 0.7071
vn 0.7071 -0.0000 0.7071
vn 0.7071 -0.0000 0.7071
vn -0.0000 -0.0000 1.0000
vn -0.0000 -0.0000 1.0000
vn -0.0000 -0.0000 1.0000
vn -0.0000 -0.0000 1.0000
vn -0.0000 -0.7071 0.7071
vn -0.0000 -0.7071 0.7071
vn -0.0000 -0.7071 0.7071
vn -0.0000 -0.7071 0.7071
vn -0.0000 0.7071 0.7071
vn -0.0000 0.7071 0.7071
vn -0.0000 0.7071 0.7071
vn -0.0000 0.7071 0.7071
f 169//169 171//171 170//170
f 169//169 170//170 172//172
f 173//173 175//175 174//174
f 173//173 174//174 176//176
f 177//177 179//179 178//178
f 177//177 178//178 180//180
f 181//181 183//183 182//182
f 181//181 182//182 184//184
f 185//185 187//187 186//186
f 185//185 186//186 188//188
f 189//189 191//191 190//190
f 189//189 190//190 192//192
f 193//193 195//195 194//194
f 193//193 194//194 196//196
f 197//197 199//199 198//198
f 197//197 198//198 200//200
f 201//201 203//203 202//202
f 201//201 202//202 204//204
f 205//205 207//207 206//206
f 205//205 206//206 208//208
f 209//209 211//211 210//210
f 209//209 210//210 212//212
f 210//210 213//213 212//212
f 214//214 215//215 209//209
f 216//216 214//214 209//209
f 212//212 216//216 209//209
f 216//216 217//217 214//214
f 212//212 218//218 216//216
f 218//218 219//219 216//216
f 212//212 220//220 218//218
f 221//221 223//223 222//222
f 221//221 222//222 224//224
f 225//225 227//227 226//226
f 225//225 226//226 228//228
f 229//229 231//231 230//230
f 229//229 230//230 232//232
f 230//230 233//233 232//232
f 234//234 235//235 229//229
f 236//236 234//234 229//229
f 232//232 236//236 229//229
f 236//236 237//237 234//234
f 232//232 238//238 236//236
f 238//238 239//239 236//236
f 232//232 240//240 238//238
f 241//241 243//243 242//242
f 241//241 242//242 244//244
f 245//245 247//247 246//246
f 245//245 246//246 248//248
f 249//249 251//251 250//250
f 249//249 250//250 252//252
f 253//253 255//255 254//254
f 253//253 254//254 256//256
f 257//257 259//259 258//258
f 257//257 258//258 260//260
f 261//261 263//263 262//262
f 261//261 262//262 264//264
f 265//265 267//267 266//266
f 265//265 266//266 268//268
f 269//269 271//271 270//270
f 269//269 270//270 272//272
f 273//273 275//275 274//274
f 273//273 274//274 276//276
f 277//277 279//279 278//278
f 277//277 278//278 280//280
f 281//281 283//283 282//282
f 281//281 282//282 284//284
f 282//282 285//285 284//284
f 286//286 287//287 281//281
f 288//288 286//286 281//281
f 284//284 288//288 281//281
f 288//288 289//289 286//286
f 284//284 290//290 288//288
f 290//290 291//291 288//288
f 284//284 292//292 290//290
f 293//293 295//295 294//294
f 293//293 294//294 296//296
f 297//297 299//299 298//298
f 297//297 298//298 300//300
f 301//301 303//303 302//302
f 301//301 302//302 304//304
f 302//302 305//305 304//304
f 306//306 307//307 301//301
f 308//308 306//306 301//301
f 304//304 308//308 301//301
f 308//308 309//309 306//306
f 304//304 310//310 308//308
f 310//310 311//311 308//308
f 304//304 312//312 310//310
f 313//313 315//315 314//314
f 313//313 314//314 316//316
f 317//317 319//319 318//318
f 317//317 318//318 320//320
f 321//321 323//323 322//322
f 321//321 322//322 324//324
f 325//325 327//327 326//326
f 325//325 326//326 328//328
f 329//329 331//331 330//330
f 329//329 330//330 332//332
f 333//333 335//335 334//334
f 333//333 334//334 336//336
f 337//337 339//339 338//338
f 337//337 338//338 340//340
f 341//341 343//343 342//342
f 341//341 342//342 344//344
f 345//345 347//347 346//346
f 345//345 346//346 348//348
f 349//349 351//351 350//350
f 349//349 350//350 352//352
f 353//353 355//355 354//354
f 353//353 354//354 356//356
f 354//354 357//357 356//356
f 358//358 359//359 353//353
f 360//360 358//358 353//353
f 356//356 360//360 353//353
f 360//360 361//361 358//358
f 356//356 362//362 360//360
f 362//362 363//363 360//360
f 356//356 364//364 362//362
f 365//365 367//367 366//366
f 365//365 366//366 368//368
f 369//369 371//371 370//370
f 369//369 370//370 372//372
f 373//373 375//375 374//374
f 373//373 374//374 376//376
f 374//374 377//377 376//376
f 378//378 379//379 373//373
f 380//380 378//378 373//373
f 376//376 380//380 373//373
f 380//380 381//381 378//378
f 376//376 382//382 380//380
f 382//382 383//383 380//380
f 376//376 384//384 382//382
f 385//385 387//387 386//386
f 385//385 386//386 388//388
f 389//389 391//391 390//390
f 389//389 390//390 392//392
f 393//393 395//395 394//394
f 393//393 394//394 396//396
f 397//397 399//399 398//398
f 397//397 398//398 400//400
f 401//401 403//403 402//402
f 401//401 402//402 404//404
f 405//405 407//407 406//406
f 405//405 406//406 408//408
f 409//409 411//411 410//410
f 409//409 410//410 412//412
f 413//413 415//415 414//414
f 413//413 414//414 416//416
f 417//417 419//419 418//418
f 417//417 418//418 420//420
f 421//421 423//423 422//422
f 421//421 422//422 424//424
f 425//425 427//427 426//426
f 425//425 426//426 428//428
f 429//429 431//431 430//430
f 429//429 430//430 432//432
g core_thatch_store
usemtl thatch_store
v 0.02000 0.21500 -0.11000
v 0.05276 0.26500 -0.05674
v 0.02000 0.26500 -0.06552
v 0.07500 0.21500 -0.09526
v 0.07500 0.21500 -0.09526
v 0.07674 0.26500 -0.03276
v 0.05276 0.26500 -0.05674
v 0.11526 0.21500 -0.05500
v 0.11526 0.21500 -0.05500
v 0.08552 0.26500 -0.00000
v 0.07674 0.26500 -0.03276
v 0.13000 0.21500 -0.00000
v 0.13000 0.21500 -0.00000
v 0.07674 0.26500 0.03276
v 0.08552 0.26500 -0.00000
v 0.11526 0.21500 0.05500
v 0.11526 0.21500 0.05500
v 0.05276 0.26500 0.05674
v 0.07674 0.26500 0.03276
v 0.07500 0.21500 0.09526
v 0.07500 0.21500 0.09526
v 0.02000 0.26500 0.06552
v 0.05276 0.26500 0.05674
v 0.02000 0.21500 0.11000
v 0.02000 0.21500 0.11000
v -0.01276 0.26500 0.05674
v 0.02000 0.26500 0.06552
v -0.03500 0.21500 0.09526
v -0.03500 0.21500 0.09526
v -0.03674 0.26500 0.03276
v -0.01276 0.26500 0.05674
v -0.07526 0.21500 0.05500
v -0.07526 0.21500 0.05500
v -0.04552 0.26500 -0.00000
v -0.03674 0.26500 0.03276
v -0.09000 0.21500 -0.00000
v -0.09000 0.21500 -0.00000
v -0.03674 0.26500 -0.03276
v -0.04552 0.26500 -0.00000
v -0.07526 0.21500 -0.05500
v 0.07674 0.26500 -0.03276
v 0.02000 0.26500 -0.06552
v 0.05276 0.26500 -0.05674
v -0.03674 0.26500 -0.03276
v -0.01276 0.26500 -0.05674
v 0.07674 0.26500 0.03276
v 0.08552 0.26500 -0.00000
v 0.02000 0.26500 0.06552
v 0.05276 0.26500 0.05674
v -0.03674 0.26500 0.03276
v -0.01276 0.26500 0.05674
v -0.04552 0.26500 -0.00000
v -0.07526 0.21500 -0.05500
v -0.01276 0.26500 -0.05674
v -0.03674 0.26500 -0.03276
v -0.03500 0.21500 -0.09526
v -0.03500 0.21500 -0.09526
v 0.02000 0.26500 -0.06552
v -0.01276 0.26500 -0.05674
v 0.02000 0.21500 -0.11000
v -0.03500 0.21500 -0.09526
v 0.07500 0.21500 -0.09526
v 0.02000 0.21500 -0.11000
v 0.13000 0.21500 -0.00000
v 0.11526 0.21500 -0.05500
v -0.09000 0.21500 -0.00000
v -0.07526 0.21500 -0.05500
v -0.03500 0.21500 0.09526
v -0.07526 0.21500 0.05500
v 0.07500 0.21500 0.09526
v 0.02000 0.21500 0.11000
v 0.11526 0.21500 0.05500
v 0.02000 0.26500 -0.06552
v 0.03596 0.30500 -0.02765
v 0.02000 0.30500 -0.03192
v 0.05276 0.26500 -0.05674
v 0.05276 0.26500 -0.05674
v 0.04764 0.30500 -0.01596
v 0.03596 0.30500 -0.02765
v 0.07674 0.26500 -0.03276
v 0.07674 0.26500 -0.03276
v 0.05192 0.30500 -0.00000
v 0.04764 0.30500 -0.01596
v 0.08552 0.26500 -0.00000
v 0.08552 0.26500 -0.00000
v 0.04764 0.30500 0.01596
v 0.05192 0.30500 -0.00000
v 0.07674 0.26500 0.03276
v 0.07674 0.26500 0.03276
v 0.03596 0.30500 0.02764
v 0.04764 0.30500 0.01596
v 0.05276 0.26500 0.05674
v 0.05276 0.26500 0.05674
v 0.02000 0.30500 0.03192
v 0.03596 0.30500 0.02764
v 0.02000 0.26500 0.06552
v 0.02000 0.26500 0.06552
v 0.00404 0.30500 0.02764
v 0.02000 0.30500 0.03192
v -0.01276 0.26500 0.05674
v -0.01276 0.26500 0.05674
v -0.00765 0.30500 0.01596
v 0.00404 0.30500 0.02764
v -0.03674 0.26500 0.03276
v -0.03674 0.26500 0.03276
v -0.01192 0.30500 -0.00000
v -0.00765 0.30500 0.01596
v -0.04552 0.26500 -0.00000
v -0.04552 0.26500 -0.00000
v -0.00765 0.30500 -0.01596
v -0.01192 0.30500 -0.00000
v -0.03674 0.26500 -0.03276
v 0.04764 0.30500 -0.01596
v 0.02000 0.30500 -0.03192
v 0.03596 0.30500 -0.02765
v -0.00765 0.30500 -0.01596
v 0.00404 0.30500 -0.02765
v 0.04764 0.30500 0.01596
v 0.05192 0.30500 -0.00000
v 0.02000 0.30500 0.03192
v 0.03596 0.30500 0.02764
v -0.00765 0.30500 0.01596
v 0.00404 0.30500 0.02764
v -0.01192 0.30500 -0.00000
v -0.03674 0.26500 -0.03276
v 0.00404 0.30500 -0.02765
v -0.00765 0.30500 -0.01596
v -0.01276 0.26500 -0.05674
v -0.01276 0.26500 -0.05674
v 0.02000 0.30500 -0.03192
v 0.00404 0.30500 -0.02765
v 0.02000 0.26500 -0.06552
v 0.02000 0.30500 -0.03192
v 0.02504 0.32500 -0.00873
v 0.02000 0.32500 -0.01008
v 0.03596 0.30500 -0.02765
v 0.03596 0.30500 -0.02765
v 0.02873 0.32500 -0.00504
v 0.02504 0.32500 -0.00873
v 0.04764 0.30500 -0.01596
v 0.04764 0.30500 -0.01596
v 0.03008 0.32500 -0.00000
v 0.02873 0.32500 -0.00504
v 0.05192 0.30500 -0.00000
v 0.05192 0.30500 -0.00000
v 0.02873 0.32500 0.00504
v 0.03008 0.32500 -0.00000
v 0.04764 0.30500 0.01596
v 0.04764 0.30500 0.01596
v 0.02504 0.32500 0.00873
v 0.02873 0.32500 0.00504
v 0.03596 0.30500 0.02764
v 0.03596 0.30500 0.02764
v 0.02000 0.32500 0.01008
v 0.02504 0.32500 0.00873
v 0.02000 0.30500 0.03192
v 0.02000 0.30500 0.03192
v 0.01496 0.32500 0.00873
v 0.02000 0.32500 0.01008
v 0.00404 0.30500 0.02764
v 0.00404 0.30500 0.02764
v 0.01127 0.32500 0.00504
v 0.01496 0.32500 0.00873
v -0.00765 0.30500 0.01596
v -0.00765 0.30500 0.01596
v 0.00992 0.32500 -0.00000
v 0.01127 0.32500 0.00504
v -0.01192 0.30500 -0.00000
v -0.01192 0.30500 -0.00000
v 0.01127 0.32500 -0.00504
v 0.00992 0.32500 -0.00000
v -0.00765 0.30500 -0.01596
v 0.02873 0.32500 -0.00504
v 0.02000 0.32500 -0.01008
v 0.02504 0.32500 -0.00873
v 0.01127 0.32500 -0.00504
v 0.01496 0.32500 -0.00873
v 0.02873 0.32500 0.00504
v 0.03008 0.32500 -0.00000
v 0.02000 0.32500 0.01008
v 0.02504 0.32500 0.00873
v 0.01127 0.32500 0.00504
v 0.01496 0.32500 0.00873
v 0.00992 0.32500 -0.00000
v -0.00765 0.30500 -0.01596
v 0.01496 0.32500 -0.00873
v 0.01127 0.32500 -0.00504
v 0.00404 0.30500 -0.02765
v 0.00404 0.30500 -0.02765
v 0.02000 0.32500 -0.01008
v 0.01496 0.32500 -0.00873
v 0.02000 0.30500 -0.03192
v -0.12500 0.09500 -0.06500
v -0.01000 0.20000 -0.06500
v -0.12500 0.13000 -0.06500
v -0.01000 0.16500 -0.06500
v -0.12500 0.09500 0.06500
v -0.01000 0.20000 0.06500
v -0.01000 0.16500 0.06500
v -0.12500 0.13000 0.06500
v -0.12500 0.09500 -0.06500
v -0.01000 0.16500 0.06500
v -0.01000 0.16500 -0.06500
v -0.12500 0.09500 0.06500
v -0.01000 0.16500 -0.06500
v -0.01000 0.20000 0.06500
v -0.01000 0.20000 -0.06500
v -0.01000 0.16500 0.06500
v -0.01000 0.20000 -0.06500
v -0.12500 0.13000 0.06500
v -0.12500 0.13000 -0.06500
v -0.01000 0.20000 0.06500
v -0.12500 0.13000 -0.06500
v -0.12500 0.09500 0.06500
v -0.12500 0.09500 -0.06500
v -0.12500 0.13000 0.06500
vn 0.4832 -0.8361 -0.2597
vn 0.4832 -0.8361 -0.2597
vn 0.4832 -0.8361 -0.2597
vn 0.4832 -0.8361 -0.2597
vn -0.1001 -0.9029 -0.4180
vn -0.1001 -0.9029 -0.4180
vn -0.1001 -0.9029 -0.4180
vn -0.1001 -0.9029 -0.4180
vn -0.5348 -0.5601 -0.6327
vn -0.5348 -0.5601 -0.6327
vn -0.5348 -0.5601 -0.6327
vn -0.5348 -0.5601 -0.6327
vn -0.4569 -0.4398 -0.7732
vn -0.4569 -0.4398 -0.7732
vn -0.4569 -0.4398 -0.7732
vn -0.4569 -0.4398 -0.7732
vn 0.3464 0.3376 0.8752
vn 0.3464 0.3376 0.8752
vn 0.3464 0.3376 0.8752
vn 0.3464 0.3376 0.8752
vn 0.2438 0.3043 0.9208
vn 0.2438 0.3043 0.9208
vn 0.2438 0.3043 0.9208
vn 0.2438 0.3043 0.9208
vn 0.1592 0.4154 0.8956
vn 0.1592 0.4154 0.8956
vn 0.1592 0.4154 0.8956
vn 0.1592 0.4154 0.8956
vn 0.0905 0.6257 0.7748
vn 0.0905 0.6257 0.7748
vn 0.0905 0.6257 0.7748
vn 0.0905 0.6257 0.7748
vn 0.0101 0.7811 0.6243
vn 0.0101 0.7811 0.6243
vn 0.0101 0.7811 0.6243
vn 0.0101 0.7811 0.6243
vn -0.1441 0.8293 0.5399
vn -0.1441 0.8293 0.5399
vn -0.1441 0.8293 0.5399
vn -0.1441 0.8293 0.5399
vn -0.0000 0.7071 0.7071
vn -0.0000 0.7071 0.7071
vn -0.0000 0.7071 0.7071
vn -0.0000 0.7071 0.7071
vn -0.0000 0.7071 0.7071
vn -0.0000 0.7071 0.7071
vn -0.0000 0.7071 0.7071
vn -0.0000 0.7071 0.7071
vn -0.0000 0.7071 0.7071
vn -0.0000 0.7071 0.7071
vn -0.0000 0.7071 0.7071
vn -0.0000 0.7071 0.7071
vn -0.3308 0.8218 0.4640
vn -0.3308 0.8218 0.4640
vn -0.3308 0.8218 0.4640
vn -0.3308 0.8218 0.4640
vn 0.4525 -0.8166 -0.3584
vn 0.4525 -0.8166 -0.3584
vn 0.4525 -0.8166 -0.3584
vn 0.4525 -0.8166 -0.3584
vn -0.0000 -0.7071 0.7071
vn -0.0000 -0.7071 0.7071
vn -0.0000 -0.7071 0.7071
vn -0.0000 -0.7071 0.7071
vn -0.0000 -0.7071 0.7071
vn -0.0000 -0.7071 0.7071
vn -0.0000 -0.7071 0.7071
vn -0.0000 -0.7071 0.7071
vn -0.0000 -0.7071 0.7071
vn -0.0000 -0.7071 0.7071
vn -0.0000 -0.7071 0.7071
vn -0.0000 -0.7071 0.7071
vn 0.5105 -0.8261 -0.2388
vn 0.5105 -0.8261 -0.2388
vn 0.5105 -0.8261 -0.2388
vn 0.5105 -0.8261 -0.2388
vn -0.1061 -0.9074 -0.4067
vn -0.1061 -0.9074 -0.4067
vn -0.1061 -0.9074 -0.4067
vn -0.1061 -0.9074 -0.4067
vn -0.5591 -0.5375 -0.6313
vn -0.5591 -0.5375 -0.6313
vn -0.5591 -0.5375 -0.6313
vn -0.5591 -0.5375 -0.6313
vn -0.4692 -0.4239 -0.7747
vn -0.4692 -0.4239 -0.7747
vn -0.4692 -0.4239 -0.7747
vn -0.4692 -0.4239 -0.7747
vn 0.3530 0.3212 0.8788
vn 0.3530 0.3212 0.8788
vn 0.3530 0.3212 0.8788
vn 0.3530 0.3212 0.8788
vn 0.2464 0.2884 0.9253
vn 0.2464 0.2884 0.9253
vn 0.2464 0.2884 0.9253
vn 0.2464 0.2884 0.9253
vn 0.1584 0.4073 0.8995
vn 0.1584 0.4073 0.8995
vn 0.1584 0.4073 0.8995
vn 0.1584 0.4073 0.8995
vn 0.0898 0.6301 0.7713
vn 0.0898 0.6301 0.7713
vn 0.0898 0.6301 0.7713
vn 0.0898 0.6301 0.7713
vn 0.0135 0.7913 0.6113
vn 0.0135 0.7913 0.6113
vn 0.0135 0.7913 0.6113
vn 0.0135 0.7913 0.6113
vn -0.1411 0.8377 0.5276
vn -0.1411 0.8377 0.5276
vn -0.1411 0.8377 0.5276
vn -0.1411 0.8377 0.5276
vn -0.0000 0.7071 0.7071
vn -0.0000 0.7071 0.7071
vn -0.0000 0.7071 0.7071
vn -0.0000 0.7071 0.7071
vn -0.0000 0.7071 0.7071
vn -0.0000 0.7071 0.7071
vn -0.0000 0.7071 0.7071
vn -0.0000 0.7071 0.7071
vn -0.0000 0.7071 0.7071
vn -0.0000 0.7071 0.7071
vn -0.0000 0.7071 0.7071
vn -0.0000 0.7071 0.7071
vn -0.3356 0.8251 0.4546
vn -0.3356 0.8251 0.4546
vn -0.3356 0.8251 0.4546
vn -0.3356 0.8251 0.4546
vn 0.4653 -0.8145 -0.3466
vn 0.4653 -0.8145 -0.3466
vn 0.4653 -0.8145 -0.3466
vn 0.4653 -0.8145 -0.3466
vn 0.3841 -0.8607 -0.3341
vn 0.3841 -0.8607 -0.3341
vn 0.3841 -0.8607 -0.3341
vn 0.3841 -0.8607 -0.3341
vn -0.0797 -0.8852 -0.4583
vn -0.0797 -0.8852 -0.4583
vn -0.0797 -0.8852 -0.4583
vn -0.0797 -0.8852 -0.4583
vn -0.4426 -0.6302 -0.6380
vn -0.4426 -0.6302 -0.6380
vn -0.4426 -0.6302 -0.6380
vn -0.4426 -0.6302 -0.6380
vn -0.4086 -0.4945 -0.7671
vn -0.4086 -0.4945 -0.7671
vn -0.4086 -0.4945 -0.7671
vn -0.4086 -0.4945 -0.7671
vn 0.3193 0.3953 0.8613
vn 0.3193 0.3953 0.8613
vn 0.3193 0.3953 0.8613
vn 0.3193 0.3953 0.8613
vn 0.2302 0.3611 0.9037
vn 0.2302 0.3611 0.9037
vn 0.2302 0.3611 0.9037
vn 0.2302 0.3611 0.9037
vn 0.1555 0.4456 0.8816
vn 0.1555 0.4456 0.8816
vn 0.1555 0.4456 0.8816
vn 0.1555 0.4456 0.8816
vn 0.0863 0.6134 0.7851
vn 0.0863 0.6134 0.7851
vn 0.0863 0.6134 0.7851
vn 0.0863 0.6134 0.7851
vn -0.0043 0.7479 0.6638
vn -0.0043 0.7479 0.6638
vn -0.0043 0.7479 0.6638
vn -0.0043 0.7479 0.6638
vn -0.1513 0.8012 0.5789
vn -0.1513 0.8012 0.5789
vn -0.1513 0.8012 0.5789
vn -0.1513 0.8012 0.5789
vn -0.0000 0.7071 0.7071
vn -0.0000 0.7071 0.7071
vn -0.0000 0.7071 0.7071
vn -0.0000 0.7071 0.7071
vn -0.0000 0.7071 0.7071
vn -0.0000 0.7071 0.7071
vn -0.0000 0.7071 0.7071
vn -0.0000 0.7071 0.7071
vn -0.0000 0.7071 0.7071
vn -0.0000 0.7071 0.7071
vn -0.0000 0.7071 0.7071
vn -0.0000 0.7071 0.7071
vn -0.3090 0.8109 0.4970
vn -0.3090 0.8109 0.4970
vn -0.3090 0.8109 0.4970
vn -0.3090 0.8109 0.4970
vn 0.4024 -0.8227 -0.4016
vn 0.4024 -0.8227 -0.4016
vn 0.4024 -0.8227 -0.4016
vn 0.4024 -0.8227 -0.4016
vn -0.7071 0.7071 -0.0000
vn -0.7071 0.7071 -0.0000
vn -0.7071 0.7071 -0.0000
vn -0.7071 0.7071 -0.0000
vn -0.0000 -0.0000 1.0000
vn -0.0000 -0.0000 1.0000
vn -0.0000 -0.0000 1.0000
vn -0.0000 -0.0000 1.0000
vn 0.2936 -0.6461 0.7045
vn 0.2936 -0.6461 0.7045
vn 0.2936 -0.6461 0.7045
vn 0.2936 -0.6461 0.7045
vn 0.7071 -0.0000 0.7071
vn 0.7071 -0.0000 0.7071
vn 0.7071 -0.0000 0.7071
vn 0.7071 -0.0000 0.7071
vn -0.0886 0.7341 0.6732
vn -0.0886 0.7341 0.6732
vn -0.0886 0.7341 0.6732
vn -0.0886 0.7341 0.6732
vn 0.0000 1.0000 -0.0000
vn 0.0000 1.0000 -0.0000
vn 0.0000 1.0000 -0.0000
vn 0.0000 1.0000 -0.0000
f 433//433 435//435 434//434
f 433//433 434//434 436//436
f 437//437 439//439 438//438
f 437//437 438//438 440//440
f 441//441 443//443 442//442
f 441//441 442//442 444//444
f 445//445 447//447 446//446
f 445//445 446//446 448//448
f 449//449 451//451 450//450
f 449//449 450//450 452//452
f 453//453 455//455 454//454
f 453//453 454//454 456//456
f 457//457 459//459 458//458
f 457//457 458//458 460//460
f 461//461 463//463 462//462
f 461//461 462//462 464//464
f 465//465 467//467 466//466
f 465//465 466//466 468//468
f 469//469 471//471 470//470
f 469//469 470//470 472//472
f 473//473 475//475 474//474
f 473//473 474//474 476//476
f 474//474 477//477 476//476
f 478//478 479//479 473//473
f 480//480 478//478 473//473
f 476//476 480//480 473//473
f 480//480 481//481 478//478
f 476//476 482//482 480//480
f 482//482 483//483 480//480
f 476//476 484//484 482//482
f 485//485 487//487 486//486
f 485//485 486//486 488//488
f 489//489 491//491 490//490
f 489//489 490//490 492//492
f 493//493 495//495 494//494
f 493//493 494//494 496//496
f 494//494 497//497 496//496
f 498//498 499//499 493//493
f 500//500 498//498 493//493
f 496//496 500//500 493//493
f 500//500 501//501 498//498
f 496//496 502//502 500//500
f 502//502 503//503 500//500
f 496//496 504//504 502//502
f 505//505 507//507 506//506
f 505//505 506//506 508//508
f 509//509 511//511 510//510
f 509//509 510//510 512//512
f 513//513 515//515 514//514
f 513//513 514//514 516//516
f 517//517 519//519 518//518
f 517//517 518//518 520//520
f 521//521 523//523 522//522
f 521//521 522//522 524//524
f 525//525 527//527 526//526
f 525//525 526//526 528//528
f 529//529 531//531 530//530
f 529//529 530//530 532//532
f 533//533 535//535 534//534
f 533//533 534//534 536//536
f 537//537 539//539 538//538
f 537//537 538//538 540//540
f 541//541 543//543 542//542
f 541//541 542//542 544//544
f 545//545 547//547 546//546
f 545//545 546//546 548//548
f 546//546 549//549 548//548
f 550//550 551//551 545//545
f 552//552 550//550 545//545
f 548//548 552//552 545//545
f 552//552 553//553 550//550
f 548//548 554//554 552//552
f 554//554 555//555 552//552
f 548//548 556//556 554//554
f 557//557 559//559 558//558
f 557//557 558//558 560//560
f 561//561 563//563 562//562
f 561//561 562//562 564//564
f 565//565 567//567 566//566
f 565//565 566//566 568//568
f 569//569 571//571 570//570
f 569//569 570//570 572//572
f 573//573 575//575 574//574
f 573//573 574//574 576//576
f 577//577 579//579 578//578
f 577//577 578//578 580//580
f 581//581 583//583 582//582
f 581//581 582//582 584//584
f 585//585 587//587 586//586
f 585//585 586//586 588//588
f 589//589 591//591 590//590
f 589//589 590//590 592//592
f 593//593 595//595 594//594
f 593//593 594//594 596//596
f 597//597 599//599 598//598
f 597//597 598//598 600//600
f 601//601 603//603 602//602
f 601//601 602//602 604//604
f 605//605 607//607 606//606
f 605//605 606//606 608//608
f 606//606 609//609 608//608
f 610//610 611//611 605//605
f 612//612 610//610 605//605
f 608//608 612//612 605//605
f 612//612 613//613 610//610
f 608//608 614//614 612//612
f 614//614 615//615 612//612
f 608//608 616//616 614//614
f 617//617 619//619 618//618
f 617//617 618//618 620//620
f 621//621 623//623 622//622
f 621//621 622//622 624//624
f 625//625 627//627 626//626
f 625//625 626//626 628//628
f 629//629 631//631 630//630
f 629//629 630//630 632//632
f 633//633 635//635 634//634
f 633//633 634//634 636//636
f 637//637 639//639 638//638
f 637//637 638//638 640//640
f 641//641 643//643 642//642
f 641//641 642//642 644//644
f 645//645 647//647 646//646
f 645//645 646//646 648//648
g core_gold
usemtl gold
v 0.02000 0.31300 -0.00000
v 0.01392 0.32516 0.01871
v 0.03592 0.32516 0.01157
v 0.03592 0.32516 0.01157
v 0.03592 0.32516 -0.01157
v 0.02000 0.31300 -0.00000
v 0.02000 0.31300 -0.00000
v 0.00032 0.32516 -0.00000
v 0.01392 0.32516 0.01871
v 0.02000 0.31300 -0.00000
v 0.01392 0.32516 -0.01871
v 0.00032 0.32516 -0.00000
v 0.02000 0.31300 -0.00000
v 0.03592 0.32516 -0.01157
v 0.01392 0.32516 -0.01871
v 0.03592 0.32516 0.01157
v 0.03968 0.34484 -0.00000
v 0.03592 0.32516 -0.01157
v 0.01392 0.32516 0.01871
v 0.02608 0.34484 0.01871
v 0.03592 0.32516 0.01157
v 0.00032 0.32516 -0.00000
v 0.00408 0.34484 0.01157
v 0.01392 0.32516 0.01871
v 0.01392 0.32516 -0.01871
v 0.00408 0.34484 -0.01157
v 0.00032 0.32516 -0.00000
v 0.03592 0.32516 -0.01157
v 0.02608 0.34484 -0.01871
v 0.01392 0.32516 -0.01871
v 0.03592 0.32516 0.01157
v 0.02608 0.34484 0.01871
v 0.03968 0.34484 -0.00000
v 0.01392 0.32516 0.01871
v 0.00408 0.34484 0.01157
v 0.02608 0.34484 0.01871
v 0.00032 0.32516 -0.00000
v 0.00408 0.34484 -0.01157
v 0.00408 0.34484 0.01157
v 0.01392 0.32516 -0.01871
v 0.02608 0.34484 -0.01871
v 0.00408 0.34484 -0.01157
v 0.03592 0.32516 -0.01157
v 0.03968 0.34484 -0.00000
v 0.02608 0.34484 -0.01871
v 0.02608 0.34484 0.01871
v 0.02000 0.35700 -0.00000
v 0.03968 0.34484 -0.00000
v 0.00408 0.34484 0.01157
v 0.02000 0.35700 -0.00000
v 0.02608 0.34484 0.01871
v 0.00408 0.34484 -0.01157
v 0.02000 0.35700 -0.00000
v 0.00408 0.34484 0.01157
v 0.02608 0.34484 -0.01871
v 0.02000 0.35700 -0.00000
v 0.00408 0.34484 -0.01157
v 0.03968 0.34484 -0.00000
v 0.02000 0.35700 -0.00000
v 0.02608 0.34484 -0.01871
vn -0.0795 -0.4827 0.8722
vn -0.0795 -0.4827 0.8722
vn -0.0795 -0.4827 0.8722
vn 0.3666 -0.6071 0.7050
vn 0.3666 -0.6071 0.7050
vn 0.3666 -0.6071 0.7050
vn 0.1816 0.5485 -0.8162
vn 0.1816 0.5485 -0.8162
vn 0.1816 0.5485 -0.8162
vn -0.0193 0.8657 -0.5001
vn -0.0193 0.8657 -0.5001
vn -0.0193 0.8657 -0.5001
vn -0.4310 0.7842 -0.4464
vn -0.4310 0.7842 -0.4464
vn -0.4310 0.7842 -0.4464
vn 0.6943 -0.1338 0.7071
vn 0.6943 -0.1338 0.7071
vn 0.6943 -0.1338 0.7071
vn 0.0843 -0.2056 0.9750
vn 0.0843 -0.2056 0.9750
vn 0.0843 -0.2056 0.9750
vn -0.3100 0.9359 0.1673
vn -0.3100 0.9359 0.1673
vn -0.3100 0.9359 0.1673
vn -0.1515 0.9876 -0.0411
vn -0.1515 0.9876 -0.0411
vn -0.1515 0.9876 -0.0411
vn 0.7901 -0.5858 0.1808
vn 0.7901 -0.5858 0.1808
vn 0.7901 -0.5858 0.1808
vn 0.4624 0.0369 0.8859
vn 0.4624 0.0369 0.8859
vn 0.4624 0.0369 0.8859
vn -0.0249 0.2948 0.9552
vn -0.0249 0.2948 0.9552
vn -0.0249 0.2948 0.9552
vn -0.0017 0.9826 0.1859
vn -0.0017 0.9826 0.1859
vn -0.0017 0.9826 0.1859
vn -0.5790 0.7977 0.1683
vn -0.5790 0.7977 0.1683
vn -0.5790 0.7977 0.1683
vn 0.8940 -0.0789 0.4410
vn 0.8940 -0.0789 0.4410
vn 0.8940 -0.0789 0.4410
vn 0.3088 0.4757 0.8236
vn 0.3088 0.4757 0.8236
vn 0.3088 0.4757 0.8236
vn 0.1359 0.4900 0.8611
vn 0.1359 0.4900 0.8611
vn 0.1359 0.4900 0.8611
vn -0.0827 0.7552 0.6503
vn -0.0827 0.7552 0.6503
vn -0.0827 0.7552 0.6503
vn 0.3427 -0.8220 -0.4549
vn 0.3427 -0.8220 -0.4549
vn 0.3427 -0.8220 -0.4549
vn -0.1939 -0.8143 -0.5472
vn -0.1939 -0.8143 -0.5472
vn -0.1939 -0.8143 -0.5472
f 649//649 651//651 650//650
f 652//652 654//654 653//653
f 655//655 657//657 656//656
f 658//658 660//660 659//659
f 661//661 663//663 662//662
f 664//664 666//666 665//665
f 667//667 669//669 668//668
f 670//670 672//672 671//671
f 673//673 675//675 674//674
f 676//676 678//678 677//677
f 679//679 681//681 680//680
f 682//682 684//684 683//683
f 685//685 687//687 686//686
f 688//688 690//690 689//689
f 691//691 693//693 692//692
f 694//694 696//696 695//695
f 697//697 699//699 698//698
f 700//700 702//702 701//701
f 703//703 705//705 704//704
f 706//706 708//708 707//707
g core_black
usemtl black
v 0.00400 0.15500 0.08700
v 0.00400 0.18500 0.07300
v 0.00400 0.18500 0.08700
v 0.00400 0.15500 0.07300
v 0.00400 0.15500 0.07300
v 0.03600 0.18500 0.07300
v 0.00400 0.18500 0.07300
v 0.03600 0.15500 0.07300
v 0.03600 0.15500 0.07300
v 0.03600 0.18500 0.08700
v 0.03600 0.18500 0.07300
v 0.03600 0.15500 0.08700
v 0.03600 0.15500 0.08700
v 0.00400 0.18500 0.08700
v 0.03600 0.18500 0.08700
v 0.00400 0.15500 0.08700
v 0.00400 0.15500 0.07300
v 0.03600 0.15500 0.08700
v 0.03600 0.15500 0.07300
v 0.00400 0.15500 0.08700
v 0.03600 0.18500 0.07300
v 0.00400 0.18500 0.08700
v 0.00400 0.18500 0.07300
v 0.03600 0.18500 0.08700
vn 0.0000 1.0000 -0.0000
vn 0.0000 1.0000 -0.0000
vn 0.0000 1.0000 -0.0000
vn 0.0000 1.0000 -0.0000
vn -0.7071 0.7071 -0.0000
vn -0.7071 0.7071 -0.0000
vn -0.7071 0.7071 -0.0000
vn -0.7071 0.7071 -0.0000
vn 0.7071 -0.0000 0.7071
vn 0.7071 -0.0000 0.7071
vn 0.7071 -0.0000 0.7071
vn 0.7071 -0.0000 0.7071
vn -0.0000 -0.0000 1.0000
vn -0.0000 -0.0000 1.0000
vn -0.0000 -0.0000 1.0000
vn -0.0000 -0.0000 1.0000
vn -0.0000 -0.7071 0.7071
vn -0.0000 -0.7071 0.7071
vn -0.0000 -0.7071 0.7071
vn -0.0000 -0.7071 0.7071
vn -0.0000 0.7071 0.7071
vn -0.0000 0.7071 0.7071
vn -0.0000 0.7071 0.7071
vn -0.0000 0.7071 0.7071
f 709//709 711//711 710//710
f 709//709 710//710 712//712
f 713//713 715//715 714//714
f 713//713 714//714 716//716
f 717//717 719//719 718//718
f 717//717 718//718 720//720
f 721//721 723//723 722//722
f 721//721 722//722 724//724
f 725//725 727//727 726//726
f 725//725 726//726 728//728
f 729//729 731//731 730//730
f 729//729 730//730 732//732
