mtllib library.mtl
o core
g core_stone
usemtl stone
v 0.05500 0.00000 -0.07000
v 0.08439 0.33500 -0.06045
v 0.05500 0.33500 -0.07000
v 0.08439 0.00000 -0.06045
v 0.08439 0.00000 -0.06045
v 0.10255 0.33500 -0.03545
v 0.08439 0.33500 -0.06045
v 0.10255 0.00000 -0.03545
v 0.10255 0.00000 -0.03545
v 0.10255 0.33500 -0.00455
v 0.10255 0.33500 -0.03545
v 0.10255 0.00000 -0.00455
v 0.10255 0.00000 -0.00455
v 0.08439 0.33500 0.02045
v 0.10255 0.33500 -0.00455
v 0.08439 0.00000 0.02045
v 0.08439 0.00000 0.02045
v 0.05500 0.33500 0.03000
v 0.08439 0.33500 0.02045
v 0.05500 0.00000 0.03000
v 0.05500 0.00000 0.03000
v 0.02561 0.33500 0.02045
v 0.05500 0.33500 0.03000
v 0.02561 0.00000 0.02045
v 0.02561 0.00000 0.02045
v 0.00745 0.33500 -0.00455
v 0.02561 0.33500 0.02045
v 0.00745 0.00000 -0.00455
v 0.00745 0.00000 -0.00455
v 0.00745 0.33500 -0.03545
v 0.00745 0.33500 -0.00455
v 0.00745 0.00000 -0.03545
v 0.10255 0.33500 -0.03545
v 0.05500 0.33500 -0.07000
v 0.08439 0.33500 -0.06045
v 0.00745 0.33500 -0.03545
v 0.02561 0.33500 -0.06045
v 0.08439 0.33500 0.02045
v 0.10255 0.33500 -0.00455
v 0.02561 0.33500 0.02045
v 0.05500 0.33500 0.03000
v 0.00745 0.33500 -0.00455
v 0.00745 0.00000 -0.03545
v 0.02561 0.33500 -0.06045
v 0.00745 0.33500 -0.03545
v 0.02561 0.00000 -0.06045
v 0.02561 0.00000 -0.06045
v 0.05500 0.33500 -0.07000
v 0.02561 0.33500 -0.06045
v 0.05500 0.00000 -0.07000
v 0.02561 0.00000 -0.06045
v 0.08439 0.00000 -0.06045
v 0.05500 0.00000 -0.07000
v 0.10255 0.00000 -0.00455
v 0.10255 0.00000 -0.03545
v 0.00745 0.00000 -0.00455
v 0.00745 0.00000 -0.03545
v 0.05500 0.00000 0.03000
v 0.02561 0.00000 0.02045
v 0.08439 0.00000 0.02045
v 0.03100 0.00400 0.04000
v -0.10100 0.18600 0.04000
v 0.03100 0.18600 0.04000
v -0.10100 0.00400 0.04000
v 0.03500 0.00400 -0.06600
v 0.03500 0.18600 0.03600
v 0.03500 0.18600 -0.06600
v 0.03500 0.00400 0.03600
v 0.03100 0.19000 -0.06600
v -0.10100 0.19000 0.03600
v -0.10100 0.19000 -0.06600
v 0.03100 0.19000 0.03600
v -0.10500 0.00400 0.03600
v -0.10500 0.18600 -0.06600
v -0.10500 0.18600 0.03600
v -0.10500 0.00400 -0.06600
v -0.10100 0.00400 -0.07000
v 0.03100 0.18600 -0.07000
v -0.10100 0.18600 -0.07000
v 0.03100 0.00400 -0.07000
v -0.10100 0.00000 0.03600
v -0.10500 0.00400 0.03600
v -0.10100 0.00400 0.04000
v -0.10100 0.18600 0.04000
v -0.10500 0.18600 0.03600
v -0.10100 0.19000 0.03600
v -0.10100 0.00000 -0.06600
v -0.10100 0.00400 -0.07000
v -0.10500 0.00400 -0.06600
v -0.10100 0.19000 -0.06600
v -0.10500 0.18600 -0.06600
v -0.10100 0.18600 -0.07000
v 0.03100 0.00000 0.03600
v 0.03100 0.00400 0.04000
v 0.03500 0.00400 0.03600
v 0.03100 0.19000 0.03600
v 0.03500 0.18600 0.03600
v 0.03100 0.18600 0.04000
v 0.03100 0.00000 -0.06600
v 0.03500 0.00400 -0.06600
v 0.03100 0.00400 -0.07000
v 0.03100 0.19000 -0.06600
v 0.03100 0.18600 -0.07000
v 0.03500 0.18600 -0.06600
v -0.10100 0.00000 -0.06600
v -0.10500 0.00400 0.03600
v -0.10100 0.00000 0.03600
v -0.10500 0.00400 -0.06600
v -0.10100 0.00400 0.04000
v -0.10500 0.18600 0.03600
v -0.10100 0.18600 0.04000
v -0.10500 0.00400 0.03600
v -0.10100 0.19000 0.03600
v -0.10500 0.18600 -0.06600
v -0.10100 0.19000 -0.06600
v -0.10500 0.18600 0.03600
v -0.10100 0.18600 -0.07000
v -0.10500 0.00400 -0.06600
v -0.10100 0.00400 -0.07000
v -0.10500 0.18600 -0.06600
v 0.03100 0.00000 -0.06600
v -0.10100 0.00400 -0.07000
v -0.10100 0.00000 -0.06600
v 0.03100 0.00400 -0.07000
v -0.10100 0.19000 -0.06600
v 0.03100 0.18600 -0.07000
v 0.03100 0.19000 -0.06600
v -0.10100 0.18600 -0.07000
v 0.03500 0.18600 -0.06600
v 0.03100 0.00400 -0.07000
v 0.03500 0.00400 -0.06600
v 0.03100 0.18600 -0.07000
v 0.03100 0.00000 0.03600
v 0.03500 0.00400 -0.06600
v 0.03100 0.00000 -0.06600
v 0.03500 0.00400 0.03600
v 0.03100 0.19000 -0.06600
v 0.03500 0.18600 0.03600
v 0.03100 0.19000 0.03600
v 0.03500 0.18600 -0.06600
v 0.03100 0.18600 0.04000
v 0.03500 0.00400 0.03600
v 0.03100 0.00400 0.04000
v 0.03500 0.18600 0.03600
v -0.10100 0.00000 0.03600
v 0.03100 0.00400 0.04000
v 0.03100 0.00000 0.03600
v -0.10100 0.00400 0.04000
v 0.03100 0.19000 0.03600
v -0.10100 0.18600 0.04000
v -0.10100 0.19000 0.03600
v 0.03100 0.18600 0.04000
v -0.10100 0.00000 -0.06600
v 0.03100 0.00000 0.03600
v 0.03100 0.00000 -0.06600
v -0.10100 0.00000 0.03600
v 0.05500 0.32300 -0.07800
v 0.08909 0.34900 -0.06692
v 0.05500 0.34900 -0.07800
v 0.08909 0.32300 -0.06692
v 0.08909 0.32300 -0.06692
v 0.11016 0.34900 -0.03792
v 0.08909 0.34900 -0.06692
v 0.11016 0.32300 -0.03792
v 0.11016 0.32300 -0.03792
v 0.11016 0.34900 -0.00208
v 0.11016 0.34900 -0.03792
v 0.11016 0.32300 -0.00208
v 0.11016 0.32300 -0.00208
v 0.08909 0.34900 0.02692
v 0.11016 0.34900 -0.00208
v 0.08909 0.32300 0.02692
v 0.08909 0.32300 0.02692
v 0.05500 0.34900 0.03800
v 0.08909 0.34900 0.02692
v 0.05500 0.32300 0.03800
v 0.05500 0.32300 0.03800
v 0.02091 0.34900 0.02692
v 0.05500 0.34900 0.03800
v 0.02091 0.32300 0.02692
v 0.02091 0.32300 0.02692
v -0.00016 0.34900 -0.00208
v 0.02091 0.34900 0.02692
v -0.00016 0.32300 -0.00208
v -0.00016 0.32300 -0.00208
v -0.00016 0.34900 -0.03792
v -0.00016 0.34900 -0.00208
v -0.00016 0.32300 -0.03792
v 0.11016 0.34900 -0.03792
v 0.05500 0.34900 -0.07800
v 0.08909 0.34900 -0.06692
v -0.00016 0.34900 -0.03792
v 0.02091 0.34900 -0.06692
v 0.08909 0.34900 0.02692
v 0.11016 0.34900 -0.00208
v 0.02091 0.34900 0.02692
v 0.05500 0.34900 0.03800
v -0.00016 0.34900 -0.00208
v -0.00016 0.32300 -0.03792
v 0.02091 0.34900 -0.06692
v -0.00016 0.34900 -0.03792
v 0.02091 0.32300 -0.06692
v 0.02091 0.32300 -0.06692
v 0.05500 0.34900 -0.07800
v 0.02091 0.34900 -0.06692
v 0.05500 0.32300 -0.07800
v 0.02091 0.32300 -0.06692
v 0.08909 0.32300 -0.06692
v 0.05500 0.32300 -0.07800
v 0.11016 0.32300 -0.00208
v 0.11016 0.32300 -0.03792
v -0.00016 0.32300 -0.00208
v -0.00016 0.32300 -0.03792
v 0.05500 0.32300 0.03800
v 0.02091 0.32300 0.02692
v 0.08909 0.32300 0.02692
vn 0.3090 0.0000 -0.9511
vn 0.3090 0.0000 -0.9511
vn 0.3090 0.0000 -0.9511
vn 0.3090 0.0000 -0.9511
vn 0.8090 0.0000 -0.5878
vn 0.8090 0.0000 -0.5878
vn 0.8090 0.0000 -0.5878
vn 0.8090 0.0000 -0.5878
vn 1.0000 0.0000 -0.0000
vn 1.0000 0.0000 -0.0000
vn 1.0000 0.0000 -0.0000
vn 1.0000 0.0000 -0.0000
vn 0.8090 -0.0000 0.5878
vn 0.8090 -0.0000 0.5878
vn 0.8090 -0.0000 0.5878
vn 0.8090 -0.0000 0.5878
vn 0.3090 -0.0000 0.9511
vn 0.3090 -0.0000 0.9511
vn 0.3090 -0.0000 0.9511
vn 0.3090 -0.0000 0.9511
vn -0.3090 -0.0000 0.9511
vn -0.3090 -0.0000 0.9511
vn -0.3090 -0.0000 0.9511
vn -0.3090 -0.0000 0.9511
vn -0.8090 -0.0000 0.5878
vn -0.8090 -0.0000 0.5878
vn -0.8090 -0.0000 0.5878
vn -0.8090 -0.0000 0.5878
vn -1.0000 0.0000 -0.0000
vn -1.0000 0.0000 -0.0000
vn -1.0000 0.0000 -0.0000
vn -1.0000 0.0000 -0.0000
vn 0.0000 1.0000 -0.0000
vn 0.0000 1.0000 -0.0000
vn 0.0000 1.0000 -0.0000
vn 0.0000 1.0000 -0.0000
vn 0.0000 1.0000 -0.0000
vn 0.0000 1.0000 -0.0000
vn 0.0000 1.0000 -0.0000
vn 0.0000 1.0000 -0.0000
vn 0.0000 1.0000 -0.0000
vn 0.0000 1.0000 -0.0000
vn -0.8090 0.0000 -0.5878
vn -0.8090 0.0000 -0.5878
vn -0.8090 0.0000 -0.5878
vn -0.8090 0.0000 -0.5878
vn -0.3090 0.0000 -0.9511
vn -0.3090 0.0000 -0.9511
vn -0.3090 0.0000 -0.9511
vn -0.3090 0.0000 -0.9511
vn 0.0000 -1.0000 -0.0000
vn 0.0000 -1.0000 -0.0000
vn 0.0000 -1.0000 -0.0000
vn 0.0000 -1.0000 -0.0000
vn 0.0000 -1.0000 -0.0000
vn 0.0000 -1.0000 -0.0000
vn 0.0000 -1.0000 -0.0000
vn 0.0000 -1.0000 -0.0000
vn 0.0000 -1.0000 -0.0000
vn 0.0000 -1.0000 -0.0000
vn -0.0000 -0.0000 1.0000
vn -0.0000 -0.0000 1.0000
vn -0.0000 -0.0000 1.0000
vn -0.0000 -0.0000 1.0000
vn 1.0000 0.0000 -0.0000
vn 1.0000 0.0000 -0.0000
vn 1.0000 0.0000 -0.0000
vn 1.0000 0.0000 -0.0000
vn 0.0000 1.0000 -0.0000
vn 0.0000 1.0000 -0.0000
vn 0.0000 1.0000 -0.0000
vn 0.0000 1.0000 -0.0000
vn -1.0000 0.0000 -0.0000
vn -1.0000 0.0000 -0.0000
vn -1.0000 0.0000 -0.0000
vn -1.0000 0.0000 -0.0000
vn 0.0000 0.0000 -1.0000
vn 0.0000 0.0000 -1.0000
vn 0.0000 0.0000 -1.0000
vn 0.0000 0.0000 -1.0000
vn -0.5773 -0.5774 0.5774
vn -0.5773 -0.5774 0.5774
vn -0.5773 -0.5774 0.5774
vn -0.5773 0.5774 0.5774
vn -0.5773 0.5774 0.5774
vn -0.5773 0.5774 0.5774
vn -0.5773 -0.5774 -0.5774
vn -0.5773 -0.5774 -0.5774
vn -0.5773 -0.5774 -0.5774
vn -0.5773 0.5774 -0.5774
vn -0.5773 0.5774 -0.5774
vn -0.5773 0.5774 -0.5774
vn 0.5774 -0.5774 0.5773
vn 0.5774 -0.5774 0.5773
vn 0.5774 -0.5774 0.5773
vn 0.5772 0.5774 0.5775
vn 0.5772 0.5774 0.5775
vn 0.5772 0.5774 0.5775
vn 0.5773 -0.5774 -0.5774
vn 0.5773 -0.5774 -0.5774
vn 0.5773 -0.5774 -0.5774
vn 0.5773 0.5774 -0.5773
vn 0.5773 0.5774 -0.5773
vn 0.5773 0.5774 -0.5773
vn -0.7071 -0.7071 -0.0001
vn -0.7071 -0.7071 -0.0001
vn -0.7071 -0.7071 -0.0001
vn -0.7071 -0.7071 -0.0001
vn -0.7071 -0.0000 0.7071
vn -0.7071 -0.0000 0.7071
vn -0.7071 -0.0000 0.7071
vn -0.7071 -0.0000 0.7071
vn -0.7071 0.7071 -0.0000
vn -0.7071 0.7071 -0.0000
vn -0.7071 0.7071 -0.0000
vn -0.7071 0.7071 -0.0000
vn -0.7071 0.0000 -0.7071
vn -0.7071 0.0000 -0.7071
vn -0.7071 0.0000 -0.7071
vn -0.7071 0.0000 -0.7071
vn 0.0000 -0.7071 -0.7071
vn 0.0000 -0.7071 -0.7071
vn 0.0000 -0.7071 -0.7071
vn 0.0000 -0.7071 -0.7071
vn 0.0000 0.7071 -0.7071
vn 0.0000 0.7071 -0.7071
vn 0.0000 0.7071 -0.7071
vn 0.0000 0.7071 -0.7071
vn 0.7071 0.0000 -0.7071
vn 0.7071 0.0000 -0.7071
vn 0.7071 0.0000 -0.7071
vn 0.7071 0.0000 -0.7071
vn 0.7071 -0.7071 -0.0000
vn 0.7071 -0.7071 -0.0000
vn 0.7071 -0.7071 -0.0000
vn 0.7071 -0.7071 -0.0000
vn 0.7071 0.7071 0.0000
vn 0.7071 0.7071 0.0000
vn 0.7071 0.7071 0.0000
vn 0.7071 0.7071 0.0000
vn 0.7071 -0.0000 0.7071
vn 0.7071 -0.0000 0.7071
vn 0.7071 -0.0000 0.7071
vn 0.7071 -0.0000 0.7071
vn -0.0000 -0.7071 0.7071
vn -0.0000 -0.7071 0.7071
vn -0.0000 -0.7071 0.7071
vn -0.0000 -0.7071 0.7071
vn -0.0000 0.7071 0.7071
vn -0.0000 0.7071 0.7071
vn -0.0000 0.7071 0.7071
vn -0.0000 0.7071 0.7071
vn 0.0000 -1.0000 -0.0000
vn 0.0000 -1.0000 -0.0000
vn 0.0000 -1.0000 -0.0000
vn 0.0000 -1.0000 -0.0000
vn 0.3090 0.0000 -0.9511
vn 0.3090 0.0000 -0.9511
vn 0.3090 0.0000 -0.9511
vn 0.3090 0.0000 -0.9511
vn 0.8090 0.0000 -0.5878
vn 0.8090 0.0000 -0.5878
vn 0.8090 0.0000 -0.5878
vn 0.8090 0.0000 -0.5878
vn 1.0000 0.0000 -0.0000
vn 1.0000 0.0000 -0.0000
vn 1.0000 0.0000 -0.0000
vn 1.0000 0.0000 -0.0000
vn 0.8090 -0.0000 0.5878
vn 0.8090 -0.0000 0.5878
vn 0.8090 -0.0000 0.5878
vn 0.8090 -0.0000 0.5878
vn 0.3090 -0.0000 0.9511
vn 0.3090 -0.0000 0.9511
vn 0.3090 -0.0000 0.9511
vn 0.3090 -0.0000 0.9511
vn -0.3090 -0.0000 0.9511
vn -0.3090 -0.0000 0.9511
vn -0.3090 -0.0000 0.9511
vn -0.3090 -0.0000 0.9511
vn -0.8090 -0.0000 0.5878
vn -0.8090 -0.0000 0.5878
vn -0.8090 -0.0000 0.5878
vn -0.8090 -0.0000 0.5878
vn -1.0000 0.0000 -0.0000
vn -1.0000 0.0000 -0.0000
vn -1.0000 0.0000 -0.0000
vn -1.0000 0.0000 -0.0000
vn 0.0000 1.0000 -0.0000
vn 0.0000 1.0000 -0.0000
vn 0.0000 1.0000 -0.0000
vn 0.0000 1.0000 -0.0000
vn 0.0000 1.0000 -0.0000
vn 0.0000 1.0000 -0.0000
vn 0.0000 1.0000 -0.0000
vn 0.0000 1.0000 -0.0000
vn 0.0000 1.0000 -0.0000
vn 0.0000 1.0000 -0.0000
vn -0.8090 0.0000 -0.5878
vn -0.8090 0.0000 -0.5878
vn -0.8090 0.0000 -0.5878
vn -0.8090 0.0000 -0.5878
vn -0.3090 0.0000 -0.9511
vn -0.3090 0.0000 -0.9511
vn -0.3090 0.0000 -0.9511
vn -0.3090 0.0000 -0.9511
vn 0.0000 -1.0000 -0.0000
vn 0.0000 -1.0000 -0.0000
vn 0.0000 -1.0000 -0.0000
vn 0.0000 -1.0000 -0.0000
vn 0.0000 -1.0000 -0.0000
vn 0.0000 -1.0000 -0.0000
vn 0.0000 -1.0000 -0.0000
vn 0.0000 -1.0000 -0.0000
vn 0.0000 -1.0000 -0.0000
vn 0.0000 -1.0000 -0.0000
f 61//61 63//63 62//62
f 61//61 62//62 64//64
f 65//65 67//67 66//66
f 65//65 66//66 68//68
f 69//69 71//71 70//70
f 69//69 70//70 72//72
f 73//73 75//75 74//74
f 73//73 74//74 76//76
f 77//77 79//79 78//78
f 77//77 78//78 80//80
f 81//81 83//83 82//82
f 84//84 86//86 85//85
f 87//87 89//89 88//88
f 90//90 92//92 91//91
f 93//93 95//95 94//94
f 96//96 98//98 97//97
f 99//99 101//101 100//100
f 102//102 104//104 103//103
f 105//105 107//107 106//106
f 105//105 106//106 108//108
f 109//109 111//111 110//110
f 109//109 110//110 112//112
f 113//113 115//115 114//114
f 113//113 114//114 116//116
f 117//117 119//119 118//118
f 117//117 118//118 120//120
f 121//121 123//123 122//122
f 121//121 122//122 124//124
f 125//125 127//127 126//126
f 125//125 126//126 128//128
f 129//129 131//131 130//130
f 129//129 130//130 132//132
f 133//133 135//135 134//134
f 133//133 134//134 136//136
f 137//137 139//139 138//138
f 137//137 138//138 140//140
f 141//141 143//143 142//142
f 141//141 142//142 144//144
f 145//145 147//147 146//146
f 145//145 146//146 148//148
f 149//149 151//151 150//150
f 149//149 150//150 152//152
f 153//153 155//155 154//154
f 153//153 154//154 156//156
f 1//1 3//3 2//2
f 1//1 2//2 4//4
f 5//5 7//7 6//6
f 5//5 6//6 8//8
f 9//9 11//11 10//10
f 9//9 10//10 12//12
f 13//13 15//15 14//14
f 13//13 14//14 16//16
f 17//17 19//19 18//18
f 17//17 18//18 20//20
f 21//21 23//23 22//22
f 21//21 22//22 24//24
f 25//25 27//27 26//26
f 25//25 26//26 28//28
f 29//29 31//31 30//30
f 29//29 30//30 32//32
f 33//33 35//35 34//34
f 33//33 34//34 36//36
f 34//34 37//37 36//36
f 36//36 38//38 33//33
f 38//38 39//39 33//33
f 36//36 40//40 38//38
f 40//40 41//41 38//38
f 36//36 42//42 40//40
f 43//43 45//45 44//44
f 43//43 44//44 46//46
f 47//47 49//49 48//48
f 47//47 48//48 50//50
f 51//51 53//53 52//52
f 51//51 52//52 54//54
f 52//52 55//55 54//54
f 54//54 56//56 51//51
f 56//56 57//57 51//51
f 54//54 58//58 56//56
f 58//58 59//59 56//56
f 54//54 60//60 58//58
f 157//157 159//159 158//158
f 157//157 158//158 160//160
f 161//161 163//163 162//162
f 161//161 162//162 164//164
f 165//165 167//167 166//166
f 165//165 166//166 168//168
f 169//169 171//171 170//170
f 169//169 170//170 172//172
f 173//173 175//175 174//174
f 173//173 174//174 176//176
f 177//177 179//179 178//178
f 177//177 178//178 180//180
f 181//181 183//183 182//182
f 181//181 182//182 184//184
f 185//185 187//187 186//186
f 185//185 186//186 188//188
f 189//189 191//191 190//190
f 189//189 190//190 192//192
f 190//190 193//193 192//192
f 192//192 194//194 189//189
f 194//194 195//195 189//189
f 192//192 196//196 194//194
f 196//196 197//197 194//194
f 192//192 198//198 196//196
f 199//199 201//201 200//200
f 199//199 200//200 202//202
f 203//203 205//205 204//204
f 203//203 204//204 206//206
f 207//207 209//209 208//208
f 207//207 208//208 210//210
f 208//208 211//211 210//210
f 210//210 212//212 207//207
f 212//212 213//213 207//207
f 210//210 214//214 212//212
f 214//214 215//215 212//212
f 210//210 216//216 214//214
g core_roof_hall
usemtl roof_hall
v -0.11500 0.19000 0.05500
v -0.11500 0.19000 -0.08500
v -0.11500 0.29000 -0.01500
v 0.04500 0.19000 0.05500
v 0.04500 0.29000 -0.01500
v 0.04500 0.19000 -0.08500
v -0.11500 0.19000 0.05500
v 0.04500 0.29000 -0.01500
v 0.04500 0.19000 0.05500
v -0.11500 0.29000 -0.01500
v -0.11500 0.19000 -0.08500
v 0.04500 0.29000 -0.01500
v -0.11500 0.29000 -0.01500
v 0.04500 0.19000 -0.08500
v -0.11500 0.19000 0.05500
v 0.04500 0.19000 -0.08500
v -0.11500 0.19000 -0.08500
v 0.04500 0.19000 0.05500
vn 0.0000 1.0000 -0.0000
vn 0.0000 1.0000 -0.0000
vn 0.0000 1.0000 -0.0000
vn 0.7071 -0.0000 0.7071
vn 0.7071 -0.0000 0.7071
vn 0.7071 -0.0000 0.7071
vn 0.1992 0.2946 0.9346
vn 0.1992 0.2946 0.9346
vn 0.1992 0.2946 0.9346
vn 0.1992 0.2946 0.9346
vn 0.5419 -0.8015 -0.2527
vn 0.5419 -0.8015 -0.2527
vn 0.5419 -0.8015 -0.2527
vn 0.5419 -0.8015 -0.2527
vn -0.0000 -0.7071 0.7071
vn -0.0000 -0.7071 0.7071
vn -0.0000 -0.7071 0.7071
vn -0.0000 -0.7071 0.7071
f 217//217 219//219 218//218
f 220//220 222//222 221//221
f 223//223 225//225 224//224
f 223//223 224//224 226//226
f 227//227 229//229 228//228
f 227//227 228//228 230//230
f 231//231 233//233 232//232
f 231//231 232//232 234//234
g core_white
usemtl white
v -0.08500 0.00000 0.04200
v -0.07086 0.14000 0.04786
v -0.08500 0.14000 0.04200
v -0.07086 0.00000 0.04786
v -0.07086 0.00000 0.04786
v -0.06500 0.14000 0.06200
v -0.07086 0.14000 0.04786
v -0.06500 0.00000 0.06200
v -0.06500 0.00000 0.06200
v -0.07086 0.14000 0.07614
v -0.06500 0.14000 0.06200
v -0.07086 0.00000 0.07614
v -0.07086 0.00000 0.07614
v -0.08500 0.14000 0.08200
v -0.07086 0.14000 0.07614
v -0.08500 0.00000 0.08200
v -0.08500 0.00000 0.08200
v -0.09914 0.14000 0.07614
v -0.08500 0.14000 0.08200
v -0.09914 0.00000 0.07614
v -0.09914 0.00000 0.07614
v -0.10500 0.14000 0.06200
v -0.09914 0.14000 0.07614
v -0.10500 0.00000 0.06200
v -0.06500 0.14000 0.06200
v -0.08500 0.14000 0.04200
v -0.07086 0.14000 0.04786
v -0.10500 0.14000 0.06200
v -0.09914 0.14000 0.04786
v -0.08500 0.14000 0.08200
v -0.07086 0.14000 0.07614
v -0.09914 0.14000 0.07614
v -0.10500 0.00000 0.06200
v -0.09914 0.14000 0.04786
v -0.10500 0.14000 0.06200
v -0.09914 0.00000 0.04786
v -0.09914 0.00000 0.04786
v -0.08500 0.14000 0.04200
v -0.09914 0.14000 0.04786
v -0.08500 0.00000 0.04200
v -0.09914 0.00000 0.04786
v -0.07086 0.00000 0.04786
v -0.08500 0.00000 0.04200
v -0.07086 0.00000 0.07614
v -0.06500 0.00000 0.06200
v -0.09914 0.00000 0.07614
v -0.10500 0.00000 0.06200
v -0.08500 0.00000 0.08200
v -0.03500 0.00000 0.04200
v -0.02086 0.14000 0.04786
v -0.03500 0.14000 0.04200
v -0.02086 0.00000 0.04786
v -0.02086 0.00000 0.04786
v -0.01500 0.14000 0.06200
v -0.02086 0.14000 0.04786
v -0.01500 0.00000 0.06200
v -0.01500 0.00000 0.06200
v -0.02086 0.14000 0.07614
v -0.01500 0.14000 0.06200
v -0.02086 0.00000 0.07614
v -0.02086 0.00000 0.07614
v -0.03500 0.14000 0.08200
v -0.02086 0.14000 0.07614
v -0.03500 0.00000 0.08200
v -0.03500 0.00000 0.08200
v -0.04914 0.14000 0.07614
v -0.03500 0.14000 0.08200
v -0.04914 0.00000 0.07614
v -0.04914 0.00000 0.07614
v -0.05500 0.14000 0.06200
v -0.04914 0.14000 0.07614
v -0.05500 0.00000 0.06200
v -0.01500 0.14000 0.06200
v -0.03500 0.14000 0.04200
v -0.02086 0.14000 0.04786
v -0.05500 0.14000 0.06200
v -0.04914 0.14000 0.04786
v -0.03500 0.14000 0.08200
v -0.02086 0.14000 0.07614
v -0.04914 0.14000 0.07614
v -0.05500 0.00000 0.06200
v -0.04914 0.14000 0.04786
v -0.05500 0.14000 0.06200
v -0.04914 0.00000 0.04786
v -0.04914 0.00000 0.04786
v -0.03500 0.14000 0.04200
v -0.04914 0.14000 0.04786
v -0.03500 0.00000 0.04200
v -0.04914 0.00000 0.04786
v -0.02086 0.00000 0.04786
v -0.03500 0.00000 0.04200
v -0.02086 0.00000 0.07614
v -0.01500 0.00000 0.06200
v -0.04914 0.00000 0.07614
v -0.05500 0.00000 0.06200
v -0.03500 0.00000 0.08200
v 0.01500 0.00000 0.04200
v 0.02914 0.14000 0.04786
v 0.01500 0.14000 0.04200
v 0.02914 0.00000 0.04786
v 0.02914 0.00000 0.04786
v 0.03500 0.14000 0.06200
v 0.02914 0.14000 0.04786
v 0.03500 0.00000 0.06200
v 0.03500 0.00000 0.06200
v 0.02914 0.14000 0.07614
v 0.03500 0.14000 0.06200
v 0.02914 0.00000 0.07614
v 0.02914 0.00000 0.07614
v 0.01500 0.14000 0.08200
v 0.02914 0.14000 0.07614
v 0.01500 0.00000 0.08200
v 0.01500 0.00000 0.08200
v 0.00086 0.14000 0.07614
v 0.01500 0.14000 0.08200
v 0.00086 0.00000 0.07614
v 0.00086 0.00000 0.07614
v -0.00500 0.14000 0.06200
v 0.00086 0.14000 0.07614
v -0.00500 0.00000 0.06200
v 0.03500 0.14000 0.06200
v 0.01500 0.14000 0.04200
v 0.02914 0.14000 0.04786
v -0.00500 0.14000 0.06200
v 0.00086 0.14000 0.04786
v 0.01500 0.14000 0.08200
v 0.02914 0.14000 0.07614
v 0.00086 0.14000 0.07614
v -0.00500 0.00000 0.06200
v 0.00086 0.14000 0.04786
v -0.00500 0.14000 0.06200
v 0.00086 0.00000 0.04786
v 0.00086 0.00000 0.04786
v 0.01500 0.14000 0.04200
v 0.00086 0.14000 0.04786
v 0.01500 0.00000 0.04200
v 0.00086 0.00000 0.04786
v 0.02914 0.00000 0.04786
v 0.01500 0.00000 0.04200
v 0.02914 0.00000 0.07614
v 0.03500 0.00000 0.06200
v 0.00086 0.00000 0.07614
v -0.00500 0.00000 0.06200
v 0.01500 0.00000 0.08200
v -0.10000 0.14000 0.07900
v -0.10000 0.16800 0.02900
v -0.10000 0.16800 0.07900
v -0.10000 0.14000 0.02900
v -0.10000 0.14000 0.02900
v 0.03000 0.16800 0.02900
v -0.10000 0.16800 0.02900
v 0.03000 0.14000 0.02900
v 0.03000 0.14000 0.02900
v 0.03000 0.16800 0.07900
v 0.03000 0.16800 0.02900
v 0.03000 0.14000 0.07900
v 0.03000 0.14000 0.07900
v -0.10000 0.16800 0.07900
v 0.03000 0.16800 0.07900
v -0.10000 0.14000 0.07900
v -0.10000 0.14000 0.02900
v 0.03000 0.14000 0.07900
v 0.03000 0.14000 0.02900
v -0.10000 0.14000 0.07900
v 0.03000 0.16800 0.02900
v -0.10000 0.16800 0.07900
v -0.10000 0.16800 0.02900
v 0.03000 0.16800 0.07900
v -0.10300 0.16800 0.04400
v 0.03300 0.16800 0.04400
v -0.03500 0.21800 0.04400
v -0.10300 0.16800 0.07800
v -0.03500 0.21800 0.07800
v 0.03300 0.16800 0.07800
v -0.10300 0.16800 0.04400
v 0.03300 0.16800 0.07800
v 0.03300 0.16800 0.04400
v -0.10300 0.16800 0.07800
v 0.03300 0.16800 0.04400
v -0.03500 0.21800 0.07800
v -0.03500 0.21800 0.04400
v 0.03300 0.16800 0.07800
v -0.03500 0.21800 0.04400
v -0.10300 0.16800 0.07800
v -0.10300 0.16800 0.04400
v -0.03500 0.21800 0.07800
vn 0.8279 -0.5362 0.1647
vn 0.8279 -0.5362 0.1647
vn 0.8279 -0.5362 0.1647
vn 0.8279 -0.5362 0.1647
vn 0.8297 -0.0654 0.5544
vn 0.8297 -0.0654 0.5544
vn 0.8297 -0.0654 0.5544
vn 0.8297 -0.0654 0.5544
vn 0.5550 -0.0437 0.8307
vn 0.5550 -0.0437 0.8307
vn 0.5550 -0.0437 0.8307
vn 0.5550 -0.0437 0.8307
vn 0.1935 -0.1254 0.9731
vn 0.1935 -0.1254 0.9731
vn 0.1935 -0.1254 0.9731
vn 0.1935 -0.1254 0.9731
vn -0.1868 0.2884 0.9391
vn -0.1868 0.2884 0.9391
vn -0.1868 0.2884 0.9391
vn -0.1868 0.2884 0.9391
vn -0.0780 0.9901 0.1167
vn -0.0780 0.9901 0.1167
vn -0.0780 0.9901 0.1167
vn -0.0780 0.9901 0.1167
vn -0.0000 0.7071 0.7071
vn -0.0000 0.7071 0.7071
vn -0.0000 0.7071 0.7071
vn -0.0000 0.7071 0.7071
vn -0.0000 0.7071 0.7071
vn -0.0000 0.7071 0.7071
vn -0.0000 0.7071 0.7071
vn -0.0000 0.7071 0.7071
vn -0.0784 0.9955 0.0524
vn -0.0784 0.9955 0.0524
vn -0.0784 0.9955 0.0524
vn -0.0784 0.9955 0.0524
vn -0.5404 0.8345 0.1075
vn -0.5404 0.8345 0.1075
vn -0.5404 0.8345 0.1075
vn -0.5404 0.8345 0.1075
vn -0.0000 -0.7071 0.7071
vn -0.0000 -0.7071 0.7071
vn -0.0000 -0.7071 0.7071
vn -0.0000 -0.7071 0.7071
vn -0.0000 -0.7071 0.7071
vn -0.0000 -0.7071 0.7071
vn -0.0000 -0.7071 0.7071
vn -0.0000 -0.7071 0.7071
vn 0.8279 -0.5362 0.1647
vn 0.8279 -0.5362 0.1647
vn 0.8279 -0.5362 0.1647
vn 0.8279 -0.5362 0.1647
vn 0.8297 -0.0654 0.5544
vn 0.8297 -0.0654 0.5544
vn 0.8297 -0.0654 0.5544
vn 0.8297 -0.0654 0.5544
vn 0.5550 -0.0437 0.8307
vn 0.5550 -0.0437 0.8307
vn 0.5550 -0.0437 0.8307
vn 0.5550 -0.0437 0.8307
vn 0.1935 -0.1254 0.9731
vn 0.1935 -0.1254 0.9731
vn 0.1935 -0.1254 0.9731
vn 0.1935 -0.1254 0.9731
vn -0.1868 0.2884 0.9391
vn -0.1868 0.2884 0.9391
vn -0.1868 0.2884 0.9391
vn -0.1868 0.2884 0.9391
vn -0.0780 0.9901 0.1167
vn -0.0780 0.9901 0.1167
vn -0.0780 0.9901 0.1167
vn -0.0780 0.9901 0.1167
vn -0.0000 0.7071 0.7071
vn -0.0000 0.7071 0.7071
vn -0.0000 0.7071 0.7071
vn -0.0000 0.7071 0.7071
vn -0.0000 0.7071 0.7071
vn -0.0000 0.7071 0.7071
vn -0.0000 0.7071 0.7071
vn -0.0000 0.7071 0.7071
vn -0.0784 0.9955 0.0524
vn -0.0784 0.9955 0.0524
vn -0.0784 0.9955 0.0524
vn -0.0784 0.9955 0.0524
vn -0.5404 0.8345 0.1075
vn -0.5404 0.8345 0.1075
vn -0.5404 0.8345 0.1075
vn -0.5404 0.8345 0.1075
vn -0.0000 -0.7071 0.7071
vn -0.0000 -0.7071 0.7071
vn -0.0000 -0.7071 0.7071
vn -0.0000 -0.7071 0.7071
vn -0.0000 -0.7071 0.7071
vn -0.0000 -0.7071 0.7071
vn -0.0000 -0.7071 0.7071
vn -0.0000 -0.7071 0.7071
vn 0.8279 -0.5362 0.1647
vn 0.8279 -0.5362 0.1647
vn 0.8279 -0.5362 0.1647
vn 0.8279 -0.5362 0.1647
vn 0.8297 -0.0654 0.5544
vn 0.8297 -0.0654 0.5544
vn 0.8297 -0.0654 0.5544
vn 0.8297 -0.0654 0.5544
vn 0.5550 -0.0437 0.8307
vn 0.5550 -0.0437 0.8307
vn 0.5550 -0.0437 0.8307
vn 0.5550 -0.0437 0.8307
vn 0.1935 -0.1254 0.9731
vn 0.1935 -0.1254 0.9731
vn 0.1935 -0.1254 0.9731
vn 0.1935 -0.1254 0.9731
vn -0.1868 0.2884 0.9391
vn -0.1868 0.2884 0.9391
vn -0.1868 0.2884 0.9391
vn -0.1868 0.2884 0.9391
vn -0.0780 0.9901 0.1167
vn -0.0780 0.9901 0.1167
vn -0.0780 0.9901 0.1167
vn -0.0780 0.9901 0.1167
vn -0.0000 0.7071 0.7071
vn -0.0000 0.7071 0.7071
vn -0.0000 0.7071 0.7071
vn -0.0000 0.7071 0.7071
vn -0.0000 0.7071 0.7071
vn -0.0000 0.7071 0.7071
vn -0.0000 0.7071 0.7071
vn -0.0000 0.7071 0.7071
vn -0.0784 0.9955 0.0524
vn -0.0784 0.9955 0.0524
vn -0.0784 0.9955 0.0524
vn -0.0784 0.9955 0.0524
vn -0.5404 0.8345 0.1075
vn -0.5404 0.8345 0.1075
vn -0.5404 0.8345 0.1075
vn -0.5404 0.8345 0.1075
vn -0.0000 -0.7071 0.7071
vn -0.0000 -0.7071 0.7071
vn -0.0000 -0.7071 0.7071
vn -0.0000 -0.7071 0.7071
vn -0.0000 -0.7071 0.7071
vn -0.0000 -0.7071 0.7071
vn -0.0000 -0.7071 0.7071
vn -0.0000 -0.7071 0.7071
vn 0.0000 1.0000 -0.0000
vn 0.0000 1.0000 -0.0000
vn 0.0000 1.0000 -0.0000
vn 0.0000 1.0000 -0.0000
vn -0.7071 0.7071 -0.0000
vn -0.7071 0.7071 -0.0000
vn -0.7071 0.7071 -0.0000
vn -0.7071 0.7071 -0.0000
vn 0.7071 -0.0000 0.7071
vn 0.7071 -0.0000 0.7071
vn 0.7071 -0.0000 0.7071
vn 0.7071 -0.0000 0.7071
vn -0.0000 -0.0000 1.0000
vn -0.0000 -0.0000 1.0000
vn -0.0000 -0.0000 1.0000
vn -0.0000 -0.0000 1.0000
vn -0.0000 -0.7071 0.7071
vn -0.0000 -0.7071 0.7071
vn -0.0000 -0.7071 0.7071
vn -0.0000 -0.7071 0.7071
vn -0.0000 0.7071 0.7071
vn -0.0000 0.7071 0.7071
vn -0.0000 0.7071 0.7071
vn -0.0000 0.7071 0.7071
vn -0.7071 0.7071 -0.0000
vn -0.7071 0.7071 -0.0000
vn -0.7071 0.7071 -0.0000
vn -0.0000 -0.0000 1.0000
vn -0.0000 -0.0000 1.0000
vn -0.0000 -0.0000 1.0000
vn -0.0000 -0.7071 0.7071
vn -0.0000 -0.7071 0.7071
vn -0.0000 -0.7071 0.7071
vn -0.0000 -0.7071 0.7071
vn -0.3539 -0.6147 -0.7049
vn -0.3539 -0.6147 -0.7049
vn -0.3539 -0.6147 -0.7049
vn -0.3539 -0.6147 -0.7049
vn -0.0842 0.7510 0.6549
vn -0.0842 0.7510 0.6549
vn -0.0842 0.7510 0.6549
vn -0.0842 0.7510 0.6549
f 235//235 237//237 236//236
f 235//235 236//236 238//238
f 239//239 241//241 240//240
f 239//239 240//240 242//242
f 243//243 245//245 244//244
f 243//243 244//244 246//246
f 247//247 249//249 248//248
f 247//247 248//248 250//250
f 251//251 253//253 252//252
f 251//251 252//252 254//254
f 255//255 257//257 256//256
f 255//255 256//256 258//258
f 259//259 261//261 260//260
f 259//259 260//260 262//262
f 260//260 263//263 262//262
f 262//262 264//264 259//259
f 264//264 265//265 259//259
f 262//262 266//266 264//264
f 267//267 269//269 268//268
f 267//267 268//268 270//270
f 271//271 273//273 272//272
f 271//271 272//272 274//274
f 275//275 277//277 276//276
f 275//275 276//276 278//278
f 276//276 279//279 278//278
f 278//278 280//280 275//275
f 280//280 281//281 275//275
f 278//278 282//282 280//280
f 283//283 285//285 284//284
f 283//283 284//284 286//286
f 287//287 289//289 288//288
f 287//287 288//288 290//290
f 291//291 293//293 292//292
f 291//291 292//292 294//294
f 295//295 297//297 296//296
f 295//295 296//296 298//298
f 299//299 301//301 300//300
f 299//299 300//300 302//302
f 303//303 305//305 304//304
f 303//303 304//304 306//306
f 307//307 309//309 308//308
f 307//307 308//308 310//310
f 308//308 311//311 310//310
f 310//310 312//312 307//307
f 312//312 313//313 307//307
f 310//310 314//314 312//312
f 315//315 317//317 316//316
f 315//315 316//316 318//318
f 319//319 321//321 320//320
f 319//319 320//320 322//322
f 323//323 325//325 324//324
f 323//323 324//324 326//326
f 324//324 327//327 326//326
f 326//326 328//328 323//323
f 328//328 329//329 323//323
f 326//326 330//330 328//328
f 331//331 333//333 332//332
f 331//331 332//332 334//334
f 335//335 337//337 336//336
f 335//335 336//336 338//338
f 339//339 341//341 340//340
f 339//339 340//340 342//342
f 343//343 345//345 344//344
f 343//343 344//344 346//346
f 347//347 349//349 348//348
f 347//347 348//348 350//350
f 351//351 353//353 352//352
f 351//351 352//352 354//354
f 355//355 357//357 356//356
f 355//355 356//356 358//358
f 356//356 359//359 358//358
f 358//358 360//360 355//355
f 360//360 361//361 355//355
f 358//358 362//362 360//360
f 363//363 365//365 364//364
f 363//363 364//364 366//366
f 367//367 369//369 368//368
f 367//367 368//368 370//370
f 371//371 373//373 372//372
f 371//371 372//372 374//374
f 372//372 375//375 374//374
f 374//374 376//376 371//371
f 376//376 377//377 371//371
f 374//374 378//378 376//376
f 379//379 381//381 380//380
f 379//379 380//380 382//382
f 383//383 385//385 384//384
f 383//383 384//384 386//386
f 387//387 389//389 388//388
f 387//387 388//388 390//390
f 391//391 393//393 392//392
f 391//391 392//392 394//394
f 395//395 397//397 396//396
f 395//395 396//396 398//398
f 399//399 401//401 400//400
f 399//399 400//400 402//402
f 403//403 405//405 404//404
f 406//406 408//408 407//407
f 409//409 411//411 410//410
f 409//409 410//410 412//412
f 413//413 415//415 414//414
f 413//413 414//414 416//416
f 417//417 419//419 418//418
f 417//417 418//418 420//420
g core_gold
usemtl gold
v 0.05500 0.34900 -0.07600
v 0.08791 0.36100 -0.06531
v 0.05500 0.36100 -0.07600
v 0.08791 0.34900 -0.06531
v 0.08791 0.34900 -0.06531
v 0.10826 0.36100 -0.03731
v 0.08791 0.36100 -0.06531
v 0.10826 0.34900 -0.03731
v 0.10826 0.34900 -0.03731
v 0.10826 0.36100 -0.00270
v 0.10826 0.36100 -0.03731
v 0.10826 0.34900 -0.00270
v 0.10826 0.34900 -0.00270
v 0.08791 0.36100 0.02530
v 0.10826 0.36100 -0.00270
v 0.08791 0.34900 0.02530
v 0.08791 0.34900 0.02530
v 0.05500 0.36100 0.03600
v 0.08791 0.36100 0.02530
v 0.05500 0.34900 0.03600
v 0.05500 0.34900 0.03600
v 0.02208 0.36100 0.02530
v 0.05500 0.36100 0.03600
v 0.02208 0.34900 0.02530
v 0.02208 0.34900 0.02530
v 0.00174 0.36100 -0.00270
v 0.02208 0.36100 0.02530
v 0.00174 0.34900 -0.00270
v 0.00174 0.34900 -0.00270
v 0.00174 0.36100 -0.03731
v 0.00174 0.36100 -0.00270
v 0.00174 0.34900 -0.03731
v 0.10826 0.36100 -0.03731
v 0.05500 0.36100 -0.07600
v 0.08791 0.36100 -0.06531
v 0.00174 0.36100 -0.03731
v 0.02208 0.36100 -0.06531
v 0.08791 0.36100 0.02530
v 0.10826 0.36100 -0.00270
v 0.02208 0.36100 0.02530
v 0.05500 0.36100 0.03600
v 0.00174 0.36100 -0.00270
v 0.00174 0.34900 -0.03731
v 0.02208 0.36100 -0.06531
v 0.00174 0.36100 -0.03731
v 0.02208 0.34900 -0.06531
v 0.02208 0.34900 -0.06531
v 0.05500 0.36100 -0.07600
v 0.02208 0.36100 -0.06531
v 0.05500 0.34900 -0.07600
v 0.02208 0.34900 -0.06531
v 0.08791 0.34900 -0.06531
v 0.05500 0.34900 -0.07600
v 0.10826 0.34900 -0.00270
v 0.10826 0.34900 -0.03731
v 0.00174 0.34900 -0.00270
v 0.00174 0.34900 -0.03731
v 0.05500 0.34900 0.03600
v 0.02208 0.34900 0.02530
v 0.08791 0.34900 0.02530
v 0.05500 0.45100 -0.02000
v 0.04947 0.46205 -0.00299
v 0.06947 0.46205 -0.00949
v 0.06947 0.46205 -0.00949
v 0.06947 0.46205 -0.03051
v 0.05500 0.45100 -0.02000
v 0.05500 0.45100 -0.02000
v 0.03711 0.46205 -0.02000
v 0.04947 0.46205 -0.00299
v 0.05500 0.45100 -0.02000
v 0.04947 0.46205 -0.03701
v 0.03711 0.46205 -0.02000
v 0.05500 0.45100 -0.02000
v 0.06947 0.46205 -0.03051
v 0.04947 0.46205 -0.03701
v 0.06947 0.46205 -0.00949
v 0.07289 0.47994 -0.02000
v 0.06947 0.46205 -0.03051
v 0.04947 0.46205 -0.00299
v 0.06053 0.47994 -0.00299
v 0.06947 0.46205 -0.00949
v 0.03711 0.46205 -0.02000
v 0.04053 0.47994 -0.00949
v 0.04947 0.46205 -0.00299
v 0.04947 0.46205 -0.03701
v 0.04053 0.47994 -0.03051
v 0.03711 0.46205 -0.02000
v 0.06947 0.46205 -0.03051
v 0.06053 0.47994 -0.03701
v 0.04947 0.46205 -0.03701
v 0.06947 0.46205 -0.00949
v 0.06053 0.47994 -0.00299
v 0.07289 0.47994 -0.02000
v 0.04947 0.46205 -0.00299
v 0.04053 0.47994 -0.00949
v 0.06053 0.47994 -0.00299
v 0.03711 0.46205 -0.02000
v 0.04053 0.47994 -0.03051
v 0.04053 0.47994 -0.00949
v 0.04947 0.46205 -0.03701
v 0.06053 0.47994 -0.03701
v 0.04053 0.47994 -0.03051
v 0.06947 0.46205 -0.03051
v 0.07289 0.47994 -0.02000
v 0.06053 0.47994 -0.03701
v 0.06053 0.47994 -0.00299
v 0.05500 0.49100 -0.02000
v 0.07289 0.47994 -0.02000
v 0.04053 0.47994 -0.00949
v 0.05500 0.49100 -0.02000
v 0.06053 0.47994 -0.00299
v 0.04053 0.47994 -0.03051
v 0.05500 0.49100 -0.02000
v 0.04053 0.47994 -0.00949
v 0.06053 0.47994 -0.03701
v 0.05500 0.49100 -0.02000
v 0.04053 0.47994 -0.03051
v 0.07289 0.47994 -0.02000
v 0.05500 0.49100 -0.02000
v 0.06053 0.47994 -0.03701
vn 0.8067 -0.5770 0.1277
vn 0.8067 -0.5770 0.1277
vn 0.8067 -0.5770 0.1277
vn 0.8067 -0.5770 0.1277
vn 0.8765 -0.1794 0.4467
vn 0.8765 -0.1794 0.4467
vn 0.8765 -0.1794 0.4467
vn 0.8765 -0.1794 0.4467
vn 0.7071 -0.0000 0.7071
vn 0.7071 -0.0000 0.7071
vn 0.7071 -0.0000 0.7071
vn 0.7071 -0.0000 0.7071
vn 0.4520 -0.0925 0.8872
vn 0.4520 -0.0925 0.8872
vn 0.4520 -0.0925 0.8872
vn 0.4520 -0.0925 0.8872
vn 0.1554 -0.1112 0.9816
vn 0.1554 -0.1112 0.9816
vn 0.1554 -0.1112 0.9816
vn 0.1554 -0.1112 0.9816
vn -0.1528 0.2137 0.9649
vn -0.1528 0.2137 0.9649
vn -0.1528 0.2137 0.9649
vn -0.1528 0.2137 0.9649
vn -0.1866 0.9117 0.3661
vn -0.1866 0.9117 0.3661
vn -0.1866 0.9117 0.3661
vn -0.1866 0.9117 0.3661
vn 0.0000 1.0000 -0.0000
vn 0.0000 1.0000 -0.0000
vn 0.0000 1.0000 -0.0000
vn 0.0000 1.0000 -0.0000
vn -0.0000 0.7071 0.7071
vn -0.0000 0.7071 0.7071
vn -0.0000 0.7071 0.7071
vn -0.0000 0.7071 0.7071
vn -0.0000 0.7071 0.7071
vn -0.0000 0.7071 0.7071
vn -0.0000 0.7071 0.7071
vn -0.0000 0.7071 0.7071
vn -0.0000 0.7071 0.7071
vn -0.0000 0.7071 0.7071
vn -0.1994 0.9746 0.1016
vn -0.1994 0.9746 0.1016
vn -0.1994 0.9746 0.1016
vn -0.1994 0.9746 0.1016
vn -0.5792 0.8100 0.0917
vn -0.5792 0.8100 0.0917
vn -0.5792 0.8100 0.0917
vn -0.5792 0.8100 0.0917
vn -0.0000 -0.7071 0.7071
vn -0.0000 -0.7071 0.7071
vn -0.0000 -0.7071 0.7071
vn -0.0000 -0.7071 0.7071
vn -0.0000 -0.7071 0.7071
vn -0.0000 -0.7071 0.7071
vn -0.0000 -0.7071 0.7071
vn -0.0000 -0.7071 0.7071
vn -0.0000 -0.7071 0.7071
vn -0.0000 -0.7071 0.7071
vn -0.0795 -0.4827 0.8722
vn -0.0795 -0.4827 0.8722
vn -0.0795 -0.4827 0.8722
vn 0.3666 -0.6071 0.7050
vn 0.3666 -0.6071 0.7050
vn 0.3666 -0.6071 0.7050
vn 0.1816 0.5485 -0.8162
vn 0.1816 0.5485 -0.8162
vn 0.1816 0.5485 -0.8162
vn -0.0193 0.8657 -0.5001
vn -0.0193 0.8657 -0.5001
vn -0.0193 0.8657 -0.5001
vn -0.4310 0.7842 -0.4464
vn -0.4310 0.7842 -0.4464
vn -0.4310 0.7842 -0.4464
vn 0.6943 -0.1338 0.7071
vn 0.6943 -0.1338 0.7071
vn 0.6943 -0.1338 0.7071
vn 0.0843 -0.2056 0.9750
vn 0.0843 -0.2056 0.9750
vn 0.0843 -0.2056 0.9750
vn -0.3100 0.9359 0.1673
vn -0.3100 0.9359 0.1673
vn -0.3100 0.9359 0.1673
vn -0.1515 0.9876 -0.0411
vn -0.1515 0.9876 -0.0411
vn -0.1515 0.9876 -0.0411
vn 0.7901 -0.5858 0.1808
vn 0.7901 -0.5858 0.1808
vn 0.7901 -0.5858 0.1808
vn 0.4624 0.0369 0.8859
vn 0.4624 0.0369 0.8859
vn 0.4624 0.0369 0.8859
vn -0.0249 0.2948 0.9552
vn -0.0249 0.2948 0.9552
vn -0.0249 0.2948 0.9552
vn -0.0017 0.9826 0.1859
vn -0.0017 0.9826 0.1859
vn -0.0017 0.9826 0.1859
vn -0.5790 0.7977 0.1683
vn -0.5790 0.7977 0.1683
vn -0.5790 0.7977 0.1683
vn 0.8940 -0.0789 0.4410
vn 0.8940 -0.0789 0.4410
vn 0.8940 -0.0789 0.4410
vn 0.3088 0.4757 0.8236
vn 0.3088 0.4757 0.8236
vn 0.3088 0.4757 0.8236
vn 0.1359 0.4900 0.8611
vn 0.1359 0.4900 0.8611
vn 0.1359 0.4900 0.8611
vn -0.0827 0.7552 0.6503
vn -0.0827 0.7552 0.6503
vn -0.0827 0.7552 0.6503
vn 0.3427 -0.8220 -0.4549
vn 0.3427 -0.8220 -0.4549
vn 0.3427 -0.8220 -0.4549
vn -0.1939 -0.8143 -0.5472
vn -0.1939 -0.8143 -0.5472
vn -0.1939 -0.8143 -0.5472
f 421//421 423//423 422//422
f 421//421 422//422 424//424
f 425//425 427//427 426//426
f 425//425 426//426 428//428
f 429//429 431//431 430//430
f 429//429 430//430 432//432
f 433//433 435//435 434//434
f 433//433 434//434 436//436
f 437//437 439//439 438//438
f 437//437 438//438 440//440
f 441//441 443//443 442//442
f 441//441 442//442 444//444
f 445//445 447//447 446//446
f 445//445 446//446 448//448
f 449//449 451//451 450//450
f 449//449 450//450 452//452
f 453//453 455//455 454//454
f 453//453 454//454 456//456
f 454//454 457//457 456//456
f 456//456 458//458 453//453
f 458//458 459//459 453//453
f 456//456 460//460 458//458
f 460//460 461//461 458//458
f 456//456 462//462 460//460
f 463//463 465//465 464//464
f 463//463 464//464 466//466
f 467//467 469//469 468//468
f 467//467 468//468 470//470
f 471//471 473//473 472//472
f 471//471 472//472 474//474
f 472//472 475//475 474//474
f 474//474 476//476 471//471
f 476//476 477//477 471//471
f 474//474 478//478 476//476
f 478//478 479//479 476//476
f 474//474 480//480 478//478
f 481//481 483//483 482//482
f 484//484 486//486 485//485
f 487//487 489//489 488//488
f 490//490 492//492 491//491
f 493//493 495//495 494//494
f 496//496 498//498 497//497
f 499//499 501//501 500//500
f 502//502 504//504 503//503
f 505//505 507//507 506//506
f 508//508 510//510 509//509
f 511//511 513//513 512//512
f 514//514 516//516 515//515
f 517//517 519//519 518//518
f 520//520 522//522 521//521
f 523//523 525//525 524//524
f 526//526 528//528 527//527
f 529//529 531//531 530//530
f 532//532 534//534 533//533
f 535//535 537//537 536//536
f 538//538 540//540 539//539
g core_lead
usemtl lead
v 0.05500 0.36100 -0.07400
v 0.08086 0.40100 -0.05560
v 0.05500 0.40100 -0.06400
v 0.08674 0.36100 -0.06369
v 0.08674 0.36100 -0.06369
v 0.09685 0.40100 -0.03360
v 0.08086 0.40100 -0.05560
v 0.10636 0.36100 -0.03669
v 0.10636 0.36100 -0.03669
v 0.09685 0.40100 -0.00640
v 0.09685 0.40100 -0.03360
v 0.10636 0.36100 -0.00331
v 0.10636 0.36100 -0.00331
v 0.08086 0.40100 0.01560
v 0.09685 0.40100 -0.00640
v 0.08674 0.36100 0.02369
v 0.08674 0.36100 0.02369
v 0.05500 0.40100 0.02400
v 0.08086 0.40100 0.01560
v 0.05500 0.36100 0.03400
v 0.05500 0.36100 0.03400
v 0.02914 0.40100 0.01560
v 0.05500 0.40100 0.02400
v 0.02326 0.36100 0.02369
v 0.02326 0.36100 0.02369
v 0.01315 0.40100 -0.00640
v 0.02914 0.40100 0.01560
v 0.00364 0.36100 -0.00331
v 0.00364 0.36100 -0.00331
v 0.01315 0.40100 -0.03360
v 0.01315 0.40100 -0.00640
v 0.00364 0.36100 -0.03669
v 0.09685 0.40100 -0.03360
v 0.05500 0.40100 -0.06400
v 0.08086 0.40100 -0.05560
v 0.01315 0.40100 -0.03360
v 0.02914 0.40100 -0.05560
v 0.08086 0.40100 0.01560
v 0.09685 0.40100 -0.00640
v 0.02914 0.40100 0.01560
v 0.05500 0.40100 0.02400
v 0.01315 0.40100 -0.00640
v 0.00364 0.36100 -0.03669
v 0.02914 0.40100 -0.05560
v 0.01315 0.40100 -0.03360
v 0.02326 0.36100 -0.06369
v 0.02326 0.36100 -0.06369
v 0.05500 0.40100 -0.06400
v 0.02914 0.40100 -0.05560
v 0.05500 0.36100 -0.07400
v 0.02326 0.36100 -0.06369
v 0.08674 0.36100 -0.06369
v 0.05500 0.36100 -0.07400
v 0.10636 0.36100 -0.00331
v 0.10636 0.36100 -0.03669
v 0.00364 0.36100 -0.00331
v 0.00364 0.36100 -0.03669
v 0.05500 0.36100 0.03400
v 0.02326 0.36100 0.02369
v 0.08674 0.36100 0.02369
v 0.05500 0.40100 -0.06400
v 0.07028 0.43500 -0.04104
v 0.05500 0.43500 -0.04600
v 0.08086 0.40100 -0.05560
v 0.08086 0.40100 -0.05560
v 0.07973 0.43500 -0.02803
v 0.07028 0.43500 -0.04104
v 0.09685 0.40100 -0.03360
v 0.09685 0.40100 -0.03360
v 0.07973 0.43500 -0.01197
v 0.07973 0.43500 -0.02803
v 0.09685 0.40100 -0.00640
v 0.09685 0.40100 -0.00640
v 0.07028 0.43500 0.00103
v 0.07973 0.43500 -0.01197
v 0.08086 0.40100 0.01560
v 0.08086 0.40100 0.01560
v 0.05500 0.43500 0.00600
v 0.07028 0.43500 0.00103
v 0.05500 0.40100 0.02400
v 0.05500 0.40100 0.02400
v 0.03972 0.43500 0.00103
v 0.05500 0.43500 0.00600
v 0.02914 0.40100 0.01560
v 0.02914 0.40100 0.01560
v 0.03027 0.43500 -0.01197
v 0.03972 0.43500 0.00103
v 0.01315 0.40100 -0.00640
v 0.01315 0.40100 -0.00640
v 0.03027 0.43500 -0.02803
v 0.03027 0.43500 -0.01197
v 0.01315 0.40100 -0.03360
v 0.07973 0.43500 -0.02803
v 0.05500 0.43500 -0.04600
v 0.07028 0.43500 -0.04104
v 0.03027 0.43500 -0.02803
v 0.03972 0.43500 -0.04104
v 0.07028 0.43500 0.00103
v 0.07973 0.43500 -0.01197
v 0.03972 0.43500 0.00103
v 0.05500 0.43500 0.00600
v 0.03027 0.43500 -0.01197
v 0.01315 0.40100 -0.03360
v 0.03972 0.43500 -0.04104
v 0.03027 0.43500 -0.02803
v 0.02914 0.40100 -0.05560
v 0.02914 0.40100 -0.05560
v 0.05500 0.43500 -0.04600
v 0.03972 0.43500 -0.04104
v 0.05500 0.40100 -0.06400
v 0.05500 0.43500 -0.02000
v 0.07028 0.43500 -0.04104
v 0.05500 0.43500 -0.04600
v 0.07973 0.43500 -0.02803
v 0.03972 0.43500 -0.04104
v 0.07973 0.43500 -0.01197
v 0.03027 0.43500 -0.02803
v 0.07028 0.43500 0.00103
v 0.03027 0.43500 -0.01197
v 0.05500 0.43500 0.00600
v 0.03972 0.43500 0.00103
v 0.05500 0.43500 -0.04600
v 0.07028 0.43500 -0.04104
v 0.05500 0.45900 -0.02000
v 0.07028 0.43500 -0.04104
v 0.07973 0.43500 -0.02803
v 0.05500 0.45900 -0.02000
v 0.07973 0.43500 -0.02803
v 0.07973 0.43500 -0.01197
v 0.05500 0.45900 -0.02000
v 0.07973 0.43500 -0.01197
v 0.07028 0.43500 0.00103
v 0.05500 0.45900 -0.02000
v 0.07028 0.43500 0.00103
v 0.05500 0.43500 0.00600
v 0.05500 0.45900 -0.02000
v 0.05500 0.43500 0.00600
v 0.03972 0.43500 0.00103
v 0.05500 0.45900 -0.02000
v 0.03972 0.43500 0.00103
v 0.03027 0.43500 -0.01197
v 0.05500 0.45900 -0.02000
v 0.03027 0.43500 -0.01197
v 0.03027 0.43500 -0.02803
v 0.05500 0.45900 -0.02000
v 0.03027 0.43500 -0.02803
v 0.03972 0.43500 -0.04104
v 0.05500 0.45900 -0.02000
v 0.03972 0.43500 -0.04104
v 0.05500 0.43500 -0.04600
v 0.05500 0.45900 -0.02000
vn 0.7890 -0.6124 0.0496
vn 0.7890 -0.6124 0.0496
vn 0.7890 -0.6124 0.0496
vn 0.7890 -0.6124 0.0496
vn 0.8960 -0.0510 0.4412
vn 0.8960 -0.0510 0.4412
vn 0.8960 -0.0510 0.4412
vn 0.8960 -0.0510 0.4412
vn -0.6874 -0.1656 -0.7071
vn -0.6874 -0.1656 -0.7071
vn -0.6874 -0.1656 -0.7071
vn -0.6874 -0.1656 -0.7071
vn 0.4614 0.0671 0.8846
vn 0.4614 0.0671 0.8846
vn 0.4614 0.0671 0.8846
vn 0.4614 0.0671 0.8846
vn 0.2269 0.0196 0.9737
vn 0.2269 0.0196 0.9737
vn 0.2269 0.0196 0.9737
vn 0.2269 0.0196 0.9737
vn 0.0026 0.3104 0.9506
vn 0.0026 0.3104 0.9506
vn 0.0026 0.3104 0.9506
vn 0.0026 0.3104 0.9506
vn -0.0439 0.8430 0.5361
vn -0.0439 0.8430 0.5361
vn -0.0439 0.8430 0.5361
vn -0.0439 0.8430 0.5361
vn -0.0031 0.9736 0.2282
vn -0.0031 0.9736 0.2282
vn -0.0031 0.9736 0.2282
vn -0.0031 0.9736 0.2282
vn -0.0000 0.7071 0.7071
vn -0.0000 0.7071 0.7071
vn -0.0000 0.7071 0.7071
vn -0.0000 0.7071 0.7071
vn -0.0000 0.7071 0.7071
vn -0.0000 0.7071 0.7071
vn -0.0000 0.7071 0.7071
vn -0.0000 0.7071 0.7071
vn -0.0000 0.7071 0.7071
vn -0.0000 0.7071 0.7071
vn -0.2524 0.9311 0.2634
vn -0.2524 0.9311 0.2634
vn -0.2524 0.9311 0.2634
vn -0.2524 0.9311 0.2634
vn -0.5751 0.7968 0.1855
vn -0.5751 0.7968 0.1855
vn -0.5751 0.7968 0.1855
vn -0.5751 0.7968 0.1855
vn -0.0000 -0.7071 0.7071
vn -0.0000 -0.7071 0.7071
vn -0.0000 -0.7071 0.7071
vn -0.0000 -0.7071 0.7071
vn -0.0000 -0.7071 0.7071
vn -0.0000 -0.7071 0.7071
vn -0.0000 -0.7071 0.7071
vn -0.0000 -0.7071 0.7071
vn -0.0000 -0.7071 0.7071
vn -0.0000 -0.7071 0.7071
vn 0.6983 -0.7125 -0.0690
vn 0.6983 -0.7125 -0.0690
vn 0.6983 -0.7125 -0.0690
vn 0.6983 -0.7125 -0.0690
vn 0.8679 0.1777 0.4638
vn 0.8679 0.1777 0.4638
vn 0.8679 0.1777 0.4638
vn 0.8679 0.1777 0.4638
vn -0.6240 -0.3327 -0.7070
vn -0.6240 -0.3327 -0.7070
vn -0.6240 -0.3327 -0.7070
vn -0.6240 -0.3327 -0.7070
vn 0.4369 0.2193 0.8724
vn 0.4369 0.2193 0.8724
vn 0.4369 0.2193 0.8724
vn 0.4369 0.2193 0.8724
vn 0.2614 0.1583 0.9522
vn 0.2614 0.1583 0.9522
vn 0.2614 0.1583 0.9522
vn 0.2614 0.1583 0.9522
vn 0.1111 0.3761 0.9199
vn 0.1111 0.3761 0.9199
vn 0.1111 0.3761 0.9199
vn 0.1111 0.3761 0.9199
vn 0.0454 0.7590 0.6495
vn 0.0454 0.7590 0.6495
vn 0.0454 0.7590 0.6495
vn 0.0454 0.7590 0.6495
vn -0.0212 0.9046 0.4257
vn -0.0212 0.9046 0.4257
vn -0.0212 0.9046 0.4257
vn -0.0212 0.9046 0.4257
vn -0.0000 0.7071 0.7071
vn -0.0000 0.7071 0.7071
vn -0.0000 0.7071 0.7071
vn -0.0000 0.7071 0.7071
vn -0.0000 0.7071 0.7071
vn -0.0000 0.7071 0.7071
vn -0.0000 0.7071 0.7071
vn -0.0000 0.7071 0.7071
vn -0.0000 0.7071 0.7071
vn -0.0000 0.7071 0.7071
vn -0.2824 0.8756 0.3920
vn -0.2824 0.8756 0.3920
vn -0.2824 0.8756 0.3920
vn -0.2824 0.8756 0.3920
vn 0.5306 -0.8021 -0.2742
vn 0.5306 -0.8021 -0.2742
vn 0.5306 -0.8021 -0.2742
vn 0.5306 -0.8021 -0.2742
vn -0.0000 -0.7071 0.7071
vn -0.0000 -0.7071 0.7071
vn -0.0000 -0.7071 0.7071
vn -0.0000 -0.7071 0.7071
vn -0.0000 -0.7071 0.7071
vn -0.0000 -0.7071 0.7071
vn -0.0000 -0.7071 0.7071
vn -0.0000 -0.7071 0.7071
vn -0.0000 -0.7071 0.7071
vn -0.0000 -0.7071 0.7071
vn -0.0000 -0.7071 0.7071
vn 0.3821 -0.8654 -0.3241
vn 0.3821 -0.8654 -0.3241
vn 0.3821 -0.8654 -0.3241
vn -0.3059 -0.7934 -0.5263
vn -0.3059 -0.7934 -0.5263
vn -0.3059 -0.7934 -0.5263
vn -0.4468 -0.5498 -0.7058
vn -0.4468 -0.5498 -0.7058
vn -0.4468 -0.5498 -0.7058
vn 0.3516 0.4146 0.8393
vn 0.3516 0.4146 0.8393
vn 0.3516 0.4146 0.8393
vn 0.2404 0.3532 0.9041
vn 0.2404 0.3532 0.9041
vn 0.2404 0.3532 0.9041
vn 0.1494 0.4572 0.8767
vn 0.1494 0.4572 0.8767
vn 0.1494 0.4572 0.8767
vn 0.0647 0.6639 0.7450
vn 0.0647 0.6639 0.7450
vn 0.0647 0.6639 0.7450
vn -0.0695 0.7870 0.6131
vn -0.0695 0.7870 0.6131
vn -0.0695 0.7870 0.6131
vn -0.2679 0.8110 0.5200
vn -0.2679 0.8110 0.5200
vn -0.2679 0.8110 0.5200
vn 0.4026 -0.8203 -0.4062
vn 0.4026 -0.8203 -0.4062
vn 0.4026 -0.8203 -0.4062
f 541//541 543//543 542//542
f 541//541 542//542 544//544
f 545//545 547//547 546//546
f 545//545 546//546 548//548
f 549//549 551//551 550//550
f 549//549 550//550 552//552
f 553//553 555//555 554//554
f 553//553 554//554 556//556
f 557//557 559//559 558//558
f 557//557 558//558 560//560
f 561//561 563//563 562//562
f 561//561 562//562 564//564
f 565//565 567//567 566//566
f 565//565 566//566 568//568
f 569//569 571//571 570//570
f 569//569 570//570 572//572
f 573//573 575//575 574//574
f 573//573 574//574 576//576
f 574//574 577//577 576//576
f 576//576 578//578 573//573
f 578//578 579//579 573//573
f 576//576 580//580 578//578
f 580//580 581//581 578//578
f 576//576 582//582 580//580
f 583//583 585//585 584//584
f 583//583 584//584 586//586
f 587//587 589//589 588//588
f 587//587 588//588 590//590
f 591//591 593//593 592//592
f 591//591 592//592 594//594
f 592//592 595//595 594//594
f 594//594 596//596 591//591
f 596//596 597//597 591//591
f 594//594 598//598 596//596
f 598//598 599//599 596//596
f 594//594 600//600 598//598
f 601//601 603//603 602//602
f 601//601 602//602 604//604
f 605//605 607//607 606//606
f 605//605 606//606 608//608
f 609//609 611//611 610//610
f 609//609 610//610 612//612
f 613//613 615//615 614//614
f 613//613 614//614 616//616
f 617//617 619//619 618//618
f 617//617 618//618 620//620
f 621//621 623//623 622//622
f 621//621 622//622 624//624
f 625//625 627//627 626//626
f 625//625 626//626 628//628
f 629//629 631//631 630//630
f 629//629 630//630 632//632
f 633//633 635//635 634//634
f 633//633 634//634 636//636
f 634//634 637//637 636//636
f 636//636 638//638 633//633
f 638//638 639//639 633//633
f 636//636 640//640 638//638
f 640//640 641//641 638//638
f 636//636 642//642 640//640
f 643//643 645//645 644//644
f 643//643 644//644 646//646
f 647//647 649//649 648//648
f 647//647 648//648 650//650
f 651//651 653//653 652//652
f 651//651 652//652 654//654
f 651//651 655//655 653//653
f 651//651 654//654 656//656
f 651//651 657//657 655//655
f 651//651 656//656 658//658
f 651//651 659//659 657//657
f 651//651 658//658 660//660
f 651//651 661//661 659//659
f 651//651 660//660 661//661
f 662//662 664//664 663//663
f 665//665 667//667 666//666
f 668//668 670//670 669//669
f 671//671 673//673 672//672
f 674//674 676//676 675//675
f 677//677 679//679 678//678
f 680//680 682//682 681//681
f 683//683 685//685 684//684
f 686//686 688//688 687//687
f 689//689 691//691 690//690
g core_window
usemtl window
v 0.04200 0.11000 0.03300
v 0.04200 0.15500 0.02100
v 0.04200 0.15500 0.03300
v 0.04200 0.11000 0.02100
v 0.04200 0.11000 0.02100
v 0.06800 0.15500 0.02100
v 0.04200 0.15500 0.02100
v 0.06800 0.11000 0.02100
v 0.06800 0.11000 0.02100
v 0.06800 0.15500 0.03300
v 0.06800 0.15500 0.02100
v 0.06800 0.11000 0.03300
v 0.06800 0.11000 0.03300
v 0.04200 0.15500 0.03300
v 0.06800 0.15500 0.03300
v 0.04200 0.11000 0.03300
v 0.04200 0.11000 0.02100
v 0.06800 0.11000 0.03300
v 0.06800 0.11000 0.02100
v 0.04200 0.11000 0.03300
v 0.06800 0.15500 0.02100
v 0.04200 0.15500 0.03300
v 0.04200 0.15500 0.02100
v 0.06800 0.15500 0.03300
v 0.04200 0.24000 0.03300
v 0.04200 0.28500 0.02100
v 0.04200 0.28500 0.03300
v 0.04200 0.24000 0.02100
v 0.04200 0.24000 0.02100
v 0.06800 0.28500 0.02100
v 0.04200 0.28500 0.02100
v 0.06800 0.24000 0.02100
v 0.06800 0.24000 0.02100
v 0.06800 0.28500 0.03300
v 0.06800 0.28500 0.02100
v 0.06800 0.24000 0.03300
v 0.06800 0.24000 0.03300
v 0.04200 0.28500 0.03300
v 0.06800 0.28500 0.03300
v 0.04200 0.24000 0.03300
v 0.04200 0.24000 0.02100
v 0.06800 0.24000 0.03300
v 0.06800 0.24000 0.02100
v 0.04200 0.24000 0.03300
v 0.06800 0.28500 0.02100
v 0.04200 0.28500 0.03300
v 0.04200 0.28500 0.02100
v 0.06800 0.28500 0.03300
vn 0.0000 1.0000 -0.0000
vn 0.0000 1.0000 -0.0000
vn 0.0000 1.0000 -0.0000
vn 0.0000 1.0000 -0.0000
vn -0.7071 0.7071 -0.0000
vn -0.7071 0.7071 -0.0000
vn -0.7071 0.7071 -0.0000
vn -0.7071 0.7071 -0.0000
vn 0.7071 -0.0000 0.7071
vn 0.7071 -0.0000 0.7071
vn 0.7071 -0.0000 0.7071
vn 0.7071 -0.0000 0.7071
vn -0.0000 -0.0000 1.0000
vn -0.0000 -0.0000 1.0000
vn -0.0000 -0.0000 1.0000
vn -0.0000 -0.0000 1.0000
vn -0.0000 -0.7071 0.7071
vn -0.0000 -0.7071 0.7071
vn -0.0000 -0.7071 0.7071
vn -0.0000 -0.7071 0.7071
vn -0.0000 0.7071 0.7071
vn -0.0000 0.7071 0.7071
vn -0.0000 0.7071 0.7071
vn -0.0000 0.7071 0.7071
vn 0.0000 1.0000 -0.0000
vn 0.0000 1.0000 -0.0000
vn 0.0000 1.0000 -0.0000
vn 0.0000 1.0000 -0.0000
vn -0.7071 0.7071 -0.0000
vn -0.7071 0.7071 -0.0000
vn -0.7071 0.7071 -0.0000
vn -0.7071 0.7071 -0.0000
vn 0.7071 -0.0000 0.7071
vn 0.7071 -0.0000 0.7071
vn 0.7071 -0.0000 0.7071
vn 0.7071 -0.0000 0.7071
vn -0.0000 -0.0000 1.0000
vn -0.0000 -0.0000 1.0000
vn -0.0000 -0.0000 1.0000
vn -0.0000 -0.0000 1.0000
vn -0.0000 -0.7071 0.7071
vn -0.0000 -0.7071 0.7071
vn -0.0000 -0.7071 0.7071
vn -0.0000 -0.7071 0.7071
vn -0.0000 0.7071 0.7071
vn -0.0000 0.7071 0.7071
vn -0.0000 0.7071 0.7071
vn -0.0000 0.7071 0.7071
f 692//692 694//694 693//693
f 692//692 693//693 695//695
f 696//696 698//698 697//697
f 696//696 697//697 699//699
f 700//700 702//702 701//701
f 700//700 701//701 703//703
f 704//704 706//706 705//705
f 704//704 705//705 707//707
f 708//708 710//710 709//709
f 708//708 709//709 711//711
f 712//712 714//714 713//713
f 712//712 713//713 715//715
f 716//716 718//718 717//717
f 716//716 717//717 719//719
f 720//720 722//722 721//721
f 720//720 721//721 723//723
f 724//724 726//726 725//725
f 724//724 725//725 727//727
f 728//728 730//730 729//729
f 728//728 729//729 731//731
f 732//732 734//734 733//733
f 732//732 733//733 735//735
f 736//736 738//738 737//737
f 736//736 737//737 739//739
