mtllib mine.mtl
o core
g core_rock
usemtl rock
v 0.02000 -0.14785 -0.12000
v -0.06568 -0.08087 0.07776
v 0.25065 -0.08316 0.00568
v 0.25065 -0.08316 0.00568
v 0.23942 -0.07911 -0.23956
v 0.02000 -0.14785 -0.12000
v 0.02000 -0.14785 -0.12000
v -0.21776 -0.06935 -0.12000
v -0.06568 -0.08087 0.07776
v 0.02000 -0.14785 -0.12000
v -0.05804 -0.07366 -0.30013
v -0.21776 -0.06935 -0.12000
v 0.02000 -0.14785 -0.12000
v 0.23942 -0.07911 -0.23956
v -0.05804 -0.07366 -0.30013
v 0.25065 -0.08316 0.00568
v 0.27554 0.07453 -0.12000
v 0.23942 -0.07911 -0.23956
v -0.06568 -0.08087 0.07776
v 0.09848 0.07408 0.06118
v 0.25065 -0.08316 0.00568
v -0.21776 -0.06935 -0.12000
v -0.20387 0.08071 0.00198
v -0.06568 -0.08087 0.07776
v -0.05804 -0.07366 -0.30013
v -0.17979 0.07203 -0.22887
v -0.21776 -0.06935 -0.12000
v 0.23942 -0.07911 -0.23956
v 0.09775 0.07339 -0.29947
v -0.05804 -0.07366 -0.30013
v 0.25065 -0.08316 0.00568
v 0.09848 0.07408 0.06118
v 0.27554 0.07453 -0.12000
v -0.06568 -0.08087 0.07776
v -0.20387 0.08071 0.00198
v 0.09848 0.07408 0.06118
v -0.21776 -0.06935 -0.12000
v -0.17979 0.07203 -0.22887
v -0.20387 0.08071 0.00198
v -0.05804 -0.07366 -0.30013
v 0.09775 0.07339 -0.29947
v -0.17979 0.07203 -0.22887
v 0.23942 -0.07911 -0.23956
v 0.27554 0.07453 -0.12000
v 0.09775 0.07339 -0.29947
v 0.09848 0.07408 0.06118
v 0.02000 0.18591 -0.12000
v 0.27554 0.07453 -0.12000
v -0.20387 0.08071 0.00198
v 0.02000 0.18591 -0.12000
v 0.09848 0.07408 0.06118
v -0.17979 0.07203 -0.22887
v 0.02000 0.18591 -0.12000
v -0.20387 0.08071 0.00198
v 0.09775 0.07339 -0.29947
v 0.02000 0.18591 -0.12000
v -0.17979 0.07203 -0.22887
v 0.27554 0.07453 -0.12000
v 0.02000 0.18591 -0.12000
v 0.09775 0.07339 -0.29947
vn -0.0813 -0.5745 0.8145
vn -0.0813 -0.5745 0.8145
vn -0.0813 -0.5745 0.8145
vn 0.1436 -0.7041 0.6954
vn 0.1436 -0.7041 0.6954
vn 0.1436 -0.7041 0.6954
vn 0.1302 0.6284 -0.7669
vn 0.1302 0.6284 -0.7669
vn 0.1302 0.6284 -0.7669
vn -0.0071 0.8055 -0.5925
vn -0.0071 0.8055 -0.5925
vn -0.0071 0.8055 -0.5925
vn -0.2221 0.8128 -0.5385
vn -0.2221 0.8128 -0.5385
vn -0.2221 0.8128 -0.5385
vn -0.7106 0.1380 -0.6899
vn -0.7106 0.1380 -0.6899
vn -0.7106 0.1380 -0.6899
vn 0.0584 -0.1525 0.9866
vn 0.0584 -0.1525 0.9866
vn 0.0584 -0.1525 0.9866
vn -0.3839 0.9136 -0.1336
vn -0.3839 0.9136 -0.1336
vn -0.3839 0.9136 -0.1336
vn -0.1750 0.9796 -0.0985
vn -0.1750 0.9796 -0.0985
vn -0.1750 0.9796 -0.0985
vn -0.7566 0.6389 -0.1389
vn -0.7566 0.6389 -0.1389
vn -0.7566 0.6389 -0.1389
vn 0.3993 0.1601 0.9027
vn 0.3993 0.1601 0.9027
vn 0.3993 0.1601 0.9027
vn 0.0727 0.2433 0.9672
vn 0.0727 0.2433 0.9672
vn 0.0727 0.2433 0.9672
vn -0.0182 0.9844 0.1749
vn -0.0182 0.9844 0.1749
vn -0.0182 0.9844 0.1749
vn -0.5953 0.7835 0.1780
vn -0.5953 0.7835 0.1780
vn -0.5953 0.7835 0.1780
vn 0.9266 -0.1756 0.3324
vn 0.9266 -0.1756 0.3324
vn 0.9266 -0.1756 0.3324
vn 0.2504 0.5050 0.8260
vn 0.2504 0.5050 0.8260
vn 0.2504 0.5050 0.8260
vn 0.1446 0.4830 0.8636
vn 0.1446 0.4830 0.8636
vn 0.1446 0.4830 0.8636
vn -0.1228 0.7420 0.6591
vn -0.1228 0.7420 0.6591
vn -0.1228 0.7420 0.6591
vn 0.3335 -0.8252 -0.4558
vn 0.3335 -0.8252 -0.4558
vn 0.3335 -0.8252 -0.4558
vn -0.0433 -0.8439 -0.5347
vn -0.0433 -0.8439 -0.5347
vn -0.0433 -0.8439 -0.5347
f 1//1 3//3 2//2
f 4//4 6//6 5//5
f 7//7 9//9 8//8
f 10//10 12//12 11//11
f 13//13 15//15 14//14
f 16//16 18//18 17//17
f 19//19 21//21 20//20
f 22//22 24//24 23//23
f 25//25 27//27 26//26
f 28//28 30//30 29//29
f 31//31 33//33 32//32
f 34//34 36//36 35//35
f 37//37 39//39 38//38
f 40//40 42//42 41//41
f 43//43 45//45 44//44
f 46//46 48//48 47//47
f 49//49 51//51 50//50
f 52//52 54//54 53//53
f 55//55 57//57 56//56
f 58//58 60//60 59//59
g core_black
usemtl black
v -0.05000 0.00000 0.07000
v -0.05000 0.12000 0.05000
v -0.05000 0.12000 0.07000
v -0.05000 0.00000 0.05000
v -0.05000 0.00000 0.05000
v 0.05000 0.12000 0.05000
v -0.05000 0.12000 0.05000
v 0.05000 0.00000 0.05000
v 0.05000 0.00000 0.05000
v 0.05000 0.12000 0.07000
v 0.05000 0.12000 0.05000
v 0.05000 0.00000 0.07000
v 0.05000 0.00000 0.07000
v -0.05000 0.12000 0.07000
v 0.05000 0.12000 0.07000
v -0.05000 0.00000 0.07000
v -0.05000 0.00000 0.05000
v 0.05000 0.00000 0.07000
v 0.05000 0.00000 0.05000
v -0.05000 0.00000 0.07000
v 0.05000 0.12000 0.05000
v -0.05000 0.12000 0.07000
v -0.05000 0.12000 0.05000
v 0.05000 0.12000 0.07000
vn 0.0000 1.0000 -0.0000
vn 0.0000 1.0000 -0.0000
vn 0.0000 1.0000 -0.0000
vn 0.0000 1.0000 -0.0000
vn -0.7071 0.7071 -0.0000
vn -0.7071 0.7071 -0.0000
vn -0.7071 0.7071 -0.0000
vn -0.7071 0.7071 -0.0000
vn 0.7071 -0.0000 0.7071
vn 0.7071 -0.0000 0.7071
vn 0.7071 -0.0000 0.7071
vn 0.7071 -0.0000 0.7071
vn -0.0000 -0.0000 1.0000
vn -0.0000 -0.0000 1.0000
vn -0.0000 -0.0000 1.0000
vn -0.0000 -0.0000 1.0000
vn -0.0000 -0.7071 0.7071
vn -0.0000 -0.7071 0.7071
vn -0.0000 -0.7071 0.7071
vn -0.0000 -0.7071 0.7071
vn -0.0000 0.7071 0.7071
vn -0.0000 0.7071 0.7071
vn -0.0000 0.7071 0.7071
vn -0.0000 0.7071 0.7071
f 61//61 63//63 62//62
f 61//61 62//62 64//64
f 65//65 67//67 66//66
f 65//65 66//66 68//68
f 69//69 71//71 70//70
f 69//69 70//70 72//72
f 73//73 75//75 74//74
f 73//73 74//74 76//76
f 77//77 79//79 78//78
f 77//77 78//78 80//80
f 81//81 83//83 82//82
f 81//81 82//82 84//84
g core_wood
usemtl wood
v -0.06700 0.00000 0.07900
v -0.06700 0.13000 0.06100
v -0.06700 0.13000 0.07900
v -0.06700 0.00000 0.06100
v -0.06700 0.00000 0.06100
v -0.04900 0.13000 0.06100
v -0.06700 0.13000 0.06100
v -0.04900 0.00000 0.06100
v -0.04900 0.00000 0.06100
v -0.04900 0.13000 0.07900
v -0.04900 0.13000 0.06100
v -0.04900 0.00000 0.07900
v -0.04900 0.00000 0.07900
v -0.06700 0.13000 0.07900
v -0.04900 0.13000 0.07900
v -0.06700 0.00000 0.07900
v -0.06700 0.00000 0.06100
v -0.04900 0.00000 0.07900
v -0.04900 0.00000 0.06100
v -0.06700 0.00000 0.07900
v -0.04900 0.13000 0.06100
v -0.06700 0.13000 0.07900
v -0.06700 0.13000 0.06100
v -0.04900 0.13000 0.07900
v 0.04900 0.00000 0.07900
v 0.04900 0.13000 0.06100
v 0.04900 0.13000 0.07900
v 0.04900 0.00000 0.06100
v 0.04900 0.00000 0.06100
v 0.06700 0.13000 0.06100
v 0.04900 0.13000 0.06100
v 0.06700 0.00000 0.06100
v 0.06700 0.00000 0.06100
v 0.06700 0.13000 0.07900
v 0.06700 0.13000 0.06100
v 0.06700 0.00000 0.07900
v 0.06700 0.00000 0.07900
v 0.04900 0.13000 0.07900
v 0.06700 0.13000 0.07900
v 0.04900 0.00000 0.07900
v 0.04900 0.00000 0.06100
v 0.06700 0.00000 0.07900
v 0.06700 0.00000 0.06100
v 0.04900 0.00000 0.07900
v 0.06700 0.13000 0.06100
v 0.04900 0.13000 0.07900
v 0.04900 0.13000 0.06100
v 0.06700 0.13000 0.07900
v -0.07500 0.13000 0.08100
v -0.07500 0.15200 0.05900
v -0.07500 0.15200 0.08100
v -0.07500 0.13000 0.05900
v -0.07500 0.13000 0.05900
v 0.07500 0.15200 0.05900
v -0.07500 0.15200 0.05900
v 0.07500 0.13000 0.05900
v 0.07500 0.13000 0.05900
v 0.07500 0.15200 0.08100
v 0.07500 0.15200 0.05900
v 0.07500 0.13000 0.08100
v 0.07500 0.13000 0.08100
v -0.07500 0.15200 0.08100
v 0.07500 0.15200 0.08100
v -0.07500 0.13000 0.08100
v -0.07500 0.13000 0.05900
v 0.07500 0.13000 0.08100
v 0.07500 0.13000 0.05900
v -0.07500 0.13000 0.08100
v 0.07500 0.15200 0.05900
v -0.07500 0.15200 0.08100
v -0.07500 0.15200 0.05900
v 0.07500 0.15200 0.08100
vn 0.0000 1.0000 -0.0000
vn 0.0000 1.0000 -0.0000
vn 0.0000 1.0000 -0.0000
vn 0.0000 1.0000 -0.0000
vn -0.7071 0.7071 -0.0000
vn -0.7071 0.7071 -0.0000
vn -0.7071 0.7071 -0.0000
vn -0.7071 0.7071 -0.0000
vn 0.7071 -0.0000 0.7071
vn 0.7071 -0.0000 0.7071
vn 0.7071 -0.0000 0.7071
vn 0.7071 -0.0000 0.7071
vn -0.0000 -0.0000 1.0000
vn -0.0000 -0.0000 1.0000
vn -0.0000 -0.0000 1.0000
vn -0.0000 -0.0000 1.0000
vn -0.0000 -0.7071 0.7071
vn -0.0000 -0.7071 0.7071
vn -0.0000 -0.7071 0.7071
vn -0.0000 -0.7071 0.7071
vn -0.0000 0.7071 0.7071
vn -0.0000 0.7071 0.7071
vn -0.0000 0.7071 0.7071
vn -0.0000 0.7071 0.7071
vn 0.0000 1.0000 -0.0000
vn 0.0000 1.0000 -0.0000
vn 0.0000 1.0000 -0.0000
vn 0.0000 1.0000 -0.0000
vn -0.7071 0.7071 -0.0000
vn -0.7071 0.7071 -0.0000
vn -0.7071 0.7071 -0.0000
vn -0.7071 0.7071 -0.0000
vn 0.7071 -0.0000 0.7071
vn 0.7071 -0.0000 0.7071
vn 0.7071 -0.0000 0.7071
vn 0.7071 -0.0000 0.7071
vn -0.0000 -0.0000 1.0000
vn -0.0000 -0.0000 1.0000
vn -0.0000 -0.0000 1.0000
vn -0.0000 -0.0000 1.0000
vn -0.0000 -0.7071 0.7071
vn -0.0000 -0.7071 0.7071
vn -0.0000 -0.7071 0.7071
vn -0.0000 -0.7071 0.7071
vn -0.0000 0.7071 0.7071
vn -0.0000 0.7071 0.7071
vn -0.0000 0.7071 0.7071
vn -0.0000 0.7071 0.7071
vn 0.0000 1.0000 -0.0000
vn 0.0000 1.0000 -0.0000
vn 0.0000 1.0000 -0.0000
vn 0.0000 1.0000 -0.0000
vn -0.7071 0.7071 -0.0000
vn -0.7071 0.7071 -0.0000
vn -0.7071 0.7071 -0.0000
vn -0.7071 0.7071 -0.0000
vn 0.7071 -0.0000 0.7071
vn 0.7071 -0.0000 0.7071
vn 0.7071 -0.0000 0.7071
vn 0.7071 -0.0000 0.7071
vn -0.0000 -0.0000 1.0000
vn -0.0000 -0.0000 1.0000
vn -0.0000 -0.0000 1.0000
vn -0.0000 -0.0000 1.0000
vn -0.0000 -0.7071 0.7071
vn -0.0000 -0.7071 0.7071
vn -0.0000 -0.7071 0.7071
vn -0.0000 -0.7071 0.7071
vn -0.0000 0.7071 0.7071
vn -0.0000 0.7071 0.7071
vn -0.0000 0.7071 0.7071
vn -0.0000 0.7071 0.7071
f 85//85 87//87 86//86
f 85//85 86//86 88//88
f 89//89 91//91 90//90
f 89//89 90//90 92//92
f 93//93 95//95 94//94
f 93//93 94//94 96//96
f 97//97 99//99 98//98
f 97//97 98//98 100//100
f 101//101 103//103 102//102
f 101//101 102//102 104//104
f 105//105 107//107 106//106
f 105//105 106//106 108//108
f 109//109 111//111 110//110
f 109//109 110//110 112//112
f 113//113 115//115 114//114
f 113//113 114//114 116//116
f 117//117 119//119 118//118
f 117//117 118//118 120//120
f 121//121 123//123 122//122
f 121//121 122//122 124//124
f 125//125 127//127 126//126
f 125//125 126//126 128//128
f 129//129 131//131 130//130
f 129//129 130//130 132//132
f 133//133 135//135 134//134
f 133//133 134//134 136//136
f 137//137 139//139 138//138
f 137//137 138//138 140//140
f 141//141 143//143 142//142
f 141//141 142//142 144//144
f 145//145 147//147 146//146
f 145//145 146//146 148//148
f 149//149 151//151 150//150
f 149//149 150//150 152//152
f 153//153 155//155 154//154
f 153//153 154//154 156//156
g core_metal_dark
usemtl metal_dark
v -0.03400 0.00000 0.33000
v -0.03400 0.00800 0.07000
v -0.03400 0.00800 0.33000
v -0.03400 0.00000 0.07000
v -0.03400 0.00000 0.07000
v -0.02600 0.00800 0.07000
v -0.03400 0.00800 0.07000
v -0.02600 0.00000 0.07000
v -0.02600 0.00000 0.07000
v -0.02600 0.00800 0.33000
v -0.02600 0.00800 0.07000
v -0.02600 0.00000 0.33000
v -0.02600 0.00000 0.33000
v -0.03400 0.00800 0.33000
v -0.02600 0.00800 0.33000
v -0.03400 0.00000 0.33000
v -0.03400 0.00000 0.07000
v -0.02600 0.00000 0.33000
v -0.02600 0.00000 0.07000
v -0.03400 0.00000 0.33000
v -0.02600 0.00800 0.07000
v -0.03400 0.00800 0.33000
v -0.03400 0.00800 0.07000
v -0.02600 0.00800 0.33000
v 0.02600 0.00000 0.33000
v 0.02600 0.00800 0.07000
v 0.02600 0.00800 0.33000
v 0.02600 0.00000 0.07000
v 0.02600 0.00000 0.07000
v 0.03400 0.00800 0.07000
v 0.02600 0.00800 0.07000
v 0.03400 0.00000 0.07000
v 0.03400 0.00000 0.07000
v 0.03400 0.00800 0.33000
v 0.03400 0.00800 0.07000
v 0.03400 0.00000 0.33000
v 0.03400 0.00000 0.33000
v 0.02600 0.00800 0.33000
v 0.03400 0.00800 0.33000
v 0.02600 0.00000 0.33000
v 0.02600 0.00000 0.07000
v 0.03400 0.00000 0.33000
v 0.03400 0.00000 0.07000
v 0.02600 0.00000 0.33000
v 0.03400 0.00800 0.07000
v 0.02600 0.00800 0.33000
v 0.02600 0.00800 0.07000
v 0.03400 0.00800 0.33000
v -0.04000 0.01400 0.25600
v -0.03000 0.00188 0.26300
v -0.03000 0.01400 0.25600
v -0.04000 0.00188 0.26300
v -0.04000 0.00188 0.26300
v -0.03000 0.00188 0.27700
v -0.03000 0.00188 0.26300
v -0.04000 0.00188 0.27700
v -0.04000 0.00188 0.27700
v -0.03000 0.01400 0.28400
v -0.03000 0.00188 0.27700
v -0.04000 0.01400 0.28400
v -0.04000 0.01400 0.28400
v -0.03000 0.02612 0.27700
v -0.03000 0.01400 0.28400
v -0.04000 0.02612 0.27700
v -0.03000 0.00188 0.27700
v -0.03000 0.01400 0.25600
v -0.03000 0.00188 0.26300
v -0.03000 0.02612 0.27700
v -0.03000 0.01400 0.28400
v -0.03000 0.02612 0.26300
v -0.04000 0.02612 0.27700
v -0.03000 0.02612 0.26300
v -0.03000 0.02612 0.27700
v -0.04000 0.02612 0.26300
v -0.04000 0.02612 0.26300
v -0.03000 0.01400 0.25600
v -0.03000 0.02612 0.26300
v -0.04000 0.01400 0.25600
v -0.04000 0.02612 0.26300
v -0.04000 0.00188 0.26300
v -0.04000 0.01400 0.25600
v -0.04000 0.01400 0.28400
v -0.04000 0.02612 0.27700
v -0.04000 0.00188 0.27700
v -0.04000 0.01400 0.19600
v -0.03000 0.00188 0.20300
v -0.03000 0.01400 0.19600
v -0.04000 0.00188 0.20300
v -0.04000 0.00188 0.20300
v -0.03000 0.00188 0.21700
v -0.03000 0.00188 0.20300
v -0.04000 0.00188 0.21700
v -0.04000 0.00188 0.21700
v -0.03000 0.01400 0.22400
v -0.03000 0.00188 0.21700
v -0.04000 0.01400 0.22400
v -0.04000 0.01400 0.22400
v -0.03000 0.02612 0.21700
v -0.03000 0.01400 0.22400
v -0.04000 0.02612 0.21700
v -0.03000 0.00188 0.21700
v -0.03000 0.01400 0.19600
v -0.03000 0.00188 0.20300
v -0.03000 0.02612 0.21700
v -0.03000 0.01400 0.22400
v -0.03000 0.02612 0.20300
v -0.04000 0.02612 0.21700
v -0.03000 0.02612 0.20300
v -0.03000 0.02612 0.21700
v -0.04000 0.02612 0.20300
v -0.04000 0.02612 0.20300
v -0.03000 0.01400 0.19600
v -0.03000 0.02612 0.20300
v -0.04000 0.01400 0.19600
v -0.04000 0.02612 0.20300
v -0.04000 0.00188 0.20300
v -0.04000 0.01400 0.19600
v -0.04000 0.01400 0.22400
v -0.04000 0.02612 0.21700
v -0.04000 0.00188 0.21700
v 0.04000 0.01400 0.25600
v 0.05000 0.00188 0.26300
v 0.05000 0.01400 0.25600
v 0.04000 0.00188 0.26300
v 0.04000 0.00188 0.26300
v 0.05000 0.00188 0.27700
v 0.05000 0.00188 0.26300
v 0.04000 0.00188 0.27700
v 0.04000 0.00188 0.27700
v 0.05000 0.01400 0.28400
v 0.05000 0.00188 0.27700
v 0.04000 0.01400 0.28400
v 0.04000 0.01400 0.28400
v 0.05000 0.02612 0.27700
v 0.05000 0.01400 0.28400
v 0.04000 0.02612 0.27700
v 0.05000 0.00188 0.27700
v 0.05000 0.01400 0.25600
v 0.05000 0.00188 0.26300
v 0.05000 0.02612 0.27700
v 0.05000 0.01400 0.28400
v 0.05000 0.02612 0.26300
v 0.04000 0.02612 0.27700
v 0.05000 0.02612 0.26300
v 0.05000 0.02612 0.27700
v 0.04000 0.02612 0.26300
v 0.04000 0.02612 0.26300
v 0.05000 0.01400 0.25600
v 0.05000 0.02612 0.26300
v 0.04000 0.01400 0.25600
v 0.04000 0.02612 0.26300
v 0.04000 0.00188 0.26300
v 0.04000 0.01400 0.25600
v 0.04000 0.01400 0.28400
v 0.04000 0.02612 0.27700
v 0.04000 0.00188 0.27700
v 0.04000 0.01400 0.19600
v 0.05000 0.00188 0.20300
v 0.05000 0.01400 0.19600
v 0.04000 0.00188 0.20300
v 0.04000 0.00188 0.20300
v 0.05000 0.00188 0.21700
v 0.05000 0.00188 0.20300
v 0.04000 0.00188 0.21700
v 0.04000 0.00188 0.21700
v 0.05000 0.01400 0.22400
v 0.05000 0.00188 0.21700
v 0.04000 0.01400 0.22400
v 0.04000 0.01400 0.22400
v 0.05000 0.02612 0.21700
v 0.05000 0.01400 0.22400
v 0.04000 0.02612 0.21700
v 0.05000 0.00188 0.21700
v 0.05000 0.01400 0.19600
v 0.05000 0.00188 0.20300
v 0.05000 0.02612 0.21700
v 0.05000 0.01400 0.22400
v 0.05000 0.02612 0.20300
v 0.04000 0.02612 0.21700
v 0.05000 0.02612 0.20300
v 0.05000 0.02612 0.21700
v 0.04000 0.02612 0.20300
v 0.04000 0.02612 0.20300
v 0.05000 0.01400 0.19600
v 0.05000 0.02612 0.20300
v 0.04000 0.01400 0.19600
v 0.04000 0.02612 0.20300
v 0.04000 0.00188 0.20300
v 0.04000 0.01400 0.19600
v 0.04000 0.01400 0.22400
v 0.04000 0.02612 0.21700
v 0.04000 0.00188 0.21700
vn 0.0000 1.0000 -0.0000
vn 0.0000 1.0000 -0.0000
vn 0.0000 1.0000 -0.0000
vn 0.0000 1.0000 -0.0000
vn -0.7071 0.7071 -0.0000
vn -0.7071 0.7071 -0.0000
vn -0.7071 0.7071 -0.0000
vn -0.7071 0.7071 -0.0000
vn 0.7071 -0.0000 0.7071
vn 0.7071 -0.0000 0.7071
vn 0.7071 -0.0000 0.7071
vn 0.7071 -0.0000 0.7071
vn -0.0000 -0.0000 1.0000
vn -0.0000 -0.0000 1.0000
vn -0.0000 -0.0000 1.0000
vn -0.0000 -0.0000 1.0000
vn -0.0000 -0.7071 0.7071
vn -0.0000 -0.7071 0.7071
vn -0.0000 -0.7071 0.7071
vn -0.0000 -0.7071 0.7071
vn -0.0000 0.7071 0.7071
vn -0.0000 0.7071 0.7071
vn -0.0000 0.7071 0.7071
vn -0.0000 0.7071 0.7071
vn 0.0000 1.0000 -0.0000
vn 0.0000 1.0000 -0.0000
vn 0.0000 1.0000 -0.0000
vn 0.0000 1.0000 -0.0000
vn -0.7071 0.7071 -0.0000
vn -0.7071 0.7071 -0.0000
vn -0.7071 0.7071 -0.0000
vn -0.7071 0.7071 -0.0000
vn 0.7071 -0.0000 0.7071
vn 0.7071 -0.0000 0.7071
vn 0.7071 -0.0000 0.7071
vn 0.7071 -0.0000 0.7071
vn -0.0000 -0.0000 1.0000
vn -0.0000 -0.0000 1.0000
vn -0.0000 -0.0000 1.0000
vn -0.0000 -0.0000 1.0000
vn -0.0000 -0.7071 0.7071
vn -0.0000 -0.7071 0.7071
vn -0.0000 -0.7071 0.7071
vn -0.0000 -0.7071 0.7071
vn -0.0000 0.7071 0.7071
vn -0.0000 0.7071 0.7071
vn -0.0000 0.7071 0.7071
vn -0.0000 0.7071 0.7071
vn -0.5878 0.7814 -0.2094
vn -0.5878 0.7814 -0.2094
vn -0.5878 0.7814 -0.2094
vn -0.5878 0.7814 -0.2094
vn -0.0000 -0.7071 0.7071
vn -0.0000 -0.7071 0.7071
vn -0.0000 -0.7071 0.7071
vn -0.0000 -0.7071 0.7071
vn -0.1911 -0.2541 0.9481
vn -0.1911 -0.2541 0.9481
vn -0.1911 -0.2541 0.9481
vn -0.1911 -0.2541 0.9481
vn 0.1911 0.2540 0.9481
vn 0.1911 0.2540 0.9481
vn 0.1911 0.2540 0.9481
vn 0.1911 0.2540 0.9481
vn 0.7071 -0.0000 0.7071
vn 0.7071 -0.0000 0.7071
vn 0.7071 -0.0000 0.7071
vn 0.7071 -0.0000 0.7071
vn 0.7071 -0.0000 0.7071
vn 0.7071 -0.0000 0.7071
vn -0.0000 0.7071 0.7071
vn -0.0000 0.7071 0.7071
vn -0.0000 0.7071 0.7071
vn -0.0000 0.7071 0.7071
vn 0.5878 -0.7815 -0.2094
vn 0.5878 -0.7815 -0.2094
vn 0.5878 -0.7815 -0.2094
vn 0.5878 -0.7815 -0.2094
vn 0.0000 1.0000 -0.0000
vn 0.0000 1.0000 -0.0000
vn 0.0000 1.0000 -0.0000
vn 0.0000 1.0000 -0.0000
vn 0.0000 1.0000 -0.0000
vn 0.0000 1.0000 -0.0000
vn -0.5878 0.7814 -0.2094
vn -0.5878 0.7814 -0.2094
vn -0.5878 0.7814 -0.2094
vn -0.5878 0.7814 -0.2094
vn -0.0000 -0.7071 0.7071
vn -0.0000 -0.7071 0.7071
vn -0.0000 -0.7071 0.7071
vn -0.0000 -0.7071 0.7071
vn -0.1911 -0.2541 0.9481
vn -0.1911 -0.2541 0.9481
vn -0.1911 -0.2541 0.9481
vn -0.1911 -0.2541 0.9481
vn 0.1911 0.2540 0.9481
vn 0.1911 0.2540 0.9481
vn 0.1911 0.2540 0.9481
vn 0.1911 0.2540 0.9481
vn 0.7071 -0.0000 0.7071
vn 0.7071 -0.0000 0.7071
vn 0.7071 -0.0000 0.7071
vn 0.7071 -0.0000 0.7071
vn 0.7071 -0.0000 0.7071
vn 0.7071 -0.0000 0.7071
vn -0.0000 0.7071 0.7071
vn -0.0000 0.7071 0.7071
vn -0.0000 0.7071 0.7071
vn -0.0000 0.7071 0.7071
vn 0.5878 -0.7815 -0.2094
vn 0.5878 -0.7815 -0.2094
vn 0.5878 -0.7815 -0.2094
vn 0.5878 -0.7815 -0.2094
vn 0.0000 1.0000 -0.0000
vn 0.0000 1.0000 -0.0000
vn 0.0000 1.0000 -0.0000
vn 0.0000 1.0000 -0.0000
vn 0.0000 1.0000 -0.0000
vn 0.0000 1.0000 -0.0000
vn -0.5878 0.7814 -0.2094
vn -0.5878 0.7814 -0.2094
vn -0.5878 0.7814 -0.2094
vn -0.5878 0.7814 -0.2094
vn -0.0000 -0.7071 0.7071
vn -0.0000 -0.7071 0.7071
vn -0.0000 -0.7071 0.7071
vn -0.0000 -0.7071 0.7071
vn -0.1911 -0.2541 0.9481
vn -0.1911 -0.2541 0.9481
vn -0.1911 -0.2541 0.9481
vn -0.1911 -0.2541 0.9481
vn 0.1911 0.2540 0.9481
vn 0.1911 0.2540 0.9481
vn 0.1911 0.2540 0.9481
vn 0.1911 0.2540 0.9481
vn 0.7071 -0.0000 0.7071
vn 0.7071 -0.0000 0.7071
vn 0.7071 -0.0000 0.7071
vn 0.7071 -0.0000 0.7071
vn 0.7071 -0.0000 0.7071
vn 0.7071 -0.0000 0.7071
vn -0.0000 0.7071 0.7071
vn -0.0000 0.7071 0.7071
vn -0.0000 0.7071 0.7071
vn -0.0000 0.7071 0.7071
vn 0.5878 -0.7815 -0.2094
vn 0.5878 -0.7815 -0.2094
vn 0.5878 -0.7815 -0.2094
vn 0.5878 -0.7815 -0.2094
vn 0.0000 1.0000 -0.0000
vn 0.0000 1.0000 -0.0000
vn 0.0000 1.0000 -0.0000
vn 0.0000 1.0000 -0.0000
vn 0.0000 1.0000 -0.0000
vn 0.0000 1.0000 -0.0000
vn -0.5878 0.7814 -0.2094
vn -0.5878 0.7814 -0.2094
vn -0.5878 0.7814 -0.2094
vn -0.5878 0.7814 -0.2094
vn -0.0000 -0.7071 0.7071
vn -0.0000 -0.7071 0.7071
vn -0.0000 -0.7071 0.7071
vn -0.0000 -0.7071 0.7071
vn -0.1911 -0.2541 0.9481
vn -0.1911 -0.2541 0.9481
vn -0.1911 -0.2541 0.9481
vn -0.1911 -0.2541 0.9481
vn 0.1911 0.2540 0.9481
vn 0.1911 0.2540 0.9481
vn 0.1911 0.2540 0.9481
vn 0.1911 0.2540 0.9481
vn 0.7071 -0.0000 0.7071
vn 0.7071 -0.0000 0.7071
vn 0.7071 -0.0000 0.7071
vn 0.7071 -0.0000 0.7071
vn 0.7071 -0.0000 0.7071
vn 0.7071 -0.0000 0.7071
vn -0.0000 0.7071 0.7071
vn -0.0000 0.7071 0.7071
vn -0.0000 0.7071 0.7071
vn -0.0000 0.7071 0.7071
vn 0.5878 -0.7815 -0.2094
vn 0.5878 -0.7815 -0.2094
vn 0.5878 -0.7815 -0.2094
vn 0.5878 -0.7815 -0.2094
vn 0.0000 1.0000 -0.0000
vn 0.0000 1.0000 -0.0000
vn 0.0000 1.0000 -0.0000
vn 0.0000 1.0000 -0.0000
vn 0.0000 1.0000 -0.0000
vn 0.0000 1.0000 -0.0000
f 157//157 159//159 158//158
f 157//157 158//158 160//160
f 161//161 163//163 162//162
f 161//161 162//162 164//164
f 165//165 167//167 166//166
f 165//165 166//166 168//168
f 169//169 171//171 170//170
f 169//169 170//170 172//172
f 173//173 175//175 174//174
f 173//173 174//174 176//176
f 177//177 179//179 178//178
f 177//177 178//178 180//180
f 181//181 183//183 182//182
f 181//181 182//182 184//184
f 185//185 187//187 186//186
f 185//185 186//186 188//188
f 189//189 191//191 190//190
f 189//189 190//190 192//192
f 193//193 195//195 194//194
f 193//193 194//194 196//196
f 197//197 199//199 198//198
f 197//197 198//198 200//200
f 201//201 203//203 202//202
f 201//201 202//202 204//204
f 205//205 207//207 206//206
f 205//205 206//206 208//208
f 209//209 211//211 210//210
f 209//209 210//210 212//212
f 213//213 215//215 214//214
f 213//213 214//214 216//216
f 217//217 219//219 218//218
f 217//217 218//218 220//220
f 221//221 223//223 222//222
f 222//222 224//224 221//221
f 224//224 225//225 221//221
f 222//222 226//226 224//224
f 227//227 229//229 228//228
f 227//227 228//228 230//230
f 231//231 233//233 232//232
f 231//231 232//232 234//234
f 235//235 237//237 236//236
f 236//236 238//238 235//235
f 238//238 239//239 235//235
f 236//236 240//240 238//238
f 241//241 243//243 242//242
f 241//241 242//242 244//244
f 245//245 247//247 246//246
f 245//245 246//246 248//248
f 249//249 251//251 250//250
f 249//249 250//250 252//252
f 253//253 255//255 254//254
f 253//253 254//254 256//256
f 257//257 259//259 258//258
f 258//258 260//260 257//257
f 260//260 261//261 257//257
f 258//258 262//262 260//260
f 263//263 265//265 264//264
f 263//263 264//264 266//266
f 267//267 269//269 268//268
f 267//267 268//268 270//270
f 271//271 273//273 272//272
f 272//272 274//274 271//271
f 274//274 275//275 271//271
f 272//272 276//276 274//274
f 277//277 279//279 278//278
f 277//277 278//278 280//280
f 281//281 283//283 282//282
f 281//281 282//282 284//284
f 285//285 287//287 286//286
f 285//285 286//286 288//288
f 289//289 291//291 290//290
f 289//289 290//290 292//292
f 293//293 295//295 294//294
f 294//294 296//296 293//293
f 296//296 297//297 293//293
f 294//294 298//298 296//296
f 299//299 301//301 300//300
f 299//299 300//300 302//302
f 303//303 305//305 304//304
f 303//303 304//304 306//306
f 307//307 309//309 308//308
f 308//308 310//310 307//307
f 310//310 311//311 307//307
f 308//308 312//312 310//310
f 313//313 315//315 314//314
f 313//313 314//314 316//316
f 317//317 319//319 318//318
f 317//317 318//318 320//320
f 321//321 323//323 322//322
f 321//321 322//322 324//324
f 325//325 327//327 326//326
f 325//325 326//326 328//328
f 329//329 331//331 330//330
f 330//330 332//332 329//329
f 332//332 333//333 329//329
f 330//330 334//334 332//332
f 335//335 337//337 336//336
f 335//335 336//336 338//338
f 339//339 341//341 340//340
f 339//339 340//340 342//342
f 343//343 345//345 344//344
f 344//344 346//346 343//343
f 346//346 347//347 343//343
f 344//344 348//348 346//346
g core_wood_dark
usemtl wood_dark
v -0.03100 0.01500 0.28100
v -0.03546 0.01897 0.28138
v -0.03144 0.01898 0.28540
v -0.03576 0.05602 0.28910
v -0.03979 0.05603 0.28508
v -0.03625 0.06000 0.28550
v -0.03100 0.01500 0.19900
v -0.03144 0.01898 0.19460
v -0.03546 0.01897 0.19862
v -0.03625 0.06000 0.19450
v -0.03979 0.05603 0.19492
v -0.03576 0.05602 0.19090
v 0.03100 0.01500 0.28100
v 0.03144 0.01898 0.28540
v 0.03546 0.01897 0.28138
v 0.03625 0.06000 0.28550
v 0.03979 0.05603 0.28508
v 0.03576 0.05602 0.28910
v 0.03100 0.01500 0.19900
v 0.03546 0.01897 0.19862
v 0.03144 0.01898 0.19460
v 0.03625 0.06000 0.19450
v 0.03576 0.05602 0.19090
v 0.03979 0.05603 0.19492
v -0.03100 0.01500 0.19900
v -0.03546 0.01897 0.28138
v -0.03100 0.01500 0.28100
v -0.03546 0.01897 0.19862
v -0.03144 0.01898 0.28540
v -0.03979 0.05603 0.28508
v -0.03576 0.05602 0.28910
v -0.03546 0.01897 0.28138
v -0.03625 0.06000 0.28550
v -0.03979 0.05603 0.19492
v -0.03625 0.06000 0.19450
v -0.03979 0.05603 0.28508
v -0.03576 0.05602 0.19090
v -0.03546 0.01897 0.19862
v -0.03144 0.01898 0.19460
v -0.03979 0.05603 0.19492
v 0.03100 0.01500 0.19900
v -0.03144 0.01898 0.19460
v -0.03100 0.01500 0.19900
v 0.03144 0.01898 0.19460
v -0.03625 0.06000 0.19450
v 0.03576 0.05602 0.19090
v 0.03625 0.06000 0.19450
v -0.03576 0.05602 0.19090
v 0.03979 0.05603 0.19492
v 0.03144 0.01898 0.19460
v 0.03546 0.01897 0.19862
v 0.03576 0.05602 0.19090
v 0.03100 0.01500 0.28100
v 0.03546 0.01897 0.19862
v 0.03100 0.01500 0.19900
v 0.03546 0.01897 0.28138
v 0.03625 0.06000 0.19450
v 0.03979 0.05603 0.28508
v 0.03625 0.06000 0.28550
v 0.03979 0.05603 0.19492
v 0.03576 0.05602 0.28910
v 0.03546 0.01897 0.28138
v 0.03144 0.01898 0.28540
v 0.03979 0.05603 0.28508
v -0.03100 0.01500 0.28100
v 0.03144 0.01898 0.28540
v 0.03100 0.01500 0.28100
v -0.03144 0.01898 0.28540
v 0.03625 0.06000 0.28550
v -0.03576 0.05602 0.28910
v -0.03625 0.06000 0.28550
v 0.03576 0.05602 0.28910
v -0.03100 0.01500 0.19900
v 0.03100 0.01500 0.28100
v 0.03100 0.01500 0.19900
v -0.03100 0.01500 0.28100
v -0.03546 0.01897 0.28138
v -0.03979 0.05603 0.19492
v -0.03979 0.05603 0.28508
v -0.03546 0.01897 0.19862
v 0.03144 0.01898 0.28540
v -0.03576 0.05602 0.28910
v 0.03576 0.05602 0.28910
v -0.03144 0.01898 0.28540
v 0.03625 0.06000 0.19450
v -0.03625 0.06000 0.28550
v -0.03625 0.06000 0.19450
v 0.03625 0.06000 0.28550
v -0.03144 0.01898 0.19460
v 0.03576 0.05602 0.19090
v -0.03576 0.05602 0.19090
v 0.03144 0.01898 0.19460
v 0.03546 0.01897 0.19862
v 0.03979 0.05603 0.28508
v 0.03979 0.05603 0.19492
v 0.03546 0.01897 0.28138
v -0.04000 0.00000 0.10600
v -0.04000 0.00600 0.09400
v -0.04000 0.00600 0.10600
v -0.04000 0.00000 0.09400
v -0.04000 0.00000 0.09400
v 0.04000 0.00600 0.09400
v -0.04000 0.00600 0.09400
v 0.04000 0.00000 0.09400
v 0.04000 0.00000 0.09400
v 0.04000 0.00600 0.10600
v 0.04000 0.00600 0.09400
v 0.04000 0.00000 0.10600
v 0.04000 0.00000 0.10600
v -0.04000 0.00600 0.10600
v 0.04000 0.00600 0.10600
v -0.04000 0.00000 0.10600
v -0.04000 0.00000 0.09400
v 0.04000 0.00000 0.10600
v 0.04000 0.00000 0.09400
v -0.04000 0.00000 0.10600
v 0.04000 0.00600 0.09400
v -0.04000 0.00600 0.10600
v -0.04000 0.00600 0.09400
v 0.04000 0.00600 0.10600
v -0.04000 0.00000 0.15600
v -0.04000 0.00600 0.14400
v -0.04000 0.00600 0.15600
v -0.04000 0.00000 0.14400
v -0.04000 0.00000 0.14400
v 0.04000 0.00600 0.14400
v -0.04000 0.00600 0.14400
v 0.04000 0.00000 0.14400
v 0.04000 0.00000 0.14400
v 0.04000 0.00600 0.15600
v 0.04000 0.00600 0.14400
v 0.04000 0.00000 0.15600
v 0.04000 0.00000 0.15600
v -0.04000 0.00600 0.15600
v 0.04000 0.00600 0.15600
v -0.04000 0.00000 0.15600
v -0.04000 0.00000 0.14400
v 0.04000 0.00000 0.15600
v 0.04000 0.00000 0.14400
v -0.04000 0.00000 0.15600
v 0.04000 0.00600 0.14400
v -0.04000 0.00600 0.15600
v -0.04000 0.00600 0.14400
v 0.04000 0.00600 0.15600
v -0.04000 0.00000 0.20600
v -0.04000 0.00600 0.19400
v -0.04000 0.00600 0.20600
v -0.04000 0.00000 0.19400
v -0.04000 0.00000 0.19400
v 0.04000 0.00600 0.19400
v -0.04000 0.00600 0.19400
v 0.04000 0.00000 0.19400
v 0.04000 0.00000 0.19400
v 0.04000 0.00600 0.20600
v 0.04000 0.00600 0.19400
v 0.04000 0.00000 0.20600
v 0.04000 0.00000 0.20600
v -0.04000 0.00600 0.20600
v 0.04000 0.00600 0.20600
v -0.04000 0.00000 0.20600
v -0.04000 0.00000 0.19400
v 0.04000 0.00000 0.20600
v 0.04000 0.00000 0.19400
v -0.04000 0.00000 0.20600
v 0.04000 0.00600 0.19400
v -0.04000 0.00600 0.20600
v -0.04000 0.00600 0.19400
v 0.04000 0.00600 0.20600
v -0.04000 0.00000 0.25600
v -0.04000 0.00600 0.24400
v -0.04000 0.00600 0.25600
v -0.04000 0.00000 0.24400
v -0.04000 0.00000 0.24400
v 0.04000 0.00600 0.24400
v -0.04000 0.00600 0.24400
v 0.04000 0.00000 0.24400
v 0.04000 0.00000 0.24400
v 0.04000 0.00600 0.25600
v 0.04000 0.00600 0.24400
v 0.04000 0.00000 0.25600
v 0.04000 0.00000 0.25600
v -0.04000 0.00600 0.25600
v 0.04000 0.00600 0.25600
v -0.04000 0.00000 0.25600
v -0.04000 0.00000 0.24400
v 0.04000 0.00000 0.25600
v 0.04000 0.00000 0.24400
v -0.04000 0.00000 0.25600
v 0.04000 0.00600 0.24400
v -0.04000 0.00600 0.25600
v -0.04000 0.00600 0.24400
v 0.04000 0.00600 0.25600
v -0.04000 0.00000 0.30600
v -0.04000 0.00600 0.29400
v -0.04000 0.00600 0.30600
v -0.04000 0.00000 0.29400
v -0.04000 0.00000 0.29400
v 0.04000 0.00600 0.29400
v -0.04000 0.00600 0.29400
v 0.04000 0.00000 0.29400
v 0.04000 0.00000 0.29400
v 0.04000 0.00600 0.30600
v 0.04000 0.00600 0.29400
v 0.04000 0.00000 0.30600
v 0.04000 0.00000 0.30600
v -0.04000 0.00600 0.30600
v 0.04000 0.00600 0.30600
v -0.04000 0.00000 0.30600
v -0.04000 0.00000 0.29400
v 0.04000 0.00000 0.30600
v 0.04000 0.00000 0.29400
v -0.04000 0.00000 0.30600
v 0.04000 0.00600 0.29400
v -0.04000 0.00600 0.30600
v -0.04000 0.00600 0.29400
v 0.04000 0.00600 0.30600
vn 0.2664 0.4031 -0.8755
vn 0.2664 0.4031 -0.8755
vn 0.2664 0.4031 -0.8755
vn 0.0636 0.6650 0.7441
vn 0.0636 0.6650 0.7441
vn 0.0636 0.6650 0.7441
vn -0.1028 0.9280 -0.3580
vn -0.1028 0.9280 -0.3580
vn -0.1028 0.9280 -0.3580
vn -0.3559 0.8494 0.3898
vn -0.3559 0.8494 0.3898
vn -0.3559 0.8494 0.3898
vn 0.1524 -0.4859 0.8606
vn 0.1524 -0.4859 0.8606
vn 0.1524 -0.4859 0.8606
vn 0.3853 0.2137 0.8977
vn 0.3853 0.2137 0.8977
vn 0.3853 0.2137 0.8977
vn -0.6493 0.5921 -0.4773
vn -0.6493 0.5921 -0.4773
vn -0.6493 0.5921 -0.4773
vn 0.9377 -0.1546 0.3112
vn 0.9377 -0.1546 0.3112
vn 0.9377 -0.1546 0.3112
vn 0.0749 0.7744 -0.6282
vn 0.0749 0.7744 -0.6282
vn 0.0749 0.7744 -0.6282
vn 0.0749 0.7744 -0.6282
vn -0.3876 0.7640 0.5159
vn -0.3876 0.7640 0.5159
vn -0.3876 0.7640 0.5159
vn -0.3876 0.7640 0.5159
vn -0.0590 0.8104 0.5829
vn -0.0590 0.8104 0.5829
vn -0.0590 0.8104 0.5829
vn -0.0590 0.8104 0.5829
vn -0.2590 0.9656 0.0204
vn -0.2590 0.9656 0.0204
vn -0.2590 0.9656 0.0204
vn -0.2590 0.9656 0.0204
vn -0.3972 0.8389 -0.3723
vn -0.3972 0.8389 -0.3723
vn -0.3972 0.8389 -0.3723
vn -0.3972 0.8389 -0.3723
vn 0.4649 -0.8262 -0.3183
vn 0.4649 -0.8262 -0.3183
vn 0.4649 -0.8262 -0.3183
vn 0.4649 -0.8262 -0.3183
vn 0.8610 -0.3341 0.3835
vn 0.8610 -0.3341 0.3835
vn 0.8610 -0.3341 0.3835
vn 0.8610 -0.3341 0.3835
vn 0.4180 -0.5724 0.7055
vn 0.4180 -0.5724 0.7055
vn 0.4180 -0.5724 0.7055
vn 0.4180 -0.5724 0.7055
vn -0.4933 -0.5079 -0.7062
vn -0.4933 -0.5079 -0.7062
vn -0.4933 -0.5079 -0.7062
vn -0.4933 -0.5079 -0.7062
vn 0.3454 -0.2179 0.9128
vn 0.3454 -0.2179 0.9128
vn 0.3454 -0.2179 0.9128
vn 0.3454 -0.2179 0.9128
vn -0.1886 -0.3984 0.8976
vn -0.1886 -0.3984 0.8976
vn -0.1886 -0.3984 0.8976
vn -0.1886 -0.3984 0.8976
vn 0.1982 0.3523 0.9146
vn 0.1982 0.3523 0.9146
vn 0.1982 0.3523 0.9146
vn 0.1982 0.3523 0.9146
vn -0.0000 -0.7071 0.7071
vn -0.0000 -0.7071 0.7071
vn -0.0000 -0.7071 0.7071
vn -0.0000 -0.7071 0.7071
vn 0.0004 0.9933 -0.1155
vn 0.0004 0.9933 -0.1155
vn 0.0004 0.9933 -0.1155
vn 0.0004 0.9933 -0.1155
vn -0.0493 -0.0498 0.9975
vn -0.0493 -0.0498 0.9975
vn -0.0493 -0.0498 0.9975
vn -0.0493 -0.0498 0.9975
vn -0.0000 0.7071 0.7071
vn -0.0000 0.7071 0.7071
vn -0.0000 0.7071 0.7071
vn -0.0000 0.7071 0.7071
vn -0.7032 0.7101 -0.0354
vn -0.7032 0.7101 -0.0354
vn -0.7032 0.7101 -0.0354
vn -0.7032 0.7101 -0.0354
vn 0.7023 -0.0822 0.7071
vn 0.7023 -0.0822 0.7071
vn 0.7023 -0.0822 0.7071
vn 0.7023 -0.0822 0.7071
vn 0.0000 1.0000 -0.0000
vn 0.0000 1.0000 -0.0000
vn 0.0000 1.0000 -0.0000
vn 0.0000 1.0000 -0.0000
vn -0.7071 0.7071 -0.0000
vn -0.7071 0.7071 -0.0000
vn -0.7071 0.7071 -0.0000
vn -0.7071 0.7071 -0.0000
vn 0.7071 -0.0000 0.7071
vn 0.7071 -0.0000 0.7071
vn 0.7071 -0.0000 0.7071
vn 0.7071 -0.0000 0.7071
vn -0.0000 -0.0000 1.0000
vn -0.0000 -0.0000 1.0000
vn -0.0000 -0.0000 1.0000
vn -0.0000 -0.0000 1.0000
vn -0.0000 -0.7071 0.7071
vn -0.0000 -0.7071 0.7071
vn -0.0000 -0.7071 0.7071
vn -0.0000 -0.7071 0.7071
vn -0.0000 0.7071 0.7071
vn -0.0000 0.7071 0.7071
vn -0.0000 0.7071 0.7071
vn -0.0000 0.7071 0.7071
vn 0.0000 1.0000 -0.0000
vn 0.0000 1.0000 -0.0000
vn 0.0000 1.0000 -0.0000
vn 0.0000 1.0000 -0.0000
vn -0.7071 0.7071 -0.0000
vn -0.7071 0.7071 -0.0000
vn -0.7071 0.7071 -0.0000
vn -0.7071 0.7071 -0.0000
vn 0.7071 -0.0000 0.7071
vn 0.7071 -0.0000 0.7071
vn 0.7071 -0.0000 0.7071
vn 0.7071 -0.0000 0.7071
vn -0.0000 -0.0000 1.0000
vn -0.0000 -0.0000 1.0000
vn -0.0000 -0.0000 1.0000
vn -0.0000 -0.0000 1.0000
vn -0.0000 -0.7071 0.7071
vn -0.0000 -0.7071 0.7071
vn -0.0000 -0.7071 0.7071
vn -0.0000 -0.7071 0.7071
vn -0.0000 0.7071 0.7071
vn -0.0000 0.7071 0.7071
vn -0.0000 0.7071 0.7071
vn -0.0000 0.7071 0.7071
vn 0.0000 1.0000 -0.0000
vn 0.0000 1.0000 -0.0000
vn 0.0000 1.0000 -0.0000
vn 0.0000 1.0000 -0.0000
vn -0.7071 0.7071 -0.0000
vn -0.7071 0.7071 -0.0000
vn -0.7071 0.7071 -0.0000
vn -0.7071 0.7071 -0.0000
vn 0.7071 -0.0000 0.7071
vn 0.7071 -0.0000 0.7071
vn 0.7071 -0.0000 0.7071
vn 0.7071 -0.0000 0.7071
vn -0.0000 -0.0000 1.0000
vn -0.0000 -0.0000 1.0000
vn -0.0000 -0.0000 1.0000
vn -0.0000 -0.0000 1.0000
vn -0.0000 -0.7071 0.7071
vn -0.0000 -0.7071 0.7071
vn -0.0000 -0.7071 0.7071
vn -0.0000 -0.7071 0.7071
vn -0.0000 0.7071 0.7071
vn -0.0000 0.7071 0.7071
vn -0.0000 0.7071 0.7071
vn -0.0000 0.7071 0.7071
vn 0.0000 1.0000 -0.0000
vn 0.0000 1.0000 -0.0000
vn 0.0000 1.0000 -0.0000
vn 0.0000 1.0000 -0.0000
vn -0.7071 0.7071 -0.0000
vn -0.7071 0.7071 -0.0000
vn -0.7071 0.7071 -0.0000
vn -0.7071 0.7071 -0.0000
vn 0.7071 -0.0000 0.7071
vn 0.7071 -0.0000 0.7071
vn 0.7071 -0.0000 0.7071
vn 0.7071 -0.0000 0.7071
vn -0.0000 -0.0000 1.0000
vn -0.0000 -0.0000 1.0000
vn -0.0000 -0.0000 1.0000
vn -0.0000 -0.0000 1.0000
vn -0.0000 -0.7071 0.7071
vn -0.0000 -0.7071 0.7071
vn -0.0000 -0.7071 0.7071
vn -0.0000 -0.7071 0.7071
vn -0.0000 0.7071 0.7071
vn -0.0000 0.7071 0.7071
vn -0.0000 0.7071 0.7071
vn -0.0000 0.7071 0.7071
vn 0.0000 1.0000 -0.0000
vn 0.0000 1.0000 -0.0000
vn 0.0000 1.0000 -0.0000
vn 0.0000 1.0000 -0.0000
vn -0.7071 0.7071 -0.0000
vn -0.7071 0.7071 -0.0000
vn -0.7071 0.7071 -0.0000
vn -0.7071 0.7071 -0.0000
vn 0.7071 -0.0000 0.7071
vn 0.7071 -0.0000 0.7071
vn 0.7071 -0.0000 0.7071
vn 0.7071 -0.0000 0.7071
vn -0.0000 -0.0000 1.0000
vn -0.0000 -0.0000 1.0000
vn -0.0000 -0.0000 1.0000
vn -0.0000 -0.0000 1.0000
vn -0.0000 -0.7071 0.7071
vn -0.0000 -0.7071 0.7071
vn -0.0000 -0.7071 0.7071
vn -0.0000 -0.7071 0.7071
vn -0.0000 0.7071 0.7071
vn -0.0000 0.7071 0.7071
vn -0.0000 0.7071 0.7071
vn -0.0000 0.7071 0.7071
f 445//445 447//447 446//446
f 445//445 446//446 448//448
f 449//449 451//451 450//450
f 449//449 450//450 452//452
f 453//453 455//455 454//454
f 453//453 454//454 456//456
f 457//457 459//459 458//458
f 457//457 458//458 460//460
f 461//461 463//463 462//462
f 461//461 462//462 464//464
f 465//465 467//467 466//466
f 465//465 466//466 468//468
f 469//469 471//471 470//470
f 469//469 470//470 472//472
f 473//473 475//475 474//474
f 473//473 474//474 476//476
f 477//477 479//479 478//478
f 477//477 478//478 480//480
f 481//481 483//483 482//482
f 481//481 482//482 484//484
f 485//485 487//487 486//486
f 485//485 486//486 488//488
f 489//489 491//491 490//490
f 489//489 490//490 492//492
f 493//493 495//495 494//494
f 493//493 494//494 496//496
f 497//497 499//499 498//498
f 497//497 498//498 500//500
f 501//501 503//503 502//502
f 501//501 502//502 504//504
f 505//505 507//507 506//506
f 505//505 506//506 508//508
f 509//509 511//511 510//510
f 509//509 510//510 512//512
f 513//513 515//515 514//514
f 513//513 514//514 516//516
f 517//517 519//519 518//518
f 517//517 518//518 520//520
f 521//521 523//523 522//522
f 521//521 522//522 524//524
f 525//525 527//527 526//526
f 525//525 526//526 528//528
f 529//529 531//531 530//530
f 529//529 530//530 532//532
f 533//533 535//535 534//534
f 533//533 534//534 536//536
f 537//537 539//539 538//538
f 537//537 538//538 540//540
f 541//541 543//543 542//542
f 541//541 542//542 544//544
f 545//545 547//547 546//546
f 545//545 546//546 548//548
f 549//549 551//551 550//550
f 549//549 550//550 552//552
f 553//553 555//555 554//554
f 553//553 554//554 556//556
f 557//557 559//559 558//558
f 557//557 558//558 560//560
f 561//561 563//563 562//562
f 561//561 562//562 564//564
f 349//349 351//351 350//350
f 352//352 354//354 353//353
f 355//355 357//357 356//356
f 358//358 360//360 359//359
f 361//361 363//363 362//362
f 364//364 366//366 365//365
f 367//367 369//369 368//368
f 370//370 372//372 371//371
f 373//373 375//375 374//374
f 373//373 374//374 376//376
f 377//377 379//379 378//378
f 377//377 378//378 380//380
f 381//381 383//383 382//382
f 381//381 382//382 384//384
f 385//385 387//387 386//386
f 385//385 386//386 388//388
f 389//389 391//391 390//390
f 389//389 390//390 392//392
f 393//393 395//395 394//394
f 393//393 394//394 396//396
f 397//397 399//399 398//398
f 397//397 398//398 400//400
f 401//401 403//403 402//402
f 401//401 402//402 404//404
f 405//405 407//407 406//406
f 405//405 406//406 408//408
f 409//409 411//411 410//410
f 409//409 410//410 412//412
f 413//413 415//415 414//414
f 413//413 414//414 416//416
f 417//417 419//419 418//418
f 417//417 418//418 420//420
f 421//421 423//423 422//422
f 421//421 422//422 424//424
f 425//425 427//427 426//426
f 425//425 426//426 428//428
f 429//429 431//431 430//430
f 429//429 430//430 432//432
f 433//433 435//435 434//434
f 433//433 434//434 436//436
f 437//437 439//439 438//438
f 437//437 438//438 440//440
f 441//441 443//443 442//442
f 441//441 442//442 444//444
g core_iron
usemtl iron
v -0.01500 0.04900 0.25000
v -0.02110 0.05514 0.26875
v -0.00266 0.05737 0.25896
v -0.00266 0.05737 0.25896
v -0.00216 0.05706 0.24066
v -0.01500 0.04900 0.25000
v -0.01500 0.04900 0.25000
v -0.03260 0.05620 0.25000
v -0.02110 0.05514 0.26875
v -0.01500 0.04900 0.25000
v -0.02060 0.05594 0.23276
v -0.03260 0.05620 0.25000
v -0.01500 0.04900 0.25000
v -0.00216 0.05706 0.24066
v -0.02060 0.05594 0.23276
v -0.00266 0.05737 0.25896
v 0.00205 0.07353 0.25000
v -0.00216 0.05706 0.24066
v -0.02110 0.05514 0.26875
v -0.01048 0.07232 0.26393
v -0.00266 0.05737 0.25896
v -0.03260 0.05620 0.25000
v -0.03051 0.07458 0.26127
v -0.02110 0.05514 0.26875
v -0.02060 0.05594 0.23276
v -0.03051 0.07458 0.23873
v -0.03260 0.05620 0.25000
v -0.00216 0.05706 0.24066
v -0.00851 0.07550 0.23003
v -0.02060 0.05594 0.23276
v -0.00266 0.05737 0.25896
v -0.01048 0.07232 0.26393
v 0.00205 0.07353 0.25000
v -0.02110 0.05514 0.26875
v -0.03051 0.07458 0.26127
v -0.01048 0.07232 0.26393
v -0.03260 0.05620 0.25000
v -0.03051 0.07458 0.23873
v -0.03051 0.07458 0.26127
v -0.02060 0.05594 0.23276
v -0.00851 0.07550 0.23003
v -0.03051 0.07458 0.23873
v -0.00216 0.05706 0.24066
v 0.00205 0.07353 0.25000
v -0.00851 0.07550 0.23003
v -0.01048 0.07232 0.26393
v -0.01500 0.08515 0.25000
v 0.00205 0.07353 0.25000
v -0.03051 0.07458 0.26127
v -0.01500 0.08515 0.25000
v -0.01048 0.07232 0.26393
v -0.03051 0.07458 0.23873
v -0.01500 0.08515 0.25000
v -0.03051 0.07458 0.26127
v -0.00851 0.07550 0.23003
v -0.01500 0.08515 0.25000
v -0.03051 0.07458 0.23873
v 0.00205 0.07353 0.25000
v -0.01500 0.08515 0.25000
v -0.00851 0.07550 0.23003
v 0.01500 0.04900 0.25000
v 0.00960 0.05626 0.26663
v 0.02698 0.05760 0.25870
v 0.02698 0.05760 0.25870
v 0.03049 0.05543 0.23875
v 0.01500 0.04900 0.25000
v 0.01500 0.04900 0.25000
v -0.00431 0.05534 0.25000
v 0.00960 0.05626 0.26663
v 0.01500 0.04900 0.25000
v 0.01022 0.05727 0.23530
v -0.00431 0.05534 0.25000
v 0.01500 0.04900 0.25000
v 0.03049 0.05543 0.23875
v 0.01022 0.05727 0.23530
v 0.02698 0.05760 0.25870
v 0.02983 0.07242 0.25000
v 0.03049 0.05543 0.23875
v 0.00960 0.05626 0.26663
v 0.02102 0.07474 0.26853
v 0.02698 0.05760 0.25870
v -0.00431 0.05534 0.25000
v -0.00035 0.07448 0.26115
v 0.00960 0.05626 0.26663
v 0.01022 0.05727 0.23530
v -0.00136 0.07511 0.23811
v -0.00431 0.05534 0.25000
v 0.03049 0.05543 0.23875
v 0.01971 0.07263 0.23549
v 0.01022 0.05727 0.23530
v 0.02698 0.05760 0.25870
v 0.02102 0.07474 0.26853
v 0.02983 0.07242 0.25000
v 0.00960 0.05626 0.26663
v -0.00035 0.07448 0.26115
v 0.02102 0.07474 0.26853
v -0.00431 0.05534 0.25000
v -0.00136 0.07511 0.23811
v -0.00035 0.07448 0.26115
v 0.01022 0.05727 0.23530
v 0.01971 0.07263 0.23549
v -0.00136 0.07511 0.23811
v 0.03049 0.05543 0.23875
v 0.02983 0.07242 0.25000
v 0.01971 0.07263 0.23549
v 0.02102 0.07474 0.26853
v 0.01500 0.08733 0.25000
v 0.02983 0.07242 0.25000
v -0.00035 0.07448 0.26115
v 0.01500 0.08733 0.25000
v 0.02102 0.07474 0.26853
v -0.00136 0.07511 0.23811
v 0.01500 0.08733 0.25000
v -0.00035 0.07448 0.26115
v 0.01971 0.07263 0.23549
v 0.01500 0.08733 0.25000
v -0.00136 0.07511 0.23811
v 0.02983 0.07242 0.25000
v 0.01500 0.08733 0.25000
v 0.01971 0.07263 0.23549
v -0.01500 0.04900 0.22000
v -0.01971 0.05738 0.23450
v -0.00338 0.05782 0.22844
v -0.00338 0.05782 0.22844
v -0.00062 0.05611 0.20955
v -0.01500 0.04900 0.22000
v -0.01500 0.04900 0.22000
v -0.03603 0.05448 0.22000
v -0.01971 0.05738 0.23450
v -0.01500 0.04900 0.22000
v -0.02117 0.05502 0.20101
v -0.03603 0.05448 0.22000
v -0.01500 0.04900 0.22000
v -0.00062 0.05611 0.20955
v -0.02117 0.05502 0.20101
v -0.00338 0.05782 0.22844
v 0.00124 0.07312 0.22000
v -0.00062 0.05611 0.20955
v -0.01971 0.05738 0.23450
v -0.00980 0.07342 0.23601
v -0.00338 0.05782 0.22844
v -0.03603 0.05448 0.22000
v -0.03201 0.07551 0.23235
v -0.01971 0.05738 0.23450
v -0.02117 0.05502 0.20101
v -0.03160 0.07526 0.20794
v -0.03603 0.05448 0.22000
v -0.00062 0.05611 0.20955
v -0.00871 0.07518 0.20063
v -0.02117 0.05502 0.20101
v -0.00338 0.05782 0.22844
v -0.00980 0.07342 0.23601
v 0.00124 0.07312 0.22000
v -0.01971 0.05738 0.23450
v -0.03201 0.07551 0.23235
v -0.00980 0.07342 0.23601
v -0.03603 0.05448 0.22000
v -0.03160 0.07526 0.20794
v -0.03201 0.07551 0.23235
v -0.02117 0.05502 0.20101
v -0.00871 0.07518 0.20063
v -0.03160 0.07526 0.20794
v -0.00062 0.05611 0.20955
v 0.00124 0.07312 0.22000
v -0.00871 0.07518 0.20063
v -0.00980 0.07342 0.23601
v -0.01500 0.08532 0.22000
v 0.00124 0.07312 0.22000
v -0.03201 0.07551 0.23235
v -0.01500 0.08532 0.22000
v -0.00980 0.07342 0.23601
v -0.03160 0.07526 0.20794
v -0.01500 0.08532 0.22000
v -0.03201 0.07551 0.23235
v -0.00871 0.07518 0.20063
v -0.01500 0.08532 0.22000
v -0.03160 0.07526 0.20794
v 0.00124 0.07312 0.22000
v -0.01500 0.08532 0.22000
v -0.00871 0.07518 0.20063
v 0.01500 0.04900 0.22000
v 0.00877 0.05492 0.23917
v 0.03205 0.05446 0.23238
v 0.03205 0.05446 0.23238
v 0.03075 0.05527 0.20856
v 0.01500 0.04900 0.22000
v 0.01500 0.04900 0.22000
v -0.00059 0.05720 0.22000
v 0.00877 0.05492 0.23917
v 0.01500 0.04900 0.22000
v 0.00965 0.05635 0.20354
v -0.00059 0.05720 0.22000
v 0.01500 0.04900 0.22000
v 0.03075 0.05527 0.20856
v 0.00965 0.05635 0.20354
v 0.03205 0.05446 0.23238
v 0.03265 0.07383 0.22000
v 0.03075 0.05527 0.20856
v 0.00877 0.05492 0.23917
v 0.02040 0.07374 0.23662
v 0.03205 0.05446 0.23238
v -0.00059 0.05720 0.22000
v -0.00127 0.07505 0.23181
v 0.00877 0.05492 0.23917
v 0.00965 0.05635 0.20354
v 0.00152 0.07333 0.21021
v -0.00059 0.05720 0.22000
v 0.03075 0.05527 0.20856
v 0.02031 0.07360 0.20364
v 0.00965 0.05635 0.20354
v 0.03205 0.05446 0.23238
v 0.02040 0.07374 0.23662
v 0.03265 0.07383 0.22000
v 0.00877 0.05492 0.23917
v -0.00127 0.07505 0.23181
v 0.02040 0.07374 0.23662
v -0.00059 0.05720 0.22000
v 0.00152 0.07333 0.21021
v -0.00127 0.07505 0.23181
v 0.00965 0.05635 0.20354
v 0.02031 0.07360 0.20364
v 0.00152 0.07333 0.21021
v 0.03075 0.05527 0.20856
v 0.03265 0.07383 0.22000
v 0.02031 0.07360 0.20364
v 0.02040 0.07374 0.23662
v 0.01500 0.08855 0.22000
v 0.03265 0.07383 0.22000
v -0.00127 0.07505 0.23181
v 0.01500 0.08855 0.22000
v 0.02040 0.07374 0.23662
v 0.00152 0.07333 0.21021
v 0.01500 0.08855 0.22000
v -0.00127 0.07505 0.23181
v 0.02031 0.07360 0.20364
v 0.01500 0.08855 0.22000
v 0.00152 0.07333 0.21021
v 0.03265 0.07383 0.22000
v 0.01500 0.08855 0.22000
v 0.02031 0.07360 0.20364
v 0.14000 -0.01101 0.14000
v 0.13054 -0.00529 0.16909
v 0.16099 -0.00298 0.15525
v 0.16099 -0.00298 0.15525
v 0.16071 -0.00280 0.12495
v 0.14000 -0.01101 0.14000
v 0.14000 -0.01101 0.14000
v 0.11345 -0.00328 0.14000
v 0.13054 -0.00529 0.16909
v 0.14000 -0.01101 0.14000
v 0.13347 -0.00056 0.11992
v 0.11345 -0.00328 0.14000
v 0.14000 -0.01101 0.14000
v 0.16071 -0.00280 0.12495
v 0.13347 -0.00056 0.11992
v 0.16099 -0.00298 0.15525
v 0.16415 0.02207 0.14000
v 0.16071 -0.00280 0.12495
v 0.13054 -0.00529 0.16909
v 0.14889 0.02438 0.16735
v 0.16099 -0.00298 0.15525
v 0.11345 -0.00328 0.14000
v 0.12067 0.02194 0.15404
v 0.13054 -0.00529 0.16909
v 0.13347 -0.00056 0.11992
v 0.11673 0.02438 0.12310
v 0.11345 -0.00328 0.14000
v 0.16071 -0.00280 0.12495
v 0.14897 0.02452 0.11237
v 0.13347 -0.00056 0.11992
v 0.16099 -0.00298 0.15525
v 0.14889 0.02438 0.16735
v 0.16415 0.02207 0.14000
v 0.13054 -0.00529 0.16909
v 0.12067 0.02194 0.15404
v 0.14889 0.02438 0.16735
v 0.11345 -0.00328 0.14000
v 0.11673 0.02438 0.12310
v 0.12067 0.02194 0.15404
v 0.13347 -0.00056 0.11992
v 0.14897 0.02452 0.11237
v 0.11673 0.02438 0.12310
v 0.16071 -0.00280 0.12495
v 0.16415 0.02207 0.14000
v 0.14897 0.02452 0.11237
v 0.14889 0.02438 0.16735
v 0.14000 0.04477 0.14000
v 0.16415 0.02207 0.14000
v 0.12067 0.02194 0.15404
v 0.14000 0.04477 0.14000
v 0.14889 0.02438 0.16735
v 0.11673 0.02438 0.12310
v 0.14000 0.04477 0.14000
v 0.12067 0.02194 0.15404
v 0.14897 0.02452 0.11237
v 0.14000 0.04477 0.14000
v 0.11673 0.02438 0.12310
v 0.16415 0.02207 0.14000
v 0.14000 0.04477 0.14000
v 0.14897 0.02452 0.11237
v 0.17000 -0.01101 0.14000
v 0.16176 -0.00334 0.16537
v 0.19036 -0.00259 0.15479
v 0.19036 -0.00259 0.15479
v 0.18936 -0.00197 0.12593
v 0.17000 -0.01101 0.14000
v 0.17000 -0.01101 0.14000
v 0.14044 -0.00478 0.14000
v 0.16176 -0.00334 0.16537
v 0.17000 -0.01101 0.14000
v 0.16105 -0.00448 0.11246
v 0.14044 -0.00478 0.14000
v 0.17000 -0.01101 0.14000
v 0.18936 -0.00197 0.12593
v 0.16105 -0.00448 0.11246
v 0.19036 -0.00259 0.15479
v 0.20129 0.02564 0.14000
v 0.18936 -0.00197 0.12593
v 0.16176 -0.00334 0.16537
v 0.17679 0.02100 0.16091
v 0.19036 -0.00259 0.15479
v 0.14044 -0.00478 0.14000
v 0.15110 0.02168 0.15373
v 0.16176 -0.00334 0.16537
v 0.16105 -0.00448 0.11246
v 0.15305 0.02047 0.12769
v 0.14044 -0.00478 0.14000
v 0.18936 -0.00197 0.12593
v 0.17822 0.02329 0.11471
v 0.16105 -0.00448 0.11246
v 0.19036 -0.00259 0.15479
v 0.17679 0.02100 0.16091
v 0.20129 0.02564 0.14000
v 0.16176 -0.00334 0.16537
v 0.15110 0.02168 0.15373
v 0.17679 0.02100 0.16091
v 0.14044 -0.00478 0.14000
v 0.15305 0.02047 0.12769
v 0.15110 0.02168 0.15373
v 0.16105 -0.00448 0.11246
v 0.17822 0.02329 0.11471
v 0.15305 0.02047 0.12769
v 0.18936 -0.00197 0.12593
v 0.20129 0.02564 0.14000
v 0.17822 0.02329 0.11471
v 0.17679 0.02100 0.16091
v 0.17000 0.03244 0.14000
v 0.20129 0.02564 0.14000
v 0.15110 0.02168 0.15373
v 0.17000 0.03244 0.14000
v 0.17679 0.02100 0.16091
v 0.15305 0.02047 0.12769
v 0.17000 0.03244 0.14000
v 0.15110 0.02168 0.15373
v 0.17822 0.02329 0.11471
v 0.17000 0.03244 0.14000
v 0.15305 0.02047 0.12769
v 0.20129 0.02564 0.14000
v 0.17000 0.03244 0.14000
v 0.17822 0.02329 0.11471
v 0.20000 -0.01101 0.14000
v 0.19296 -0.00138 0.16165
v 0.21973 -0.00220 0.15434
v 0.21973 -0.00220 0.15434
v 0.22123 -0.00313 0.12457
v 0.20000 -0.01101 0.14000
v 0.20000 -0.01101 0.14000
v 0.17995 -0.00002 0.14000
v 0.19296 -0.00138 0.16165
v 0.20000 -0.01101 0.14000
v 0.19250 -0.00214 0.11691
v 0.17995 -0.00002 0.14000
v 0.20000 -0.01101 0.14000
v 0.22123 -0.00313 0.12457
v 0.19250 -0.00214 0.11691
v 0.21973 -0.00220 0.15434
v 0.22295 0.02147 0.14000
v 0.22123 -0.00313 0.12457
v 0.19296 -0.00138 0.16165
v 0.20719 0.02164 0.16214
v 0.21973 -0.00220 0.15434
v 0.17995 -0.00002 0.14000
v 0.18287 0.02058 0.15244
v 0.19296 -0.00138 0.16165
v 0.19250 -0.00214 0.11691
v 0.18448 0.01959 0.12872
v 0.17995 -0.00002 0.14000
v 0.22123 -0.00313 0.12457
v 0.20966 0.02563 0.11026
v 0.19250 -0.00214 0.11691
v 0.21973 -0.00220 0.15434
v 0.20719 0.02164 0.16214
v 0.22295 0.02147 0.14000
v 0.19296 -0.00138 0.16165
v 0.18287 0.02058 0.15244
v 0.20719 0.02164 0.16214
v 0.17995 -0.00002 0.14000
v 0.18448 0.01959 0.12872
v 0.18287 0.02058 0.15244
v 0.19250 -0.00214 0.11691
v 0.20966 0.02563 0.11026
v 0.18448 0.01959 0.12872
v 0.22123 -0.00313 0.12457
v 0.22295 0.02147 0.14000
v 0.20966 0.02563 0.11026
v 0.20719 0.02164 0.16214
v 0.20000 0.04176 0.14000
v 0.22295 0.02147 0.14000
v 0.18287 0.02058 0.15244
v 0.20000 0.04176 0.14000
v 0.20719 0.02164 0.16214
v 0.18448 0.01959 0.12872
v 0.20000 0.04176 0.14000
v 0.18287 0.02058 0.15244
v 0.20966 0.02563 0.11026
v 0.20000 0.04176 0.14000
v 0.18448 0.01959 0.12872
v 0.22295 0.02147 0.14000
v 0.20000 0.04176 0.14000
v 0.20966 0.02563 0.11026
v 0.14000 0.00899 0.11000
v 0.13417 0.02057 0.12792
v 0.15910 0.01819 0.12388
v 0.15910 0.01819 0.12388
v 0.15794 0.01891 0.09696
v 0.14000 0.00899 0.11000
v 0.14000 0.00899 0.11000
v 0.11695 0.01848 0.11000
v 0.13417 0.02057 0.12792
v 0.14000 0.00899 0.11000
v 0.13391 0.02015 0.09126
v 0.11695 0.01848 0.11000
v 0.14000 0.00899 0.11000
v 0.15794 0.01891 0.09696
v 0.13391 0.02015 0.09126
v 0.15910 0.01819 0.12388
v 0.16721 0.04360 0.11000
v 0.15794 0.01891 0.09696
v 0.13417 0.02057 0.12792
v 0.14850 0.04375 0.13615
v 0.15910 0.01819 0.12388
v 0.11695 0.01848 0.11000
v 0.11871 0.04316 0.12547
v 0.13417 0.02057 0.12792
v 0.13391 0.02015 0.09126
v 0.11645 0.04456 0.09289
v 0.11695 0.01848 0.11000
v 0.15794 0.01891 0.09696
v 0.14601 0.03972 0.09151
v 0.13391 0.02015 0.09126
v 0.15910 0.01819 0.12388
v 0.14850 0.04375 0.13615
v 0.16721 0.04360 0.11000
v 0.13417 0.02057 0.12792
v 0.11871 0.04316 0.12547
v 0.14850 0.04375 0.13615
v 0.11695 0.01848 0.11000
v 0.11645 0.04456 0.09289
v 0.11871 0.04316 0.12547
v 0.13391 0.02015 0.09126
v 0.14601 0.03972 0.09151
v 0.11645 0.04456 0.09289
v 0.15794 0.01891 0.09696
v 0.16721 0.04360 0.11000
v 0.14601 0.03972 0.09151
v 0.14850 0.04375 0.13615
v 0.14000 0.06247 0.11000
v 0.16721 0.04360 0.11000
v 0.11871 0.04316 0.12547
v 0.14000 0.06247 0.11000
v 0.14850 0.04375 0.13615
v 0.11645 0.04456 0.09289
v 0.14000 0.06247 0.11000
v 0.11871 0.04316 0.12547
v 0.14601 0.03972 0.09151
v 0.14000 0.06247 0.11000
v 0.11645 0.04456 0.09289
v 0.16721 0.04360 0.11000
v 0.14000 0.06247 0.11000
v 0.14601 0.03972 0.09151
v 0.17000 0.00899 0.11000
v 0.16151 0.01627 0.13611
v 0.18847 0.01858 0.12342
v 0.18847 0.01858 0.12342
v 0.19478 0.01469 0.09200
v 0.17000 0.00899 0.11000
v 0.17000 0.00899 0.11000
v 0.14394 0.01697 0.11000
v 0.16151 0.01627 0.13611
v 0.17000 0.00899 0.11000
v 0.16146 0.01617 0.08370
v 0.14394 0.01697 0.11000
v 0.17000 0.00899 0.11000
v 0.19478 0.01469 0.09200
v 0.16146 0.01617 0.08370
v 0.18847 0.01858 0.12342
v 0.19841 0.04421 0.11000
v 0.19478 0.01469 0.09200
v 0.16151 0.01627 0.13611
v 0.17857 0.04387 0.13638
v 0.18847 0.01858 0.12342
v 0.14394 0.01697 0.11000
v 0.15105 0.04171 0.12376
v 0.16151 0.01627 0.13611
v 0.16146 0.01617 0.08370
v 0.14719 0.04410 0.09342
v 0.14394 0.01697 0.11000
v 0.19478 0.01469 0.09200
v 0.17945 0.04530 0.08091
v 0.16146 0.01617 0.08370
v 0.18847 0.01858 0.12342
v 0.17857 0.04387 0.13638
v 0.19841 0.04421 0.11000
v 0.16151 0.01627 0.13611
v 0.15105 0.04171 0.12376
v 0.17857 0.04387 0.13638
v 0.14394 0.01697 0.11000
v 0.14719 0.04410 0.09342
v 0.15105 0.04171 0.12376
v 0.16146 0.01617 0.08370
v 0.17945 0.04530 0.08091
v 0.14719 0.04410 0.09342
v 0.19478 0.01469 0.09200
v 0.19841 0.04421 0.11000
v 0.17945 0.04530 0.08091
v 0.17857 0.04387 0.13638
v 0.17000 0.05560 0.11000
v 0.19841 0.04421 0.11000
v 0.15105 0.04171 0.12376
v 0.17000 0.05560 0.11000
v 0.17857 0.04387 0.13638
v 0.14719 0.04410 0.09342
v 0.17000 0.05560 0.11000
v 0.15105 0.04171 0.12376
v 0.17945 0.04530 0.08091
v 0.17000 0.05560 0.11000
v 0.14719 0.04410 0.09342
v 0.19841 0.04421 0.11000
v 0.17000 0.05560 0.11000
v 0.17945 0.04530 0.08091
vn 0.0229 -0.5718 0.8201
vn 0.0229 -0.5718 0.8201
vn 0.0229 -0.5718 0.8201
vn 0.3014 -0.6316 0.7143
vn 0.3014 -0.6316 0.7143
vn 0.3014 -0.6316 0.7143
vn 0.1338 0.6337 -0.7619
vn 0.1338 0.6337 -0.7619
vn 0.1338 0.6337 -0.7619
vn 0.0068 0.8095 -0.5871
vn 0.0068 0.8095 -0.5871
vn 0.0068 0.8095 -0.5871
vn -0.3443 0.7748 -0.5303
vn -0.3443 0.7748 -0.5303
vn -0.3443 0.7748 -0.5303
vn 0.6693 -0.1908 0.7180
vn 0.6693 -0.1908 0.7180
vn 0.6693 -0.1908 0.7180
vn 0.2282 -0.1614 0.9601
vn 0.2282 -0.1614 0.9601
vn 0.2282 -0.1614 0.9601
vn -0.2386 0.9710 -0.0130
vn -0.2386 0.9710 -0.0130
vn -0.2386 0.9710 -0.0130
vn -0.1243 0.9878 -0.0937
vn -0.1243 0.9878 -0.0937
vn -0.1243 0.9878 -0.0937
vn -0.7750 0.5705 -0.2720
vn -0.7750 0.5705 -0.2720
vn -0.7750 0.5705 -0.2720
vn 0.4167 -0.0067 0.9090
vn 0.4167 -0.0067 0.9090
vn 0.4167 -0.0067 0.9090
vn 0.1147 0.2045 0.9721
vn 0.1147 0.2045 0.9721
vn 0.1147 0.2045 0.9721
vn -0.0004 0.9937 0.1124
vn -0.0004 0.9937 0.1124
vn -0.0004 0.9937 0.1124
vn -0.5525 0.8202 0.1484
vn -0.5525 0.8202 0.1484
vn -0.5525 0.8202 0.1484
vn 0.8541 -0.0795 0.5140
vn 0.8541 -0.0795 0.5140
vn 0.8541 -0.0795 0.5140
vn 0.3211 0.3852 0.8652
vn 0.3211 0.3852 0.8652
vn 0.3211 0.3852 0.8652
vn 0.1884 0.3952 0.8991
vn 0.1884 0.3952 0.8991
vn 0.1884 0.3952 0.8991
vn -0.0865 0.7435 0.6632
vn -0.0865 0.7435 0.6632
vn -0.0865 0.7435 0.6632
vn 0.2889 -0.8118 -0.5074
vn 0.2889 -0.8118 -0.5074
vn 0.2889 -0.8118 -0.5074
vn -0.3049 -0.7227 -0.6203
vn -0.3049 -0.7227 -0.6203
vn -0.3049 -0.7227 -0.6203
vn -0.0125 -0.5424 0.8400
vn -0.0125 -0.5424 0.8400
vn -0.0125 -0.5424 0.8400
vn 0.1935 -0.6201 0.7603
vn 0.1935 -0.6201 0.7603
vn 0.1935 -0.6201 0.7603
vn 0.1655 0.5687 -0.8057
vn 0.1655 0.5687 -0.8057
vn 0.1655 0.5687 -0.8057
vn -0.0773 0.8529 -0.5162
vn -0.0773 0.8529 -0.5162
vn -0.0773 0.8529 -0.5162
vn -0.2498 0.8359 -0.4888
vn -0.2498 0.8359 -0.4888
vn -0.2498 0.8359 -0.4888
vn 0.6362 -0.0692 0.7684
vn 0.6362 -0.0692 0.7684
vn 0.6362 -0.0692 0.7684
vn 0.1027 -0.3057 0.9466
vn 0.1027 -0.3057 0.9466
vn 0.1027 -0.3057 0.9466
vn -0.3976 0.8682 0.2968
vn -0.3976 0.8682 0.2968
vn -0.3976 0.8682 0.2968
vn -0.2226 0.9702 -0.0954
vn -0.2226 0.9702 -0.0954
vn -0.2226 0.9702 -0.0954
vn 0.7580 -0.6461 0.0891
vn 0.7580 -0.6461 0.0891
vn 0.7580 -0.6461 0.0891
vn 0.5394 -0.0012 0.8420
vn 0.5394 -0.0012 0.8420
vn 0.5394 -0.0012 0.8420
vn -0.0878 0.2792 0.9562
vn -0.0878 0.2792 0.9562
vn -0.0878 0.2792 0.9562
vn 0.0024 0.9838 0.1791
vn 0.0024 0.9838 0.1791
vn 0.0024 0.9838 0.1791
vn -0.6635 0.7450 0.0687
vn -0.6635 0.7450 0.0687
vn -0.6635 0.7450 0.0687
vn 0.8796 0.1022 0.4647
vn 0.8796 0.1022 0.4647
vn 0.8796 0.1022 0.4647
vn -0.4233 -0.4477 -0.7876
vn -0.4233 -0.4477 -0.7876
vn -0.4233 -0.4477 -0.7876
vn 0.1366 0.4883 0.8619
vn 0.1366 0.4883 0.8619
vn 0.1366 0.4883 0.8619
vn -0.0608 0.7508 0.6577
vn -0.0608 0.7508 0.6577
vn -0.0608 0.7508 0.6577
vn 0.4367 -0.8319 -0.3423
vn 0.4367 -0.8319 -0.3423
vn 0.4367 -0.8319 -0.3423
vn -0.5242 -0.6679 -0.5284
vn -0.5242 -0.6679 -0.5284
vn -0.5242 -0.6679 -0.5284
vn -0.0552 -0.5032 0.8624
vn -0.0552 -0.5032 0.8624
vn -0.0552 -0.5032 0.8624
vn 0.2330 -0.6158 0.7527
vn 0.2330 -0.6158 0.7527
vn 0.2330 -0.6158 0.7527
vn -0.1996 -0.4981 0.8438
vn -0.1996 -0.4981 0.8438
vn -0.1996 -0.4981 0.8438
vn -0.0091 0.7916 -0.6110
vn -0.0091 0.7916 -0.6110
vn -0.0091 0.7916 -0.6110
vn -0.2648 0.7808 -0.5659
vn -0.2648 0.7808 -0.5659
vn -0.2648 0.7808 -0.5659
vn 0.6295 -0.1554 0.7613
vn 0.6295 -0.1554 0.7613
vn 0.6295 -0.1554 0.7613
vn 0.0706 -0.2665 0.9612
vn 0.0706 -0.2665 0.9612
vn 0.0706 -0.2665 0.9612
vn -0.5577 0.4944 0.6667
vn -0.5577 0.4944 0.6667
vn -0.5577 0.4944 0.6667
vn -0.1741 0.9842 -0.0321
vn -0.1741 0.9842 -0.0321
vn -0.1741 0.9842 -0.0321
vn 0.7986 -0.5536 0.2360
vn 0.7986 -0.5536 0.2360
vn 0.7986 -0.5536 0.2360
vn 0.4692 -0.0433 0.8820
vn 0.4692 -0.0433 0.8820
vn 0.4692 -0.0433 0.8820
vn -0.0768 0.0988 0.9921
vn -0.0768 0.0988 0.9921
vn -0.0768 0.0988 0.9921
vn -0.0042 0.9807 0.1952
vn -0.0042 0.9807 0.1952
vn -0.0042 0.9807 0.1952
vn -0.5827 0.7971 0.1587
vn -0.5827 0.7971 0.1587
vn -0.5827 0.7971 0.1587
vn 0.8501 0.0242 0.5261
vn 0.8501 0.0242 0.5261
vn 0.8501 0.0242 0.5261
vn 0.3459 0.4416 0.8278
vn 0.3459 0.4416 0.8278
vn 0.3459 0.4416 0.8278
vn 0.1694 0.4443 0.8797
vn 0.1694 0.4443 0.8797
vn 0.1694 0.4443 0.8797
vn -0.0962 0.7357 0.6704
vn -0.0962 0.7357 0.6704
vn -0.0962 0.7357 0.6704
vn 0.2862 -0.8193 -0.4969
vn 0.2862 -0.8193 -0.4969
vn 0.2862 -0.8193 -0.4969
vn -0.3479 -0.7043 -0.6188
vn -0.3479 -0.7043 -0.6188
vn -0.3479 -0.7043 -0.6188
vn -0.0720 -0.5882 0.8055
vn -0.0720 -0.5882 0.8055
vn -0.0720 -0.5882 0.8055
vn 0.1858 -0.7017 0.6878
vn 0.1858 -0.7017 0.6878
vn 0.1858 -0.7017 0.6878
vn 0.1194 0.6702 -0.7325
vn 0.1194 0.6702 -0.7325
vn 0.1194 0.6702 -0.7325
vn 0.0201 0.8176 -0.5755
vn 0.0201 0.8176 -0.5755
vn 0.0201 0.8176 -0.5755
vn -0.2275 0.8175 -0.5291
vn -0.2275 0.8175 -0.5291
vn -0.2275 0.8175 -0.5291
vn -0.7252 0.0485 -0.6868
vn -0.7252 0.0485 -0.6868
vn -0.7252 0.0485 -0.6868
vn 0.1243 -0.1259 0.9842
vn 0.1243 -0.1259 0.9842
vn 0.1243 -0.1259 0.9842
vn -0.1453 0.9571 -0.2505
vn -0.1453 0.9571 -0.2505
vn -0.1453 0.9571 -0.2505
vn -0.1073 0.9916 -0.0720
vn -0.1073 0.9916 -0.0720
vn -0.1073 0.9916 -0.0720
vn 0.7739 -0.6200 0.1293
vn 0.7739 -0.6200 0.1293
vn 0.7739 -0.6200 0.1293
vn 0.4511 0.1372 0.8819
vn 0.4511 0.1372 0.8819
vn 0.4511 0.1372 0.8819
vn 0.0476 0.2374 0.9703
vn 0.0476 0.2374 0.9703
vn 0.0476 0.2374 0.9703
vn -0.0121 0.9984 0.0547
vn -0.0121 0.9984 0.0547
vn -0.0121 0.9984 0.0547
vn -0.5675 0.8029 0.1823
vn -0.5675 0.8029 0.1823
vn -0.5675 0.8029 0.1823
vn 0.9022 -0.0385 0.4296
vn 0.9022 -0.0385 0.4296
vn 0.9022 -0.0385 0.4296
vn 0.3607 0.3940 0.8454
vn 0.3607 0.3940 0.8454
vn 0.3607 0.3940 0.8454
vn 0.1699 0.4182 0.8923
vn 0.1699 0.4182 0.8923
vn 0.1699 0.4182 0.8923
vn -0.1319 0.8061 0.5769
vn -0.1319 0.8061 0.5769
vn -0.1319 0.8061 0.5769
vn 0.4269 -0.8172 -0.3871
vn 0.4269 -0.8172 -0.3871
vn 0.4269 -0.8172 -0.3871
vn -0.3306 -0.7938 -0.5104
vn -0.3306 -0.7938 -0.5104
vn -0.3306 -0.7938 -0.5104
vn -0.0053 -0.6214 0.7835
vn -0.0053 -0.6214 0.7835
vn -0.0053 -0.6214 0.7835
vn 0.1833 -0.6883 0.7018
vn 0.1833 -0.6883 0.7018
vn 0.1833 -0.6883 0.7018
vn 0.1010 0.6676 -0.7377
vn 0.1010 0.6676 -0.7377
vn 0.1010 0.6676 -0.7377
vn -0.0753 0.8444 -0.5303
vn -0.0753 0.8444 -0.5303
vn -0.0753 0.8444 -0.5303
vn -0.2353 0.8309 -0.5043
vn -0.2353 0.8309 -0.5043
vn -0.2353 0.8309 -0.5043
vn -0.7045 0.0929 -0.7036
vn -0.7045 0.0929 -0.7036
vn -0.7045 0.0929 -0.7036
vn 0.1461 -0.2401 0.9597
vn 0.1461 -0.2401 0.9597
vn 0.1461 -0.2401 0.9597
vn -0.1557 0.9663 0.2051
vn -0.1557 0.9663 0.2051
vn -0.1557 0.9663 0.2051
vn -0.2187 0.9691 -0.1140
vn -0.2187 0.9691 -0.1140
vn -0.2187 0.9691 -0.1140
vn -0.7035 0.6871 -0.1814
vn -0.7035 0.6871 -0.1814
vn -0.7035 0.6871 -0.1814
vn 0.5139 0.0576 0.8559
vn 0.5139 0.0576 0.8559
vn 0.5139 0.0576 0.8559
vn 0.0165 0.4542 0.8908
vn 0.0165 0.4542 0.8908
vn 0.0165 0.4542 0.8908
vn 0.0057 0.9754 0.2206
vn 0.0057 0.9754 0.2206
vn 0.0057 0.9754 0.2206
vn -0.5660 0.8227 0.0531
vn -0.5660 0.8227 0.0531
vn -0.5660 0.8227 0.0531
vn 0.8594 -0.0004 0.5113
vn 0.8594 -0.0004 0.5113
vn 0.8594 -0.0004 0.5113
vn -0.3991 -0.4335 -0.8079
vn -0.3991 -0.4335 -0.8079
vn -0.3991 -0.4335 -0.8079
vn 0.1245 0.5183 0.8461
vn 0.1245 0.5183 0.8461
vn 0.1245 0.5183 0.8461
vn -0.0106 0.7741 0.6329
vn -0.0106 0.7741 0.6329
vn -0.0106 0.7741 0.6329
vn 0.3744 -0.8212 -0.4307
vn 0.3744 -0.8212 -0.4307
vn 0.3744 -0.8212 -0.4307
vn -0.4626 -0.6630 -0.5887
vn -0.4626 -0.6630 -0.5887
vn -0.4626 -0.6630 -0.5887
vn -0.0455 -0.5877 0.8078
vn -0.0455 -0.5877 0.8078
vn -0.0455 -0.5877 0.8078
vn 0.2217 -0.6857 0.6933
vn 0.2217 -0.6857 0.6933
vn 0.2217 -0.6857 0.6933
vn 0.1260 0.6104 -0.7820
vn 0.1260 0.6104 -0.7820
vn 0.1260 0.6104 -0.7820
vn 0.0019 0.7693 -0.6389
vn 0.0019 0.7693 -0.6389
vn 0.0019 0.7693 -0.6389
vn -0.2424 0.7673 -0.5937
vn -0.2424 0.7673 -0.5937
vn -0.2424 0.7673 -0.5937
vn 0.6661 -0.2764 0.6928
vn 0.6661 -0.2764 0.6928
vn 0.6661 -0.2764 0.6928
vn 0.1602 -0.1422 0.9768
vn 0.1602 -0.1422 0.9768
vn 0.1602 -0.1422 0.9768
vn -0.2385 0.8612 0.4488
vn -0.2385 0.8612 0.4488
vn -0.2385 0.8612 0.4488
vn -0.2339 0.9552 0.1813
vn -0.2339 0.9552 0.1813
vn -0.2339 0.9552 0.1813
vn 0.8200 -0.5174 0.2446
vn 0.8200 -0.5174 0.2446
vn 0.8200 -0.5174 0.2446
vn 0.3585 -0.0287 0.9331
vn 0.3585 -0.0287 0.9331
vn 0.3585 -0.0287 0.9331
vn 0.0662 0.3046 0.9502
vn 0.0662 0.3046 0.9502
vn 0.0662 0.3046 0.9502
vn -0.0421 0.9225 0.3836
vn -0.0421 0.9225 0.3836
vn -0.0421 0.9225 0.3836
vn -0.4821 0.8295 0.2821
vn -0.4821 0.8295 0.2821
vn -0.4821 0.8295 0.2821
vn 0.8893 -0.2423 0.3878
vn 0.8893 -0.2423 0.3878
vn 0.8893 -0.2423 0.3878
vn 0.1872 0.5078 0.8409
vn 0.1872 0.5078 0.8409
vn 0.1872 0.5078 0.8409
vn 0.1274 0.5097 0.8509
vn 0.1274 0.5097 0.8509
vn 0.1274 0.5097 0.8509
vn -0.1217 0.7529 0.6468
vn -0.1217 0.7529 0.6468
vn -0.1217 0.7529 0.6468
vn -0.2605 0.7984 0.5429
vn -0.2605 0.7984 0.5429
vn -0.2605 0.7984 0.5429
vn 0.0196 -0.8059 -0.5917
vn 0.0196 -0.8059 -0.5917
vn 0.0196 -0.8059 -0.5917
vn -0.0953 -0.5406 0.8358
vn -0.0953 -0.5406 0.8358
vn -0.0953 -0.5406 0.8358
vn 0.1691 -0.6727 0.7204
vn 0.1691 -0.6727 0.7204
vn 0.1691 -0.6727 0.7204
vn 0.1467 0.6182 -0.7722
vn 0.1467 0.6182 -0.7722
vn 0.1467 0.6182 -0.7722
vn 0.0407 0.7982 -0.6010
vn 0.0407 0.7982 -0.6010
vn 0.0407 0.7982 -0.6010
vn -0.2065 0.8078 -0.5521
vn -0.2065 0.8078 -0.5521
vn -0.2065 0.8078 -0.5521
vn 0.6840 -0.0739 0.7257
vn 0.6840 -0.0739 0.7257
vn 0.6840 -0.0739 0.7257
vn 0.0595 -0.1870 0.9806
vn 0.0595 -0.1870 0.9806
vn 0.0595 -0.1870 0.9806
vn -0.2210 0.9750 0.0222
vn -0.2210 0.9750 0.0222
vn -0.2210 0.9750 0.0222
vn -0.1088 0.9939 0.0189
vn -0.1088 0.9939 0.0189
vn -0.1088 0.9939 0.0189
vn -0.7338 0.6462 -0.2097
vn -0.7338 0.6462 -0.2097
vn -0.7338 0.6462 -0.2097
vn 0.4655 0.0708 0.8822
vn 0.4655 0.0708 0.8822
vn 0.4655 0.0708 0.8822
vn -0.0325 0.3644 0.9307
vn -0.0325 0.3644 0.9307
vn -0.0325 0.3644 0.9307
vn -0.0119 0.9838 0.1789
vn -0.0119 0.9838 0.1789
vn -0.0119 0.9838 0.1789
vn -0.4073 0.8821 0.2365
vn -0.4073 0.8821 0.2365
vn -0.4073 0.8821 0.2365
vn 0.8310 0.0563 0.5534
vn 0.8310 0.0563 0.5534
vn 0.8310 0.0563 0.5534
vn 0.3721 0.3882 0.8431
vn 0.3721 0.3882 0.8431
vn 0.3721 0.3882 0.8431
vn 0.1377 0.4731 0.8702
vn 0.1377 0.4731 0.8702
vn 0.1377 0.4731 0.8702
vn -0.0769 0.8467 0.5265
vn -0.0769 0.8467 0.5265
vn -0.0769 0.8467 0.5265
vn -0.3267 0.8223 0.4660
vn -0.3267 0.8223 0.4660
vn -0.3267 0.8223 0.4660
vn -0.4270 -0.6451 -0.6337
vn -0.4270 -0.6451 -0.6337
vn -0.4270 -0.6451 -0.6337
vn -0.1577 -0.4724 0.8672
vn -0.1577 -0.4724 0.8672
vn -0.1577 -0.4724 0.8672
vn 0.2674 -0.6728 0.6898
vn 0.2674 -0.6728 0.6898
vn 0.2674 -0.6728 0.6898
vn -0.2183 -0.4883 0.8450
vn -0.2183 -0.4883 0.8450
vn -0.2183 -0.4883 0.8450
vn -0.0594 0.8585 -0.5093
vn -0.0594 0.8585 -0.5093
vn -0.0594 0.8585 -0.5093
vn -0.3229 0.8211 -0.4706
vn -0.3229 0.8211 -0.4706
vn -0.3229 0.8211 -0.4706
vn -0.6844 0.2375 -0.6894
vn -0.6844 0.2375 -0.6894
vn -0.6844 0.2375 -0.6894
vn -0.0992 -0.2418 0.9652
vn -0.0992 -0.2418 0.9652
vn -0.0992 -0.2418 0.9652
vn -0.6057 0.6702 0.4289
vn -0.6057 0.6702 0.4289
vn -0.6057 0.6702 0.4289
vn -0.1620 0.9687 -0.1878
vn -0.1620 0.9687 -0.1878
vn -0.1620 0.9687 -0.1878
vn 0.7745 -0.6197 0.1273
vn 0.7745 -0.6197 0.1273
vn 0.7745 -0.6197 0.1273
vn 0.4611 -0.0510 0.8859
vn 0.4611 -0.0510 0.8859
vn 0.4611 -0.0510 0.8859
vn -0.2518 0.1694 0.9528
vn -0.2518 0.1694 0.9528
vn -0.2518 0.1694 0.9528
vn -0.0015 0.9995 0.0305
vn -0.0015 0.9995 0.0305
vn -0.0015 0.9995 0.0305
vn -0.6922 0.7212 0.0275
vn -0.6922 0.7212 0.0275
vn -0.6922 0.7212 0.0275
vn 0.9010 -0.3192 0.2939
vn 0.9010 -0.3192 0.2939
vn 0.9010 -0.3192 0.2939
vn 0.3303 0.4518 0.8287
vn 0.3303 0.4518 0.8287
vn 0.3303 0.4518 0.8287
vn 0.1381 0.4849 0.8636
vn 0.1381 0.4849 0.8636
vn 0.1381 0.4849 0.8636
vn -0.0470 0.7525 0.6569
vn -0.0470 0.7525 0.6569
vn -0.0470 0.7525 0.6569
vn 0.4970 -0.8218 -0.2786
vn 0.4970 -0.8218 -0.2786
vn 0.4970 -0.8218 -0.2786
vn 0.4068 -0.8834 -0.2328
vn 0.4068 -0.8834 -0.2328
vn 0.4068 -0.8834 -0.2328
vn -0.0045 -0.5913 0.8064
vn -0.0045 -0.5913 0.8064
vn -0.0045 -0.5913 0.8064
vn 0.0987 -0.6394 0.7625
vn 0.0987 -0.6394 0.7625
vn 0.0987 -0.6394 0.7625
vn 0.1238 0.6348 -0.7627
vn 0.1238 0.6348 -0.7627
vn 0.1238 0.6348 -0.7627
vn 0.0205 0.7743 -0.6325
vn 0.0205 0.7743 -0.6325
vn 0.0205 0.7743 -0.6325
vn -0.1242 0.7899 -0.6005
vn -0.1242 0.7899 -0.6005
vn -0.1242 0.7899 -0.6005
vn 0.5932 -0.1974 0.7805
vn 0.5932 -0.1974 0.7805
vn 0.5932 -0.1974 0.7805
vn 0.1327 -0.2756 0.9521
vn 0.1327 -0.2756 0.9521
vn 0.1327 -0.2756 0.9521
vn -0.2116 0.9466 0.2434
vn -0.2116 0.9466 0.2434
vn -0.2116 0.9466 0.2434
vn -0.1170 0.9894 -0.0859
vn -0.1170 0.9894 -0.0859
vn -0.1170 0.9894 -0.0859
vn -0.7617 0.6273 -0.1623
vn -0.7617 0.6273 -0.1623
vn -0.7617 0.6273 -0.1623
vn 0.4451 -0.0925 0.8907
vn 0.4451 -0.0925 0.8907
vn 0.4451 -0.0925 0.8907
vn -0.0195 0.4278 0.9037
vn -0.0195 0.4278 0.9037
vn -0.0195 0.4278 0.9037
vn 0.0058 0.9751 0.2215
vn 0.0058 0.9751 0.2215
vn 0.0058 0.9751 0.2215
vn -0.5553 0.8156 0.1624
vn -0.5553 0.8156 0.1624
vn -0.5553 0.8156 0.1624
vn 0.8813 -0.0105 0.4724
vn 0.8813 -0.0105 0.4724
vn 0.8813 -0.0105 0.4724
vn 0.2296 0.5544 0.8000
vn 0.2296 0.5544 0.8000
vn 0.2296 0.5544 0.8000
vn 0.0938 0.5570 0.8252
vn 0.0938 0.5570 0.8252
vn 0.0938 0.5570 0.8252
vn -0.0339 0.7063 0.7071
vn -0.0339 0.7063 0.7071
vn -0.0339 0.7063 0.7071
vn 0.2231 -0.8009 -0.5556
vn 0.2231 -0.8009 -0.5556
vn 0.2231 -0.8009 -0.5556
vn -0.1230 -0.7737 -0.6215
vn -0.1230 -0.7737 -0.6215
vn -0.1230 -0.7737 -0.6215
f 565//565 567//567 566//566
f 568//568 570//570 569//569
f 571//571 573//573 572//572
f 574//574 576//576 575//575
f 577//577 579//579 578//578
f 580//580 582//582 581//581
f 583//583 585//585 584//584
f 586//586 588//588 587//587
f 589//589 591//591 590//590
f 592//592 594//594 593//593
f 595//595 597//597 596//596
f 598//598 600//600 599//599
f 601//601 603//603 602//602
f 604//604 606//606 605//605
f 607//607 609//609 608//608
f 610//610 612//612 611//611
f 613//613 615//615 614//614
f 616//616 618//618 617//617
f 619//619 621//621 620//620
f 622//622 624//624 623//623
f 625//625 627//627 626//626
f 628//628 630//630 629//629
f 631//631 633//633 632//632
f 634//634 636//636 635//635
f 637//637 639//639 638//638
f 640//640 642//642 641//641
f 643//643 645//645 644//644
f 646//646 648//648 647//647
f 649//649 651//651 650//650
f 652//652 654//654 653//653
f 655//655 657//657 656//656
f 658//658 660//660 659//659
f 661//661 663//663 662//662
f 664//664 666//666 665//665
f 667//667 669//669 668//668
f 670//670 672//672 671//671
f 673//673 675//675 674//674
f 676//676 678//678 677//677
f 679//679 681//681 680//680
f 682//682 684//684 683//683
f 685//685 687//687 686//686
f 688//688 690//690 689//689
f 691//691 693//693 692//692
f 694//694 696//696 695//695
f 697//697 699//699 698//698
f 700//700 702//702 701//701
f 703//703 705//705 704//704
f 706//706 708//708 707//707
f 709//709 711//711 710//710
f 712//712 714//714 713//713
f 715//715 717//717 716//716
f 718//718 720//720 719//719
f 721//721 723//723 722//722
f 724//724 726//726 725//725
f 727//727 729//729 728//728
f 730//730 732//732 731//731
f 733//733 735//735 734//734
f 736//736 738//738 737//737
f 739//739 741//741 740//740
f 742//742 744//744 743//743
f 745//745 747//747 746//746
f 748//748 750//750 749//749
f 751//751 753//753 752//752
f 754//754 756//756 755//755
f 757//757 759//759 758//758
f 760//760 762//762 761//761
f 763//763 765//765 764//764
f 766//766 768//768 767//767
f 769//769 771//771 770//770
f 772//772 774//774 773//773
f 775//775 777//777 776//776
f 778//778 780//780 779//779
f 781//781 783//783 782//782
f 784//784 786//786 785//785
f 787//787 789//789 788//788
f 790//790 792//792 791//791
f 793//793 795//795 794//794
f 796//796 798//798 797//797
f 799//799 801//801 800//800
f 802//802 804//804 803//803
f 805//805 807//807 806//806
f 808//808 810//810 809//809
f 811//811 813//813 812//812
f 814//814 816//816 815//815
f 817//817 819//819 818//818
f 820//820 822//822 821//821
f 823//823 825//825 824//824
f 826//826 828//828 827//827
f 829//829 831//831 830//830
f 832//832 834//834 833//833
f 835//835 837//837 836//836
f 838//838 840//840 839//839
f 841//841 843//843 842//842
f 844//844 846//846 845//845
f 847//847 849//849 848//848
f 850//850 852//852 851//851
f 853//853 855//855 854//854
f 856//856 858//858 857//857
f 859//859 861//861 860//860
f 862//862 864//864 863//863
f 865//865 867//867 866//866
f 868//868 870//870 869//869
f 871//871 873//873 872//872
f 874//874 876//876 875//875
f 877//877 879//879 878//878
f 880//880 882//882 881//881
f 883//883 885//885 884//884
f 886//886 888//888 887//887
f 889//889 891//891 890//890
f 892//892 894//894 893//893
f 895//895 897//897 896//896
f 898//898 900//900 899//899
f 901//901 903//903 902//902
f 904//904 906//906 905//905
f 907//907 909//909 908//908
f 910//910 912//912 911//911
f 913//913 915//915 914//914
f 916//916 918//918 917//917
f 919//919 921//921 920//920
f 922//922 924//924 923//923
f 925//925 927//927 926//926
f 928//928 930//930 929//929
f 931//931 933//933 932//932
f 934//934 936//936 935//935
f 937//937 939//939 938//938
f 940//940 942//942 941//941
f 943//943 945//945 944//944
f 946//946 948//948 947//947
f 949//949 951//951 950//950
f 952//952 954//954 953//953
f 955//955 957//957 956//956
f 958//958 960//960 959//959
f 961//961 963//963 962//962
f 964//964 966//966 965//965
f 967//967 969//969 968//968
f 970//970 972//972 971//971
f 973//973 975//975 974//974
f 976//976 978//978 977//977
f 979//979 981//981 980//980
f 982//982 984//984 983//983
f 985//985 987//987 986//986
f 988//988 990//990 989//989
f 991//991 993//993 992//992
f 994//994 996//996 995//995
f 997//997 999//999 998//998
f 1000//1000 1002//1002 1001//1001
f 1003//1003 1005//1005 1004//1004
f 1006//1006 1008//1008 1007//1007
f 1009//1009 1011//1011 1010//1010
f 1012//1012 1014//1014 1013//1013
f 1015//1015 1017//1017 1016//1016
f 1018//1018 1020//1020 1019//1019
f 1021//1021 1023//1023 1022//1022
f 1024//1024 1026//1026 1025//1025
f 1027//1027 1029//1029 1028//1028
f 1030//1030 1032//1032 1031//1031
f 1033//1033 1035//1035 1034//1034
f 1036//1036 1038//1038 1037//1037
f 1039//1039 1041//1041 1040//1040
f 1042//1042 1044//1044 1043//1043
f 1045//1045 1047//1047 1046//1046
f 1048//1048 1050//1050 1049//1049
f 1051//1051 1053//1053 1052//1052
f 1054//1054 1056//1056 1055//1055
f 1057//1057 1059//1059 1058//1058
f 1060//1060 1062//1062 1061//1061
f 1063//1063 1065//1065 1064//1064
f 1066//1066 1068//1068 1067//1067
f 1069//1069 1071//1071 1070//1070
f 1072//1072 1074//1074 1073//1073
f 1075//1075 1077//1077 1076//1076
f 1078//1078 1080//1080 1079//1079
f 1081//1081 1083//1083 1082//1082
f 1084//1084 1086//1086 1085//1085
f 1087//1087 1089//1089 1088//1088
f 1090//1090 1092//1092 1091//1091
f 1093//1093 1095//1095 1094//1094
f 1096//1096 1098//1098 1097//1097
f 1099//1099 1101//1101 1100//1100
f 1102//1102 1104//1104 1103//1103
g core_fire
usemtl fire
v 0.06200 0.09000 0.09300
v 0.06200 0.11200 0.07700
v 0.06200 0.11200 0.09300
v 0.06200 0.09000 0.07700
v 0.06200 0.09000 0.07700
v 0.07800 0.11200 0.07700
v 0.06200 0.11200 0.07700
v 0.07800 0.09000 0.07700
v 0.07800 0.09000 0.07700
v 0.07800 0.11200 0.09300
v 0.07800 0.11200 0.07700
v 0.07800 0.09000 0.09300
v 0.07800 0.09000 0.09300
v 0.06200 0.11200 0.09300
v 0.07800 0.11200 0.09300
v 0.06200 0.09000 0.09300
v 0.06200 0.09000 0.07700
v 0.07800 0.09000 0.09300
v 0.07800 0.09000 0.07700
v 0.06200 0.09000 0.09300
v 0.07800 0.11200 0.07700
v 0.06200 0.11200 0.09300
v 0.06200 0.11200 0.07700
v 0.07800 0.11200 0.09300
vn 0.0000 1.0000 -0.0000
vn 0.0000 1.0000 -0.0000
vn 0.0000 1.0000 -0.0000
vn 0.0000 1.0000 -0.0000
vn -0.7071 0.7071 -0.0000
vn -0.7071 0.7071 -0.0000
vn -0.7071 0.7071 -0.0000
vn -0.7071 0.7071 -0.0000
vn 0.7071 -0.0000 0.7071
vn 0.7071 -0.0000 0.7071
vn 0.7071 -0.0000 0.7071
vn 0.7071 -0.0000 0.7071
vn -0.0000 -0.0000 1.0000
vn -0.0000 -0.0000 1.0000
vn -0.0000 -0.0000 1.0000
vn -0.0000 -0.0000 1.0000
vn -0.0000 -0.7071 0.7071
vn -0.0000 -0.7071 0.7071
vn -0.0000 -0.7071 0.7071
vn -0.0000 -0.7071 0.7071
vn -0.0000 0.7071 0.7071
vn -0.0000 0.7071 0.7071
vn -0.0000 0.7071 0.7071
vn -0.0000 0.7071 0.7071
f 1105//1105 1107//1107 1106//1106
f 1105//1105 1106//1106 1108//1108
f 1109//1109 1111//1111 1110//1110
f 1109//1109 1110//1110 1112//1112
f 1113//1113 1115//1115 1114//1114
f 1113//1113 1114//1114 1116//1116
f 1117//1117 1119//1119 1118//1118
f 1117//1117 1118//1118 1120//1120
f 1121//1121 1123//1123 1122//1122
f 1121//1121 1122//1122 1124//1124
f 1125//1125 1127//1127 1126//1126
f 1125//1125 1126//1126 1128//1128
