mtllib ore_pit.mtl
o core
g core_black
usemtl black
v -0.04000 0.00000 -0.17000
v 0.02500 0.01200 -0.15258
v -0.04000 0.01200 -0.17000
v 0.02500 0.00000 -0.15258
v 0.02500 0.00000 -0.15258
v 0.07258 0.01200 -0.10500
v 0.02500 0.01200 -0.15258
v 0.07258 0.00000 -0.10500
v 0.07258 0.00000 -0.10500
v 0.09000 0.01200 -0.04000
v 0.07258 0.01200 -0.10500
v 0.09000 0.00000 -0.04000
v 0.09000 0.00000 -0.04000
v 0.07258 0.01200 0.02500
v 0.09000 0.01200 -0.04000
v 0.07258 0.00000 0.02500
v 0.07258 0.00000 0.02500
v 0.02500 0.01200 0.07258
v 0.07258 0.01200 0.02500
v 0.02500 0.00000 0.07258
v 0.02500 0.00000 0.07258
v -0.04000 0.01200 0.09000
v 0.02500 0.01200 0.07258
v -0.04000 0.00000 0.09000
v -0.04000 0.00000 0.09000
v -0.10500 0.01200 0.07258
v -0.04000 0.01200 0.09000
v -0.10500 0.00000 0.07258
v -0.10500 0.00000 0.07258
v -0.15258 0.01200 0.02500
v -0.10500 0.01200 0.07258
v -0.15258 0.00000 0.02500
v -0.15258 0.00000 0.02500
v -0.17000 0.01200 -0.04000
v -0.15258 0.01200 0.02500
v -0.17000 0.00000 -0.04000
v -0.17000 0.00000 -0.04000
v -0.15258 0.01200 -0.10500
v -0.17000 0.01200 -0.04000
v -0.15258 0.00000 -0.10500
v 0.07258 0.01200 -0.10500
v -0.04000 0.01200 -0.17000
v 0.02500 0.01200 -0.15258
v -0.15258 0.01200 -0.10500
v -0.10500 0.01200 -0.15258
v 0.07258 0.01200 0.02500
v 0.09000 0.01200 -0.04000
v -0.04000 0.01200 0.09000
v 0.02500 0.01200 0.07258
v -0.15258 0.01200 0.02500
v -0.10500 0.01200 0.07258
v -0.17000 0.01200 -0.04000
v -0.15258 0.00000 -0.10500
v -0.10500 0.01200 -0.15258
v -0.15258 0.01200 -0.10500
v -0.10500 0.00000 -0.15258
v -0.10500 0.00000 -0.15258
v -0.04000 0.01200 -0.17000
v -0.10500 0.01200 -0.15258
v -0.04000 0.00000 -0.17000
v -0.10500 0.00000 -0.15258
v 0.02500 0.00000 -0.15258
v -0.04000 0.00000 -0.17000
v 0.09000 0.00000 -0.04000
v 0.07258 0.00000 -0.10500
v -0.17000 0.00000 -0.04000
v -0.15258 0.00000 -0.10500
v -0.10500 0.00000 0.07258
v -0.15258 0.00000 0.02500
v 0.02500 0.00000 0.07258
v -0.04000 0.00000 0.09000
v 0.07258 0.00000 0.02500
vn 0.7917 -0.6020 0.1042
vn 0.7917 -0.6020 0.1042
vn 0.7917 -0.6020 0.1042
vn 0.7917 -0.6020 0.1042
vn 0.8864 -0.2818 0.3672
vn 0.8864 -0.2818 0.3672
vn 0.8864 -0.2818 0.3672
vn 0.8864 -0.2818 0.3672
vn 0.7930 -0.0275 0.6086
vn 0.7930 -0.0275 0.6086
vn 0.7930 -0.0275 0.6086
vn 0.7930 -0.0275 0.6086
vn 0.6086 -0.0211 0.7932
vn 0.6086 -0.0211 0.7932
vn 0.6086 -0.0211 0.7932
vn 0.6086 -0.0211 0.7932
vn 0.3799 -0.1208 0.9171
vn 0.3799 -0.1208 0.9171
vn 0.3799 -0.1208 0.9171
vn 0.3799 -0.1208 0.9171
vn 0.1299 -0.0988 0.9866
vn 0.1299 -0.0988 0.9866
vn 0.1299 -0.0988 0.9866
vn 0.1299 -0.0988 0.9866
vn -0.1287 0.1692 0.9772
vn -0.1287 0.1692 0.9772
vn -0.1287 0.1692 0.9772
vn -0.1287 0.1692 0.9772
vn -0.2445 0.7693 0.5903
vn -0.2445 0.7693 0.5903
vn -0.2445 0.7693 0.5903
vn -0.2445 0.7693 0.5903
vn -0.0346 0.9984 0.0451
vn -0.0346 0.9984 0.0451
vn -0.0346 0.9984 0.0451
vn -0.0346 0.9984 0.0451
vn -0.0346 0.9990 0.0265
vn -0.0346 0.9990 0.0265
vn -0.0346 0.9990 0.0265
vn -0.0346 0.9990 0.0265
vn -0.0000 0.7071 0.7071
vn -0.0000 0.7071 0.7071
vn -0.0000 0.7071 0.7071
vn -0.0000 0.7071 0.7071
vn -0.0000 0.7071 0.7071
vn -0.0000 0.7071 0.7071
vn -0.0000 0.7071 0.7071
vn -0.0000 0.7071 0.7071
vn -0.0000 0.7071 0.7071
vn -0.0000 0.7071 0.7071
vn -0.0000 0.7071 0.7071
vn -0.0000 0.7071 0.7071
vn -0.3006 0.9456 0.1245
vn -0.3006 0.9456 0.1245
vn -0.3006 0.9456 0.1245
vn -0.3006 0.9456 0.1245
vn -0.6034 0.7935 0.0795
vn -0.6034 0.7935 0.0795
vn -0.6034 0.7935 0.0795
vn -0.6034 0.7935 0.0795
vn -0.0000 -0.7071 0.7071
vn -0.0000 -0.7071 0.7071
vn -0.0000 -0.7071 0.7071
vn -0.0000 -0.7071 0.7071
vn -0.0000 -0.7071 0.7071
vn -0.0000 -0.7071 0.7071
vn -0.0000 -0.7071 0.7071
vn -0.0000 -0.7071 0.7071
vn -0.0000 -0.7071 0.7071
vn -0.0000 -0.7071 0.7071
vn -0.0000 -0.7071 0.7071
vn -0.0000 -0.7071 0.7071
f 1//1 3//3 2//2
f 1//1 2//2 4//4
f 5//5 7//7 6//6
f 5//5 6//6 8//8
f 9//9 11//11 10//10
f 9//9 10//10 12//12
f 13//13 15//15 14//14
f 13//13 14//14 16//16
f 17//17 19//19 18//18
f 17//17 18//18 20//20
f 21//21 23//23 22//22
f 21//21 22//22 24//24
f 25//25 27//27 26//26
f 25//25 26//26 28//28
f 29//29 31//31 30//30
f 29//29 30//30 32//32
f 33//33 35//35 34//34
f 33//33 34//34 36//36
f 37//37 39//39 38//38
f 37//37 38//38 40//40
f 41//41 43//43 42//42
f 41//41 42//42 44//44
f 42//42 45//45 44//44
f 46//46 47//47 41//41
f 48//48 46//46 41//41
f 44//44 48//48 41//41
f 48//48 49//49 46//46
f 44//44 50//50 48//48
f 50//50 51//51 48//48
f 44//44 52//52 50//50
f 53//53 55//55 54//54
f 53//53 54//54 56//56
f 57//57 59//59 58//58
f 57//57 58//58 60//60
f 61//61 63//63 62//62
f 61//61 62//62 64//64
f 62//62 65//65 64//64
f 66//66 67//67 61//61
f 68//68 66//66 61//61
f 64//64 68//68 61//61
f 68//68 69//69 66//66
f 64//64 70//70 68//68
f 70//70 71//71 68//68
f 64//64 72//72 70//70
g core_stone_dark
usemtl stone_dark
v 0.10000 -0.00880 -0.04000
v 0.08878 -0.00259 -0.01124
v 0.13069 -0.00306 -0.02142
v 0.13069 -0.00306 -0.02142
v 0.12834 -0.00222 -0.05716
v 0.10000 -0.00880 -0.04000
v 0.10000 -0.00880 -0.04000
v 0.07193 -0.00019 -0.04000
v 0.08878 -0.00259 -0.01124
v 0.10000 -0.00880 -0.04000
v 0.09037 -0.00108 -0.06468
v 0.07193 -0.00019 -0.04000
v 0.10000 -0.00880 -0.04000
v 0.12834 -0.00222 -0.05716
v 0.09037 -0.00108 -0.06468
v 0.13069 -0.00306 -0.02142
v 0.13177 0.01727 -0.04000
v 0.12834 -0.00222 -0.05716
v 0.08878 -0.00259 -0.01124
v 0.10971 0.01717 -0.01508
v 0.13069 -0.00306 -0.02142
v 0.07193 -0.00019 -0.04000
v 0.07072 0.01855 -0.02228
v 0.08878 -0.00259 -0.01124
v 0.09037 -0.00108 -0.06468
v 0.07574 0.01674 -0.05469
v 0.07193 -0.00019 -0.04000
v 0.12834 -0.00222 -0.05716
v 0.10956 0.01703 -0.06453
v 0.09037 -0.00108 -0.06468
v 0.13069 -0.00306 -0.02142
v 0.10971 0.01717 -0.01508
v 0.13177 0.01727 -0.04000
v 0.08878 -0.00259 -0.01124
v 0.07072 0.01855 -0.02228
v 0.10971 0.01717 -0.01508
v 0.07193 -0.00019 -0.04000
v 0.07574 0.01674 -0.05469
v 0.07072 0.01855 -0.02228
v 0.09037 -0.00108 -0.06468
v 0.10956 0.01703 -0.06453
v 0.07574 0.01674 -0.05469
v 0.12834 -0.00222 -0.05716
v 0.13177 0.01727 -0.04000
v 0.10956 0.01703 -0.06453
v 0.10971 0.01717 -0.01508
v 0.10000 0.03273 -0.04000
v 0.13177 0.01727 -0.04000
v 0.07072 0.01855 -0.02228
v 0.10000 0.03273 -0.04000
v 0.10971 0.01717 -0.01508
v 0.07574 0.01674 -0.05469
v 0.10000 0.03273 -0.04000
v 0.07072 0.01855 -0.02228
v 0.10956 0.01703 -0.06453
v 0.10000 0.03273 -0.04000
v 0.07574 0.01674 -0.05469
v 0.13177 0.01727 -0.04000
v 0.10000 0.03273 -0.04000
v 0.10956 0.01703 -0.06453
v 0.06724 -0.00880 -0.11071
v 0.05727 -0.00141 -0.08513
v 0.09728 -0.00283 -0.09252
v 0.09728 -0.00283 -0.09252
v 0.09510 -0.00204 -0.12757
v 0.06724 -0.00880 -0.11071
v 0.06724 -0.00880 -0.11071
v 0.03608 -0.00109 -0.11071
v 0.05727 -0.00141 -0.08513
v 0.06724 -0.00880 -0.11071
v 0.05909 0.00031 -0.13162
v 0.03608 -0.00109 -0.11071
v 0.06724 -0.00880 -0.11071
v 0.09510 -0.00204 -0.12757
v 0.05909 0.00031 -0.13162
v 0.09728 -0.00283 -0.09252
v 0.10542 0.01914 -0.11071
v 0.09510 -0.00204 -0.12757
v 0.05727 -0.00141 -0.08513
v 0.07599 0.01625 -0.08829
v 0.09728 -0.00283 -0.09252
v 0.03608 -0.00109 -0.11071
v 0.03986 0.01787 -0.09413
v 0.05727 -0.00141 -0.08513
v 0.05909 0.00031 -0.13162
v 0.04192 0.01713 -0.12604
v 0.03608 -0.00109 -0.11071
v 0.09510 -0.00204 -0.12757
v 0.07616 0.01641 -0.13357
v 0.05909 0.00031 -0.13162
v 0.09728 -0.00283 -0.09252
v 0.07599 0.01625 -0.08829
v 0.10542 0.01914 -0.11071
v 0.05727 -0.00141 -0.08513
v 0.03986 0.01787 -0.09413
v 0.07599 0.01625 -0.08829
v 0.03608 -0.00109 -0.11071
v 0.04192 0.01713 -0.12604
v 0.03986 0.01787 -0.09413
v 0.05909 0.00031 -0.13162
v 0.07616 0.01641 -0.13357
v 0.04192 0.01713 -0.12604
v 0.09510 -0.00204 -0.12757
v 0.10542 0.01914 -0.11071
v 0.07616 0.01641 -0.13357
v 0.07599 0.01625 -0.08829
v 0.06724 0.03286 -0.11071
v 0.10542 0.01914 -0.11071
v 0.03986 0.01787 -0.09413
v 0.06724 0.03286 -0.11071
v 0.07599 0.01625 -0.08829
v 0.04192 0.01713 -0.12604
v 0.06724 0.03286 -0.11071
v 0.03986 0.01787 -0.09413
v 0.07616 0.01641 -0.13357
v 0.06724 0.03286 -0.11071
v 0.04192 0.01713 -0.12604
v 0.10542 0.01914 -0.11071
v 0.06724 0.03286 -0.11071
v 0.07616 0.01641 -0.13357
v -0.01569 -0.00880 -0.14833
v -0.02442 -0.00024 -0.12594
v 0.01370 -0.00260 -0.13054
v 0.01370 -0.00260 -0.13054
v 0.01174 -0.00189 -0.16494
v -0.01569 -0.00880 -0.14833
v -0.01569 -0.00880 -0.14833
v -0.04995 -0.00199 -0.14833
v -0.02442 -0.00024 -0.12594
v -0.01569 -0.00880 -0.14833
v -0.02633 -0.00204 -0.17561
v -0.04995 -0.00199 -0.14833
v -0.01569 -0.00880 -0.14833
v 0.01174 -0.00189 -0.16494
v -0.02633 -0.00204 -0.17561
v 0.01370 -0.00260 -0.13054
v 0.02052 0.01856 -0.14833
v 0.01174 -0.00189 -0.16494
v -0.02442 -0.00024 -0.12594
v -0.00457 0.01850 -0.11980
v 0.01370 -0.00260 -0.13054
v -0.04995 -0.00199 -0.14833
v -0.04058 0.01697 -0.13326
v -0.02442 -0.00024 -0.12594
v -0.02633 -0.00204 -0.17561
v -0.04600 0.01893 -0.16668
v -0.04995 -0.00199 -0.14833
v 0.01174 -0.00189 -0.16494
v -0.00562 0.01751 -0.17417
v -0.02633 -0.00204 -0.17561
v 0.01370 -0.00260 -0.13054
v -0.00457 0.01850 -0.11980
v 0.02052 0.01856 -0.14833
v -0.02442 -0.00024 -0.12594
v -0.04058 0.01697 -0.13326
v -0.00457 0.01850 -0.11980
v -0.04995 -0.00199 -0.14833
v -0.04600 0.01893 -0.16668
v -0.04058 0.01697 -0.13326
v -0.02633 -0.00204 -0.17561
v -0.00562 0.01751 -0.17417
v -0.04600 0.01893 -0.16668
v 0.01174 -0.00189 -0.16494
v 0.02052 0.01856 -0.14833
v -0.00562 0.01751 -0.17417
v -0.00457 0.01850 -0.11980
v -0.01569 0.03313 -0.14833
v 0.02052 0.01856 -0.14833
v -0.04058 0.01697 -0.13326
v -0.01569 0.03313 -0.14833
v -0.00457 0.01850 -0.11980
v -0.04600 0.01893 -0.16668
v -0.01569 0.03313 -0.14833
v -0.04058 0.01697 -0.13326
v -0.00562 0.01751 -0.17417
v -0.01569 0.03313 -0.14833
v -0.04600 0.01893 -0.16668
v 0.02052 0.01856 -0.14833
v -0.01569 0.03313 -0.14833
v -0.00562 0.01751 -0.17417
v -0.11000 -0.00880 -0.13527
v -0.12147 -0.00282 -0.10586
v -0.08126 -0.00236 -0.11786
v -0.08126 -0.00236 -0.11786
v -0.08306 -0.00172 -0.15158
v -0.11000 -0.00880 -0.13527
v -0.11000 -0.00880 -0.13527
v -0.14735 -0.00289 -0.13527
v -0.12147 -0.00282 -0.10586
v -0.11000 -0.00880 -0.13527
v -0.11917 -0.00065 -0.15877
v -0.14735 -0.00289 -0.13527
v -0.11000 -0.00880 -0.13527
v -0.08306 -0.00172 -0.15158
v -0.11917 -0.00065 -0.15877
v -0.08126 -0.00236 -0.11786
v -0.08026 0.01667 -0.13527
v -0.08306 -0.00172 -0.15158
v -0.12147 -0.00282 -0.10586
v -0.09985 0.01758 -0.10924
v -0.08126 -0.00236 -0.11786
v -0.14735 -0.00289 -0.13527
v -0.13300 0.01629 -0.12134
v -0.12147 -0.00282 -0.10586
v -0.11917 -0.00065 -0.15877
v -0.13096 0.01555 -0.14795
v -0.14735 -0.00289 -0.13527
v -0.08306 -0.00172 -0.15158
v -0.10058 0.01689 -0.15943
v -0.11917 -0.00065 -0.15877
v -0.08126 -0.00236 -0.11786
v -0.09985 0.01758 -0.10924
v -0.08026 0.01667 -0.13527
v -0.12147 -0.00282 -0.10586
v -0.13300 0.01629 -0.12134
v -0.09985 0.01758 -0.10924
v -0.14735 -0.00289 -0.13527
v -0.13096 0.01555 -0.14795
v -0.13300 0.01629 -0.12134
v -0.11917 -0.00065 -0.15877
v -0.10058 0.01689 -0.15943
v -0.13096 0.01555 -0.14795
v -0.08306 -0.00172 -0.15158
v -0.08026 0.01667 -0.13527
v -0.10058 0.01689 -0.15943
v -0.09985 0.01758 -0.10924
v -0.11000 0.02486 -0.13527
v -0.08026 0.01667 -0.13527
v -0.13300 0.01629 -0.12134
v -0.11000 0.02486 -0.13527
v -0.09985 0.01758 -0.10924
v -0.13096 0.01555 -0.14795
v -0.11000 0.02486 -0.13527
v -0.13300 0.01629 -0.12134
v -0.10058 0.01689 -0.15943
v -0.11000 0.02486 -0.13527
v -0.13096 0.01555 -0.14795
v -0.08026 0.01667 -0.13527
v -0.11000 0.02486 -0.13527
v -0.10058 0.01689 -0.15943
v -0.17156 -0.00880 -0.07763
v -0.18178 -0.00165 -0.05141
v -0.14346 -0.00213 -0.06061
v -0.14346 -0.00213 -0.06061
v -0.14889 -0.00017 -0.09134
v -0.17156 -0.00880 -0.07763
v -0.17156 -0.00880 -0.07763
v -0.19912 -0.00004 -0.07763
v -0.18178 -0.00165 -0.05141
v -0.17156 -0.00880 -0.07763
v -0.18323 -0.00302 -0.10757
v -0.19912 -0.00004 -0.07763
v -0.17156 -0.00880 -0.07763
v -0.14889 -0.00017 -0.09134
v -0.18323 -0.00302 -0.10757
v -0.14346 -0.00213 -0.06061
v -0.14519 0.01569 -0.07763
v -0.14889 -0.00017 -0.09134
v -0.18178 -0.00165 -0.05141
v -0.16124 0.01774 -0.05117
v -0.14346 -0.00213 -0.06061
v -0.19912 -0.00004 -0.07763
v -0.20030 0.01836 -0.06022
v -0.18178 -0.00165 -0.05141
v -0.18323 -0.00302 -0.10757
v -0.19322 0.01581 -0.09074
v -0.19912 -0.00004 -0.07763
v -0.14889 -0.00017 -0.09134
v -0.16078 0.01817 -0.10527
v -0.18323 -0.00302 -0.10757
v -0.14346 -0.00213 -0.06061
v -0.16124 0.01774 -0.05117
v -0.14519 0.01569 -0.07763
v -0.18178 -0.00165 -0.05141
v -0.20030 0.01836 -0.06022
v -0.16124 0.01774 -0.05117
v -0.19912 -0.00004 -0.07763
v -0.19322 0.01581 -0.09074
v -0.20030 0.01836 -0.06022
v -0.18323 -0.00302 -0.10757
v -0.16078 0.01817 -0.10527
v -0.19322 0.01581 -0.09074
v -0.14889 -0.00017 -0.09134
v -0.14519 0.01569 -0.07763
v -0.16078 0.01817 -0.10527
v -0.16124 0.01774 -0.05117
v -0.17156 0.02803 -0.07763
v -0.14519 0.01569 -0.07763
v -0.20030 0.01836 -0.06022
v -0.17156 0.02803 -0.07763
v -0.16124 0.01774 -0.05117
v -0.19322 0.01581 -0.09074
v -0.17156 0.02803 -0.07763
v -0.20030 0.01836 -0.06022
v -0.16078 0.01817 -0.10527
v -0.17156 0.02803 -0.07763
v -0.19322 0.01581 -0.09074
v -0.14519 0.01569 -0.07763
v -0.17156 0.02803 -0.07763
v -0.16078 0.01817 -0.10527
v -0.17156 -0.00880 -0.00238
v -0.18054 -0.00047 0.02064
v -0.14411 -0.00190 0.01424
v -0.14411 -0.00190 0.01424
v -0.14276 -0.00238 -0.01982
v -0.17156 -0.00880 -0.00238
v -0.17156 -0.00880 -0.00238
v -0.20221 -0.00094 -0.00238
v -0.18054 -0.00047 0.02064
v -0.17156 -0.00880 -0.00238
v -0.18177 -0.00163 -0.02855
v -0.20221 -0.00094 -0.00238
v -0.17156 -0.00880 -0.00238
v -0.14276 -0.00238 -0.01982
v -0.18177 -0.00163 -0.02855
v -0.14411 -0.00190 0.01424
v -0.13567 0.01847 -0.00238
v -0.14276 -0.00238 -0.01982
v -0.18054 -0.00047 0.02064
v -0.16108 0.01789 0.02450
v -0.14411 -0.00190 0.01424
v -0.20221 -0.00094 -0.00238
v -0.19563 0.01668 0.01219
v -0.18054 -0.00047 0.02064
v -0.18177 -0.00163 -0.02855
v -0.19392 0.01606 -0.01592
v -0.20221 -0.00094 -0.00238
v -0.14276 -0.00238 -0.01982
v -0.16340 0.01570 -0.02329
v -0.18177 -0.00163 -0.02855
v -0.14411 -0.00190 0.01424
v -0.16108 0.01789 0.02450
v -0.13567 0.01847 -0.00238
v -0.18054 -0.00047 0.02064
v -0.19563 0.01668 0.01219
v -0.16108 0.01789 0.02450
v -0.20221 -0.00094 -0.00238
v -0.19392 0.01606 -0.01592
v -0.19563 0.01668 0.01219
v -0.18177 -0.00163 -0.02855
v -0.16340 0.01570 -0.02329
v -0.19392 0.01606 -0.01592
v -0.14276 -0.00238 -0.01982
v -0.13567 0.01847 -0.00238
v -0.16340 0.01570 -0.02329
v -0.16108 0.01789 0.02450
v -0.17156 0.03119 -0.00238
v -0.13567 0.01847 -0.00238
v -0.19563 0.01668 0.01219
v -0.17156 0.03119 -0.00238
v -0.16108 0.01789 0.02450
v -0.19392 0.01606 -0.01592
v -0.17156 0.03119 -0.00238
v -0.19563 0.01668 0.01219
v -0.16340 0.01570 -0.02329
v -0.17156 0.03119 -0.00238
v -0.19392 0.01606 -0.01592
v -0.13567 0.01847 -0.00238
v -0.17156 0.03119 -0.00238
v -0.16340 0.01570 -0.02329
v -0.11000 -0.00880 0.05526
v -0.12172 -0.00306 0.08530
v -0.08320 -0.00166 0.07149
v -0.08320 -0.00166 0.07149
v -0.08349 -0.00156 0.03921
v -0.11000 -0.00880 0.05526
v -0.11000 -0.00880 0.05526
v -0.14375 -0.00184 0.05526
v -0.12172 -0.00306 0.08530
v -0.11000 -0.00880 0.05526
v -0.11870 -0.00021 0.03295
v -0.14375 -0.00184 0.05526
v -0.11000 -0.00880 0.05526
v -0.08349 -0.00156 0.03921
v -0.11870 -0.00021 0.03295
v -0.08320 -0.00166 0.07149
v -0.07872 0.01712 0.05526
v -0.08349 -0.00156 0.03921
v -0.12172 -0.00306 0.08530
v -0.09887 0.01851 0.08381
v -0.08320 -0.00166 0.07149
v -0.14375 -0.00184 0.05526
v -0.13509 0.01704 0.07045
v -0.12172 -0.00306 0.08530
v -0.11870 -0.00021 0.03295
v -0.13914 0.01850 0.03762
v -0.14375 -0.00184 0.05526
v -0.08349 -0.00156 0.03921
v -0.09878 0.01859 0.02648
v -0.11870 -0.00021 0.03295
v -0.08320 -0.00166 0.07149
v -0.09887 0.01851 0.08381
v -0.07872 0.01712 0.05526
v -0.12172 -0.00306 0.08530
v -0.13509 0.01704 0.07045
v -0.09887 0.01851 0.08381
v -0.14375 -0.00184 0.05526
v -0.13914 0.01850 0.03762
v -0.13509 0.01704 0.07045
v -0.11870 -0.00021 0.03295
v -0.09878 0.01859 0.02648
v -0.13914 0.01850 0.03762
v -0.08349 -0.00156 0.03921
v -0.07872 0.01712 0.05526
v -0.09878 0.01859 0.02648
v -0.09887 0.01851 0.08381
v -0.11000 0.03306 0.05526
v -0.07872 0.01712 0.05526
v -0.13509 0.01704 0.07045
v -0.11000 0.03306 0.05526
v -0.09887 0.01851 0.08381
v -0.13914 0.01850 0.03762
v -0.11000 0.03306 0.05526
v -0.13509 0.01704 0.07045
v -0.09878 0.01859 0.02648
v -0.11000 0.03306 0.05526
v -0.13914 0.01850 0.03762
v -0.07872 0.01712 0.05526
v -0.11000 0.03306 0.05526
v -0.09878 0.01859 0.02648
v -0.01569 -0.00881 0.06833
v -0.02616 -0.00188 0.09518
v 0.01047 -0.00143 0.08416
v 0.01047 -0.00143 0.08416
v 0.00944 -0.00106 0.05311
v -0.01569 -0.00881 0.06833
v -0.01569 -0.00881 0.06833
v -0.05253 -0.00275 0.06833
v -0.02616 -0.00188 0.09518
v -0.01569 -0.00881 0.06833
v -0.02689 -0.00256 0.03962
v -0.05253 -0.00275 0.06833
v -0.01569 -0.00881 0.06833
v 0.00944 -0.00106 0.05311
v -0.02689 -0.00256 0.03962
v 0.01047 -0.00143 0.08416
v 0.02293 0.01926 0.06833
v 0.00944 -0.00106 0.05311
v -0.02616 -0.00188 0.09518
v -0.00671 0.01648 0.09136
v 0.01047 -0.00143 0.08416
v -0.05253 -0.00275 0.06833
v -0.04034 0.01689 0.08325
v -0.02616 -0.00188 0.09518
v -0.02689 -0.00256 0.03962
v -0.03833 0.01616 0.05462
v -0.05253 -0.00275 0.06833
v 0.00944 -0.00106 0.05311
v -0.00525 0.01786 0.04155
v -0.02689 -0.00256 0.03962
v 0.01047 -0.00143 0.08416
v -0.00671 0.01648 0.09136
v 0.02293 0.01926 0.06833
v -0.02616 -0.00188 0.09518
v -0.04034 0.01689 0.08325
v -0.00671 0.01648 0.09136
v -0.05253 -0.00275 0.06833
v -0.03833 0.01616 0.05462
v -0.04034 0.01689 0.08325
v -0.02689 -0.00256 0.03962
v -0.00525 0.01786 0.04155
v -0.03833 0.01616 0.05462
v 0.00944 -0.00106 0.05311
v 0.02293 0.01926 0.06833
v -0.00525 0.01786 0.04155
v -0.00671 0.01648 0.09136
v -0.01569 0.02566 0.06833
v 0.02293 0.01926 0.06833
v -0.04034 0.01689 0.08325
v -0.01569 0.02566 0.06833
v -0.00671 0.01648 0.09136
v -0.03833 0.01616 0.05462
v -0.01569 0.02566 0.06833
v -0.04034 0.01689 0.08325
v -0.00525 0.01786 0.04155
v -0.01569 0.02566 0.06833
v -0.03833 0.01616 0.05462
v 0.02293 0.01926 0.06833
v -0.01569 0.02566 0.06833
v -0.00525 0.01786 0.04155
v 0.06724 -0.00881 0.03071
v 0.05802 -0.00071 0.05436
v 0.09275 -0.00120 0.04615
v 0.09275 -0.00120 0.04615
v 0.09430 -0.00175 0.01432
v 0.06724 -0.00881 0.03071
v 0.06724 -0.00881 0.03071
v 0.04019 0.00011 0.03071
v 0.05802 -0.00071 0.05436
v 0.06724 -0.00881 0.03071
v 0.05754 -0.00116 0.00581
v 0.04019 0.00011 0.03071
v 0.06724 -0.00881 0.03071
v 0.09430 -0.00175 0.01432
v 0.05754 -0.00116 0.00581
v 0.09275 -0.00120 0.04615
v 0.09729 0.01676 0.03071
v 0.09430 -0.00175 0.01432
v 0.05802 -0.00071 0.05436
v 0.07663 0.01686 0.05478
v 0.09275 -0.00120 0.04615
v 0.04019 0.00011 0.03071
v 0.04442 0.01623 0.04452
v 0.05802 -0.00071 0.05436
v 0.05754 -0.00116 0.00581
v 0.04607 0.01563 0.01789
v 0.04019 0.00011 0.03071
v 0.09430 -0.00175 0.01432
v 0.07917 0.01926 0.00011
v 0.05754 -0.00116 0.00581
v 0.09275 -0.00120 0.04615
v 0.07663 0.01686 0.05478
v 0.09729 0.01676 0.03071
v 0.05802 -0.00071 0.05436
v 0.04442 0.01623 0.04452
v 0.07663 0.01686 0.05478
v 0.04019 0.00011 0.03071
v 0.04607 0.01563 0.01789
v 0.04442 0.01623 0.04452
v 0.05754 -0.00116 0.00581
v 0.07917 0.01926 0.00011
v 0.04607 0.01563 0.01789
v 0.09430 -0.00175 0.01432
v 0.09729 0.01676 0.03071
v 0.07917 0.01926 0.00011
v 0.07663 0.01686 0.05478
v 0.06724 0.03126 0.03071
v 0.09729 0.01676 0.03071
v 0.04442 0.01623 0.04452
v 0.06724 0.03126 0.03071
v 0.07663 0.01686 0.05478
v 0.04607 0.01563 0.01789
v 0.06724 0.03126 0.03071
v 0.04442 0.01623 0.04452
v 0.07917 0.01926 0.00011
v 0.06724 0.03126 0.03071
v 0.04607 0.01563 0.01789
v 0.09729 0.01676 0.03071
v 0.06724 0.03126 0.03071
v 0.07917 0.01926 0.00011
vn -0.0578 -0.6225 0.7804
vn -0.0578 -0.6225 0.7804
vn -0.0578 -0.6225 0.7804
vn 0.1029 -0.7132 0.6934
vn 0.1029 -0.7132 0.6934
vn 0.1029 -0.7132 0.6934
vn 0.1013 0.6703 -0.7351
vn 0.1013 0.6703 -0.7351
vn 0.1013 0.6703 -0.7351
vn 0.0143 0.7807 -0.6247
vn 0.0143 0.7807 -0.6247
vn 0.0143 0.7807 -0.6247
vn -0.1489 0.7987 -0.5831
vn -0.1489 0.7987 -0.5831
vn -0.1489 0.7987 -0.5831
vn -0.7259 0.0826 -0.6828
vn -0.7259 0.0826 -0.6828
vn -0.7259 0.0826 -0.6828
vn 0.0940 -0.1231 0.9879
vn 0.0940 -0.1231 0.9879
vn 0.0940 -0.1231 0.9879
vn -0.1473 0.8669 -0.4763
vn -0.1473 0.8669 -0.4763
vn -0.1473 0.8669 -0.4763
vn -0.1220 0.9829 -0.1379
vn -0.1220 0.9829 -0.1379
vn -0.1220 0.9829 -0.1379
vn -0.7561 0.6408 -0.1328
vn -0.7561 0.6408 -0.1328
vn -0.7561 0.6408 -0.1328
vn 0.4007 0.2309 0.8866
vn 0.4007 0.2309 0.8866
vn 0.4007 0.2309 0.8866
vn 0.1042 0.2571 0.9607
vn 0.1042 0.2571 0.9607
vn 0.1042 0.2571 0.9607
vn -0.0195 0.9958 0.0899
vn -0.0195 0.9958 0.0899
vn -0.0195 0.9958 0.0899
vn -0.5769 0.7914 0.2021
vn -0.5769 0.7914 0.2021
vn -0.5769 0.7914 0.2021
vn 0.9270 -0.0609 0.3700
vn 0.9270 -0.0609 0.3700
vn 0.9270 -0.0609 0.3700
vn 0.2672 0.4970 0.8256
vn 0.2672 0.4970 0.8256
vn 0.2672 0.4970 0.8256
vn 0.1471 0.4813 0.8641
vn 0.1471 0.4813 0.8641
vn 0.1471 0.4813 0.8641
vn -0.1418 0.7548 0.6404
vn -0.1418 0.7548 0.6404
vn -0.1418 0.7548 0.6404
vn 0.3418 -0.8231 -0.4534
vn 0.3418 -0.8231 -0.4534
vn 0.3418 -0.8231 -0.4534
vn -0.0766 -0.8425 -0.5332
vn -0.0766 -0.8425 -0.5332
vn -0.0766 -0.8425 -0.5332
vn -0.0836 -0.5973 0.7976
vn -0.0836 -0.5973 0.7976
vn -0.0836 -0.5973 0.7976
vn 0.1078 -0.7122 0.6937
vn 0.1078 -0.7122 0.6937
vn 0.1078 -0.7122 0.6937
vn 0.1203 0.6280 -0.7688
vn 0.1203 0.6280 -0.7688
vn 0.1203 0.6280 -0.7688
vn -0.0528 0.8215 -0.5678
vn -0.0528 0.8215 -0.5678
vn -0.0528 0.8215 -0.5678
vn -0.1747 0.8230 -0.5405
vn -0.1747 0.8230 -0.5405
vn -0.1747 0.8230 -0.5405
vn 0.6706 -0.2887 0.6833
vn 0.6706 -0.2887 0.6833
vn 0.6706 -0.2887 0.6833
vn 0.0838 -0.0836 0.9930
vn 0.0838 -0.0836 0.9930
vn 0.0838 -0.0836 0.9930
vn -0.4727 0.8808 0.0265
vn -0.4727 0.8808 0.0265
vn -0.4727 0.8808 0.0265
vn -0.2232 0.9644 -0.1416
vn -0.2232 0.9644 -0.1416
vn -0.2232 0.9644 -0.1416
vn -0.7221 0.6830 -0.1103
vn -0.7221 0.6830 -0.1103
vn -0.7221 0.6830 -0.1103
vn 0.3442 0.1425 0.9280
vn 0.3442 0.1425 0.9280
vn 0.3442 0.1425 0.9280
vn 0.0966 0.2294 0.9685
vn 0.0966 0.2294 0.9685
vn 0.0966 0.2294 0.9685
vn -0.0164 0.9697 0.2436
vn -0.0164 0.9697 0.2436
vn -0.0164 0.9697 0.2436
vn -0.6239 0.7739 0.1087
vn -0.6239 0.7739 0.1087
vn -0.6239 0.7739 0.1087
vn 0.8925 -0.3990 0.2102
vn 0.8925 -0.3990 0.2102
vn 0.8925 -0.3990 0.2102
vn 0.2384 0.4484 0.8614
vn 0.2384 0.4484 0.8614
vn 0.2384 0.4484 0.8614
vn 0.1638 0.4474 0.8792
vn 0.1638 0.4474 0.8792
vn 0.1638 0.4474 0.8792
vn -0.1112 0.7421 0.6610
vn -0.1112 0.7421 0.6610
vn -0.1112 0.7421 0.6610
vn 0.3572 -0.8292 -0.4299
vn 0.3572 -0.8292 -0.4299
vn 0.3572 -0.8292 -0.4299
vn 0.1112 -0.8769 -0.4677
vn 0.1112 -0.8769 -0.4677
vn 0.1112 -0.8769 -0.4677
vn -0.1148 -0.5642 0.8176
vn -0.1148 -0.5642 0.8176
vn -0.1148 -0.5642 0.8176
vn 0.1121 -0.7107 0.6945
vn 0.1121 -0.7107 0.6945
vn 0.1121 -0.7107 0.6945
vn -0.1428 -0.5803 0.8018
vn -0.1428 -0.5803 0.8018
vn -0.1428 -0.5803 0.8018
vn -0.0016 0.7694 -0.6388
vn -0.0016 0.7694 -0.6388
vn -0.0016 0.7694 -0.6388
vn -0.1489 0.7841 -0.6026
vn -0.1489 0.7841 -0.6026
vn -0.1489 0.7841 -0.6026
vn -0.6817 0.2558 -0.6855
vn -0.6817 0.2558 -0.6855
vn -0.6817 0.2558 -0.6855
vn -0.1140 -0.2321 0.9660
vn -0.1140 -0.2321 0.9660
vn -0.1140 -0.2321 0.9660
vn -0.5230 0.5785 0.6259
vn -0.5230 0.5785 0.6259
vn -0.5230 0.5785 0.6259
vn -0.1418 0.9735 -0.1793
vn -0.1418 0.9735 -0.1793
vn -0.1418 0.9735 -0.1793
vn -0.7761 0.6068 -0.1717
vn -0.7761 0.6068 -0.1717
vn -0.7761 0.6068 -0.1717
vn 0.4248 0.0950 0.9003
vn 0.4248 0.0950 0.9003
vn 0.4248 0.0950 0.9003
vn -0.1247 0.2872 0.9497
vn -0.1247 0.2872 0.9497
vn -0.1247 0.2872 0.9497
vn 0.0140 0.9365 0.3505
vn 0.0140 0.9365 0.3505
vn 0.0140 0.9365 0.3505
vn 0.6235 -0.7671 -0.1512
vn 0.6235 -0.7671 -0.1512
vn 0.6235 -0.7671 -0.1512
vn 0.9183 -0.2204 0.3290
vn 0.9183 -0.2204 0.3290
vn 0.9183 -0.2204 0.3290
vn 0.2338 0.5373 0.8103
vn 0.2338 0.5373 0.8103
vn 0.2338 0.5373 0.8103
vn 0.1138 0.5267 0.8424
vn 0.1138 0.5267 0.8424
vn 0.1138 0.5267 0.8424
vn -0.0364 0.6986 0.7146
vn -0.0364 0.6986 0.7146
vn -0.0364 0.6986 0.7146
vn 0.2959 -0.8321 -0.4692
vn 0.2959 -0.8321 -0.4692
vn 0.2959 -0.8321 -0.4692
vn -0.0117 -0.8488 -0.5285
vn -0.0117 -0.8488 -0.5285
vn -0.0117 -0.8488 -0.5285
vn -0.0448 -0.6241 0.7801
vn -0.0448 -0.6241 0.7801
vn -0.0448 -0.6241 0.7801
vn 0.1175 -0.7094 0.6950
vn 0.1175 -0.7094 0.6950
vn 0.1175 -0.7094 0.6950
vn 0.0902 0.6501 -0.7545
vn 0.0902 0.6501 -0.7545
vn 0.0902 0.6501 -0.7545
vn -0.0572 0.8027 -0.5937
vn -0.0572 0.8027 -0.5937
vn -0.0572 0.8027 -0.5937
vn -0.1702 0.8048 -0.5686
vn -0.1702 0.8048 -0.5686
vn -0.1702 0.8048 -0.5686
vn -0.7226 0.0732 -0.6874
vn -0.7226 0.0732 -0.6874
vn -0.7226 0.0732 -0.6874
vn 0.0889 -0.1793 0.9798
vn 0.0889 -0.1793 0.9798
vn 0.0889 -0.1793 0.9798
vn -0.1602 0.8214 0.5473
vn -0.1602 0.8214 0.5473
vn -0.1602 0.8214 0.5473
vn -0.3683 0.9164 0.1570
vn -0.3683 0.9164 0.1570
vn -0.3683 0.9164 0.1570
vn -0.7490 0.6461 -0.1464
vn -0.7490 0.6461 -0.1464
vn -0.7490 0.6461 -0.1464
vn 0.4368 0.2156 0.8733
vn 0.4368 0.2156 0.8733
vn 0.4368 0.2156 0.8733
vn 0.1091 0.4143 0.9036
vn 0.1091 0.4143 0.9036
vn 0.1091 0.4143 0.9036
vn -0.0839 0.8320 0.5485
vn -0.0839 0.8320 0.5485
vn -0.0839 0.8320 0.5485
vn -0.5375 0.8076 0.2427
vn -0.5375 0.8076 0.2427
vn -0.5375 0.8076 0.2427
vn 0.9132 0.0151 0.4071
vn 0.9132 0.0151 0.4071
vn 0.9132 0.0151 0.4071
vn -0.1595 -0.6266 -0.7629
vn -0.1595 -0.6266 -0.7629
vn -0.1595 -0.6266 -0.7629
vn 0.0650 0.5934 0.8023
vn 0.0650 0.5934 0.8023
vn 0.0650 0.5934 0.8023
vn -0.1066 0.7285 0.6767
vn -0.1066 0.7285 0.6767
vn -0.1066 0.7285 0.6767
vn 0.2178 -0.7993 -0.5600
vn 0.2178 -0.7993 -0.5600
vn 0.2178 -0.7993 -0.5600
vn -0.0449 -0.7832 -0.6201
vn -0.0449 -0.7832 -0.6201
vn -0.0449 -0.7832 -0.6201
vn -0.0697 -0.6005 0.7966
vn -0.0697 -0.6005 0.7966
vn -0.0697 -0.6005 0.7966
vn 0.1878 -0.7221 0.6658
vn 0.1878 -0.7221 0.6658
vn 0.1878 -0.7221 0.6658
vn 0.1167 0.6483 -0.7524
vn 0.1167 0.6483 -0.7524
vn 0.1167 0.6483 -0.7524
vn 0.0553 0.7372 -0.6734
vn 0.0553 0.7372 -0.6734
vn 0.0553 0.7372 -0.6734
vn -0.2113 0.7659 -0.6072
vn -0.2113 0.7659 -0.6072
vn -0.2113 0.7659 -0.6072
vn 0.7648 -0.0649 0.6410
vn 0.7648 -0.0649 0.6410
vn 0.7648 -0.0649 0.6410
vn 0.0156 -0.2118 0.9772
vn 0.0156 -0.2118 0.9772
vn 0.0156 -0.2118 0.9772
vn -0.1733 0.8389 -0.5160
vn -0.1733 0.8389 -0.5160
vn -0.1733 0.8389 -0.5160
vn -0.1075 0.9938 0.0282
vn -0.1075 0.9938 0.0282
vn -0.1075 0.9938 0.0282
vn -0.7825 0.5518 -0.2884
vn -0.7825 0.5518 -0.2884
vn -0.7825 0.5518 -0.2884
vn 0.4644 0.2665 0.8446
vn 0.4644 0.2665 0.8446
vn 0.4644 0.2665 0.8446
vn 0.0231 0.2389 0.9708
vn 0.0231 0.2389 0.9708
vn 0.0231 0.2389 0.9708
vn -0.0503 0.9845 0.1678
vn -0.0503 0.9845 0.1678
vn -0.0503 0.9845 0.1678
vn -0.4743 0.8166 0.3289
vn -0.4743 0.8166 0.3289
vn -0.4743 0.8166 0.3289
vn 0.8607 0.0265 0.5085
vn 0.8607 0.0265 0.5085
vn 0.8607 0.0265 0.5085
vn -0.2461 -0.5898 -0.7692
vn -0.2461 -0.5898 -0.7692
vn -0.2461 -0.5898 -0.7692
vn 0.1013 0.5578 0.8238
vn 0.1013 0.5578 0.8238
vn 0.1013 0.5578 0.8238
vn -0.1575 0.7559 0.6355
vn -0.1575 0.7559 0.6355
vn -0.1575 0.7559 0.6355
vn 0.2514 -0.8011 -0.5432
vn 0.2514 -0.8011 -0.5432
vn 0.2514 -0.8011 -0.5432
vn -0.1828 -0.7442 -0.6424
vn -0.1828 -0.7442 -0.6424
vn -0.1828 -0.7442 -0.6424
vn -0.0997 -0.5697 0.8158
vn -0.0997 -0.5697 0.8158
vn -0.0997 -0.5697 0.8158
vn 0.0924 -0.6946 0.7134
vn 0.0924 -0.6946 0.7134
vn 0.0924 -0.6946 0.7134
vn 0.1403 0.5979 -0.7892
vn 0.1403 0.5979 -0.7892
vn 0.1403 0.5979 -0.7892
vn 0.0106 0.7725 -0.6349
vn 0.0106 0.7725 -0.6349
vn 0.0106 0.7725 -0.6349
vn -0.1381 0.7903 -0.5969
vn -0.1381 0.7903 -0.5969
vn -0.1381 0.7903 -0.5969
vn 0.6421 -0.2585 0.7217
vn 0.6421 -0.2585 0.7217
vn 0.6421 -0.2585 0.7217
vn -0.0639 -0.2360 0.9697
vn -0.0639 -0.2360 0.9697
vn -0.0639 -0.2360 0.9697
vn -0.5017 0.7843 0.3650
vn -0.5017 0.7843 0.3650
vn -0.5017 0.7843 0.3650
vn -0.1926 0.9808 0.0310
vn -0.1926 0.9808 0.0310
vn -0.1926 0.9808 0.0310
vn 0.7784 -0.6242 0.0666
vn 0.7784 -0.6242 0.0666
vn 0.7784 -0.6242 0.0666
vn 0.4120 0.0561 0.9095
vn 0.4120 0.0561 0.9095
vn 0.4120 0.0561 0.9095
vn -0.0532 0.3134 0.9481
vn -0.0532 0.3134 0.9481
vn -0.0532 0.3134 0.9481
vn -0.0324 0.9274 0.3728
vn -0.0324 0.9274 0.3728
vn -0.0324 0.9274 0.3728
vn 0.5454 -0.7961 -0.2623
vn 0.5454 -0.7961 -0.2623
vn 0.5454 -0.7961 -0.2623
vn 0.8424 -0.5267 0.1139
vn 0.8424 -0.5267 0.1139
vn 0.8424 -0.5267 0.1139
vn 0.2170 0.5422 0.8117
vn 0.2170 0.5422 0.8117
vn 0.2170 0.5422 0.8117
vn 0.1118 0.5291 0.8411
vn 0.1118 0.5291 0.8411
vn 0.1118 0.5291 0.8411
vn -0.1096 0.7479 0.6547
vn -0.1096 0.7479 0.6547
vn -0.1096 0.7479 0.6547
vn 0.3705 -0.8268 -0.4233
vn 0.3705 -0.8268 -0.4233
vn 0.3705 -0.8268 -0.4233
vn 0.1322 -0.8797 -0.4568
vn 0.1322 -0.8797 -0.4568
vn 0.1322 -0.8797 -0.4568
vn -0.0301 -0.6250 0.7800
vn -0.0301 -0.6250 0.7800
vn -0.0301 -0.6250 0.7800
vn 0.1199 -0.7004 0.7036
vn 0.1199 -0.7004 0.7036
vn 0.1199 -0.7004 0.7036
vn 0.0908 0.6625 -0.7435
vn 0.0908 0.6625 -0.7435
vn 0.0908 0.6625 -0.7435
vn -0.0507 0.8103 -0.5838
vn -0.0507 0.8103 -0.5838
vn -0.0507 0.8103 -0.5838
vn -0.1818 0.8119 -0.5547
vn -0.1818 0.8119 -0.5547
vn -0.1818 0.8119 -0.5547
vn 0.6894 -0.1717 0.7037
vn 0.6894 -0.1717 0.7037
vn 0.6894 -0.1717 0.7037
vn 0.0675 -0.2629 0.9625
vn 0.0675 -0.2629 0.9625
vn 0.0675 -0.2629 0.9625
vn -0.2565 0.9284 0.2687
vn -0.2565 0.9284 0.2687
vn -0.2565 0.9284 0.2687
vn -0.2076 0.9594 -0.1908
vn -0.2076 0.9594 -0.1908
vn -0.2076 0.9594 -0.1908
vn -0.6715 0.7078 -0.2195
vn -0.6715 0.7078 -0.2195
vn -0.6715 0.7078 -0.2195
vn 0.4677 0.1074 0.8773
vn 0.4677 0.1074 0.8773
vn 0.4677 0.1074 0.8773
vn 0.0838 0.4009 0.9123
vn 0.0838 0.4009 0.9123
vn 0.0838 0.4009 0.9123
vn 0.0107 0.9404 0.3398
vn 0.0107 0.9404 0.3398
vn 0.0107 0.9404 0.3398
vn -0.5962 0.8006 0.0604
vn -0.5962 0.8006 0.0604
vn -0.5962 0.8006 0.0604
vn 0.8883 -0.0005 0.4593
vn 0.8883 -0.0005 0.4593
vn 0.8883 -0.0005 0.4593
vn -0.2696 -0.5419 -0.7960
vn -0.2696 -0.5419 -0.7960
vn -0.2696 -0.5419 -0.7960
vn 0.1136 0.5268 0.8424
vn 0.1136 0.5268 0.8424
vn 0.1136 0.5268 0.8424
vn -0.0483 0.7072 0.7054
vn -0.0483 0.7072 0.7054
vn -0.0483 0.7072 0.7054
vn 0.2761 -0.8201 -0.5012
vn 0.2761 -0.8201 -0.5012
vn 0.2761 -0.8201 -0.5012
vn -0.1686 -0.7862 -0.5945
vn -0.1686 -0.7862 -0.5945
vn -0.1686 -0.7862 -0.5945
vn -0.0538 -0.6030 0.7959
vn -0.0538 -0.6030 0.7959
vn -0.0538 -0.6030 0.7959
vn 0.1392 -0.7022 0.6982
vn 0.1392 -0.7022 0.6982
vn 0.1392 -0.7022 0.6982
vn -0.1063 -0.6284 0.7706
vn -0.1063 -0.6284 0.7706
vn -0.1063 -0.6284 0.7706
vn -0.0044 0.7627 -0.6467
vn -0.0044 0.7627 -0.6467
vn -0.0044 0.7627 -0.6467
vn -0.1744 0.7756 -0.6067
vn -0.1744 0.7756 -0.6067
vn -0.1744 0.7756 -0.6067
vn 0.5970 -0.4010 0.6948
vn 0.5970 -0.4010 0.6948
vn 0.5970 -0.4010 0.6948
vn 0.1046 -0.1611 0.9814
vn 0.1046 -0.1611 0.9814
vn 0.1046 -0.1611 0.9814
vn -0.3273 0.7792 0.5346
vn -0.3273 0.7792 0.5346
vn -0.3273 0.7792 0.5346
vn -0.2821 0.9442 0.1699
vn -0.2821 0.9442 0.1699
vn -0.2821 0.9442 0.1699
vn -0.7843 0.5770 -0.2279
vn -0.7843 0.5770 -0.2279
vn -0.7843 0.5770 -0.2279
vn 0.3503 0.0236 0.9363
vn 0.3503 0.0236 0.9363
vn 0.3503 0.0236 0.9363
vn 0.1128 0.3147 0.9425
vn 0.1128 0.3147 0.9425
vn 0.1128 0.3147 0.9425
vn -0.0668 0.8606 0.5049
vn -0.0668 0.8606 0.5049
vn -0.0668 0.8606 0.5049
vn -0.5051 0.8110 0.2952
vn -0.5051 0.8110 0.2952
vn -0.5051 0.8110 0.2952
vn 0.8977 -0.2780 0.3419
vn 0.8977 -0.2780 0.3419
vn 0.8977 -0.2780 0.3419
vn 0.1488 0.5684 0.8092
vn 0.1488 0.5684 0.8092
vn 0.1488 0.5684 0.8092
vn 0.1023 0.5542 0.8261
vn 0.1023 0.5542 0.8261
vn 0.1023 0.5542 0.8261
vn -0.1025 0.7261 0.6799
vn -0.1025 0.7261 0.6799
vn -0.1025 0.7261 0.6799
vn 0.2019 -0.7936 -0.5740
vn 0.2019 -0.7936 -0.5740
vn 0.2019 -0.7936 -0.5740
vn 0.0173 -0.7856 -0.6184
vn 0.0173 -0.7856 -0.6184
vn 0.0173 -0.7856 -0.6184
vn -0.0825 -0.5746 0.8143
vn -0.0825 -0.5746 0.8143
vn -0.0825 -0.5746 0.8143
vn 0.1104 -0.6900 0.7153
vn 0.1104 -0.6900 0.7153
vn 0.1104 -0.6900 0.7153
vn 0.1349 0.6204 -0.7726
vn 0.1349 0.6204 -0.7726
vn 0.1349 0.6204 -0.7726
vn 0.0230 0.7769 -0.6292
vn 0.0230 0.7769 -0.6292
vn 0.0230 0.7769 -0.6292
vn -0.1626 0.7967 -0.5821
vn -0.1626 0.7967 -0.5821
vn -0.1626 0.7967 -0.5821
vn 0.6731 -0.1465 0.7249
vn 0.6731 -0.1465 0.7249
vn 0.6731 -0.1465 0.7249
vn 0.0110 -0.2136 0.9769
vn 0.0110 -0.2136 0.9769
vn 0.0110 -0.2136 0.9769
vn -0.3702 0.9279 0.0441
vn -0.3702 0.9279 0.0441
vn -0.3702 0.9279 0.0441
vn -0.1456 0.9891 -0.0215
vn -0.1456 0.9891 -0.0215
vn -0.1456 0.9891 -0.0215
vn -0.6916 0.6827 -0.2359
vn -0.6916 0.6827 -0.2359
vn -0.6916 0.6827 -0.2359
vn 0.4265 0.1294 0.8952
vn 0.4265 0.1294 0.8952
vn 0.4265 0.1294 0.8952
vn 0.0377 0.3302 0.9431
vn 0.0377 0.3302 0.9431
vn 0.0377 0.3302 0.9431
vn -0.0211 0.9559 0.2929
vn -0.0211 0.9559 0.2929
vn -0.0211 0.9559 0.2929
vn -0.4854 0.8374 0.2513
vn -0.4854 0.8374 0.2513
vn -0.4854 0.8374 0.2513
vn 0.8599 0.0816 0.5039
vn 0.8599 0.0816 0.5039
vn 0.8599 0.0816 0.5039
vn 0.2647 0.5070 0.8203
vn 0.2647 0.5070 0.8203
vn 0.2647 0.5070 0.8203
vn 0.1302 0.5002 0.8561
vn 0.1302 0.5002 0.8561
vn 0.1302 0.5002 0.8561
vn -0.1087 0.7555 0.6461
vn -0.1087 0.7555 0.6461
vn -0.1087 0.7555 0.6461
vn -0.2865 0.8033 0.5221
vn -0.2865 0.8033 0.5221
vn -0.2865 0.8033 0.5221
vn -0.1837 -0.7532 -0.6316
vn -0.1837 -0.7532 -0.6316
vn -0.1837 -0.7532 -0.6316
f 73//73 75//75 74//74
f 76//76 78//78 77//77
f 79//79 81//81 80//80
f 82//82 84//84 83//83
f 85//85 87//87 86//86
f 88//88 90//90 89//89
f 91//91 93//93 92//92
f 94//94 96//96 95//95
f 97//97 99//99 98//98
f 100//100 102//102 101//101
f 103//103 105//105 104//104
f 106//106 108//108 107//107
f 109//109 111//111 110//110
f 112//112 114//114 113//113
f 115//115 117//117 116//116
f 118//118 120//120 119//119
f 121//121 123//123 122//122
f 124//124 126//126 125//125
f 127//127 129//129 128//128
f 130//130 132//132 131//131
f 133//133 135//135 134//134
f 136//136 138//138 137//137
f 139//139 141//141 140//140
f 142//142 144//144 143//143
f 145//145 147//147 146//146
f 148//148 150//150 149//149
f 151//151 153//153 152//152
f 154//154 156//156 155//155
f 157//157 159//159 158//158
f 160//160 162//162 161//161
f 163//163 165//165 164//164
f 166//166 168//168 167//167
f 169//169 171//171 170//170
f 172//172 174//174 173//173
f 175//175 177//177 176//176
f 178//178 180//180 179//179
f 181//181 183//183 182//182
f 184//184 186//186 185//185
f 187//187 189//189 188//188
f 190//190 192//192 191//191
f 193//193 195//195 194//194
f 196//196 198//198 197//197
f 199//199 201//201 200//200
f 202//202 204//204 203//203
f 205//205 207//207 206//206
f 208//208 210//210 209//209
f 211//211 213//213 212//212
f 214//214 216//216 215//215
f 217//217 219//219 218//218
f 220//220 222//222 221//221
f 223//223 225//225 224//224
f 226//226 228//228 227//227
f 229//229 231//231 230//230
f 232//232 234//234 233//233
f 235//235 237//237 236//236
f 238//238 240//240 239//239
f 241//241 243//243 242//242
f 244//244 246//246 245//245
f 247//247 249//249 248//248
f 250//250 252//252 251//251
f 253//253 255//255 254//254
f 256//256 258//258 257//257
f 259//259 261//261 260//260
f 262//262 264//264 263//263
f 265//265 267//267 266//266
f 268//268 270//270 269//269
f 271//271 273//273 272//272
f 274//274 276//276 275//275
f 277//277 279//279 278//278
f 280//280 282//282 281//281
f 283//283 285//285 284//284
f 286//286 288//288 287//287
f 289//289 291//291 290//290
f 292//292 294//294 293//293
f 295//295 297//297 296//296
f 298//298 300//300 299//299
f 301//301 303//303 302//302
f 304//304 306//306 305//305
f 307//307 309//309 308//308
f 310//310 312//312 311//311
f 313//313 315//315 314//314
f 316//316 318//318 317//317
f 319//319 321//321 320//320
f 322//322 324//324 323//323
f 325//325 327//327 326//326
f 328//328 330//330 329//329
f 331//331 333//333 332//332
f 334//334 336//336 335//335
f 337//337 339//339 338//338
f 340//340 342//342 341//341
f 343//343 345//345 344//344
f 346//346 348//348 347//347
f 349//349 351//351 350//350
f 352//352 354//354 353//353
f 355//355 357//357 356//356
f 358//358 360//360 359//359
f 361//361 363//363 362//362
f 364//364 366//366 365//365
f 367//367 369//369 368//368
f 370//370 372//372 371//371
f 373//373 375//375 374//374
f 376//376 378//378 377//377
f 379//379 381//381 380//380
f 382//382 384//384 383//383
f 385//385 387//387 386//386
f 388//388 390//390 389//389
f 391//391 393//393 392//392
f 394//394 396//396 395//395
f 397//397 399//399 398//398
f 400//400 402//402 401//401
f 403//403 405//405 404//404
f 406//406 408//408 407//407
f 409//409 411//411 410//410
f 412//412 414//414 413//413
f 415//415 417//417 416//416
f 418//418 420//420 419//419
f 421//421 423//423 422//422
f 424//424 426//426 425//425
f 427//427 429//429 428//428
f 430//430 432//432 431//431
f 433//433 435//435 434//434
f 436//436 438//438 437//437
f 439//439 441//441 440//440
f 442//442 444//444 443//443
f 445//445 447//447 446//446
f 448//448 450//450 449//449
f 451//451 453//453 452//452
f 454//454 456//456 455//455
f 457//457 459//459 458//458
f 460//460 462//462 461//461
f 463//463 465//465 464//464
f 466//466 468//468 467//467
f 469//469 471//471 470//470
f 472//472 474//474 473//473
f 475//475 477//477 476//476
f 478//478 480//480 479//479
f 481//481 483//483 482//482
f 484//484 486//486 485//485
f 487//487 489//489 488//488
f 490//490 492//492 491//491
f 493//493 495//495 494//494
f 496//496 498//498 497//497
f 499//499 501//501 500//500
f 502//502 504//504 503//503
f 505//505 507//507 506//506
f 508//508 510//510 509//509
f 511//511 513//513 512//512
f 514//514 516//516 515//515
f 517//517 519//519 518//518
f 520//520 522//522 521//521
f 523//523 525//525 524//524
f 526//526 528//528 527//527
f 529//529 531//531 530//530
f 532//532 534//534 533//533
f 535//535 537//537 536//536
f 538//538 540//540 539//539
f 541//541 543//543 542//542
f 544//544 546//546 545//545
f 547//547 549//549 548//548
f 550//550 552//552 551//551
f 553//553 555//555 554//554
f 556//556 558//558 557//557
f 559//559 561//561 560//560
f 562//562 564//564 563//563
f 565//565 567//567 566//566
f 568//568 570//570 569//569
f 571//571 573//573 572//572
f 574//574 576//576 575//575
f 577//577 579//579 578//578
f 580//580 582//582 581//581
f 583//583 585//585 584//584
f 586//586 588//588 587//587
f 589//589 591//591 590//590
f 592//592 594//594 593//593
f 595//595 597//597 596//596
f 598//598 600//600 599//599
f 601//601 603//603 602//602
f 604//604 606//606 605//605
f 607//607 609//609 608//608
f 610//610 612//612 611//611
g core_wood
usemtl wood
v -0.15200 0.00000 -0.02800
v -0.15200 0.20000 -0.05200
v -0.15200 0.20000 -0.02800
v -0.15200 0.00000 -0.05200
v -0.15200 0.00000 -0.05200
v -0.12800 0.20000 -0.05200
v -0.15200 0.20000 -0.05200
v -0.12800 0.00000 -0.05200
v -0.12800 0.00000 -0.05200
v -0.12800 0.20000 -0.02800
v -0.12800 0.20000 -0.05200
v -0.12800 0.00000 -0.02800
v -0.12800 0.00000 -0.02800
v -0.15200 0.20000 -0.02800
v -0.12800 0.20000 -0.02800
v -0.15200 0.00000 -0.02800
v -0.15200 0.00000 -0.05200
v -0.12800 0.00000 -0.02800
v -0.12800 0.00000 -0.05200
v -0.15200 0.00000 -0.02800
v -0.12800 0.20000 -0.05200
v -0.15200 0.20000 -0.02800
v -0.15200 0.20000 -0.05200
v -0.12800 0.20000 -0.02800
v 0.04800 0.00000 -0.02800
v 0.04800 0.20000 -0.05200
v 0.04800 0.20000 -0.02800
v 0.04800 0.00000 -0.05200
v 0.04800 0.00000 -0.05200
v 0.07200 0.20000 -0.05200
v 0.04800 0.20000 -0.05200
v 0.07200 0.00000 -0.05200
v 0.07200 0.00000 -0.05200
v 0.07200 0.20000 -0.02800
v 0.07200 0.20000 -0.05200
v 0.07200 0.00000 -0.02800
v 0.07200 0.00000 -0.02800
v 0.04800 0.20000 -0.02800
v 0.07200 0.20000 -0.02800
v 0.04800 0.00000 -0.02800
v 0.04800 0.00000 -0.05200
v 0.07200 0.00000 -0.02800
v 0.07200 0.00000 -0.05200
v 0.04800 0.00000 -0.02800
v 0.07200 0.20000 -0.05200
v 0.04800 0.20000 -0.02800
v 0.04800 0.20000 -0.05200
v 0.07200 0.20000 -0.02800
vn 0.0000 1.0000 -0.0000
vn 0.0000 1.0000 -0.0000
vn 0.0000 1.0000 -0.0000
vn 0.0000 1.0000 -0.0000
vn -0.7071 0.7071 -0.0000
vn -0.7071 0.7071 -0.0000
vn -0.7071 0.7071 -0.0000
vn -0.7071 0.7071 -0.0000
vn 0.7071 -0.0000 0.7071
vn 0.7071 -0.0000 0.7071
vn 0.7071 -0.0000 0.7071
vn 0.7071 -0.0000 0.7071
vn -0.0000 -0.0000 1.0000
vn -0.0000 -0.0000 1.0000
vn -0.0000 -0.0000 1.0000
vn -0.0000 -0.0000 1.0000
vn -0.0000 -0.7071 0.7071
vn -0.0000 -0.7071 0.7071
vn -0.0000 -0.7071 0.7071
vn -0.0000 -0.7071 0.7071
vn -0.0000 0.7071 0.7071
vn -0.0000 0.7071 0.7071
vn -0.0000 0.7071 0.7071
vn -0.0000 0.7071 0.7071
vn 0.0000 1.0000 -0.0000
vn 0.0000 1.0000 -0.0000
vn 0.0000 1.0000 -0.0000
vn 0.0000 1.0000 -0.0000
vn -0.7071 0.7071 -0.0000
vn -0.7071 0.7071 -0.0000
vn -0.7071 0.7071 -0.0000
vn -0.7071 0.7071 -0.0000
vn 0.7071 -0.0000 0.7071
vn 0.7071 -0.0000 0.7071
vn 0.7071 -0.0000 0.7071
vn 0.7071 -0.0000 0.7071
vn -0.0000 -0.0000 1.0000
vn -0.0000 -0.0000 1.0000
vn -0.0000 -0.0000 1.0000
vn -0.0000 -0.0000 1.0000
vn -0.0000 -0.7071 0.7071
vn -0.0000 -0.7071 0.7071
vn -0.0000 -0.7071 0.7071
vn -0.0000 -0.7071 0.7071
vn -0.0000 0.7071 0.7071
vn -0.0000 0.7071 0.7071
vn -0.0000 0.7071 0.7071
vn -0.0000 0.7071 0.7071
f 613//613 615//615 614//614
f 613//613 614//614 616//616
f 617//617 619//619 618//618
f 617//617 618//618 620//620
f 621//621 623//623 622//622
f 621//621 622//622 624//624
f 625//625 627//627 626//626
f 625//625 626//626 628//628
f 629//629 631//631 630//630
f 629//629 630//630 632//632
f 633//633 635//635 634//634
f 633//633 634//634 636//636
f 637//637 639//639 638//638
f 637//637 638//638 640//640
f 641//641 643//643 642//642
f 641//641 642//642 644//644
f 645//645 647//647 646//646
f 645//645 646//646 648//648
f 649//649 651//651 650//650
f 649//649 650//650 652//652
f 653//653 655//655 654//654
f 653//653 654//654 656//656
f 657//657 659//659 658//658
f 657//657 658//658 660//660
g core_wood_dark
usemtl wood_dark
v -0.15000 0.19000 -0.05800
v 0.07000 0.17727 -0.05273
v 0.07000 0.19000 -0.05800
v -0.15000 0.17727 -0.05273
v -0.15000 0.17727 -0.05273
v 0.07000 0.17200 -0.04000
v 0.07000 0.17727 -0.05273
v -0.15000 0.17200 -0.04000
v -0.15000 0.17200 -0.04000
v 0.07000 0.17727 -0.02727
v 0.07000 0.17200 -0.04000
v -0.15000 0.17727 -0.02727
v -0.15000 0.17727 -0.02727
v 0.07000 0.19000 -0.02200
v 0.07000 0.17727 -0.02727
v -0.15000 0.19000 -0.02200
v -0.15000 0.19000 -0.02200
v 0.07000 0.20273 -0.02727
v 0.07000 0.19000 -0.02200
v -0.15000 0.20273 -0.02727
v -0.15000 0.20273 -0.02727
v 0.07000 0.20800 -0.04000
v 0.07000 0.20273 -0.02727
v -0.15000 0.20800 -0.04000
v 0.07000 0.17200 -0.04000
v 0.07000 0.19000 -0.05800
v 0.07000 0.17727 -0.05273
v 0.07000 0.20800 -0.04000
v 0.07000 0.20273 -0.05273
v 0.07000 0.19000 -0.02200
v 0.07000 0.17727 -0.02727
v 0.07000 0.20273 -0.02727
v -0.15000 0.20800 -0.04000
v 0.07000 0.20273 -0.05273
v 0.07000 0.20800 -0.04000
v -0.15000 0.20273 -0.05273
v -0.15000 0.20273 -0.05273
v 0.07000 0.19000 -0.05800
v 0.07000 0.20273 -0.05273
v -0.15000 0.19000 -0.05800
v -0.15000 0.20273 -0.05273
v -0.15000 0.17727 -0.05273
v -0.15000 0.19000 -0.05800
v -0.15000 0.17727 -0.02727
v -0.15000 0.17200 -0.04000
v -0.15000 0.20273 -0.02727
v -0.15000 0.20800 -0.04000
v -0.15000 0.19000 -0.02200
vn -0.6421 0.7519 -0.1496
vn -0.6421 0.7519 -0.1496
vn -0.6421 0.7519 -0.1496
vn -0.6421 0.7519 -0.1496
vn -0.1752 0.8186 -0.5470
vn -0.1752 0.8186 -0.5470
vn -0.1752 0.8186 -0.5470
vn -0.1752 0.8186 -0.5470
vn -0.1180 -0.5517 0.8256
vn -0.1180 -0.5517 0.8256
vn -0.1180 -0.5517 0.8256
vn -0.1180 -0.5517 0.8256
vn -0.1643 -0.1925 0.9674
vn -0.1643 -0.1925 0.9674
vn -0.1643 -0.1925 0.9674
vn -0.1643 -0.1925 0.9674
vn 0.1643 0.1924 0.9675
vn 0.1643 0.1924 0.9675
vn 0.1643 0.1924 0.9675
vn 0.1643 0.1924 0.9675
vn 0.1180 0.5517 0.8257
vn 0.1180 0.5517 0.8257
vn 0.1180 0.5517 0.8257
vn 0.1180 0.5517 0.8257
vn 0.7071 -0.0000 0.7071
vn 0.7071 -0.0000 0.7071
vn 0.7071 -0.0000 0.7071
vn 0.7071 -0.0000 0.7071
vn 0.7071 -0.0000 0.7071
vn 0.7071 -0.0000 0.7071
vn 0.7071 -0.0000 0.7071
vn 0.7071 -0.0000 0.7071
vn 0.1751 -0.8186 -0.5469
vn 0.1751 -0.8186 -0.5469
vn 0.1751 -0.8186 -0.5469
vn 0.1751 -0.8186 -0.5469
vn 0.6421 -0.7519 -0.1496
vn 0.6421 -0.7519 -0.1496
vn 0.6421 -0.7519 -0.1496
vn 0.6421 -0.7519 -0.1496
vn 0.0000 1.0000 -0.0000
vn 0.0000 1.0000 -0.0000
vn 0.0000 1.0000 -0.0000
vn 0.0000 1.0000 -0.0000
vn 0.0000 1.0000 -0.0000
vn 0.0000 1.0000 -0.0000
vn 0.0000 1.0000 -0.0000
vn 0.0000 1.0000 -0.0000
f 661//661 663//663 662//662
f 661//661 662//662 664//664
f 665//665 667//667 666//666
f 665//665 666//666 668//668
f 669//669 671//671 670//670
f 669//669 670//670 672//672
f 673//673 675//675 674//674
f 673//673 674//674 676//676
f 677//677 679//679 678//678
f 677//677 678//678 680//680
f 681//681 683//683 682//682
f 681//681 682//682 684//684
f 685//685 687//687 686//686
f 685//685 686//686 688//688
f 686//686 689//689 688//688
f 688//688 690//690 685//685
f 690//690 691//691 685//685
f 688//688 692//692 690//690
f 693//693 695//695 694//694
f 693//693 694//694 696//696
f 697//697 699//699 698//698
f 697//697 698//698 700//700
f 701//701 703//703 702//702
f 701//701 702//702 704//704
f 702//702 705//705 704//704
f 704//704 706//706 701//701
f 706//706 707//707 701//701
f 704//704 708//708 706//706
g core_cloth_dark
usemtl cloth_dark
v -0.04400 0.08000 -0.03600
v -0.04400 0.19000 -0.04400
v -0.04400 0.19000 -0.03600
v -0.04400 0.08000 -0.04400
v -0.04400 0.08000 -0.04400
v -0.03600 0.19000 -0.04400
v -0.04400 0.19000 -0.04400
v -0.03600 0.08000 -0.04400
v -0.03600 0.08000 -0.04400
v -0.03600 0.19000 -0.03600
v -0.03600 0.19000 -0.04400
v -0.03600 0.08000 -0.03600
v -0.03600 0.08000 -0.03600
v -0.04400 0.19000 -0.03600
v -0.03600 0.19000 -0.03600
v -0.04400 0.08000 -0.03600
v -0.04400 0.08000 -0.04400
v -0.03600 0.08000 -0.03600
v -0.03600 0.08000 -0.04400
v -0.04400 0.08000 -0.03600
v -0.03600 0.19000 -0.04400
v -0.04400 0.19000 -0.03600
v -0.04400 0.19000 -0.04400
v -0.03600 0.19000 -0.03600
vn 0.0000 1.0000 -0.0000
vn 0.0000 1.0000 -0.0000
vn 0.0000 1.0000 -0.0000
vn 0.0000 1.0000 -0.0000
vn -0.7071 0.7071 -0.0000
vn -0.7071 0.7071 -0.0000
vn -0.7071 0.7071 -0.0000
vn -0.7071 0.7071 -0.0000
vn 0.7071 -0.0000 0.7071
vn 0.7071 -0.0000 0.7071
vn 0.7071 -0.0000 0.7071
vn 0.7071 -0.0000 0.7071
vn -0.0000 -0.0000 1.0000
vn -0.0000 -0.0000 1.0000
vn -0.0000 -0.0000 1.0000
vn -0.0000 -0.0000 1.0000
vn -0.0000 -0.7071 0.7071
vn -0.0000 -0.7071 0.7071
vn -0.0000 -0.7071 0.7071
vn -0.0000 -0.7071 0.7071
vn -0.0000 0.7071 0.7071
vn -0.0000 0.7071 0.7071
vn -0.0000 0.7071 0.7071
vn -0.0000 0.7071 0.7071
f 709//709 711//711 710//710
f 709//709 710//710 712//712
f 713//713 715//715 714//714
f 713//713 714//714 716//716
f 717//717 719//719 718//718
f 717//717 718//718 720//720
f 721//721 723//723 722//722
f 721//721 722//722 724//724
f 725//725 727//727 726//726
f 725//725 726//726 728//728
f 729//729 731//731 730//730
f 729//729 730//730 732//732
g core_plank
usemtl plank
v -0.04000 0.05000 -0.06600
v -0.02162 0.09000 -0.05839
v -0.04000 0.09000 -0.06600
v -0.02162 0.05000 -0.05839
v -0.02162 0.05000 -0.05839
v -0.01400 0.09000 -0.04000
v -0.02162 0.09000 -0.05839
v -0.01400 0.05000 -0.04000
v -0.01400 0.05000 -0.04000
v -0.02162 0.09000 -0.02162
v -0.01400 0.09000 -0.04000
v -0.02162 0.05000 -0.02162
v -0.02162 0.05000 -0.02162
v -0.04000 0.09000 -0.01400
v -0.02162 0.09000 -0.02162
v -0.04000 0.05000 -0.01400
v -0.04000 0.05000 -0.01400
v -0.05839 0.09000 -0.02162
v -0.04000 0.09000 -0.01400
v -0.05839 0.05000 -0.02162
v -0.05839 0.05000 -0.02162
v -0.06600 0.09000 -0.04000
v -0.05839 0.09000 -0.02162
v -0.06600 0.05000 -0.04000
v -0.01400 0.09000 -0.04000
v -0.04000 0.09000 -0.06600
v -0.02162 0.09000 -0.05839
v -0.06600 0.09000 -0.04000
v -0.05839 0.09000 -0.05839
v -0.04000 0.09000 -0.01400
v -0.02162 0.09000 -0.02162
v -0.05839 0.09000 -0.02162
v -0.06600 0.05000 -0.04000
v -0.05839 0.09000 -0.05839
v -0.06600 0.09000 -0.04000
v -0.05839 0.05000 -0.05839
v -0.05839 0.05000 -0.05839
v -0.04000 0.09000 -0.06600
v -0.05839 0.09000 -0.05839
v -0.04000 0.05000 -0.06600
v -0.05839 0.05000 -0.05839
v -0.02162 0.05000 -0.05839
v -0.04000 0.05000 -0.06600
v -0.02162 0.05000 -0.02162
v -0.01400 0.05000 -0.04000
v -0.05839 0.05000 -0.02162
v -0.06600 0.05000 -0.04000
v -0.04000 0.05000 -0.01400
vn 0.8279 -0.5362 0.1647
vn 0.8279 -0.5362 0.1647
vn 0.8279 -0.5362 0.1647
vn 0.8279 -0.5362 0.1647
vn 0.8297 -0.0654 0.5544
vn 0.8297 -0.0654 0.5544
vn 0.8297 -0.0654 0.5544
vn 0.8297 -0.0654 0.5544
vn 0.5550 -0.0437 0.8307
vn 0.5550 -0.0437 0.8307
vn 0.5550 -0.0437 0.8307
vn 0.5550 -0.0437 0.8307
vn 0.1935 -0.1254 0.9731
vn 0.1935 -0.1254 0.9731
vn 0.1935 -0.1254 0.9731
vn 0.1935 -0.1254 0.9731
vn -0.1868 0.2884 0.9391
vn -0.1868 0.2884 0.9391
vn -0.1868 0.2884 0.9391
vn -0.1868 0.2884 0.9391
vn -0.0780 0.9901 0.1167
vn -0.0780 0.9901 0.1167
vn -0.0780 0.9901 0.1167
vn -0.0780 0.9901 0.1167
vn -0.0000 0.7071 0.7071
vn -0.0000 0.7071 0.7071
vn -0.0000 0.7071 0.7071
vn -0.0000 0.7071 0.7071
vn -0.0000 0.7071 0.7071
vn -0.0000 0.7071 0.7071
vn -0.0000 0.7071 0.7071
vn -0.0000 0.7071 0.7071
vn -0.0784 0.9955 0.0524
vn -0.0784 0.9955 0.0524
vn -0.0784 0.9955 0.0524
vn -0.0784 0.9955 0.0524
vn -0.5404 0.8345 0.1075
vn -0.5404 0.8345 0.1075
vn -0.5404 0.8345 0.1075
vn -0.5404 0.8345 0.1075
vn -0.0000 -0.7071 0.7071
vn -0.0000 -0.7071 0.7071
vn -0.0000 -0.7071 0.7071
vn -0.0000 -0.7071 0.7071
vn -0.0000 -0.7071 0.7071
vn -0.0000 -0.7071 0.7071
vn -0.0000 -0.7071 0.7071
vn -0.0000 -0.7071 0.7071
f 733//733 735//735 734//734
f 733//733 734//734 736//736
f 737//737 739//739 738//738
f 737//737 738//738 740//740
f 741//741 743//743 742//742
f 741//741 742//742 744//744
f 745//745 747//747 746//746
f 745//745 746//746 748//748
f 749//749 751//751 750//750
f 749//749 750//750 752//752
f 753//753 755//755 754//754
f 753//753 754//754 756//756
f 757//757 759//759 758//758
f 757//757 758//758 760//760
f 758//758 761//761 760//760
f 760//760 762//762 757//757
f 762//762 763//763 757//757
f 760//760 764//764 762//762
f 765//765 767//767 766//766
f 765//765 766//766 768//768
f 769//769 771//771 770//770
f 769//769 770//770 772//772
f 773//773 775//775 774//774
f 773//773 774//774 776//776
f 774//774 777//777 776//776
f 776//776 778//778 773//773
f 778//778 779//779 773//773
f 776//776 780//780 778//778
g core_iron
usemtl iron
v 0.15000 -0.01653 -0.08000
v 0.14018 -0.00089 -0.04977
v 0.18535 -0.00685 -0.05431
v 0.18535 -0.00685 -0.05431
v 0.17703 -0.00171 -0.09964
v 0.15000 -0.01653 -0.08000
v 0.15000 -0.01653 -0.08000
v 0.11239 -0.00381 -0.08000
v 0.14018 -0.00089 -0.04977
v 0.15000 -0.01653 -0.08000
v 0.13708 -0.00591 -0.11977
v 0.11239 -0.00381 -0.08000
v 0.15000 -0.01653 -0.08000
v 0.17703 -0.00171 -0.09964
v 0.13708 -0.00591 -0.11977
v 0.18535 -0.00685 -0.05431
v 0.18343 0.03171 -0.08000
v 0.17703 -0.00171 -0.09964
v 0.14018 -0.00089 -0.04977
v 0.16336 0.03662 -0.03887
v 0.18535 -0.00685 -0.05431
v 0.11239 -0.00381 -0.08000
v 0.12015 0.03345 -0.05831
v 0.14018 -0.00089 -0.04977
v 0.13708 -0.00591 -0.11977
v 0.12022 0.03340 -0.10163
v 0.11239 -0.00381 -0.08000
v 0.17703 -0.00171 -0.09964
v 0.16268 0.03553 -0.11904
v 0.13708 -0.00591 -0.11977
v 0.18535 -0.00685 -0.05431
v 0.16336 0.03662 -0.03887
v 0.18343 0.03171 -0.08000
v 0.14018 -0.00089 -0.04977
v 0.12015 0.03345 -0.05831
v 0.16336 0.03662 -0.03887
v 0.11239 -0.00381 -0.08000
v 0.12022 0.03340 -0.10163
v 0.12015 0.03345 -0.05831
v 0.13708 -0.00591 -0.11977
v 0.16268 0.03553 -0.11904
v 0.12022 0.03340 -0.10163
v 0.17703 -0.00171 -0.09964
v 0.18343 0.03171 -0.08000
v 0.16268 0.03553 -0.11904
v 0.16336 0.03662 -0.03887
v 0.15000 0.06664 -0.08000
v 0.18343 0.03171 -0.08000
v 0.12015 0.03345 -0.05831
v 0.15000 0.06664 -0.08000
v 0.16336 0.03662 -0.03887
v 0.12022 0.03340 -0.10163
v 0.15000 0.06664 -0.08000
v 0.12015 0.03345 -0.05831
v 0.16268 0.03553 -0.11904
v 0.15000 0.06664 -0.08000
v 0.12022 0.03340 -0.10163
v 0.18343 0.03171 -0.08000
v 0.15000 0.06664 -0.08000
v 0.16268 0.03553 -0.11904
v 0.19000 -0.01653 -0.08000
v 0.17619 -0.00735 -0.03749
v 0.22441 -0.00627 -0.05500
v 0.22441 -0.00627 -0.05500
v 0.22759 -0.00823 -0.10731
v 0.19000 -0.01653 -0.08000
v 0.19000 -0.01653 -0.08000
v 0.14788 -0.00606 -0.08000
v 0.17619 -0.00735 -0.03749
v 0.19000 -0.01653 -0.08000
v 0.17929 -0.00232 -0.11295
v 0.14788 -0.00606 -0.08000
v 0.19000 -0.01653 -0.08000
v 0.22759 -0.00823 -0.10731
v 0.17929 -0.00232 -0.11295
v 0.22441 -0.00627 -0.05500
v 0.23686 0.03843 -0.08000
v 0.22759 -0.00823 -0.10731
v 0.17619 -0.00735 -0.03749
v 0.20260 0.03539 -0.04122
v 0.22441 -0.00627 -0.05500
v 0.14788 -0.00606 -0.08000
v 0.15654 0.03568 -0.05569
v 0.17619 -0.00735 -0.03749
v 0.17929 -0.00232 -0.11295
v 0.16136 0.03270 -0.10081
v 0.14788 -0.00606 -0.08000
v 0.22759 -0.00823 -0.10731
v 0.20117 0.03307 -0.11437
v 0.17929 -0.00232 -0.11295
v 0.22441 -0.00627 -0.05500
v 0.20260 0.03539 -0.04122
v 0.23686 0.03843 -0.08000
v 0.17619 -0.00735 -0.03749
v 0.15654 0.03568 -0.05569
v 0.20260 0.03539 -0.04122
v 0.14788 -0.00606 -0.08000
v 0.16136 0.03270 -0.10081
v 0.15654 0.03568 -0.05569
v 0.17929 -0.00232 -0.11295
v 0.20117 0.03307 -0.11437
v 0.16136 0.03270 -0.10081
v 0.22759 -0.00823 -0.10731
v 0.23686 0.03843 -0.08000
v 0.20117 0.03307 -0.11437
v 0.20260 0.03539 -0.04122
v 0.19000 0.05249 -0.08000
v 0.23686 0.03843 -0.08000
v 0.15654 0.03568 -0.05569
v 0.19000 0.05249 -0.08000
v 0.20260 0.03539 -0.04122
v 0.16136 0.03270 -0.10081
v 0.19000 0.05249 -0.08000
v 0.15654 0.03568 -0.05569
v 0.20117 0.03307 -0.11437
v 0.19000 0.05249 -0.08000
v 0.16136 0.03270 -0.10081
v 0.23686 0.03843 -0.08000
v 0.19000 0.05249 -0.08000
v 0.20117 0.03307 -0.11437
v 0.23000 -0.01653 -0.08000
v 0.21800 -0.00442 -0.04307
v 0.26347 -0.00569 -0.05569
v 0.26347 -0.00569 -0.05569
v 0.26235 -0.00499 -0.10350
v 0.23000 -0.01653 -0.08000
v 0.23000 -0.01653 -0.08000
v 0.18337 -0.00832 -0.08000
v 0.21800 -0.00442 -0.04307
v 0.23000 -0.01653 -0.08000
v 0.21551 -0.00844 -0.12459
v 0.18337 -0.00832 -0.08000
v 0.23000 -0.01653 -0.08000
v 0.26235 -0.00499 -0.10350
v 0.21551 -0.00844 -0.12459
v 0.26347 -0.00569 -0.05569
v 0.26902 0.03451 -0.08000
v 0.26235 -0.00499 -0.10350
v 0.21800 -0.00442 -0.04307
v 0.24148 0.03357 -0.04467
v 0.26347 -0.00569 -0.05569
v 0.18337 -0.00832 -0.08000
v 0.19318 0.03776 -0.05325
v 0.21800 -0.00442 -0.04307
v 0.21551 -0.00844 -0.12459
v 0.20215 0.03221 -0.10023
v 0.18337 -0.00832 -0.08000
v 0.26235 -0.00499 -0.10350
v 0.23966 0.03063 -0.10974
v 0.21551 -0.00844 -0.12459
v 0.26347 -0.00569 -0.05569
v 0.24148 0.03357 -0.04467
v 0.26902 0.03451 -0.08000
v 0.21800 -0.00442 -0.04307
v 0.19318 0.03776 -0.05325
v 0.24148 0.03357 -0.04467
v 0.18337 -0.00832 -0.08000
v 0.20215 0.03221 -0.10023
v 0.19318 0.03776 -0.05325
v 0.21551 -0.00844 -0.12459
v 0.23966 0.03063 -0.10974
v 0.20215 0.03221 -0.10023
v 0.26235 -0.00499 -0.10350
v 0.26902 0.03451 -0.08000
v 0.23966 0.03063 -0.10974
v 0.24148 0.03357 -0.04467
v 0.23000 0.04670 -0.08000
v 0.26902 0.03451 -0.08000
v 0.19318 0.03776 -0.05325
v 0.23000 0.04670 -0.08000
v 0.24148 0.03357 -0.04467
v 0.20215 0.03221 -0.10023
v 0.23000 0.04670 -0.08000
v 0.19318 0.03776 -0.05325
v 0.23966 0.03063 -0.10974
v 0.23000 0.04670 -0.08000
v 0.20215 0.03221 -0.10023
v 0.26902 0.03451 -0.08000
v 0.23000 0.04670 -0.08000
v 0.23966 0.03063 -0.10974
v 0.15000 0.01347 -0.12500
v 0.13981 0.02852 -0.09366
v 0.18252 0.02490 -0.10137
v 0.18252 0.02490 -0.10137
v 0.17771 0.02787 -0.14513
v 0.15000 0.01347 -0.12500
v 0.15000 0.01347 -0.12500
v 0.11764 0.02882 -0.12500
v 0.13981 0.02852 -0.09366
v 0.15000 0.01347 -0.12500
v 0.13773 0.02515 -0.16276
v 0.11764 0.02882 -0.12500
v 0.15000 0.01347 -0.12500
v 0.17771 0.02787 -0.14513
v 0.13773 0.02515 -0.16276
v 0.18252 0.02490 -0.10137
v 0.18431 0.06216 -0.12500
v 0.17771 0.02787 -0.14513
v 0.13981 0.02852 -0.09366
v 0.16071 0.06233 -0.09204
v 0.18252 0.02490 -0.10137
v 0.11764 0.02882 -0.12500
v 0.11923 0.06402 -0.10265
v 0.13981 0.02852 -0.09366
v 0.13773 0.02515 -0.16276
v 0.11246 0.06820 -0.15228
v 0.11764 0.02882 -0.12500
v 0.17771 0.02787 -0.14513
v 0.15969 0.06069 -0.15484
v 0.13773 0.02515 -0.16276
v 0.18252 0.02490 -0.10137
v 0.16071 0.06233 -0.09204
v 0.18431 0.06216 -0.12500
v 0.13981 0.02852 -0.09366
v 0.11923 0.06402 -0.10265
v 0.16071 0.06233 -0.09204
v 0.11764 0.02882 -0.12500
v 0.11246 0.06820 -0.15228
v 0.11923 0.06402 -0.10265
v 0.13773 0.02515 -0.16276
v 0.15969 0.06069 -0.15484
v 0.11246 0.06820 -0.15228
v 0.17771 0.02787 -0.14513
v 0.18431 0.06216 -0.12500
v 0.15969 0.06069 -0.15484
v 0.16071 0.06233 -0.09204
v 0.15000 0.09397 -0.12500
v 0.18431 0.06216 -0.12500
v 0.11923 0.06402 -0.10265
v 0.15000 0.09397 -0.12500
v 0.16071 0.06233 -0.09204
v 0.11246 0.06820 -0.15228
v 0.15000 0.09397 -0.12500
v 0.11923 0.06402 -0.10265
v 0.15969 0.06069 -0.15484
v 0.15000 0.09397 -0.12500
v 0.11246 0.06820 -0.15228
v 0.18431 0.06216 -0.12500
v 0.15000 0.09397 -0.12500
v 0.15969 0.06069 -0.15484
v 0.19000 0.01347 -0.12500
v 0.17582 0.02206 -0.08137
v 0.22158 0.02548 -0.10206
v 0.22158 0.02548 -0.10206
v 0.22796 0.02154 -0.15258
v 0.19000 0.01347 -0.12500
v 0.19000 0.01347 -0.12500
v 0.15313 0.02656 -0.12500
v 0.17582 0.02206 -0.08137
v 0.19000 0.01347 -0.12500
v 0.17985 0.02858 -0.15624
v 0.15313 0.02656 -0.12500
v 0.19000 0.01347 -0.12500
v 0.22796 0.02154 -0.15258
v 0.17985 0.02858 -0.15624
v 0.22158 0.02548 -0.10206
v 0.23682 0.06841 -0.12500
v 0.22796 0.02154 -0.15258
v 0.17582 0.02206 -0.08137
v 0.20267 0.06550 -0.08601
v 0.22158 0.02548 -0.10206
v 0.15313 0.02656 -0.12500
v 0.15297 0.06788 -0.09810
v 0.17582 0.02206 -0.08137
v 0.17985 0.02858 -0.15624
v 0.15560 0.06626 -0.14999
v 0.15313 0.02656 -0.12500
v 0.22796 0.02154 -0.15258
v 0.20186 0.06419 -0.16151
v 0.17985 0.02858 -0.15624
v 0.22158 0.02548 -0.10206
v 0.20267 0.06550 -0.08601
v 0.23682 0.06841 -0.12500
v 0.17582 0.02206 -0.08137
v 0.15297 0.06788 -0.09810
v 0.20267 0.06550 -0.08601
v 0.15313 0.02656 -0.12500
v 0.15560 0.06626 -0.14999
v 0.15297 0.06788 -0.09810
v 0.17985 0.02858 -0.15624
v 0.20186 0.06419 -0.16151
v 0.15560 0.06626 -0.14999
v 0.22796 0.02154 -0.15258
v 0.23682 0.06841 -0.12500
v 0.20186 0.06419 -0.16151
v 0.20267 0.06550 -0.08601
v 0.19000 0.07871 -0.12500
v 0.23682 0.06841 -0.12500
v 0.15297 0.06788 -0.09810
v 0.19000 0.07871 -0.12500
v 0.20267 0.06550 -0.08601
v 0.15560 0.06626 -0.14999
v 0.19000 0.07871 -0.12500
v 0.15297 0.06788 -0.09810
v 0.20186 0.06419 -0.16151
v 0.19000 0.07871 -0.12500
v 0.15560 0.06626 -0.14999
v 0.23682 0.06841 -0.12500
v 0.19000 0.07871 -0.12500
v 0.20186 0.06419 -0.16151
v 0.23000 0.01347 -0.12500
v 0.21764 0.02500 -0.08696
v 0.26063 0.02607 -0.10274
v 0.26063 0.02607 -0.10274
v 0.26302 0.02459 -0.14900
v 0.23000 0.01347 -0.12500
v 0.23000 0.01347 -0.12500
v 0.18862 0.02431 -0.12500
v 0.21764 0.02500 -0.08696
v 0.23000 0.01347 -0.12500
v 0.21616 0.02262 -0.16758
v 0.18862 0.02431 -0.12500
v 0.23000 0.01347 -0.12500
v 0.26302 0.02459 -0.14900
v 0.21616 0.02262 -0.16758
v 0.26063 0.02607 -0.10274
v 0.27055 0.06527 -0.12500
v 0.26302 0.02459 -0.14900
v 0.21764 0.02500 -0.08696
v 0.23882 0.05927 -0.09785
v 0.26063 0.02607 -0.10274
v 0.18862 0.02431 -0.12500
v 0.20192 0.06236 -0.10460
v 0.21764 0.02500 -0.08696
v 0.21616 0.02262 -0.16758
v 0.19874 0.06432 -0.14771
v 0.18862 0.02431 -0.12500
v 0.26302 0.02459 -0.14900
v 0.24403 0.06770 -0.16818
v 0.21616 0.02262 -0.16758
v 0.26063 0.02607 -0.10274
v 0.23882 0.05927 -0.09785
v 0.27055 0.06527 -0.12500
v 0.21764 0.02500 -0.08696
v 0.20192 0.06236 -0.10460
v 0.23882 0.05927 -0.09785
v 0.18862 0.02431 -0.12500
v 0.19874 0.06432 -0.14771
v 0.20192 0.06236 -0.10460
v 0.21616 0.02262 -0.16758
v 0.24403 0.06770 -0.16818
v 0.19874 0.06432 -0.14771
v 0.26302 0.02459 -0.14900
v 0.27055 0.06527 -0.12500
v 0.24403 0.06770 -0.16818
v 0.23882 0.05927 -0.09785
v 0.23000 0.08445 -0.12500
v 0.27055 0.06527 -0.12500
v 0.20192 0.06236 -0.10460
v 0.23000 0.08445 -0.12500
v 0.23882 0.05927 -0.09785
v 0.19874 0.06432 -0.14771
v 0.23000 0.08445 -0.12500
v 0.20192 0.06236 -0.10460
v 0.24403 0.06770 -0.16818
v 0.23000 0.08445 -0.12500
v 0.19874 0.06432 -0.14771
v 0.27055 0.06527 -0.12500
v 0.23000 0.08445 -0.12500
v 0.24403 0.06770 -0.16818
vn -0.1594 -0.5147 0.8424
vn -0.1594 -0.5147 0.8424
vn -0.1594 -0.5147 0.8424
vn 0.2736 -0.7151 0.6433
vn 0.2736 -0.7151 0.6433
vn 0.2736 -0.7151 0.6433
vn -0.1864 -0.5343 0.8245
vn -0.1864 -0.5343 0.8245
vn -0.1864 -0.5343 0.8245
vn 0.0313 0.7699 -0.6374
vn 0.0313 0.7699 -0.6374
vn 0.0313 0.7699 -0.6374
vn -0.2895 0.7624 -0.5787
vn -0.2895 0.7624 -0.5787
vn -0.2895 0.7624 -0.5787
vn 0.7679 -0.0674 0.6370
vn 0.7679 -0.0674 0.6370
vn 0.7679 -0.0674 0.6370
vn -0.1070 -0.1791 0.9780
vn -0.1070 -0.1791 0.9780
vn -0.1070 -0.1791 0.9780
vn -0.4630 0.7898 0.4023
vn -0.4630 0.7898 0.4023
vn -0.4630 0.7898 0.4023
vn -0.1253 0.9921 -0.0109
vn -0.1253 0.9921 -0.0109
vn -0.1253 0.9921 -0.0109
vn 0.8112 -0.5164 0.2745
vn 0.8112 -0.5164 0.2745
vn 0.8112 -0.5164 0.2745
vn 0.5295 0.1604 0.8330
vn 0.5295 0.1604 0.8330
vn 0.5295 0.1604 0.8330
vn -0.2078 0.3134 0.9266
vn -0.2078 0.3134 0.9266
vn -0.2078 0.3134 0.9266
vn -0.0024 0.9792 0.2027
vn -0.0024 0.9792 0.2027
vn -0.0024 0.9792 0.2027
vn -0.5385 0.8147 0.2150
vn -0.5385 0.8147 0.2150
vn -0.5385 0.8147 0.2150
vn 0.8562 -0.0362 0.5154
vn 0.8562 -0.0362 0.5154
vn 0.8562 -0.0362 0.5154
vn -0.4290 -0.4310 -0.7939
vn -0.4290 -0.4310 -0.7939
vn -0.4290 -0.4310 -0.7939
vn 0.1270 0.5117 0.8497
vn 0.1270 0.5117 0.8497
vn 0.1270 0.5117 0.8497
vn -0.0604 0.8093 0.5843
vn -0.0604 0.8093 0.5843
vn -0.0604 0.8093 0.5843
vn 0.3989 -0.8169 -0.4167
vn 0.3989 -0.8169 -0.4167
vn 0.3989 -0.8169 -0.4167
vn -0.5240 -0.6152 -0.5890
vn -0.5240 -0.6152 -0.5890
vn -0.5240 -0.6152 -0.5890
vn -0.0370 -0.6196 0.7840
vn -0.0370 -0.6196 0.7840
vn -0.0370 -0.6196 0.7840
vn 0.0920 -0.6851 0.7226
vn 0.0920 -0.6851 0.7226
vn 0.0920 -0.6851 0.7226
vn 0.1046 0.6526 -0.7505
vn 0.1046 0.6526 -0.7505
vn 0.1046 0.6526 -0.7505
vn -0.0570 0.8244 -0.5631
vn -0.0570 0.8244 -0.5631
vn -0.0570 0.8244 -0.5631
vn -0.1401 0.8252 -0.5471
vn -0.1401 0.8252 -0.5471
vn -0.1401 0.8252 -0.5471
vn 0.6616 -0.1689 0.7306
vn 0.6616 -0.1689 0.7306
vn 0.6616 -0.1689 0.7306
vn 0.1264 -0.1856 0.9745
vn 0.1264 -0.1856 0.9745
vn 0.1264 -0.1856 0.9745
vn -0.2490 0.9577 0.1441
vn -0.2490 0.9577 0.1441
vn -0.2490 0.9577 0.1441
vn -0.2576 0.9655 0.0374
vn -0.2576 0.9655 0.0374
vn -0.2576 0.9655 0.0374
vn -0.7386 0.6702 -0.0730
vn -0.7386 0.6702 -0.0730
vn -0.7386 0.6702 -0.0730
vn 0.4207 -0.0002 0.9072
vn 0.4207 -0.0002 0.9072
vn 0.4207 -0.0002 0.9072
vn 0.0221 0.3111 0.9501
vn 0.0221 0.3111 0.9501
vn 0.0221 0.3111 0.9501
vn -0.0307 0.9658 0.2574
vn -0.0307 0.9658 0.2574
vn -0.0307 0.9658 0.2574
vn -0.5742 0.8026 0.1614
vn -0.5742 0.8026 0.1614
vn -0.5742 0.8026 0.1614
vn 0.9164 -0.2665 0.2985
vn 0.9164 -0.2665 0.2985
vn 0.9164 -0.2665 0.2985
vn 0.1962 0.5528 0.8098
vn 0.1962 0.5528 0.8098
vn 0.1962 0.5528 0.8098
vn 0.1047 0.5434 0.8329
vn 0.1047 0.5434 0.8329
vn 0.1047 0.5434 0.8329
vn -0.1359 0.7546 0.6420
vn -0.1359 0.7546 0.6420
vn -0.1359 0.7546 0.6420
vn 0.3113 -0.8192 -0.4817
vn 0.3113 -0.8192 -0.4817
vn 0.3113 -0.8192 -0.4817
vn 0.0698 -0.8535 -0.5165
vn 0.0698 -0.8535 -0.5165
vn 0.0698 -0.8535 -0.5165
vn -0.0793 -0.5815 0.8097
vn -0.0793 -0.5815 0.8097
vn -0.0793 -0.5815 0.8097
vn 0.1629 -0.6975 0.6978
vn 0.1629 -0.6975 0.6978
vn 0.1629 -0.6975 0.6978
vn -0.1296 -0.5956 0.7927
vn -0.1296 -0.5956 0.7927
vn -0.1296 -0.5956 0.7927
vn 0.0091 0.7531 -0.6579
vn 0.0091 0.7531 -0.6579
vn 0.0091 0.7531 -0.6579
vn -0.1782 0.7641 -0.6199
vn -0.1782 0.7641 -0.6199
vn -0.1782 0.7641 -0.6199
vn -0.7078 0.1080 -0.6981
vn -0.7078 0.1080 -0.6981
vn -0.7078 0.1080 -0.6981
vn 0.0850 -0.1618 0.9832
vn 0.0850 -0.1618 0.9832
vn 0.0850 -0.1618 0.9832
vn -0.4720 0.7700 0.4294
vn -0.4720 0.7700 0.4294
vn -0.4720 0.7700 0.4294
vn -0.2179 0.9624 0.1621
vn -0.2179 0.9624 0.1621
vn -0.2179 0.9624 0.1621
vn 0.8356 -0.5286 0.1493
vn 0.8356 -0.5286 0.1493
vn 0.8356 -0.5286 0.1493
vn 0.4460 0.0767 0.8917
vn 0.4460 0.0767 0.8917
vn 0.4460 0.0767 0.8917
vn 0.0013 0.1640 0.9865
vn 0.0013 0.1640 0.9865
vn 0.0013 0.1640 0.9865
vn -0.0712 0.9497 0.3051
vn -0.0712 0.9497 0.3051
vn -0.0712 0.9497 0.3051
vn 0.5536 -0.7936 -0.2524
vn 0.5536 -0.7936 -0.2524
vn 0.5536 -0.7936 -0.2524
vn 0.9203 -0.2267 0.3189
vn 0.9203 -0.2267 0.3189
vn 0.9203 -0.2267 0.3189
vn 0.1908 0.5820 0.7905
vn 0.1908 0.5820 0.7905
vn 0.1908 0.5820 0.7905
vn 0.1124 0.5682 0.8152
vn 0.1124 0.5682 0.8152
vn 0.1124 0.5682 0.8152
vn -0.1549 0.7551 0.6370
vn -0.1549 0.7551 0.6370
vn -0.1549 0.7551 0.6370
vn 0.2722 -0.8262 -0.4933
vn 0.2722 -0.8262 -0.4933
vn 0.2722 -0.8262 -0.4933
vn 0.0439 -0.8473 -0.5293
vn 0.0439 -0.8473 -0.5293
vn 0.0439 -0.8473 -0.5293
vn -0.1313 -0.5280 0.8391
vn -0.1313 -0.5280 0.8391
vn -0.1313 -0.5280 0.8391
vn 0.2536 -0.6997 0.6679
vn 0.2536 -0.6997 0.6679
vn 0.2536 -0.6997 0.6679
vn 0.1660 0.5810 -0.7968
vn 0.1660 0.5810 -0.7968
vn 0.1660 0.5810 -0.7968
vn 0.0483 0.7766 -0.6281
vn 0.0483 0.7766 -0.6281
vn 0.0483 0.7766 -0.6281
vn -0.2777 0.7756 -0.5669
vn -0.2777 0.7756 -0.5669
vn -0.2777 0.7756 -0.5669
vn -0.7417 0.0905 -0.6646
vn -0.7417 0.0905 -0.6646
vn -0.7417 0.0905 -0.6646
vn 0.0197 -0.1430 0.9895
vn 0.0197 -0.1430 0.9895
vn 0.0197 -0.1430 0.9895
vn -0.3458 0.9369 -0.0525
vn -0.3458 0.9369 -0.0525
vn -0.3458 0.9369 -0.0525
vn -0.0365 0.9685 -0.2465
vn -0.0365 0.9685 -0.2465
vn -0.0365 0.9685 -0.2465
vn 0.8312 -0.5228 0.1892
vn 0.8312 -0.5228 0.1892
vn 0.8312 -0.5228 0.1892
vn 0.4591 0.1254 0.8795
vn 0.4591 0.1254 0.8795
vn 0.4591 0.1254 0.8795
vn -0.0544 0.2063 0.9770
vn -0.0544 0.2063 0.9770
vn -0.0544 0.2063 0.9770
vn -0.0115 0.9994 -0.0318
vn -0.0115 0.9994 -0.0318
vn -0.0115 0.9994 -0.0318
vn 0.6801 -0.7276 -0.0896
vn 0.6801 -0.7276 -0.0896
vn 0.6801 -0.7276 -0.0896
vn 0.9083 -0.1231 0.3998
vn 0.9083 -0.1231 0.3998
vn 0.9083 -0.1231 0.3998
vn 0.3789 0.3732 0.8468
vn 0.3789 0.3732 0.8468
vn 0.3789 0.3732 0.8468
vn 0.1655 0.4147 0.8948
vn 0.1655 0.4147 0.8948
vn 0.1655 0.4147 0.8948
vn -0.0186 0.7380 0.6746
vn -0.0186 0.7380 0.6746
vn -0.0186 0.7380 0.6746
vn 0.4610 -0.8325 -0.3071
vn 0.4610 -0.8325 -0.3071
vn 0.4610 -0.8325 -0.3071
vn -0.3802 -0.7926 -0.4767
vn -0.3802 -0.7926 -0.4767
vn -0.3802 -0.7926 -0.4767
vn -0.0062 -0.6213 0.7835
vn -0.0062 -0.6213 0.7835
vn -0.0062 -0.6213 0.7835
vn 0.0879 -0.6659 0.7409
vn 0.0879 -0.6659 0.7409
vn 0.0879 -0.6659 0.7409
vn 0.1019 0.6786 -0.7274
vn 0.1019 0.6786 -0.7274
vn 0.1019 0.6786 -0.7274
vn -0.0374 0.8341 -0.5503
vn -0.0374 0.8341 -0.5503
vn -0.0374 0.8341 -0.5503
vn -0.1440 0.8360 -0.5295
vn -0.1440 0.8360 -0.5295
vn -0.1440 0.8360 -0.5295
vn 0.6250 -0.1979 0.7552
vn 0.6250 -0.1979 0.7552
vn 0.6250 -0.1979 0.7552
vn 0.1594 -0.2170 0.9631
vn 0.1594 -0.2170 0.9631
vn 0.1594 -0.2170 0.9631
vn -0.1710 0.9635 -0.2060
vn -0.1710 0.9635 -0.2060
vn -0.1710 0.9635 -0.2060
vn -0.1623 0.9768 -0.1395
vn -0.1623 0.9768 -0.1395
vn -0.1623 0.9768 -0.1395
vn -0.7125 0.6972 -0.0794
vn -0.7125 0.6972 -0.0794
vn -0.7125 0.6972 -0.0794
vn 0.4191 -0.0514 0.9065
vn 0.4191 -0.0514 0.9065
vn 0.4191 -0.0514 0.9065
vn 0.0325 0.2485 0.9681
vn 0.0325 0.2485 0.9681
vn 0.0325 0.2485 0.9681
vn -0.0021 0.9995 0.0303
vn -0.0021 0.9995 0.0303
vn -0.0021 0.9995 0.0303
vn -0.6117 0.7874 0.0771
vn -0.6117 0.7874 0.0771
vn -0.6117 0.7874 0.0771
vn 0.9186 -0.2052 0.3376
vn 0.9186 -0.2052 0.3376
vn 0.9186 -0.2052 0.3376
vn 0.1553 0.5915 0.7912
vn 0.1553 0.5915 0.7912
vn 0.1553 0.5915 0.7912
vn 0.0941 0.5784 0.8103
vn 0.0941 0.5784 0.8103
vn 0.0941 0.5784 0.8103
vn -0.0948 0.7228 0.6846
vn -0.0948 0.7228 0.6846
vn -0.0948 0.7228 0.6846
vn 0.1932 -0.8132 -0.5490
vn 0.1932 -0.8132 -0.5490
vn 0.1932 -0.8132 -0.5490
vn 0.0354 -0.8160 -0.5769
vn 0.0354 -0.8160 -0.5769
vn 0.0354 -0.8160 -0.5769
vn -0.0465 -0.5877 0.8078
vn -0.0465 -0.5877 0.8078
vn -0.0465 -0.5877 0.8078
vn 0.1510 -0.6767 0.7206
vn 0.1510 -0.6767 0.7206
vn 0.1510 -0.6767 0.7206
vn 0.1292 0.6171 -0.7762
vn 0.1292 0.6171 -0.7762
vn 0.1292 0.6171 -0.7762
vn 0.0266 0.7574 -0.6524
vn 0.0266 0.7574 -0.6524
vn 0.0266 0.7574 -0.6524
vn -0.1709 0.7731 -0.6108
vn -0.1709 0.7731 -0.6108
vn -0.1709 0.7731 -0.6108
vn 0.6689 -0.1548 0.7270
vn 0.6689 -0.1548 0.7270
vn 0.6689 -0.1548 0.7270
vn 0.2012 -0.0707 0.9770
vn 0.2012 -0.0707 0.9770
vn 0.2012 -0.0707 0.9770
vn -0.2321 0.9043 0.3583
vn -0.2321 0.9043 0.3583
vn -0.2321 0.9043 0.3583
vn -0.1433 0.9895 0.0178
vn -0.1433 0.9895 0.0178
vn -0.1433 0.9895 0.0178
vn 0.7977 -0.5597 0.2243
vn 0.7977 -0.5597 0.2243
vn 0.7977 -0.5597 0.2243
vn 0.3610 0.0497 0.9313
vn 0.3610 0.0497 0.9313
vn 0.3610 0.0497 0.9313
vn 0.1215 0.2567 0.9588
vn 0.1215 0.2567 0.9588
vn 0.1215 0.2567 0.9588
vn 0.0058 0.9555 0.2949
vn 0.0058 0.9555 0.2949
vn 0.0058 0.9555 0.2949
vn -0.5217 0.8236 0.2225
vn -0.5217 0.8236 0.2225
vn -0.5217 0.8236 0.2225
vn 0.8734 -0.0435 0.4850
vn 0.8734 -0.0435 0.4850
vn 0.8734 -0.0435 0.4850
vn 0.2722 0.3805 0.8838
vn 0.2722 0.3805 0.8838
vn 0.2722 0.3805 0.8838
vn 0.1788 0.4025 0.8978
vn 0.1788 0.4025 0.8978
vn 0.1788 0.4025 0.8978
vn -0.0521 0.7329 0.6784
vn -0.0521 0.7329 0.6784
vn -0.0521 0.7329 0.6784
vn 0.2586 -0.8022 -0.5381
vn 0.2586 -0.8022 -0.5381
vn 0.2586 -0.8022 -0.5381
vn -0.1678 -0.7666 -0.6198
vn -0.1678 -0.7666 -0.6198
vn -0.1678 -0.7666 -0.6198
f 781//781 783//783 782//782
f 784//784 786//786 785//785
f 787//787 789//789 788//788
f 790//790 792//792 791//791
f 793//793 795//795 794//794
f 796//796 798//798 797//797
f 799//799 801//801 800//800
f 802//802 804//804 803//803
f 805//805 807//807 806//806
f 808//808 810//810 809//809
f 811//811 813//813 812//812
f 814//814 816//816 815//815
f 817//817 819//819 818//818
f 820//820 822//822 821//821
f 823//823 825//825 824//824
f 826//826 828//828 827//827
f 829//829 831//831 830//830
f 832//832 834//834 833//833
f 835//835 837//837 836//836
f 838//838 840//840 839//839
f 841//841 843//843 842//842
f 844//844 846//846 845//845
f 847//847 849//849 848//848
f 850//850 852//852 851//851
f 853//853 855//855 854//854
f 856//856 858//858 857//857
f 859//859 861//861 860//860
f 862//862 864//864 863//863
f 865//865 867//867 866//866
f 868//868 870//870 869//869
f 871//871 873//873 872//872
f 874//874 876//876 875//875
f 877//877 879//879 878//878
f 880//880 882//882 881//881
f 883//883 885//885 884//884
f 886//886 888//888 887//887
f 889//889 891//891 890//890
f 892//892 894//894 893//893
f 895//895 897//897 896//896
f 898//898 900//900 899//899
f 901//901 903//903 902//902
f 904//904 906//906 905//905
f 907//907 909//909 908//908
f 910//910 912//912 911//911
f 913//913 915//915 914//914
f 916//916 918//918 917//917
f 919//919 921//921 920//920
f 922//922 924//924 923//923
f 925//925 927//927 926//926
f 928//928 930//930 929//929
f 931//931 933//933 932//932
f 934//934 936//936 935//935
f 937//937 939//939 938//938
f 940//940 942//942 941//941
f 943//943 945//945 944//944
f 946//946 948//948 947//947
f 949//949 951//951 950//950
f 952//952 954//954 953//953
f 955//955 957//957 956//956
f 958//958 960//960 959//959
f 961//961 963//963 962//962
f 964//964 966//966 965//965
f 967//967 969//969 968//968
f 970//970 972//972 971//971
f 973//973 975//975 974//974
f 976//976 978//978 977//977
f 979//979 981//981 980//980
f 982//982 984//984 983//983
f 985//985 987//987 986//986
f 988//988 990//990 989//989
f 991//991 993//993 992//992
f 994//994 996//996 995//995
f 997//997 999//999 998//998
f 1000//1000 1002//1002 1001//1001
f 1003//1003 1005//1005 1004//1004
f 1006//1006 1008//1008 1007//1007
f 1009//1009 1011//1011 1010//1010
f 1012//1012 1014//1014 1013//1013
f 1015//1015 1017//1017 1016//1016
f 1018//1018 1020//1020 1019//1019
f 1021//1021 1023//1023 1022//1022
f 1024//1024 1026//1026 1025//1025
f 1027//1027 1029//1029 1028//1028
f 1030//1030 1032//1032 1031//1031
f 1033//1033 1035//1035 1034//1034
f 1036//1036 1038//1038 1037//1037
f 1039//1039 1041//1041 1040//1040
f 1042//1042 1044//1044 1043//1043
f 1045//1045 1047//1047 1046//1046
f 1048//1048 1050//1050 1049//1049
f 1051//1051 1053//1053 1052//1052
f 1054//1054 1056//1056 1055//1055
f 1057//1057 1059//1059 1058//1058
f 1060//1060 1062//1062 1061//1061
f 1063//1063 1065//1065 1064//1064
f 1066//1066 1068//1068 1067//1067
f 1069//1069 1071//1071 1070//1070
f 1072//1072 1074//1074 1073//1073
f 1075//1075 1077//1077 1076//1076
f 1078//1078 1080//1080 1079//1079
f 1081//1081 1083//1083 1082//1082
f 1084//1084 1086//1086 1085//1085
f 1087//1087 1089//1089 1088//1088
f 1090//1090 1092//1092 1091//1091
f 1093//1093 1095//1095 1094//1094
f 1096//1096 1098//1098 1097//1097
f 1099//1099 1101//1101 1100//1100
f 1102//1102 1104//1104 1103//1103
f 1105//1105 1107//1107 1106//1106
f 1108//1108 1110//1110 1109//1109
f 1111//1111 1113//1113 1112//1112
f 1114//1114 1116//1116 1115//1115
f 1117//1117 1119//1119 1118//1118
f 1120//1120 1122//1122 1121//1121
f 1123//1123 1125//1125 1124//1124
f 1126//1126 1128//1128 1127//1127
f 1129//1129 1131//1131 1130//1130
f 1132//1132 1134//1134 1133//1133
f 1135//1135 1137//1137 1136//1136
f 1138//1138 1140//1140 1139//1139
