mtllib quarry.mtl
o core
g core_stone
usemtl stone
v -0.12600 0.00000 0.04600
v -0.13000 0.00400 0.04600
v -0.12600 0.00400 0.05000
v -0.12600 0.03600 0.05000
v -0.13000 0.03600 0.04600
v -0.12600 0.04000 0.04600
v -0.12600 0.00000 -0.20600
v -0.12600 0.00400 -0.21000
v -0.13000 0.00400 -0.20600
v -0.12600 0.04000 -0.20600
v -0.13000 0.03600 -0.20600
v -0.12600 0.03600 -0.21000
v 0.22600 0.00000 0.04600
v 0.22600 0.00400 0.05000
v 0.23000 0.00400 0.04600
v 0.22600 0.04000 0.04600
v 0.23000 0.03600 0.04600
v 0.22600 0.03600 0.05000
v 0.22600 0.00000 -0.20600
v 0.23000 0.00400 -0.20600
v 0.22600 0.00400 -0.21000
v 0.22600 0.04000 -0.20600
v 0.22600 0.03600 -0.21000
v 0.23000 0.03600 -0.20600
v -0.12600 0.00000 -0.20600
v -0.13000 0.00400 0.04600
v -0.12600 0.00000 0.04600
v -0.13000 0.00400 -0.20600
v -0.12600 0.00400 0.05000
v -0.13000 0.03600 0.04600
v -0.12600 0.03600 0.05000
v -0.13000 0.00400 0.04600
v -0.12600 0.04000 0.04600
v -0.13000 0.03600 -0.20600
v -0.12600 0.04000 -0.20600
v -0.13000 0.03600 0.04600
v -0.12600 0.03600 -0.21000
v -0.13000 0.00400 -0.20600
v -0.12600 0.00400 -0.21000
v -0.13000 0.03600 -0.20600
v 0.22600 0.00000 -0.20600
v -0.12600 0.00400 -0.21000
v -0.12600 0.00000 -0.20600
v 0.22600 0.00400 -0.21000
v -0.12600 0.04000 -0.20600
v 0.22600 0.03600 -0.21000
v 0.22600 0.04000 -0.20600
v -0.12600 0.03600 -0.21000
v 0.23000 0.03600 -0.20600
v 0.22600 0.00400 -0.21000
v 0.23000 0.00400 -0.20600
v 0.22600 0.03600 -0.21000
v 0.22600 0.00000 0.04600
v 0.23000 0.00400 -0.20600
v 0.22600 0.00000 -0.20600
v 0.23000 0.00400 0.04600
v 0.22600 0.04000 -0.20600
v 0.23000 0.03600 0.04600
v 0.22600 0.04000 0.04600
v 0.23000 0.03600 -0.20600
v 0.22600 0.03600 0.05000
v 0.23000 0.00400 0.04600
v 0.22600 0.00400 0.05000
v 0.23000 0.03600 0.04600
v -0.12600 0.00000 0.04600
v 0.22600 0.00400 0.05000
v 0.22600 0.00000 0.04600
v -0.12600 0.00400 0.05000
v 0.22600 0.04000 0.04600
v -0.12600 0.03600 0.05000
v -0.12600 0.04000 0.04600
v 0.22600 0.03600 0.05000
v -0.12600 0.00000 -0.20600
v 0.22600 0.00000 0.04600
v 0.22600 0.00000 -0.20600
v -0.12600 0.00000 0.04600
v -0.13000 0.00400 0.04600
v -0.13000 0.03600 -0.20600
v -0.13000 0.03600 0.04600
v -0.13000 0.00400 -0.20600
v 0.22600 0.00400 0.05000
v -0.12600 0.03600 0.05000
v 0.22600 0.03600 0.05000
v -0.12600 0.00400 0.05000
v 0.22600 0.04000 -0.20600
v -0.12600 0.04000 0.04600
v -0.12600 0.04000 -0.20600
v 0.22600 0.04000 0.04600
v -0.12600 0.00400 -0.21000
v 0.22600 0.03600 -0.21000
v -0.12600 0.03600 -0.21000
v 0.22600 0.00400 -0.21000
v 0.23000 0.00400 -0.20600
v 0.23000 0.03600 0.04600
v 0.23000 0.03600 -0.20600
v 0.23000 0.00400 0.04600
v -0.08600 0.04000 0.00100
v -0.09000 0.04400 0.00100
v -0.08600 0.04400 0.00500
v -0.08600 0.07600 0.00500
v -0.09000 0.07600 0.00100
v -0.08600 0.08000 0.00100
v -0.08600 0.04000 -0.20100
v -0.08600 0.04400 -0.20500
v -0.09000 0.04400 -0.20100
v -0.08600 0.08000 -0.20100
v -0.09000 0.07600 -0.20100
v -0.08600 0.07600 -0.20500
v 0.18600 0.04000 0.00100
v 0.18600 0.04400 0.00500
v 0.19000 0.04400 0.00100
v 0.18600 0.08000 0.00100
v 0.19000 0.07600 0.00100
v 0.18600 0.07600 0.00500
v 0.18600 0.04000 -0.20100
v 0.19000 0.04400 -0.20100
v 0.18600 0.04400 -0.20500
v 0.18600 0.08000 -0.20100
v 0.18600 0.07600 -0.20500
v 0.19000 0.07600 -0.20100
v -0.08600 0.04000 -0.20100
v -0.09000 0.04400 0.00100
v -0.08600 0.04000 0.00100
v -0.09000 0.04400 -0.20100
v -0.08600 0.04400 0.00500
v -0.09000 0.07600 0.00100
v -0.08600 0.07600 0.00500
v -0.09000 0.04400 0.00100
v -0.08600 0.08000 0.00100
v -0.09000 0.07600 -0.20100
v -0.08600 0.08000 -0.20100
v -0.09000 0.07600 0.00100
v -0.08600 0.07600 -0.20500
v -0.09000 0.04400 -0.20100
v -0.08600 0.04400 -0.20500
v -0.09000 0.07600 -0.20100
v 0.18600 0.04000 -0.20100
v -0.08600 0.04400 -0.20500
v -0.08600 0.04000 -0.20100
v 0.18600 0.04400 -0.20500
v -0.08600 0.08000 -0.20100
v 0.18600 0.07600 -0.20500
v 0.18600 0.08000 -0.20100
v -0.08600 0.07600 -0.20500
v 0.19000 0.07600 -0.20100
v 0.18600 0.04400 -0.20500
v 0.19000 0.04400 -0.20100
v 0.18600 0.07600 -0.20500
v 0.18600 0.04000 0.00100
v 0.19000 0.04400 -0.20100
v 0.18600 0.04000 -0.20100
v 0.19000 0.04400 0.00100
v 0.18600 0.08000 -0.20100
v 0.19000 0.07600 0.00100
v 0.18600 0.08000 0.00100
v 0.19000 0.07600 -0.20100
v 0.18600 0.07600 0.00500
v 0.19000 0.04400 0.00100
v 0.18600 0.04400 0.00500
v 0.19000 0.07600 0.00100
v -0.08600 0.04000 0.00100
v 0.18600 0.04400 0.00500
v 0.18600 0.04000 0.00100
v -0.08600 0.04400 0.00500
v 0.18600 0.08000 0.00100
v -0.08600 0.07600 0.00500
v -0.08600 0.08000 0.00100
v 0.18600 0.07600 0.00500
v -0.08600 0.04000 -0.20100
v 0.18600 0.04000 0.00100
v 0.18600 0.04000 -0.20100
v -0.08600 0.04000 0.00100
v -0.09000 0.04400 0.00100
v -0.09000 0.07600 -0.20100
v -0.09000 0.07600 0.00100
v -0.09000 0.04400 -0.20100
v 0.18600 0.04400 0.00500
v -0.08600 0.07600 0.00500
v 0.18600 0.07600 0.00500
v -0.08600 0.04400 0.00500
v 0.18600 0.08000 -0.20100
v -0.08600 0.08000 0.00100
v -0.08600 0.08000 -0.20100
v 0.18600 0.08000 0.00100
v -0.08600 0.04400 -0.20500
v 0.18600 0.07600 -0.20500
v -0.08600 0.07600 -0.20500
v 0.18600 0.04400 -0.20500
v 0.19000 0.04400 -0.20100
v 0.19000 0.07600 0.00100
v 0.19000 0.07600 -0.20100
v 0.19000 0.04400 0.00100
v -0.04600 0.08000 -0.04400
v -0.05000 0.08400 -0.04400
v -0.04600 0.08400 -0.04000
v -0.04600 0.11600 -0.04000
v -0.05000 0.11600 -0.04400
v -0.04600 0.12000 -0.04400
v -0.04600 0.08000 -0.19600
v -0.04600 0.08400 -0.20000
v -0.05000 0.08400 -0.19600
v -0.04600 0.12000 -0.19600
v -0.05000 0.11600 -0.19600
v -0.04600 0.11600 -0.20000
v 0.14600 0.08000 -0.04400
v 0.14600 0.08400 -0.04000
v 0.15000 0.08400 -0.04400
v 0.14600 0.12000 -0.04400
v 0.15000 0.11600 -0.04400
v 0.14600 0.11600 -0.04000
v 0.14600 0.08000 -0.19600
v 0.15000 0.08400 -0.19600
v 0.14600 0.08400 -0.20000
v 0.14600 0.12000 -0.19600
v 0.14600 0.11600 -0.20000
v 0.15000 0.11600 -0.19600
v -0.04600 0.08000 -0.19600
v -0.05000 0.08400 -0.04400
v -0.04600 0.08000 -0.04400
v -0.05000 0.08400 -0.19600
v -0.04600 0.08400 -0.04000
v -0.05000 0.11600 -0.04400
v -0.04600 0.11600 -0.04000
v -0.05000 0.08400 -0.04400
v -0.04600 0.12000 -0.04400
v -0.05000 0.11600 -0.19600
v -0.04600 0.12000 -0.19600
v -0.05000 0.11600 -0.04400
v -0.04600 0.11600 -0.20000
v -0.05000 0.08400 -0.19600
v -0.04600 0.08400 -0.20000
v -0.05000 0.11600 -0.19600
v 0.14600 0.08000 -0.19600
v -0.04600 0.08400 -0.20000
v -0.04600 0.08000 -0.19600
v 0.14600 0.08400 -0.20000
v -0.04600 0.12000 -0.19600
v 0.14600 0.11600 -0.20000
v 0.14600 0.12000 -0.19600
v -0.04600 0.11600 -0.20000
v 0.15000 0.11600 -0.19600
v 0.14600 0.08400 -0.20000
v 0.15000 0.08400 -0.19600
v 0.14600 0.11600 -0.20000
v 0.14600 0.08000 -0.04400
v 0.15000 0.08400 -0.19600
v 0.14600 0.08000 -0.19600
v 0.15000 0.08400 -0.04400
v 0.14600 0.12000 -0.19600
v 0.15000 0.11600 -0.04400
v 0.14600 0.12000 -0.04400
v 0.15000 0.11600 -0.19600
v 0.14600 0.11600 -0.04000
v 0.15000 0.08400 -0.04400
v 0.14600 0.08400 -0.04000
v 0.15000 0.11600 -0.04400
v -0.04600 0.08000 -0.04400
v 0.14600 0.08400 -0.04000
v 0.14600 0.08000 -0.04400
v -0.04600 0.08400 -0.04000
v 0.14600 0.12000 -0.04400
v -0.04600 0.11600 -0.04000
v -0.04600 0.12000 -0.04400
v 0.14600 0.11600 -0.04000
v -0.04600 0.08000 -0.19600
v 0.14600 0.08000 -0.04400
v 0.14600 0.08000 -0.19600
v -0.04600 0.08000 -0.04400
v -0.05000 0.08400 -0.04400
v -0.05000 0.11600 -0.19600
v -0.05000 0.11600 -0.04400
v -0.05000 0.08400 -0.19600
v 0.14600 0.08400 -0.04000
v -0.04600 0.11600 -0.04000
v 0.14600 0.11600 -0.04000
v -0.04600 0.08400 -0.04000
v 0.14600 0.12000 -0.19600
v -0.04600 0.12000 -0.04400
v -0.04600 0.12000 -0.19600
v 0.14600 0.12000 -0.04400
v -0.04600 0.08400 -0.20000
v 0.14600 0.11600 -0.20000
v -0.04600 0.11600 -0.20000
v 0.14600 0.08400 -0.20000
v 0.15000 0.08400 -0.19600
v 0.15000 0.11600 -0.04400
v 0.15000 0.11600 -0.19600
v 0.15000 0.08400 -0.04400
v -0.24000 0.00000 0.11500
v -0.24500 0.00500 0.11500
v -0.24000 0.00500 0.12000
v -0.24000 0.04000 0.12000
v -0.24500 0.04000 0.11500
v -0.24000 0.04500 0.11500
v -0.24000 0.00000 0.08500
v -0.24000 0.00500 0.08000
v -0.24500 0.00500 0.08500
v -0.24000 0.04500 0.08500
v -0.24500 0.04000 0.08500
v -0.24000 0.04000 0.08000
v -0.20000 0.00000 0.11500
v -0.20000 0.00500 0.12000
v -0.19500 0.00500 0.11500
v -0.20000 0.04500 0.11500
v -0.19500 0.04000 0.11500
v -0.20000 0.04000 0.12000
v -0.20000 0.00000 0.08500
v -0.19500 0.00500 0.08500
v -0.20000 0.00500 0.08000
v -0.20000 0.04500 0.08500
v -0.20000 0.04000 0.08000
v -0.19500 0.04000 0.08500
v -0.24000 0.00000 0.08500
v -0.24500 0.00500 0.11500
v -0.24000 0.00000 0.11500
v -0.24500 0.00500 0.08500
v -0.24000 0.00500 0.12000
v -0.24500 0.04000 0.11500
v -0.24000 0.04000 0.12000
v -0.24500 0.00500 0.11500
v -0.24000 0.04500 0.11500
v -0.24500 0.04000 0.08500
v -0.24000 0.04500 0.08500
v -0.24500 0.04000 0.11500
v -0.24000 0.04000 0.08000
v -0.24500 0.00500 0.08500
v -0.24000 0.00500 0.08000
v -0.24500 0.04000 0.08500
v -0.20000 0.00000 0.08500
v -0.24000 0.00500 0.08000
v -0.24000 0.00000 0.08500
v -0.20000 0.00500 0.08000
v -0.24000 0.04500 0.08500
v -0.20000 0.04000 0.08000
v -0.20000 0.04500 0.08500
v -0.24000 0.04000 0.08000
v -0.19500 0.04000 0.08500
v -0.20000 0.00500 0.08000
v -0.19500 0.00500 0.08500
v -0.20000 0.04000 0.08000
v -0.20000 0.00000 0.11500
v -0.19500 0.00500 0.08500
v -0.20000 0.00000 0.08500
v -0.19500 0.00500 0.11500
v -0.20000 0.04500 0.08500
v -0.19500 0.04000 0.11500
v -0.20000 0.04500 0.11500
v -0.19500 0.04000 0.08500
v -0.20000 0.04000 0.12000
v -0.19500 0.00500 0.11500
v -0.20000 0.00500 0.12000
v -0.19500 0.04000 0.11500
v -0.24000 0.00000 0.11500
v -0.20000 0.00500 0.12000
v -0.20000 0.00000 0.11500
v -0.24000 0.00500 0.12000
v -0.20000 0.04500 0.11500
v -0.24000 0.04000 0.12000
v -0.24000 0.04500 0.11500
v -0.20000 0.04000 0.12000
v -0.24000 0.00000 0.08500
v -0.20000 0.00000 0.11500
v -0.20000 0.00000 0.08500
v -0.24000 0.00000 0.11500
v -0.24500 0.00500 0.11500
v -0.24500 0.04000 0.08500
v -0.24500 0.04000 0.11500
v -0.24500 0.00500 0.08500
v -0.20000 0.00500 0.12000
v -0.24000 0.04000 0.12000
v -0.20000 0.04000 0.12000
v -0.24000 0.00500 0.12000
v -0.20000 0.04500 0.08500
v -0.24000 0.04500 0.11500
v -0.24000 0.04500 0.08500
v -0.20000 0.04500 0.11500
v -0.24000 0.00500 0.08000
v -0.20000 0.04000 0.08000
v -0.24000 0.04000 0.08000
v -0.20000 0.00500 0.08000
v -0.19500 0.00500 0.08500
v -0.19500 0.04000 0.11500
v -0.19500 0.04000 0.08500
v -0.19500 0.00500 0.11500
v -0.18000 0.00000 0.13500
v -0.18500 0.00500 0.13500
v -0.18000 0.00500 0.14000
v -0.18000 0.04000 0.14000
v -0.18500 0.04000 0.13500
v -0.18000 0.04500 0.13500
v -0.18000 0.00000 0.10500
v -0.18000 0.00500 0.10000
v -0.18500 0.00500 0.10500
v -0.18000 0.04500 0.10500
v -0.18500 0.04000 0.10500
v -0.18000 0.04000 0.10000
v -0.14000 0.00000 0.13500
v -0.14000 0.00500 0.14000
v -0.13500 0.00500 0.13500
v -0.14000 0.04500 0.13500
v -0.13500 0.04000 0.13500
v -0.14000 0.04000 0.14000
v -0.14000 0.00000 0.10500
v -0.13500 0.00500 0.10500
v -0.14000 0.00500 0.10000
v -0.14000 0.04500 0.10500
v -0.14000 0.04000 0.10000
v -0.13500 0.04000 0.10500
v -0.18000 0.00000 0.10500
v -0.18500 0.00500 0.13500
v -0.18000 0.00000 0.13500
v -0.18500 0.00500 0.10500
v -0.18000 0.00500 0.14000
v -0.18500 0.04000 0.13500
v -0.18000 0.04000 0.14000
v -0.18500 0.00500 0.13500
v -0.18000 0.04500 0.13500
v -0.18500 0.04000 0.10500
v -0.18000 0.04500 0.10500
v -0.18500 0.04000 0.13500
v -0.18000 0.04000 0.10000
v -0.18500 0.00500 0.10500
v -0.18000 0.00500 0.10000
v -0.18500 0.04000 0.10500
v -0.14000 0.00000 0.10500
v -0.18000 0.00500 0.10000
v -0.18000 0.00000 0.10500
v -0.14000 0.00500 0.10000
v -0.18000 0.04500 0.10500
v -0.14000 0.04000 0.10000
v -0.14000 0.04500 0.10500
v -0.18000 0.04000 0.10000
v -0.13500 0.04000 0.10500
v -0.14000 0.00500 0.10000
v -0.13500 0.00500 0.10500
v -0.14000 0.04000 0.10000
v -0.14000 0.00000 0.13500
v -0.13500 0.00500 0.10500
v -0.14000 0.00000 0.10500
v -0.13500 0.00500 0.13500
v -0.14000 0.04500 0.10500
v -0.13500 0.04000 0.13500
v -0.14000 0.04500 0.13500
v -0.13500 0.04000 0.10500
v -0.14000 0.04000 0.14000
v -0.13500 0.00500 0.13500
v -0.14000 0.00500 0.14000
v -0.13500 0.04000 0.13500
v -0.18000 0.00000 0.13500
v -0.14000 0.00500 0.14000
v -0.14000 0.00000 0.13500
v -0.18000 0.00500 0.14000
v -0.14000 0.04500 0.13500
v -0.18000 0.04000 0.14000
v -0.18000 0.04500 0.13500
v -0.14000 0.04000 0.14000
v -0.18000 0.00000 0.10500
v -0.14000 0.00000 0.13500
v -0.14000 0.00000 0.10500
v -0.18000 0.00000 0.13500
v -0.18500 0.00500 0.13500
v -0.18500 0.04000 0.10500
v -0.18500 0.04000 0.13500
v -0.18500 0.00500 0.10500
v -0.14000 0.00500 0.14000
v -0.18000 0.04000 0.14000
v -0.14000 0.04000 0.14000
v -0.18000 0.00500 0.14000
v -0.14000 0.04500 0.10500
v -0.18000 0.04500 0.13500
v -0.18000 0.04500 0.10500
v -0.14000 0.04500 0.13500
v -0.18000 0.00500 0.10000
v -0.14000 0.04000 0.10000
v -0.18000 0.04000 0.10000
v -0.14000 0.00500 0.10000
v -0.13500 0.00500 0.10500
v -0.13500 0.04000 0.13500
v -0.13500 0.04000 0.10500
v -0.13500 0.00500 0.13500
v -0.21000 0.04500 0.12500
v -0.21500 0.05000 0.12500
v -0.21000 0.05000 0.13000
v -0.21000 0.08500 0.13000
v -0.21500 0.08500 0.12500
v -0.21000 0.09000 0.12500
v -0.21000 0.04500 0.09500
v -0.21000 0.05000 0.09000
v -0.21500 0.05000 0.09500
v -0.21000 0.09000 0.09500
v -0.21500 0.08500 0.09500
v -0.21000 0.08500 0.09000
v -0.17000 0.04500 0.12500
v -0.17000 0.05000 0.13000
v -0.16500 0.05000 0.12500
v -0.17000 0.09000 0.12500
v -0.16500 0.08500 0.12500
v -0.17000 0.08500 0.13000
v -0.17000 0.04500 0.09500
v -0.16500 0.05000 0.09500
v -0.17000 0.05000 0.09000
v -0.17000 0.09000 0.09500
v -0.17000 0.08500 0.09000
v -0.16500 0.08500 0.09500
v -0.21000 0.04500 0.09500
v -0.21500 0.05000 0.12500
v -0.21000 0.04500 0.12500
v -0.21500 0.05000 0.09500
v -0.21000 0.05000 0.13000
v -0.21500 0.08500 0.12500
v -0.21000 0.08500 0.13000
v -0.21500 0.05000 0.12500
v -0.21000 0.09000 0.12500
v -0.21500 0.08500 0.09500
v -0.21000 0.09000 0.09500
v -0.21500 0.08500 0.12500
v -0.21000 0.08500 0.09000
v -0.21500 0.05000 0.09500
v -0.21000 0.05000 0.09000
v -0.21500 0.08500 0.09500
v -0.17000 0.04500 0.09500
v -0.21000 0.05000 0.09000
v -0.21000 0.04500 0.09500
v -0.17000 0.05000 0.09000
v -0.21000 0.09000 0.09500
v -0.17000 0.08500 0.09000
v -0.17000 0.09000 0.09500
v -0.21000 0.08500 0.09000
v -0.16500 0.08500 0.09500
v -0.17000 0.05000 0.09000
v -0.16500 0.05000 0.09500
v -0.17000 0.08500 0.09000
v -0.17000 0.04500 0.12500
v -0.16500 0.05000 0.09500
v -0.17000 0.04500 0.09500
v -0.16500 0.05000 0.12500
v -0.17000 0.09000 0.09500
v -0.16500 0.08500 0.12500
v -0.17000 0.09000 0.12500
v -0.16500 0.08500 0.09500
v -0.17000 0.08500 0.13000
v -0.16500 0.05000 0.12500
v -0.17000 0.05000 0.13000
v -0.16500 0.08500 0.12500
v -0.21000 0.04500 0.12500
v -0.17000 0.05000 0.13000
v -0.17000 0.04500 0.12500
v -0.21000 0.05000 0.13000
v -0.17000 0.09000 0.12500
v -0.21000 0.08500 0.13000
v -0.21000 0.09000 0.12500
v -0.17000 0.08500 0.13000
v -0.21000 0.04500 0.09500
v -0.17000 0.04500 0.12500
v -0.17000 0.04500 0.09500
v -0.21000 0.04500 0.12500
v -0.21500 0.05000 0.12500
v -0.21500 0.08500 0.09500
v -0.21500 0.08500 0.12500
v -0.21500 0.05000 0.09500
v -0.17000 0.05000 0.13000
v -0.21000 0.08500 0.13000
v -0.17000 0.08500 0.13000
v -0.21000 0.05000 0.13000
v -0.17000 0.09000 0.09500
v -0.21000 0.09000 0.12500
v -0.21000 0.09000 0.09500
v -0.17000 0.09000 0.12500
v -0.21000 0.05000 0.09000
v -0.17000 0.08500 0.09000
v -0.21000 0.08500 0.09000
v -0.17000 0.05000 0.09000
v -0.16500 0.05000 0.09500
v -0.16500 0.08500 0.12500
v -0.16500 0.08500 0.09500
v -0.16500 0.05000 0.12500
v 0.22000 0.00000 0.17500
v 0.21500 0.00500 0.17500
v 0.22000 0.00500 0.18000
v 0.22000 0.04000 0.18000
v 0.21500 0.04000 0.17500
v 0.22000 0.04500 0.17500
v 0.22000 0.00000 0.14500
v 0.22000 0.00500 0.14000
v 0.21500 0.00500 0.14500
v 0.22000 0.04500 0.14500
v 0.21500 0.04000 0.14500
v 0.22000 0.04000 0.14000
v 0.26000 0.00000 0.17500
v 0.26000 0.00500 0.18000
v 0.26500 0.00500 0.17500
v 0.26000 0.04500 0.17500
v 0.26500 0.04000 0.17500
v 0.26000 0.04000 0.18000
v 0.26000 0.00000 0.14500
v 0.26500 0.00500 0.14500
v 0.26000 0.00500 0.14000
v 0.26000 0.04500 0.14500
v 0.26000 0.04000 0.14000
v 0.26500 0.04000 0.14500
v 0.22000 0.00000 0.14500
v 0.21500 0.00500 0.17500
v 0.22000 0.00000 0.17500
v 0.21500 0.00500 0.14500
v 0.22000 0.00500 0.18000
v 0.21500 0.04000 0.17500
v 0.22000 0.04000 0.18000
v 0.21500 0.00500 0.17500
v 0.22000 0.04500 0.17500
v 0.21500 0.04000 0.14500
v 0.22000 0.04500 0.14500
v 0.21500 0.04000 0.17500
v 0.22000 0.04000 0.14000
v 0.21500 0.00500 0.14500
v 0.22000 0.00500 0.14000
v 0.21500 0.04000 0.14500
v 0.26000 0.00000 0.14500
v 0.22000 0.00500 0.14000
v 0.22000 0.00000 0.14500
v 0.26000 0.00500 0.14000
v 0.22000 0.04500 0.14500
v 0.26000 0.04000 0.14000
v 0.26000 0.04500 0.14500
v 0.22000 0.04000 0.14000
v 0.26500 0.04000 0.14500
v 0.26000 0.00500 0.14000
v 0.26500 0.00500 0.14500
v 0.26000 0.04000 0.14000
v 0.26000 0.00000 0.17500
v 0.26500 0.00500 0.14500
v 0.26000 0.00000 0.14500
v 0.26500 0.00500 0.17500
v 0.26000 0.04500 0.14500
v 0.26500 0.04000 0.17500
v 0.26000 0.04500 0.17500
v 0.26500 0.04000 0.14500
v 0.26000 0.04000 0.18000
v 0.26500 0.00500 0.17500
v 0.26000 0.00500 0.18000
v 0.26500 0.04000 0.17500
v 0.22000 0.00000 0.17500
v 0.26000 0.00500 0.18000
v 0.26000 0.00000 0.17500
v 0.22000 0.00500 0.18000
v 0.26000 0.04500 0.17500
v 0.22000 0.04000 0.18000
v 0.22000 0.04500 0.17500
v 0.26000 0.04000 0.18000
v 0.22000 0.00000 0.14500
v 0.26000 0.00000 0.17500
v 0.26000 0.00000 0.14500
v 0.22000 0.00000 0.17500
v 0.21500 0.00500 0.17500
v 0.21500 0.04000 0.14500
v 0.21500 0.04000 0.17500
v 0.21500 0.00500 0.14500
v 0.26000 0.00500 0.18000
v 0.22000 0.04000 0.18000
v 0.26000 0.04000 0.18000
v 0.22000 0.00500 0.18000
v 0.26000 0.04500 0.14500
v 0.22000 0.04500 0.17500
v 0.22000 0.04500 0.14500
v 0.26000 0.04500 0.17500
v 0.22000 0.00500 0.14000
v 0.26000 0.04000 0.14000
v 0.22000 0.04000 0.14000
v 0.26000 0.00500 0.14000
v 0.26500 0.00500 0.14500
v 0.26500 0.04000 0.17500
v 0.26500 0.04000 0.14500
v 0.26500 0.00500 0.17500
v -0.01600 0.07000 0.09100
v -0.02000 0.07400 0.09100
v -0.01600 0.07400 0.09500
v -0.01600 0.09600 0.09500
v -0.02000 0.09600 0.09100
v -0.01600 0.10000 0.09100
v -0.01600 0.07000 0.06900
v -0.01600 0.07400 0.06500
v -0.02000 0.07400 0.06900
v -0.01600 0.10000 0.06900
v -0.02000 0.09600 0.06900
v -0.01600 0.09600 0.06500
v 0.01600 0.07000 0.09100
v 0.01600 0.07400 0.09500
v 0.02000 0.07400 0.09100
v 0.01600 0.10000 0.09100
v 0.02000 0.09600 0.09100
v 0.01600 0.09600 0.09500
v 0.01600 0.07000 0.06900
v 0.02000 0.07400 0.06900
v 0.01600 0.07400 0.06500
v 0.01600 0.10000 0.06900
v 0.01600 0.09600 0.06500
v 0.02000 0.09600 0.06900
v -0.01600 0.07000 0.06900
v -0.02000 0.07400 0.09100
v -0.01600 0.07000 0.09100
v -0.02000 0.07400 0.06900
v -0.01600 0.07400 0.09500
v -0.02000 0.09600 0.09100
v -0.01600 0.09600 0.09500
v -0.02000 0.07400 0.09100
v -0.01600 0.10000 0.09100
v -0.02000 0.09600 0.06900
v -0.01600 0.10000 0.06900
v -0.02000 0.09600 0.09100
v -0.01600 0.09600 0.06500
v -0.02000 0.07400 0.06900
v -0.01600 0.07400 0.06500
v -0.02000 0.09600 0.06900
v 0.01600 0.07000 0.06900
v -0.01600 0.07400 0.06500
v -0.01600 0.07000 0.06900
v 0.01600 0.07400 0.06500
v -0.01600 0.10000 0.06900
v 0.01600 0.09600 0.06500
v 0.01600 0.10000 0.06900
v -0.01600 0.09600 0.06500
v 0.02000 0.09600 0.06900
v 0.01600 0.07400 0.06500
v 0.02000 0.07400 0.06900
v 0.01600 0.09600 0.06500
v 0.01600 0.07000 0.09100
v 0.02000 0.07400 0.06900
v 0.01600 0.07000 0.06900
v 0.02000 0.07400 0.09100
v 0.01600 0.10000 0.06900
v 0.02000 0.09600 0.09100
v 0.01600 0.10000 0.09100
v 0.02000 0.09600 0.06900
v 0.01600 0.09600 0.09500
v 0.02000 0.07400 0.09100
v 0.01600 0.07400 0.09500
v 0.02000 0.09600 0.09100
v -0.01600 0.07000 0.09100
v 0.01600 0.07400 0.09500
v 0.01600 0.07000 0.09100
v -0.01600 0.07400 0.09500
v 0.01600 0.10000 0.09100
v -0.01600 0.09600 0.09500
v -0.01600 0.10000 0.09100
v 0.01600 0.09600 0.09500
v -0.01600 0.07000 0.06900
v 0.01600 0.07000 0.09100
v 0.01600 0.07000 0.06900
v -0.01600 0.07000 0.09100
v -0.02000 0.07400 0.09100
v -0.02000 0.09600 0.06900
v -0.02000 0.09600 0.09100
v -0.02000 0.07400 0.06900
v 0.01600 0.07400 0.09500
v -0.01600 0.09600 0.09500
v 0.01600 0.09600 0.09500
v -0.01600 0.07400 0.09500
v 0.01600 0.10000 0.06900
v -0.01600 0.10000 0.09100
v -0.01600 0.10000 0.06900
v 0.01600 0.10000 0.09100
v -0.01600 0.07400 0.06500
v 0.01600 0.09600 0.06500
v -0.01600 0.09600 0.06500
v 0.01600 0.07400 0.06500
v 0.02000 0.07400 0.06900
v 0.02000 0.09600 0.09100
v 0.02000 0.09600 0.06900
v 0.02000 0.07400 0.09100
vn -0.5774 -0.5773 0.5774
vn -0.5774 -0.5773 0.5774
vn -0.5774 -0.5773 0.5774
vn -0.5774 0.5772 0.5774
vn -0.5774 0.5772 0.5774
vn -0.5774 0.5772 0.5774
vn -0.5773 -0.5774 -0.5774
vn -0.5773 -0.5774 -0.5774
vn -0.5773 -0.5774 -0.5774
vn -0.5773 0.5774 -0.5774
vn -0.5773 0.5774 -0.5774
vn -0.5773 0.5774 -0.5774
vn 0.5774 -0.5773 0.5774
vn 0.5774 -0.5773 0.5774
vn 0.5774 -0.5773 0.5774
vn 0.5774 0.5772 0.5775
vn 0.5774 0.5772 0.5775
vn 0.5774 0.5772 0.5775
vn 0.5773 -0.5774 -0.5774
vn 0.5773 -0.5774 -0.5774
vn 0.5773 -0.5774 -0.5774
vn 0.5773 0.5774 -0.5773
vn 0.5773 0.5774 -0.5773
vn 0.5773 0.5774 -0.5773
vn -0.7071 -0.7071 -0.0001
vn -0.7071 -0.7071 -0.0001
vn -0.7071 -0.7071 -0.0001
vn -0.7071 -0.7071 -0.0001
vn -0.7071 -0.0000 0.7071
vn -0.7071 -0.0000 0.7071
vn -0.7071 -0.0000 0.7071
vn -0.7071 -0.0000 0.7071
vn -0.7071 0.7071 -0.0000
vn -0.7071 0.7071 -0.0000
vn -0.7071 0.7071 -0.0000
vn -0.7071 0.7071 -0.0000
vn -0.7071 0.0000 -0.7071
vn -0.7071 0.0000 -0.7071
vn -0.7071 0.0000 -0.7071
vn -0.7071 0.0000 -0.7071
vn 0.0000 -0.7071 -0.7071
vn 0.0000 -0.7071 -0.7071
vn 0.0000 -0.7071 -0.7071
vn 0.0000 -0.7071 -0.7071
vn 0.0000 0.7071 -0.7071
vn 0.0000 0.7071 -0.7071
vn 0.0000 0.7071 -0.7071
vn 0.0000 0.7071 -0.7071
vn 0.7071 0.0000 -0.7071
vn 0.7071 0.0000 -0.7071
vn 0.7071 0.0000 -0.7071
vn 0.7071 0.0000 -0.7071
vn 0.7071 -0.7071 -0.0000
vn 0.7071 -0.7071 -0.0000
vn 0.7071 -0.7071 -0.0000
vn 0.7071 -0.7071 -0.0000
vn 0.7071 0.7071 0.0000
vn 0.7071 0.7071 0.0000
vn 0.7071 0.7071 0.0000
vn 0.7071 0.7071 0.0000
vn 0.7071 -0.0000 0.7071
vn 0.7071 -0.0000 0.7071
vn 0.7071 -0.0000 0.7071
vn 0.7071 -0.0000 0.7071
vn -0.0000 -0.7071 0.7071
vn -0.0000 -0.7071 0.7071
vn -0.0000 -0.7071 0.7071
vn -0.0000 -0.7071 0.7071
vn -0.0000 0.7071 0.7071
vn -0.0000 0.7071 0.7071
vn -0.0000 0.7071 0.7071
vn -0.0000 0.7071 0.7071
vn 0.0000 -1.0000 -0.0000
vn 0.0000 -1.0000 -0.0000
vn 0.0000 -1.0000 -0.0000
vn 0.0000 -1.0000 -0.0000
vn -1.0000 0.0000 -0.0000
vn -1.0000 0.0000 -0.0000
vn -1.0000 0.0000 -0.0000
vn -1.0000 0.0000 -0.0000
vn -0.0000 -0.0000 1.0000
vn -0.0000 -0.0000 1.0000
vn -0.0000 -0.0000 1.0000
vn -0.0000 -0.0000 1.0000
vn 0.0000 1.0000 -0.0000
vn 0.0000 1.0000 -0.0000
vn 0.0000 1.0000 -0.0000
vn 0.0000 1.0000 -0.0000
vn 0.0000 0.0000 -1.0000
vn 0.0000 0.0000 -1.0000
vn 0.0000 0.0000 -1.0000
vn 0.0000 0.0000 -1.0000
vn 1.0000 0.0000 -0.0000
vn 1.0000 0.0000 -0.0000
vn 1.0000 0.0000 -0.0000
vn 1.0000 0.0000 -0.0000
vn -0.5774 -0.5773 0.5774
vn -0.5774 -0.5773 0.5774
vn -0.5774 -0.5773 0.5774
vn -0.5773 0.5774 0.5774
vn -0.5773 0.5774 0.5774
vn -0.5773 0.5774 0.5774
vn -0.5773 -0.5774 -0.5774
vn -0.5773 -0.5774 -0.5774
vn -0.5773 -0.5774 -0.5774
vn -0.5773 0.5774 -0.5774
vn -0.5773 0.5774 -0.5774
vn -0.5773 0.5774 -0.5774
vn 0.5774 -0.5774 0.5773
vn 0.5774 -0.5774 0.5773
vn 0.5774 -0.5774 0.5773
vn 0.5774 0.5774 0.5774
vn 0.5774 0.5774 0.5774
vn 0.5774 0.5774 0.5774
vn 0.5774 -0.5774 -0.5772
vn 0.5774 -0.5774 -0.5772
vn 0.5774 -0.5774 -0.5772
vn 0.5774 0.5774 -0.5772
vn 0.5774 0.5774 -0.5772
vn 0.5774 0.5774 -0.5772
vn -0.7071 -0.7071 -0.0001
vn -0.7071 -0.7071 -0.0001
vn -0.7071 -0.7071 -0.0001
vn -0.7071 -0.7071 -0.0001
vn -0.7071 -0.0000 0.7071
vn -0.7071 -0.0000 0.7071
vn -0.7071 -0.0000 0.7071
vn -0.7071 -0.0000 0.7071
vn -0.7071 0.7071 -0.0000
vn -0.7071 0.7071 -0.0000
vn -0.7071 0.7071 -0.0000
vn -0.7071 0.7071 -0.0000
vn -0.7071 0.0000 -0.7071
vn -0.7071 0.0000 -0.7071
vn -0.7071 0.0000 -0.7071
vn -0.7071 0.0000 -0.7071
vn 0.0000 -0.7071 -0.7071
vn 0.0000 -0.7071 -0.7071
vn 0.0000 -0.7071 -0.7071
vn 0.0000 -0.7071 -0.7071
vn 0.0000 0.7071 -0.7071
vn 0.0000 0.7071 -0.7071
vn 0.0000 0.7071 -0.7071
vn 0.0000 0.7071 -0.7071
vn 0.7071 0.0000 -0.7071
vn 0.7071 0.0000 -0.7071
vn 0.7071 0.0000 -0.7071
vn 0.7071 0.0000 -0.7071
vn 0.7071 -0.7071 -0.0000
vn 0.7071 -0.7071 -0.0000
vn 0.7071 -0.7071 -0.0000
vn 0.7071 -0.7071 -0.0000
vn 0.7071 0.7071 0.0000
vn 0.7071 0.7071 0.0000
vn 0.7071 0.7071 0.0000
vn 0.7071 0.7071 0.0000
vn 0.7071 -0.0000 0.7071
vn 0.7071 -0.0000 0.7071
vn 0.7071 -0.0000 0.7071
vn 0.7071 -0.0000 0.7071
vn -0.0000 -0.7071 0.7071
vn -0.0000 -0.7071 0.7071
vn -0.0000 -0.7071 0.7071
vn -0.0000 -0.7071 0.7071
vn -0.0000 0.7071 0.7071
vn -0.0000 0.7071 0.7071
vn -0.0000 0.7071 0.7071
vn -0.0000 0.7071 0.7071
vn 0.0000 -1.0000 -0.0000
vn 0.0000 -1.0000 -0.0000
vn 0.0000 -1.0000 -0.0000
vn 0.0000 -1.0000 -0.0000
vn -1.0000 0.0000 -0.0000
vn -1.0000 0.0000 -0.0000
vn -1.0000 0.0000 -0.0000
vn -1.0000 0.0000 -0.0000
vn -0.0000 -0.0000 1.0000
vn -0.0000 -0.0000 1.0000
vn -0.0000 -0.0000 1.0000
vn -0.0000 -0.0000 1.0000
vn 0.0000 1.0000 -0.0000
vn 0.0000 1.0000 -0.0000
vn 0.0000 1.0000 -0.0000
vn 0.0000 1.0000 -0.0000
vn 0.0000 0.0000 -1.0000
vn 0.0000 0.0000 -1.0000
vn 0.0000 0.0000 -1.0000
vn 0.0000 0.0000 -1.0000
vn 1.0000 0.0000 -0.0000
vn 1.0000 0.0000 -0.0000
vn 1.0000 0.0000 -0.0000
vn 1.0000 0.0000 -0.0000
vn -0.5774 -0.5774 0.5772
vn -0.5774 -0.5774 0.5772
vn -0.5774 -0.5774 0.5772
vn -0.5774 0.5774 0.5773
vn -0.5774 0.5774 0.5773
vn -0.5774 0.5774 0.5773
vn -0.5773 -0.5774 -0.5774
vn -0.5773 -0.5774 -0.5774
vn -0.5773 -0.5774 -0.5774
vn -0.5774 0.5773 -0.5774
vn -0.5774 0.5773 -0.5774
vn -0.5774 0.5773 -0.5774
vn 0.5773 -0.5775 0.5773
vn 0.5773 -0.5775 0.5773
vn 0.5773 -0.5775 0.5773
vn 0.5773 0.5774 0.5774
vn 0.5773 0.5774 0.5774
vn 0.5773 0.5774 0.5774
vn 0.5773 -0.5774 -0.5774
vn 0.5773 -0.5774 -0.5774
vn 0.5773 -0.5774 -0.5774
vn 0.5774 0.5774 -0.5773
vn 0.5774 0.5774 -0.5773
vn 0.5774 0.5774 -0.5773
vn -0.7071 -0.7071 -0.0001
vn -0.7071 -0.7071 -0.0001
vn -0.7071 -0.7071 -0.0001
vn -0.7071 -0.7071 -0.0001
vn -0.7071 -0.0000 0.7071
vn -0.7071 -0.0000 0.7071
vn -0.7071 -0.0000 0.7071
vn -0.7071 -0.0000 0.7071
vn -0.7071 0.7071 -0.0000
vn -0.7071 0.7071 -0.0000
vn -0.7071 0.7071 -0.0000
vn -0.7071 0.7071 -0.0000
vn -0.7071 0.0000 -0.7071
vn -0.7071 0.0000 -0.7071
vn -0.7071 0.0000 -0.7071
vn -0.7071 0.0000 -0.7071
vn 0.0000 -0.7071 -0.7071
vn 0.0000 -0.7071 -0.7071
vn 0.0000 -0.7071 -0.7071
vn 0.0000 -0.7071 -0.7071
vn 0.0000 0.7071 -0.7071
vn 0.0000 0.7071 -0.7071
vn 0.0000 0.7071 -0.7071
vn 0.0000 0.7071 -0.7071
vn 0.7071 0.0000 -0.7071
vn 0.7071 0.0000 -0.7071
vn 0.7071 0.0000 -0.7071
vn 0.7071 0.0000 -0.7071
vn 0.7071 -0.7071 -0.0000
vn 0.7071 -0.7071 -0.0000
vn 0.7071 -0.7071 -0.0000
vn 0.7071 -0.7071 -0.0000
vn 0.7071 0.7071 0.0000
vn 0.7071 0.7071 0.0000
vn 0.7071 0.7071 0.0000
vn 0.7071 0.7071 0.0000
vn 0.7071 -0.0000 0.7071
vn 0.7071 -0.0000 0.7071
vn 0.7071 -0.0000 0.7071
vn 0.7071 -0.0000 0.7071
vn -0.0000 -0.7071 0.7071
vn -0.0000 -0.7071 0.7071
vn -0.0000 -0.7071 0.7071
vn -0.0000 -0.7071 0.7071
vn -0.0000 0.7071 0.7071
vn -0.0000 0.7071 0.7071
vn -0.0000 0.7071 0.7071
vn -0.0000 0.7071 0.7071
vn 0.0000 -1.0000 -0.0000
vn 0.0000 -1.0000 -0.0000
vn 0.0000 -1.0000 -0.0000
vn 0.0000 -1.0000 -0.0000
vn -1.0000 0.0000 -0.0000
vn -1.0000 0.0000 -0.0000
vn -1.0000 0.0000 -0.0000
vn -1.0000 0.0000 -0.0000
vn -0.0000 -0.0000 1.0000
vn -0.0000 -0.0000 1.0000
vn -0.0000 -0.0000 1.0000
vn -0.0000 -0.0000 1.0000
vn 0.0000 1.0000 -0.0000
vn 0.0000 1.0000 -0.0000
vn 0.0000 1.0000 -0.0000
vn 0.0000 1.0000 -0.0000
vn 0.0000 0.0000 -1.0000
vn 0.0000 0.0000 -1.0000
vn 0.0000 0.0000 -1.0000
vn 0.0000 0.0000 -1.0000
vn 1.0000 0.0000 -0.0000
vn 1.0000 0.0000 -0.0000
vn 1.0000 0.0000 -0.0000
vn 1.0000 0.0000 -0.0000
vn -0.5774 -0.5774 0.5774
vn -0.5774 -0.5774 0.5774
vn -0.5774 -0.5774 0.5774
vn -0.5774 0.5773 0.5774
vn -0.5774 0.5773 0.5774
vn -0.5774 0.5773 0.5774
vn -0.5773 -0.5774 -0.5774
vn -0.5773 -0.5774 -0.5774
vn -0.5773 -0.5774 -0.5774
vn -0.5773 0.5774 -0.5774
vn -0.5773 0.5774 -0.5774
vn -0.5773 0.5774 -0.5774
vn 0.5773 -0.5775 0.5773
vn 0.5773 -0.5775 0.5773
vn 0.5773 -0.5775 0.5773
vn 0.5773 0.5773 0.5775
vn 0.5773 0.5773 0.5775
vn 0.5773 0.5773 0.5775
vn 0.5773 -0.5774 -0.5774
vn 0.5773 -0.5774 -0.5774
vn 0.5773 -0.5774 -0.5774
vn 0.5773 0.5774 -0.5773
vn 0.5773 0.5774 -0.5773
vn 0.5773 0.5774 -0.5773
vn -0.7071 -0.7071 -0.0001
vn -0.7071 -0.7071 -0.0001
vn -0.7071 -0.7071 -0.0001
vn -0.7071 -0.7071 -0.0001
vn -0.7071 -0.0000 0.7071
vn -0.7071 -0.0000 0.7071
vn -0.7071 -0.0000 0.7071
vn -0.7071 -0.0000 0.7071
vn -0.7071 0.7071 -0.0000
vn -0.7071 0.7071 -0.0000
vn -0.7071 0.7071 -0.0000
vn -0.7071 0.7071 -0.0000
vn -0.7071 0.0000 -0.7071
vn -0.7071 0.0000 -0.7071
vn -0.7071 0.0000 -0.7071
vn -0.7071 0.0000 -0.7071
vn 0.0000 -0.7071 -0.7071
vn 0.0000 -0.7071 -0.7071
vn 0.0000 -0.7071 -0.7071
vn 0.0000 -0.7071 -0.7071
vn 0.0000 0.7071 -0.7071
vn 0.0000 0.7071 -0.7071
vn 0.0000 0.7071 -0.7071
vn 0.0000 0.7071 -0.7071
vn 0.7071 0.0000 -0.7071
vn 0.7071 0.0000 -0.7071
vn 0.7071 0.0000 -0.7071
vn 0.7071 0.0000 -0.7071
vn 0.7071 -0.7071 -0.0000
vn 0.7071 -0.7071 -0.0000
vn 0.7071 -0.7071 -0.0000
vn 0.7071 -0.7071 -0.0000
vn 0.7071 0.7071 0.0000
vn 0.7071 0.7071 0.0000
vn 0.7071 0.7071 0.0000
vn 0.7071 0.7071 0.0000
vn 0.7071 -0.0000 0.7071
vn 0.7071 -0.0000 0.7071
vn 0.7071 -0.0000 0.7071
vn 0.7071 -0.0000 0.7071
vn -0.0000 -0.7071 0.7071
vn -0.0000 -0.7071 0.7071
vn -0.0000 -0.7071 0.7071
vn -0.0000 -0.7071 0.7071
vn -0.0000 0.7071 0.7071
vn -0.0000 0.7071 0.7071
vn -0.0000 0.7071 0.7071
vn -0.0000 0.7071 0.7071
vn 0.0000 -1.0000 -0.0000
vn 0.0000 -1.0000 -0.0000
vn 0.0000 -1.0000 -0.0000
vn 0.0000 -1.0000 -0.0000
vn -1.0000 0.0000 -0.0000
vn -1.0000 0.0000 -0.0000
vn -1.0000 0.0000 -0.0000
vn -1.0000 0.0000 -0.0000
vn -0.0000 -0.0000 1.0000
vn -0.0000 -0.0000 1.0000
vn -0.0000 -0.0000 1.0000
vn -0.0000 -0.0000 1.0000
vn 0.0000 1.0000 -0.0000
vn 0.0000 1.0000 -0.0000
vn 0.0000 1.0000 -0.0000
vn 0.0000 1.0000 -0.0000
vn 0.0000 0.0000 -1.0000
vn 0.0000 0.0000 -1.0000
vn 0.0000 0.0000 -1.0000
vn 0.0000 0.0000 -1.0000
vn 1.0000 0.0000 -0.0000
vn 1.0000 0.0000 -0.0000
vn 1.0000 0.0000 -0.0000
vn 1.0000 0.0000 -0.0000
vn -0.5774 -0.5774 0.5774
vn -0.5774 -0.5774 0.5774
vn -0.5774 -0.5774 0.5774
vn -0.5774 0.5773 0.5774
vn -0.5774 0.5773 0.5774
vn -0.5774 0.5773 0.5774
vn -0.5773 -0.5774 -0.5774
vn -0.5773 -0.5774 -0.5774
vn -0.5773 -0.5774 -0.5774
vn -0.5773 0.5773 -0.5775
vn -0.5773 0.5773 -0.5775
vn -0.5773 0.5773 -0.5775
vn 0.5772 -0.5774 0.5774
vn 0.5772 -0.5774 0.5774
vn 0.5772 -0.5774 0.5774
vn 0.5774 0.5774 0.5774
vn 0.5774 0.5774 0.5774
vn 0.5774 0.5774 0.5774
vn 0.5773 -0.5774 -0.5774
vn 0.5773 -0.5774 -0.5774
vn 0.5773 -0.5774 -0.5774
vn 0.5773 0.5774 -0.5773
vn 0.5773 0.5774 -0.5773
vn 0.5773 0.5774 -0.5773
vn -0.7071 -0.7071 -0.0001
vn -0.7071 -0.7071 -0.0001
vn -0.7071 -0.7071 -0.0001
vn -0.7071 -0.7071 -0.0001
vn -0.7071 -0.0000 0.7071
vn -0.7071 -0.0000 0.7071
vn -0.7071 -0.0000 0.7071
vn -0.7071 -0.0000 0.7071
vn -0.7071 0.7071 -0.0000
vn -0.7071 0.7071 -0.0000
vn -0.7071 0.7071 -0.0000
vn -0.7071 0.7071 -0.0000
vn -0.7071 0.0000 -0.7071
vn -0.7071 0.0000 -0.7071
vn -0.7071 0.0000 -0.7071
vn -0.7071 0.0000 -0.7071
vn 0.0000 -0.7071 -0.7071
vn 0.0000 -0.7071 -0.7071
vn 0.0000 -0.7071 -0.7071
vn 0.0000 -0.7071 -0.7071
vn 0.0000 0.7071 -0.7071
vn 0.0000 0.7071 -0.7071
vn 0.0000 0.7071 -0.7071
vn 0.0000 0.7071 -0.7071
vn 0.7071 0.0000 -0.7071
vn 0.7071 0.0000 -0.7071
vn 0.7071 0.0000 -0.7071
vn 0.7071 0.0000 -0.7071
vn 0.7071 -0.7071 -0.0000
vn 0.7071 -0.7071 -0.0000
vn 0.7071 -0.7071 -0.0000
vn 0.7071 -0.7071 -0.0000
vn 0.7071 0.7071 0.0000
vn 0.7071 0.7071 0.0000
vn 0.7071 0.7071 0.0000
vn 0.7071 0.7071 0.0000
vn 0.7071 -0.0000 0.7071
vn 0.7071 -0.0000 0.7071
vn 0.7071 -0.0000 0.7071
vn 0.7071 -0.0000 0.7071
vn -0.0000 -0.7071 0.7071
vn -0.0000 -0.7071 0.7071
vn -0.0000 -0.7071 0.7071
vn -0.0000 -0.7071 0.7071
vn -0.0000 0.7071 0.7071
vn -0.0000 0.7071 0.7071
vn -0.0000 0.7071 0.7071
vn -0.0000 0.7071 0.7071
vn 0.0000 -1.0000 -0.0000
vn 0.0000 -1.0000 -0.0000
vn 0.0000 -1.0000 -0.0000
vn 0.0000 -1.0000 -0.0000
vn -1.0000 0.0000 -0.0000
vn -1.0000 0.0000 -0.0000
vn -1.0000 0.0000 -0.0000
vn -1.0000 0.0000 -0.0000
vn -0.0000 -0.0000 1.0000
vn -0.0000 -0.0000 1.0000
vn -0.0000 -0.0000 1.0000
vn -0.0000 -0.0000 1.0000
vn 0.0000 1.0000 -0.0000
vn 0.0000 1.0000 -0.0000
vn 0.0000 1.0000 -0.0000
vn 0.0000 1.0000 -0.0000
vn 0.0000 0.0000 -1.0000
vn 0.0000 0.0000 -1.0000
vn 0.0000 0.0000 -1.0000
vn 0.0000 0.0000 -1.0000
vn 1.0000 0.0000 -0.0000
vn 1.0000 0.0000 -0.0000
vn 1.0000 0.0000 -0.0000
vn 1.0000 0.0000 -0.0000
vn -0.5774 -0.5774 0.5774
vn -0.5774 -0.5774 0.5774
vn -0.5774 -0.5774 0.5774
vn -0.5773 0.5774 0.5774
vn -0.5773 0.5774 0.5774
vn -0.5773 0.5774 0.5774
vn -0.5773 -0.5773 -0.5775
vn -0.5773 -0.5773 -0.5775
vn -0.5773 -0.5773 -0.5775
vn -0.5773 0.5774 -0.5774
vn -0.5773 0.5774 -0.5774
vn -0.5773 0.5774 -0.5774
vn 0.5772 -0.5774 0.5774
vn 0.5772 -0.5774 0.5774
vn 0.5772 -0.5774 0.5774
vn 0.5772 0.5774 0.5775
vn 0.5772 0.5774 0.5775
vn 0.5772 0.5774 0.5775
vn 0.5773 -0.5774 -0.5774
vn 0.5773 -0.5774 -0.5774
vn 0.5773 -0.5774 -0.5774
vn 0.5773 0.5774 -0.5773
vn 0.5773 0.5774 -0.5773
vn 0.5773 0.5774 -0.5773
vn -0.7071 -0.7071 -0.0001
vn -0.7071 -0.7071 -0.0001
vn -0.7071 -0.7071 -0.0001
vn -0.7071 -0.7071 -0.0001
vn -0.7071 -0.0000 0.7071
vn -0.7071 -0.0000 0.7071
vn -0.7071 -0.0000 0.7071
vn -0.7071 -0.0000 0.7071
vn -0.7071 0.7071 -0.0000
vn -0.7071 0.7071 -0.0000
vn -0.7071 0.7071 -0.0000
vn -0.7071 0.7071 -0.0000
vn -0.7071 0.0000 -0.7071
vn -0.7071 0.0000 -0.7071
vn -0.7071 0.0000 -0.7071
vn -0.7071 0.0000 -0.7071
vn 0.0000 -0.7071 -0.7071
vn 0.0000 -0.7071 -0.7071
vn 0.0000 -0.7071 -0.7071
vn 0.0000 -0.7071 -0.7071
vn 0.0000 0.7071 -0.7071
vn 0.0000 0.7071 -0.7071
vn 0.0000 0.7071 -0.7071
vn 0.0000 0.7071 -0.7071
vn 0.7071 0.0000 -0.7071
vn 0.7071 0.0000 -0.7071
vn 0.7071 0.0000 -0.7071
vn 0.7071 0.0000 -0.7071
vn 0.7071 -0.7071 -0.0000
vn 0.7071 -0.7071 -0.0000
vn 0.7071 -0.7071 -0.0000
vn 0.7071 -0.7071 -0.0000
vn 0.7071 0.7071 0.0000
vn 0.7071 0.7071 0.0000
vn 0.7071 0.7071 0.0000
vn 0.7071 0.7071 0.0000
vn 0.7071 -0.0000 0.7071
vn 0.7071 -0.0000 0.7071
vn 0.7071 -0.0000 0.7071
vn 0.7071 -0.0000 0.7071
vn -0.0000 -0.7071 0.7071
vn -0.0000 -0.7071 0.7071
vn -0.0000 -0.7071 0.7071
vn -0.0000 -0.7071 0.7071
vn -0.0000 0.7071 0.7071
vn -0.0000 0.7071 0.7071
vn -0.0000 0.7071 0.7071
vn -0.0000 0.7071 0.7071
vn 0.0000 -1.0000 -0.0000
vn 0.0000 -1.0000 -0.0000
vn 0.0000 -1.0000 -0.0000
vn 0.0000 -1.0000 -0.0000
vn -1.0000 0.0000 -0.0000
vn -1.0000 0.0000 -0.0000
vn -1.0000 0.0000 -0.0000
vn -1.0000 0.0000 -0.0000
vn -0.0000 -0.0000 1.0000
vn -0.0000 -0.0000 1.0000
vn -0.0000 -0.0000 1.0000
vn -0.0000 -0.0000 1.0000
vn 0.0000 1.0000 -0.0000
vn 0.0000 1.0000 -0.0000
vn 0.0000 1.0000 -0.0000
vn 0.0000 1.0000 -0.0000
vn 0.0000 0.0000 -1.0000
vn 0.0000 0.0000 -1.0000
vn 0.0000 0.0000 -1.0000
vn 0.0000 0.0000 -1.0000
vn 1.0000 0.0000 -0.0000
vn 1.0000 0.0000 -0.0000
vn 1.0000 0.0000 -0.0000
vn 1.0000 0.0000 -0.0000
vn -0.5774 -0.5774 0.5772
vn -0.5774 -0.5774 0.5772
vn -0.5774 -0.5774 0.5772
vn -0.5774 0.5774 0.5773
vn -0.5774 0.5774 0.5773
vn -0.5774 0.5774 0.5773
vn -0.5773 -0.5774 -0.5774
vn -0.5773 -0.5774 -0.5774
vn -0.5773 -0.5774 -0.5774
vn -0.5773 0.5774 -0.5774
vn -0.5773 0.5774 -0.5774
vn -0.5773 0.5774 -0.5774
vn 0.5774 -0.5774 0.5773
vn 0.5774 -0.5774 0.5773
vn 0.5774 -0.5774 0.5773
vn 0.5774 0.5774 0.5774
vn 0.5774 0.5774 0.5774
vn 0.5774 0.5774 0.5774
vn 0.5773 -0.5774 -0.5774
vn 0.5773 -0.5774 -0.5774
vn 0.5773 -0.5774 -0.5774
vn 0.5774 0.5774 -0.5773
vn 0.5774 0.5774 -0.5773
vn 0.5774 0.5774 -0.5773
vn -0.7071 -0.7071 -0.0001
vn -0.7071 -0.7071 -0.0001
vn -0.7071 -0.7071 -0.0001
vn -0.7071 -0.7071 -0.0001
vn -0.7071 -0.0000 0.7071
vn -0.7071 -0.0000 0.7071
vn -0.7071 -0.0000 0.7071
vn -0.7071 -0.0000 0.7071
vn -0.7071 0.7071 -0.0000
vn -0.7071 0.7071 -0.0000
vn -0.7071 0.7071 -0.0000
vn -0.7071 0.7071 -0.0000
vn -0.7071 0.0000 -0.7071
vn -0.7071 0.0000 -0.7071
vn -0.7071 0.0000 -0.7071
vn -0.7071 0.0000 -0.7071
vn 0.0000 -0.7071 -0.7071
vn 0.0000 -0.7071 -0.7071
vn 0.0000 -0.7071 -0.7071
vn 0.0000 -0.7071 -0.7071
vn 0.0000 0.7071 -0.7071
vn 0.0000 0.7071 -0.7071
vn 0.0000 0.7071 -0.7071
vn 0.0000 0.7071 -0.7071
vn 0.7071 0.0000 -0.7071
vn 0.7071 0.0000 -0.7071
vn 0.7071 0.0000 -0.7071
vn 0.7071 0.0000 -0.7071
vn 0.7071 -0.7071 -0.0000
vn 0.7071 -0.7071 -0.0000
vn 0.7071 -0.7071 -0.0000
vn 0.7071 -0.7071 -0.0000
vn 0.7071 0.7071 0.0000
vn 0.7071 0.7071 0.0000
vn 0.7071 0.7071 0.0000
vn 0.7071 0.7071 0.0000
vn 0.7071 -0.0000 0.7071
vn 0.7071 -0.0000 0.7071
vn 0.7071 -0.0000 0.7071
vn 0.7071 -0.0000 0.7071
vn -0.0000 -0.7071 0.7071
vn -0.0000 -0.7071 0.7071
vn -0.0000 -0.7071 0.7071
vn -0.0000 -0.7071 0.7071
vn -0.0000 0.7071 0.7071
vn -0.0000 0.7071 0.7071
vn -0.0000 0.7071 0.7071
vn -0.0000 0.7071 0.7071
vn 0.0000 -1.0000 -0.0000
vn 0.0000 -1.0000 -0.0000
vn 0.0000 -1.0000 -0.0000
vn 0.0000 -1.0000 -0.0000
vn -1.0000 0.0000 -0.0000
vn -1.0000 0.0000 -0.0000
vn -1.0000 0.0000 -0.0000
vn -1.0000 0.0000 -0.0000
vn -0.0000 -0.0000 1.0000
vn -0.0000 -0.0000 1.0000
vn -0.0000 -0.0000 1.0000
vn -0.0000 -0.0000 1.0000
vn 0.0000 1.0000 -0.0000
vn 0.0000 1.0000 -0.0000
vn 0.0000 1.0000 -0.0000
vn 0.0000 1.0000 -0.0000
vn 0.0000 0.0000 -1.0000
vn 0.0000 0.0000 -1.0000
vn 0.0000 0.0000 -1.0000
vn 0.0000 0.0000 -1.0000
vn 1.0000 0.0000 -0.0000
vn 1.0000 0.0000 -0.0000
vn 1.0000 0.0000 -0.0000
vn 1.0000 0.0000 -0.0000
vn -0.5774 -0.5773 0.5774
vn -0.5774 -0.5773 0.5774
vn -0.5774 -0.5773 0.5774
vn -0.5774 0.5772 0.5774
vn -0.5774 0.5772 0.5774
vn -0.5774 0.5772 0.5774
vn -0.5774 -0.5773 -0.5774
vn -0.5774 -0.5773 -0.5774
vn -0.5774 -0.5773 -0.5774
vn -0.5774 0.5773 -0.5774
vn -0.5774 0.5773 -0.5774
vn -0.5774 0.5773 -0.5774
vn 0.5774 -0.5773 0.5774
vn 0.5774 -0.5773 0.5774
vn 0.5774 -0.5773 0.5774
vn 0.5774 0.5772 0.5775
vn 0.5774 0.5772 0.5775
vn 0.5774 0.5772 0.5775
vn 0.5774 -0.5773 -0.5774
vn 0.5774 -0.5773 -0.5774
vn 0.5774 -0.5773 -0.5774
vn 0.5774 0.5773 -0.5773
vn 0.5774 0.5773 -0.5773
vn 0.5774 0.5773 -0.5773
vn -0.7071 -0.7071 -0.0001
vn -0.7071 -0.7071 -0.0001
vn -0.7071 -0.7071 -0.0001
vn -0.7071 -0.7071 -0.0001
vn -0.7071 -0.0000 0.7071
vn -0.7071 -0.0000 0.7071
vn -0.7071 -0.0000 0.7071
vn -0.7071 -0.0000 0.7071
vn -0.7071 0.7071 -0.0000
vn -0.7071 0.7071 -0.0000
vn -0.7071 0.7071 -0.0000
vn -0.7071 0.7071 -0.0000
vn -0.7071 0.0000 -0.7071
vn -0.7071 0.0000 -0.7071
vn -0.7071 0.0000 -0.7071
vn -0.7071 0.0000 -0.7071
vn 0.0000 -0.7071 -0.7071
vn 0.0000 -0.7071 -0.7071
vn 0.0000 -0.7071 -0.7071
vn 0.0000 -0.7071 -0.7071
vn 0.0000 0.7071 -0.7071
vn 0.0000 0.7071 -0.7071
vn 0.0000 0.7071 -0.7071
vn 0.0000 0.7071 -0.7071
vn 0.7071 0.0000 -0.7071
vn 0.7071 0.0000 -0.7071
vn 0.7071 0.0000 -0.7071
vn 0.7071 0.0000 -0.7071
vn 0.7071 -0.7071 -0.0000
vn 0.7071 -0.7071 -0.0000
vn 0.7071 -0.7071 -0.0000
vn 0.7071 -0.7071 -0.0000
vn 0.7071 0.7071 0.0000
vn 0.7071 0.7071 0.0000
vn 0.7071 0.7071 0.0000
vn 0.7071 0.7071 0.0000
vn 0.7071 -0.0000 0.7071
vn 0.7071 -0.0000 0.7071
vn 0.7071 -0.0000 0.7071
vn 0.7071 -0.0000 0.7071
vn -0.0000 -0.7071 0.7071
vn -0.0000 -0.7071 0.7071
vn -0.0000 -0.7071 0.7071
vn -0.0000 -0.7071 0.7071
vn -0.0000 0.7071 0.7071
vn -0.0000 0.7071 0.7071
vn -0.0000 0.7071 0.7071
vn -0.0000 0.7071 0.7071
vn 0.0000 -1.0000 -0.0000
vn 0.0000 -1.0000 -0.0000
vn 0.0000 -1.0000 -0.0000
vn 0.0000 -1.0000 -0.0000
vn -1.0000 0.0000 -0.0000
vn -1.0000 0.0000 -0.0000
vn -1.0000 0.0000 -0.0000
vn -1.0000 0.0000 -0.0000
vn -0.0000 -0.0000 1.0000
vn -0.0000 -0.0000 1.0000
vn -0.0000 -0.0000 1.0000
vn -0.0000 -0.0000 1.0000
vn 0.0000 1.0000 -0.0000
vn 0.0000 1.0000 -0.0000
vn 0.0000 1.0000 -0.0000
vn 0.0000 1.0000 -0.0000
vn 0.0000 0.0000 -1.0000
vn 0.0000 0.0000 -1.0000
vn 0.0000 0.0000 -1.0000
vn 0.0000 0.0000 -1.0000
vn 1.0000 0.0000 -0.0000
vn 1.0000 0.0000 -0.0000
vn 1.0000 0.0000 -0.0000
vn 1.0000 0.0000 -0.0000
f 1//1 3//3 2//2
f 4//4 6//6 5//5
f 7//7 9//9 8//8
f 10//10 12//12 11//11
f 13//13 15//15 14//14
f 16//16 18//18 17//17
f 19//19 21//21 20//20
f 22//22 24//24 23//23
f 25//25 27//27 26//26
f 25//25 26//26 28//28
f 29//29 31//31 30//30
f 29//29 30//30 32//32
f 33//33 35//35 34//34
f 33//33 34//34 36//36
f 37//37 39//39 38//38
f 37//37 38//38 40//40
f 41//41 43//43 42//42
f 41//41 42//42 44//44
f 45//45 47//47 46//46
f 45//45 46//46 48//48
f 49//49 51//51 50//50
f 49//49 50//50 52//52
f 53//53 55//55 54//54
f 53//53 54//54 56//56
f 57//57 59//59 58//58
f 57//57 58//58 60//60
f 61//61 63//63 62//62
f 61//61 62//62 64//64
f 65//65 67//67 66//66
f 65//65 66//66 68//68
f 69//69 71//71 70//70
f 69//69 70//70 72//72
f 73//73 75//75 74//74
f 73//73 74//74 76//76
f 77//77 79//79 78//78
f 77//77 78//78 80//80
f 81//81 83//83 82//82
f 81//81 82//82 84//84
f 85//85 87//87 86//86
f 85//85 86//86 88//88
f 89//89 91//91 90//90
f 89//89 90//90 92//92
f 93//93 95//95 94//94
f 93//93 94//94 96//96
f 97//97 99//99 98//98
f 100//100 102//102 101//101
f 103//103 105//105 104//104
f 106//106 108//108 107//107
f 109//109 111//111 110//110
f 112//112 114//114 113//113
f 115//115 117//117 116//116
f 118//118 120//120 119//119
f 121//121 123//123 122//122
f 121//121 122//122 124//124
f 125//125 127//127 126//126
f 125//125 126//126 128//128
f 129//129 131//131 130//130
f 129//129 130//130 132//132
f 133//133 135//135 134//134
f 133//133 134//134 136//136
f 137//137 139//139 138//138
f 137//137 138//138 140//140
f 141//141 143//143 142//142
f 141//141 142//142 144//144
f 145//145 147//147 146//146
f 145//145 146//146 148//148
f 149//149 151//151 150//150
f 149//149 150//150 152//152
f 153//153 155//155 154//154
f 153//153 154//154 156//156
f 157//157 159//159 158//158
f 157//157 158//158 160//160
f 161//161 163//163 162//162
f 161//161 162//162 164//164
f 165//165 167//167 166//166
f 165//165 166//166 168//168
f 169//169 171//171 170//170
f 169//169 170//170 172//172
f 173//173 175//175 174//174
f 173//173 174//174 176//176
f 177//177 179//179 178//178
f 177//177 178//178 180//180
f 181//181 183//183 182//182
f 181//181 182//182 184//184
f 185//185 187//187 186//186
f 185//185 186//186 188//188
f 189//189 191//191 190//190
f 189//189 190//190 192//192
f 193//193 195//195 194//194
f 196//196 198//198 197//197
f 199//199 201//201 200//200
f 202//202 204//204 203//203
f 205//205 207//207 206//206
f 208//208 210//210 209//209
f 211//211 213//213 212//212
f 214//214 216//216 215//215
f 217//217 219//219 218//218
f 217//217 218//218 220//220
f 221//221 223//223 222//222
f 221//221 222//222 224//224
f 225//225 227//227 226//226
f 225//225 226//226 228//228
f 229//229 231//231 230//230
f 229//229 230//230 232//232
f 233//233 235//235 234//234
f 233//233 234//234 236//236
f 237//237 239//239 238//238
f 237//237 238//238 240//240
f 241//241 243//243 242//242
f 241//241 242//242 244//244
f 245//245 247//247 246//246
f 245//245 246//246 248//248
f 249//249 251//251 250//250
f 249//249 250//250 252//252
f 253//253 255//255 254//254
f 253//253 254//254 256//256
f 257//257 259//259 258//258
f 257//257 258//258 260//260
f 261//261 263//263 262//262
f 261//261 262//262 264//264
f 265//265 267//267 266//266
f 265//265 266//266 268//268
f 269//269 271//271 270//270
f 269//269 270//270 272//272
f 273//273 275//275 274//274
f 273//273 274//274 276//276
f 277//277 279//279 278//278
f 277//277 278//278 280//280
f 281//281 283//283 282//282
f 281//281 282//282 284//284
f 285//285 287//287 286//286
f 285//285 286//286 288//288
f 289//289 291//291 290//290
f 292//292 294//294 293//293
f 295//295 297//297 296//296
f 298//298 300//300 299//299
f 301//301 303//303 302//302
f 304//304 306//306 305//305
f 307//307 309//309 308//308
f 310//310 312//312 311//311
f 313//313 315//315 314//314
f 313//313 314//314 316//316
f 317//317 319//319 318//318
f 317//317 318//318 320//320
f 321//321 323//323 322//322
f 321//321 322//322 324//324
f 325//325 327//327 326//326
f 325//325 326//326 328//328
f 329//329 331//331 330//330
f 329//329 330//330 332//332
f 333//333 335//335 334//334
f 333//333 334//334 336//336
f 337//337 339//339 338//338
f 337//337 338//338 340//340
f 341//341 343//343 342//342
f 341//341 342//342 344//344
f 345//345 347//347 346//346
f 345//345 346//346 348//348
f 349//349 351//351 350//350
f 349//349 350//350 352//352
f 353//353 355//355 354//354
f 353//353 354//354 356//356
f 357//357 359//359 358//358
f 357//357 358//358 360//360
f 361//361 363//363 362//362
f 361//361 362//362 364//364
f 365//365 367//367 366//366
f 365//365 366//366 368//368
f 369//369 371//371 370//370
f 369//369 370//370 372//372
f 373//373 375//375 374//374
f 373//373 374//374 376//376
f 377//377 379//379 378//378
f 377//377 378//378 380//380
f 381//381 383//383 382//382
f 381//381 382//382 384//384
f 385//385 387//387 386//386
f 388//388 390//390 389//389
f 391//391 393//393 392//392
f 394//394 396//396 395//395
f 397//397 399//399 398//398
f 400//400 402//402 401//401
f 403//403 405//405 404//404
f 406//406 408//408 407//407
f 409//409 411//411 410//410
f 409//409 410//410 412//412
f 413//413 415//415 414//414
f 413//413 414//414 416//416
f 417//417 419//419 418//418
f 417//417 418//418 420//420
f 421//421 423//423 422//422
f 421//421 422//422 424//424
f 425//425 427//427 426//426
f 425//425 426//426 428//428
f 429//429 431//431 430//430
f 429//429 430//430 432//432
f 433//433 435//435 434//434
f 433//433 434//434 436//436
f 437//437 439//439 438//438
f 437//437 438//438 440//440
f 441//441 443//443 442//442
f 441//441 442//442 444//444
f 445//445 447//447 446//446
f 445//445 446//446 448//448
f 449//449 451//451 450//450
f 449//449 450//450 452//452
f 453//453 455//455 454//454
f 453//453 454//454 456//456
f 457//457 459//459 458//458
f 457//457 458//458 460//460
f 461//461 463//463 462//462
f 461//461 462//462 464//464
f 465//465 467//467 466//466
f 465//465 466//466 468//468
f 469//469 471//471 470//470
f 469//469 470//470 472//472
f 473//473 475//475 474//474
f 473//473 474//474 476//476
f 477//477 479//479 478//478
f 477//477 478//478 480//480
f 481//481 483//483 482//482
f 484//484 486//486 485//485
f 487//487 489//489 488//488
f 490//490 492//492 491//491
f 493//493 495//495 494//494
f 496//496 498//498 497//497
f 499//499 501//501 500//500
f 502//502 504//504 503//503
f 505//505 507//507 506//506
f 505//505 506//506 508//508
f 509//509 511//511 510//510
f 509//509 510//510 512//512
f 513//513 515//515 514//514
f 513//513 514//514 516//516
f 517//517 519//519 518//518
f 517//517 518//518 520//520
f 521//521 523//523 522//522
f 521//521 522//522 524//524
f 525//525 527//527 526//526
f 525//525 526//526 528//528
f 529//529 531//531 530//530
f 529//529 530//530 532//532
f 533//533 535//535 534//534
f 533//533 534//534 536//536
f 537//537 539//539 538//538
f 537//537 538//538 540//540
f 541//541 543//543 542//542
f 541//541 542//542 544//544
f 545//545 547//547 546//546
f 545//545 546//546 548//548
f 549//549 551//551 550//550
f 549//549 550//550 552//552
f 553//553 555//555 554//554
f 553//553 554//554 556//556
f 557//557 559//559 558//558
f 557//557 558//558 560//560
f 561//561 563//563 562//562
f 561//561 562//562 564//564
f 565//565 567//567 566//566
f 565//565 566//566 568//568
f 569//569 571//571 570//570
f 569//569 570//570 572//572
f 573//573 575//575 574//574
f 573//573 574//574 576//576
f 577//577 579//579 578//578
f 580//580 582//582 581//581
f 583//583 585//585 584//584
f 586//586 588//588 587//587
f 589//589 591//591 590//590
f 592//592 594//594 593//593
f 595//595 597//597 596//596
f 598//598 600//600 599//599
f 601//601 603//603 602//602
f 601//601 602//602 604//604
f 605//605 607//607 606//606
f 605//605 606//606 608//608
f 609//609 611//611 610//610
f 609//609 610//610 612//612
f 613//613 615//615 614//614
f 613//613 614//614 616//616
f 617//617 619//619 618//618
f 617//617 618//618 620//620
f 621//621 623//623 622//622
f 621//621 622//622 624//624
f 625//625 627//627 626//626
f 625//625 626//626 628//628
f 629//629 631//631 630//630
f 629//629 630//630 632//632
f 633//633 635//635 634//634
f 633//633 634//634 636//636
f 637//637 639//639 638//638
f 637//637 638//638 640//640
f 641//641 643//643 642//642
f 641//641 642//642 644//644
f 645//645 647//647 646//646
f 645//645 646//646 648//648
f 649//649 651//651 650//650
f 649//649 650//650 652//652
f 653//653 655//655 654//654
f 653//653 654//654 656//656
f 657//657 659//659 658//658
f 657//657 658//658 660//660
f 661//661 663//663 662//662
f 661//661 662//662 664//664
f 665//665 667//667 666//666
f 665//665 666//666 668//668
f 669//669 671//671 670//670
f 669//669 670//670 672//672
f 673//673 675//675 674//674
f 676//676 678//678 677//677
f 679//679 681//681 680//680
f 682//682 684//684 683//683
f 685//685 687//687 686//686
f 688//688 690//690 689//689
f 691//691 693//693 692//692
f 694//694 696//696 695//695
f 697//697 699//699 698//698
f 697//697 698//698 700//700
f 701//701 703//703 702//702
f 701//701 702//702 704//704
f 705//705 707//707 706//706
f 705//705 706//706 708//708
f 709//709 711//711 710//710
f 709//709 710//710 712//712
f 713//713 715//715 714//714
f 713//713 714//714 716//716
f 717//717 719//719 718//718
f 717//717 718//718 720//720
f 721//721 723//723 722//722
f 721//721 722//722 724//724
f 725//725 727//727 726//726
f 725//725 726//726 728//728
f 729//729 731//731 730//730
f 729//729 730//730 732//732
f 733//733 735//735 734//734
f 733//733 734//734 736//736
f 737//737 739//739 738//738
f 737//737 738//738 740//740
f 741//741 743//743 742//742
f 741//741 742//742 744//744
f 745//745 747//747 746//746
f 745//745 746//746 748//748
f 749//749 751//751 750//750
f 749//749 750//750 752//752
f 753//753 755//755 754//754
f 753//753 754//754 756//756
f 757//757 759//759 758//758
f 757//757 758//758 760//760
f 761//761 763//763 762//762
f 761//761 762//762 764//764
f 765//765 767//767 766//766
f 765//765 766//766 768//768
g core_wood
usemtl wood
v -0.04184 -0.00203 0.11889
v 0.00160 0.24202 0.05808
v 0.00816 0.23797 0.04889
v -0.04840 0.00202 0.12808
v -0.04840 0.00202 0.12808
v -0.00817 0.24202 0.05111
v 0.00160 0.24202 0.05808
v -0.05817 0.00202 0.12111
v -0.05817 0.00202 0.12111
v -0.00160 0.23797 0.04191
v -0.00817 0.24202 0.05111
v -0.05160 -0.00203 0.11191
v -0.05160 -0.00203 0.11191
v 0.00816 0.23797 0.04889
v -0.00160 0.23797 0.04191
v -0.04184 -0.00203 0.11889
v -0.04840 0.00202 0.12808
v -0.05160 -0.00203 0.11191
v -0.05817 0.00202 0.12111
v -0.04184 -0.00203 0.11889
v -0.00817 0.24202 0.05111
v 0.00816 0.23797 0.04889
v 0.00160 0.24202 0.05808
v -0.00160 0.23797 0.04191
v 0.05160 -0.00203 0.11191
v 0.00816 0.24202 0.05111
v 0.00160 0.23797 0.04191
v 0.05817 0.00202 0.12111
v 0.05817 0.00202 0.12111
v -0.00160 0.24202 0.05808
v 0.00816 0.24202 0.05111
v 0.04840 0.00202 0.12808
v 0.04840 0.00202 0.12808
v -0.00817 0.23797 0.04889
v -0.00160 0.24202 0.05808
v 0.04183 -0.00203 0.11889
v 0.04183 -0.00203 0.11889
v 0.00160 0.23797 0.04191
v -0.00817 0.23797 0.04889
v 0.05160 -0.00203 0.11191
v 0.05817 0.00202 0.12111
v 0.04183 -0.00203 0.11889
v 0.04840 0.00202 0.12808
v 0.05160 -0.00203 0.11191
v -0.00160 0.24202 0.05808
v 0.00160 0.23797 0.04191
v 0.00816 0.24202 0.05111
v -0.00817 0.23797 0.04889
v -0.00600 -0.00231 -0.04446
v -0.00600 0.24231 0.04446
v -0.00600 0.23769 0.05554
v -0.00600 0.00231 -0.05554
v -0.00600 0.00231 -0.05554
v 0.00600 0.24231 0.04446
v -0.00600 0.24231 0.04446
v 0.00600 0.00231 -0.05554
v 0.00600 0.00231 -0.05554
v 0.00600 0.23769 0.05554
v 0.00600 0.24231 0.04446
v 0.00600 -0.00231 -0.04446
v 0.00600 -0.00231 -0.04446
v -0.00600 0.23769 0.05554
v 0.00600 0.23769 0.05554
v -0.00600 -0.00231 -0.04446
v -0.00600 0.00231 -0.05554
v 0.00600 -0.00231 -0.04446
v 0.00600 0.00231 -0.05554
v -0.00600 -0.00231 -0.04446
v 0.00600 0.24231 0.04446
v -0.00600 0.23769 0.05554
v -0.00600 0.24231 0.04446
v 0.00600 0.23769 0.05554
vn 0.4557 -0.0908 0.8855
vn 0.4557 -0.0908 0.8855
vn 0.4557 -0.0908 0.8855
vn 0.4557 -0.0908 0.8855
vn 0.0095 0.5803 0.8144
vn 0.0095 0.5803 0.8144
vn 0.0095 0.5803 0.8144
vn 0.0095 0.5803 0.8144
vn -0.1945 0.9758 0.1001
vn -0.1945 0.9758 0.1001
vn -0.1945 0.9758 0.1001
vn -0.1945 0.9758 0.1001
vn -0.8079 0.4799 -0.3420
vn -0.8079 0.4799 -0.3420
vn -0.8079 0.4799 -0.3420
vn -0.8079 0.4799 -0.3420
vn -0.1409 -0.5858 0.7981
vn -0.1409 -0.5858 0.7981
vn -0.1409 -0.5858 0.7981
vn -0.1409 -0.5858 0.7981
vn 0.0247 -0.8060 -0.5915
vn 0.0247 -0.8060 -0.5915
vn 0.0247 -0.8060 -0.5915
vn 0.0247 -0.8060 -0.5915
vn 0.8755 -0.1746 0.4506
vn 0.8755 -0.1746 0.4506
vn 0.8755 -0.1746 0.4506
vn 0.8755 -0.1746 0.4506
vn 0.3470 0.0850 0.9340
vn 0.3470 0.0850 0.9340
vn 0.3470 0.0850 0.9340
vn 0.3470 0.0850 0.9340
vn -0.1828 0.9168 0.3551
vn -0.1828 0.9168 0.3551
vn -0.1828 0.9168 0.3551
vn -0.1828 0.9168 0.3551
vn -0.3061 0.9481 -0.0863
vn -0.3061 0.9481 -0.0863
vn -0.3061 0.9481 -0.0863
vn -0.3061 0.9481 -0.0863
vn -0.0078 -0.6114 0.7913
vn -0.0078 -0.6114 0.7913
vn -0.0078 -0.6114 0.7913
vn -0.0078 -0.6114 0.7913
vn 0.1728 -0.7794 -0.6022
vn 0.1728 -0.7794 -0.6022
vn 0.1728 -0.7794 -0.6022
vn 0.1728 -0.7794 -0.6022
vn 0.0000 1.0000 -0.0000
vn 0.0000 1.0000 -0.0000
vn 0.0000 1.0000 -0.0000
vn 0.0000 1.0000 -0.0000
vn 0.6414 -0.7523 -0.1504
vn 0.6414 -0.7523 -0.1504
vn 0.6414 -0.7523 -0.1504
vn 0.6414 -0.7523 -0.1504
vn 0.7071 -0.0000 0.7071
vn 0.7071 -0.0000 0.7071
vn 0.7071 -0.0000 0.7071
vn 0.7071 -0.0000 0.7071
vn -0.1649 -0.1935 0.9672
vn -0.1649 -0.1935 0.9672
vn -0.1649 -0.1935 0.9672
vn -0.1649 -0.1935 0.9672
vn -0.1763 0.8190 -0.5460
vn -0.1763 0.8190 -0.5460
vn -0.1763 0.8190 -0.5460
vn -0.1763 0.8190 -0.5460
vn 0.1185 0.5507 0.8262
vn 0.1185 0.5507 0.8262
vn 0.1185 0.5507 0.8262
vn 0.1185 0.5507 0.8262
f 769//769 771//771 770//770
f 769//769 770//770 772//772
f 773//773 775//775 774//774
f 773//773 774//774 776//776
f 777//777 779//779 778//778
f 777//777 778//778 780//780
f 781//781 783//783 782//782
f 781//781 782//782 784//784
f 785//785 787//787 786//786
f 785//785 786//786 788//788
f 789//789 791//791 790//790
f 789//789 790//790 792//792
f 793//793 795//795 794//794
f 793//793 794//794 796//796
f 797//797 799//799 798//798
f 797//797 798//798 800//800
f 801//801 803//803 802//802
f 801//801 802//802 804//804
f 805//805 807//807 806//806
f 805//805 806//806 808//808
f 809//809 811//811 810//810
f 809//809 810//810 812//812
f 813//813 815//815 814//814
f 813//813 814//814 816//816
f 817//817 819//819 818//818
f 817//817 818//818 820//820
f 821//821 823//823 822//822
f 821//821 822//822 824//824
f 825//825 827//827 826//826
f 825//825 826//826 828//828
f 829//829 831//831 830//830
f 829//829 830//830 832//832
f 833//833 835//835 834//834
f 833//833 834//834 836//836
f 837//837 839//839 838//838
f 837//837 838//838 840//840
g core_cloth_dark
usemtl cloth_dark
v -0.00000 0.24042 0.05196
v 0.00173 0.09979 0.07902
v -0.00000 0.10042 0.08196
v 0.00173 0.23979 0.04902
v 0.00173 0.23979 0.04902
v -0.00173 0.09979 0.07902
v 0.00173 0.09979 0.07902
v -0.00173 0.23979 0.04902
v 0.00173 0.09979 0.07902
v -0.00173 0.09979 0.07902
v -0.00000 0.10042 0.08196
v -0.00173 0.23979 0.04902
v -0.00000 0.10042 0.08196
v -0.00173 0.09979 0.07902
v -0.00000 0.24042 0.05196
v -0.00000 0.24042 0.05196
v -0.00173 0.23979 0.04902
v 0.00173 0.23979 0.04902
vn 0.5078 0.0044 0.8615
vn 0.5078 0.0044 0.8615
vn 0.5078 0.0044 0.8615
vn 0.5078 0.0044 0.8615
vn -0.6891 0.7206 -0.0764
vn -0.6891 0.7206 -0.0764
vn -0.6891 0.7206 -0.0764
vn -0.6891 0.7206 -0.0764
vn -0.0679 -0.6273 0.7758
vn -0.0679 -0.6273 0.7758
vn -0.0679 -0.6273 0.7758
vn -0.0817 0.9400 0.3312
vn -0.0817 0.9400 0.3312
vn -0.0817 0.9400 0.3312
vn -0.0817 0.9400 0.3312
vn 0.0839 -0.7749 -0.6265
vn 0.0839 -0.7749 -0.6265
vn 0.0839 -0.7749 -0.6265
f 841//841 843//843 842//842
f 841//841 842//842 844//844
f 845//845 847//847 846//846
f 845//845 846//846 848//848
f 849//849 851//851 850//850
f 852//852 854//854 853//853
f 852//852 853//853 855//855
f 856//856 858//858 857//857
