mtllib ruin.mtl
o core
g core_stone
usemtl stone
v -0.16601 0.00000 0.09600
v -0.17000 0.00400 0.09600
v -0.16601 0.00400 0.10000
v -0.16601 0.02100 0.10000
v -0.17000 0.02100 0.09600
v -0.16601 0.02500 0.09600
v -0.16601 0.00000 -0.13600
v -0.16601 0.00400 -0.14000
v -0.17000 0.00400 -0.13600
v -0.16601 0.02500 -0.13600
v -0.17000 0.02100 -0.13600
v -0.16601 0.02100 -0.14000
v 0.16600 0.00000 0.09600
v 0.16600 0.00400 0.10000
v 0.17000 0.00400 0.09600
v 0.16600 0.02500 0.09600
v 0.17000 0.02100 0.09600
v 0.16600 0.02100 0.10000
v 0.16600 0.00000 -0.13600
v 0.17000 0.00400 -0.13600
v 0.16600 0.00400 -0.14000
v 0.16600 0.02500 -0.13600
v 0.16600 0.02100 -0.14000
v 0.17000 0.02100 -0.13600
v -0.16601 0.00000 -0.13600
v -0.17000 0.00400 0.09600
v -0.16601 0.00000 0.09600
v -0.17000 0.00400 -0.13600
v -0.16601 0.00400 0.10000
v -0.17000 0.02100 0.09600
v -0.16601 0.02100 0.10000
v -0.17000 0.00400 0.09600
v -0.16601 0.02500 0.09600
v -0.17000 0.02100 -0.13600
v -0.16601 0.02500 -0.13600
v -0.17000 0.02100 0.09600
v -0.16601 0.02100 -0.14000
v -0.17000 0.00400 -0.13600
v -0.16601 0.00400 -0.14000
v -0.17000 0.02100 -0.13600
v 0.16600 0.00000 -0.13600
v -0.16601 0.00400 -0.14000
v -0.16601 0.00000 -0.13600
v 0.16600 0.00400 -0.14000
v -0.16601 0.02500 -0.13600
v 0.16600 0.02100 -0.14000
v 0.16600 0.02500 -0.13600
v -0.16601 0.02100 -0.14000
v 0.17000 0.02100 -0.13600
v 0.16600 0.00400 -0.14000
v 0.17000 0.00400 -0.13600
v 0.16600 0.02100 -0.14000
v 0.16600 0.00000 0.09600
v 0.17000 0.00400 -0.13600
v 0.16600 0.00000 -0.13600
v 0.17000 0.00400 0.09600
v 0.16600 0.02500 -0.13600
v 0.17000 0.02100 0.09600
v 0.16600 0.02500 0.09600
v 0.17000 0.02100 -0.13600
v 0.16600 0.02100 0.10000
v 0.17000 0.00400 0.09600
v 0.16600 0.00400 0.10000
v 0.17000 0.02100 0.09600
v -0.16601 0.00000 0.09600
v 0.16600 0.00400 0.10000
v 0.16600 0.00000 0.09600
v -0.16601 0.00400 0.10000
v 0.16600 0.02500 0.09600
v -0.16601 0.02100 0.10000
v -0.16601 0.02500 0.09600
v 0.16600 0.02100 0.10000
v -0.16601 0.00000 -0.13600
v 0.16600 0.00000 0.09600
v 0.16600 0.00000 -0.13600
v -0.16601 0.00000 0.09600
v -0.17000 0.00400 0.09600
v -0.17000 0.02100 -0.13600
v -0.17000 0.02100 0.09600
v -0.17000 0.00400 -0.13600
v 0.16600 0.00400 0.10000
v -0.16601 0.02100 0.10000
v 0.16600 0.02100 0.10000
v -0.16601 0.00400 0.10000
v 0.16600 0.02500 -0.13600
v -0.16601 0.02500 0.09600
v -0.16601 0.02500 -0.13600
v 0.16600 0.02500 0.09600
v -0.16601 0.00400 -0.14000
v 0.16600 0.02100 -0.14000
v -0.16601 0.02100 -0.14000
v 0.16600 0.00400 -0.14000
v 0.17000 0.00400 -0.13600
v 0.17000 0.02100 0.09600
v 0.17000 0.02100 -0.13600
v 0.17000 0.00400 0.09600
v -0.15500 0.02500 -0.07500
v -0.15500 0.04500 -0.12500
v -0.15500 0.04500 -0.07500
v -0.15500 0.02500 -0.12500
v -0.15500 0.02500 -0.12500
v -0.10500 0.04500 -0.12500
v -0.15500 0.04500 -0.12500
v -0.10500 0.02500 -0.12500
v -0.10500 0.02500 -0.12500
v -0.10500 0.04500 -0.07500
v -0.10500 0.04500 -0.12500
v -0.10500 0.02500 -0.07500
v -0.10500 0.02500 -0.07500
v -0.15500 0.04500 -0.07500
v -0.10500 0.04500 -0.07500
v -0.15500 0.02500 -0.07500
v -0.15500 0.02500 -0.12500
v -0.10500 0.02500 -0.07500
v -0.10500 0.02500 -0.12500
v -0.15500 0.02500 -0.07500
v -0.10500 0.04500 -0.12500
v -0.15500 0.04500 -0.07500
v -0.15500 0.04500 -0.12500
v -0.10500 0.04500 -0.07500
v -0.06500 0.02500 -0.07500
v -0.06500 0.04500 -0.12500
v -0.06500 0.04500 -0.07500
v -0.06500 0.02500 -0.12500
v -0.06500 0.02500 -0.12500
v -0.01500 0.04500 -0.12500
v -0.06500 0.04500 -0.12500
v -0.01500 0.02500 -0.12500
v -0.01500 0.02500 -0.12500
v -0.01500 0.04500 -0.07500
v -0.01500 0.04500 -0.12500
v -0.01500 0.02500 -0.07500
v -0.01500 0.02500 -0.07500
v -0.06500 0.04500 -0.07500
v -0.01500 0.04500 -0.07500
v -0.06500 0.02500 -0.07500
v -0.06500 0.02500 -0.12500
v -0.01500 0.02500 -0.07500
v -0.01500 0.02500 -0.12500
v -0.06500 0.02500 -0.07500
v -0.01500 0.04500 -0.12500
v -0.06500 0.04500 -0.07500
v -0.06500 0.04500 -0.12500
v -0.01500 0.04500 -0.07500
v 0.03500 0.02500 -0.07500
v 0.03500 0.04500 -0.12500
v 0.03500 0.04500 -0.07500
v 0.03500 0.02500 -0.12500
v 0.03500 0.02500 -0.12500
v 0.08500 0.04500 -0.12500
v 0.03500 0.04500 -0.12500
v 0.08500 0.02500 -0.12500
v 0.08500 0.02500 -0.12500
v 0.08500 0.04500 -0.07500
v 0.08500 0.04500 -0.12500
v 0.08500 0.02500 -0.07500
v 0.08500 0.02500 -0.07500
v 0.03500 0.04500 -0.07500
v 0.08500 0.04500 -0.07500
v 0.03500 0.02500 -0.07500
v 0.03500 0.02500 -0.12500
v 0.08500 0.02500 -0.07500
v 0.08500 0.02500 -0.12500
v 0.03500 0.02500 -0.07500
v 0.08500 0.04500 -0.12500
v 0.03500 0.04500 -0.07500
v 0.03500 0.04500 -0.12500
v 0.08500 0.04500 -0.07500
v 0.11500 0.02500 -0.07500
v 0.11500 0.04500 -0.12500
v 0.11500 0.04500 -0.07500
v 0.11500 0.02500 -0.12500
v 0.11500 0.02500 -0.12500
v 0.16500 0.04500 -0.12500
v 0.11500 0.04500 -0.12500
v 0.16500 0.02500 -0.12500
v 0.16500 0.02500 -0.12500
v 0.16500 0.04500 -0.07500
v 0.16500 0.04500 -0.12500
v 0.16500 0.02500 -0.07500
v 0.16500 0.02500 -0.07500
v 0.11500 0.04500 -0.07500
v 0.16500 0.04500 -0.07500
v 0.11500 0.02500 -0.07500
v 0.11500 0.02500 -0.12500
v 0.16500 0.02500 -0.07500
v 0.16500 0.02500 -0.12500
v 0.11500 0.02500 -0.07500
v 0.16500 0.04500 -0.12500
v 0.11500 0.04500 -0.07500
v 0.11500 0.04500 -0.12500
v 0.16500 0.04500 -0.07500
v -0.15500 0.02500 0.08500
v -0.15500 0.04500 0.03500
v -0.15500 0.04500 0.08500
v -0.15500 0.02500 0.03500
v -0.15500 0.02500 0.03500
v -0.10500 0.04500 0.03500
v -0.15500 0.04500 0.03500
v -0.10500 0.02500 0.03500
v -0.10500 0.02500 0.03500
v -0.10500 0.04500 0.08500
v -0.10500 0.04500 0.03500
v -0.10500 0.02500 0.08500
v -0.10500 0.02500 0.08500
v -0.15500 0.04500 0.08500
v -0.10500 0.04500 0.08500
v -0.15500 0.02500 0.08500
v -0.15500 0.02500 0.03500
v -0.10500 0.02500 0.08500
v -0.10500 0.02500 0.03500
v -0.15500 0.02500 0.08500
v -0.10500 0.04500 0.03500
v -0.15500 0.04500 0.08500
v -0.15500 0.04500 0.03500
v -0.10500 0.04500 0.08500
vn -0.6423 0.0845 0.7618
vn -0.6423 0.0845 0.7618
vn -0.6423 0.0845 0.7618
vn 0.0845 0.6423 0.7618
vn 0.0845 0.6423 0.7618
vn 0.0845 0.6423 0.7618
vn -0.1246 0.9456 -0.3005
vn -0.1246 0.9456 -0.3005
vn -0.1246 0.9456 -0.3005
vn -0.3452 0.8335 0.4315
vn -0.3452 0.8335 0.4315
vn -0.3452 0.8335 0.4315
vn 0.1870 -0.4516 0.8724
vn 0.1870 -0.4516 0.8724
vn 0.1870 -0.4516 0.8724
vn 0.3672 0.2817 0.8865
vn 0.3672 0.2817 0.8865
vn 0.3672 0.2817 0.8865
vn -0.7059 0.5416 -0.4566
vn -0.7059 0.5416 -0.4566
vn -0.7059 0.5416 -0.4566
vn 0.8335 0.3452 0.4315
vn 0.8335 0.3452 0.4315
vn 0.8335 0.3452 0.4315
vn 0.0674 0.7916 -0.6073
vn 0.0674 0.7916 -0.6073
vn 0.0674 0.7916 -0.6073
vn 0.0674 0.7916 -0.6073
vn -0.2445 0.7693 0.5903
vn -0.2445 0.7693 0.5903
vn -0.2445 0.7693 0.5903
vn -0.2445 0.7693 0.5903
vn -0.0674 0.7915 0.6074
vn -0.0674 0.7915 0.6074
vn -0.0674 0.7915 0.6074
vn -0.0674 0.7915 0.6074
vn -0.3006 0.9456 0.1245
vn -0.3006 0.9456 0.1245
vn -0.3006 0.9456 0.1245
vn -0.3006 0.9456 0.1245
vn -0.4315 0.8334 -0.3452
vn -0.4315 0.8334 -0.3452
vn -0.4315 0.8334 -0.3452
vn -0.4315 0.8334 -0.3452
vn 0.4314 -0.8335 -0.3452
vn 0.4314 -0.8335 -0.3452
vn 0.4314 -0.8335 -0.3452
vn 0.4314 -0.8335 -0.3452
vn 0.8864 -0.2818 0.3672
vn 0.8864 -0.2818 0.3672
vn 0.8864 -0.2818 0.3672
vn 0.8864 -0.2818 0.3672
vn 0.4566 -0.5416 0.7058
vn 0.4566 -0.5416 0.7058
vn 0.4566 -0.5416 0.7058
vn 0.4566 -0.5416 0.7058
vn -0.4566 -0.5416 -0.7059
vn -0.4566 -0.5416 -0.7059
vn -0.4566 -0.5416 -0.7059
vn -0.4566 -0.5416 -0.7059
vn 0.3799 -0.1208 0.9171
vn 0.3799 -0.1208 0.9171
vn 0.3799 -0.1208 0.9171
vn 0.3799 -0.1208 0.9171
vn -0.1943 -0.3754 0.9062
vn -0.1943 -0.3754 0.9062
vn -0.1943 -0.3754 0.9062
vn -0.1943 -0.3754 0.9062
vn 0.1943 0.3754 0.9063
vn 0.1943 0.3754 0.9063
vn 0.1943 0.3754 0.9063
vn 0.1943 0.3754 0.9063
vn -0.0000 -0.7071 0.7071
vn -0.0000 -0.7071 0.7071
vn -0.0000 -0.7071 0.7071
vn -0.0000 -0.7071 0.7071
vn 0.0000 1.0000 -0.0000
vn 0.0000 1.0000 -0.0000
vn 0.0000 1.0000 -0.0000
vn 0.0000 1.0000 -0.0000
vn -0.0000 -0.0000 1.0000
vn -0.0000 -0.0000 1.0000
vn -0.0000 -0.0000 1.0000
vn -0.0000 -0.0000 1.0000
vn -0.0000 0.7071 0.7071
vn -0.0000 0.7071 0.7071
vn -0.0000 0.7071 0.7071
vn -0.0000 0.7071 0.7071
vn -0.7071 0.7071 -0.0000
vn -0.7071 0.7071 -0.0000
vn -0.7071 0.7071 -0.0000
vn -0.7071 0.7071 -0.0000
vn 0.7071 -0.0000 0.7071
vn 0.7071 -0.0000 0.7071
vn 0.7071 -0.0000 0.7071
vn 0.7071 -0.0000 0.7071
vn 0.0000 1.0000 -0.0000
vn 0.0000 1.0000 -0.0000
vn 0.0000 1.0000 -0.0000
vn 0.0000 1.0000 -0.0000
vn -0.7071 0.7071 -0.0000
vn -0.7071 0.7071 -0.0000
vn -0.7071 0.7071 -0.0000
vn -0.7071 0.7071 -0.0000
vn 0.7071 -0.0000 0.7071
vn 0.7071 -0.0000 0.7071
vn 0.7071 -0.0000 0.7071
vn 0.7071 -0.0000 0.7071
vn -0.0000 -0.0000 1.0000
vn -0.0000 -0.0000 1.0000
vn -0.0000 -0.0000 1.0000
vn -0.0000 -0.0000 1.0000
vn -0.0000 -0.7071 0.7071
vn -0.0000 -0.7071 0.7071
vn -0.0000 -0.7071 0.7071
vn -0.0000 -0.7071 0.7071
vn -0.0000 0.7071 0.7071
vn -0.0000 0.7071 0.7071
vn -0.0000 0.7071 0.7071
vn -0.0000 0.7071 0.7071
vn 0.0000 1.0000 -0.0000
vn 0.0000 1.0000 -0.0000
vn 0.0000 1.0000 -0.0000
vn 0.0000 1.0000 -0.0000
vn -0.7071 0.7071 -0.0000
vn -0.7071 0.7071 -0.0000
vn -0.7071 0.7071 -0.0000
vn -0.7071 0.7071 -0.0000
vn 0.7071 -0.0000 0.7071
vn 0.7071 -0.0000 0.7071
vn 0.7071 -0.0000 0.7071
vn 0.7071 -0.0000 0.7071
vn -0.0000 -0.0000 1.0000
vn -0.0000 -0.0000 1.0000
vn -0.0000 -0.0000 1.0000
vn -0.0000 -0.0000 1.0000
vn -0.0000 -0.7071 0.7071
vn -0.0000 -0.7071 0.7071
vn -0.0000 -0.7071 0.7071
vn -0.0000 -0.7071 0.7071
vn -0.0000 0.7071 0.7071
vn -0.0000 0.7071 0.7071
vn -0.0000 0.7071 0.7071
vn -0.0000 0.7071 0.7071
vn 0.0000 1.0000 -0.0000
vn 0.0000 1.0000 -0.0000
vn 0.0000 1.0000 -0.0000
vn 0.0000 1.0000 -0.0000
vn -0.7071 0.7071 -0.0000
vn -0.7071 0.7071 -0.0000
vn -0.7071 0.7071 -0.0000
vn -0.7071 0.7071 -0.0000
vn 0.7071 -0.0000 0.7071
vn 0.7071 -0.0000 0.7071
vn 0.7071 -0.0000 0.7071
vn 0.7071 -0.0000 0.7071
vn -0.0000 -0.0000 1.0000
vn -0.0000 -0.0000 1.0000
vn -0.0000 -0.0000 1.0000
vn -0.0000 -0.0000 1.0000
vn -0.0000 -0.7071 0.7071
vn -0.0000 -0.7071 0.7071
vn -0.0000 -0.7071 0.7071
vn -0.0000 -0.7071 0.7071
vn -0.0000 0.7071 0.7071
vn -0.0000 0.7071 0.7071
vn -0.0000 0.7071 0.7071
vn -0.0000 0.7071 0.7071
vn 0.0000 1.0000 -0.0000
vn 0.0000 1.0000 -0.0000
vn 0.0000 1.0000 -0.0000
vn 0.0000 1.0000 -0.0000
vn -0.7071 0.7071 -0.0000
vn -0.7071 0.7071 -0.0000
vn -0.7071 0.7071 -0.0000
vn -0.7071 0.7071 -0.0000
vn 0.7071 -0.0000 0.7071
vn 0.7071 -0.0000 0.7071
vn 0.7071 -0.0000 0.7071
vn 0.7071 -0.0000 0.7071
vn -0.0000 -0.0000 1.0000
vn -0.0000 -0.0000 1.0000
vn -0.0000 -0.0000 1.0000
vn -0.0000 -0.0000 1.0000
vn -0.0000 -0.7071 0.7071
vn -0.0000 -0.7071 0.7071
vn -0.0000 -0.7071 0.7071
vn -0.0000 -0.7071 0.7071
vn -0.0000 0.7071 0.7071
vn -0.0000 0.7071 0.7071
vn -0.0000 0.7071 0.7071
vn -0.0000 0.7071 0.7071
vn 0.0000 1.0000 -0.0000
vn 0.0000 1.0000 -0.0000
vn 0.0000 1.0000 -0.0000
vn 0.0000 1.0000 -0.0000
vn -0.7071 0.7071 -0.0000
vn -0.7071 0.7071 -0.0000
vn -0.7071 0.7071 -0.0000
vn -0.7071 0.7071 -0.0000
vn 0.7071 -0.0000 0.7071
vn 0.7071 -0.0000 0.7071
vn 0.7071 -0.0000 0.7071
vn 0.7071 -0.0000 0.7071
vn -0.0000 -0.0000 1.0000
vn -0.0000 -0.0000 1.0000
vn -0.0000 -0.0000 1.0000
vn -0.0000 -0.0000 1.0000
vn -0.0000 -0.7071 0.7071
vn -0.0000 -0.7071 0.7071
vn -0.0000 -0.7071 0.7071
vn -0.0000 -0.7071 0.7071
vn -0.0000 0.7071 0.7071
vn -0.0000 0.7071 0.7071
vn -0.0000 0.7071 0.7071
vn -0.0000 0.7071 0.7071
f 1//1 3//3 2//2
f 4//4 6//6 5//5
f 7//7 9//9 8//8
f 10//10 12//12 11//11
f 13//13 15//15 14//14
f 16//16 18//18 17//17
f 19//19 21//21 20//20
f 22//22 24//24 23//23
f 25//25 27//27 26//26
f 25//25 26//26 28//28
f 29//29 31//31 30//30
f 29//29 30//30 32//32
f 33//33 35//35 34//34
f 33//33 34//34 36//36
f 37//37 39//39 38//38
f 37//37 38//38 40//40
f 41//41 43//43 42//42
f 41//41 42//42 44//44
f 45//45 47//47 46//46
f 45//45 46//46 48//48
f 49//49 51//51 50//50
f 49//49 50//50 52//52
f 53//53 55//55 54//54
f 53//53 54//54 56//56
f 57//57 59//59 58//58
f 57//57 58//58 60//60
f 61//61 63//63 62//62
f 61//61 62//62 64//64
f 65//65 67//67 66//66
f 65//65 66//66 68//68
f 69//69 71//71 70//70
f 69//69 70//70 72//72
f 73//73 75//75 74//74
f 73//73 74//74 76//76
f 77//77 79//79 78//78
f 77//77 78//78 80//80
f 81//81 83//83 82//82
f 81//81 82//82 84//84
f 85//85 87//87 86//86
f 85//85 86//86 88//88
f 89//89 91//91 90//90
f 89//89 90//90 92//92
f 93//93 95//95 94//94
f 93//93 94//94 96//96
f 97//97 99//99 98//98
f 97//97 98//98 100//100
f 101//101 103//103 102//102
f 101//101 102//102 104//104
f 105//105 107//107 106//106
f 105//105 106//106 108//108
f 109//109 111//111 110//110
f 109//109 110//110 112//112
f 113//113 115//115 114//114
f 113//113 114//114 116//116
f 117//117 119//119 118//118
f 117//117 118//118 120//120
f 121//121 123//123 122//122
f 121//121 122//122 124//124
f 125//125 127//127 126//126
f 125//125 126//126 128//128
f 129//129 131//131 130//130
f 129//129 130//130 132//132
f 133//133 135//135 134//134
f 133//133 134//134 136//136
f 137//137 139//139 138//138
f 137//137 138//138 140//140
f 141//141 143//143 142//142
f 141//141 142//142 144//144
f 145//145 147//147 146//146
f 145//145 146//146 148//148
f 149//149 151//151 150//150
f 149//149 150//150 152//152
f 153//153 155//155 154//154
f 153//153 154//154 156//156
f 157//157 159//159 158//158
f 157//157 158//158 160//160
f 161//161 163//163 162//162
f 161//161 162//162 164//164
f 165//165 167//167 166//166
f 165//165 166//166 168//168
f 169//169 171//171 170//170
f 169//169 170//170 172//172
f 173//173 175//175 174//174
f 173//173 174//174 176//176
f 177//177 179//179 178//178
f 177//177 178//178 180//180
f 181//181 183//183 182//182
f 181//181 182//182 184//184
f 185//185 187//187 186//186
f 185//185 186//186 188//188
f 189//189 191//191 190//190
f 189//189 190//190 192//192
f 193//193 195//195 194//194
f 193//193 194//194 196//196
f 197//197 199//199 198//198
f 197//197 198//198 200//200
f 201//201 203//203 202//202
f 201//201 202//202 204//204
f 205//205 207//207 206//206
f 205//205 206//206 208//208
f 209//209 211//211 210//210
f 209//209 210//210 212//212
f 213//213 215//215 214//214
f 213//213 214//214 216//216
g core_white
usemtl white
v -0.13001 0.02500 -0.12200
v -0.11445 0.28500 -0.11556
v -0.13001 0.28500 -0.12200
v -0.11445 0.02500 -0.11556
v -0.11445 0.02500 -0.11556
v -0.10801 0.28500 -0.10000
v -0.11445 0.28500 -0.11556
v -0.10801 0.02500 -0.10000
v -0.10801 0.02500 -0.10000
v -0.11445 0.28500 -0.08445
v -0.10801 0.28500 -0.10000
v -0.11445 0.02500 -0.08445
v -0.11445 0.02500 -0.08445
v -0.13001 0.28500 -0.07800
v -0.11445 0.28500 -0.08445
v -0.13001 0.02500 -0.07800
v -0.13001 0.02500 -0.07800
v -0.14556 0.28500 -0.08445
v -0.13001 0.28500 -0.07800
v -0.14556 0.02500 -0.08445
v -0.14556 0.02500 -0.08445
v -0.15200 0.28500 -0.10000
v -0.14556 0.28500 -0.08445
v -0.15200 0.02500 -0.10000
v -0.10801 0.28500 -0.10000
v -0.13001 0.28500 -0.12200
v -0.11445 0.28500 -0.11556
v -0.15200 0.28500 -0.10000
v -0.14556 0.28500 -0.11556
v -0.13001 0.28500 -0.07800
v -0.11445 0.28500 -0.08445
v -0.14556 0.28500 -0.08445
v -0.15200 0.02500 -0.10000
v -0.14556 0.28500 -0.11556
v -0.15200 0.28500 -0.10000
v -0.14556 0.02500 -0.11556
v -0.14556 0.02500 -0.11556
v -0.13001 0.28500 -0.12200
v -0.14556 0.28500 -0.11556
v -0.13001 0.02500 -0.12200
v -0.14556 0.02500 -0.11556
v -0.11445 0.02500 -0.11556
v -0.13001 0.02500 -0.12200
v -0.11445 0.02500 -0.08445
v -0.10801 0.02500 -0.10000
v -0.14556 0.02500 -0.08445
v -0.15200 0.02500 -0.10000
v -0.13001 0.02500 -0.07800
v -0.04000 0.02500 -0.12200
v -0.02445 0.14500 -0.11556
v -0.04000 0.14500 -0.12200
v -0.02445 0.02500 -0.11556
v -0.02445 0.02500 -0.11556
v -0.01800 0.14500 -0.10000
v -0.02445 0.14500 -0.11556
v -0.01800 0.02500 -0.10000
v -0.01800 0.02500 -0.10000
v -0.02445 0.14500 -0.08445
v -0.01800 0.14500 -0.10000
v -0.02445 0.02500 -0.08445
v -0.02445 0.02500 -0.08445
v -0.04000 0.14500 -0.07800
v -0.02445 0.14500 -0.08445
v -0.04000 0.02500 -0.07800
v -0.04000 0.02500 -0.07800
v -0.05556 0.14500 -0.08445
v -0.04000 0.14500 -0.07800
v -0.05556 0.02500 -0.08445
v -0.05556 0.02500 -0.08445
v -0.06200 0.14500 -0.10000
v -0.05556 0.14500 -0.08445
v -0.06200 0.02500 -0.10000
v -0.01800 0.14500 -0.10000
v -0.04000 0.14500 -0.12200
v -0.02445 0.14500 -0.11556
v -0.06200 0.14500 -0.10000
v -0.05556 0.14500 -0.11556
v -0.04000 0.14500 -0.07800
v -0.02445 0.14500 -0.08445
v -0.05556 0.14500 -0.08445
v -0.06200 0.02500 -0.10000
v -0.05556 0.14500 -0.11556
v -0.06200 0.14500 -0.10000
v -0.05556 0.02500 -0.11556
v -0.05556 0.02500 -0.11556
v -0.04000 0.14500 -0.12200
v -0.05556 0.14500 -0.11556
v -0.04000 0.02500 -0.12200
v -0.05556 0.02500 -0.11556
v -0.02445 0.02500 -0.11556
v -0.04000 0.02500 -0.12200
v -0.02445 0.02500 -0.08445
v -0.01800 0.02500 -0.10000
v -0.05556 0.02500 -0.08445
v -0.06200 0.02500 -0.10000
v -0.04000 0.02500 -0.07800
v 0.05999 0.02500 -0.12200
v 0.07555 0.22500 -0.11556
v 0.05999 0.22500 -0.12200
v 0.07555 0.02500 -0.11556
v 0.07555 0.02500 -0.11556
v 0.08200 0.22500 -0.10000
v 0.07555 0.22500 -0.11556
v 0.08200 0.02500 -0.10000
v 0.08200 0.02500 -0.10000
v 0.07555 0.22500 -0.08445
v 0.08200 0.22500 -0.10000
v 0.07555 0.02500 -0.08445
v 0.07555 0.02500 -0.08445
v 0.05999 0.22500 -0.07800
v 0.07555 0.22500 -0.08445
v 0.05999 0.02500 -0.07800
v 0.05999 0.02500 -0.07800
v 0.04444 0.22500 -0.08445
v 0.05999 0.22500 -0.07800
v 0.04444 0.02500 -0.08445
v 0.04444 0.02500 -0.08445
v 0.03799 0.22500 -0.10000
v 0.04444 0.22500 -0.08445
v 0.03799 0.02500 -0.10000
v 0.08200 0.22500 -0.10000
v 0.05999 0.22500 -0.12200
v 0.07555 0.22500 -0.11556
v 0.03799 0.22500 -0.10000
v 0.04444 0.22500 -0.11556
v 0.05999 0.22500 -0.07800
v 0.07555 0.22500 -0.08445
v 0.04444 0.22500 -0.08445
v 0.03799 0.02500 -0.10000
v 0.04444 0.22500 -0.11556
v 0.03799 0.22500 -0.10000
v 0.04444 0.02500 -0.11556
v 0.04444 0.02500 -0.11556
v 0.05999 0.22500 -0.12200
v 0.04444 0.22500 -0.11556
v 0.05999 0.02500 -0.12200
v 0.04444 0.02500 -0.11556
v 0.07555 0.02500 -0.11556
v 0.05999 0.02500 -0.12200
v 0.07555 0.02500 -0.08445
v 0.08200 0.02500 -0.10000
v 0.04444 0.02500 -0.08445
v 0.03799 0.02500 -0.10000
v 0.05999 0.02500 -0.07800
v 0.14000 0.02500 -0.12200
v 0.15555 0.09500 -0.11556
v 0.14000 0.09500 -0.12200
v 0.15555 0.02500 -0.11556
v 0.15555 0.02500 -0.11556
v 0.16200 0.09500 -0.10000
v 0.15555 0.09500 -0.11556
v 0.16200 0.02500 -0.10000
v 0.16200 0.02500 -0.10000
v 0.15555 0.09500 -0.08445
v 0.16200 0.09500 -0.10000
v 0.15555 0.02500 -0.08445
v 0.15555 0.02500 -0.08445
v 0.14000 0.09500 -0.07800
v 0.15555 0.09500 -0.08445
v 0.14000 0.02500 -0.07800
v 0.14000 0.02500 -0.07800
v 0.12444 0.09500 -0.08445
v 0.14000 0.09500 -0.07800
v 0.12444 0.02500 -0.08445
v 0.12444 0.02500 -0.08445
v 0.11800 0.09500 -0.10000
v 0.12444 0.09500 -0.08445
v 0.11800 0.02500 -0.10000
v 0.16200 0.09500 -0.10000
v 0.14000 0.09500 -0.12200
v 0.15555 0.09500 -0.11556
v 0.11800 0.09500 -0.10000
v 0.12444 0.09500 -0.11556
v 0.14000 0.09500 -0.07800
v 0.15555 0.09500 -0.08445
v 0.12444 0.09500 -0.08445
v 0.11800 0.02500 -0.10000
v 0.12444 0.09500 -0.11556
v 0.11800 0.09500 -0.10000
v 0.12444 0.02500 -0.11556
v 0.12444 0.02500 -0.11556
v 0.14000 0.09500 -0.12200
v 0.12444 0.09500 -0.11556
v 0.14000 0.02500 -0.12200
v 0.12444 0.02500 -0.11556
v 0.15555 0.02500 -0.11556
v 0.14000 0.02500 -0.12200
v 0.15555 0.02500 -0.08445
v 0.16200 0.02500 -0.10000
v 0.12444 0.02500 -0.08445
v 0.11800 0.02500 -0.10000
v 0.14000 0.02500 -0.07800
v -0.13001 0.02500 0.03800
v -0.11445 0.11500 0.04444
v -0.13001 0.11500 0.03800
v -0.11445 0.02500 0.04444
v -0.11445 0.02500 0.04444
v -0.10801 0.11500 0.06000
v -0.11445 0.11500 0.04444
v -0.10801 0.02500 0.06000
v -0.10801 0.02500 0.06000
v -0.11445 0.11500 0.07555
v -0.10801 0.11500 0.06000
v -0.11445 0.02500 0.07555
v -0.11445 0.02500 0.07555
v -0.13001 0.11500 0.08200
v -0.11445 0.11500 0.07555
v -0.13001 0.02500 0.08200
v -0.13001 0.02500 0.08200
v -0.14556 0.11500 0.07555
v -0.13001 0.11500 0.08200
v -0.14556 0.02500 0.07555
v -0.14556 0.02500 0.07555
v -0.15200 0.11500 0.06000
v -0.14556 0.11500 0.07555
v -0.15200 0.02500 0.06000
v -0.10801 0.11500 0.06000
v -0.13001 0.11500 0.03800
v -0.11445 0.11500 0.04444
v -0.15200 0.11500 0.06000
v -0.14556 0.11500 0.04444
v -0.13001 0.11500 0.08200
v -0.11445 0.11500 0.07555
v -0.14556 0.11500 0.07555
v -0.15200 0.02500 0.06000
v -0.14556 0.11500 0.04444
v -0.15200 0.11500 0.06000
v -0.14556 0.02500 0.04444
v -0.14556 0.02500 0.04444
v -0.13001 0.11500 0.03800
v -0.14556 0.11500 0.04444
v -0.13001 0.02500 0.03800
v -0.14556 0.02500 0.04444
v -0.11445 0.02500 0.04444
v -0.13001 0.02500 0.03800
v -0.11445 0.02500 0.07555
v -0.10801 0.02500 0.06000
v -0.14556 0.02500 0.07555
v -0.15200 0.02500 0.06000
v -0.13001 0.02500 0.08200
v -0.13945 0.29045 -0.07500
v -0.13632 0.32029 -0.12500
v -0.13632 0.32029 -0.07500
v -0.13945 0.29045 -0.12500
v -0.13945 0.29045 -0.12500
v 0.06259 0.29938 -0.12500
v -0.13632 0.32029 -0.12500
v 0.05945 0.26954 -0.12500
v 0.05945 0.26954 -0.12500
v 0.06259 0.29938 -0.07500
v 0.06259 0.29938 -0.12500
v 0.05945 0.26954 -0.07500
v 0.05945 0.26954 -0.07500
v -0.13632 0.32029 -0.07500
v 0.06259 0.29938 -0.07500
v -0.13945 0.29045 -0.07500
v -0.13945 0.29045 -0.12500
v 0.05945 0.26954 -0.07500
v 0.05945 0.26954 -0.12500
v -0.13945 0.29045 -0.07500
v 0.06259 0.29938 -0.12500
v -0.13632 0.32029 -0.07500
v -0.13632 0.32029 -0.12500
v 0.06259 0.29938 -0.07500
v 0.07070 0.02500 0.10006
v 0.23656 0.00944 0.02983
v 0.23383 0.02500 0.02399
v 0.07342 0.00944 0.10590
v 0.07342 0.00944 0.10590
v 0.24313 0.00300 0.04393
v 0.23656 0.00944 0.02983
v 0.08000 0.00300 0.12000
v 0.08000 0.00300 0.12000
v 0.24971 0.00944 0.05803
v 0.24313 0.00300 0.04393
v 0.08657 0.00944 0.13410
v 0.08657 0.00944 0.13410
v 0.25243 0.02500 0.06387
v 0.24971 0.00944 0.05803
v 0.08930 0.02500 0.13994
v 0.08930 0.02500 0.13994
v 0.24971 0.04056 0.05803
v 0.25243 0.02500 0.06387
v 0.08657 0.04056 0.13410
v 0.08657 0.04056 0.13410
v 0.24313 0.04700 0.04393
v 0.24971 0.04056 0.05803
v 0.08000 0.04700 0.12000
v 0.24313 0.00300 0.04393
v 0.23383 0.02500 0.02399
v 0.23656 0.00944 0.02983
v 0.24313 0.04700 0.04393
v 0.23656 0.04056 0.02983
v 0.25243 0.02500 0.06387
v 0.24971 0.00944 0.05803
v 0.24971 0.04056 0.05803
v 0.08000 0.04700 0.12000
v 0.23656 0.04056 0.02983
v 0.24313 0.04700 0.04393
v 0.07342 0.04056 0.10590
v 0.07342 0.04056 0.10590
v 0.23383 0.02500 0.02399
v 0.23656 0.04056 0.02983
v 0.07070 0.02500 0.10006
v 0.07342 0.04056 0.10590
v 0.07342 0.00944 0.10590
v 0.07070 0.02500 0.10006
v 0.08657 0.00944 0.13410
v 0.08000 0.00300 0.12000
v 0.08657 0.04056 0.13410
v 0.08000 0.04700 0.12000
v 0.08930 0.02500 0.13994
vn 0.8279 -0.5362 0.1647
vn 0.8279 -0.5362 0.1647
vn 0.8279 -0.5362 0.1647
vn 0.8279 -0.5362 0.1647
vn 0.8297 -0.0654 0.5544
vn 0.8297 -0.0654 0.5544
vn 0.8297 -0.0654 0.5544
vn 0.8297 -0.0654 0.5544
vn 0.5550 -0.0437 0.8307
vn 0.5550 -0.0437 0.8307
vn 0.5550 -0.0437 0.8307
vn 0.5550 -0.0437 0.8307
vn 0.1935 -0.1254 0.9731
vn 0.1935 -0.1254 0.9731
vn 0.1935 -0.1254 0.9731
vn 0.1935 -0.1254 0.9731
vn -0.1868 0.2884 0.9391
vn -0.1868 0.2884 0.9391
vn -0.1868 0.2884 0.9391
vn -0.1868 0.2884 0.9391
vn -0.0780 0.9901 0.1167
vn -0.0780 0.9901 0.1167
vn -0.0780 0.9901 0.1167
vn -0.0780 0.9901 0.1167
vn -0.0000 0.7071 0.7071
vn -0.0000 0.7071 0.7071
vn -0.0000 0.7071 0.7071
vn -0.0000 0.7071 0.7071
vn -0.0000 0.7071 0.7071
vn -0.0000 0.7071 0.7071
vn -0.0000 0.7071 0.7071
vn -0.0000 0.7071 0.7071
vn -0.0784 0.9955 0.0524
vn -0.0784 0.9955 0.0524
vn -0.0784 0.9955 0.0524
vn -0.0784 0.9955 0.0524
vn -0.5404 0.8345 0.1075
vn -0.5404 0.8345 0.1075
vn -0.5404 0.8345 0.1075
vn -0.5404 0.8345 0.1075
vn -0.0000 -0.7071 0.7071
vn -0.0000 -0.7071 0.7071
vn -0.0000 -0.7071 0.7071
vn -0.0000 -0.7071 0.7071
vn -0.0000 -0.7071 0.7071
vn -0.0000 -0.7071 0.7071
vn -0.0000 -0.7071 0.7071
vn -0.0000 -0.7071 0.7071
vn 0.8279 -0.5362 0.1647
vn 0.8279 -0.5362 0.1647
vn 0.8279 -0.5362 0.1647
vn 0.8279 -0.5362 0.1647
vn 0.8297 -0.0654 0.5544
vn 0.8297 -0.0654 0.5544
vn 0.8297 -0.0654 0.5544
vn 0.8297 -0.0654 0.5544
vn 0.5550 -0.0437 0.8307
vn 0.5550 -0.0437 0.8307
vn 0.5550 -0.0437 0.8307
vn 0.5550 -0.0437 0.8307
vn 0.1935 -0.1254 0.9731
vn 0.1935 -0.1254 0.9731
vn 0.1935 -0.1254 0.9731
vn 0.1935 -0.1254 0.9731
vn -0.1868 0.2884 0.9391
vn -0.1868 0.2884 0.9391
vn -0.1868 0.2884 0.9391
vn -0.1868 0.2884 0.9391
vn -0.0780 0.9901 0.1167
vn -0.0780 0.9901 0.1167
vn -0.0780 0.9901 0.1167
vn -0.0780 0.9901 0.1167
vn -0.0000 0.7071 0.7071
vn -0.0000 0.7071 0.7071
vn -0.0000 0.7071 0.7071
vn -0.0000 0.7071 0.7071
vn -0.0000 0.7071 0.7071
vn -0.0000 0.7071 0.7071
vn -0.0000 0.7071 0.7071
vn -0.0000 0.7071 0.7071
vn -0.0784 0.9955 0.0524
vn -0.0784 0.9955 0.0524
vn -0.0784 0.9955 0.0524
vn -0.0784 0.9955 0.0524
vn -0.5404 0.8345 0.1075
vn -0.5404 0.8345 0.1075
vn -0.5404 0.8345 0.1075
vn -0.5404 0.8345 0.1075
vn -0.0000 -0.7071 0.7071
vn -0.0000 -0.7071 0.7071
vn -0.0000 -0.7071 0.7071
vn -0.0000 -0.7071 0.7071
vn -0.0000 -0.7071 0.7071
vn -0.0000 -0.7071 0.7071
vn -0.0000 -0.7071 0.7071
vn -0.0000 -0.7071 0.7071
vn 0.8279 -0.5362 0.1647
vn 0.8279 -0.5362 0.1647
vn 0.8279 -0.5362 0.1647
vn 0.8279 -0.5362 0.1647
vn 0.8297 -0.0654 0.5544
vn 0.8297 -0.0654 0.5544
vn 0.8297 -0.0654 0.5544
vn 0.8297 -0.0654 0.5544
vn 0.5550 -0.0437 0.8307
vn 0.5550 -0.0437 0.8307
vn 0.5550 -0.0437 0.8307
vn 0.5550 -0.0437 0.8307
vn 0.1935 -0.1254 0.9731
vn 0.1935 -0.1254 0.9731
vn 0.1935 -0.1254 0.9731
vn 0.1935 -0.1254 0.9731
vn -0.1868 0.2884 0.9391
vn -0.1868 0.2884 0.9391
vn -0.1868 0.2884 0.9391
vn -0.1868 0.2884 0.9391
vn -0.0780 0.9901 0.1167
vn -0.0780 0.9901 0.1167
vn -0.0780 0.9901 0.1167
vn -0.0780 0.9901 0.1167
vn -0.0000 0.7071 0.7071
vn -0.0000 0.7071 0.7071
vn -0.0000 0.7071 0.7071
vn -0.0000 0.7071 0.7071
vn -0.0000 0.7071 0.7071
vn -0.0000 0.7071 0.7071
vn -0.0000 0.7071 0.7071
vn -0.0000 0.7071 0.7071
vn -0.0784 0.9955 0.0524
vn -0.0784 0.9955 0.0524
vn -0.0784 0.9955 0.0524
vn -0.0784 0.9955 0.0524
vn -0.5404 0.8345 0.1075
vn -0.5404 0.8345 0.1075
vn -0.5404 0.8345 0.1075
vn -0.5404 0.8345 0.1075
vn -0.0000 -0.7071 0.7071
vn -0.0000 -0.7071 0.7071
vn -0.0000 -0.7071 0.7071
vn -0.0000 -0.7071 0.7071
vn -0.0000 -0.7071 0.7071
vn -0.0000 -0.7071 0.7071
vn -0.0000 -0.7071 0.7071
vn -0.0000 -0.7071 0.7071
vn 0.8279 -0.5362 0.1647
vn 0.8279 -0.5362 0.1647
vn 0.8279 -0.5362 0.1647
vn 0.8279 -0.5362 0.1647
vn 0.8297 -0.0654 0.5544
vn 0.8297 -0.0654 0.5544
vn 0.8297 -0.0654 0.5544
vn 0.8297 -0.0654 0.5544
vn 0.5550 -0.0437 0.8307
vn 0.5550 -0.0437 0.8307
vn 0.5550 -0.0437 0.8307
vn 0.5550 -0.0437 0.8307
vn 0.1935 -0.1254 0.9731
vn 0.1935 -0.1254 0.9731
vn 0.1935 -0.1254 0.9731
vn 0.1935 -0.1254 0.9731
vn -0.1868 0.2884 0.9391
vn -0.1868 0.2884 0.9391
vn -0.1868 0.2884 0.9391
vn -0.1868 0.2884 0.9391
vn -0.0780 0.9901 0.1167
vn -0.0780 0.9901 0.1167
vn -0.0780 0.9901 0.1167
vn -0.0780 0.9901 0.1167
vn -0.0000 0.7071 0.7071
vn -0.0000 0.7071 0.7071
vn -0.0000 0.7071 0.7071
vn -0.0000 0.7071 0.7071
vn -0.0000 0.7071 0.7071
vn -0.0000 0.7071 0.7071
vn -0.0000 0.7071 0.7071
vn -0.0000 0.7071 0.7071
vn -0.0784 0.9955 0.0524
vn -0.0784 0.9955 0.0524
vn -0.0784 0.9955 0.0524
vn -0.0784 0.9955 0.0524
vn -0.5404 0.8345 0.1075
vn -0.5404 0.8345 0.1075
vn -0.5404 0.8345 0.1075
vn -0.5404 0.8345 0.1075
vn -0.0000 -0.7071 0.7071
vn -0.0000 -0.7071 0.7071
vn -0.0000 -0.7071 0.7071
vn -0.0000 -0.7071 0.7071
vn -0.0000 -0.7071 0.7071
vn -0.0000 -0.7071 0.7071
vn -0.0000 -0.7071 0.7071
vn -0.0000 -0.7071 0.7071
vn 0.8279 -0.5362 0.1647
vn 0.8279 -0.5362 0.1647
vn 0.8279 -0.5362 0.1647
vn 0.8279 -0.5362 0.1647
vn 0.8297 -0.0654 0.5544
vn 0.8297 -0.0654 0.5544
vn 0.8297 -0.0654 0.5544
vn 0.8297 -0.0654 0.5544
vn 0.5550 -0.0437 0.8307
vn 0.5550 -0.0437 0.8307
vn 0.5550 -0.0437 0.8307
vn 0.5550 -0.0437 0.8307
vn 0.1935 -0.1254 0.9731
vn 0.1935 -0.1254 0.9731
vn 0.1935 -0.1254 0.9731
vn 0.1935 -0.1254 0.9731
vn -0.1868 0.2884 0.9391
vn -0.1868 0.2884 0.9391
vn -0.1868 0.2884 0.9391
vn -0.1868 0.2884 0.9391
vn -0.0780 0.9901 0.1167
vn -0.0780 0.9901 0.1167
vn -0.0780 0.9901 0.1167
vn -0.0780 0.9901 0.1167
vn -0.0000 0.7071 0.7071
vn -0.0000 0.7071 0.7071
vn -0.0000 0.7071 0.7071
vn -0.0000 0.7071 0.7071
vn -0.0000 0.7071 0.7071
vn -0.0000 0.7071 0.7071
vn -0.0000 0.7071 0.7071
vn -0.0000 0.7071 0.7071
vn -0.0784 0.9955 0.0524
vn -0.0784 0.9955 0.0524
vn -0.0784 0.9955 0.0524
vn -0.0784 0.9955 0.0524
vn -0.5404 0.8345 0.1075
vn -0.5404 0.8345 0.1075
vn -0.5404 0.8345 0.1075
vn -0.5404 0.8345 0.1075
vn -0.0000 -0.7071 0.7071
vn -0.0000 -0.7071 0.7071
vn -0.0000 -0.7071 0.7071
vn -0.0000 -0.7071 0.7071
vn -0.0000 -0.7071 0.7071
vn -0.0000 -0.7071 0.7071
vn -0.0000 -0.7071 0.7071
vn -0.0000 -0.7071 0.7071
vn -0.0003 0.9946 0.1042
vn -0.0003 0.9946 0.1042
vn -0.0003 0.9946 0.1042
vn -0.0003 0.9946 0.1042
vn -0.7071 0.7071 -0.0000
vn -0.7071 0.7071 -0.0000
vn -0.7071 0.7071 -0.0000
vn -0.7071 0.7071 -0.0000
vn 0.7032 -0.0741 0.7071
vn 0.7032 -0.0741 0.7071
vn 0.7032 -0.0741 0.7071
vn 0.7032 -0.0741 0.7071
vn -0.0000 -0.0000 1.0000
vn -0.0000 -0.0000 1.0000
vn -0.0000 -0.0000 1.0000
vn -0.0000 -0.0000 1.0000
vn 0.0332 0.7069 -0.7065
vn 0.0332 0.7069 -0.7065
vn 0.0332 0.7069 -0.7065
vn 0.0332 0.7069 -0.7065
vn -0.0409 -0.7063 -0.7067
vn -0.0409 -0.7063 -0.7067
vn -0.0409 -0.7063 -0.7067
vn -0.0409 -0.7063 -0.7067
vn -0.4092 0.9068 -0.1019
vn -0.4092 0.9068 -0.1019
vn -0.4092 0.9068 -0.1019
vn -0.4092 0.9068 -0.1019
vn -0.0896 0.8263 -0.5561
vn -0.0896 0.8263 -0.5561
vn -0.0896 0.8263 -0.5561
vn -0.0896 0.8263 -0.5561
vn -0.0432 -0.5818 0.8122
vn -0.0432 -0.5818 0.8122
vn -0.0432 -0.5818 0.8122
vn -0.0432 -0.5818 0.8122
vn 0.0784 -0.3212 0.9438
vn 0.0784 -0.3212 0.9438
vn 0.0784 -0.3212 0.9438
vn 0.0784 -0.3212 0.9438
vn 0.2913 0.1068 0.9506
vn 0.2913 0.1068 0.9506
vn 0.2913 0.1068 0.9506
vn 0.2913 0.1068 0.9506
vn 0.1592 0.5512 0.8191
vn 0.1592 0.5512 0.8191
vn 0.1592 0.5512 0.8191
vn 0.1592 0.5512 0.8191
vn 0.8405 -0.0820 0.5355
vn 0.8405 -0.0820 0.5355
vn 0.8405 -0.0820 0.5355
vn 0.8405 -0.0820 0.5355
vn 0.8405 -0.0820 0.5355
vn 0.8405 -0.0820 0.5355
vn 0.8405 -0.0820 0.5355
vn 0.8405 -0.0820 0.5355
vn 0.2010 -0.7964 -0.5704
vn 0.2010 -0.7964 -0.5704
vn 0.2010 -0.7964 -0.5704
vn 0.2010 -0.7964 -0.5704
vn -0.5070 0.8160 0.2777
vn -0.5070 0.8160 0.2777
vn -0.5070 0.8160 0.2777
vn -0.5070 0.8160 0.2777
vn -0.0961 0.9839 0.1507
vn -0.0961 0.9839 0.1507
vn -0.0961 0.9839 0.1507
vn -0.0961 0.9839 0.1507
vn -0.0961 0.9839 0.1507
vn -0.0961 0.9839 0.1507
vn -0.0961 0.9839 0.1507
vn -0.0961 0.9839 0.1507
f 217//217 219//219 218//218
f 217//217 218//218 220//220
f 221//221 223//223 222//222
f 221//221 222//222 224//224
f 225//225 227//227 226//226
f 225//225 226//226 228//228
f 229//229 231//231 230//230
f 229//229 230//230 232//232
f 233//233 235//235 234//234
f 233//233 234//234 236//236
f 237//237 239//239 238//238
f 237//237 238//238 240//240
f 241//241 243//243 242//242
f 241//241 242//242 244//244
f 242//242 245//245 244//244
f 244//244 246//246 241//241
f 246//246 247//247 241//241
f 244//244 248//248 246//246
f 249//249 251//251 250//250
f 249//249 250//250 252//252
f 253//253 255//255 254//254
f 253//253 254//254 256//256
f 257//257 259//259 258//258
f 257//257 258//258 260//260
f 258//258 261//261 260//260
f 260//260 262//262 257//257
f 262//262 263//263 257//257
f 260//260 264//264 262//262
f 265//265 267//267 266//266
f 265//265 266//266 268//268
f 269//269 271//271 270//270
f 269//269 270//270 272//272
f 273//273 275//275 274//274
f 273//273 274//274 276//276
f 277//277 279//279 278//278
f 277//277 278//278 280//280
f 281//281 283//283 282//282
f 281//281 282//282 284//284
f 285//285 287//287 286//286
f 285//285 286//286 288//288
f 289//289 291//291 290//290
f 289//289 290//290 292//292
f 290//290 293//293 292//292
f 292//292 294//294 289//289
f 294//294 295//295 289//289
f 292//292 296//296 294//294
f 297//297 299//299 298//298
f 297//297 298//298 300//300
f 301//301 303//303 302//302
f 301//301 302//302 304//304
f 305//305 307//307 306//306
f 305//305 306//306 308//308
f 306//306 309//309 308//308
f 308//308 310//310 305//305
f 310//310 311//311 305//305
f 308//308 312//312 310//310
f 313//313 315//315 314//314
f 313//313 314//314 316//316
f 317//317 319//319 318//318
f 317//317 318//318 320//320
f 321//321 323//323 322//322
f 321//321 322//322 324//324
f 325//325 327//327 326//326
f 325//325 326//326 328//328
f 329//329 331//331 330//330
f 329//329 330//330 332//332
f 333//333 335//335 334//334
f 333//333 334//334 336//336
f 337//337 339//339 338//338
f 337//337 338//338 340//340
f 338//338 341//341 340//340
f 340//340 342//342 337//337
f 342//342 343//343 337//337
f 340//340 344//344 342//342
f 345//345 347//347 346//346
f 345//345 346//346 348//348
f 349//349 351//351 350//350
f 349//349 350//350 352//352
f 353//353 355//355 354//354
f 353//353 354//354 356//356
f 354//354 357//357 356//356
f 356//356 358//358 353//353
f 358//358 359//359 353//353
f 356//356 360//360 358//358
f 361//361 363//363 362//362
f 361//361 362//362 364//364
f 365//365 367//367 366//366
f 365//365 366//366 368//368
f 369//369 371//371 370//370
f 369//369 370//370 372//372
f 373//373 375//375 374//374
f 373//373 374//374 376//376
f 377//377 379//379 378//378
f 377//377 378//378 380//380
f 381//381 383//383 382//382
f 381//381 382//382 384//384
f 385//385 387//387 386//386
f 385//385 386//386 388//388
f 386//386 389//389 388//388
f 388//388 390//390 385//385
f 390//390 391//391 385//385
f 388//388 392//392 390//390
f 393//393 395//395 394//394
f 393//393 394//394 396//396
f 397//397 399//399 398//398
f 397//397 398//398 400//400
f 401//401 403//403 402//402
f 401//401 402//402 404//404
f 402//402 405//405 404//404
f 404//404 406//406 401//401
f 406//406 407//407 401//401
f 404//404 408//408 406//406
f 409//409 411//411 410//410
f 409//409 410//410 412//412
f 413//413 415//415 414//414
f 413//413 414//414 416//416
f 417//417 419//419 418//418
f 417//417 418//418 420//420
f 421//421 423//423 422//422
f 421//421 422//422 424//424
f 425//425 427//427 426//426
f 425//425 426//426 428//428
f 429//429 431//431 430//430
f 429//429 430//430 432//432
f 433//433 435//435 434//434
f 433//433 434//434 436//436
f 434//434 437//437 436//436
f 436//436 438//438 433//433
f 438//438 439//439 433//433
f 436//436 440//440 438//438
f 441//441 443//443 442//442
f 441//441 442//442 444//444
f 445//445 447//447 446//446
f 445//445 446//446 448//448
f 449//449 451//451 450//450
f 449//449 450//450 452//452
f 450//450 453//453 452//452
f 452//452 454//454 449//449
f 454//454 455//455 449//449
f 452//452 456//456 454//454
f 457//457 459//459 458//458
f 457//457 458//458 460//460
f 461//461 463//463 462//462
f 461//461 462//462 464//464
f 465//465 467//467 466//466
f 465//465 466//466 468//468
f 469//469 471//471 470//470
f 469//469 470//470 472//472
f 473//473 475//475 474//474
f 473//473 474//474 476//476
f 477//477 479//479 478//478
f 477//477 478//478 480//480
f 481//481 483//483 482//482
f 481//481 482//482 484//484
f 485//485 487//487 486//486
f 485//485 486//486 488//488
f 489//489 491//491 490//490
f 489//489 490//490 492//492
f 493//493 495//495 494//494
f 493//493 494//494 496//496
f 497//497 499//499 498//498
f 497//497 498//498 500//500
f 501//501 503//503 502//502
f 501//501 502//502 504//504
f 505//505 507//507 506//506
f 505//505 506//506 508//508
f 506//506 509//509 508//508
f 508//508 510//510 505//505
f 510//510 511//511 505//505
f 508//508 512//512 510//510
f 513//513 515//515 514//514
f 513//513 514//514 516//516
f 517//517 519//519 518//518
f 517//517 518//518 520//520
f 521//521 523//523 522//522
f 521//521 522//522 524//524
f 522//522 525//525 524//524
f 524//524 526//526 521//521
f 526//526 527//527 521//521
f 524//524 528//528 526//526
g core_wood_dark
usemtl wood_dark
v 0.18000 0.00000 0.00800
v 0.19141 0.06000 0.01629
v 0.18000 0.06000 0.00800
v 0.19141 0.00000 0.01629
v 0.19141 0.00000 0.01629
v 0.18705 0.06000 0.02971
v 0.19141 0.06000 0.01629
v 0.18705 0.00000 0.02971
v 0.18705 0.00000 0.02971
v 0.17294 0.06000 0.02971
v 0.18705 0.06000 0.02971
v 0.17294 0.00000 0.02971
v 0.18705 0.06000 0.02971
v 0.18000 0.06000 0.00800
v 0.19141 0.06000 0.01629
v 0.17294 0.06000 0.02971
v 0.16858 0.06000 0.01629
v 0.17294 0.00000 0.02971
v 0.16858 0.06000 0.01629
v 0.17294 0.06000 0.02971
v 0.16858 0.00000 0.01629
v 0.16858 0.00000 0.01629
v 0.18000 0.06000 0.00800
v 0.16858 0.06000 0.01629
v 0.18000 0.00000 0.00800
v 0.16858 0.00000 0.01629
v 0.19141 0.00000 0.01629
v 0.18000 0.00000 0.00800
v 0.17294 0.00000 0.02971
v 0.18705 0.00000 0.02971
v -0.20000 0.00000 0.14800
v -0.18859 0.06000 0.15629
v -0.20000 0.06000 0.14800
v -0.18859 0.00000 0.15629
v -0.18859 0.00000 0.15629
v -0.19295 0.06000 0.16971
v -0.18859 0.06000 0.15629
v -0.19295 0.00000 0.16971
v -0.19295 0.00000 0.16971
v -0.20705 0.06000 0.16971
v -0.19295 0.06000 0.16971
v -0.20705 0.00000 0.16971
v -0.19295 0.06000 0.16971
v -0.20000 0.06000 0.14800
v -0.18859 0.06000 0.15629
v -0.20705 0.06000 0.16971
v -0.21141 0.06000 0.15629
v -0.20705 0.00000 0.16971
v -0.21141 0.06000 0.15629
v -0.20705 0.06000 0.16971
v -0.21141 0.00000 0.15629
v -0.21141 0.00000 0.15629
v -0.20000 0.06000 0.14800
v -0.21141 0.06000 0.15629
v -0.20000 0.00000 0.14800
v -0.21141 0.00000 0.15629
v -0.18859 0.00000 0.15629
v -0.20000 0.00000 0.14800
v -0.20705 0.00000 0.16971
v -0.19295 0.00000 0.16971
vn 0.8755 -0.3905 0.2845
vn 0.8755 -0.3905 0.2845
vn 0.8755 -0.3905 0.2845
vn 0.8755 -0.3905 0.2845
vn 0.5875 -0.0294 0.8087
vn 0.5875 -0.0294 0.8087
vn 0.5875 -0.0294 0.8087
vn 0.5875 -0.0294 0.8087
vn -0.0000 -0.0000 1.0000
vn -0.0000 -0.0000 1.0000
vn -0.0000 -0.0000 1.0000
vn -0.0000 -0.0000 1.0000
vn -0.0000 0.7071 0.7071
vn -0.0000 0.7071 0.7071
vn -0.0000 0.7071 0.7071
vn -0.0000 0.7071 0.7071
vn -0.0000 0.7071 0.7071
vn -0.0499 0.9964 0.0687
vn -0.0499 0.9964 0.0687
vn -0.0499 0.9964 0.0687
vn -0.0499 0.9964 0.0687
vn -0.4038 0.9054 0.1312
vn -0.4038 0.9054 0.1312
vn -0.4038 0.9054 0.1312
vn -0.4038 0.9054 0.1312
vn -0.0000 -0.7071 0.7071
vn -0.0000 -0.7071 0.7071
vn -0.0000 -0.7071 0.7071
vn -0.0000 -0.7071 0.7071
vn -0.0000 -0.7071 0.7071
vn 0.8755 -0.3905 0.2845
vn 0.8755 -0.3905 0.2845
vn 0.8755 -0.3905 0.2845
vn 0.8755 -0.3905 0.2845
vn 0.5875 -0.0294 0.8087
vn 0.5875 -0.0294 0.8087
vn 0.5875 -0.0294 0.8087
vn 0.5875 -0.0294 0.8087
vn -0.0000 -0.0000 1.0000
vn -0.0000 -0.0000 1.0000
vn -0.0000 -0.0000 1.0000
vn -0.0000 -0.0000 1.0000
vn -0.0000 0.7071 0.7071
vn -0.0000 0.7071 0.7071
vn -0.0000 0.7071 0.7071
vn -0.0000 0.7071 0.7071
vn -0.0000 0.7071 0.7071
vn -0.0499 0.9964 0.0687
vn -0.0499 0.9964 0.0687
vn -0.0499 0.9964 0.0687
vn -0.0499 0.9964 0.0687
vn -0.4038 0.9054 0.1312
vn -0.4038 0.9054 0.1312
vn -0.4038 0.9054 0.1312
vn -0.4038 0.9054 0.1312
vn -0.0000 -0.7071 0.7071
vn -0.0000 -0.7071 0.7071
vn -0.0000 -0.7071 0.7071
vn -0.0000 -0.7071 0.7071
vn -0.0000 -0.7071 0.7071
f 529//529 531//531 530//530
f 529//529 530//530 532//532
f 533//533 535//535 534//534
f 533//533 534//534 536//536
f 537//537 539//539 538//538
f 537//537 538//538 540//540
f 541//541 543//543 542//542
f 542//542 544//544 541//541
f 542//542 545//545 544//544
f 546//546 548//548 547//547
f 546//546 547//547 549//549
f 550//550 552//552 551//551
f 550//550 551//551 553//553
f 554//554 556//556 555//555
f 555//555 557//557 554//554
f 555//555 558//558 557//557
f 559//559 561//561 560//560
f 559//559 560//560 562//562
f 563//563 565//565 564//564
f 563//563 564//564 566//566
f 567//567 569//569 568//568
f 567//567 568//568 570//570
f 571//571 573//573 572//572
f 572//572 574//574 571//571
f 572//572 575//575 574//574
f 576//576 578//578 577//577
f 576//576 577//577 579//579
f 580//580 582//582 581//581
f 580//580 581//581 583//583
f 584//584 586//586 585//585
f 585//585 587//587 584//584
f 585//585 588//588 587//587
g core_leaf
usemtl leaf
v 0.17999 0.04599 0.02000
v 0.16595 0.06727 0.06322
v 0.21789 0.06658 0.04752
v 0.21789 0.06658 0.04752
v 0.21335 0.06938 -0.00424
v 0.17999 0.04599 0.02000
v 0.17999 0.04599 0.02000
v 0.13914 0.06957 0.02000
v 0.16595 0.06727 0.06322
v 0.17999 0.04599 0.02000
v 0.16474 0.06531 -0.02696
v 0.13914 0.06957 0.02000
v 0.17999 0.04599 0.02000
v 0.21335 0.06938 -0.00424
v 0.16474 0.06531 -0.02696
v 0.21789 0.06658 0.04752
v 0.21987 0.10993 0.02000
v 0.21335 0.06938 -0.00424
v 0.16595 0.06727 0.06322
v 0.19412 0.11285 0.06347
v 0.21789 0.06658 0.04752
v 0.13914 0.06957 0.02000
v 0.14157 0.11375 0.04791
v 0.16595 0.06727 0.06322
v 0.16474 0.06531 -0.02696
v 0.14748 0.11010 -0.00363
v 0.13914 0.06957 0.02000
v 0.21335 0.06938 -0.00424
v 0.19451 0.11348 -0.02466
v 0.16474 0.06531 -0.02696
v 0.21789 0.06658 0.04752
v 0.19412 0.11285 0.06347
v 0.21987 0.10993 0.02000
v 0.16595 0.06727 0.06322
v 0.14157 0.11375 0.04791
v 0.19412 0.11285 0.06347
v 0.13914 0.06957 0.02000
v 0.14748 0.11010 -0.00363
v 0.14157 0.11375 0.04791
v 0.16474 0.06531 -0.02696
v 0.19451 0.11348 -0.02466
v 0.14748 0.11010 -0.00363
v 0.21335 0.06938 -0.00424
v 0.21987 0.10993 0.02000
v 0.19451 0.11348 -0.02466
v 0.19412 0.11285 0.06347
v 0.17999 0.13861 0.02000
v 0.21987 0.10993 0.02000
v 0.14157 0.11375 0.04791
v 0.17999 0.13861 0.02000
v 0.19412 0.11285 0.06347
v 0.14748 0.11010 -0.00363
v 0.17999 0.13861 0.02000
v 0.14157 0.11375 0.04791
v 0.19451 0.11348 -0.02466
v 0.17999 0.13861 0.02000
v 0.14748 0.11010 -0.00363
v 0.21987 0.10993 0.02000
v 0.17999 0.13861 0.02000
v 0.19451 0.11348 -0.02466
v -0.20001 0.04599 0.16000
v -0.21301 0.06895 0.20003
v -0.16266 0.06692 0.18713
v -0.16266 0.06692 0.18713
v -0.16153 0.06622 0.13205
v -0.20001 0.04599 0.16000
v -0.20001 0.04599 0.16000
v -0.24343 0.06828 0.16000
v -0.21301 0.06895 0.20003
v -0.20001 0.04599 0.16000
v -0.21404 0.06729 0.11681
v -0.24343 0.06828 0.16000
v -0.20001 0.04599 0.16000
v -0.16153 0.06622 0.13205
v -0.21404 0.06729 0.11681
v -0.16266 0.06692 0.18713
v -0.15221 0.11390 0.16000
v -0.16153 0.06622 0.13205
v -0.21301 0.06895 0.20003
v -0.18574 0.11308 0.20389
v -0.16266 0.06692 0.18713
v -0.24343 0.06828 0.16000
v -0.23453 0.11134 0.18508
v -0.21301 0.06895 0.20003
v -0.21404 0.06729 0.11681
v -0.23311 0.11046 0.13595
v -0.24343 0.06828 0.16000
v -0.16153 0.06622 0.13205
v -0.18768 0.10994 0.12207
v -0.21404 0.06729 0.11681
v -0.16266 0.06692 0.18713
v -0.18574 0.11308 0.20389
v -0.15221 0.11390 0.16000
v -0.21301 0.06895 0.20003
v -0.23453 0.11134 0.18508
v -0.18574 0.11308 0.20389
v -0.24343 0.06828 0.16000
v -0.23311 0.11046 0.13595
v -0.23453 0.11134 0.18508
v -0.21404 0.06729 0.11681
v -0.18768 0.10994 0.12207
v -0.23311 0.11046 0.13595
v -0.16153 0.06622 0.13205
v -0.15221 0.11390 0.16000
v -0.18768 0.10994 0.12207
v -0.18574 0.11308 0.20389
v -0.20001 0.14313 0.16000
v -0.15221 0.11390 0.16000
v -0.23453 0.11134 0.18508
v -0.20001 0.14313 0.16000
v -0.18574 0.11308 0.20389
v -0.23311 0.11046 0.13595
v -0.20001 0.14313 0.16000
v -0.23453 0.11134 0.18508
v -0.18768 0.10994 0.12207
v -0.20001 0.14313 0.16000
v -0.23311 0.11046 0.13595
v -0.15221 0.11390 0.16000
v -0.20001 0.14313 0.16000
v -0.18768 0.10994 0.12207
vn -0.0873 -0.5258 0.8462
vn -0.0873 -0.5258 0.8462
vn -0.0873 -0.5258 0.8462
vn 0.3457 -0.6539 0.6729
vn 0.3457 -0.6539 0.6729
vn 0.3457 -0.6539 0.6729
vn 0.1525 0.6062 -0.7805
vn 0.1525 0.6062 -0.7805
vn 0.1525 0.6062 -0.7805
vn 0.0382 0.8056 -0.5912
vn 0.0382 0.8056 -0.5912
vn 0.0382 0.8056 -0.5912
vn -0.3833 0.7605 -0.5241
vn -0.3833 0.7605 -0.5241
vn -0.3833 0.7605 -0.5241
vn -0.7351 0.0763 -0.6737
vn -0.7351 0.0763 -0.6737
vn -0.7351 0.0763 -0.6737
vn 0.0750 -0.1961 0.9777
vn 0.0750 -0.1961 0.9777
vn 0.0750 -0.1961 0.9777
vn -0.2545 0.9622 -0.0972
vn -0.2545 0.9622 -0.0972
vn -0.2545 0.9622 -0.0972
vn -0.1034 0.9946 -0.0015
vn -0.1034 0.9946 -0.0015
vn -0.1034 0.9946 -0.0015
vn 0.8143 -0.5248 0.2481
vn 0.8143 -0.5248 0.2481
vn 0.8143 -0.5248 0.2481
vn 0.4992 0.1143 0.8589
vn 0.4992 0.1143 0.8589
vn 0.4992 0.1143 0.8589
vn -0.0289 0.2632 0.9643
vn -0.0289 0.2632 0.9643
vn -0.0289 0.2632 0.9643
vn -0.0167 0.9913 0.1306
vn -0.0167 0.9913 0.1306
vn -0.0167 0.9913 0.1306
vn -0.5180 0.8203 0.2423
vn -0.5180 0.8203 0.2423
vn -0.5180 0.8203 0.2423
vn 0.8639 -0.0188 0.5033
vn 0.8639 -0.0188 0.5033
vn 0.8639 -0.0188 0.5033
vn -0.3420 -0.4931 -0.7999
vn -0.3420 -0.4931 -0.7999
vn -0.3420 -0.4931 -0.7999
vn 0.1322 0.4990 0.8565
vn 0.1322 0.4990 0.8565
vn 0.1322 0.4990 0.8565
vn -0.1368 0.7750 0.6169
vn -0.1368 0.7750 0.6169
vn -0.1368 0.7750 0.6169
vn 0.3307 -0.8128 -0.4795
vn 0.3307 -0.8128 -0.4795
vn 0.3307 -0.8128 -0.4795
vn -0.3191 -0.7334 -0.6003
vn -0.3191 -0.7334 -0.6003
vn -0.3191 -0.7334 -0.6003
vn -0.1124 -0.4997 0.8589
vn -0.1124 -0.4997 0.8589
vn -0.1124 -0.4997 0.8589
vn 0.2506 -0.6567 0.7113
vn 0.2506 -0.6567 0.7113
vn 0.2506 -0.6567 0.7113
vn 0.1845 0.5485 -0.8155
vn 0.1845 0.5485 -0.8155
vn 0.1845 0.5485 -0.8155
vn 0.0038 0.8309 -0.5564
vn 0.0038 0.8309 -0.5564
vn 0.0038 0.8309 -0.5564
vn -0.2989 0.8093 -0.5057
vn -0.2989 0.8093 -0.5057
vn -0.2989 0.8093 -0.5057
vn 0.6836 -0.1465 0.7150
vn 0.6836 -0.1465 0.7150
vn 0.6836 -0.1465 0.7150
vn 0.0292 -0.2046 0.9784
vn 0.0292 -0.2046 0.9784
vn 0.0292 -0.2046 0.9784
vn -0.3302 0.9190 0.2153
vn -0.3302 0.9190 0.2153
vn -0.3302 0.9190 0.2153
vn -0.1511 0.9885 0.0060
vn -0.1511 0.9885 0.0060
vn -0.1511 0.9885 0.0060
vn 0.7955 -0.5921 0.1286
vn 0.7955 -0.5921 0.1286
vn 0.7955 -0.5921 0.1286
vn 0.4520 0.0211 0.8918
vn 0.4520 0.0211 0.8918
vn 0.4520 0.0211 0.8918
vn -0.0745 0.3286 0.9415
vn -0.0745 0.3286 0.9415
vn -0.0745 0.3286 0.9415
vn -0.0073 0.9765 0.2154
vn -0.0073 0.9765 0.2154
vn -0.0073 0.9765 0.2154
vn -0.5757 0.7926 0.2008
vn -0.5757 0.7926 0.2008
vn -0.5757 0.7926 0.2008
vn 0.9174 -0.1905 0.3495
vn 0.9174 -0.1905 0.3495
vn 0.9174 -0.1905 0.3495
vn 0.3068 0.4633 0.8314
vn 0.3068 0.4633 0.8314
vn 0.3068 0.4633 0.8314
vn 0.1323 0.4973 0.8574
vn 0.1323 0.4973 0.8574
vn 0.1323 0.4973 0.8574
vn -0.0844 0.7889 0.6087
vn -0.0844 0.7889 0.6087
vn -0.0844 0.7889 0.6087
vn 0.4153 -0.8204 -0.3930
vn 0.4153 -0.8204 -0.3930
vn 0.4153 -0.8204 -0.3930
vn -0.0035 -0.8966 -0.4428
vn -0.0035 -0.8966 -0.4428
vn -0.0035 -0.8966 -0.4428
f 589//589 591//591 590//590
f 592//592 594//594 593//593
f 595//595 597//597 596//596
f 598//598 600//600 599//599
f 601//601 603//603 602//602
f 604//604 606//606 605//605
f 607//607 609//609 608//608
f 610//610 612//612 611//611
f 613//613 615//615 614//614
f 616//616 618//618 617//617
f 619//619 621//621 620//620
f 622//622 624//624 623//623
f 625//625 627//627 626//626
f 628//628 630//630 629//629
f 631//631 633//633 632//632
f 634//634 636//636 635//635
f 637//637 639//639 638//638
f 640//640 642//642 641//641
f 643//643 645//645 644//644
f 646//646 648//648 647//647
f 649//649 651//651 650//650
f 652//652 654//654 653//653
f 655//655 657//657 656//656
f 658//658 660//660 659//659
f 661//661 663//663 662//662
f 664//664 666//666 665//665
f 667//667 669//669 668//668
f 670//670 672//672 671//671
f 673//673 675//675 674//674
f 676//676 678//678 677//677
f 679//679 681//681 680//680
f 682//682 684//684 683//683
f 685//685 687//687 686//686
f 688//688 690//690 689//689
f 691//691 693//693 692//692
f 694//694 696//696 695//695
f 697//697 699//699 698//698
f 700//700 702//702 701//701
f 703//703 705//705 704//704
f 706//706 708//708 707//707
g core_gold
usemtl gold
v 0.10000 0.01000 -0.02000
v 0.09171 0.02658 0.00552
v 0.12171 0.02658 -0.00423
v 0.12171 0.02658 -0.00423
v 0.12171 0.02658 -0.03577
v 0.10000 0.01000 -0.02000
v 0.10000 0.01000 -0.02000
v 0.07317 0.02658 -0.02000
v 0.09171 0.02658 0.00552
v 0.10000 0.01000 -0.02000
v 0.09171 0.02658 -0.04552
v 0.07317 0.02658 -0.02000
v 0.10000 0.01000 -0.02000
v 0.12171 0.02658 -0.03577
v 0.09171 0.02658 -0.04552
v 0.12171 0.02658 -0.00423
v 0.12683 0.05342 -0.02000
v 0.12171 0.02658 -0.03577
v 0.09171 0.02658 0.00552
v 0.10829 0.05342 0.00552
v 0.12171 0.02658 -0.00423
v 0.07317 0.02658 -0.02000
v 0.07829 0.05342 -0.00423
v 0.09171 0.02658 0.00552
v 0.09171 0.02658 -0.04552
v 0.07829 0.05342 -0.03577
v 0.07317 0.02658 -0.02000
v 0.12171 0.02658 -0.03577
v 0.10829 0.05342 -0.04552
v 0.09171 0.02658 -0.04552
v 0.12171 0.02658 -0.00423
v 0.10829 0.05342 0.00552
v 0.12683 0.05342 -0.02000
v 0.09171 0.02658 0.00552
v 0.07829 0.05342 -0.00423
v 0.10829 0.05342 0.00552
v 0.07317 0.02658 -0.02000
v 0.07829 0.05342 -0.03577
v 0.07829 0.05342 -0.00423
v 0.09171 0.02658 -0.04552
v 0.10829 0.05342 -0.04552
v 0.07829 0.05342 -0.03577
v 0.12171 0.02658 -0.03577
v 0.12683 0.05342 -0.02000
v 0.10829 0.05342 -0.04552
v 0.10829 0.05342 0.00552
v 0.10000 0.07000 -0.02000
v 0.12683 0.05342 -0.02000
v 0.07829 0.05342 -0.00423
v 0.10000 0.07000 -0.02000
v 0.10829 0.05342 0.00552
v 0.07829 0.05342 -0.03577
v 0.10000 0.07000 -0.02000
v 0.07829 0.05342 -0.00423
v 0.10829 0.05342 -0.04552
v 0.10000 0.07000 -0.02000
v 0.07829 0.05342 -0.03577
v 0.12683 0.05342 -0.02000
v 0.10000 0.07000 -0.02000
v 0.10829 0.05342 -0.04552
vn -0.0795 -0.4827 0.8722
vn -0.0795 -0.4827 0.8722
vn -0.0795 -0.4827 0.8722
vn 0.3666 -0.6071 0.7050
vn 0.3666 -0.6071 0.7050
vn 0.3666 -0.6071 0.7050
vn 0.1816 0.5485 -0.8162
vn 0.1816 0.5485 -0.8162
vn 0.1816 0.5485 -0.8162
vn -0.0193 0.8657 -0.5001
vn -0.0193 0.8657 -0.5001
vn -0.0193 0.8657 -0.5001
vn -0.4310 0.7842 -0.4464
vn -0.4310 0.7842 -0.4464
vn -0.4310 0.7842 -0.4464
vn 0.6943 -0.1338 0.7071
vn 0.6943 -0.1338 0.7071
vn 0.6943 -0.1338 0.7071
vn 0.0843 -0.2056 0.9750
vn 0.0843 -0.2056 0.9750
vn 0.0843 -0.2056 0.9750
vn -0.3100 0.9359 0.1673
vn -0.3100 0.9359 0.1673
vn -0.3100 0.9359 0.1673
vn -0.1515 0.9876 -0.0411
vn -0.1515 0.9876 -0.0411
vn -0.1515 0.9876 -0.0411
vn 0.7901 -0.5858 0.1808
vn 0.7901 -0.5858 0.1808
vn 0.7901 -0.5858 0.1808
vn 0.4624 0.0369 0.8859
vn 0.4624 0.0369 0.8859
vn 0.4624 0.0369 0.8859
vn -0.0249 0.2948 0.9552
vn -0.0249 0.2948 0.9552
vn -0.0249 0.2948 0.9552
vn -0.0017 0.9826 0.1859
vn -0.0017 0.9826 0.1859
vn -0.0017 0.9826 0.1859
vn -0.5790 0.7977 0.1683
vn -0.5790 0.7977 0.1683
vn -0.5790 0.7977 0.1683
vn 0.8940 -0.0789 0.4410
vn 0.8940 -0.0789 0.4410
vn 0.8940 -0.0789 0.4410
vn 0.3088 0.4757 0.8236
vn 0.3088 0.4757 0.8236
vn 0.3088 0.4757 0.8236
vn 0.1359 0.4900 0.8611
vn 0.1359 0.4900 0.8611
vn 0.1359 0.4900 0.8611
vn -0.0827 0.7552 0.6503
vn -0.0827 0.7552 0.6503
vn -0.0827 0.7552 0.6503
vn 0.3427 -0.8220 -0.4549
vn 0.3427 -0.8220 -0.4549
vn 0.3427 -0.8220 -0.4549
vn -0.1939 -0.8143 -0.5472
vn -0.1939 -0.8143 -0.5472
vn -0.1939 -0.8143 -0.5472
f 709//709 711//711 710//710
f 712//712 714//714 713//713
f 715//715 717//717 716//716
f 718//718 720//720 719//719
f 721//721 723//723 722//722
f 724//724 726//726 725//725
f 727//727 729//729 728//728
f 730//730 732//732 731//731
f 733//733 735//735 734//734
f 736//736 738//738 737//737
f 739//739 741//741 740//740
f 742//742 744//744 743//743
f 745//745 747//747 746//746
f 748//748 750//750 749//749
f 751//751 753//753 752//752
f 754//754 756//756 755//755
f 757//757 759//759 758//758
f 760//760 762//762 761//761
f 763//763 765//765 764//764
f 766//766 768//768 767//767
