mtllib settle_banner.mtl
o core
g core_wood_dark
usemtl wood_dark
v 0.00000 0.00000 -0.04600
v 0.01386 1.00000 -0.03800
v 0.00000 1.00000 -0.04600
v 0.01386 0.00000 -0.03800
v 0.01386 0.00000 -0.03800
v 0.01386 1.00000 -0.02200
v 0.01386 1.00000 -0.03800
v 0.01386 0.00000 -0.02200
v 0.01386 0.00000 -0.02200
v 0.00000 1.00000 -0.01400
v 0.01386 1.00000 -0.02200
v 0.00000 0.00000 -0.01400
v 0.00000 0.00000 -0.01400
v -0.01386 1.00000 -0.02200
v 0.00000 1.00000 -0.01400
v -0.01386 0.00000 -0.02200
v 0.01386 1.00000 -0.02200
v 0.00000 1.00000 -0.04600
v 0.01386 1.00000 -0.03800
v -0.01386 1.00000 -0.02200
v 0.00000 1.00000 -0.01400
v -0.01386 1.00000 -0.03800
v -0.01386 0.00000 -0.02200
v -0.01386 1.00000 -0.03800
v -0.01386 1.00000 -0.02200
v -0.01386 0.00000 -0.03800
v -0.01386 0.00000 -0.03800
v 0.00000 1.00000 -0.04600
v -0.01386 1.00000 -0.03800
v 0.00000 0.00000 -0.04600
v -0.01386 0.00000 -0.03800
v 0.01386 0.00000 -0.03800
v 0.00000 0.00000 -0.04600
v 0.00000 0.00000 -0.01400
v -0.01386 0.00000 -0.02200
v 0.01386 0.00000 -0.02200
vn 0.5000 0.0000 -0.8660
vn 0.5000 0.0000 -0.8660
vn 0.5000 0.0000 -0.8660
vn 0.5000 0.0000 -0.8660
vn 1.0000 0.0000 -0.0000
vn 1.0000 0.0000 -0.0000
vn 1.0000 0.0000 -0.0000
vn 1.0000 0.0000 -0.0000
vn 0.5000 -0.0000 0.8660
vn 0.5000 -0.0000 0.8660
vn 0.5000 -0.0000 0.8660
vn 0.5000 -0.0000 0.8660
vn -0.5000 -0.0000 0.8660
vn -0.5000 -0.0000 0.8660
vn -0.5000 -0.0000 0.8660
vn -0.5000 -0.0000 0.8660
vn 0.0000 1.0000 -0.0000
vn 0.0000 1.0000 -0.0000
vn 0.0000 1.0000 -0.0000
vn 0.0000 1.0000 -0.0000
vn 0.0000 1.0000 -0.0000
vn 0.0000 1.0000 -0.0000
vn -1.0000 0.0000 -0.0000
vn -1.0000 0.0000 -0.0000
vn -1.0000 0.0000 -0.0000
vn -1.0000 0.0000 -0.0000
vn -0.5000 0.0000 -0.8660
vn -0.5000 0.0000 -0.8660
vn -0.5000 0.0000 -0.8660
vn -0.5000 0.0000 -0.8660
vn 0.0000 -1.0000 -0.0000
vn 0.0000 -1.0000 -0.0000
vn 0.0000 -1.0000 -0.0000
vn 0.0000 -1.0000 -0.0000
vn 0.0000 -1.0000 -0.0000
vn 0.0000 -1.0000 -0.0000
f 1//1 3//3 2//2
f 1//1 2//2 4//4
f 5//5 7//7 6//6
f 5//5 6//6 8//8
f 9//9 11//11 10//10
f 9//9 10//10 12//12
f 13//13 15//15 14//14
f 13//13 14//14 16//16
f 17//17 19//19 18//18
f 18//18 20//20 17//17
f 20//20 21//21 17//17
f 18//18 22//22 20//20
f 23//23 25//25 24//24
f 23//23 24//24 26//26
f 27//27 29//29 28//28
f 27//27 28//28 30//30
f 31//31 33//33 32//32
f 32//32 34//34 31//31
f 34//34 35//35 31//31
f 32//32 36//36 34//34
g core_gold
usemtl gold
v 0.18600 0.95400 0.01500
v -0.18600 0.97400 0.01500
v 0.18600 0.97400 0.01500
v -0.18600 0.95400 0.01500
v 0.19000 0.95400 -0.01100
v 0.19000 0.97400 0.01100
v 0.19000 0.97400 -0.01100
v 0.19000 0.95400 0.01100
v 0.18600 0.97800 -0.01100
v -0.18600 0.97800 0.01100
v -0.18600 0.97800 -0.01100
v 0.18600 0.97800 0.01100
v -0.19000 0.95400 0.01100
v -0.19000 0.97400 -0.01100
v -0.19000 0.97400 0.01100
v -0.19000 0.95400 -0.01100
v -0.18600 0.95400 -0.01500
v 0.18600 0.97400 -0.01500
v -0.18600 0.97400 -0.01500
v 0.18600 0.95400 -0.01500
v -0.18600 0.95000 0.01100
v -0.19000 0.95400 0.01100
v -0.18600 0.95400 0.01500
v -0.18600 0.97400 0.01500
v -0.19000 0.97400 0.01100
v -0.18600 0.97800 0.01100
v -0.18600 0.95000 -0.01100
v -0.18600 0.95400 -0.01500
v -0.19000 0.95400 -0.01100
v -0.18600 0.97800 -0.01100
v -0.19000 0.97400 -0.01100
v -0.18600 0.97400 -0.01500
v 0.18600 0.95000 0.01100
v 0.18600 0.95400 0.01500
v 0.19000 0.95400 0.01100
v 0.18600 0.97800 0.01100
v 0.19000 0.97400 0.01100
v 0.18600 0.97400 0.01500
v 0.18600 0.95000 -0.01100
v 0.19000 0.95400 -0.01100
v 0.18600 0.95400 -0.01500
v 0.18600 0.97800 -0.01100
v 0.18600 0.97400 -0.01500
v 0.19000 0.97400 -0.01100
v -0.18600 0.95000 -0.01100
v -0.19000 0.95400 0.01100
v -0.18600 0.95000 0.01100
v -0.19000 0.95400 -0.01100
v -0.18600 0.95400 0.01500
v -0.19000 0.97400 0.01100
v -0.18600 0.97400 0.01500
v -0.19000 0.95400 0.01100
v -0.18600 0.97800 0.01100
v -0.19000 0.97400 -0.01100
v -0.18600 0.97800 -0.01100
v -0.19000 0.97400 0.01100
v -0.18600 0.97400 -0.01500
v -0.19000 0.95400 -0.01100
v -0.18600 0.95400 -0.01500
v -0.19000 0.97400 -0.01100
v 0.18600 0.95000 -0.01100
v -0.18600 0.95400 -0.01500
v -0.18600 0.95000 -0.01100
v 0.18600 0.95400 -0.01500
v -0.18600 0.97800 -0.01100
v 0.18600 0.97400 -0.01500
v 0.18600 0.97800 -0.01100
v -0.18600 0.97400 -0.01500
v 0.19000 0.97400 -0.01100
v 0.18600 0.95400 -0.01500
v 0.19000 0.95400 -0.01100
v 0.18600 0.97400 -0.01500
v 0.18600 0.95000 0.01100
v 0.19000 0.95400 -0.01100
v 0.18600 0.95000 -0.01100
v 0.19000 0.95400 0.01100
v 0.18600 0.97800 -0.01100
v 0.19000 0.97400 0.01100
v 0.18600 0.97800 0.01100
v 0.19000 0.97400 -0.01100
v 0.18600 0.97400 0.01500
v 0.19000 0.95400 0.01100
v 0.18600 0.95400 0.01500
v 0.19000 0.97400 0.01100
v -0.18600 0.95000 0.01100
v 0.18600 0.95400 0.01500
v 0.18600 0.95000 0.01100
v -0.18600 0.95400 0.01500
v 0.18600 0.97800 0.01100
v -0.18600 0.97400 0.01500
v -0.18600 0.97800 0.01100
v 0.18600 0.97400 0.01500
v -0.18600 0.95000 -0.01100
v 0.18600 0.95000 0.01100
v 0.18600 0.95000 -0.01100
v -0.18600 0.95000 0.01100
v 0.00000 1.00000 -0.03000
v -0.00829 1.01658 -0.00448
v 0.02171 1.01658 -0.01423
v 0.02171 1.01658 -0.01423
v 0.02171 1.01658 -0.04577
v 0.00000 1.00000 -0.03000
v 0.00000 1.00000 -0.03000
v -0.02683 1.01658 -0.03000
v -0.00829 1.01658 -0.00448
v 0.00000 1.00000 -0.03000
v -0.00829 1.01658 -0.05552
v -0.02683 1.01658 -0.03000
v 0.00000 1.00000 -0.03000
v 0.02171 1.01658 -0.04577
v -0.00829 1.01658 -0.05552
v 0.02171 1.01658 -0.01423
v 0.02683 1.04342 -0.03000
v 0.02171 1.01658 -0.04577
v -0.00829 1.01658 -0.00448
v 0.00829 1.04342 -0.00448
v 0.02171 1.01658 -0.01423
v -0.02683 1.01658 -0.03000
v -0.02171 1.04342 -0.01423
v -0.00829 1.01658 -0.00448
v -0.00829 1.01658 -0.05552
v -0.02171 1.04342 -0.04577
v -0.02683 1.01658 -0.03000
v 0.02171 1.01658 -0.04577
v 0.00829 1.04342 -0.05552
v -0.00829 1.01658 -0.05552
v 0.02171 1.01658 -0.01423
v 0.00829 1.04342 -0.00448
v 0.02683 1.04342 -0.03000
v -0.00829 1.01658 -0.00448
v -0.02171 1.04342 -0.01423
v 0.00829 1.04342 -0.00448
v -0.02683 1.01658 -0.03000
v -0.02171 1.04342 -0.04577
v -0.02171 1.04342 -0.01423
v -0.00829 1.01658 -0.05552
v 0.00829 1.04342 -0.05552
v -0.02171 1.04342 -0.04577
v 0.02171 1.01658 -0.04577
v 0.02683 1.04342 -0.03000
v 0.00829 1.04342 -0.05552
v 0.00829 1.04342 -0.00448
v 0.00000 1.06000 -0.03000
v 0.02683 1.04342 -0.03000
v -0.02171 1.04342 -0.01423
v 0.00000 1.06000 -0.03000
v 0.00829 1.04342 -0.00448
v -0.02171 1.04342 -0.04577
v 0.00000 1.06000 -0.03000
v -0.02171 1.04342 -0.01423
v 0.00829 1.04342 -0.05552
v 0.00000 1.06000 -0.03000
v -0.02171 1.04342 -0.04577
v 0.02683 1.04342 -0.03000
v 0.00000 1.06000 -0.03000
v 0.00829 1.04342 -0.05552
v -0.19500 0.94600 0.00000
v -0.19997 0.95595 0.01531
v -0.18198 0.95595 0.00946
v -0.18198 0.95595 0.00946
v -0.18198 0.95595 -0.00946
v -0.19500 0.94600 0.00000
v -0.19500 0.94600 0.00000
v -0.21110 0.95595 0.00000
v -0.19997 0.95595 0.01531
v -0.19500 0.94600 0.00000
v -0.19997 0.95595 -0.01531
v -0.21110 0.95595 0.00000
v -0.19500 0.94600 0.00000
v -0.18198 0.95595 -0.00946
v -0.19997 0.95595 -0.01531
v -0.18198 0.95595 0.00946
v -0.17890 0.97205 0.00000
v -0.18198 0.95595 -0.00946
v -0.19997 0.95595 0.01531
v -0.19003 0.97205 0.01531
v -0.18198 0.95595 0.00946
v -0.21110 0.95595 0.00000
v -0.20802 0.97205 0.00946
v -0.19997 0.95595 0.01531
v -0.19997 0.95595 -0.01531
v -0.20802 0.97205 -0.00946
v -0.21110 0.95595 0.00000
v -0.18198 0.95595 -0.00946
v -0.19003 0.97205 -0.01531
v -0.19997 0.95595 -0.01531
v -0.18198 0.95595 0.00946
v -0.19003 0.97205 0.01531
v -0.17890 0.97205 0.00000
v -0.19997 0.95595 0.01531
v -0.20802 0.97205 0.00946
v -0.19003 0.97205 0.01531
v -0.21110 0.95595 0.00000
v -0.20802 0.97205 -0.00946
v -0.20802 0.97205 0.00946
v -0.19997 0.95595 -0.01531
v -0.19003 0.97205 -0.01531
v -0.20802 0.97205 -0.00946
v -0.18198 0.95595 -0.00946
v -0.17890 0.97205 0.00000
v -0.19003 0.97205 -0.01531
v -0.19003 0.97205 0.01531
v -0.19500 0.98200 0.00000
v -0.17890 0.97205 0.00000
v -0.20802 0.97205 0.00946
v -0.19500 0.98200 0.00000
v -0.19003 0.97205 0.01531
v -0.20802 0.97205 -0.00946
v -0.19500 0.98200 0.00000
v -0.20802 0.97205 0.00946
v -0.19003 0.97205 -0.01531
v -0.19500 0.98200 0.00000
v -0.20802 0.97205 -0.00946
v -0.17890 0.97205 0.00000
v -0.19500 0.98200 0.00000
v -0.19003 0.97205 -0.01531
v 0.19500 0.94600 0.00000
v 0.19003 0.95595 0.01531
v 0.20802 0.95595 0.00946
v 0.20802 0.95595 0.00946
v 0.20802 0.95595 -0.00946
v 0.19500 0.94600 0.00000
v 0.19500 0.94600 0.00000
v 0.17890 0.95595 0.00000
v 0.19003 0.95595 0.01531
v 0.19500 0.94600 0.00000
v 0.19003 0.95595 -0.01531
v 0.17890 0.95595 0.00000
v 0.19500 0.94600 0.00000
v 0.20802 0.95595 -0.00946
v 0.19003 0.95595 -0.01531
v 0.20802 0.95595 0.00946
v 0.21110 0.97205 0.00000
v 0.20802 0.95595 -0.00946
v 0.19003 0.95595 0.01531
v 0.19997 0.97205 0.01531
v 0.20802 0.95595 0.00946
v 0.17890 0.95595 0.00000
v 0.18198 0.97205 0.00946
v 0.19003 0.95595 0.01531
v 0.19003 0.95595 -0.01531
v 0.18198 0.97205 -0.00946
v 0.17890 0.95595 0.00000
v 0.20802 0.95595 -0.00946
v 0.19997 0.97205 -0.01531
v 0.19003 0.95595 -0.01531
v 0.20802 0.95595 0.00946
v 0.19997 0.97205 0.01531
v 0.21110 0.97205 0.00000
v 0.19003 0.95595 0.01531
v 0.18198 0.97205 0.00946
v 0.19997 0.97205 0.01531
v 0.17890 0.95595 0.00000
v 0.18198 0.97205 -0.00946
v 0.18198 0.97205 0.00946
v 0.19003 0.95595 -0.01531
v 0.19997 0.97205 -0.01531
v 0.18198 0.97205 -0.00946
v 0.20802 0.95595 -0.00946
v 0.21110 0.97205 0.00000
v 0.19997 0.97205 -0.01531
v 0.19997 0.97205 0.01531
v 0.19500 0.98200 0.00000
v 0.21110 0.97205 0.00000
v 0.18198 0.97205 0.00946
v 0.19500 0.98200 0.00000
v 0.19997 0.97205 0.01531
v 0.18198 0.97205 -0.00946
v 0.19500 0.98200 0.00000
v 0.18198 0.97205 0.00946
v 0.19997 0.97205 -0.01531
v 0.19500 0.98200 0.00000
v 0.18198 0.97205 -0.00946
v 0.21110 0.97205 0.00000
v 0.19500 0.98200 0.00000
v 0.19997 0.97205 -0.01531
vn -0.0000 -0.0000 1.0000
vn -0.0000 -0.0000 1.0000
vn -0.0000 -0.0000 1.0000
vn -0.0000 -0.0000 1.0000
vn 1.0000 0.0000 -0.0000
vn 1.0000 0.0000 -0.0000
vn 1.0000 0.0000 -0.0000
vn 1.0000 0.0000 -0.0000
vn 0.0000 1.0000 -0.0000
vn 0.0000 1.0000 -0.0000
vn 0.0000 1.0000 -0.0000
vn 0.0000 1.0000 -0.0000
vn -1.0000 0.0000 -0.0000
vn -1.0000 0.0000 -0.0000
vn -1.0000 0.0000 -0.0000
vn -1.0000 0.0000 -0.0000
vn 0.0000 0.0000 -1.0000
vn 0.0000 0.0000 -1.0000
vn 0.0000 0.0000 -1.0000
vn 0.0000 0.0000 -1.0000
vn -0.5773 -0.5774 0.5774
vn -0.5773 -0.5774 0.5774
vn -0.5773 -0.5774 0.5774
vn -0.5773 0.5774 0.5774
vn -0.5773 0.5774 0.5774
vn -0.5773 0.5774 0.5774
vn -0.5773 -0.5774 -0.5774
vn -0.5773 -0.5774 -0.5774
vn -0.5773 -0.5774 -0.5774
vn -0.5773 0.5774 -0.5774
vn -0.5773 0.5774 -0.5774
vn -0.5773 0.5774 -0.5774
vn 0.5772 -0.5774 0.5774
vn 0.5772 -0.5774 0.5774
vn 0.5772 -0.5774 0.5774
vn 0.5772 0.5774 0.5775
vn 0.5772 0.5774 0.5775
vn 0.5772 0.5774 0.5775
vn 0.5773 -0.5774 -0.5774
vn 0.5773 -0.5774 -0.5774
vn 0.5773 -0.5774 -0.5774
vn 0.5773 0.5774 -0.5773
vn 0.5773 0.5774 -0.5773
vn 0.5773 0.5774 -0.5773
vn -0.7071 -0.7071 -0.0001
vn -0.7071 -0.7071 -0.0001
vn -0.7071 -0.7071 -0.0001
vn -0.7071 -0.7071 -0.0001
vn -0.7071 -0.0000 0.7071
vn -0.7071 -0.0000 0.7071
vn -0.7071 -0.0000 0.7071
vn -0.7071 -0.0000 0.7071
vn -0.7071 0.7071 -0.0000
vn -0.7071 0.7071 -0.0000
vn -0.7071 0.7071 -0.0000
vn -0.7071 0.7071 -0.0000
vn -0.7071 0.0000 -0.7071
vn -0.7071 0.0000 -0.7071
vn -0.7071 0.0000 -0.7071
vn -0.7071 0.0000 -0.7071
vn 0.0000 -0.7071 -0.7071
vn 0.0000 -0.7071 -0.7071
vn 0.0000 -0.7071 -0.7071
vn 0.0000 -0.7071 -0.7071
vn 0.0000 0.7071 -0.7071
vn 0.0000 0.7071 -0.7071
vn 0.0000 0.7071 -0.7071
vn 0.0000 0.7071 -0.7071
vn 0.7071 0.0000 -0.7071
vn 0.7071 0.0000 -0.7071
vn 0.7071 0.0000 -0.7071
vn 0.7071 0.0000 -0.7071
vn 0.7071 -0.7071 -0.0000
vn 0.7071 -0.7071 -0.0000
vn 0.7071 -0.7071 -0.0000
vn 0.7071 -0.7071 -0.0000
vn 0.7071 0.7071 0.0000
vn 0.7071 0.7071 0.0000
vn 0.7071 0.7071 0.0000
vn 0.7071 0.7071 0.0000
vn 0.7071 -0.0000 0.7071
vn 0.7071 -0.0000 0.7071
vn 0.7071 -0.0000 0.7071
vn 0.7071 -0.0000 0.7071
vn -0.0000 -0.7071 0.7071
vn -0.0000 -0.7071 0.7071
vn -0.0000 -0.7071 0.7071
vn -0.0000 -0.7071 0.7071
vn -0.0000 0.7071 0.7071
vn -0.0000 0.7071 0.7071
vn -0.0000 0.7071 0.7071
vn -0.0000 0.7071 0.7071
vn 0.0000 -1.0000 -0.0000
vn 0.0000 -1.0000 -0.0000
vn 0.0000 -1.0000 -0.0000
vn 0.0000 -1.0000 -0.0000
vn 0.1875 -0.7947 0.5773
vn 0.1875 -0.7947 0.5773
vn 0.1875 -0.7947 0.5773
vn 0.6070 -0.7947 0.0000
vn 0.6070 -0.7947 0.0000
vn 0.6070 -0.7947 0.0000
vn -0.4911 -0.7947 0.3567
vn -0.4911 -0.7947 0.3567
vn -0.4911 -0.7947 0.3567
vn -0.4911 -0.7947 -0.3568
vn -0.4911 -0.7947 -0.3568
vn -0.4911 -0.7947 -0.3568
vn 0.1876 -0.7947 -0.5774
vn 0.1876 -0.7947 -0.5774
vn 0.1876 -0.7947 -0.5774
vn 0.9822 -0.1876 -0.0000
vn 0.9822 -0.1876 -0.0000
vn 0.9822 -0.1876 -0.0000
vn 0.3035 -0.1876 0.9342
vn 0.3035 -0.1876 0.9342
vn 0.3035 -0.1876 0.9342
vn -0.7947 -0.1877 0.5773
vn -0.7947 -0.1877 0.5773
vn -0.7947 -0.1877 0.5773
vn -0.7946 -0.1876 -0.5775
vn -0.7946 -0.1876 -0.5775
vn -0.7946 -0.1876 -0.5775
vn 0.3035 -0.1876 -0.9342
vn 0.3035 -0.1876 -0.9342
vn 0.3035 -0.1876 -0.9342
vn 0.7946 0.1876 0.5774
vn 0.7946 0.1876 0.5774
vn 0.7946 0.1876 0.5774
vn -0.3035 0.1876 0.9342
vn -0.3035 0.1876 0.9342
vn -0.3035 0.1876 0.9342
vn -0.9823 0.1876 -0.0000
vn -0.9823 0.1876 -0.0000
vn -0.9823 0.1876 -0.0000
vn -0.3035 0.1876 -0.9342
vn -0.3035 0.1876 -0.9342
vn -0.3035 0.1876 -0.9342
vn 0.7946 0.1876 -0.5774
vn 0.7946 0.1876 -0.5774
vn 0.7946 0.1876 -0.5774
vn 0.4911 0.7947 0.3568
vn 0.4911 0.7947 0.3568
vn 0.4911 0.7947 0.3568
vn -0.1876 0.7946 0.5774
vn -0.1876 0.7946 0.5774
vn -0.1876 0.7946 0.5774
vn -0.6071 0.7946 0.0000
vn -0.6071 0.7946 0.0000
vn -0.6071 0.7946 0.0000
vn -0.1876 0.7946 -0.5774
vn -0.1876 0.7946 -0.5774
vn -0.1876 0.7946 -0.5774
vn 0.4911 0.7947 -0.3567
vn 0.4911 0.7947 -0.3567
vn 0.4911 0.7947 -0.3567
vn 0.1876 -0.7946 0.5774
vn 0.1876 -0.7946 0.5774
vn 0.1876 -0.7946 0.5774
vn 0.6070 -0.7947 0.0000
vn 0.6070 -0.7947 0.0000
vn 0.6070 -0.7947 0.0000
vn -0.4911 -0.7947 0.3567
vn -0.4911 -0.7947 0.3567
vn -0.4911 -0.7947 0.3567
vn -0.4911 -0.7947 -0.3568
vn -0.4911 -0.7947 -0.3568
vn -0.4911 -0.7947 -0.3568
vn 0.1876 -0.7946 -0.5774
vn 0.1876 -0.7946 -0.5774
vn 0.1876 -0.7946 -0.5774
vn 0.9822 -0.1876 -0.0000
vn 0.9822 -0.1876 -0.0000
vn 0.9822 -0.1876 -0.0000
vn 0.3035 -0.1876 0.9342
vn 0.3035 -0.1876 0.9342
vn 0.3035 -0.1876 0.9342
vn -0.7947 -0.1877 0.5773
vn -0.7947 -0.1877 0.5773
vn -0.7947 -0.1877 0.5773
vn -0.7946 -0.1876 -0.5774
vn -0.7946 -0.1876 -0.5774
vn -0.7946 -0.1876 -0.5774
vn 0.3035 -0.1876 -0.9342
vn 0.3035 -0.1876 -0.9342
vn 0.3035 -0.1876 -0.9342
vn 0.7946 0.1875 0.5774
vn 0.7946 0.1875 0.5774
vn 0.7946 0.1875 0.5774
vn -0.3035 0.1876 0.9342
vn -0.3035 0.1876 0.9342
vn -0.3035 0.1876 0.9342
vn -0.9823 0.1876 -0.0000
vn -0.9823 0.1876 -0.0000
vn -0.9823 0.1876 -0.0000
vn -0.3035 0.1876 -0.9342
vn -0.3035 0.1876 -0.9342
vn -0.3035 0.1876 -0.9342
vn 0.7947 0.1876 -0.5773
vn 0.7947 0.1876 -0.5773
vn 0.7947 0.1876 -0.5773
vn 0.4911 0.7947 0.3568
vn 0.4911 0.7947 0.3568
vn 0.4911 0.7947 0.3568
vn -0.1876 0.7946 0.5774
vn -0.1876 0.7946 0.5774
vn -0.1876 0.7946 0.5774
vn -0.6071 0.7946 0.0000
vn -0.6071 0.7946 0.0000
vn -0.6071 0.7946 0.0000
vn -0.1876 0.7946 -0.5774
vn -0.1876 0.7946 -0.5774
vn -0.1876 0.7946 -0.5774
vn 0.4911 0.7947 -0.3567
vn 0.4911 0.7947 -0.3567
vn 0.4911 0.7947 -0.3567
vn 0.1875 -0.7947 0.5773
vn 0.1875 -0.7947 0.5773
vn 0.1875 -0.7947 0.5773
vn 0.6070 -0.7947 0.0000
vn 0.6070 -0.7947 0.0000
vn 0.6070 -0.7947 0.0000
vn -0.4911 -0.7947 0.3567
vn -0.4911 -0.7947 0.3567
vn -0.4911 -0.7947 0.3567
vn -0.4911 -0.7947 -0.3568
vn -0.4911 -0.7947 -0.3568
vn -0.4911 -0.7947 -0.3568
vn 0.1876 -0.7947 -0.5774
vn 0.1876 -0.7947 -0.5774
vn 0.1876 -0.7947 -0.5774
vn 0.9822 -0.1876 -0.0000
vn 0.9822 -0.1876 -0.0000
vn 0.9822 -0.1876 -0.0000
vn 0.3035 -0.1876 0.9342
vn 0.3035 -0.1876 0.9342
vn 0.3035 -0.1876 0.9342
vn -0.7947 -0.1877 0.5773
vn -0.7947 -0.1877 0.5773
vn -0.7947 -0.1877 0.5773
vn -0.7946 -0.1876 -0.5774
vn -0.7946 -0.1876 -0.5774
vn -0.7946 -0.1876 -0.5774
vn 0.3035 -0.1876 -0.9342
vn 0.3035 -0.1876 -0.9342
vn 0.3035 -0.1876 -0.9342
vn 0.7946 0.1875 0.5774
vn 0.7946 0.1875 0.5774
vn 0.7946 0.1875 0.5774
vn -0.3035 0.1876 0.9342
vn -0.3035 0.1876 0.9342
vn -0.3035 0.1876 0.9342
vn -0.9823 0.1876 -0.0000
vn -0.9823 0.1876 -0.0000
vn -0.9823 0.1876 -0.0000
vn -0.3035 0.1876 -0.9342
vn -0.3035 0.1876 -0.9342
vn -0.3035 0.1876 -0.9342
vn 0.7947 0.1876 -0.5773
vn 0.7947 0.1876 -0.5773
vn 0.7947 0.1876 -0.5773
vn 0.4911 0.7947 0.3568
vn 0.4911 0.7947 0.3568
vn 0.4911 0.7947 0.3568
vn -0.1876 0.7946 0.5774
vn -0.1876 0.7946 0.5774
vn -0.1876 0.7946 0.5774
vn -0.6071 0.7946 0.0000
vn -0.6071 0.7946 0.0000
vn -0.6071 0.7946 0.0000
vn -0.1876 0.7946 -0.5774
vn -0.1876 0.7946 -0.5774
vn -0.1876 0.7946 -0.5774
vn 0.4911 0.7947 -0.3567
vn 0.4911 0.7947 -0.3567
vn 0.4911 0.7947 -0.3567
f 133//133 135//135 134//134
f 136//136 138//138 137//137
f 139//139 141//141 140//140
f 142//142 144//144 143//143
f 145//145 147//147 146//146
f 148//148 150//150 149//149
f 151//151 153//153 152//152
f 154//154 156//156 155//155
f 157//157 159//159 158//158
f 160//160 162//162 161//161
f 163//163 165//165 164//164
f 166//166 168//168 167//167
f 169//169 171//171 170//170
f 172//172 174//174 173//173
f 175//175 177//177 176//176
f 178//178 180//180 179//179
f 181//181 183//183 182//182
f 184//184 186//186 185//185
f 187//187 189//189 188//188
f 190//190 192//192 191//191
f 37//37 39//39 38//38
f 37//37 38//38 40//40
f 41//41 43//43 42//42
f 41//41 42//42 44//44
f 45//45 47//47 46//46
f 45//45 46//46 48//48
f 49//49 51//51 50//50
f 49//49 50//50 52//52
f 53//53 55//55 54//54
f 53//53 54//54 56//56
f 57//57 59//59 58//58
f 60//60 62//62 61//61
f 63//63 65//65 64//64
f 66//66 68//68 67//67
f 69//69 71//71 70//70
f 72//72 74//74 73//73
f 75//75 77//77 76//76
f 78//78 80//80 79//79
f 81//81 83//83 82//82
f 81//81 82//82 84//84
f 85//85 87//87 86//86
f 85//85 86//86 88//88
f 89//89 91//91 90//90
f 89//89 90//90 92//92
f 93//93 95//95 94//94
f 93//93 94//94 96//96
f 97//97 99//99 98//98
f 97//97 98//98 100//100
f 101//101 103//103 102//102
f 101//101 102//102 104//104
f 105//105 107//107 106//106
f 105//105 106//106 108//108
f 109//109 111//111 110//110
f 109//109 110//110 112//112
f 113//113 115//115 114//114
f 113//113 114//114 116//116
f 117//117 119//119 118//118
f 117//117 118//118 120//120
f 121//121 123//123 122//122
f 121//121 122//122 124//124
f 125//125 127//127 126//126
f 125//125 126//126 128//128
f 129//129 131//131 130//130
f 129//129 130//130 132//132
f 193//193 195//195 194//194
f 196//196 198//198 197//197
f 199//199 201//201 200//200
f 202//202 204//204 203//203
f 205//205 207//207 206//206
f 208//208 210//210 209//209
f 211//211 213//213 212//212
f 214//214 216//216 215//215
f 217//217 219//219 218//218
f 220//220 222//222 221//221
f 223//223 225//225 224//224
f 226//226 228//228 227//227
f 229//229 231//231 230//230
f 232//232 234//234 233//233
f 235//235 237//237 236//236
f 238//238 240//240 239//239
f 241//241 243//243 242//242
f 244//244 246//246 245//245
f 247//247 249//249 248//248
f 250//250 252//252 251//251
f 253//253 255//255 254//254
f 256//256 258//258 257//257
f 259//259 261//261 260//260
f 262//262 264//264 263//263
f 265//265 267//267 266//266
f 268//268 270//270 269//269
f 271//271 273//273 272//272
f 274//274 276//276 275//275
f 277//277 279//279 278//278
f 280//280 282//282 281//281
f 283//283 285//285 284//284
f 286//286 288//288 287//287
f 289//289 291//291 290//290
f 292//292 294//294 293//293
f 295//295 297//297 296//296
f 298//298 300//300 299//299
f 301//301 303//303 302//302
f 304//304 306//306 305//305
f 307//307 309//309 308//308
f 310//310 312//312 311//311
g core_white
usemtl white
v -0.16800 0.60452 -0.00800
v 0.16800 0.94960 -0.00800
v -0.16800 0.94960 -0.00800
v 0.00000 0.50822 -0.00800
v 0.16800 0.60452 -0.00800
v 0.16800 0.94960 0.00400
v -0.16800 0.60452 0.00400
v -0.16800 0.94960 0.00400
v 0.00000 0.50822 0.00400
v 0.16800 0.60452 0.00400
v -0.16800 0.94960 -0.00800
v -0.16800 0.60452 0.00400
v -0.16800 0.60452 -0.00800
v -0.16800 0.94960 0.00400
v -0.16800 0.60452 -0.00800
v -0.16800 0.60452 0.00400
v 0.00000 0.50822 0.00400
v 0.00000 0.50822 -0.00800
v 0.00000 0.50822 -0.00800
v 0.00000 0.50822 0.00400
v 0.16800 0.60452 0.00400
v 0.16800 0.60452 -0.00800
v 0.16800 0.60452 -0.00800
v 0.16800 0.94960 0.00400
v 0.16800 0.94960 -0.00800
v 0.16800 0.60452 0.00400
v 0.16800 0.94960 -0.00800
v -0.16800 0.94960 0.00400
v -0.16800 0.94960 -0.00800
v 0.16800 0.94960 0.00400
v -0.08400 0.55638 -0.00800
v 0.08400 0.55638 -0.00800
v -0.08400 0.55638 0.00400
v 0.08400 0.55638 0.00400
v -0.08400 0.55638 0.00400
v -0.08400 0.55638 -0.00800
v 0.08400 0.55638 0.00400
v 0.08400 0.55638 -0.00800
vn 0.0000 0.0000 -1.0000
vn 0.0000 0.0000 -1.0000
vn 0.0000 0.0000 -1.0000
vn 0.0000 0.0000 -1.0000
vn 0.0000 0.0000 -1.0000
vn -0.0000 -0.0000 1.0000
vn -0.0000 -0.0000 1.0000
vn -0.0000 -0.0000 1.0000
vn -0.0000 -0.0000 1.0000
vn -0.0000 -0.0000 1.0000
vn -1.0000 0.0000 -0.0000
vn -1.0000 0.0000 -0.0000
vn -1.0000 0.0000 -0.0000
vn -1.0000 0.0000 -0.0000
vn -0.4973 -0.8676 -0.0001
vn -0.4973 -0.8676 -0.0001
vn -0.4973 -0.8676 -0.0001
vn -0.4973 -0.8676 -0.0001
vn 0.4973 -0.8676 -0.0000
vn 0.4973 -0.8676 -0.0000
vn 0.4973 -0.8676 -0.0000
vn 0.4973 -0.8676 -0.0000
vn 1.0000 0.0000 -0.0000
vn 1.0000 0.0000 -0.0000
vn 1.0000 0.0000 -0.0000
vn 1.0000 0.0000 -0.0000
vn 0.0000 1.0000 -0.0000
vn 0.0000 1.0000 -0.0000
vn 0.0000 1.0000 -0.0000
vn 0.0000 1.0000 -0.0000
vn 0.0000 0.0000 -1.0000
vn 0.0000 0.0000 -1.0000
vn -0.0000 -0.0000 1.0000
vn -0.0000 -0.0000 1.0000
vn -0.4973 -0.8676 -0.0001
vn -0.4973 -0.8676 -0.0001
vn 0.4973 -0.8676 -0.0000
vn 0.4973 -0.8676 -0.0000
f 313//313 315//315 314//314
f 343//343 313//313 314//314
f 314//314 344//344 343//343
f 344//344 316//316 343//343
f 314//314 317//317 344//344
f 318//318 320//320 319//319
f 318//318 319//319 345//345
f 345//345 346//346 318//318
f 346//346 322//322 318//318
f 345//345 321//321 346//346
f 323//323 325//325 324//324
f 323//323 324//324 326//326
f 327//327 348//348 347//347
f 327//327 347//347 328//328
f 348//348 329//329 347//347
f 348//348 330//330 329//329
f 331//331 350//350 349//349
f 331//331 349//349 332//332
f 350//350 333//333 349//349
f 350//350 334//334 333//333
f 335//335 337//337 336//336
f 335//335 336//336 338//338
f 339//339 341//341 340//340
f 339//339 340//340 342//342
g core_blazon
usemtl blazon
v -0.15000 0.61750 0.00400
v 0.15000 0.94000 0.00400
v -0.15000 0.94000 0.00400
v 0.00000 0.52750 0.00400
v 0.15000 0.61750 0.00400
v 0.15000 0.94000 0.02000
v -0.15000 0.61750 0.02000
v -0.15000 0.94000 0.02000
v 0.00000 0.52750 0.02000
v 0.15000 0.61750 0.02000
v -0.15000 0.94000 0.00400
v -0.15000 0.61750 0.02000
v -0.15000 0.61750 0.00400
v -0.15000 0.94000 0.02000
v -0.15000 0.61750 0.00400
v 0.00000 0.52750 0.02000
v 0.00000 0.52750 0.00400
v -0.15000 0.61750 0.02000
v 0.00000 0.52750 0.00400
v 0.15000 0.61750 0.02000
v 0.15000 0.61750 0.00400
v 0.00000 0.52750 0.02000
v 0.15000 0.61750 0.00400
v 0.15000 0.94000 0.02000
v 0.15000 0.94000 0.00400
v 0.15000 0.61750 0.02000
v 0.15000 0.94000 0.00400
v -0.15000 0.94000 0.02000
v -0.15000 0.94000 0.00400
v 0.15000 0.94000 0.02000
v -0.07500 0.57250 0.00400
v 0.07500 0.57250 0.00400
v -0.07500 0.57250 0.02000
v 0.07500 0.57250 0.02000
v -0.07500 0.57250 0.02000
v -0.07500 0.57250 0.00400
v 0.07500 0.57250 0.02000
v 0.07500 0.57250 0.00400
vn 0.0000 0.0000 -1.0000
vn 0.0000 0.0000 -1.0000
vn 0.0000 0.0000 -1.0000
vn 0.0000 0.0000 -1.0000
vn 0.0000 0.0000 -1.0000
vn -0.0000 -0.0000 1.0000
vn -0.0000 -0.0000 1.0000
vn -0.0000 -0.0000 1.0000
vn -0.0000 -0.0000 1.0000
vn -0.0000 -0.0000 1.0000
vn -1.0000 0.0000 -0.0000
vn -1.0000 0.0000 -0.0000
vn -1.0000 0.0000 -0.0000
vn -1.0000 0.0000 -0.0000
vn -0.5145 -0.8575 -0.0001
vn -0.5145 -0.8575 -0.0001
vn -0.5145 -0.8575 -0.0001
vn -0.5145 -0.8575 -0.0001
vn 0.5145 -0.8575 -0.0000
vn 0.5145 -0.8575 -0.0000
vn 0.5145 -0.8575 -0.0000
vn 0.5145 -0.8575 -0.0000
vn 1.0000 0.0000 -0.0000
vn 1.0000 0.0000 -0.0000
vn 1.0000 0.0000 -0.0000
vn 1.0000 0.0000 -0.0000
vn 0.0000 1.0000 -0.0000
vn 0.0000 1.0000 -0.0000
vn 0.0000 1.0000 -0.0000
vn 0.0000 1.0000 -0.0000
vn 0.0000 0.0000 -1.0000
vn 0.0000 0.0000 -1.0000
vn -0.0000 -0.0000 1.0000
vn -0.0000 -0.0000 1.0000
vn -0.5145 -0.8575 -0.0001
vn -0.5145 -0.8575 -0.0001
vn 0.5145 -0.8575 -0.0000
vn 0.5145 -0.8575 -0.0000
f 351//351 353//353 352//352
f 381//381 351//351 352//352
f 352//352 382//382 381//381
f 382//382 354//354 381//381
f 352//352 355//355 382//382
f 356//356 358//358 357//357
f 356//356 357//357 383//383
f 383//383 384//384 356//356
f 384//384 360//360 356//356
f 383//383 359//359 384//384
f 361//361 363//363 362//362
f 361//361 362//362 364//364
f 365//365 386//386 385//385
f 365//365 385//385 368//368
f 386//386 366//366 385//385
f 386//386 367//367 366//366
f 369//369 388//388 387//387
f 369//369 387//387 372//372
f 388//388 370//370 387//387
f 388//388 371//371 370//370
f 373//373 375//375 374//374
f 373//373 374//374 376//376
f 377//377 379//379 378//378
f 377//377 378//378 380//380
