mtllib spearman.mtl
o body
g body_leather
usemtl leather
v -0.07000 0.06177 0.06400
v 0.01436 0.24085 0.06400
v -0.15436 0.24085 0.06400
v -0.15436 0.24085 0.07400
v -0.07000 0.06177 0.07400
v -0.14761 0.13503 0.07400
v 0.01436 0.24085 0.07400
v -0.15436 0.24085 0.06400
v -0.14761 0.13503 0.07400
v -0.07000 0.06177 0.06400
v -0.07000 0.06177 0.07400
v -0.15436 0.24085 0.07400
v -0.07000 0.06177 0.06400
v 0.01436 0.24085 0.07400
v 0.01436 0.24085 0.06400
v -0.07000 0.06177 0.07400
v 0.01436 0.24085 0.06400
v -0.15436 0.24085 0.07400
v -0.15436 0.24085 0.06400
v 0.01436 0.24085 0.07400
v 0.06230 0.14400 0.04500
v -0.06230 0.15200 0.04500
v 0.06230 0.15200 0.04500
v -0.06230 0.14400 0.04500
v 0.06630 0.14400 -0.04100
v 0.06630 0.15200 0.04100
v 0.06630 0.15200 -0.04100
v 0.06630 0.14400 0.04100
v 0.06230 0.15600 -0.04100
v -0.06230 0.15600 0.04100
v -0.06230 0.15600 -0.04100
v 0.06230 0.15600 0.04100
v -0.06630 0.14400 0.04100
v -0.06630 0.15200 -0.04100
v -0.06630 0.15200 0.04100
v -0.06630 0.14400 -0.04100
v -0.06230 0.14400 -0.04500
v 0.06230 0.15200 -0.04500
v -0.06230 0.15200 -0.04500
v 0.06230 0.14400 -0.04500
v -0.06230 0.14000 0.04100
v -0.06630 0.14400 0.04100
v -0.06230 0.14400 0.04500
v -0.06230 0.15200 0.04500
v -0.06630 0.15200 0.04100
v -0.06230 0.15600 0.04100
v -0.06230 0.14000 -0.04100
v -0.06230 0.14400 -0.04500
v -0.06630 0.14400 -0.04100
v -0.06230 0.15600 -0.04100
v -0.06630 0.15200 -0.04100
v -0.06230 0.15200 -0.04500
v 0.06230 0.14000 0.04100
v 0.06230 0.14400 0.04500
v 0.06630 0.14400 0.04100
v 0.06230 0.15600 0.04100
v 0.06630 0.15200 0.04100
v 0.06230 0.15200 0.04500
v 0.06230 0.14000 -0.04100
v 0.06630 0.14400 -0.04100
v 0.06230 0.14400 -0.04500
v 0.06230 0.15600 -0.04100
v 0.06230 0.15200 -0.04500
v 0.06630 0.15200 -0.04100
v -0.06230 0.14000 -0.04100
v -0.06630 0.14400 0.04100
v -0.06230 0.14000 0.04100
v -0.06630 0.14400 -0.04100
v -0.06230 0.14400 0.04500
v -0.06630 0.15200 0.04100
v -0.06230 0.15200 0.04500
v -0.06630 0.14400 0.04100
v -0.06230 0.15600 0.04100
v -0.06630 0.15200 -0.04100
v -0.06230 0.15600 -0.04100
v -0.06630 0.15200 0.04100
v -0.06230 0.15200 -0.04500
v -0.06630 0.14400 -0.04100
v -0.06230 0.14400 -0.04500
v -0.06630 0.15200 -0.04100
v 0.06230 0.14000 -0.04100
v -0.06230 0.14400 -0.04500
v -0.06230 0.14000 -0.04100
v 0.06230 0.14400 -0.04500
v -0.06230 0.15600 -0.04100
v 0.06230 0.15200 -0.04500
v 0.06230 0.15600 -0.04100
v -0.06230 0.15200 -0.04500
v 0.06630 0.15200 -0.04100
v 0.06230 0.14400 -0.04500
v 0.06630 0.14400 -0.04100
v 0.06230 0.15200 -0.04500
v 0.06230 0.14000 0.04100
v 0.06630 0.14400 -0.04100
v 0.06230 0.14000 -0.04100
v 0.06630 0.14400 0.04100
v 0.06230 0.15600 -0.04100
v 0.06630 0.15200 0.04100
v 0.06230 0.15600 0.04100
v 0.06630 0.15200 -0.04100
v 0.06230 0.15200 0.04500
v 0.06630 0.14400 0.04100
v 0.06230 0.14400 0.04500
v 0.06630 0.15200 0.04100
v -0.06230 0.14000 0.04100
v 0.06230 0.14400 0.04500
v 0.06230 0.14000 0.04100
v -0.06230 0.14400 0.04500
v 0.06230 0.15600 0.04100
v -0.06230 0.15200 0.04500
v -0.06230 0.15600 0.04100
v 0.06230 0.15200 0.04500
v -0.06230 0.14000 -0.04100
v 0.06230 0.14000 0.04100
v 0.06230 0.14000 -0.04100
v -0.06230 0.14000 0.04100
v -0.01800 0.00800 0.04050
v -0.05200 0.02200 0.04050
v -0.01800 0.02200 0.04050
v -0.05200 0.00800 0.04050
v -0.01000 0.00800 -0.01650
v -0.01000 0.02200 0.03250
v -0.01000 0.02200 -0.01650
v -0.01000 0.00800 0.03250
v -0.01800 0.03000 -0.01650
v -0.05200 0.03000 0.03250
v -0.05200 0.03000 -0.01650
v -0.01800 0.03000 0.03250
v -0.06000 0.00800 0.03250
v -0.06000 0.02200 -0.01650
v -0.06000 0.02200 0.03250
v -0.06000 0.00800 -0.01650
v -0.05200 0.00800 -0.02450
v -0.01800 0.02200 -0.02450
v -0.05200 0.02200 -0.02450
v -0.01800 0.00800 -0.02450
v -0.05200 0.00000 0.03250
v -0.06000 0.00800 0.03250
v -0.05200 0.00800 0.04050
v -0.05200 0.02200 0.04050
v -0.06000 0.02200 0.03250
v -0.05200 0.03000 0.03250
v -0.05200 0.00000 -0.01650
v -0.05200 0.00800 -0.02450
v -0.06000 0.00800 -0.01650
v -0.05200 0.03000 -0.01650
v -0.06000 0.02200 -0.01650
v -0.05200 0.02200 -0.02450
v -0.01800 0.00000 0.03250
v -0.01800 0.00800 0.04050
v -0.01000 0.00800 0.03250
v -0.01800 0.03000 0.03250
v -0.01000 0.02200 0.03250
v -0.01800 0.02200 0.04050
v -0.01800 0.00000 -0.01650
v -0.01000 0.00800 -0.01650
v -0.01800 0.00800 -0.02450
v -0.01800 0.03000 -0.01650
v -0.01800 0.02200 -0.02450
v -0.01000 0.02200 -0.01650
v -0.05200 0.00000 -0.01650
v -0.06000 0.00800 0.03250
v -0.05200 0.00000 0.03250
v -0.06000 0.00800 -0.01650
v -0.05200 0.00800 0.04050
v -0.06000 0.02200 0.03250
v -0.05200 0.02200 0.04050
v -0.06000 0.00800 0.03250
v -0.05200 0.03000 0.03250
v -0.06000 0.02200 -0.01650
v -0.05200 0.03000 -0.01650
v -0.06000 0.02200 0.03250
v -0.05200 0.02200 -0.02450
v -0.06000 0.00800 -0.01650
v -0.05200 0.00800 -0.02450
v -0.06000 0.02200 -0.01650
v -0.01800 0.00000 -0.01650
v -0.05200 0.00800 -0.02450
v -0.05200 0.00000 -0.01650
v -0.01800 0.00800 -0.02450
v -0.05200 0.03000 -0.01650
v -0.01800 0.02200 -0.02450
v -0.01800 0.03000 -0.01650
v -0.05200 0.02200 -0.02450
v -0.01000 0.02200 -0.01650
v -0.01800 0.00800 -0.02450
v -0.01000 0.00800 -0.01650
v -0.01800 0.02200 -0.02450
v -0.01800 0.00000 0.03250
v -0.01000 0.00800 -0.01650
v -0.01800 0.00000 -0.01650
v -0.01000 0.00800 0.03250
v -0.01800 0.03000 -0.01650
v -0.01000 0.02200 0.03250
v -0.01800 0.03000 0.03250
v -0.01000 0.02200 -0.01650
v -0.01800 0.02200 0.04050
v -0.01000 0.00800 0.03250
v -0.01800 0.00800 0.04050
v -0.01000 0.02200 0.03250
v -0.05200 0.00000 0.03250
v -0.01800 0.00800 0.04050
v -0.01800 0.00000 0.03250
v -0.05200 0.00800 0.04050
v -0.01800 0.03000 0.03250
v -0.05200 0.02200 0.04050
v -0.05200 0.03000 0.03250
v -0.01800 0.02200 0.04050
v -0.05200 0.00000 -0.01650
v -0.01800 0.00000 0.03250
v -0.01800 0.00000 -0.01650
v -0.05200 0.00000 0.03250
v 0.05200 0.00800 0.04050
v 0.01800 0.02200 0.04050
v 0.05200 0.02200 0.04050
v 0.01800 0.00800 0.04050
v 0.06000 0.00800 -0.01650
v 0.06000 0.02200 0.03250
v 0.06000 0.02200 -0.01650
v 0.06000 0.00800 0.03250
v 0.05200 0.03000 -0.01650
v 0.01800 0.03000 0.03250
v 0.01800 0.03000 -0.01650
v 0.05200 0.03000 0.03250
v 0.01000 0.00800 0.03250
v 0.01000 0.02200 -0.01650
v 0.01000 0.02200 0.03250
v 0.01000 0.00800 -0.01650
v 0.01800 0.00800 -0.02450
v 0.05200 0.02200 -0.02450
v 0.01800 0.02200 -0.02450
v 0.05200 0.00800 -0.02450
v 0.01800 0.00000 0.03250
v 0.01000 0.00800 0.03250
v 0.01800 0.00800 0.04050
v 0.01800 0.02200 0.04050
v 0.01000 0.02200 0.03250
v 0.01800 0.03000 0.03250
v 0.01800 0.00000 -0.01650
v 0.01800 0.00800 -0.02450
v 0.01000 0.00800 -0.01650
v 0.01800 0.03000 -0.01650
v 0.01000 0.02200 -0.01650
v 0.01800 0.02200 -0.02450
v 0.05200 0.00000 0.03250
v 0.05200 0.00800 0.04050
v 0.06000 0.00800 0.03250
v 0.05200 0.03000 0.03250
v 0.06000 0.02200 0.03250
v 0.05200 0.02200 0.04050
v 0.05200 0.00000 -0.01650
v 0.06000 0.00800 -0.01650
v 0.05200 0.00800 -0.02450
v 0.05200 0.03000 -0.01650
v 0.05200 0.02200 -0.02450
v 0.06000 0.02200 -0.01650
v 0.01800 0.00000 -0.01650
v 0.01000 0.00800 0.03250
v 0.01800 0.00000 0.03250
v 0.01000 0.00800 -0.01650
v 0.01800 0.00800 0.04050
v 0.01000 0.02200 0.03250
v 0.01800 0.02200 0.04050
v 0.01000 0.00800 0.03250
v 0.01800 0.03000 0.03250
v 0.01000 0.02200 -0.01650
v 0.01800 0.03000 -0.01650
v 0.01000 0.02200 0.03250
v 0.01800 0.02200 -0.02450
v 0.01000 0.00800 -0.01650
v 0.01800 0.00800 -0.02450
v 0.01000 0.02200 -0.01650
v 0.05200 0.00000 -0.01650
v 0.01800 0.00800 -0.02450
v 0.01800 0.00000 -0.01650
v 0.05200 0.00800 -0.02450
v 0.01800 0.03000 -0.01650
v 0.05200 0.02200 -0.02450
v 0.05200 0.03000 -0.01650
v 0.01800 0.02200 -0.02450
v 0.06000 0.02200 -0.01650
v 0.05200 0.00800 -0.02450
v 0.06000 0.00800 -0.01650
v 0.05200 0.02200 -0.02450
v 0.05200 0.00000 0.03250
v 0.06000 0.00800 -0.01650
v 0.05200 0.00000 -0.01650
v 0.06000 0.00800 0.03250
v 0.05200 0.03000 -0.01650
v 0.06000 0.02200 0.03250
v 0.05200 0.03000 0.03250
v 0.06000 0.02200 -0.01650
v 0.05200 0.02200 0.04050
v 0.06000 0.00800 0.03250
v 0.05200 0.00800 0.04050
v 0.06000 0.02200 0.03250
v 0.01800 0.00000 0.03250
v 0.05200 0.00800 0.04050
v 0.05200 0.00000 0.03250
v 0.01800 0.00800 0.04050
v 0.05200 0.03000 0.03250
v 0.01800 0.02200 0.04050
v 0.01800 0.03000 0.03250
v 0.05200 0.02200 0.04050
v 0.01800 0.00000 -0.01650
v 0.05200 0.00000 0.03250
v 0.05200 0.00000 -0.01650
v 0.01800 0.00000 0.03250
v -0.15436 0.17573 0.06400
v -0.14761 0.13503 0.06400
v 0.00761 0.13503 0.06400
v 0.01436 0.17573 0.06400
v -0.03794 0.07561 0.06400
v -0.01095 0.10003 0.06400
v -0.10206 0.07561 0.06400
v -0.12905 0.10003 0.06400
v -0.15436 0.17573 0.07400
v 0.01436 0.17573 0.07400
v -0.12905 0.10003 0.07400
v -0.10206 0.07561 0.07400
v -0.01095 0.10003 0.07400
v 0.00761 0.13503 0.07400
v -0.03794 0.07561 0.07400
v -0.15436 0.17573 0.07400
v -0.15436 0.17573 0.06400
v -0.15436 0.17573 0.06400
v -0.14761 0.13503 0.07400
v -0.14761 0.13503 0.06400
v -0.15436 0.17573 0.07400
v -0.14761 0.13503 0.06400
v -0.12905 0.10003 0.07400
v -0.12905 0.10003 0.06400
v -0.12905 0.10003 0.06400
v -0.10206 0.07561 0.07400
v -0.10206 0.07561 0.06400
v -0.12905 0.10003 0.07400
v -0.10206 0.07561 0.06400
v -0.10206 0.07561 0.07400
v -0.03794 0.07561 0.07400
v -0.03794 0.07561 0.06400
v -0.03794 0.07561 0.06400
v -0.01095 0.10003 0.07400
v -0.01095 0.10003 0.06400
v -0.03794 0.07561 0.07400
v -0.01095 0.10003 0.06400
v 0.00761 0.13503 0.07400
v 0.00761 0.13503 0.06400
v -0.01095 0.10003 0.07400
v 0.00761 0.13503 0.06400
v 0.01436 0.17573 0.07400
v 0.01436 0.17573 0.06400
v 0.00761 0.13503 0.07400
v 0.01436 0.17573 0.06400
v 0.01436 0.17573 0.07400
vn 0.0000 0.0000 -1.0000
vn 0.0000 0.0000 -1.0000
vn 0.0000 0.0000 -1.0000
vn -0.0000 -0.0000 1.0000
vn -0.0000 -0.0000 1.0000
vn -0.0000 -0.0000 1.0000
vn -0.0000 -0.0000 1.0000
vn -1.0000 0.0000 -0.0000
vn -0.8835 -0.4685 -0.0001
vn -0.3963 -0.9181 -0.0001
vn -0.3963 -0.9181 -0.0001
vn -1.0000 0.0000 -0.0000
vn 0.3963 -0.9181 -0.0000
vn 1.0000 0.0000 -0.0000
vn 1.0000 0.0000 -0.0000
vn 0.3963 -0.9181 -0.0000
vn 0.0000 1.0000 -0.0000
vn 0.0000 1.0000 -0.0000
vn 0.0000 1.0000 -0.0000
vn 0.0000 1.0000 -0.0000
vn -0.0000 -0.0000 1.0000
vn -0.0000 -0.0000 1.0000
vn -0.0000 -0.0000 1.0000
vn -0.0000 -0.0000 1.0000
vn 1.0000 0.0000 -0.0000
vn 1.0000 0.0000 -0.0000
vn 1.0000 0.0000 -0.0000
vn 1.0000 0.0000 -0.0000
vn 0.0000 1.0000 -0.0000
vn 0.0000 1.0000 -0.0000
vn 0.0000 1.0000 -0.0000
vn 0.0000 1.0000 -0.0000
vn -1.0000 0.0000 -0.0000
vn -1.0000 0.0000 -0.0000
vn -1.0000 0.0000 -0.0000
vn -1.0000 0.0000 -0.0000
vn 0.0000 0.0000 -1.0000
vn 0.0000 0.0000 -1.0000
vn 0.0000 0.0000 -1.0000
vn 0.0000 0.0000 -1.0000
vn -0.5774 -0.5774 0.5772
vn -0.5774 -0.5774 0.5772
vn -0.5774 -0.5774 0.5772
vn -0.5774 0.5773 0.5774
vn -0.5774 0.5773 0.5774
vn -0.5774 0.5773 0.5774
vn -0.5773 -0.5773 -0.5774
vn -0.5773 -0.5773 -0.5774
vn -0.5773 -0.5773 -0.5774
vn -0.5773 0.5773 -0.5775
vn -0.5773 0.5773 -0.5775
vn -0.5773 0.5773 -0.5775
vn 0.5774 -0.5774 0.5773
vn 0.5774 -0.5774 0.5773
vn 0.5774 -0.5774 0.5773
vn 0.5773 0.5773 0.5775
vn 0.5773 0.5773 0.5775
vn 0.5773 0.5773 0.5775
vn 0.5773 -0.5774 -0.5774
vn 0.5773 -0.5774 -0.5774
vn 0.5773 -0.5774 -0.5774
vn 0.5773 0.5773 -0.5774
vn 0.5773 0.5773 -0.5774
vn 0.5773 0.5773 -0.5774
vn -0.7071 -0.7071 -0.0001
vn -0.7071 -0.7071 -0.0001
vn -0.7071 -0.7071 -0.0001
vn -0.7071 -0.7071 -0.0001
vn -0.7071 -0.0000 0.7071
vn -0.7071 -0.0000 0.7071
vn -0.7071 -0.0000 0.7071
vn -0.7071 -0.0000 0.7071
vn -0.7071 0.7071 -0.0000
vn -0.7071 0.7071 -0.0000
vn -0.7071 0.7071 -0.0000
vn -0.7071 0.7071 -0.0000
vn -0.7071 0.0000 -0.7071
vn -0.7071 0.0000 -0.7071
vn -0.7071 0.0000 -0.7071
vn -0.7071 0.0000 -0.7071
vn 0.0000 -0.7071 -0.7071
vn 0.0000 -0.7071 -0.7071
vn 0.0000 -0.7071 -0.7071
vn 0.0000 -0.7071 -0.7071
vn 0.0000 0.7071 -0.7071
vn 0.0000 0.7071 -0.7071
vn 0.0000 0.7071 -0.7071
vn 0.0000 0.7071 -0.7071
vn 0.7071 0.0000 -0.7071
vn 0.7071 0.0000 -0.7071
vn 0.7071 0.0000 -0.7071
vn 0.7071 0.0000 -0.7071
vn 0.7071 -0.7071 -0.0000
vn 0.7071 -0.7071 -0.0000
vn 0.7071 -0.7071 -0.0000
vn 0.7071 -0.7071 -0.0000
vn 0.7071 0.7071 0.0000
vn 0.7071 0.7071 0.0000
vn 0.7071 0.7071 0.0000
vn 0.7071 0.7071 0.0000
vn 0.7071 -0.0000 0.7071
vn 0.7071 -0.0000 0.7071
vn 0.7071 -0.0000 0.7071
vn 0.7071 -0.0000 0.7071
vn -0.0000 -0.7071 0.7071
vn -0.0000 -0.7071 0.7071
vn -0.0000 -0.7071 0.7071
vn -0.0000 -0.7071 0.7071
vn -0.0000 0.7071 0.7071
vn -0.0000 0.7071 0.7071
vn -0.0000 0.7071 0.7071
vn -0.0000 0.7071 0.7071
vn 0.0000 -1.0000 -0.0000
vn 0.0000 -1.0000 -0.0000
vn 0.0000 -1.0000 -0.0000
vn 0.0000 -1.0000 -0.0000
vn -0.0000 -0.0000 1.0000
vn -0.0000 -0.0000 1.0000
vn -0.0000 -0.0000 1.0000
vn -0.0000 -0.0000 1.0000
vn 1.0000 0.0000 -0.0000
vn 1.0000 0.0000 -0.0000
vn 1.0000 0.0000 -0.0000
vn 1.0000 0.0000 -0.0000
vn 0.0000 1.0000 -0.0000
vn 0.0000 1.0000 -0.0000
vn 0.0000 1.0000 -0.0000
vn 0.0000 1.0000 -0.0000
vn -1.0000 0.0000 -0.0000
vn -1.0000 0.0000 -0.0000
vn -1.0000 0.0000 -0.0000
vn -1.0000 0.0000 -0.0000
vn 0.0000 0.0000 -1.0000
vn 0.0000 0.0000 -1.0000
vn 0.0000 0.0000 -1.0000
vn 0.0000 0.0000 -1.0000
vn -0.5774 -0.5774 0.5772
vn -0.5774 -0.5774 0.5772
vn -0.5774 -0.5774 0.5772
vn -0.5774 0.5774 0.5773
vn -0.5774 0.5774 0.5773
vn -0.5774 0.5774 0.5773
vn -0.5773 -0.5773 -0.5774
vn -0.5773 -0.5773 -0.5774
vn -0.5773 -0.5773 -0.5774
vn -0.5774 0.5773 -0.5774
vn -0.5774 0.5773 -0.5774
vn -0.5774 0.5773 -0.5774
vn 0.5774 -0.5774 0.5773
vn 0.5774 -0.5774 0.5773
vn 0.5774 -0.5774 0.5773
vn 0.5774 0.5774 0.5774
vn 0.5774 0.5774 0.5774
vn 0.5774 0.5774 0.5774
vn 0.5773 -0.5774 -0.5774
vn 0.5773 -0.5774 -0.5774
vn 0.5773 -0.5774 -0.5774
vn 0.5774 0.5774 -0.5773
vn 0.5774 0.5774 -0.5773
vn 0.5774 0.5774 -0.5773
vn -0.7071 -0.7071 -0.0001
vn -0.7071 -0.7071 -0.0001
vn -0.7071 -0.7071 -0.0001
vn -0.7071 -0.7071 -0.0001
vn -0.7071 -0.0000 0.7071
vn -0.7071 -0.0000 0.7071
vn -0.7071 -0.0000 0.7071
vn -0.7071 -0.0000 0.7071
vn -0.7071 0.7071 -0.0000
vn -0.7071 0.7071 -0.0000
vn -0.7071 0.7071 -0.0000
vn -0.7071 0.7071 -0.0000
vn -0.7071 0.0000 -0.7071
vn -0.7071 0.0000 -0.7071
vn -0.7071 0.0000 -0.7071
vn -0.7071 0.0000 -0.7071
vn 0.0000 -0.7071 -0.7071
vn 0.0000 -0.7071 -0.7071
vn 0.0000 -0.7071 -0.7071
vn 0.0000 -0.7071 -0.7071
vn 0.0000 0.7071 -0.7071
vn 0.0000 0.7071 -0.7071
vn 0.0000 0.7071 -0.7071
vn 0.0000 0.7071 -0.7071
vn 0.7071 0.0000 -0.7071
vn 0.7071 0.0000 -0.7071
vn 0.7071 0.0000 -0.7071
vn 0.7071 0.0000 -0.7071
vn 0.7071 -0.7071 -0.0000
vn 0.7071 -0.7071 -0.0000
vn 0.7071 -0.7071 -0.0000
vn 0.7071 -0.7071 -0.0000
vn 0.7071 0.7071 0.0000
vn 0.7071 0.7071 0.0000
vn 0.7071 0.7071 0.0000
vn 0.7071 0.7071 0.0000
vn 0.7071 -0.0000 0.7071
vn 0.7071 -0.0000 0.7071
vn 0.7071 -0.0000 0.7071
vn 0.7071 -0.0000 0.7071
vn -0.0000 -0.7071 0.7071
vn -0.0000 -0.7071 0.7071
vn -0.0000 -0.7071 0.7071
vn -0.0000 -0.7071 0.7071
vn -0.0000 0.7071 0.7071
vn -0.0000 0.7071 0.7071
vn -0.0000 0.7071 0.7071
vn -0.0000 0.7071 0.7071
vn 0.0000 -1.0000 -0.0000
vn 0.0000 -1.0000 -0.0000
vn 0.0000 -1.0000 -0.0000
vn 0.0000 -1.0000 -0.0000
vn -0.0000 -0.0000 1.0000
vn -0.0000 -0.0000 1.0000
vn -0.0000 -0.0000 1.0000
vn -0.0000 -0.0000 1.0000
vn 1.0000 0.0000 -0.0000
vn 1.0000 0.0000 -0.0000
vn 1.0000 0.0000 -0.0000
vn 1.0000 0.0000 -0.0000
vn 0.0000 1.0000 -0.0000
vn 0.0000 1.0000 -0.0000
vn 0.0000 1.0000 -0.0000
vn 0.0000 1.0000 -0.0000
vn -1.0000 0.0000 -0.0000
vn -1.0000 0.0000 -0.0000
vn -1.0000 0.0000 -0.0000
vn -1.0000 0.0000 -0.0000
vn 0.0000 0.0000 -1.0000
vn 0.0000 0.0000 -1.0000
vn 0.0000 0.0000 -1.0000
vn 0.0000 0.0000 -1.0000
vn -0.5774 -0.5774 0.5772
vn -0.5774 -0.5774 0.5772
vn -0.5774 -0.5774 0.5772
vn -0.5774 0.5774 0.5773
vn -0.5774 0.5774 0.5773
vn -0.5774 0.5774 0.5773
vn -0.5773 -0.5773 -0.5774
vn -0.5773 -0.5773 -0.5774
vn -0.5773 -0.5773 -0.5774
vn -0.5774 0.5773 -0.5774
vn -0.5774 0.5773 -0.5774
vn -0.5774 0.5773 -0.5774
vn 0.5774 -0.5774 0.5773
vn 0.5774 -0.5774 0.5773
vn 0.5774 -0.5774 0.5773
vn 0.5774 0.5774 0.5774
vn 0.5774 0.5774 0.5774
vn 0.5774 0.5774 0.5774
vn 0.5773 -0.5774 -0.5774
vn 0.5773 -0.5774 -0.5774
vn 0.5773 -0.5774 -0.5774
vn 0.5774 0.5774 -0.5773
vn 0.5774 0.5774 -0.5773
vn 0.5774 0.5774 -0.5773
vn -0.7071 -0.7071 -0.0001
vn -0.7071 -0.7071 -0.0001
vn -0.7071 -0.7071 -0.0001
vn -0.7071 -0.7071 -0.0001
vn -0.7071 -0.0000 0.7071
vn -0.7071 -0.0000 0.7071
vn -0.7071 -0.0000 0.7071
vn -0.7071 -0.0000 0.7071
vn -0.7071 0.7071 -0.0000
vn -0.7071 0.7071 -0.0000
vn -0.7071 0.7071 -0.0000
vn -0.7071 0.7071 -0.0000
vn -0.7071 0.0000 -0.7071
vn -0.7071 0.0000 -0.7071
vn -0.7071 0.0000 -0.7071
vn -0.7071 0.0000 -0.7071
vn 0.0000 -0.7071 -0.7071
vn 0.0000 -0.7071 -0.7071
vn 0.0000 -0.7071 -0.7071
vn 0.0000 -0.7071 -0.7071
vn 0.0000 0.7071 -0.7071
vn 0.0000 0.7071 -0.7071
vn 0.0000 0.7071 -0.7071
vn 0.0000 0.7071 -0.7071
vn 0.7071 0.0000 -0.7071
vn 0.7071 0.0000 -0.7071
vn 0.7071 0.0000 -0.7071
vn 0.7071 0.0000 -0.7071
vn 0.7071 -0.7071 -0.0000
vn 0.7071 -0.7071 -0.0000
vn 0.7071 -0.7071 -0.0000
vn 0.7071 -0.7071 -0.0000
vn 0.7071 0.7071 0.0000
vn 0.7071 0.7071 0.0000
vn 0.7071 0.7071 0.0000
vn 0.7071 0.7071 0.0000
vn 0.7071 -0.0000 0.7071
vn 0.7071 -0.0000 0.7071
vn 0.7071 -0.0000 0.7071
vn 0.7071 -0.0000 0.7071
vn -0.0000 -0.7071 0.7071
vn -0.0000 -0.7071 0.7071
vn -0.0000 -0.7071 0.7071
vn -0.0000 -0.7071 0.7071
vn -0.0000 0.7071 0.7071
vn -0.0000 0.7071 0.7071
vn -0.0000 0.7071 0.7071
vn -0.0000 0.7071 0.7071
vn 0.0000 -1.0000 -0.0000
vn 0.0000 -1.0000 -0.0000
vn 0.0000 -1.0000 -0.0000
vn 0.0000 -1.0000 -0.0000
vn 0.0000 0.0000 -1.0000
vn 0.0000 0.0000 -1.0000
vn 0.0000 0.0000 -1.0000
vn 0.0000 0.0000 -1.0000
vn 0.0000 0.0000 -1.0000
vn 0.0000 0.0000 -1.0000
vn 0.0000 0.0000 -1.0000
vn 0.0000 0.0000 -1.0000
vn -0.0000 -0.0000 1.0000
vn -0.0000 -0.0000 1.0000
vn -0.0000 -0.0000 1.0000
vn -0.0000 -0.0000 1.0000
vn -0.0000 -0.0000 1.0000
vn -0.0000 -0.0000 1.0000
vn -0.0000 -0.0000 1.0000
vn -1.0000 0.0000 -0.0000
vn -1.0000 0.0000 -0.0000
vn -0.9865 -0.1636 -0.0000
vn -0.9865 -0.1636 -0.0000
vn -0.9865 -0.1636 -0.0000
vn -0.9865 -0.1636 -0.0000
vn -0.8835 -0.4685 -0.0001
vn -0.8835 -0.4685 -0.0001
vn -0.8835 -0.4685 -0.0001
vn -0.6708 -0.7416 -0.0000
vn -0.6708 -0.7416 -0.0000
vn -0.6708 -0.7416 -0.0000
vn -0.6708 -0.7416 -0.0000
vn -0.3963 -0.9181 -0.0001
vn -0.3963 -0.9181 -0.0001
vn 0.3963 -0.9181 -0.0000
vn 0.3963 -0.9181 -0.0000
vn 0.6708 -0.7417 0.0000
vn 0.6708 -0.7417 0.0000
vn 0.6708 -0.7417 0.0000
vn 0.6708 -0.7417 0.0000
vn 0.8835 -0.4685 -0.0000
vn 0.8835 -0.4685 -0.0000
vn 0.8835 -0.4685 -0.0000
vn 0.8835 -0.4685 -0.0000
vn 0.9865 -0.1636 0.0000
vn 0.9865 -0.1636 0.0000
vn 0.9865 -0.1636 0.0000
vn 0.9865 -0.1636 0.0000
vn 1.0000 0.0000 -0.0000
vn 1.0000 0.0000 -0.0000
f 117//117 119//119 118//118
f 117//117 118//118 120//120
f 121//121 123//123 122//122
f 121//121 122//122 124//124
f 125//125 127//127 126//126
f 125//125 126//126 128//128
f 129//129 131//131 130//130
f 129//129 130//130 132//132
f 133//133 135//135 134//134
f 133//133 134//134 136//136
f 137//137 139//139 138//138
f 140//140 142//142 141//141
f 143//143 145//145 144//144
f 146//146 148//148 147//147
f 149//149 151//151 150//150
f 152//152 154//154 153//153
f 155//155 157//157 156//156
f 158//158 160//160 159//159
f 161//161 163//163 162//162
f 161//161 162//162 164//164
f 165//165 167//167 166//166
f 165//165 166//166 168//168
f 169//169 171//171 170//170
f 169//169 170//170 172//172
f 173//173 175//175 174//174
f 173//173 174//174 176//176
f 177//177 179//179 178//178
f 177//177 178//178 180//180
f 181//181 183//183 182//182
f 181//181 182//182 184//184
f 185//185 187//187 186//186
f 185//185 186//186 188//188
f 189//189 191//191 190//190
f 189//189 190//190 192//192
f 193//193 195//195 194//194
f 193//193 194//194 196//196
f 197//197 199//199 198//198
f 197//197 198//198 200//200
f 201//201 203//203 202//202
f 201//201 202//202 204//204
f 205//205 207//207 206//206
f 205//205 206//206 208//208
f 209//209 211//211 210//210
f 209//209 210//210 212//212
f 213//213 215//215 214//214
f 213//213 214//214 216//216
f 217//217 219//219 218//218
f 217//217 218//218 220//220
f 221//221 223//223 222//222
f 221//221 222//222 224//224
f 225//225 227//227 226//226
f 225//225 226//226 228//228
f 229//229 231//231 230//230
f 229//229 230//230 232//232
f 233//233 235//235 234//234
f 236//236 238//238 237//237
f 239//239 241//241 240//240
f 242//242 244//244 243//243
f 245//245 247//247 246//246
f 248//248 250//250 249//249
f 251//251 253//253 252//252
f 254//254 256//256 255//255
f 257//257 259//259 258//258
f 257//257 258//258 260//260
f 261//261 263//263 262//262
f 261//261 262//262 264//264
f 265//265 267//267 266//266
f 265//265 266//266 268//268
f 269//269 271//271 270//270
f 269//269 270//270 272//272
f 273//273 275//275 274//274
f 273//273 274//274 276//276
f 277//277 279//279 278//278
f 277//277 278//278 280//280
f 281//281 283//283 282//282
f 281//281 282//282 284//284
f 285//285 287//287 286//286
f 285//285 286//286 288//288
f 289//289 291//291 290//290
f 289//289 290//290 292//292
f 293//293 295//295 294//294
f 293//293 294//294 296//296
f 297//297 299//299 298//298
f 297//297 298//298 300//300
f 301//301 303//303 302//302
f 301//301 302//302 304//304
f 305//305 307//307 306//306
f 305//305 306//306 308//308
f 21//21 23//23 22//22
f 21//21 22//22 24//24
f 25//25 27//27 26//26
f 25//25 26//26 28//28
f 29//29 31//31 30//30
f 29//29 30//30 32//32
f 33//33 35//35 34//34
f 33//33 34//34 36//36
f 37//37 39//39 38//38
f 37//37 38//38 40//40
f 41//41 43//43 42//42
f 44//44 46//46 45//45
f 47//47 49//49 48//48
f 50//50 52//52 51//51
f 53//53 55//55 54//54
f 56//56 58//58 57//57
f 59//59 61//61 60//60
f 62//62 64//64 63//63
f 65//65 67//67 66//66
f 65//65 66//66 68//68
f 69//69 71//71 70//70
f 69//69 70//70 72//72
f 73//73 75//75 74//74
f 73//73 74//74 76//76
f 77//77 79//79 78//78
f 77//77 78//78 80//80
f 81//81 83//83 82//82
f 81//81 82//82 84//84
f 85//85 87//87 86//86
f 85//85 86//86 88//88
f 89//89 91//91 90//90
f 89//89 90//90 92//92
f 93//93 95//95 94//94
f 93//93 94//94 96//96
f 97//97 99//99 98//98
f 97//97 98//98 100//100
f 101//101 103//103 102//102
f 101//101 102//102 104//104
f 105//105 107//107 106//106
f 105//105 106//106 108//108
f 109//109 111//111 110//110
f 109//109 110//110 112//112
f 113//113 115//115 114//114
f 113//113 114//114 116//116
f 309//309 3//3 2//2
f 310//310 309//309 2//2
f 2//2 312//312 311//311
f 2//2 311//311 313//313
f 2//2 313//313 310//310
f 311//311 314//314 313//313
f 313//313 315//315 310//310
f 315//315 316//316 310//310
f 313//313 1//1 315//315
f 7//7 4//4 317//317
f 318//318 7//7 317//317
f 317//317 6//6 319//319
f 317//317 319//319 5//5
f 317//317 5//5 318//318
f 319//319 320//320 5//5
f 5//5 321//321 318//318
f 321//321 322//322 318//318
f 5//5 323//323 321//321
f 8//8 325//325 324//324
f 8//8 324//324 12//12
f 326//326 328//328 327//327
f 326//326 327//327 329//329
f 330//330 332//332 331//331
f 330//330 331//331 9//9
f 333//333 335//335 334//334
f 333//333 334//334 336//336
f 337//337 10//10 11//11
f 337//337 11//11 338//338
f 13//13 340//340 339//339
f 13//13 339//339 16//16
f 341//341 343//343 342//342
f 341//341 342//342 344//344
f 345//345 347//347 346//346
f 345//345 346//346 348//348
f 349//349 351//351 350//350
f 349//349 350//350 352//352
f 353//353 15//15 14//14
f 353//353 14//14 354//354
f 17//17 19//19 18//18
f 17//17 18//18 20//20
g body_cloth_dark
usemtl cloth_dark
v -0.01900 0.03100 0.02300
v -0.04900 0.12900 0.02300
v -0.01900 0.12900 0.02300
v -0.04900 0.03100 0.02300
v -0.01300 0.03100 -0.01700
v -0.01300 0.12900 0.01700
v -0.01300 0.12900 -0.01700
v -0.01300 0.03100 0.01700
v -0.01900 0.13500 -0.01700
v -0.04900 0.13500 0.01700
v -0.04900 0.13500 -0.01700
v -0.01900 0.13500 0.01700
v -0.05500 0.03100 0.01700
v -0.05500 0.12900 -0.01700
v -0.05500 0.12900 0.01700
v -0.05500 0.03100 -0.01700
v -0.04900 0.03100 -0.02300
v -0.01900 0.12900 -0.02300
v -0.04900 0.12900 -0.02300
v -0.01900 0.03100 -0.02300
v -0.04900 0.02500 0.01700
v -0.05500 0.03100 0.01700
v -0.04900 0.03100 0.02300
v -0.04900 0.12900 0.02300
v -0.05500 0.12900 0.01700
v -0.04900 0.13500 0.01700
v -0.04900 0.02500 -0.01700
v -0.04900 0.03100 -0.02300
v -0.05500 0.03100 -0.01700
v -0.04900 0.13500 -0.01700
v -0.05500 0.12900 -0.01700
v -0.04900 0.12900 -0.02300
v -0.01900 0.02500 0.01700
v -0.01900 0.03100 0.02300
v -0.01300 0.03100 0.01700
v -0.01900 0.13500 0.01700
v -0.01300 0.12900 0.01700
v -0.01900 0.12900 0.02300
v -0.01900 0.02500 -0.01700
v -0.01300 0.03100 -0.01700
v -0.01900 0.03100 -0.02300
v -0.01900 0.13500 -0.01700
v -0.01900 0.12900 -0.02300
v -0.01300 0.12900 -0.01700
v -0.04900 0.02500 -0.01700
v -0.05500 0.03100 0.01700
v -0.04900 0.02500 0.01700
v -0.05500 0.03100 -0.01700
v -0.04900 0.03100 0.02300
v -0.05500 0.12900 0.01700
v -0.04900 0.12900 0.02300
v -0.05500 0.03100 0.01700
v -0.04900 0.13500 0.01700
v -0.05500 0.12900 -0.01700
v -0.04900 0.13500 -0.01700
v -0.05500 0.12900 0.01700
v -0.04900 0.12900 -0.02300
v -0.05500 0.03100 -0.01700
v -0.04900 0.03100 -0.02300
v -0.05500 0.12900 -0.01700
v -0.01900 0.02500 -0.01700
v -0.04900 0.03100 -0.02300
v -0.04900 0.02500 -0.01700
v -0.01900 0.03100 -0.02300
v -0.04900 0.13500 -0.01700
v -0.01900 0.12900 -0.02300
v -0.01900 0.13500 -0.01700
v -0.04900 0.12900 -0.02300
v -0.01300 0.12900 -0.01700
v -0.01900 0.03100 -0.02300
v -0.01300 0.03100 -0.01700
v -0.01900 0.12900 -0.02300
v -0.01900 0.02500 0.01700
v -0.01300 0.03100 -0.01700
v -0.01900 0.02500 -0.01700
v -0.01300 0.03100 0.01700
v -0.01900 0.13500 -0.01700
v -0.01300 0.12900 0.01700
v -0.01900 0.13500 0.01700
v -0.01300 0.12900 -0.01700
v -0.01900 0.12900 0.02300
v -0.01300 0.03100 0.01700
v -0.01900 0.03100 0.02300
v -0.01300 0.12900 0.01700
v -0.04900 0.02500 0.01700
v -0.01900 0.03100 0.02300
v -0.01900 0.02500 0.01700
v -0.04900 0.03100 0.02300
v -0.01900 0.13500 0.01700
v -0.04900 0.12900 0.02300
v -0.04900 0.13500 0.01700
v -0.01900 0.12900 0.02300
v -0.04900 0.02500 -0.01700
v -0.01900 0.02500 0.01700
v -0.01900 0.02500 -0.01700
v -0.04900 0.02500 0.01700
v 0.04900 0.03100 0.02300
v 0.01900 0.12900 0.02300
v 0.04900 0.12900 0.02300
v 0.01900 0.03100 0.02300
v 0.05500 0.03100 -0.01700
v 0.05500 0.12900 0.01700
v 0.05500 0.12900 -0.01700
v 0.05500 0.03100 0.01700
v 0.04900 0.13500 -0.01700
v 0.01900 0.13500 0.01700
v 0.01900 0.13500 -0.01700
v 0.04900 0.13500 0.01700
v 0.01300 0.03100 0.01700
v 0.01300 0.12900 -0.01700
v 0.01300 0.12900 0.01700
v 0.01300 0.03100 -0.01700
v 0.01900 0.03100 -0.02300
v 0.04900 0.12900 -0.02300
v 0.01900 0.12900 -0.02300
v 0.04900 0.03100 -0.02300
v 0.01900 0.02500 0.01700
v 0.01300 0.03100 0.01700
v 0.01900 0.03100 0.02300
v 0.01900 0.12900 0.02300
v 0.01300 0.12900 0.01700
v 0.01900 0.13500 0.01700
v 0.01900 0.02500 -0.01700
v 0.01900 0.03100 -0.02300
v 0.01300 0.03100 -0.01700
v 0.01900 0.13500 -0.01700
v 0.01300 0.12900 -0.01700
v 0.01900 0.12900 -0.02300
v 0.04900 0.02500 0.01700
v 0.04900 0.03100 0.02300
v 0.05500 0.03100 0.01700
v 0.04900 0.13500 0.01700
v 0.05500 0.12900 0.01700
v 0.04900 0.12900 0.02300
v 0.04900 0.02500 -0.01700
v 0.05500 0.03100 -0.01700
v 0.04900 0.03100 -0.02300
v 0.04900 0.13500 -0.01700
v 0.04900 0.12900 -0.02300
v 0.05500 0.12900 -0.01700
v 0.01900 0.02500 -0.01700
v 0.01300 0.03100 0.01700
v 0.01900 0.02500 0.01700
v 0.01300 0.03100 -0.01700
v 0.01900 0.03100 0.02300
v 0.01300 0.12900 0.01700
v 0.01900 0.12900 0.02300
v 0.01300 0.03100 0.01700
v 0.01900 0.13500 0.01700
v 0.01300 0.12900 -0.01700
v 0.01900 0.13500 -0.01700
v 0.01300 0.12900 0.01700
v 0.01900 0.12900 -0.02300
v 0.01300 0.03100 -0.01700
v 0.01900 0.03100 -0.02300
v 0.01300 0.12900 -0.01700
v 0.04900 0.02500 -0.01700
v 0.01900 0.03100 -0.02300
v 0.01900 0.02500 -0.01700
v 0.04900 0.03100 -0.02300
v 0.01900 0.13500 -0.01700
v 0.04900 0.12900 -0.02300
v 0.04900 0.13500 -0.01700
v 0.01900 0.12900 -0.02300
v 0.05500 0.12900 -0.01700
v 0.04900 0.03100 -0.02300
v 0.05500 0.03100 -0.01700
v 0.04900 0.12900 -0.02300
v 0.04900 0.02500 0.01700
v 0.05500 0.03100 -0.01700
v 0.04900 0.02500 -0.01700
v 0.05500 0.03100 0.01700
v 0.04900 0.13500 -0.01700
v 0.05500 0.12900 0.01700
v 0.04900 0.13500 0.01700
v 0.05500 0.12900 -0.01700
v 0.04900 0.12900 0.02300
v 0.05500 0.03100 0.01700
v 0.04900 0.03100 0.02300
v 0.05500 0.12900 0.01700
v 0.01900 0.02500 0.01700
v 0.04900 0.03100 0.02300
v 0.04900 0.02500 0.01700
v 0.01900 0.03100 0.02300
v 0.04900 0.13500 0.01700
v 0.01900 0.12900 0.02300
v 0.01900 0.13500 0.01700
v 0.04900 0.12900 0.02300
v 0.01900 0.02500 -0.01700
v 0.04900 0.02500 0.01700
v 0.04900 0.02500 -0.01700
v 0.01900 0.02500 0.01700
vn -0.0000 -0.0000 1.0000
vn -0.0000 -0.0000 1.0000
vn -0.0000 -0.0000 1.0000
vn -0.0000 -0.0000 1.0000
vn 1.0000 0.0000 -0.0000
vn 1.0000 0.0000 -0.0000
vn 1.0000 0.0000 -0.0000
vn 1.0000 0.0000 -0.0000
vn 0.0000 1.0000 -0.0000
vn 0.0000 1.0000 -0.0000
vn 0.0000 1.0000 -0.0000
vn 0.0000 1.0000 -0.0000
vn -1.0000 0.0000 -0.0000
vn -1.0000 0.0000 -0.0000
vn -1.0000 0.0000 -0.0000
vn -1.0000 0.0000 -0.0000
vn 0.0000 0.0000 -1.0000
vn 0.0000 0.0000 -1.0000
vn 0.0000 0.0000 -1.0000
vn 0.0000 0.0000 -1.0000
vn -0.5774 -0.5774 0.5772
vn -0.5774 -0.5774 0.5772
vn -0.5774 -0.5774 0.5772
vn -0.5773 0.5774 0.5774
vn -0.5773 0.5774 0.5774
vn -0.5773 0.5774 0.5774
vn -0.5773 -0.5773 -0.5774
vn -0.5773 -0.5773 -0.5774
vn -0.5773 -0.5773 -0.5774
vn -0.5773 0.5774 -0.5774
vn -0.5773 0.5774 -0.5774
vn -0.5773 0.5774 -0.5774
vn 0.5774 -0.5774 0.5773
vn 0.5774 -0.5774 0.5773
vn 0.5774 -0.5774 0.5773
vn 0.5772 0.5774 0.5775
vn 0.5772 0.5774 0.5775
vn 0.5772 0.5774 0.5775
vn 0.5773 -0.5774 -0.5774
vn 0.5773 -0.5774 -0.5774
vn 0.5773 -0.5774 -0.5774
vn 0.5773 0.5774 -0.5773
vn 0.5773 0.5774 -0.5773
vn 0.5773 0.5774 -0.5773
vn -0.7071 -0.7071 -0.0001
vn -0.7071 -0.7071 -0.0001
vn -0.7071 -0.7071 -0.0001
vn -0.7071 -0.7071 -0.0001
vn -0.7071 -0.0000 0.7071
vn -0.7071 -0.0000 0.7071
vn -0.7071 -0.0000 0.7071
vn -0.7071 -0.0000 0.7071
vn -0.7071 0.7071 -0.0000
vn -0.7071 0.7071 -0.0000
vn -0.7071 0.7071 -0.0000
vn -0.7071 0.7071 -0.0000
vn -0.7071 0.0000 -0.7071
vn -0.7071 0.0000 -0.7071
vn -0.7071 0.0000 -0.7071
vn -0.7071 0.0000 -0.7071
vn 0.0000 -0.7071 -0.7071
vn 0.0000 -0.7071 -0.7071
vn 0.0000 -0.7071 -0.7071
vn 0.0000 -0.7071 -0.7071
vn 0.0000 0.7071 -0.7071
vn 0.0000 0.7071 -0.7071
vn 0.0000 0.7071 -0.7071
vn 0.0000 0.7071 -0.7071
vn 0.7071 0.0000 -0.7071
vn 0.7071 0.0000 -0.7071
vn 0.7071 0.0000 -0.7071
vn 0.7071 0.0000 -0.7071
vn 0.7071 -0.7071 -0.0000
vn 0.7071 -0.7071 -0.0000
vn 0.7071 -0.7071 -0.0000
vn 0.7071 -0.7071 -0.0000
vn 0.7071 0.7071 0.0000
vn 0.7071 0.7071 0.0000
vn 0.7071 0.7071 0.0000
vn 0.7071 0.7071 0.0000
vn 0.7071 -0.0000 0.7071
vn 0.7071 -0.0000 0.7071
vn 0.7071 -0.0000 0.7071
vn 0.7071 -0.0000 0.7071
vn -0.0000 -0.7071 0.7071
vn -0.0000 -0.7071 0.7071
vn -0.0000 -0.7071 0.7071
vn -0.0000 -0.7071 0.7071
vn -0.0000 0.7071 0.7071
vn -0.0000 0.7071 0.7071
vn -0.0000 0.7071 0.7071
vn -0.0000 0.7071 0.7071
vn 0.0000 -1.0000 -0.0000
vn 0.0000 -1.0000 -0.0000
vn 0.0000 -1.0000 -0.0000
vn 0.0000 -1.0000 -0.0000
vn -0.0000 -0.0000 1.0000
vn -0.0000 -0.0000 1.0000
vn -0.0000 -0.0000 1.0000
vn -0.0000 -0.0000 1.0000
vn 1.0000 0.0000 -0.0000
vn 1.0000 0.0000 -0.0000
vn 1.0000 0.0000 -0.0000
vn 1.0000 0.0000 -0.0000
vn 0.0000 1.0000 -0.0000
vn 0.0000 1.0000 -0.0000
vn 0.0000 1.0000 -0.0000
vn 0.0000 1.0000 -0.0000
vn -1.0000 0.0000 -0.0000
vn -1.0000 0.0000 -0.0000
vn -1.0000 0.0000 -0.0000
vn -1.0000 0.0000 -0.0000
vn 0.0000 0.0000 -1.0000
vn 0.0000 0.0000 -1.0000
vn 0.0000 0.0000 -1.0000
vn 0.0000 0.0000 -1.0000
vn -0.5774 -0.5774 0.5772
vn -0.5774 -0.5774 0.5772
vn -0.5774 -0.5774 0.5772
vn -0.5773 0.5774 0.5774
vn -0.5773 0.5774 0.5774
vn -0.5773 0.5774 0.5774
vn -0.5773 -0.5773 -0.5774
vn -0.5773 -0.5773 -0.5774
vn -0.5773 -0.5773 -0.5774
vn -0.5773 0.5774 -0.5774
vn -0.5773 0.5774 -0.5774
vn -0.5773 0.5774 -0.5774
vn 0.5774 -0.5774 0.5773
vn 0.5774 -0.5774 0.5773
vn 0.5774 -0.5774 0.5773
vn 0.5772 0.5774 0.5775
vn 0.5772 0.5774 0.5775
vn 0.5772 0.5774 0.5775
vn 0.5773 -0.5774 -0.5774
vn 0.5773 -0.5774 -0.5774
vn 0.5773 -0.5774 -0.5774
vn 0.5773 0.5774 -0.5773
vn 0.5773 0.5774 -0.5773
vn 0.5773 0.5774 -0.5773
vn -0.7071 -0.7071 -0.0001
vn -0.7071 -0.7071 -0.0001
vn -0.7071 -0.7071 -0.0001
vn -0.7071 -0.7071 -0.0001
vn -0.7071 -0.0000 0.7071
vn -0.7071 -0.0000 0.7071
vn -0.7071 -0.0000 0.7071
vn -0.7071 -0.0000 0.7071
vn -0.7071 0.7071 -0.0000
vn -0.7071 0.7071 -0.0000
vn -0.7071 0.7071 -0.0000
vn -0.7071 0.7071 -0.0000
vn -0.7071 0.0000 -0.7071
vn -0.7071 0.0000 -0.7071
vn -0.7071 0.0000 -0.7071
vn -0.7071 0.0000 -0.7071
vn 0.0000 -0.7071 -0.7071
vn 0.0000 -0.7071 -0.7071
vn 0.0000 -0.7071 -0.7071
vn 0.0000 -0.7071 -0.7071
vn 0.0000 0.7071 -0.7071
vn 0.0000 0.7071 -0.7071
vn 0.0000 0.7071 -0.7071
vn 0.0000 0.7071 -0.7071
vn 0.7071 0.0000 -0.7071
vn 0.7071 0.0000 -0.7071
vn 0.7071 0.0000 -0.7071
vn 0.7071 0.0000 -0.7071
vn 0.7071 -0.7071 -0.0000
vn 0.7071 -0.7071 -0.0000
vn 0.7071 -0.7071 -0.0000
vn 0.7071 -0.7071 -0.0000
vn 0.7071 0.7071 0.0000
vn 0.7071 0.7071 0.0000
vn 0.7071 0.7071 0.0000
vn 0.7071 0.7071 0.0000
vn 0.7071 -0.0000 0.7071
vn 0.7071 -0.0000 0.7071
vn 0.7071 -0.0000 0.7071
vn 0.7071 -0.0000 0.7071
vn -0.0000 -0.7071 0.7071
vn -0.0000 -0.7071 0.7071
vn -0.0000 -0.7071 0.7071
vn -0.0000 -0.7071 0.7071
vn -0.0000 0.7071 0.7071
vn -0.0000 0.7071 0.7071
vn -0.0000 0.7071 0.7071
vn -0.0000 0.7071 0.7071
vn 0.0000 -1.0000 -0.0000
vn 0.0000 -1.0000 -0.0000
vn 0.0000 -1.0000 -0.0000
vn 0.0000 -1.0000 -0.0000
f 355//355 357//357 356//356
f 355//355 356//356 358//358
f 359//359 361//361 360//360
f 359//359 360//360 362//362
f 363//363 365//365 364//364
f 363//363 364//364 366//366
f 367//367 369//369 368//368
f 367//367 368//368 370//370
f 371//371 373//373 372//372
f 371//371 372//372 374//374
f 375//375 377//377 376//376
f 378//378 380//380 379//379
f 381//381 383//383 382//382
f 384//384 386//386 385//385
f 387//387 389//389 388//388
f 390//390 392//392 391//391
f 393//393 395//395 394//394
f 396//396 398//398 397//397
f 399//399 401//401 400//400
f 399//399 400//400 402//402
f 403//403 405//405 404//404
f 403//403 404//404 406//406
f 407//407 409//409 408//408
f 407//407 408//408 410//410
f 411//411 413//413 412//412
f 411//411 412//412 414//414
f 415//415 417//417 416//416
f 415//415 416//416 418//418
f 419//419 421//421 420//420
f 419//419 420//420 422//422
f 423//423 425//425 424//424
f 423//423 424//424 426//426
f 427//427 429//429 428//428
f 427//427 428//428 430//430
f 431//431 433//433 432//432
f 431//431 432//432 434//434
f 435//435 437//437 436//436
f 435//435 436//436 438//438
f 439//439 441//441 440//440
f 439//439 440//440 442//442
f 443//443 445//445 444//444
f 443//443 444//444 446//446
f 447//447 449//449 448//448
f 447//447 448//448 450//450
f 451//451 453//453 452//452
f 451//451 452//452 454//454
f 455//455 457//457 456//456
f 455//455 456//456 458//458
f 459//459 461//461 460//460
f 459//459 460//460 462//462
f 463//463 465//465 464//464
f 463//463 464//464 466//466
f 467//467 469//469 468//468
f 467//467 468//468 470//470
f 471//471 473//473 472//472
f 474//474 476//476 475//475
f 477//477 479//479 478//478
f 480//480 482//482 481//481
f 483//483 485//485 484//484
f 486//486 488//488 487//487
f 489//489 491//491 490//490
f 492//492 494//494 493//493
f 495//495 497//497 496//496
f 495//495 496//496 498//498
f 499//499 501//501 500//500
f 499//499 500//500 502//502
f 503//503 505//505 504//504
f 503//503 504//504 506//506
f 507//507 509//509 508//508
f 507//507 508//508 510//510
f 511//511 513//513 512//512
f 511//511 512//512 514//514
f 515//515 517//517 516//516
f 515//515 516//516 518//518
f 519//519 521//521 520//520
f 519//519 520//520 522//522
f 523//523 525//525 524//524
f 523//523 524//524 526//526
f 527//527 529//529 528//528
f 527//527 528//528 530//530
f 531//531 533//533 532//532
f 531//531 532//532 534//534
f 535//535 537//537 536//536
f 535//535 536//536 538//538
f 539//539 541//541 540//540
f 539//539 540//540 542//542
f 543//543 545//545 544//544
f 543//543 544//544 546//546
g body_team
usemtl team
v 0.05373 0.14200 0.04270
v -0.06003 0.24300 0.04442
v 0.06003 0.24300 0.04442
v -0.05373 0.14200 0.04270
v 0.06575 0.14198 -0.03070
v 0.07205 0.24302 0.03242
v 0.07205 0.24302 -0.03242
v 0.06575 0.14198 0.03070
v 0.06080 0.25500 -0.03262
v -0.06080 0.25500 0.03262
v -0.06080 0.25500 -0.03262
v 0.06080 0.25500 0.03262
v -0.06575 0.14198 0.03070
v -0.07205 0.24302 -0.03242
v -0.07205 0.24302 0.03242
v -0.06575 0.14198 -0.03070
v -0.05373 0.14200 -0.04270
v 0.06003 0.24300 -0.04442
v -0.06003 0.24300 -0.04442
v 0.05373 0.14200 -0.04270
v -0.05300 0.13000 0.03050
v -0.06575 0.14198 0.03070
v -0.05373 0.14200 0.04270
v -0.06003 0.24300 0.04442
v -0.07205 0.24302 0.03242
v -0.06080 0.25500 0.03262
v -0.05300 0.13000 -0.03050
v -0.05373 0.14200 -0.04270
v -0.06575 0.14198 -0.03070
v -0.06080 0.25500 -0.03262
v -0.07205 0.24302 -0.03242
v -0.06003 0.24300 -0.04442
v 0.05300 0.13000 0.03050
v 0.05373 0.14200 0.04270
v 0.06575 0.14198 0.03070
v 0.06080 0.25500 0.03262
v 0.07205 0.24302 0.03242
v 0.06003 0.24300 0.04442
v 0.05300 0.13000 -0.03050
v 0.06575 0.14198 -0.03070
v 0.05373 0.14200 -0.04270
v 0.06080 0.25500 -0.03262
v 0.06003 0.24300 -0.04442
v 0.07205 0.24302 -0.03242
v -0.05300 0.13000 -0.03050
v -0.06575 0.14198 0.03070
v -0.05300 0.13000 0.03050
v -0.06575 0.14198 -0.03070
v -0.05373 0.14200 0.04270
v -0.07205 0.24302 0.03242
v -0.06003 0.24300 0.04442
v -0.06575 0.14198 0.03070
v -0.06080 0.25500 0.03262
v -0.07205 0.24302 -0.03242
v -0.06080 0.25500 -0.03262
v -0.07205 0.24302 0.03242
v -0.06003 0.24300 -0.04442
v -0.06575 0.14198 -0.03070
v -0.05373 0.14200 -0.04270
v -0.07205 0.24302 -0.03242
v 0.05300 0.13000 -0.03050
v -0.05373 0.14200 -0.04270
v -0.05300 0.13000 -0.03050
v 0.05373 0.14200 -0.04270
v -0.06080 0.25500 -0.03262
v 0.06003 0.24300 -0.04442
v 0.06080 0.25500 -0.03262
v -0.06003 0.24300 -0.04442
v 0.07205 0.24302 -0.03242
v 0.05373 0.14200 -0.04270
v 0.06575 0.14198 -0.03070
v 0.06003 0.24300 -0.04442
v 0.05300 0.13000 0.03050
v 0.06575 0.14198 -0.03070
v 0.05300 0.13000 -0.03050
v 0.06575 0.14198 0.03070
v 0.06080 0.25500 -0.03262
v 0.07205 0.24302 0.03242
v 0.06080 0.25500 0.03262
v 0.07205 0.24302 -0.03242
v 0.06003 0.24300 0.04442
v 0.06575 0.14198 0.03070
v 0.05373 0.14200 0.04270
v 0.07205 0.24302 0.03242
v -0.05300 0.13000 0.03050
v 0.05373 0.14200 0.04270
v 0.05300 0.13000 0.03050
v -0.05373 0.14200 0.04270
v 0.06080 0.25500 0.03262
v -0.06003 0.24300 0.04442
v -0.06080 0.25500 0.03262
v 0.06003 0.24300 0.04442
v -0.05300 0.13000 -0.03050
v 0.05300 0.13000 0.03050
v 0.05300 0.13000 -0.03050
v -0.05300 0.13000 0.03050
v 0.06134 0.10798 0.04695
v -0.05736 0.14702 0.04425
v 0.05736 0.14702 0.04425
v -0.06134 0.10798 0.04695
v 0.06939 0.10796 -0.03893
v 0.06540 0.14704 0.03623
v 0.06540 0.14704 -0.03623
v 0.06939 0.10796 0.03893
v 0.05658 0.15500 -0.03570
v -0.05658 0.15500 0.03570
v -0.05658 0.15500 -0.03570
v 0.05658 0.15500 0.03570
v -0.06939 0.10796 0.03893
v -0.06540 0.14704 -0.03623
v -0.06540 0.14704 0.03623
v -0.06939 0.10796 -0.03893
v -0.06134 0.10798 -0.04695
v 0.05736 0.14702 -0.04425
v -0.05736 0.14702 -0.04425
v 0.06134 0.10798 -0.04695
v -0.06220 0.10000 0.03950
v -0.06939 0.10796 0.03893
v -0.06134 0.10798 0.04695
v -0.05736 0.14702 0.04425
v -0.06540 0.14704 0.03623
v -0.05658 0.15500 0.03570
v -0.06220 0.10000 -0.03950
v -0.06134 0.10798 -0.04695
v -0.06939 0.10796 -0.03893
v -0.05658 0.15500 -0.03570
v -0.06540 0.14704 -0.03623
v -0.05736 0.14702 -0.04425
v 0.06220 0.10000 0.03950
v 0.06134 0.10798 0.04695
v 0.06939 0.10796 0.03893
v 0.05658 0.15500 0.03570
v 0.06540 0.14704 0.03623
v 0.05736 0.14702 0.04425
v 0.06220 0.10000 -0.03950
v 0.06939 0.10796 -0.03893
v 0.06134 0.10798 -0.04695
v 0.05658 0.15500 -0.03570
v 0.05736 0.14702 -0.04425
v 0.06540 0.14704 -0.03623
v -0.06220 0.10000 -0.03950
v -0.06939 0.10796 0.03893
v -0.06220 0.10000 0.03950
v -0.06939 0.10796 -0.03893
v -0.06134 0.10798 0.04695
v -0.06540 0.14704 0.03623
v -0.05736 0.14702 0.04425
v -0.06939 0.10796 0.03893
v -0.05658 0.15500 0.03570
v -0.06540 0.14704 -0.03623
v -0.05658 0.15500 -0.03570
v -0.06540 0.14704 0.03623
v -0.05736 0.14702 -0.04425
v -0.06939 0.10796 -0.03893
v -0.06134 0.10798 -0.04695
v -0.06540 0.14704 -0.03623
v 0.06220 0.10000 -0.03950
v -0.06134 0.10798 -0.04695
v -0.06220 0.10000 -0.03950
v 0.06134 0.10798 -0.04695
v -0.05658 0.15500 -0.03570
v 0.05736 0.14702 -0.04425
v 0.05658 0.15500 -0.03570
v -0.05736 0.14702 -0.04425
v 0.06540 0.14704 -0.03623
v 0.06134 0.10798 -0.04695
v 0.06939 0.10796 -0.03893
v 0.05736 0.14702 -0.04425
v 0.06220 0.10000 0.03950
v 0.06939 0.10796 -0.03893
v 0.06220 0.10000 -0.03950
v 0.06939 0.10796 0.03893
v 0.05658 0.15500 -0.03570
v 0.06540 0.14704 0.03623
v 0.05658 0.15500 0.03570
v 0.06540 0.14704 -0.03623
v 0.05736 0.14702 0.04425
v 0.06939 0.10796 0.03893
v 0.06134 0.10798 0.04695
v 0.06540 0.14704 0.03623
v -0.06220 0.10000 0.03950
v 0.06134 0.10798 0.04695
v 0.06220 0.10000 0.03950
v -0.06134 0.10798 0.04695
v 0.05658 0.15500 0.03570
v -0.05736 0.14702 0.04425
v -0.05658 0.15500 0.03570
v 0.05736 0.14702 0.04425
v -0.06220 0.10000 -0.03950
v 0.06220 0.10000 0.03950
v 0.06220 0.10000 -0.03950
v -0.06220 0.10000 0.03950
v -0.07501 0.15337 0.02000
v -0.07811 0.25422 0.02000
v -0.05464 0.24923 0.02000
v -0.09849 0.15836 0.02000
v -0.06915 0.15213 -0.01400
v -0.04877 0.24798 0.01400
v -0.04877 0.24798 -0.01400
v -0.06915 0.15213 0.01400
v -0.05339 0.25510 -0.01400
v -0.07687 0.26009 0.01400
v -0.07687 0.26009 -0.01400
v -0.05339 0.25510 0.01400
v -0.10436 0.15961 0.01400
v -0.08398 0.25547 -0.01400
v -0.08398 0.25547 0.01400
v -0.10436 0.15961 -0.01400
v -0.09849 0.15836 -0.02000
v -0.05464 0.24923 -0.02000
v -0.07811 0.25422 -0.02000
v -0.07501 0.15337 -0.02000
v -0.09974 0.15249 0.01400
v -0.10436 0.15961 0.01400
v -0.09849 0.15836 0.02000
v -0.07811 0.25422 0.02000
v -0.08398 0.25547 0.01400
v -0.07687 0.26009 0.01400
v -0.09974 0.15249 -0.01400
v -0.09849 0.15836 -0.02000
v -0.10436 0.15961 -0.01400
v -0.07687 0.26009 -0.01400
v -0.08398 0.25547 -0.01400
v -0.07811 0.25422 -0.02000
v -0.07626 0.14751 0.01400
v -0.07501 0.15337 0.02000
v -0.06915 0.15213 0.01400
v -0.05339 0.25510 0.01400
v -0.04877 0.24798 0.01400
v -0.05464 0.24923 0.02000
v -0.07626 0.14751 -0.01400
v -0.06915 0.15213 -0.01400
v -0.07501 0.15337 -0.02000
v -0.05339 0.25510 -0.01400
v -0.05464 0.24923 -0.02000
v -0.04877 0.24798 -0.01400
v -0.09974 0.15249 -0.01400
v -0.10436 0.15961 0.01400
v -0.09974 0.15249 0.01400
v -0.10436 0.15961 -0.01400
v -0.09849 0.15836 0.02000
v -0.08398 0.25547 0.01400
v -0.07811 0.25422 0.02000
v -0.10436 0.15961 0.01400
v -0.07687 0.26009 0.01400
v -0.08398 0.25547 -0.01400
v -0.07687 0.26009 -0.01400
v -0.08398 0.25547 0.01400
v -0.07811 0.25422 -0.02000
v -0.10436 0.15961 -0.01400
v -0.09849 0.15836 -0.02000
v -0.08398 0.25547 -0.01400
v -0.07626 0.14751 -0.01400
v -0.09849 0.15836 -0.02000
v -0.09974 0.15249 -0.01400
v -0.07501 0.15337 -0.02000
v -0.07687 0.26009 -0.01400
v -0.05464 0.24923 -0.02000
v -0.05339 0.25510 -0.01400
v -0.07811 0.25422 -0.02000
v -0.04877 0.24798 -0.01400
v -0.07501 0.15337 -0.02000
v -0.06915 0.15213 -0.01400
v -0.05464 0.24923 -0.02000
v -0.07626 0.14751 0.01400
v -0.06915 0.15213 -0.01400
v -0.07626 0.14751 -0.01400
v -0.06915 0.15213 0.01400
v -0.05339 0.25510 -0.01400
v -0.04877 0.24798 0.01400
v -0.05339 0.25510 0.01400
v -0.04877 0.24798 -0.01400
v -0.05464 0.24923 0.02000
v -0.06915 0.15213 0.01400
v -0.07501 0.15337 0.02000
v -0.04877 0.24798 0.01400
v -0.09974 0.15249 0.01400
v -0.07501 0.15337 0.02000
v -0.07626 0.14751 0.01400
v -0.09849 0.15836 0.02000
v -0.05339 0.25510 0.01400
v -0.07811 0.25422 0.02000
v -0.07687 0.26009 0.01400
v -0.05464 0.24923 0.02000
v -0.09974 0.15249 -0.01400
v -0.07626 0.14751 0.01400
v -0.07626 0.14751 -0.01400
v -0.09974 0.15249 0.01400
v 0.09849 0.15836 0.02000
v 0.05464 0.24923 0.02000
v 0.07811 0.25422 0.02000
v 0.07501 0.15337 0.02000
v 0.10436 0.15961 -0.01400
v 0.08398 0.25547 0.01400
v 0.08398 0.25547 -0.01400
v 0.10436 0.15961 0.01400
v 0.07687 0.26009 -0.01400
v 0.05339 0.25510 0.01400
v 0.05339 0.25510 -0.01400
v 0.07687 0.26009 0.01400
v 0.06915 0.15213 0.01400
v 0.04877 0.24798 -0.01400
v 0.04877 0.24798 0.01400
v 0.06915 0.15213 -0.01400
v 0.07501 0.15337 -0.02000
v 0.07811 0.25422 -0.02000
v 0.05464 0.24923 -0.02000
v 0.09849 0.15836 -0.02000
v 0.07626 0.14751 0.01400
v 0.06915 0.15213 0.01400
v 0.07501 0.15337 0.02000
v 0.05464 0.24923 0.02000
v 0.04877 0.24798 0.01400
v 0.05339 0.25510 0.01400
v 0.07626 0.14751 -0.01400
v 0.07501 0.15337 -0.02000
v 0.06915 0.15213 -0.01400
v 0.05339 0.25510 -0.01400
v 0.04877 0.24798 -0.01400
v 0.05464 0.24923 -0.02000
v 0.09974 0.15249 0.01400
v 0.09849 0.15836 0.02000
v 0.10436 0.15961 0.01400
v 0.07687 0.26009 0.01400
v 0.08398 0.25547 0.01400
v 0.07811 0.25422 0.02000
v 0.09974 0.15249 -0.01400
v 0.10436 0.15961 -0.01400
v 0.09849 0.15836 -0.02000
v 0.07687 0.26009 -0.01400
v 0.07811 0.25422 -0.02000
v 0.08398 0.25547 -0.01400
v 0.07626 0.14751 -0.01400
v 0.06915 0.15213 0.01400
v 0.07626 0.14751 0.01400
v 0.06915 0.15213 -0.01400
v 0.07501 0.15337 0.02000
v 0.04877 0.24798 0.01400
v 0.05464 0.24923 0.02000
v 0.06915 0.15213 0.01400
v 0.05339 0.25510 0.01400
v 0.04877 0.24798 -0.01400
v 0.05339 0.25510 -0.01400
v 0.04877 0.24798 0.01400
v 0.05464 0.24923 -0.02000
v 0.06915 0.15213 -0.01400
v 0.07501 0.15337 -0.02000
v 0.04877 0.24798 -0.01400
v 0.09974 0.15249 -0.01400
v 0.07501 0.15337 -0.02000
v 0.07626 0.14751 -0.01400
v 0.09849 0.15836 -0.02000
v 0.05339 0.25510 -0.01400
v 0.07811 0.25422 -0.02000
v 0.07687 0.26009 -0.01400
v 0.05464 0.24923 -0.02000
v 0.08398 0.25547 -0.01400
v 0.09849 0.15836 -0.02000
v 0.10436 0.15961 -0.01400
v 0.07811 0.25422 -0.02000
v 0.09974 0.15249 0.01400
v 0.10436 0.15961 -0.01400
v 0.09974 0.15249 -0.01400
v 0.10436 0.15961 0.01400
v 0.07687 0.26009 -0.01400
v 0.08398 0.25547 0.01400
v 0.07687 0.26009 0.01400
v 0.08398 0.25547 -0.01400
v 0.07811 0.25422 0.02000
v 0.10436 0.15961 0.01400
v 0.09849 0.15836 0.02000
v 0.08398 0.25547 0.01400
v 0.07626 0.14751 0.01400
v 0.09849 0.15836 0.02000
v 0.09974 0.15249 0.01400
v 0.07501 0.15337 0.02000
v 0.07687 0.26009 0.01400
v 0.05464 0.24923 0.02000
v 0.05339 0.25510 0.01400
v 0.07811 0.25422 0.02000
v 0.07626 0.14751 -0.01400
v 0.09974 0.15249 0.01400
v 0.09974 0.15249 -0.01400
v 0.07626 0.14751 0.01400
v 0.00000 0.32170 -0.05848
v 0.01824 0.36470 -0.02512
v 0.00000 0.36470 -0.03268
v 0.03649 0.32170 -0.04337
v 0.03649 0.32170 -0.04337
v 0.02580 0.36470 -0.00688
v 0.01824 0.36470 -0.02512
v 0.05160 0.32170 -0.00688
v 0.05160 0.32170 -0.00688
v 0.01824 0.36470 0.01136
v 0.02580 0.36470 -0.00688
v 0.03649 0.32170 0.02961
v 0.03649 0.32170 0.02961
v 0.00000 0.36470 0.01892
v 0.01824 0.36470 0.01136
v 0.00000 0.32170 0.04472
v 0.00000 0.32170 0.04472
v -0.01824 0.36470 0.01136
v 0.00000 0.36470 0.01892
v -0.03649 0.32170 0.02961
v -0.03649 0.32170 0.02961
v -0.02580 0.36470 -0.00688
v -0.01824 0.36470 0.01136
v -0.05160 0.32170 -0.00688
v 0.02580 0.36470 -0.00688
v 0.00000 0.36470 -0.03268
v 0.01824 0.36470 -0.02512
v -0.02580 0.36470 -0.00688
v -0.01824 0.36470 -0.02512
v 0.00000 0.36470 0.01892
v 0.01824 0.36470 0.01136
v -0.01824 0.36470 0.01136
v -0.05160 0.32170 -0.00688
v -0.01824 0.36470 -0.02512
v -0.02580 0.36470 -0.00688
v -0.03649 0.32170 -0.04337
v -0.03649 0.32170 -0.04337
v 0.00000 0.36470 -0.03268
v -0.01824 0.36470 -0.02512
v 0.00000 0.32170 -0.05848
v -0.03649 0.32170 -0.04337
v 0.03649 0.32170 -0.04337
v 0.00000 0.32170 -0.05848
v 0.03649 0.32170 0.02961
v 0.05160 0.32170 -0.00688
v -0.03649 0.32170 0.02961
v -0.05160 0.32170 -0.00688
v 0.00000 0.32170 0.04472
v 0.00000 0.36298 -0.00688
v 0.02383 0.36298 -0.02064
v 0.00000 0.36298 -0.03440
v 0.02383 0.36298 0.00688
v -0.02383 0.36298 -0.02064
v 0.00000 0.36298 0.02064
v -0.02383 0.36298 0.00688
v 0.00000 0.36298 -0.03440
v 0.02383 0.36298 -0.02064
v 0.00000 0.38878 -0.00688
v 0.02383 0.36298 -0.02064
v 0.02383 0.36298 0.00688
v 0.00000 0.38878 -0.00688
v 0.02383 0.36298 0.00688
v 0.00000 0.36298 0.02064
v 0.00000 0.38878 -0.00688
v 0.00000 0.36298 0.02064
v -0.02383 0.36298 0.00688
v 0.00000 0.38878 -0.00688
v -0.02383 0.36298 0.00688
v -0.02383 0.36298 -0.02064
v 0.00000 0.38878 -0.00688
v -0.02383 0.36298 -0.02064
v 0.00000 0.36298 -0.03440
v 0.00000 0.38878 -0.00688
vn -0.0000 -0.0170 0.9999
vn -0.0000 -0.0170 0.9999
vn -0.0000 -0.0170 0.9999
vn -0.0000 -0.0170 0.9999
vn 0.9981 -0.0623 0.0000
vn 0.9981 -0.0623 0.0000
vn 0.9981 -0.0623 0.0000
vn 0.9981 -0.0623 0.0000
vn 0.0000 1.0000 -0.0000
vn 0.0000 1.0000 -0.0000
vn 0.0000 1.0000 -0.0000
vn 0.0000 1.0000 -0.0000
vn -0.9981 -0.0623 -0.0000
vn -0.9981 -0.0623 -0.0000
vn -0.9981 -0.0623 -0.0000
vn -0.9981 -0.0623 -0.0000
vn 0.0000 -0.0170 -0.9999
vn 0.0000 -0.0170 -0.9999
vn 0.0000 -0.0170 -0.9999
vn 0.0000 -0.0170 -0.9999
vn -0.5611 -0.6067 0.5631
vn -0.5611 -0.6067 0.5631
vn -0.5611 -0.6067 0.5631
vn -0.5915 0.5455 0.5937
vn -0.5915 0.5455 0.5937
vn -0.5915 0.5455 0.5937
vn -0.5611 -0.6067 -0.5631
vn -0.5611 -0.6067 -0.5631
vn -0.5611 -0.6067 -0.5631
vn -0.5915 0.5456 -0.5937
vn -0.5915 0.5456 -0.5937
vn -0.5915 0.5456 -0.5937
vn 0.5611 -0.6067 0.5631
vn 0.5611 -0.6067 0.5631
vn 0.5611 -0.6067 0.5631
vn 0.5914 0.5455 0.5938
vn 0.5914 0.5455 0.5938
vn 0.5914 0.5455 0.5938
vn 0.5611 -0.6067 -0.5631
vn 0.5611 -0.6067 -0.5631
vn 0.5611 -0.6067 -0.5631
vn 0.5915 0.5456 -0.5936
vn 0.5915 0.5456 -0.5936
vn 0.5915 0.5456 -0.5936
vn -0.6847 -0.7288 -0.0001
vn -0.6847 -0.7288 -0.0001
vn -0.6847 -0.7288 -0.0001
vn -0.6847 -0.7288 -0.0001
vn -0.7054 -0.0560 0.7066
vn -0.7054 -0.0560 0.7066
vn -0.7054 -0.0560 0.7066
vn -0.7054 -0.0560 0.7066
vn -0.7288 0.6847 -0.0000
vn -0.7288 0.6847 -0.0000
vn -0.7288 0.6847 -0.0000
vn -0.7288 0.6847 -0.0000
vn -0.7054 -0.0560 -0.7066
vn -0.7054 -0.0560 -0.7066
vn -0.7054 -0.0560 -0.7066
vn -0.7054 -0.0560 -0.7066
vn 0.0000 -0.7131 -0.7011
vn 0.0000 -0.7131 -0.7011
vn 0.0000 -0.7131 -0.7011
vn 0.0000 -0.7131 -0.7011
vn 0.0000 0.7011 -0.7131
vn 0.0000 0.7011 -0.7131
vn 0.0000 0.7011 -0.7131
vn 0.0000 0.7011 -0.7131
vn 0.7054 -0.0560 -0.7066
vn 0.7054 -0.0560 -0.7066
vn 0.7054 -0.0560 -0.7066
vn 0.7054 -0.0560 -0.7066
vn 0.6847 -0.7288 -0.0000
vn 0.6847 -0.7288 -0.0000
vn 0.6847 -0.7288 -0.0000
vn 0.6847 -0.7288 -0.0000
vn 0.7288 0.6847 0.0000
vn 0.7288 0.6847 0.0000
vn 0.7288 0.6847 0.0000
vn 0.7288 0.6847 0.0000
vn 0.7054 -0.0560 0.7066
vn 0.7054 -0.0560 0.7066
vn 0.7054 -0.0560 0.7066
vn 0.7054 -0.0560 0.7066
vn -0.0000 -0.7131 0.7010
vn -0.0000 -0.7131 0.7010
vn -0.0000 -0.7131 0.7010
vn -0.0000 -0.7131 0.7010
vn -0.0000 0.7011 0.7131
vn -0.0000 0.7011 0.7131
vn -0.0000 0.7011 0.7131
vn -0.0000 0.7011 0.7131
vn 0.0000 -1.0000 -0.0000
vn 0.0000 -1.0000 -0.0000
vn 0.0000 -1.0000 -0.0000
vn 0.0000 -1.0000 -0.0000
vn -0.0000 0.0689 0.9976
vn -0.0000 0.0689 0.9976
vn -0.0000 0.0689 0.9976
vn -0.0000 0.0689 0.9976
vn 0.9948 0.1016 0.0001
vn 0.9948 0.1016 0.0001
vn 0.9948 0.1016 0.0001
vn 0.9948 0.1016 0.0001
vn 0.0000 1.0000 -0.0000
vn 0.0000 1.0000 -0.0000
vn 0.0000 1.0000 -0.0000
vn 0.0000 1.0000 -0.0000
vn -0.9948 0.1016 0.0000
vn -0.9948 0.1016 0.0000
vn -0.9948 0.1016 0.0000
vn -0.9948 0.1016 0.0000
vn 0.0000 0.0689 -0.9976
vn 0.0000 0.0689 -0.9976
vn 0.0000 0.0689 -0.9976
vn 0.0000 0.0689 -0.9976
vn -0.6083 -0.5057 0.6117
vn -0.6083 -0.5057 0.6117
vn -0.6083 -0.5057 0.6117
vn -0.5432 0.6378 0.5461
vn -0.5432 0.6378 0.5461
vn -0.5432 0.6378 0.5461
vn -0.6083 -0.5057 -0.6117
vn -0.6083 -0.5057 -0.6117
vn -0.6083 -0.5057 -0.6117
vn -0.5431 0.6378 -0.5461
vn -0.5431 0.6378 -0.5461
vn -0.5431 0.6378 -0.5461
vn 0.6083 -0.5057 0.6118
vn 0.6083 -0.5057 0.6118
vn 0.6083 -0.5057 0.6118
vn 0.5431 0.6378 0.5462
vn 0.5431 0.6378 0.5462
vn 0.5431 0.6378 0.5462
vn 0.6083 -0.5058 -0.6117
vn 0.6083 -0.5058 -0.6117
vn 0.6083 -0.5058 -0.6117
vn 0.5431 0.6378 -0.5461
vn 0.5431 0.6378 -0.5461
vn 0.5431 0.6378 -0.5461
vn -0.7422 -0.6702 -0.0001
vn -0.7422 -0.6702 -0.0001
vn -0.7422 -0.6702 -0.0001
vn -0.7422 -0.6702 -0.0001
vn -0.7010 0.1201 0.7030
vn -0.7010 0.1201 0.7030
vn -0.7010 0.1201 0.7030
vn -0.7010 0.1201 0.7030
vn -0.6702 0.7422 -0.0000
vn -0.6702 0.7422 -0.0000
vn -0.6702 0.7422 -0.0000
vn -0.6702 0.7422 -0.0000
vn -0.7010 0.1201 -0.7030
vn -0.7010 0.1201 -0.7030
vn -0.7010 0.1201 -0.7030
vn -0.7010 0.1201 -0.7030
vn 0.0000 -0.6823 -0.7310
vn 0.0000 -0.6823 -0.7310
vn 0.0000 -0.6823 -0.7310
vn 0.0000 -0.6823 -0.7310
vn 0.0000 0.7311 -0.6823
vn 0.0000 0.7311 -0.6823
vn 0.0000 0.7311 -0.6823
vn 0.0000 0.7311 -0.6823
vn 0.7010 0.1201 -0.7029
vn 0.7010 0.1201 -0.7029
vn 0.7010 0.1201 -0.7029
vn 0.7010 0.1201 -0.7029
vn 0.7422 -0.6702 -0.0000
vn 0.7422 -0.6702 -0.0000
vn 0.7422 -0.6702 -0.0000
vn 0.7422 -0.6702 -0.0000
vn 0.6702 0.7422 0.0000
vn 0.6702 0.7422 0.0000
vn 0.6702 0.7422 0.0000
vn 0.6702 0.7422 0.0000
vn 0.7009 0.1201 0.7030
vn 0.7009 0.1201 0.7030
vn 0.7009 0.1201 0.7030
vn 0.7009 0.1201 0.7030
vn -0.0000 -0.6823 0.7311
vn -0.0000 -0.6823 0.7311
vn -0.0000 -0.6823 0.7311
vn -0.0000 -0.6823 0.7311
vn -0.0000 0.7311 0.6823
vn -0.0000 0.7311 0.6823
vn -0.0000 0.7311 0.6823
vn -0.0000 0.7311 0.6823
vn 0.0000 -1.0000 -0.0000
vn 0.0000 -1.0000 -0.0000
vn 0.0000 -1.0000 -0.0000
vn 0.0000 -1.0000 -0.0000
vn -0.0000 -0.0000 1.0000
vn -0.0000 -0.0000 1.0000
vn -0.0000 -0.0000 1.0000
vn -0.0000 -0.0000 1.0000
vn 0.9781 -0.2079 -0.0000
vn 0.9781 -0.2079 -0.0000
vn 0.9781 -0.2079 -0.0000
vn 0.9781 -0.2079 -0.0000
vn 0.2079 0.9782 0.0000
vn 0.2079 0.9782 0.0000
vn 0.2079 0.9782 0.0000
vn 0.2079 0.9782 0.0000
vn -0.9782 0.2079 -0.0000
vn -0.9782 0.2079 -0.0000
vn -0.9782 0.2079 -0.0000
vn -0.9782 0.2079 -0.0000
vn 0.0000 0.0000 -1.0000
vn 0.0000 0.0000 -1.0000
vn 0.0000 0.0000 -1.0000
vn 0.0000 0.0000 -1.0000
vn -0.6848 -0.4447 0.5773
vn -0.6848 -0.4447 0.5773
vn -0.6848 -0.4447 0.5773
vn -0.4447 0.6847 0.5774
vn -0.4447 0.6847 0.5774
vn -0.4447 0.6847 0.5774
vn -0.6848 -0.4446 -0.5774
vn -0.6848 -0.4446 -0.5774
vn -0.6848 -0.4446 -0.5774
vn -0.4447 0.6848 -0.5774
vn -0.4447 0.6848 -0.5774
vn -0.4447 0.6848 -0.5774
vn 0.4447 -0.6848 0.5774
vn 0.4447 -0.6848 0.5774
vn 0.4447 -0.6848 0.5774
vn 0.6847 0.4447 0.5774
vn 0.6847 0.4447 0.5774
vn 0.6847 0.4447 0.5774
vn 0.4446 -0.6848 -0.5774
vn 0.4446 -0.6848 -0.5774
vn 0.4446 -0.6848 -0.5774
vn 0.6848 0.4447 -0.5773
vn 0.6848 0.4447 -0.5773
vn 0.6848 0.4447 -0.5773
vn -0.8387 -0.5446 -0.0000
vn -0.8387 -0.5446 -0.0000
vn -0.8387 -0.5446 -0.0000
vn -0.8387 -0.5446 -0.0000
vn -0.6917 0.1470 0.7071
vn -0.6917 0.1470 0.7071
vn -0.6917 0.1470 0.7071
vn -0.6917 0.1470 0.7071
vn -0.5446 0.8387 0.0000
vn -0.5446 0.8387 0.0000
vn -0.5446 0.8387 0.0000
vn -0.5446 0.8387 0.0000
vn -0.6917 0.1470 -0.7071
vn -0.6917 0.1470 -0.7071
vn -0.6917 0.1470 -0.7071
vn -0.6917 0.1470 -0.7071
vn -0.1470 -0.6917 -0.7071
vn -0.1470 -0.6917 -0.7071
vn -0.1470 -0.6917 -0.7071
vn -0.1470 -0.6917 -0.7071
vn 0.1470 0.6917 -0.7070
vn 0.1470 0.6917 -0.7070
vn 0.1470 0.6917 -0.7070
vn 0.1470 0.6917 -0.7070
vn 0.6917 -0.1470 -0.7071
vn 0.6917 -0.1470 -0.7071
vn 0.6917 -0.1470 -0.7071
vn 0.6917 -0.1470 -0.7071
vn 0.5446 -0.8387 0.0000
vn 0.5446 -0.8387 0.0000
vn 0.5446 -0.8387 0.0000
vn 0.5446 -0.8387 0.0000
vn 0.8387 0.5446 0.0001
vn 0.8387 0.5446 0.0001
vn 0.8387 0.5446 0.0001
vn 0.8387 0.5446 0.0001
vn 0.6916 -0.1470 0.7071
vn 0.6916 -0.1470 0.7071
vn 0.6916 -0.1470 0.7071
vn 0.6916 -0.1470 0.7071
vn -0.1470 -0.6917 0.7071
vn -0.1470 -0.6917 0.7071
vn -0.1470 -0.6917 0.7071
vn -0.1470 -0.6917 0.7071
vn 0.1470 0.6916 0.7071
vn 0.1470 0.6916 0.7071
vn 0.1470 0.6916 0.7071
vn 0.1470 0.6916 0.7071
vn -0.2079 -0.9782 -0.0001
vn -0.2079 -0.9782 -0.0001
vn -0.2079 -0.9782 -0.0001
vn -0.2079 -0.9782 -0.0001
vn -0.0000 -0.0000 1.0000
vn -0.0000 -0.0000 1.0000
vn -0.0000 -0.0000 1.0000
vn -0.0000 -0.0000 1.0000
vn 0.9782 0.2079 0.0000
vn 0.9782 0.2079 0.0000
vn 0.9782 0.2079 0.0000
vn 0.9782 0.2079 0.0000
vn -0.2079 0.9781 -0.0000
vn -0.2079 0.9781 -0.0000
vn -0.2079 0.9781 -0.0000
vn -0.2079 0.9781 -0.0000
vn -0.9782 -0.2079 -0.0001
vn -0.9782 -0.2079 -0.0001
vn -0.9782 -0.2079 -0.0001
vn -0.9782 -0.2079 -0.0001
vn 0.0000 0.0000 -1.0000
vn 0.0000 0.0000 -1.0000
vn 0.0000 0.0000 -1.0000
vn 0.0000 0.0000 -1.0000
vn -0.4447 -0.6848 0.5773
vn -0.4447 -0.6848 0.5773
vn -0.4447 -0.6848 0.5773
vn -0.6848 0.4447 0.5774
vn -0.6848 0.4447 0.5774
vn -0.6848 0.4447 0.5774
vn -0.4446 -0.6848 -0.5774
vn -0.4446 -0.6848 -0.5774
vn -0.4446 -0.6848 -0.5774
vn -0.6848 0.4446 -0.5774
vn -0.6848 0.4446 -0.5774
vn -0.6848 0.4446 -0.5774
vn 0.6847 -0.4447 0.5774
vn 0.6847 -0.4447 0.5774
vn 0.6847 -0.4447 0.5774
vn 0.4447 0.6847 0.5774
vn 0.4447 0.6847 0.5774
vn 0.4447 0.6847 0.5774
vn 0.6848 -0.4447 -0.5774
vn 0.6848 -0.4447 -0.5774
vn 0.6848 -0.4447 -0.5774
vn 0.4447 0.6848 -0.5773
vn 0.4447 0.6848 -0.5773
vn 0.4447 0.6848 -0.5773
vn -0.5446 -0.8387 -0.0000
vn -0.5446 -0.8387 -0.0000
vn -0.5446 -0.8387 -0.0000
vn -0.5446 -0.8387 -0.0000
vn -0.6917 -0.1470 0.7071
vn -0.6917 -0.1470 0.7071
vn -0.6917 -0.1470 0.7071
vn -0.6917 -0.1470 0.7071
vn -0.8387 0.5446 0.0000
vn -0.8387 0.5446 0.0000
vn -0.8387 0.5446 0.0000
vn -0.8387 0.5446 0.0000
vn -0.6917 -0.1470 -0.7071
vn -0.6917 -0.1470 -0.7071
vn -0.6917 -0.1470 -0.7071
vn -0.6917 -0.1470 -0.7071
vn 0.1470 -0.6917 -0.7071
vn 0.1470 -0.6917 -0.7071
vn 0.1470 -0.6917 -0.7071
vn 0.1470 -0.6917 -0.7071
vn -0.1470 0.6917 -0.7071
vn -0.1470 0.6917 -0.7071
vn -0.1470 0.6917 -0.7071
vn -0.1470 0.6917 -0.7071
vn 0.6917 0.1470 -0.7070
vn 0.6917 0.1470 -0.7070
vn 0.6917 0.1470 -0.7070
vn 0.6917 0.1470 -0.7070
vn 0.8387 -0.5446 0.0000
vn 0.8387 -0.5446 0.0000
vn 0.8387 -0.5446 0.0000
vn 0.8387 -0.5446 0.0000
vn 0.5446 0.8387 0.0001
vn 0.5446 0.8387 0.0001
vn 0.5446 0.8387 0.0001
vn 0.5446 0.8387 0.0001
vn 0.6916 0.1470 0.7071
vn 0.6916 0.1470 0.7071
vn 0.6916 0.1470 0.7071
vn 0.6916 0.1470 0.7071
vn 0.1470 -0.6917 0.7071
vn 0.1470 -0.6917 0.7071
vn 0.1470 -0.6917 0.7071
vn 0.1470 -0.6917 0.7071
vn -0.1470 0.6916 0.7071
vn -0.1470 0.6916 0.7071
vn -0.1470 0.6916 0.7071
vn -0.1470 0.6916 0.7071
vn 0.2079 -0.9782 -0.0000
vn 0.2079 -0.9782 -0.0000
vn 0.2079 -0.9782 -0.0000
vn 0.2079 -0.9782 -0.0000
vn 0.3347 0.4848 -0.8080
vn 0.3347 0.4848 -0.8080
vn 0.3347 0.4848 -0.8080
vn 0.3347 0.4848 -0.8080
vn 0.8080 0.4848 -0.3347
vn 0.8080 0.4848 -0.3347
vn 0.8080 0.4848 -0.3347
vn 0.8080 0.4848 -0.3347
vn 0.8080 0.4848 0.3348
vn 0.8080 0.4848 0.3348
vn 0.8080 0.4848 0.3348
vn 0.8080 0.4848 0.3348
vn 0.3347 0.4848 0.8081
vn 0.3347 0.4848 0.8081
vn 0.3347 0.4848 0.8081
vn 0.3347 0.4848 0.8081
vn -0.3348 0.4848 0.8080
vn -0.3348 0.4848 0.8080
vn -0.3348 0.4848 0.8080
vn -0.3348 0.4848 0.8080
vn -0.8081 0.4848 0.3347
vn -0.8081 0.4848 0.3347
vn -0.8081 0.4848 0.3347
vn -0.8081 0.4848 0.3347
vn 0.0000 1.0000 -0.0000
vn 0.0000 1.0000 -0.0000
vn 0.0000 1.0000 -0.0000
vn 0.0000 1.0000 -0.0000
vn 0.0000 1.0000 -0.0000
vn 0.0000 1.0000 -0.0000
vn 0.0000 1.0000 -0.0000
vn 0.0000 1.0000 -0.0000
vn -0.8080 0.4848 -0.3348
vn -0.8080 0.4848 -0.3348
vn -0.8080 0.4848 -0.3348
vn -0.8080 0.4848 -0.3348
vn -0.3347 0.4848 -0.8081
vn -0.3347 0.4848 -0.8081
vn -0.3347 0.4848 -0.8081
vn -0.3347 0.4848 -0.8081
vn 0.0000 -1.0000 -0.0000
vn 0.0000 -1.0000 -0.0000
vn 0.0000 -1.0000 -0.0000
vn 0.0000 -1.0000 -0.0000
vn 0.0000 -1.0000 -0.0000
vn 0.0000 -1.0000 -0.0000
vn 0.0000 -1.0000 -0.0000
vn 0.0000 -1.0000 -0.0000
vn 0.0000 -1.0000 -0.0000
vn 0.0000 -1.0000 -0.0000
vn 0.0000 -1.0000 -0.0000
vn 0.0000 -1.0000 -0.0000
vn 0.0000 -1.0000 -0.0000
vn 0.0000 -1.0000 -0.0000
vn 0.0000 -1.0000 -0.0000
vn 0.3673 0.6786 -0.6361
vn 0.3673 0.6786 -0.6361
vn 0.3673 0.6786 -0.6361
vn 0.7345 0.6786 0.0000
vn 0.7345 0.6786 0.0000
vn 0.7345 0.6786 0.0000
vn 0.3672 0.6786 0.6362
vn 0.3672 0.6786 0.6362
vn 0.3672 0.6786 0.6362
vn -0.3673 0.6786 0.6361
vn -0.3673 0.6786 0.6361
vn -0.3673 0.6786 0.6361
vn -0.7346 0.6785 -0.0000
vn -0.7346 0.6785 -0.0000
vn -0.7346 0.6785 -0.0000
vn -0.3673 0.6785 -0.6361
vn -0.3673 0.6785 -0.6361
vn -0.3673 0.6785 -0.6361
f 547//547 549//549 548//548
f 547//547 548//548 550//550
f 551//551 553//553 552//552
f 551//551 552//552 554//554
f 555//555 557//557 556//556
f 555//555 556//556 558//558
f 559//559 561//561 560//560
f 559//559 560//560 562//562
f 563//563 565//565 564//564
f 563//563 564//564 566//566
f 567//567 569//569 568//568
f 570//570 572//572 571//571
f 573//573 575//575 574//574
f 576//576 578//578 577//577
f 579//579 581//581 580//580
f 582//582 584//584 583//583
f 585//585 587//587 586//586
f 588//588 590//590 589//589
f 591//591 593//593 592//592
f 591//591 592//592 594//594
f 595//595 597//597 596//596
f 595//595 596//596 598//598
f 599//599 601//601 600//600
f 599//599 600//600 602//602
f 603//603 605//605 604//604
f 603//603 604//604 606//606
f 607//607 609//609 608//608
f 607//607 608//608 610//610
f 611//611 613//613 612//612
f 611//611 612//612 614//614
f 615//615 617//617 616//616
f 615//615 616//616 618//618
f 619//619 621//621 620//620
f 619//619 620//620 622//622
f 623//623 625//625 624//624
f 623//623 624//624 626//626
f 627//627 629//629 628//628
f 627//627 628//628 630//630
f 631//631 633//633 632//632
f 631//631 632//632 634//634
f 635//635 637//637 636//636
f 635//635 636//636 638//638
f 639//639 641//641 640//640
f 639//639 640//640 642//642
f 643//643 645//645 644//644
f 643//643 644//644 646//646
f 647//647 649//649 648//648
f 647//647 648//648 650//650
f 651//651 653//653 652//652
f 651//651 652//652 654//654
f 655//655 657//657 656//656
f 655//655 656//656 658//658
f 659//659 661//661 660//660
f 659//659 660//660 662//662
f 663//663 665//665 664//664
f 666//666 668//668 667//667
f 669//669 671//671 670//670
f 672//672 674//674 673//673
f 675//675 677//677 676//676
f 678//678 680//680 679//679
f 681//681 683//683 682//682
f 684//684 686//686 685//685
f 687//687 689//689 688//688
f 687//687 688//688 690//690
f 691//691 693//693 692//692
f 691//691 692//692 694//694
f 695//695 697//697 696//696
f 695//695 696//696 698//698
f 699//699 701//701 700//700
f 699//699 700//700 702//702
f 703//703 705//705 704//704
f 703//703 704//704 706//706
f 707//707 709//709 708//708
f 707//707 708//708 710//710
f 711//711 713//713 712//712
f 711//711 712//712 714//714
f 715//715 717//717 716//716
f 715//715 716//716 718//718
f 719//719 721//721 720//720
f 719//719 720//720 722//722
f 723//723 725//725 724//724
f 723//723 724//724 726//726
f 727//727 729//729 728//728
f 727//727 728//728 730//730
f 731//731 733//733 732//732
f 731//731 732//732 734//734
f 735//735 737//737 736//736
f 735//735 736//736 738//738
f 739//739 741//741 740//740
f 739//739 740//740 742//742
f 743//743 745//745 744//744
f 743//743 744//744 746//746
f 747//747 749//749 748//748
f 747//747 748//748 750//750
f 751//751 753//753 752//752
f 751//751 752//752 754//754
f 755//755 757//757 756//756
f 755//755 756//756 758//758
f 759//759 761//761 760//760
f 762//762 764//764 763//763
f 765//765 767//767 766//766
f 768//768 770//770 769//769
f 771//771 773//773 772//772
f 774//774 776//776 775//775
f 777//777 779//779 778//778
f 780//780 782//782 781//781
f 783//783 785//785 784//784
f 783//783 784//784 786//786
f 787//787 789//789 788//788
f 787//787 788//788 790//790
f 791//791 793//793 792//792
f 791//791 792//792 794//794
f 795//795 797//797 796//796
f 795//795 796//796 798//798
f 799//799 801//801 800//800
f 799//799 800//800 802//802
f 803//803 805//805 804//804
f 803//803 804//804 806//806
f 807//807 809//809 808//808
f 807//807 808//808 810//810
f 811//811 813//813 812//812
f 811//811 812//812 814//814
f 815//815 817//817 816//816
f 815//815 816//816 818//818
f 819//819 821//821 820//820
f 819//819 820//820 822//822
f 823//823 825//825 824//824
f 823//823 824//824 826//826
f 827//827 829//829 828//828
f 827//827 828//828 830//830
f 831//831 833//833 832//832
f 831//831 832//832 834//834
f 835//835 837//837 836//836
f 835//835 836//836 838//838
f 839//839 841//841 840//840
f 839//839 840//840 842//842
f 843//843 845//845 844//844
f 843//843 844//844 846//846
f 847//847 849//849 848//848
f 847//847 848//848 850//850
f 851//851 853//853 852//852
f 851//851 852//852 854//854
f 855//855 857//857 856//856
f 858//858 860//860 859//859
f 861//861 863//863 862//862
f 864//864 866//866 865//865
f 867//867 869//869 868//868
f 870//870 872//872 871//871
f 873//873 875//875 874//874
f 876//876 878//878 877//877
f 879//879 881//881 880//880
f 879//879 880//880 882//882
f 883//883 885//885 884//884
f 883//883 884//884 886//886
f 887//887 889//889 888//888
f 887//887 888//888 890//890
f 891//891 893//893 892//892
f 891//891 892//892 894//894
f 895//895 897//897 896//896
f 895//895 896//896 898//898
f 899//899 901//901 900//900
f 899//899 900//900 902//902
f 903//903 905//905 904//904
f 903//903 904//904 906//906
f 907//907 909//909 908//908
f 907//907 908//908 910//910
f 911//911 913//913 912//912
f 911//911 912//912 914//914
f 915//915 917//917 916//916
f 915//915 916//916 918//918
f 919//919 921//921 920//920
f 919//919 920//920 922//922
f 923//923 925//925 924//924
f 923//923 924//924 926//926
f 927//927 929//929 928//928
f 927//927 928//928 930//930
f 931//931 933//933 932//932
f 931//931 932//932 934//934
f 935//935 937//937 936//936
f 935//935 936//936 938//938
f 939//939 941//941 940//940
f 939//939 940//940 942//942
f 943//943 945//945 944//944
f 943//943 944//944 946//946
f 947//947 949//949 948//948
f 947//947 948//948 950//950
f 951//951 953//953 952//952
f 951//951 952//952 954//954
f 955//955 957//957 956//956
f 955//955 956//956 958//958
f 956//956 959//959 958//958
f 958//958 960//960 955//955
f 960//960 961//961 955//955
f 958//958 962//962 960//960
f 963//963 965//965 964//964
f 963//963 964//964 966//966
f 967//967 969//969 968//968
f 967//967 968//968 970//970
f 971//971 973//973 972//972
f 971//971 972//972 974//974
f 972//972 975//975 974//974
f 974//974 976//976 971//971
f 976//976 977//977 971//971
f 974//974 978//978 976//976
f 979//979 981//981 980//980
f 979//979 980//980 982//982
f 979//979 983//983 981//981
f 979//979 982//982 984//984
f 979//979 985//985 983//983
f 979//979 984//984 985//985
f 986//986 988//988 987//987
f 989//989 991//991 990//990
f 992//992 994//994 993//993
f 995//995 997//997 996//996
f 998//998 1000//1000 999//999
f 1001//1001 1003//1003 1002//1002
g body_skin
usemtl skin
v 0.00000 0.24757 0.00000
v -0.01426 0.27666 0.04170
v 0.03734 0.27666 0.02577
v 0.03734 0.27666 0.02577
v 0.03734 0.27666 -0.02577
v 0.00000 0.24757 0.00000
v 0.00000 0.24757 0.00000
v -0.04615 0.27666 0.00000
v -0.01426 0.27666 0.04170
v 0.00000 0.24757 0.00000
v -0.01426 0.27666 -0.04170
v -0.04615 0.27666 0.00000
v 0.00000 0.24757 0.00000
v 0.03734 0.27666 -0.02577
v -0.01426 0.27666 -0.04170
v 0.03734 0.27666 0.02577
v 0.04615 0.32374 0.00000
v 0.03734 0.27666 -0.02577
v -0.01426 0.27666 0.04170
v 0.01426 0.32374 0.04170
v 0.03734 0.27666 0.02577
v -0.04615 0.27666 0.00000
v -0.03734 0.32374 0.02577
v -0.01426 0.27666 0.04170
v -0.01426 0.27666 -0.04170
v -0.03734 0.32374 -0.02577
v -0.04615 0.27666 0.00000
v 0.03734 0.27666 -0.02577
v 0.01426 0.32374 -0.04170
v -0.01426 0.27666 -0.04170
v 0.03734 0.27666 0.02577
v 0.01426 0.32374 0.04170
v 0.04615 0.32374 0.00000
v -0.01426 0.27666 0.04170
v -0.03734 0.32374 0.02577
v 0.01426 0.32374 0.04170
v -0.04615 0.27666 0.00000
v -0.03734 0.32374 -0.02577
v -0.03734 0.32374 0.02577
v -0.01426 0.27666 -0.04170
v 0.01426 0.32374 -0.04170
v -0.03734 0.32374 -0.02577
v 0.03734 0.27666 -0.02577
v 0.04615 0.32374 0.00000
v 0.01426 0.32374 -0.04170
v 0.01426 0.32374 0.04170
v 0.00000 0.35283 0.00000
v 0.04615 0.32374 0.00000
v -0.03734 0.32374 0.02577
v 0.00000 0.35283 0.00000
v 0.01426 0.32374 0.04170
v -0.03734 0.32374 -0.02577
v 0.00000 0.35283 0.00000
v -0.03734 0.32374 0.02577
v 0.01426 0.32374 -0.04170
v 0.00000 0.35283 0.00000
v -0.03734 0.32374 -0.02577
v 0.04615 0.32374 0.00000
v 0.00000 0.35283 0.00000
v 0.01426 0.32374 -0.04170
v -0.10000 0.12800 0.01000
v -0.10608 0.14016 0.02871
v -0.08408 0.14016 0.02157
v -0.08408 0.14016 0.02157
v -0.08408 0.14016 -0.00157
v -0.10000 0.12800 0.01000
v -0.10000 0.12800 0.01000
v -0.11968 0.14016 0.01000
v -0.10608 0.14016 0.02871
v -0.10000 0.12800 0.01000
v -0.10608 0.14016 -0.00871
v -0.11968 0.14016 0.01000
v -0.10000 0.12800 0.01000
v -0.08408 0.14016 -0.00157
v -0.10608 0.14016 -0.00871
v -0.08408 0.14016 0.02157
v -0.08032 0.15984 0.01000
v -0.08408 0.14016 -0.00157
v -0.10608 0.14016 0.02871
v -0.09392 0.15984 0.02871
v -0.08408 0.14016 0.02157
v -0.11968 0.14016 0.01000
v -0.11592 0.15984 0.02157
v -0.10608 0.14016 0.02871
v -0.10608 0.14016 -0.00871
v -0.11592 0.15984 -0.00157
v -0.11968 0.14016 0.01000
v -0.08408 0.14016 -0.00157
v -0.09392 0.15984 -0.00871
v -0.10608 0.14016 -0.00871
v -0.08408 0.14016 0.02157
v -0.09392 0.15984 0.02871
v -0.08032 0.15984 0.01000
v -0.10608 0.14016 0.02871
v -0.11592 0.15984 0.02157
v -0.09392 0.15984 0.02871
v -0.11968 0.14016 0.01000
v -0.11592 0.15984 -0.00157
v -0.11592 0.15984 0.02157
v -0.10608 0.14016 -0.00871
v -0.09392 0.15984 -0.00871
v -0.11592 0.15984 -0.00157
v -0.08408 0.14016 -0.00157
v -0.08032 0.15984 0.01000
v -0.09392 0.15984 -0.00871
v -0.09392 0.15984 0.02871
v -0.10000 0.17200 0.01000
v -0.08032 0.15984 0.01000
v -0.11592 0.15984 0.02157
v -0.10000 0.17200 0.01000
v -0.09392 0.15984 0.02871
v -0.11592 0.15984 -0.00157
v -0.10000 0.17200 0.01000
v -0.11592 0.15984 0.02157
v -0.09392 0.15984 -0.00871
v -0.10000 0.17200 0.01000
v -0.11592 0.15984 -0.00157
v -0.08032 0.15984 0.01000
v -0.10000 0.17200 0.01000
v -0.09392 0.15984 -0.00871
v 0.10000 0.12800 0.01000
v 0.09392 0.14016 0.02871
v 0.11592 0.14016 0.02157
v 0.11592 0.14016 0.02157
v 0.11592 0.14016 -0.00157
v 0.10000 0.12800 0.01000
v 0.10000 0.12800 0.01000
v 0.08032 0.14016 0.01000
v 0.09392 0.14016 0.02871
v 0.10000 0.12800 0.01000
v 0.09392 0.14016 -0.00871
v 0.08032 0.14016 0.01000
v 0.10000 0.12800 0.01000
v 0.11592 0.14016 -0.00157
v 0.09392 0.14016 -0.00871
v 0.11592 0.14016 0.02157
v 0.11968 0.15984 0.01000
v 0.11592 0.14016 -0.00157
v 0.09392 0.14016 0.02871
v 0.10608 0.15984 0.02871
v 0.11592 0.14016 0.02157
v 0.08032 0.14016 0.01000
v 0.08408 0.15984 0.02157
v 0.09392 0.14016 0.02871
v 0.09392 0.14016 -0.00871
v 0.08408 0.15984 -0.00157
v 0.08032 0.14016 0.01000
v 0.11592 0.14016 -0.00157
v 0.10608 0.15984 -0.00871
v 0.09392 0.14016 -0.00871
v 0.11592 0.14016 0.02157
v 0.10608 0.15984 0.02871
v 0.11968 0.15984 0.01000
v 0.09392 0.14016 0.02871
v 0.08408 0.15984 0.02157
v 0.10608 0.15984 0.02871
v 0.08032 0.14016 0.01000
v 0.08408 0.15984 -0.00157
v 0.08408 0.15984 0.02157
v 0.09392 0.14016 -0.00871
v 0.10608 0.15984 -0.00871
v 0.08408 0.15984 -0.00157
v 0.11592 0.14016 -0.00157
v 0.11968 0.15984 0.01000
v 0.10608 0.15984 -0.00871
v 0.10608 0.15984 0.02871
v 0.10000 0.17200 0.01000
v 0.11968 0.15984 0.01000
v 0.08408 0.15984 0.02157
v 0.10000 0.17200 0.01000
v 0.10608 0.15984 0.02871
v 0.08408 0.15984 -0.00157
v 0.10000 0.17200 0.01000
v 0.08408 0.15984 0.02157
v 0.10608 0.15984 -0.00871
v 0.10000 0.17200 0.01000
v 0.08408 0.15984 -0.00157
v 0.11968 0.15984 0.01000
v 0.10000 0.17200 0.01000
v 0.10608 0.15984 -0.00871
v 0.00000 0.24430 -0.02150
v 0.01862 0.27010 -0.01075
v 0.00000 0.27010 -0.02150
v 0.01862 0.24430 -0.01075
v 0.01862 0.24430 -0.01075
v 0.01862 0.27010 0.01075
v 0.01862 0.27010 -0.01075
v 0.01862 0.24430 0.01075
v 0.01862 0.24430 0.01075
v 0.00000 0.27010 0.02150
v 0.01862 0.27010 0.01075
v 0.00000 0.24430 0.02150
v 0.00000 0.24430 0.02150
v -0.01862 0.27010 0.01075
v 0.00000 0.27010 0.02150
v -0.01862 0.24430 0.01075
v 0.01862 0.27010 0.01075
v 0.00000 0.27010 -0.02150
v 0.01862 0.27010 -0.01075
v -0.01862 0.27010 0.01075
v 0.00000 0.27010 0.02150
v -0.01862 0.27010 -0.01075
v -0.01862 0.24430 0.01075
v -0.01862 0.27010 -0.01075
v -0.01862 0.27010 0.01075
v -0.01862 0.24430 -0.01075
v -0.01862 0.24430 -0.01075
v 0.00000 0.27010 -0.02150
v -0.01862 0.27010 -0.01075
v 0.00000 0.24430 -0.02150
v -0.01862 0.24430 -0.01075
v 0.01862 0.24430 -0.01075
v 0.00000 0.24430 -0.02150
v 0.00000 0.24430 0.02150
v -0.01862 0.24430 0.01075
v 0.01862 0.24430 0.01075
vn 0.1865 -0.7746 0.6043
vn 0.1865 -0.7746 0.6043
vn 0.1865 -0.7746 0.6043
vn 0.6146 -0.7888 0.0000
vn 0.6146 -0.7888 0.0000
vn 0.6146 -0.7888 0.0000
vn -0.4938 -0.7833 0.3776
vn -0.4938 -0.7833 0.3776
vn -0.4938 -0.7833 0.3776
vn -0.4938 -0.7833 -0.3777
vn -0.4938 -0.7833 -0.3777
vn -0.4938 -0.7833 -0.3777
vn 0.1865 -0.7746 -0.6043
vn 0.1865 -0.7746 -0.6043
vn 0.1865 -0.7746 -0.6043
vn 0.9829 -0.1840 -0.0000
vn 0.9829 -0.1840 -0.0000
vn 0.9829 -0.1840 -0.0000
vn 0.2903 -0.1759 0.9406
vn 0.2903 -0.1759 0.9406
vn 0.2903 -0.1759 0.9406
vn -0.7812 -0.1808 0.5975
vn -0.7812 -0.1808 0.5975
vn -0.7812 -0.1808 0.5975
vn -0.7812 -0.1808 -0.5976
vn -0.7812 -0.1808 -0.5976
vn -0.7812 -0.1808 -0.5976
vn 0.2903 -0.1759 -0.9406
vn 0.2903 -0.1759 -0.9406
vn 0.2903 -0.1759 -0.9406
vn 0.7812 0.1808 0.5976
vn 0.7812 0.1808 0.5976
vn 0.7812 0.1808 0.5976
vn -0.2903 0.1759 0.9406
vn -0.2903 0.1759 0.9406
vn -0.2903 0.1759 0.9406
vn -0.9829 0.1840 -0.0000
vn -0.9829 0.1840 -0.0000
vn -0.9829 0.1840 -0.0000
vn -0.2903 0.1759 -0.9406
vn -0.2903 0.1759 -0.9406
vn -0.2903 0.1759 -0.9406
vn 0.7812 0.1808 -0.5975
vn 0.7812 0.1808 -0.5975
vn 0.7812 0.1808 -0.5975
vn 0.4938 0.7833 0.3777
vn 0.4938 0.7833 0.3777
vn 0.4938 0.7833 0.3777
vn -0.1865 0.7746 0.6043
vn -0.1865 0.7746 0.6043
vn -0.1865 0.7746 0.6043
vn -0.6146 0.7888 0.0000
vn -0.6146 0.7888 0.0000
vn -0.6146 0.7888 0.0000
vn -0.1865 0.7746 -0.6043
vn -0.1865 0.7746 -0.6043
vn -0.1865 0.7746 -0.6043
vn 0.4938 0.7833 -0.3775
vn 0.4938 0.7833 -0.3775
vn 0.4938 0.7833 -0.3775
vn 0.1875 -0.7947 0.5773
vn 0.1875 -0.7947 0.5773
vn 0.1875 -0.7947 0.5773
vn 0.6070 -0.7947 0.0000
vn 0.6070 -0.7947 0.0000
vn 0.6070 -0.7947 0.0000
vn -0.4911 -0.7947 0.3567
vn -0.4911 -0.7947 0.3567
vn -0.4911 -0.7947 0.3567
vn -0.4911 -0.7947 -0.3568
vn -0.4911 -0.7947 -0.3568
vn -0.4911 -0.7947 -0.3568
vn 0.1876 -0.7947 -0.5774
vn 0.1876 -0.7947 -0.5774
vn 0.1876 -0.7947 -0.5774
vn 0.9822 -0.1876 -0.0000
vn 0.9822 -0.1876 -0.0000
vn 0.9822 -0.1876 -0.0000
vn 0.3035 -0.1876 0.9342
vn 0.3035 -0.1876 0.9342
vn 0.3035 -0.1876 0.9342
vn -0.7947 -0.1877 0.5773
vn -0.7947 -0.1877 0.5773
vn -0.7947 -0.1877 0.5773
vn -0.7946 -0.1876 -0.5775
vn -0.7946 -0.1876 -0.5775
vn -0.7946 -0.1876 -0.5775
vn 0.3035 -0.1876 -0.9342
vn 0.3035 -0.1876 -0.9342
vn 0.3035 -0.1876 -0.9342
vn 0.7946 0.1876 0.5774
vn 0.7946 0.1876 0.5774
vn 0.7946 0.1876 0.5774
vn -0.3035 0.1876 0.9342
vn -0.3035 0.1876 0.9342
vn -0.3035 0.1876 0.9342
vn -0.9823 0.1876 -0.0000
vn -0.9823 0.1876 -0.0000
vn -0.9823 0.1876 -0.0000
vn -0.3035 0.1876 -0.9342
vn -0.3035 0.1876 -0.9342
vn -0.3035 0.1876 -0.9342
vn 0.7946 0.1876 -0.5774
vn 0.7946 0.1876 -0.5774
vn 0.7946 0.1876 -0.5774
vn 0.4911 0.7947 0.3568
vn 0.4911 0.7947 0.3568
vn 0.4911 0.7947 0.3568
vn -0.1876 0.7946 0.5774
vn -0.1876 0.7946 0.5774
vn -0.1876 0.7946 0.5774
vn -0.6071 0.7946 0.0000
vn -0.6071 0.7946 0.0000
vn -0.6071 0.7946 0.0000
vn -0.1876 0.7946 -0.5774
vn -0.1876 0.7946 -0.5774
vn -0.1876 0.7946 -0.5774
vn 0.4911 0.7947 -0.3567
vn 0.4911 0.7947 -0.3567
vn 0.4911 0.7947 -0.3567
vn 0.1875 -0.7947 0.5773
vn 0.1875 -0.7947 0.5773
vn 0.1875 -0.7947 0.5773
vn 0.6070 -0.7947 0.0000
vn 0.6070 -0.7947 0.0000
vn 0.6070 -0.7947 0.0000
vn -0.4911 -0.7947 0.3567
vn -0.4911 -0.7947 0.3567
vn -0.4911 -0.7947 0.3567
vn -0.4911 -0.7947 -0.3568
vn -0.4911 -0.7947 -0.3568
vn -0.4911 -0.7947 -0.3568
vn 0.1876 -0.7947 -0.5774
vn 0.1876 -0.7947 -0.5774
vn 0.1876 -0.7947 -0.5774
vn 0.9822 -0.1876 -0.0000
vn 0.9822 -0.1876 -0.0000
vn 0.9822 -0.1876 -0.0000
vn 0.3035 -0.1876 0.9342
vn 0.3035 -0.1876 0.9342
vn 0.3035 -0.1876 0.9342
vn -0.7947 -0.1877 0.5773
vn -0.7947 -0.1877 0.5773
vn -0.7947 -0.1877 0.5773
vn -0.7946 -0.1876 -0.5775
vn -0.7946 -0.1876 -0.5775
vn -0.7946 -0.1876 -0.5775
vn 0.3035 -0.1876 -0.9342
vn 0.3035 -0.1876 -0.9342
vn 0.3035 -0.1876 -0.9342
vn 0.7946 0.1876 0.5774
vn 0.7946 0.1876 0.5774
vn 0.7946 0.1876 0.5774
vn -0.3035 0.1876 0.9342
vn -0.3035 0.1876 0.9342
vn -0.3035 0.1876 0.9342
vn -0.9823 0.1876 -0.0000
vn -0.9823 0.1876 -0.0000
vn -0.9823 0.1876 -0.0000
vn -0.3035 0.1876 -0.9342
vn -0.3035 0.1876 -0.9342
vn -0.3035 0.1876 -0.9342
vn 0.7946 0.1876 -0.5774
vn 0.7946 0.1876 -0.5774
vn 0.7946 0.1876 -0.5774
vn 0.4911 0.7947 0.3568
vn 0.4911 0.7947 0.3568
vn 0.4911 0.7947 0.3568
vn -0.1876 0.7946 0.5774
vn -0.1876 0.7946 0.5774
vn -0.1876 0.7946 0.5774
vn -0.6071 0.7946 0.0000
vn -0.6071 0.7946 0.0000
vn -0.6071 0.7946 0.0000
vn -0.1876 0.7946 -0.5774
vn -0.1876 0.7946 -0.5774
vn -0.1876 0.7946 -0.5774
vn 0.4911 0.7947 -0.3567
vn 0.4911 0.7947 -0.3567
vn 0.4911 0.7947 -0.3567
vn 0.5000 0.0000 -0.8660
vn 0.5000 0.0000 -0.8660
vn 0.5000 0.0000 -0.8660
vn 0.5000 0.0000 -0.8660
vn 1.0000 0.0000 -0.0000
vn 1.0000 0.0000 -0.0000
vn 1.0000 0.0000 -0.0000
vn 1.0000 0.0000 -0.0000
vn 0.5000 -0.0000 0.8660
vn 0.5000 -0.0000 0.8660
vn 0.5000 -0.0000 0.8660
vn 0.5000 -0.0000 0.8660
vn -0.5000 -0.0000 0.8660
vn -0.5000 -0.0000 0.8660
vn -0.5000 -0.0000 0.8660
vn -0.5000 -0.0000 0.8660
vn 0.0000 1.0000 -0.0000
vn 0.0000 1.0000 -0.0000
vn 0.0000 1.0000 -0.0000
vn 0.0000 1.0000 -0.0000
vn 0.0000 1.0000 -0.0000
vn 0.0000 1.0000 -0.0000
vn -1.0000 0.0000 -0.0000
vn -1.0000 0.0000 -0.0000
vn -1.0000 0.0000 -0.0000
vn -1.0000 0.0000 -0.0000
vn -0.5000 0.0000 -0.8660
vn -0.5000 0.0000 -0.8660
vn -0.5000 0.0000 -0.8660
vn -0.5000 0.0000 -0.8660
vn 0.0000 -1.0000 -0.0000
vn 0.0000 -1.0000 -0.0000
vn 0.0000 -1.0000 -0.0000
vn 0.0000 -1.0000 -0.0000
vn 0.0000 -1.0000 -0.0000
vn 0.0000 -1.0000 -0.0000
f 1064//1064 1066//1066 1065//1065
f 1067//1067 1069//1069 1068//1068
f 1070//1070 1072//1072 1071//1071
f 1073//1073 1075//1075 1074//1074
f 1076//1076 1078//1078 1077//1077
f 1079//1079 1081//1081 1080//1080
f 1082//1082 1084//1084 1083//1083
f 1085//1085 1087//1087 1086//1086
f 1088//1088 1090//1090 1089//1089
f 1091//1091 1093//1093 1092//1092
f 1094//1094 1096//1096 1095//1095
f 1097//1097 1099//1099 1098//1098
f 1100//1100 1102//1102 1101//1101
f 1103//1103 1105//1105 1104//1104
f 1106//1106 1108//1108 1107//1107
f 1109//1109 1111//1111 1110//1110
f 1112//1112 1114//1114 1113//1113
f 1115//1115 1117//1117 1116//1116
f 1118//1118 1120//1120 1119//1119
f 1121//1121 1123//1123 1122//1122
f 1124//1124 1126//1126 1125//1125
f 1127//1127 1129//1129 1128//1128
f 1130//1130 1132//1132 1131//1131
f 1133//1133 1135//1135 1134//1134
f 1136//1136 1138//1138 1137//1137
f 1139//1139 1141//1141 1140//1140
f 1142//1142 1144//1144 1143//1143
f 1145//1145 1147//1147 1146//1146
f 1148//1148 1150//1150 1149//1149
f 1151//1151 1153//1153 1152//1152
f 1154//1154 1156//1156 1155//1155
f 1157//1157 1159//1159 1158//1158
f 1160//1160 1162//1162 1161//1161
f 1163//1163 1165//1165 1164//1164
f 1166//1166 1168//1168 1167//1167
f 1169//1169 1171//1171 1170//1170
f 1172//1172 1174//1174 1173//1173
f 1175//1175 1177//1177 1176//1176
f 1178//1178 1180//1180 1179//1179
f 1181//1181 1183//1183 1182//1182
f 1184//1184 1186//1186 1185//1185
f 1184//1184 1185//1185 1187//1187
f 1188//1188 1190//1190 1189//1189
f 1188//1188 1189//1189 1191//1191
f 1192//1192 1194//1194 1193//1193
f 1192//1192 1193//1193 1195//1195
f 1196//1196 1198//1198 1197//1197
f 1196//1196 1197//1197 1199//1199
f 1200//1200 1202//1202 1201//1201
f 1201//1201 1203//1203 1200//1200
f 1203//1203 1204//1204 1200//1200
f 1201//1201 1205//1205 1203//1203
f 1206//1206 1208//1208 1207//1207
f 1206//1206 1207//1207 1209//1209
f 1210//1210 1212//1212 1211//1211
f 1210//1210 1211//1211 1213//1213
f 1214//1214 1216//1216 1215//1215
f 1215//1215 1217//1217 1214//1214
f 1217//1217 1218//1218 1214//1214
f 1215//1215 1219//1219 1217//1217
f 1004//1004 1006//1006 1005//1005
f 1007//1007 1009//1009 1008//1008
f 1010//1010 1012//1012 1011//1011
f 1013//1013 1015//1015 1014//1014
f 1016//1016 1018//1018 1017//1017
f 1019//1019 1021//1021 1020//1020
f 1022//1022 1024//1024 1023//1023
f 1025//1025 1027//1027 1026//1026
f 1028//1028 1030//1030 1029//1029
f 1031//1031 1033//1033 1032//1032
f 1034//1034 1036//1036 1035//1035
f 1037//1037 1039//1039 1038//1038
f 1040//1040 1042//1042 1041//1041
f 1043//1043 1045//1045 1044//1044
f 1046//1046 1048//1048 1047//1047
f 1049//1049 1051//1051 1050//1050
f 1052//1052 1054//1054 1053//1053
f 1055//1055 1057//1057 1056//1056
f 1058//1058 1060//1060 1059//1059
f 1061//1061 1063//1063 1062//1062
g body_black
usemtl black
v -0.02451 0.29676 0.05074
v -0.02451 0.31052 0.04558
v -0.02451 0.31052 0.05074
v -0.02451 0.29676 0.04558
v -0.02451 0.29676 0.04558
v -0.01333 0.31052 0.04558
v -0.02451 0.31052 0.04558
v -0.01333 0.29676 0.04558
v -0.01333 0.29676 0.04558
v -0.01333 0.31052 0.05074
v -0.01333 0.31052 0.04558
v -0.01333 0.29676 0.05074
v -0.01333 0.29676 0.05074
v -0.02451 0.31052 0.05074
v -0.01333 0.31052 0.05074
v -0.02451 0.29676 0.05074
v -0.02451 0.29676 0.04558
v -0.01333 0.29676 0.05074
v -0.01333 0.29676 0.04558
v -0.02451 0.29676 0.05074
v -0.01333 0.31052 0.04558
v -0.02451 0.31052 0.05074
v -0.02451 0.31052 0.04558
v -0.01333 0.31052 0.05074
v 0.01333 0.29676 0.05074
v 0.01333 0.31052 0.04558
v 0.01333 0.31052 0.05074
v 0.01333 0.29676 0.04558
v 0.01333 0.29676 0.04558
v 0.02451 0.31052 0.04558
v 0.01333 0.31052 0.04558
v 0.02451 0.29676 0.04558
v 0.02451 0.29676 0.04558
v 0.02451 0.31052 0.05074
v 0.02451 0.31052 0.04558
v 0.02451 0.29676 0.05074
v 0.02451 0.29676 0.05074
v 0.01333 0.31052 0.05074
v 0.02451 0.31052 0.05074
v 0.01333 0.29676 0.05074
v 0.01333 0.29676 0.04558
v 0.02451 0.29676 0.05074
v 0.02451 0.29676 0.04558
v 0.01333 0.29676 0.05074
v 0.02451 0.31052 0.04558
v 0.01333 0.31052 0.05074
v 0.01333 0.31052 0.04558
v 0.02451 0.31052 0.05074
vn -1.0000 0.0000 -0.0000
vn -1.0000 0.0000 -0.0000
vn -1.0000 0.0000 -0.0000
vn -1.0000 0.0000 -0.0000
vn 0.0000 0.0000 -1.0000
vn 0.0000 0.0000 -1.0000
vn 0.0000 0.0000 -1.0000
vn 0.0000 0.0000 -1.0000
vn 1.0000 0.0000 -0.0000
vn 1.0000 0.0000 -0.0000
vn 1.0000 0.0000 -0.0000
vn 1.0000 0.0000 -0.0000
vn -0.0000 -0.0000 1.0000
vn -0.0000 -0.0000 1.0000
vn -0.0000 -0.0000 1.0000
vn -0.0000 -0.0000 1.0000
vn 0.0000 -1.0000 -0.0000
vn 0.0000 -1.0000 -0.0000
vn 0.0000 -1.0000 -0.0000
vn 0.0000 -1.0000 -0.0000
vn 0.0000 1.0000 -0.0000
vn 0.0000 1.0000 -0.0000
vn 0.0000 1.0000 -0.0000
vn 0.0000 1.0000 -0.0000
vn -1.0000 0.0000 -0.0000
vn -1.0000 0.0000 -0.0000
vn -1.0000 0.0000 -0.0000
vn -1.0000 0.0000 -0.0000
vn 0.0000 0.0000 -1.0000
vn 0.0000 0.0000 -1.0000
vn 0.0000 0.0000 -1.0000
vn 0.0000 0.0000 -1.0000
vn 1.0000 0.0000 -0.0000
vn 1.0000 0.0000 -0.0000
vn 1.0000 0.0000 -0.0000
vn 1.0000 0.0000 -0.0000
vn -0.0000 -0.0000 1.0000
vn -0.0000 -0.0000 1.0000
vn -0.0000 -0.0000 1.0000
vn -0.0000 -0.0000 1.0000
vn 0.0000 -1.0000 -0.0000
vn 0.0000 -1.0000 -0.0000
vn 0.0000 -1.0000 -0.0000
vn 0.0000 -1.0000 -0.0000
vn 0.0000 1.0000 -0.0000
vn 0.0000 1.0000 -0.0000
vn 0.0000 1.0000 -0.0000
vn 0.0000 1.0000 -0.0000
f 1220//1220 1222//1222 1221//1221
f 1220//1220 1221//1221 1223//1223
f 1224//1224 1226//1226 1225//1225
f 1224//1224 1225//1225 1227//1227
f 1228//1228 1230//1230 1229//1229
f 1228//1228 1229//1229 1231//1231
f 1232//1232 1234//1234 1233//1233
f 1232//1232 1233//1233 1235//1235
f 1236//1236 1238//1238 1237//1237
f 1236//1236 1237//1237 1239//1239
f 1240//1240 1242//1242 1241//1241
f 1240//1240 1241//1241 1243//1243
f 1244//1244 1246//1246 1245//1245
f 1244//1244 1245//1245 1247//1247
f 1248//1248 1250//1250 1249//1249
f 1248//1248 1249//1249 1251//1251
f 1252//1252 1254//1254 1253//1253
f 1252//1252 1253//1253 1255//1255
f 1256//1256 1258//1258 1257//1257
f 1256//1256 1257//1257 1259//1259
f 1260//1260 1262//1262 1261//1261
f 1260//1260 1261//1261 1263//1263
f 1264//1264 1266//1266 1265//1265
f 1264//1264 1265//1265 1267//1267
g body_metal
usemtl metal
v 0.00000 0.31740 -0.07740
v 0.04145 0.32600 -0.06393
v 0.00000 0.32600 -0.07740
v 0.04145 0.31740 -0.06393
v 0.04145 0.31740 -0.06393
v 0.06707 0.32600 -0.02867
v 0.04145 0.32600 -0.06393
v 0.06707 0.31740 -0.02867
v 0.06707 0.31740 -0.02867
v 0.06707 0.32600 0.01491
v 0.06707 0.32600 -0.02867
v 0.06707 0.31740 0.01491
v 0.06707 0.31740 0.01491
v 0.04145 0.32600 0.05017
v 0.06707 0.32600 0.01491
v 0.04145 0.31740 0.05017
v 0.04145 0.31740 0.05017
v 0.00000 0.32600 0.06364
v 0.04145 0.32600 0.05017
v 0.00000 0.31740 0.06364
v 0.00000 0.31740 0.06364
v -0.04145 0.32600 0.05017
v 0.00000 0.32600 0.06364
v -0.04145 0.31740 0.05017
v -0.04145 0.31740 0.05017
v -0.06707 0.32600 0.01491
v -0.04145 0.32600 0.05017
v -0.06707 0.31740 0.01491
v -0.06707 0.31740 0.01491
v -0.06707 0.32600 -0.02867
v -0.06707 0.32600 0.01491
v -0.06707 0.31740 -0.02867
v 0.06707 0.32600 -0.02867
v 0.00000 0.32600 -0.07740
v 0.04145 0.32600 -0.06393
v -0.06707 0.32600 -0.02867
v -0.04145 0.32600 -0.06393
v 0.04145 0.32600 0.05017
v 0.06707 0.32600 0.01491
v -0.04145 0.32600 0.05017
v 0.00000 0.32600 0.06364
v -0.06707 0.32600 0.01491
v -0.06707 0.31740 -0.02867
v -0.04145 0.32600 -0.06393
v -0.06707 0.32600 -0.02867
v -0.04145 0.31740 -0.06393
v -0.04145 0.31740 -0.06393
v 0.00000 0.32600 -0.07740
v -0.04145 0.32600 -0.06393
v 0.00000 0.31740 -0.07740
v -0.04145 0.31740 -0.06393
v 0.04145 0.31740 -0.06393
v 0.00000 0.31740 -0.07740
v 0.06707 0.31740 0.01491
v 0.06707 0.31740 -0.02867
v -0.06707 0.31740 0.01491
v -0.06707 0.31740 -0.02867
v 0.00000 0.31740 0.06364
v -0.04145 0.31740 0.05017
v 0.04145 0.31740 0.05017
vn 0.3090 0.0000 -0.9511
vn 0.3090 0.0000 -0.9511
vn 0.3090 0.0000 -0.9511
vn 0.3090 0.0000 -0.9511
vn 0.8090 0.0000 -0.5878
vn 0.8090 0.0000 -0.5878
vn 0.8090 0.0000 -0.5878
vn 0.8090 0.0000 -0.5878
vn 1.0000 0.0000 -0.0000
vn 1.0000 0.0000 -0.0000
vn 1.0000 0.0000 -0.0000
vn 1.0000 0.0000 -0.0000
vn 0.8090 -0.0000 0.5878
vn 0.8090 -0.0000 0.5878
vn 0.8090 -0.0000 0.5878
vn 0.8090 -0.0000 0.5878
vn 0.3090 -0.0000 0.9511
vn 0.3090 -0.0000 0.9511
vn 0.3090 -0.0000 0.9511
vn 0.3090 -0.0000 0.9511
vn -0.3090 -0.0000 0.9511
vn -0.3090 -0.0000 0.9511
vn -0.3090 -0.0000 0.9511
vn -0.3090 -0.0000 0.9511
vn -0.8090 -0.0000 0.5878
vn -0.8090 -0.0000 0.5878
vn -0.8090 -0.0000 0.5878
vn -0.8090 -0.0000 0.5878
vn -1.0000 0.0000 -0.0000
vn -1.0000 0.0000 -0.0000
vn -1.0000 0.0000 -0.0000
vn -1.0000 0.0000 -0.0000
vn 0.0000 1.0000 -0.0000
vn 0.0000 1.0000 -0.0000
vn 0.0000 1.0000 -0.0000
vn 0.0000 1.0000 -0.0000
vn 0.0000 1.0000 -0.0000
vn 0.0000 1.0000 -0.0000
vn 0.0000 1.0000 -0.0000
vn 0.0000 1.0000 -0.0000
vn 0.0000 1.0000 -0.0000
vn 0.0000 1.0000 -0.0000
vn -0.8090 0.0000 -0.5878
vn -0.8090 0.0000 -0.5878
vn -0.8090 0.0000 -0.5878
vn -0.8090 0.0000 -0.5878
vn -0.3090 0.0000 -0.9511
vn -0.3090 0.0000 -0.9511
vn -0.3090 0.0000 -0.9511
vn -0.3090 0.0000 -0.9511
vn 0.0000 -1.0000 -0.0000
vn 0.0000 -1.0000 -0.0000
vn 0.0000 -1.0000 -0.0000
vn 0.0000 -1.0000 -0.0000
vn 0.0000 -1.0000 -0.0000
vn 0.0000 -1.0000 -0.0000
vn 0.0000 -1.0000 -0.0000
vn 0.0000 -1.0000 -0.0000
vn 0.0000 -1.0000 -0.0000
vn 0.0000 -1.0000 -0.0000
f 1268//1268 1270//1270 1269//1269
f 1268//1268 1269//1269 1271//1271
f 1272//1272 1274//1274 1273//1273
f 1272//1272 1273//1273 1275//1275
f 1276//1276 1278//1278 1277//1277
f 1276//1276 1277//1277 1279//1279
f 1280//1280 1282//1282 1281//1281
f 1280//1280 1281//1281 1283//1283
f 1284//1284 1286//1286 1285//1285
f 1284//1284 1285//1285 1287//1287
f 1288//1288 1290//1290 1289//1289
f 1288//1288 1289//1289 1291//1291
f 1292//1292 1294//1294 1293//1293
f 1292//1292 1293//1293 1295//1295
f 1296//1296 1298//1298 1297//1297
f 1296//1296 1297//1297 1299//1299
f 1300//1300 1302//1302 1301//1301
f 1300//1300 1301//1301 1303//1303
f 1301//1301 1304//1304 1303//1303
f 1303//1303 1305//1305 1300//1300
f 1305//1305 1306//1306 1300//1300
f 1303//1303 1307//1307 1305//1305
f 1307//1307 1308//1308 1305//1305
f 1303//1303 1309//1309 1307//1307
f 1310//1310 1312//1312 1311//1311
f 1310//1310 1311//1311 1313//1313
f 1314//1314 1316//1316 1315//1315
f 1314//1314 1315//1315 1317//1317
f 1318//1318 1320//1320 1319//1319
f 1318//1318 1319//1319 1321//1321
f 1319//1319 1322//1322 1321//1321
f 1321//1321 1323//1323 1318//1318
f 1323//1323 1324//1324 1318//1318
f 1321//1321 1325//1325 1323//1323
f 1325//1325 1326//1326 1323//1323
f 1321//1321 1327//1327 1325//1325
g body_blazon
usemtl blazon
v -0.07000 0.07250 0.07000
v 0.00400 0.23530 0.07000
v -0.14400 0.23530 0.07000
v -0.14400 0.23530 0.08400
v -0.07000 0.07250 0.08400
v -0.13808 0.13910 0.08400
v 0.00400 0.23530 0.08400
v -0.14400 0.23530 0.07000
v -0.13808 0.13910 0.08400
v -0.07000 0.07250 0.07000
v -0.07000 0.07250 0.08400
v -0.14400 0.23530 0.08400
v -0.07000 0.07250 0.07000
v 0.00400 0.23530 0.08400
v 0.00400 0.23530 0.07000
v -0.07000 0.07250 0.08400
v 0.00400 0.23530 0.07000
v -0.14400 0.23530 0.08400
v -0.14400 0.23530 0.07000
v 0.00400 0.23530 0.08400
v -0.12180 0.10728 0.07000
v -0.01820 0.10728 0.07000
v 0.00400 0.17610 0.07000
v -0.00192 0.13910 0.08400
v -0.04188 0.08508 0.08400
v -0.12180 0.10728 0.07000
v -0.04188 0.08508 0.08400
v -0.01820 0.10728 0.07000
v -0.00192 0.13910 0.08400
v 0.00400 0.17610 0.07000
v -0.14400 0.17610 0.07000
v -0.13808 0.13910 0.07000
v -0.00192 0.13910 0.07000
v -0.04188 0.08508 0.07000
v -0.09812 0.08508 0.07000
v -0.14400 0.17610 0.08400
v 0.00400 0.17610 0.08400
v -0.12180 0.10728 0.08400
v -0.09812 0.08508 0.08400
v -0.01820 0.10728 0.08400
v -0.14400 0.17610 0.08400
v -0.14400 0.17610 0.07000
v -0.14400 0.17610 0.07000
v -0.13808 0.13910 0.08400
v -0.13808 0.13910 0.07000
v -0.14400 0.17610 0.08400
v -0.13808 0.13910 0.07000
v -0.12180 0.10728 0.08400
v -0.12180 0.10728 0.07000
v -0.09812 0.08508 0.08400
v -0.09812 0.08508 0.07000
v -0.12180 0.10728 0.08400
v -0.09812 0.08508 0.07000
v -0.09812 0.08508 0.08400
v -0.04188 0.08508 0.07000
v -0.04188 0.08508 0.07000
v -0.01820 0.10728 0.08400
v -0.04188 0.08508 0.08400
v -0.01820 0.10728 0.07000
v -0.00192 0.13910 0.07000
v -0.01820 0.10728 0.08400
v -0.00192 0.13910 0.07000
v 0.00400 0.17610 0.08400
v -0.00192 0.13910 0.08400
v 0.00400 0.17610 0.07000
v 0.00400 0.17610 0.08400
vn 0.0000 0.0000 -1.0000
vn 0.0000 0.0000 -1.0000
vn 0.0000 0.0000 -1.0000
vn -0.0000 -0.0000 1.0000
vn -0.0000 -0.0000 1.0000
vn -0.0000 -0.0000 1.0000
vn -0.0000 -0.0000 1.0000
vn -1.0000 0.0000 -0.0000
vn -0.8902 -0.4555 -0.0000
vn -0.4084 -0.9128 -0.0001
vn -0.4084 -0.9128 -0.0001
vn -1.0000 0.0000 -0.0000
vn 0.4084 -0.9128 -0.0000
vn 1.0000 0.0000 -0.0000
vn 1.0000 0.0000 -0.0000
vn 0.4084 -0.9128 -0.0000
vn 0.0000 1.0000 -0.0000
vn 0.0000 1.0000 -0.0000
vn 0.0000 1.0000 -0.0000
vn 0.0000 1.0000 -0.0000
vn 0.0000 0.0000 -1.0000
vn 0.0000 0.0000 -1.0000
vn 0.0000 0.0000 -1.0000
vn -0.0000 -0.0000 1.0000
vn -0.0000 -0.0000 1.0000
vn -0.6839 -0.7295 -0.0000
vn 0.4084 -0.9128 -0.0000
vn 0.6839 -0.7296 0.0000
vn 0.8902 -0.4555 0.0000
vn 0.9874 -0.1580 0.0000
vn 0.0000 0.0000 -1.0000
vn 0.0000 0.0000 -1.0000
vn 0.0000 0.0000 -1.0000
vn 0.0000 0.0000 -1.0000
vn 0.0000 0.0000 -1.0000
vn -0.0000 -0.0000 1.0000
vn -0.0000 -0.0000 1.0000
vn -0.0000 -0.0000 1.0000
vn -0.0000 -0.0000 1.0000
vn -0.0000 -0.0000 1.0000
vn -1.0000 0.0000 -0.0000
vn -1.0000 0.0000 -0.0000
vn -0.9874 -0.1580 -0.0000
vn -0.9874 -0.1580 -0.0000
vn -0.9874 -0.1580 -0.0000
vn -0.9874 -0.1580 -0.0000
vn -0.8902 -0.4555 -0.0000
vn -0.8902 -0.4555 -0.0000
vn -0.8902 -0.4555 -0.0000
vn -0.6839 -0.7295 -0.0000
vn -0.6839 -0.7295 -0.0000
vn -0.6839 -0.7295 -0.0000
vn -0.4084 -0.9128 -0.0001
vn -0.4084 -0.9128 -0.0001
vn 0.4084 -0.9128 -0.0000
vn 0.6839 -0.7296 0.0000
vn 0.6839 -0.7296 0.0000
vn 0.6839 -0.7296 0.0000
vn 0.8902 -0.4555 0.0000
vn 0.8902 -0.4555 0.0000
vn 0.8902 -0.4555 0.0000
vn 0.9874 -0.1580 0.0000
vn 0.9874 -0.1580 0.0000
vn 0.9874 -0.1580 0.0000
vn 1.0000 0.0000 -0.0000
vn 1.0000 0.0000 -0.0000
f 1358//1358 1330//1330 1329//1329
f 1359//1359 1358//1358 1329//1329
f 1329//1329 1350//1350 1360//1360
f 1329//1329 1360//1360 1361//1361
f 1329//1329 1361//1361 1359//1359
f 1360//1360 1349//1349 1361//1361
f 1361//1361 1362//1362 1359//1359
f 1362//1362 1348//1348 1359//1359
f 1361//1361 1328//1328 1362//1362
f 1334//1334 1331//1331 1363//1363
f 1364//1364 1334//1334 1363//1363
f 1363//1363 1333//1333 1365//1365
f 1363//1363 1365//1365 1332//1332
f 1363//1363 1332//1332 1364//1364
f 1365//1365 1366//1366 1332//1332
f 1332//1332 1367//1367 1364//1364
f 1367//1367 1351//1351 1364//1364
f 1332//1332 1352//1352 1367//1367
f 1335//1335 1369//1369 1368//1368
f 1335//1335 1368//1368 1339//1339
f 1370//1370 1372//1372 1371//1371
f 1370//1370 1371//1371 1373//1373
f 1374//1374 1376//1376 1375//1375
f 1374//1374 1375//1375 1336//1336
f 1353//1353 1378//1378 1377//1377
f 1353//1353 1377//1377 1379//1379
f 1380//1380 1337//1337 1338//1338
f 1380//1380 1338//1338 1381//1381
f 1340//1340 1382//1382 1354//1354
f 1340//1340 1354//1354 1343//1343
f 1383//1383 1355//1355 1384//1384
f 1383//1383 1384//1384 1385//1385
f 1386//1386 1387//1387 1356//1356
f 1386//1386 1356//1356 1388//1388
f 1389//1389 1357//1357 1390//1390
f 1389//1389 1390//1390 1391//1391
f 1392//1392 1342//1342 1341//1341
f 1392//1392 1341//1341 1393//1393
f 1344//1344 1346//1346 1345//1345
f 1344//1344 1345//1345 1347//1347
o tool
g tool_wood
usemtl wood
v 0.10000 0.03000 0.02000
v 0.10866 0.43000 0.02500
v 0.10000 0.43000 0.02000
v 0.10866 0.03000 0.02500
v 0.10866 0.03000 0.02500
v 0.10866 0.43000 0.03500
v 0.10866 0.43000 0.02500
v 0.10866 0.03000 0.03500
v 0.10866 0.03000 0.03500
v 0.10000 0.43000 0.04000
v 0.10866 0.43000 0.03500
v 0.10000 0.03000 0.04000
v 0.10000 0.03000 0.04000
v 0.09134 0.43000 0.03500
v 0.10000 0.43000 0.04000
v 0.09134 0.03000 0.03500
v 0.10866 0.43000 0.03500
v 0.10000 0.43000 0.02000
v 0.10866 0.43000 0.02500
v 0.09134 0.43000 0.03500
v 0.10000 0.43000 0.04000
v 0.09134 0.43000 0.02500
v 0.09134 0.03000 0.03500
v 0.09134 0.43000 0.02500
v 0.09134 0.43000 0.03500
v 0.09134 0.03000 0.02500
v 0.09134 0.03000 0.02500
v 0.10000 0.43000 0.02000
v 0.09134 0.43000 0.02500
v 0.10000 0.03000 0.02000
v 0.09134 0.03000 0.02500
v 0.10866 0.03000 0.02500
v 0.10000 0.03000 0.02000
v 0.10000 0.03000 0.04000
v 0.09134 0.03000 0.03500
v 0.10866 0.03000 0.03500
vn 0.8581 -0.4592 0.2299
vn 0.8581 -0.4592 0.2299
vn 0.8581 -0.4592 0.2299
vn 0.8581 -0.4592 0.2299
vn 0.7071 -0.0000 0.7071
vn 0.7071 -0.0000 0.7071
vn 0.7071 -0.0000 0.7071
vn 0.7071 -0.0000 0.7071
vn 0.2563 -0.1372 0.9568
vn 0.2563 -0.1372 0.9568
vn 0.2563 -0.1372 0.9568
vn 0.2563 -0.1372 0.9568
vn -0.2330 0.4353 0.8696
vn -0.2330 0.4353 0.8696
vn -0.2330 0.4353 0.8696
vn -0.2330 0.4353 0.8696
vn -0.0000 0.7071 0.7071
vn -0.0000 0.7071 0.7071
vn -0.0000 0.7071 0.7071
vn -0.0000 0.7071 0.7071
vn -0.0000 0.7071 0.7071
vn -0.0000 0.7071 0.7071
vn 0.0000 1.0000 -0.0000
vn 0.0000 1.0000 -0.0000
vn 0.0000 1.0000 -0.0000
vn 0.0000 1.0000 -0.0000
vn -0.4681 0.8747 0.1254
vn -0.4681 0.8747 0.1254
vn -0.4681 0.8747 0.1254
vn -0.4681 0.8747 0.1254
vn -0.0000 -0.7071 0.7071
vn -0.0000 -0.7071 0.7071
vn -0.0000 -0.7071 0.7071
vn -0.0000 -0.7071 0.7071
vn -0.0000 -0.7071 0.7071
vn -0.0000 -0.7071 0.7071
f 1394//1394 1396//1396 1395//1395
f 1394//1394 1395//1395 1397//1397
f 1398//1398 1400//1400 1399//1399
f 1398//1398 1399//1399 1401//1401
f 1402//1402 1404//1404 1403//1403
f 1402//1402 1403//1403 1405//1405
f 1406//1406 1408//1408 1407//1407
f 1406//1406 1407//1407 1409//1409
f 1410//1410 1412//1412 1411//1411
f 1411//1411 1413//1413 1410//1410
f 1413//1413 1414//1414 1410//1410
f 1411//1411 1415//1415 1413//1413
f 1416//1416 1418//1418 1417//1417
f 1416//1416 1417//1417 1419//1419
f 1420//1420 1422//1422 1421//1421
f 1420//1420 1421//1421 1423//1423
f 1424//1424 1426//1426 1425//1425
f 1425//1425 1427//1427 1424//1424
f 1427//1427 1428//1428 1424//1424
f 1425//1425 1429//1429 1427//1427
g tool_metal
usemtl metal
v 0.10000 0.43000 0.03000
v 0.12400 0.43000 0.03000
v 0.10000 0.43000 0.00600
v 0.10000 0.43000 0.05400
v 0.07600 0.43000 0.03000
v 0.10000 0.43000 0.00600
v 0.12400 0.43000 0.03000
v 0.10000 0.50500 0.03000
v 0.12400 0.43000 0.03000
v 0.10000 0.43000 0.05400
v 0.10000 0.50500 0.03000
v 0.10000 0.43000 0.05400
v 0.07600 0.43000 0.03000
v 0.10000 0.50500 0.03000
v 0.07600 0.43000 0.03000
v 0.10000 0.43000 0.00600
v 0.10000 0.50500 0.03000
vn -0.0000 -0.7071 0.7071
vn -0.0000 -0.7071 0.7071
vn -0.0000 -0.7071 0.7071
vn -0.0000 -0.7071 0.7071
vn -0.0000 -0.7071 0.7071
vn 0.9134 -0.2168 0.3445
vn 0.9134 -0.2168 0.3445
vn 0.9134 -0.2168 0.3445
vn 0.4026 0.0283 0.9149
vn 0.4026 0.0283 0.9149
vn 0.4026 0.0283 0.9149
vn -0.0683 0.7351 0.6745
vn -0.0683 0.7351 0.6745
vn -0.0683 0.7351 0.6745
vn -0.3442 0.9027 0.2584
vn -0.3442 0.9027 0.2584
vn -0.3442 0.9027 0.2584
f 1430//1430 1432//1432 1431//1431
f 1430//1430 1431//1431 1433//1433
f 1430//1430 1434//1434 1432//1432
f 1430//1430 1433//1433 1434//1434
f 1435//1435 1437//1437 1436//1436
f 1438//1438 1440//1440 1439//1439
f 1441//1441 1443//1443 1442//1442
f 1444//1444 1446//1446 1445//1445
