mtllib watchtower.mtl
o core
g core_stone
usemtl stone
v -0.07459 0.05000 -0.00000
v -0.07809 0.04500 0.00462
v -0.07809 0.04500 -0.00462
v 0.05274 0.00000 0.05274
v 0.05195 0.00500 0.05848
v 0.05848 0.00500 0.05195
v -0.05274 0.00000 -0.05274
v -0.05195 0.00500 -0.05848
v -0.05848 0.00500 -0.05195
v 0.07459 0.05000 -0.00000
v 0.07809 0.04500 -0.00462
v 0.07809 0.04500 0.00462
v -0.05274 0.05000 0.05274
v -0.05195 0.04500 0.05848
v -0.05848 0.04500 0.05195
v 0.07459 0.00000 -0.00000
v 0.07809 0.00500 0.00462
v 0.07809 0.00500 -0.00462
v -0.05274 0.00000 0.05274
v -0.05848 0.00500 0.05195
v -0.05195 0.00500 0.05848
v 0.05274 0.05000 -0.05274
v 0.05195 0.04500 -0.05848
v 0.05848 0.04500 -0.05195
v -0.00000 0.05000 0.07459
v 0.00462 0.04500 0.07809
v -0.00462 0.04500 0.07809
v 0.05274 0.00000 -0.05274
v 0.05848 0.00500 -0.05195
v 0.05195 0.00500 -0.05848
v -0.00000 0.00000 0.07459
v -0.00462 0.00500 0.07809
v 0.00462 0.00500 0.07809
v -0.00000 0.05000 -0.07459
v -0.00462 0.04500 -0.07809
v 0.00462 0.04500 -0.07809
v -0.00000 0.00000 -0.07459
v 0.00462 0.00500 -0.07809
v -0.00462 0.00500 -0.07809
v -0.07459 0.00000 -0.00000
v -0.07809 0.00500 -0.00462
v -0.07809 0.00500 0.00462
v 0.05274 0.05000 0.05274
v 0.05848 0.04500 0.05195
v 0.05195 0.04500 0.05848
v -0.05274 0.05000 -0.05274
v -0.05848 0.04500 -0.05195
v -0.05195 0.04500 -0.05848
v 0.00462 0.00500 -0.07809
v 0.05274 0.00000 -0.05274
v 0.05195 0.00500 -0.05848
v -0.00000 0.00000 -0.07459
v 0.05195 0.04500 -0.05848
v -0.00000 0.05000 -0.07459
v 0.00462 0.04500 -0.07809
v 0.05274 0.05000 -0.05274
v -0.00462 0.00500 -0.07809
v 0.00462 0.04500 -0.07809
v -0.00462 0.04500 -0.07809
v 0.00462 0.00500 -0.07809
v 0.05848 0.04500 -0.05195
v 0.05195 0.00500 -0.05848
v 0.05848 0.00500 -0.05195
v 0.05195 0.04500 -0.05848
v 0.05848 0.00500 -0.05195
v 0.07459 0.00000 -0.00000
v 0.07809 0.00500 -0.00462
v 0.05274 0.00000 -0.05274
v 0.07809 0.04500 -0.00462
v 0.05274 0.05000 -0.05274
v 0.05848 0.04500 -0.05195
v 0.07459 0.05000 -0.00000
v 0.07809 0.04500 0.00462
v 0.07809 0.00500 -0.00462
v 0.07809 0.00500 0.00462
v 0.07809 0.04500 -0.00462
v 0.07809 0.00500 0.00462
v 0.05274 0.00000 0.05274
v 0.05848 0.00500 0.05195
v 0.07459 0.00000 -0.00000
v 0.05848 0.04500 0.05195
v 0.07459 0.05000 -0.00000
v 0.07809 0.04500 0.00462
v 0.05274 0.05000 0.05274
v 0.05195 0.04500 0.05848
v 0.05848 0.00500 0.05195
v 0.05195 0.00500 0.05848
v 0.05848 0.04500 0.05195
v 0.05195 0.00500 0.05848
v -0.00000 0.00000 0.07459
v 0.00462 0.00500 0.07809
v 0.05274 0.00000 0.05274
v 0.00462 0.04500 0.07809
v 0.05274 0.05000 0.05274
v 0.05195 0.04500 0.05848
v -0.00000 0.05000 0.07459
v -0.00462 0.04500 0.07809
v 0.00462 0.00500 0.07809
v -0.00462 0.00500 0.07809
v 0.00462 0.04500 0.07809
v -0.00462 0.00500 0.07809
v -0.05274 0.00000 0.05274
v -0.05195 0.00500 0.05848
v -0.00000 0.00000 0.07459
v -0.05195 0.04500 0.05848
v -0.00000 0.05000 0.07459
v -0.00462 0.04500 0.07809
v -0.05274 0.05000 0.05274
v -0.05848 0.04500 0.05195
v -0.05195 0.00500 0.05848
v -0.05848 0.00500 0.05195
v -0.05195 0.04500 0.05848
v -0.05848 0.00500 0.05195
v -0.07459 0.00000 -0.00000
v -0.07809 0.00500 0.00462
v -0.05274 0.00000 0.05274
v -0.07809 0.04500 0.00462
v -0.05274 0.05000 0.05274
v -0.05848 0.04500 0.05195
v -0.07459 0.05000 -0.00000
v -0.07809 0.04500 -0.00462
v -0.07809 0.00500 0.00462
v -0.07809 0.00500 -0.00462
v -0.07809 0.04500 0.00462
v -0.07809 0.00500 -0.00462
v -0.05274 0.00000 -0.05274
v -0.05848 0.00500 -0.05195
v -0.07459 0.00000 -0.00000
v -0.05848 0.04500 -0.05195
v -0.07459 0.05000 -0.00000
v -0.07809 0.04500 -0.00462
v -0.05274 0.05000 -0.05274
v -0.05195 0.04500 -0.05848
v -0.05848 0.00500 -0.05195
v -0.05195 0.00500 -0.05848
v -0.05848 0.04500 -0.05195
v -0.05195 0.00500 -0.05848
v -0.00000 0.00000 -0.07459
v -0.00462 0.00500 -0.07809
v -0.05274 0.00000 -0.05274
v -0.00462 0.04500 -0.07809
v -0.05274 0.05000 -0.05274
v -0.05195 0.04500 -0.05848
v -0.00000 0.05000 -0.07459
v -0.05274 0.00000 -0.05274
v 0.05274 0.00000 -0.05274
v -0.00000 0.00000 -0.07459
v 0.05274 0.00000 0.05274
v 0.07459 0.00000 -0.00000
v -0.05274 0.00000 0.05274
v -0.07459 0.00000 -0.00000
v -0.00000 0.00000 0.07459
v 0.00462 0.00500 -0.07809
v 0.05195 0.04500 -0.05848
v 0.00462 0.04500 -0.07809
v 0.05195 0.00500 -0.05848
v -0.05195 0.00500 -0.05848
v -0.00462 0.04500 -0.07809
v -0.05195 0.04500 -0.05848
v -0.00462 0.00500 -0.07809
v 0.07459 0.05000 -0.00000
v -0.00000 0.05000 -0.07459
v 0.05274 0.05000 -0.05274
v -0.07459 0.05000 -0.00000
v -0.05274 0.05000 -0.05274
v -0.00000 0.05000 0.07459
v 0.05274 0.05000 0.05274
v -0.05274 0.05000 0.05274
v 0.05848 0.00500 -0.05195
v 0.07809 0.04500 -0.00462
v 0.05848 0.04500 -0.05195
v 0.07809 0.00500 -0.00462
v 0.07809 0.00500 0.00462
v 0.05848 0.04500 0.05195
v 0.07809 0.04500 0.00462
v 0.05848 0.00500 0.05195
v 0.05195 0.00500 0.05848
v 0.00462 0.04500 0.07809
v 0.05195 0.04500 0.05848
v 0.00462 0.00500 0.07809
v -0.00462 0.00500 0.07809
v -0.05195 0.04500 0.05848
v -0.00462 0.04500 0.07809
v -0.05195 0.00500 0.05848
v -0.05848 0.00500 0.05195
v -0.07809 0.04500 0.00462
v -0.05848 0.04500 0.05195
v -0.07809 0.00500 0.00462
v -0.07809 0.00500 -0.00462
v -0.05848 0.04500 -0.05195
v -0.07809 0.04500 -0.00462
v -0.05848 0.00500 -0.05195
vn -0.0410 0.8519 0.5221
vn -0.0410 0.8519 0.5221
vn -0.0410 0.8519 0.5221
vn 0.1888 -0.4497 0.8730
vn 0.1888 -0.4497 0.8730
vn 0.1888 -0.4497 0.8730
vn -0.1258 0.9464 -0.2974
vn -0.1258 0.9464 -0.2974
vn -0.1258 0.9464 -0.2974
vn -0.5595 -0.4330 -0.7067
vn -0.5595 -0.4330 -0.7067
vn -0.5595 -0.4330 -0.7067
vn 0.0839 0.6432 0.7611
vn 0.0839 0.6432 0.7611
vn 0.0839 0.6432 0.7611
vn 0.5595 -0.4331 0.7067
vn 0.5595 -0.4331 0.7067
vn 0.5595 -0.4331 0.7067
vn -0.7663 0.5931 0.2472
vn -0.7663 0.5931 0.2472
vn -0.7663 0.5931 0.2472
vn 0.9453 -0.1256 0.3012
vn 0.9453 -0.1256 0.3012
vn 0.9453 -0.1256 0.3012
vn 0.1992 0.2945 0.9347
vn 0.1992 0.2945 0.9347
vn 0.1992 0.2945 0.9347
vn -0.7085 0.5390 -0.4556
vn -0.7085 0.5390 -0.4556
vn -0.7085 0.5390 -0.4556
vn -0.1992 -0.2946 0.9346
vn -0.1992 -0.2946 0.9346
vn -0.1992 -0.2946 0.9346
vn 0.5420 -0.8015 -0.2526
vn 0.5420 -0.8015 -0.2526
vn 0.5420 -0.8015 -0.2526
vn -0.5421 0.8015 -0.2526
vn -0.5421 0.8015 -0.2526
vn -0.5421 0.8015 -0.2526
vn 0.0411 0.8519 -0.5220
vn 0.0411 0.8519 -0.5220
vn 0.0411 0.8519 -0.5220
vn 0.3681 0.2787 0.8870
vn 0.3681 0.2787 0.8870
vn 0.3681 0.2787 0.8870
vn -0.3459 0.8341 0.4297
vn -0.3459 0.8341 0.4297
vn -0.3459 0.8341 0.4297
vn -0.5539 0.7289 -0.4024
vn -0.5539 0.7289 -0.4024
vn -0.5539 0.7289 -0.4024
vn -0.5539 0.7289 -0.4024
vn 0.3717 -0.8740 -0.3130
vn 0.3717 -0.8740 -0.3130
vn 0.3717 -0.8740 -0.3130
vn 0.3717 -0.8740 -0.3130
vn -0.7071 0.7071 -0.0000
vn -0.7071 0.7071 -0.0000
vn -0.7071 0.7071 -0.0000
vn -0.7071 0.7071 -0.0000
vn 0.8864 -0.2818 0.3672
vn 0.8864 -0.2818 0.3672
vn 0.8864 -0.2818 0.3672
vn 0.8864 -0.2818 0.3672
vn -0.5621 0.5654 -0.6036
vn -0.5621 0.5654 -0.6036
vn -0.5621 0.5654 -0.6036
vn -0.5621 0.5654 -0.6036
vn -0.4517 -0.6604 -0.5999
vn -0.4517 -0.6604 -0.5999
vn -0.4517 -0.6604 -0.5999
vn -0.4517 -0.6604 -0.5999
vn 0.7071 -0.0000 0.7071
vn 0.7071 -0.0000 0.7071
vn 0.7071 -0.0000 0.7071
vn 0.7071 -0.0000 0.7071
vn 0.3008 -0.5359 0.7889
vn 0.3008 -0.5359 0.7889
vn 0.3008 -0.5359 0.7889
vn 0.3008 -0.5359 0.7889
vn -0.3998 -0.4527 -0.7970
vn -0.3998 -0.4527 -0.7970
vn -0.3998 -0.4527 -0.7970
vn -0.3998 -0.4527 -0.7970
vn 0.3799 -0.1208 0.9171
vn 0.3799 -0.1208 0.9171
vn 0.3799 -0.1208 0.9171
vn 0.3799 -0.1208 0.9171
vn -0.0400 -0.4522 0.8910
vn -0.0400 -0.4522 0.8910
vn -0.0400 -0.4522 0.8910
vn -0.0400 -0.4522 0.8910
vn 0.2559 0.3448 0.9031
vn 0.2559 0.3448 0.9031
vn 0.2559 0.3448 0.9031
vn 0.2559 0.3448 0.9031
vn -0.0000 -0.0000 1.0000
vn -0.0000 -0.0000 1.0000
vn -0.0000 -0.0000 1.0000
vn -0.0000 -0.0000 1.0000
vn -0.3094 -0.3206 0.8952
vn -0.3094 -0.3206 0.8952
vn -0.3094 -0.3206 0.8952
vn -0.3094 -0.3206 0.8952
vn 0.1398 0.4785 0.8669
vn 0.1398 0.4785 0.8669
vn 0.1398 0.4785 0.8669
vn 0.1398 0.4785 0.8669
vn -0.2445 0.7693 0.5903
vn -0.2445 0.7693 0.5903
vn -0.2445 0.7693 0.5903
vn -0.2445 0.7693 0.5903
vn 0.0984 0.6691 -0.7366
vn 0.0984 0.6691 -0.7366
vn 0.0984 0.6691 -0.7366
vn 0.0984 0.6691 -0.7366
vn 0.0266 0.7295 0.6834
vn 0.0266 0.7295 0.6834
vn 0.0266 0.7295 0.6834
vn 0.0266 0.7295 0.6834
vn 0.0000 1.0000 -0.0000
vn 0.0000 1.0000 -0.0000
vn 0.0000 1.0000 -0.0000
vn 0.0000 1.0000 -0.0000
vn 0.0195 0.8693 -0.4938
vn 0.0195 0.8693 -0.4938
vn 0.0195 0.8693 -0.4938
vn 0.0195 0.8693 -0.4938
vn -0.1938 0.8115 0.5513
vn -0.1938 0.8115 0.5513
vn -0.1938 0.8115 0.5513
vn -0.1938 0.8115 0.5513
vn -0.3006 0.9456 0.1245
vn -0.3006 0.9456 0.1245
vn -0.3006 0.9456 0.1245
vn -0.3006 0.9456 0.1245
vn -0.2530 0.9038 -0.3452
vn -0.2530 0.9038 -0.3452
vn -0.2530 0.9038 -0.3452
vn -0.2530 0.9038 -0.3452
vn 0.3987 -0.8178 -0.4150
vn 0.3987 -0.8178 -0.4150
vn 0.3987 -0.8178 -0.4150
vn 0.3987 -0.8178 -0.4150
vn -0.0000 -0.7071 0.7071
vn -0.0000 -0.7071 0.7071
vn -0.0000 -0.7071 0.7071
vn -0.0000 -0.7071 0.7071
vn -0.0000 -0.7071 0.7071
vn -0.0000 -0.7071 0.7071
vn -0.0000 -0.7071 0.7071
vn -0.0000 -0.7071 0.7071
vn 0.8279 -0.5362 0.1647
vn 0.8279 -0.5362 0.1647
vn 0.8279 -0.5362 0.1647
vn 0.8279 -0.5362 0.1647
vn -0.5404 0.8345 0.1075
vn -0.5404 0.8345 0.1075
vn -0.5404 0.8345 0.1075
vn -0.5404 0.8345 0.1075
vn -0.0000 0.7071 0.7071
vn -0.0000 0.7071 0.7071
vn -0.0000 0.7071 0.7071
vn -0.0000 0.7071 0.7071
vn -0.0000 0.7071 0.7071
vn -0.0000 0.7071 0.7071
vn -0.0000 0.7071 0.7071
vn -0.0000 0.7071 0.7071
vn 0.8297 -0.0654 0.5544
vn 0.8297 -0.0654 0.5544
vn 0.8297 -0.0654 0.5544
vn 0.8297 -0.0654 0.5544
vn 0.5550 -0.0437 0.8307
vn 0.5550 -0.0437 0.8307
vn 0.5550 -0.0437 0.8307
vn 0.5550 -0.0437 0.8307
vn 0.1935 -0.1254 0.9731
vn 0.1935 -0.1254 0.9731
vn 0.1935 -0.1254 0.9731
vn 0.1935 -0.1254 0.9731
vn -0.1868 0.2884 0.9391
vn -0.1868 0.2884 0.9391
vn -0.1868 0.2884 0.9391
vn -0.1868 0.2884 0.9391
vn -0.0780 0.9901 0.1167
vn -0.0780 0.9901 0.1167
vn -0.0780 0.9901 0.1167
vn -0.0780 0.9901 0.1167
vn -0.0784 0.9955 0.0524
vn -0.0784 0.9955 0.0524
vn -0.0784 0.9955 0.0524
vn -0.0784 0.9955 0.0524
f 1//1 3//3 2//2
f 4//4 6//6 5//5
f 7//7 9//9 8//8
f 10//10 12//12 11//11
f 13//13 15//15 14//14
f 16//16 18//18 17//17
f 19//19 21//21 20//20
f 22//22 24//24 23//23
f 25//25 27//27 26//26
f 28//28 30//30 29//29
f 31//31 33//33 32//32
f 34//34 36//36 35//35
f 37//37 39//39 38//38
f 40//40 42//42 41//41
f 43//43 45//45 44//44
f 46//46 48//48 47//47
f 49//49 51//51 50//50
f 49//49 50//50 52//52
f 53//53 55//55 54//54
f 53//53 54//54 56//56
f 57//57 59//59 58//58
f 57//57 58//58 60//60
f 61//61 63//63 62//62
f 61//61 62//62 64//64
f 65//65 67//67 66//66
f 65//65 66//66 68//68
f 69//69 71//71 70//70
f 69//69 70//70 72//72
f 73//73 75//75 74//74
f 73//73 74//74 76//76
f 77//77 79//79 78//78
f 77//77 78//78 80//80
f 81//81 83//83 82//82
f 81//81 82//82 84//84
f 85//85 87//87 86//86
f 85//85 86//86 88//88
f 89//89 91//91 90//90
f 89//89 90//90 92//92
f 93//93 95//95 94//94
f 93//93 94//94 96//96
f 97//97 99//99 98//98
f 97//97 98//98 100//100
f 101//101 103//103 102//102
f 101//101 102//102 104//104
f 105//105 107//107 106//106
f 105//105 106//106 108//108
f 109//109 111//111 110//110
f 109//109 110//110 112//112
f 113//113 115//115 114//114
f 113//113 114//114 116//116
f 117//117 119//119 118//118
f 117//117 118//118 120//120
f 121//121 123//123 122//122
f 121//121 122//122 124//124
f 125//125 127//127 126//126
f 125//125 126//126 128//128
f 129//129 131//131 130//130
f 129//129 130//130 132//132
f 133//133 135//135 134//134
f 133//133 134//134 136//136
f 137//137 139//139 138//138
f 137//137 138//138 140//140
f 141//141 143//143 142//142
f 141//141 142//142 144//144
f 145//145 147//147 146//146
f 145//145 146//146 148//148
f 146//146 149//149 148//148
f 148//148 150//150 145//145
f 150//150 151//151 145//145
f 148//148 152//152 150//150
f 153//153 155//155 154//154
f 153//153 154//154 156//156
f 157//157 159//159 158//158
f 157//157 158//158 160//160
f 161//161 163//163 162//162
f 161//161 162//162 164//164
f 162//162 165//165 164//164
f 164//164 166//166 161//161
f 166//166 167//167 161//161
f 164//164 168//168 166//166
f 169//169 171//171 170//170
f 169//169 170//170 172//172
f 173//173 175//175 174//174
f 173//173 174//174 176//176
f 177//177 179//179 178//178
f 177//177 178//178 180//180
f 181//181 183//183 182//182
f 181//181 182//182 184//184
f 185//185 187//187 186//186
f 185//185 186//186 188//188
f 189//189 191//191 190//190
f 189//189 190//190 192//192
g core_wood
usemtl wood
v 0.03112 0.04954 -0.04244
v 0.02969 0.36046 -0.04100
v 0.01839 0.35953 -0.02971
v 0.04242 0.05046 -0.05373
v 0.04242 0.05046 -0.05373
v 0.04100 0.36046 -0.02969
v 0.02969 0.36046 -0.04100
v 0.05373 0.05046 -0.04242
v 0.05373 0.05046 -0.04242
v 0.02971 0.35953 -0.01840
v 0.04100 0.36046 -0.02969
v 0.04243 0.04954 -0.03112
v 0.04243 0.04954 -0.03112
v 0.01839 0.35953 -0.02971
v 0.02971 0.35953 -0.01840
v 0.03112 0.04954 -0.04244
v 0.04242 0.05046 -0.05373
v 0.04243 0.04954 -0.03112
v 0.05373 0.05046 -0.04242
v 0.03112 0.04954 -0.04244
v 0.04100 0.36046 -0.02969
v 0.01839 0.35953 -0.02971
v 0.02969 0.36046 -0.04100
v 0.02971 0.35953 -0.01840
v -0.04244 0.04954 -0.03112
v -0.04100 0.36046 -0.02969
v -0.02971 0.35953 -0.01840
v -0.05373 0.05046 -0.04242
v -0.05373 0.05046 -0.04242
v -0.02969 0.36046 -0.04100
v -0.04100 0.36046 -0.02969
v -0.04242 0.05046 -0.05373
v -0.04242 0.05046 -0.05373
v -0.01840 0.35953 -0.02971
v -0.02969 0.36046 -0.04100
v -0.03112 0.04954 -0.04244
v -0.03112 0.04954 -0.04244
v -0.02971 0.35953 -0.01840
v -0.01840 0.35953 -0.02971
v -0.04244 0.04954 -0.03112
v -0.05373 0.05046 -0.04242
v -0.03112 0.04954 -0.04244
v -0.04242 0.05046 -0.05373
v -0.04244 0.04954 -0.03112
v -0.02969 0.36046 -0.04100
v -0.02971 0.35953 -0.01840
v -0.04100 0.36046 -0.02969
v -0.01840 0.35953 -0.02971
v -0.03112 0.04954 0.04243
v -0.02969 0.36046 0.04100
v -0.01840 0.35953 0.02971
v -0.04242 0.05046 0.05373
v -0.04242 0.05046 0.05373
v -0.04100 0.36046 0.02969
v -0.02969 0.36046 0.04100
v -0.05373 0.05046 0.04242
v -0.05373 0.05046 0.04242
v -0.02971 0.35953 0.01839
v -0.04100 0.36046 0.02969
v -0.04244 0.04954 0.03112
v -0.04244 0.04954 0.03112
v -0.01840 0.35953 0.02971
v -0.02971 0.35953 0.01839
v -0.03112 0.04954 0.04243
v -0.04242 0.05046 0.05373
v -0.04244 0.04954 0.03112
v -0.05373 0.05046 0.04242
v -0.03112 0.04954 0.04243
v -0.04100 0.36046 0.02969
v -0.01840 0.35953 0.02971
v -0.02969 0.36046 0.04100
v -0.02971 0.35953 0.01839
v 0.04243 0.04954 0.03112
v 0.04100 0.36046 0.02969
v 0.02971 0.35953 0.01839
v 0.05373 0.05046 0.04242
v 0.05373 0.05046 0.04242
v 0.02969 0.36046 0.04100
v 0.04100 0.36046 0.02969
v 0.04242 0.05046 0.05373
v 0.04242 0.05046 0.05373
v 0.01839 0.35953 0.02971
v 0.02969 0.36046 0.04100
v 0.03112 0.04954 0.04243
v 0.03112 0.04954 0.04243
v 0.02971 0.35953 0.01839
v 0.01839 0.35953 0.02971
v 0.04243 0.04954 0.03112
v 0.05373 0.05046 0.04242
v 0.03112 0.04954 0.04243
v 0.04242 0.05046 0.05373
v 0.04243 0.04954 0.03112
v 0.02969 0.36046 0.04100
v 0.02971 0.35953 0.01839
v 0.04100 0.36046 0.02969
v 0.01839 0.35953 0.02971
vn -0.3006 0.9456 0.1245
vn -0.3006 0.9456 0.1245
vn -0.3006 0.9456 0.1245
vn -0.3006 0.9456 0.1245
vn 0.8944 -0.2637 0.3612
vn 0.8944 -0.2637 0.3612
vn 0.8944 -0.2637 0.3612
vn 0.8944 -0.2637 0.3612
vn 0.3799 -0.1208 0.9171
vn 0.3799 -0.1208 0.9171
vn 0.3799 -0.1208 0.9171
vn 0.3799 -0.1208 0.9171
vn -0.2979 0.7710 0.5629
vn -0.2979 0.7710 0.5629
vn -0.2979 0.7710 0.5629
vn -0.2979 0.7710 0.5629
vn -0.0303 0.7208 -0.6924
vn -0.0303 0.7208 -0.6924
vn -0.0303 0.7208 -0.6924
vn -0.0303 0.7208 -0.6924
vn 0.0006 0.6927 0.7212
vn 0.0006 0.6927 0.7212
vn 0.0006 0.6927 0.7212
vn 0.0006 0.6927 0.7212
vn -0.2445 0.7693 0.5903
vn -0.2445 0.7693 0.5903
vn -0.2445 0.7693 0.5903
vn -0.2445 0.7693 0.5903
vn -0.3144 0.9354 0.1619
vn -0.3144 0.9354 0.1619
vn -0.3144 0.9354 0.1619
vn -0.3144 0.9354 0.1619
vn 0.8864 -0.2818 0.3672
vn 0.8864 -0.2818 0.3672
vn 0.8864 -0.2818 0.3672
vn 0.8864 -0.2818 0.3672
vn 0.3686 -0.1586 0.9160
vn 0.3686 -0.1586 0.9160
vn 0.3686 -0.1586 0.9160
vn 0.3686 -0.1586 0.9160
vn -0.0006 0.7218 -0.6921
vn -0.0006 0.7218 -0.6921
vn -0.0006 0.7218 -0.6921
vn -0.0006 0.7218 -0.6921
vn 0.0290 0.6918 0.7215
vn 0.0290 0.6918 0.7215
vn 0.0290 0.6918 0.7215
vn 0.0290 0.6918 0.7215
vn 0.3799 -0.1208 0.9171
vn 0.3799 -0.1208 0.9171
vn 0.3799 -0.1208 0.9171
vn 0.3799 -0.1208 0.9171
vn -0.1936 0.7641 0.6154
vn -0.1936 0.7641 0.6154
vn -0.1936 0.7641 0.6154
vn -0.1936 0.7641 0.6154
vn -0.3006 0.9456 0.1245
vn -0.3006 0.9456 0.1245
vn -0.3006 0.9456 0.1245
vn -0.3006 0.9456 0.1245
vn 0.8776 -0.3007 0.3734
vn 0.8776 -0.3007 0.3734
vn 0.8776 -0.3007 0.3734
vn 0.8776 -0.3007 0.3734
vn 0.0279 0.6920 -0.7214
vn 0.0279 0.6920 -0.7214
vn 0.0279 0.6920 -0.7214
vn 0.0279 0.6920 -0.7214
vn -0.0006 -0.7217 -0.6922
vn -0.0006 -0.7217 -0.6922
vn -0.0006 -0.7217 -0.6922
vn -0.0006 -0.7217 -0.6922
vn 0.8864 -0.2818 0.3672
vn 0.8864 -0.2818 0.3672
vn 0.8864 -0.2818 0.3672
vn 0.8864 -0.2818 0.3672
vn 0.3890 -0.0823 0.9176
vn 0.3890 -0.0823 0.9176
vn 0.3890 -0.0823 0.9176
vn 0.3890 -0.0823 0.9176
vn -0.2445 0.7693 0.5903
vn -0.2445 0.7693 0.5903
vn -0.2445 0.7693 0.5903
vn -0.2445 0.7693 0.5903
vn -0.2853 0.9546 0.0856
vn -0.2853 0.9546 0.0856
vn -0.2853 0.9546 0.0856
vn -0.2853 0.9546 0.0856
vn 0.0006 -0.6927 0.7212
vn 0.0006 -0.6927 0.7212
vn 0.0006 -0.6927 0.7212
vn 0.0006 -0.6927 0.7212
vn -0.0290 0.7208 0.6925
vn -0.0290 0.7208 0.6925
vn -0.0290 0.7208 0.6925
vn -0.0290 0.7208 0.6925
f 193//193 195//195 194//194
f 193//193 194//194 196//196
f 197//197 199//199 198//198
f 197//197 198//198 200//200
f 201//201 203//203 202//202
f 201//201 202//202 204//204
f 205//205 207//207 206//206
f 205//205 206//206 208//208
f 209//209 211//211 210//210
f 209//209 210//210 212//212
f 213//213 215//215 214//214
f 213//213 214//214 216//216
f 217//217 219//219 218//218
f 217//217 218//218 220//220
f 221//221 223//223 222//222
f 221//221 222//222 224//224
f 225//225 227//227 226//226
f 225//225 226//226 228//228
f 229//229 231//231 230//230
f 229//229 230//230 232//232
f 233//233 235//235 234//234
f 233//233 234//234 236//236
f 237//237 239//239 238//238
f 237//237 238//238 240//240
f 241//241 243//243 242//242
f 241//241 242//242 244//244
f 245//245 247//247 246//246
f 245//245 246//246 248//248
f 249//249 251//251 250//250
f 249//249 250//250 252//252
f 253//253 255//255 254//254
f 253//253 254//254 256//256
f 257//257 259//259 258//258
f 257//257 258//258 260//260
f 261//261 263//263 262//262
f 261//261 262//262 264//264
f 265//265 267//267 266//266
f 265//265 266//266 268//268
f 269//269 271//271 270//270
f 269//269 270//270 272//272
f 273//273 275//275 274//274
f 273//273 274//274 276//276
f 277//277 279//279 278//278
f 277//277 278//278 280//280
f 281//281 283//283 282//282
f 281//281 282//282 284//284
f 285//285 287//287 286//286
f 285//285 286//286 288//288
g core_wood_dark
usemtl wood_dark
v -0.05000 0.43999 -0.05800
v -0.04307 0.58000 -0.05400
v -0.05000 0.58000 -0.05800
v -0.04307 0.43999 -0.05400
v -0.04307 0.43999 -0.05400
v -0.04307 0.58000 -0.04600
v -0.04307 0.58000 -0.05400
v -0.04307 0.43999 -0.04600
v -0.04307 0.43999 -0.04600
v -0.05000 0.58000 -0.04200
v -0.04307 0.58000 -0.04600
v -0.05000 0.43999 -0.04200
v -0.05000 0.43999 -0.04200
v -0.05693 0.58000 -0.04600
v -0.05000 0.58000 -0.04200
v -0.05693 0.43999 -0.04600
v -0.04307 0.58000 -0.04600
v -0.05000 0.58000 -0.05800
v -0.04307 0.58000 -0.05400
v -0.05693 0.58000 -0.04600
v -0.05000 0.58000 -0.04200
v -0.05693 0.58000 -0.05400
v -0.05693 0.43999 -0.04600
v -0.05693 0.58000 -0.05400
v -0.05693 0.58000 -0.04600
v -0.05693 0.43999 -0.05400
v -0.05693 0.43999 -0.05400
v -0.05000 0.58000 -0.05800
v -0.05693 0.58000 -0.05400
v -0.05000 0.43999 -0.05800
v -0.05693 0.43999 -0.05400
v -0.04307 0.43999 -0.05400
v -0.05000 0.43999 -0.05800
v -0.05000 0.43999 -0.04200
v -0.05693 0.43999 -0.04600
v -0.04307 0.43999 -0.04600
v 0.03535 0.13600 -0.03936
v -0.03536 0.14399 -0.03936
v -0.03536 0.13600 -0.03936
v 0.03535 0.14399 -0.03936
v 0.03535 0.14399 -0.03936
v -0.03536 0.14399 -0.03136
v -0.03536 0.14399 -0.03936
v 0.03535 0.14399 -0.03136
v 0.03535 0.14399 -0.03136
v -0.03536 0.13600 -0.03136
v -0.03536 0.14399 -0.03136
v 0.03535 0.13600 -0.03136
v 0.03535 0.13600 -0.03136
v -0.03536 0.13600 -0.03936
v -0.03536 0.13600 -0.03136
v 0.03535 0.13600 -0.03936
v 0.03535 0.14399 -0.03936
v 0.03535 0.13600 -0.03136
v 0.03535 0.14399 -0.03136
v 0.03535 0.13600 -0.03936
v -0.03536 0.14399 -0.03136
v -0.03536 0.13600 -0.03936
v -0.03536 0.14399 -0.03936
v -0.03536 0.13600 -0.03136
v -0.03936 0.13600 -0.03536
v -0.03936 0.14399 0.03535
v -0.03936 0.13600 0.03535
v -0.03936 0.14399 -0.03536
v -0.03936 0.14399 -0.03536
v -0.03136 0.14399 0.03535
v -0.03936 0.14399 0.03535
v -0.03136 0.14399 -0.03536
v -0.03136 0.14399 -0.03536
v -0.03136 0.13600 0.03535
v -0.03136 0.14399 0.03535
v -0.03136 0.13600 -0.03536
v -0.03136 0.13600 -0.03536
v -0.03936 0.13600 0.03535
v -0.03136 0.13600 0.03535
v -0.03936 0.13600 -0.03536
v -0.03936 0.14399 -0.03536
v -0.03136 0.13600 -0.03536
v -0.03136 0.14399 -0.03536
v -0.03936 0.13600 -0.03536
v -0.03136 0.14399 0.03535
v -0.03936 0.13600 0.03535
v -0.03936 0.14399 0.03535
v -0.03136 0.13600 0.03535
v -0.03536 0.13600 0.03935
v 0.03535 0.14399 0.03935
v 0.03535 0.13600 0.03935
v -0.03536 0.14399 0.03935
v -0.03536 0.14399 0.03935
v 0.03535 0.14399 0.03135
v 0.03535 0.14399 0.03935
v -0.03536 0.14399 0.03135
v -0.03536 0.14399 0.03135
v 0.03535 0.13600 0.03135
v 0.03535 0.14399 0.03135
v -0.03536 0.13600 0.03135
v -0.03536 0.13600 0.03135
v 0.03535 0.13600 0.03935
v 0.03535 0.13600 0.03135
v -0.03536 0.13600 0.03935
v -0.03536 0.14399 0.03935
v -0.03536 0.13600 0.03135
v -0.03536 0.14399 0.03135
v -0.03536 0.13600 0.03935
v 0.03535 0.14399 0.03135
v 0.03535 0.13600 0.03935
v 0.03535 0.14399 0.03935
v 0.03535 0.13600 0.03135
v 0.03935 0.13600 0.03535
v 0.03935 0.14399 -0.03536
v 0.03935 0.13600 -0.03536
v 0.03935 0.14399 0.03535
v 0.03935 0.14399 0.03535
v 0.03135 0.14399 -0.03536
v 0.03935 0.14399 -0.03536
v 0.03135 0.14399 0.03535
v 0.03135 0.14399 0.03535
v 0.03135 0.13600 -0.03536
v 0.03135 0.14399 -0.03536
v 0.03135 0.13600 0.03535
v 0.03135 0.13600 0.03535
v 0.03935 0.13600 -0.03536
v 0.03135 0.13600 -0.03536
v 0.03935 0.13600 0.03535
v 0.03935 0.14399 0.03535
v 0.03135 0.13600 0.03535
v 0.03135 0.14399 0.03535
v 0.03935 0.13600 0.03535
v 0.03135 0.14399 -0.03536
v 0.03935 0.13600 -0.03536
v 0.03935 0.14399 -0.03536
v 0.03135 0.13600 -0.03536
v 0.03535 0.23600 -0.03936
v -0.03536 0.24399 -0.03936
v -0.03536 0.23600 -0.03936
v 0.03535 0.24399 -0.03936
v 0.03535 0.24399 -0.03936
v -0.03536 0.24399 -0.03136
v -0.03536 0.24399 -0.03936
v 0.03535 0.24399 -0.03136
v 0.03535 0.24399 -0.03136
v -0.03536 0.23600 -0.03136
v -0.03536 0.24399 -0.03136
v 0.03535 0.23600 -0.03136
v 0.03535 0.23600 -0.03136
v -0.03536 0.23600 -0.03936
v -0.03536 0.23600 -0.03136
v 0.03535 0.23600 -0.03936
v 0.03535 0.24399 -0.03936
v 0.03535 0.23600 -0.03136
v 0.03535 0.24399 -0.03136
v 0.03535 0.23600 -0.03936
v -0.03536 0.24399 -0.03136
v -0.03536 0.23600 -0.03936
v -0.03536 0.24399 -0.03936
v -0.03536 0.23600 -0.03136
v -0.03936 0.23600 -0.03536
v -0.03936 0.24399 0.03535
v -0.03936 0.23600 0.03535
v -0.03936 0.24399 -0.03536
v -0.03936 0.24399 -0.03536
v -0.03136 0.24399 0.03535
v -0.03936 0.24399 0.03535
v -0.03136 0.24399 -0.03536
v -0.03136 0.24399 -0.03536
v -0.03136 0.23600 0.03535
v -0.03136 0.24399 0.03535
v -0.03136 0.23600 -0.03536
v -0.03136 0.23600 -0.03536
v -0.03936 0.23600 0.03535
v -0.03136 0.23600 0.03535
v -0.03936 0.23600 -0.03536
v -0.03936 0.24399 -0.03536
v -0.03136 0.23600 -0.03536
v -0.03136 0.24399 -0.03536
v -0.03936 0.23600 -0.03536
v -0.03136 0.24399 0.03535
v -0.03936 0.23600 0.03535
v -0.03936 0.24399 0.03535
v -0.03136 0.23600 0.03535
v -0.03536 0.23600 0.03935
v 0.03535 0.24399 0.03935
v 0.03535 0.23600 0.03935
v -0.03536 0.24399 0.03935
v -0.03536 0.24399 0.03935
v 0.03535 0.24399 0.03135
v 0.03535 0.24399 0.03935
v -0.03536 0.24399 0.03135
v -0.03536 0.24399 0.03135
v 0.03535 0.23600 0.03135
v 0.03535 0.24399 0.03135
v -0.03536 0.23600 0.03135
v -0.03536 0.23600 0.03135
v 0.03535 0.23600 0.03935
v 0.03535 0.23600 0.03135
v -0.03536 0.23600 0.03935
v -0.03536 0.24399 0.03935
v -0.03536 0.23600 0.03135
v -0.03536 0.24399 0.03135
v -0.03536 0.23600 0.03935
v 0.03535 0.24399 0.03135
v 0.03535 0.23600 0.03935
v 0.03535 0.24399 0.03935
v 0.03535 0.23600 0.03135
v 0.03935 0.23600 0.03535
v 0.03935 0.24399 -0.03536
v 0.03935 0.23600 -0.03536
v 0.03935 0.24399 0.03535
v 0.03935 0.24399 0.03535
v 0.03135 0.24399 -0.03536
v 0.03935 0.24399 -0.03536
v 0.03135 0.24399 0.03535
v 0.03135 0.24399 0.03535
v 0.03135 0.23600 -0.03536
v 0.03135 0.24399 -0.03536
v 0.03135 0.23600 0.03535
v 0.03135 0.23600 0.03535
v 0.03935 0.23600 -0.03536
v 0.03135 0.23600 -0.03536
v 0.03935 0.23600 0.03535
v 0.03935 0.24399 0.03535
v 0.03135 0.23600 0.03535
v 0.03135 0.24399 0.03535
v 0.03935 0.23600 0.03535
v 0.03135 0.24399 -0.03536
v 0.03935 0.23600 -0.03536
v 0.03935 0.24399 -0.03536
v 0.03135 0.23600 -0.03536
v 0.03742 0.37500 -0.03743
v 0.03742 0.44499 -0.04743
v 0.03742 0.44499 -0.03743
v 0.03742 0.37500 -0.04743
v 0.03742 0.37500 -0.04743
v 0.04743 0.44499 -0.04743
v 0.03742 0.44499 -0.04743
v 0.04743 0.37500 -0.04743
v 0.04743 0.37500 -0.04743
v 0.04743 0.44499 -0.03743
v 0.04743 0.44499 -0.04743
v 0.04743 0.37500 -0.03743
v 0.04743 0.37500 -0.03743
v 0.03742 0.44499 -0.03743
v 0.04743 0.44499 -0.03743
v 0.03742 0.37500 -0.03743
v 0.03742 0.37500 -0.04743
v 0.04743 0.37500 -0.03743
v 0.04743 0.37500 -0.04743
v 0.03742 0.37500 -0.03743
v 0.04743 0.44499 -0.04743
v 0.03742 0.44499 -0.03743
v 0.03742 0.44499 -0.04743
v 0.04743 0.44499 -0.03743
v -0.04743 0.37500 -0.03743
v -0.04743 0.44499 -0.04743
v -0.04743 0.44499 -0.03743
v -0.04743 0.37500 -0.04743
v -0.04743 0.37500 -0.04743
v -0.03743 0.44499 -0.04743
v -0.04743 0.44499 -0.04743
v -0.03743 0.37500 -0.04743
v -0.03743 0.37500 -0.04743
v -0.03743 0.44499 -0.03743
v -0.03743 0.44499 -0.04743
v -0.03743 0.37500 -0.03743
v -0.03743 0.37500 -0.03743
v -0.04743 0.44499 -0.03743
v -0.03743 0.44499 -0.03743
v -0.04743 0.37500 -0.03743
v -0.04743 0.37500 -0.04743
v -0.03743 0.37500 -0.03743
v -0.03743 0.37500 -0.04743
v -0.04743 0.37500 -0.03743
v -0.03743 0.44499 -0.04743
v -0.04743 0.44499 -0.03743
v -0.04743 0.44499 -0.04743
v -0.03743 0.44499 -0.03743
v -0.04743 0.37500 0.04743
v -0.04743 0.44499 0.03743
v -0.04743 0.44499 0.04743
v -0.04743 0.37500 0.03743
v -0.04743 0.37500 0.03743
v -0.03743 0.44499 0.03743
v -0.04743 0.44499 0.03743
v -0.03743 0.37500 0.03743
v -0.03743 0.37500 0.03743
v -0.03743 0.44499 0.04743
v -0.03743 0.44499 0.03743
v -0.03743 0.37500 0.04743
v -0.03743 0.37500 0.04743
v -0.04743 0.44499 0.04743
v -0.03743 0.44499 0.04743
v -0.04743 0.37500 0.04743
v -0.04743 0.37500 0.03743
v -0.03743 0.37500 0.04743
v -0.03743 0.37500 0.03743
v -0.04743 0.37500 0.04743
v -0.03743 0.44499 0.03743
v -0.04743 0.44499 0.04743
v -0.04743 0.44499 0.03743
v -0.03743 0.44499 0.04743
v 0.03742 0.37500 0.04743
v 0.03742 0.44499 0.03743
v 0.03742 0.44499 0.04743
v 0.03742 0.37500 0.03743
v 0.03742 0.37500 0.03743
v 0.04743 0.44499 0.03743
v 0.03742 0.44499 0.03743
v 0.04743 0.37500 0.03743
v 0.04743 0.37500 0.03743
v 0.04743 0.44499 0.04743
v 0.04743 0.44499 0.03743
v 0.04743 0.37500 0.04743
v 0.04743 0.37500 0.04743
v 0.03742 0.44499 0.04743
v 0.04743 0.44499 0.04743
v 0.03742 0.37500 0.04743
v 0.03742 0.37500 0.03743
v 0.04743 0.37500 0.04743
v 0.04743 0.37500 0.03743
v 0.03742 0.37500 0.04743
v 0.04743 0.44499 0.03743
v 0.03742 0.44499 0.04743
v 0.03742 0.44499 0.03743
v 0.04743 0.44499 0.04743
vn 0.8581 -0.4592 0.2299
vn 0.8581 -0.4592 0.2299
vn 0.8581 -0.4592 0.2299
vn 0.8581 -0.4592 0.2299
vn 0.7071 -0.0000 0.7071
vn 0.7071 -0.0000 0.7071
vn 0.7071 -0.0000 0.7071
vn 0.7071 -0.0000 0.7071
vn 0.2563 -0.1372 0.9568
vn 0.2563 -0.1372 0.9568
vn 0.2563 -0.1372 0.9568
vn 0.2563 -0.1372 0.9568
vn -0.2330 0.4353 0.8696
vn -0.2330 0.4353 0.8696
vn -0.2330 0.4353 0.8696
vn -0.2330 0.4353 0.8696
vn -0.0000 0.7071 0.7071
vn -0.0000 0.7071 0.7071
vn -0.0000 0.7071 0.7071
vn -0.0000 0.7071 0.7071
vn -0.0000 0.7071 0.7071
vn -0.0000 0.7071 0.7071
vn 0.0000 1.0000 -0.0000
vn 0.0000 1.0000 -0.0000
vn 0.0000 1.0000 -0.0000
vn 0.0000 1.0000 -0.0000
vn -0.4681 0.8747 0.1254
vn -0.4681 0.8747 0.1254
vn -0.4681 0.8747 0.1254
vn -0.4681 0.8747 0.1254
vn -0.0000 -0.7071 0.7071
vn -0.0000 -0.7071 0.7071
vn -0.0000 -0.7071 0.7071
vn -0.0000 -0.7071 0.7071
vn -0.0000 -0.7071 0.7071
vn -0.0000 -0.7071 0.7071
vn -0.7071 0.7071 -0.0000
vn -0.7071 0.7071 -0.0000
vn -0.7071 0.7071 -0.0000
vn -0.7071 0.7071 -0.0000
vn -0.0000 0.7071 0.7071
vn -0.0000 0.7071 0.7071
vn -0.0000 0.7071 0.7071
vn -0.0000 0.7071 0.7071
vn -0.0000 -0.0000 1.0000
vn -0.0000 -0.0000 1.0000
vn -0.0000 -0.0000 1.0000
vn -0.0000 -0.0000 1.0000
vn -0.0000 -0.7071 0.7071
vn -0.0000 -0.7071 0.7071
vn -0.0000 -0.7071 0.7071
vn -0.0000 -0.7071 0.7071
vn 0.7071 -0.0000 0.7071
vn 0.7071 -0.0000 0.7071
vn 0.7071 -0.0000 0.7071
vn 0.7071 -0.0000 0.7071
vn 0.0000 1.0000 -0.0000
vn 0.0000 1.0000 -0.0000
vn 0.0000 1.0000 -0.0000
vn 0.0000 1.0000 -0.0000
vn 0.0000 1.0000 -0.0000
vn 0.0000 1.0000 -0.0000
vn 0.0000 1.0000 -0.0000
vn 0.0000 1.0000 -0.0000
vn -0.0000 0.7071 0.7071
vn -0.0000 0.7071 0.7071
vn -0.0000 0.7071 0.7071
vn -0.0000 0.7071 0.7071
vn 0.7071 -0.0000 0.7071
vn 0.7071 -0.0000 0.7071
vn 0.7071 -0.0000 0.7071
vn 0.7071 -0.0000 0.7071
vn -0.0000 -0.7071 0.7071
vn -0.0000 -0.7071 0.7071
vn -0.0000 -0.7071 0.7071
vn -0.0000 -0.7071 0.7071
vn -0.7071 0.7071 -0.0000
vn -0.7071 0.7071 -0.0000
vn -0.7071 0.7071 -0.0000
vn -0.7071 0.7071 -0.0000
vn -0.0000 -0.0000 1.0000
vn -0.0000 -0.0000 1.0000
vn -0.0000 -0.0000 1.0000
vn -0.0000 -0.0000 1.0000
vn -0.0000 -0.0000 1.0000
vn -0.0000 -0.0000 1.0000
vn -0.0000 -0.0000 1.0000
vn -0.0000 -0.0000 1.0000
vn -0.0000 0.7071 0.7071
vn -0.0000 0.7071 0.7071
vn -0.0000 0.7071 0.7071
vn -0.0000 0.7071 0.7071
vn -0.7071 0.7071 -0.0000
vn -0.7071 0.7071 -0.0000
vn -0.7071 0.7071 -0.0000
vn -0.7071 0.7071 -0.0000
vn -0.0000 -0.7071 0.7071
vn -0.0000 -0.7071 0.7071
vn -0.0000 -0.7071 0.7071
vn -0.0000 -0.7071 0.7071
vn 0.0000 1.0000 -0.0000
vn 0.0000 1.0000 -0.0000
vn 0.0000 1.0000 -0.0000
vn 0.0000 1.0000 -0.0000
vn 0.7071 -0.0000 0.7071
vn 0.7071 -0.0000 0.7071
vn 0.7071 -0.0000 0.7071
vn 0.7071 -0.0000 0.7071
vn 0.7071 -0.0000 0.7071
vn 0.7071 -0.0000 0.7071
vn 0.7071 -0.0000 0.7071
vn 0.7071 -0.0000 0.7071
vn -0.0000 0.7071 0.7071
vn -0.0000 0.7071 0.7071
vn -0.0000 0.7071 0.7071
vn -0.0000 0.7071 0.7071
vn 0.0000 1.0000 -0.0000
vn 0.0000 1.0000 -0.0000
vn 0.0000 1.0000 -0.0000
vn 0.0000 1.0000 -0.0000
vn -0.0000 -0.7071 0.7071
vn -0.0000 -0.7071 0.7071
vn -0.0000 -0.7071 0.7071
vn -0.0000 -0.7071 0.7071
vn -0.0000 -0.0000 1.0000
vn -0.0000 -0.0000 1.0000
vn -0.0000 -0.0000 1.0000
vn -0.0000 -0.0000 1.0000
vn -0.7071 0.7071 -0.0000
vn -0.7071 0.7071 -0.0000
vn -0.7071 0.7071 -0.0000
vn -0.7071 0.7071 -0.0000
vn -0.7071 0.7071 -0.0000
vn -0.7071 0.7071 -0.0000
vn -0.7071 0.7071 -0.0000
vn -0.7071 0.7071 -0.0000
vn -0.0000 0.7071 0.7071
vn -0.0000 0.7071 0.7071
vn -0.0000 0.7071 0.7071
vn -0.0000 0.7071 0.7071
vn -0.0000 -0.0000 1.0000
vn -0.0000 -0.0000 1.0000
vn -0.0000 -0.0000 1.0000
vn -0.0000 -0.0000 1.0000
vn -0.0000 -0.7071 0.7071
vn -0.0000 -0.7071 0.7071
vn -0.0000 -0.7071 0.7071
vn -0.0000 -0.7071 0.7071
vn 0.7071 -0.0000 0.7071
vn 0.7071 -0.0000 0.7071
vn 0.7071 -0.0000 0.7071
vn 0.7071 -0.0000 0.7071
vn 0.0000 1.0000 -0.0000
vn 0.0000 1.0000 -0.0000
vn 0.0000 1.0000 -0.0000
vn 0.0000 1.0000 -0.0000
vn 0.0000 1.0000 -0.0000
vn 0.0000 1.0000 -0.0000
vn 0.0000 1.0000 -0.0000
vn 0.0000 1.0000 -0.0000
vn -0.0000 0.7071 0.7071
vn -0.0000 0.7071 0.7071
vn -0.0000 0.7071 0.7071
vn -0.0000 0.7071 0.7071
vn 0.7071 -0.0000 0.7071
vn 0.7071 -0.0000 0.7071
vn 0.7071 -0.0000 0.7071
vn 0.7071 -0.0000 0.7071
vn -0.0000 -0.7071 0.7071
vn -0.0000 -0.7071 0.7071
vn -0.0000 -0.7071 0.7071
vn -0.0000 -0.7071 0.7071
vn -0.7071 0.7071 -0.0000
vn -0.7071 0.7071 -0.0000
vn -0.7071 0.7071 -0.0000
vn -0.7071 0.7071 -0.0000
vn -0.0000 -0.0000 1.0000
vn -0.0000 -0.0000 1.0000
vn -0.0000 -0.0000 1.0000
vn -0.0000 -0.0000 1.0000
vn -0.0000 -0.0000 1.0000
vn -0.0000 -0.0000 1.0000
vn -0.0000 -0.0000 1.0000
vn -0.0000 -0.0000 1.0000
vn -0.0000 0.7071 0.7071
vn -0.0000 0.7071 0.7071
vn -0.0000 0.7071 0.7071
vn -0.0000 0.7071 0.7071
vn -0.7071 0.7071 -0.0000
vn -0.7071 0.7071 -0.0000
vn -0.7071 0.7071 -0.0000
vn -0.7071 0.7071 -0.0000
vn -0.0000 -0.7071 0.7071
vn -0.0000 -0.7071 0.7071
vn -0.0000 -0.7071 0.7071
vn -0.0000 -0.7071 0.7071
vn 0.0000 1.0000 -0.0000
vn 0.0000 1.0000 -0.0000
vn 0.0000 1.0000 -0.0000
vn 0.0000 1.0000 -0.0000
vn 0.7071 -0.0000 0.7071
vn 0.7071 -0.0000 0.7071
vn 0.7071 -0.0000 0.7071
vn 0.7071 -0.0000 0.7071
vn 0.7071 -0.0000 0.7071
vn 0.7071 -0.0000 0.7071
vn 0.7071 -0.0000 0.7071
vn 0.7071 -0.0000 0.7071
vn -0.0000 0.7071 0.7071
vn -0.0000 0.7071 0.7071
vn -0.0000 0.7071 0.7071
vn -0.0000 0.7071 0.7071
vn 0.0000 1.0000 -0.0000
vn 0.0000 1.0000 -0.0000
vn 0.0000 1.0000 -0.0000
vn 0.0000 1.0000 -0.0000
vn -0.0000 -0.7071 0.7071
vn -0.0000 -0.7071 0.7071
vn -0.0000 -0.7071 0.7071
vn -0.0000 -0.7071 0.7071
vn -0.0000 -0.0000 1.0000
vn -0.0000 -0.0000 1.0000
vn -0.0000 -0.0000 1.0000
vn -0.0000 -0.0000 1.0000
vn -0.7071 0.7071 -0.0000
vn -0.7071 0.7071 -0.0000
vn -0.7071 0.7071 -0.0000
vn -0.7071 0.7071 -0.0000
vn 0.0000 1.0000 -0.0000
vn 0.0000 1.0000 -0.0000
vn 0.0000 1.0000 -0.0000
vn 0.0000 1.0000 -0.0000
vn -0.7071 0.7071 -0.0000
vn -0.7071 0.7071 -0.0000
vn -0.7071 0.7071 -0.0000
vn -0.7071 0.7071 -0.0000
vn 0.7071 -0.0000 0.7071
vn 0.7071 -0.0000 0.7071
vn 0.7071 -0.0000 0.7071
vn 0.7071 -0.0000 0.7071
vn -0.0000 -0.0000 1.0000
vn -0.0000 -0.0000 1.0000
vn -0.0000 -0.0000 1.0000
vn -0.0000 -0.0000 1.0000
vn -0.0000 -0.7071 0.7071
vn -0.0000 -0.7071 0.7071
vn -0.0000 -0.7071 0.7071
vn -0.0000 -0.7071 0.7071
vn -0.0000 0.7071 0.7071
vn -0.0000 0.7071 0.7071
vn -0.0000 0.7071 0.7071
vn -0.0000 0.7071 0.7071
vn 0.0000 1.0000 -0.0000
vn 0.0000 1.0000 -0.0000
vn 0.0000 1.0000 -0.0000
vn 0.0000 1.0000 -0.0000
vn -0.7071 0.7071 -0.0000
vn -0.7071 0.7071 -0.0000
vn -0.7071 0.7071 -0.0000
vn -0.7071 0.7071 -0.0000
vn 0.7071 -0.0000 0.7071
vn 0.7071 -0.0000 0.7071
vn 0.7071 -0.0000 0.7071
vn 0.7071 -0.0000 0.7071
vn -0.0000 -0.0000 1.0000
vn -0.0000 -0.0000 1.0000
vn -0.0000 -0.0000 1.0000
vn -0.0000 -0.0000 1.0000
vn -0.0000 -0.7071 0.7071
vn -0.0000 -0.7071 0.7071
vn -0.0000 -0.7071 0.7071
vn -0.0000 -0.7071 0.7071
vn -0.0000 0.7071 0.7071
vn -0.0000 0.7071 0.7071
vn -0.0000 0.7071 0.7071
vn -0.0000 0.7071 0.7071
vn 0.0000 1.0000 -0.0000
vn 0.0000 1.0000 -0.0000
vn 0.0000 1.0000 -0.0000
vn 0.0000 1.0000 -0.0000
vn -0.7071 0.7071 -0.0000
vn -0.7071 0.7071 -0.0000
vn -0.7071 0.7071 -0.0000
vn -0.7071 0.7071 -0.0000
vn 0.7071 -0.0000 0.7071
vn 0.7071 -0.0000 0.7071
vn 0.7071 -0.0000 0.7071
vn 0.7071 -0.0000 0.7071
vn -0.0000 -0.0000 1.0000
vn -0.0000 -0.0000 1.0000
vn -0.0000 -0.0000 1.0000
vn -0.0000 -0.0000 1.0000
vn -0.0000 -0.7071 0.7071
vn -0.0000 -0.7071 0.7071
vn -0.0000 -0.7071 0.7071
vn -0.0000 -0.7071 0.7071
vn -0.0000 0.7071 0.7071
vn -0.0000 0.7071 0.7071
vn -0.0000 0.7071 0.7071
vn -0.0000 0.7071 0.7071
vn 0.0000 1.0000 -0.0000
vn 0.0000 1.0000 -0.0000
vn 0.0000 1.0000 -0.0000
vn 0.0000 1.0000 -0.0000
vn -0.7071 0.7071 -0.0000
vn -0.7071 0.7071 -0.0000
vn -0.7071 0.7071 -0.0000
vn -0.7071 0.7071 -0.0000
vn 0.7071 -0.0000 0.7071
vn 0.7071 -0.0000 0.7071
vn 0.7071 -0.0000 0.7071
vn 0.7071 -0.0000 0.7071
vn -0.0000 -0.0000 1.0000
vn -0.0000 -0.0000 1.0000
vn -0.0000 -0.0000 1.0000
vn -0.0000 -0.0000 1.0000
vn -0.0000 -0.7071 0.7071
vn -0.0000 -0.7071 0.7071
vn -0.0000 -0.7071 0.7071
vn -0.0000 -0.7071 0.7071
vn -0.0000 0.7071 0.7071
vn -0.0000 0.7071 0.7071
vn -0.0000 0.7071 0.7071
vn -0.0000 0.7071 0.7071
f 325//325 327//327 326//326
f 325//325 326//326 328//328
f 329//329 331//331 330//330
f 329//329 330//330 332//332
f 333//333 335//335 334//334
f 333//333 334//334 336//336
f 337//337 339//339 338//338
f 337//337 338//338 340//340
f 341//341 343//343 342//342
f 341//341 342//342 344//344
f 345//345 347//347 346//346
f 345//345 346//346 348//348
f 349//349 351//351 350//350
f 349//349 350//350 352//352
f 353//353 355//355 354//354
f 353//353 354//354 356//356
f 357//357 359//359 358//358
f 357//357 358//358 360//360
f 361//361 363//363 362//362
f 361//361 362//362 364//364
f 365//365 367//367 366//366
f 365//365 366//366 368//368
f 369//369 371//371 370//370
f 369//369 370//370 372//372
f 373//373 375//375 374//374
f 373//373 374//374 376//376
f 377//377 379//379 378//378
f 377//377 378//378 380//380
f 381//381 383//383 382//382
f 381//381 382//382 384//384
f 385//385 387//387 386//386
f 385//385 386//386 388//388
f 389//389 391//391 390//390
f 389//389 390//390 392//392
f 393//393 395//395 394//394
f 393//393 394//394 396//396
f 397//397 399//399 398//398
f 397//397 398//398 400//400
f 401//401 403//403 402//402
f 401//401 402//402 404//404
f 405//405 407//407 406//406
f 405//405 406//406 408//408
f 409//409 411//411 410//410
f 409//409 410//410 412//412
f 413//413 415//415 414//414
f 413//413 414//414 416//416
f 417//417 419//419 418//418
f 417//417 418//418 420//420
f 421//421 423//423 422//422
f 421//421 422//422 424//424
f 425//425 427//427 426//426
f 425//425 426//426 428//428
f 429//429 431//431 430//430
f 429//429 430//430 432//432
f 433//433 435//435 434//434
f 433//433 434//434 436//436
f 437//437 439//439 438//438
f 437//437 438//438 440//440
f 441//441 443//443 442//442
f 441//441 442//442 444//444
f 445//445 447//447 446//446
f 445//445 446//446 448//448
f 449//449 451//451 450//450
f 449//449 450//450 452//452
f 453//453 455//455 454//454
f 453//453 454//454 456//456
f 457//457 459//459 458//458
f 457//457 458//458 460//460
f 461//461 463//463 462//462
f 461//461 462//462 464//464
f 465//465 467//467 466//466
f 465//465 466//466 468//468
f 469//469 471//471 470//470
f 469//469 470//470 472//472
f 473//473 475//475 474//474
f 473//473 474//474 476//476
f 477//477 479//479 478//478
f 477//477 478//478 480//480
f 481//481 483//483 482//482
f 481//481 482//482 484//484
f 485//485 487//487 486//486
f 485//485 486//486 488//488
f 489//489 491//491 490//490
f 489//489 490//490 492//492
f 493//493 495//495 494//494
f 493//493 494//494 496//496
f 497//497 499//499 498//498
f 497//497 498//498 500//500
f 501//501 503//503 502//502
f 501//501 502//502 504//504
f 505//505 507//507 506//506
f 505//505 506//506 508//508
f 509//509 511//511 510//510
f 509//509 510//510 512//512
f 513//513 515//515 514//514
f 513//513 514//514 516//516
f 517//517 519//519 518//518
f 517//517 518//518 520//520
f 521//521 523//523 522//522
f 521//521 522//522 524//524
f 525//525 527//527 526//526
f 525//525 526//526 528//528
f 529//529 531//531 530//530
f 529//529 530//530 532//532
f 533//533 535//535 534//534
f 533//533 534//534 536//536
f 537//537 539//539 538//538
f 537//537 538//538 540//540
f 541//541 543//543 542//542
f 541//541 542//542 544//544
f 545//545 547//547 546//546
f 545//545 546//546 548//548
f 549//549 551//551 550//550
f 549//549 550//550 552//552
f 553//553 555//555 554//554
f 553//553 554//554 556//556
f 557//557 559//559 558//558
f 557//557 558//558 560//560
f 561//561 563//563 562//562
f 561//561 562//562 564//564
f 565//565 567//567 566//566
f 565//565 566//566 568//568
f 569//569 571//571 570//570
f 569//569 570//570 572//572
f 573//573 575//575 574//574
f 573//573 574//574 576//576
f 577//577 579//579 578//578
f 577//577 578//578 580//580
f 581//581 583//583 582//582
f 581//581 582//582 584//584
f 585//585 587//587 586//586
f 585//585 586//586 588//588
f 589//589 591//591 590//590
f 589//589 590//590 592//592
f 593//593 595//595 594//594
f 593//593 594//594 596//596
f 597//597 599//599 598//598
f 597//597 598//598 600//600
f 601//601 603//603 602//602
f 601//601 602//602 604//604
f 605//605 607//607 606//606
f 605//605 606//606 608//608
f 609//609 611//611 610//610
f 609//609 610//610 612//612
f 289//289 291//291 290//290
f 289//289 290//290 292//292
f 293//293 295//295 294//294
f 293//293 294//294 296//296
f 297//297 299//299 298//298
f 297//297 298//298 300//300
f 301//301 303//303 302//302
f 301//301 302//302 304//304
f 305//305 307//307 306//306
f 306//306 308//308 305//305
f 308//308 309//309 305//305
f 306//306 310//310 308//308
f 311//311 313//313 312//312
f 311//311 312//312 314//314
f 315//315 317//317 316//316
f 315//315 316//316 318//318
f 319//319 321//321 320//320
f 320//320 322//322 319//319
f 322//322 323//323 319//319
f 320//320 324//324 322//322
g core_plank
usemtl plank
v -0.06200 0.36000 0.06200
v -0.06500 0.36300 0.06200
v -0.06200 0.36300 0.06500
v -0.06200 0.37200 0.06500
v -0.06500 0.37200 0.06200
v -0.06200 0.37500 0.06200
v -0.06200 0.36000 -0.06200
v -0.06200 0.36300 -0.06500
v -0.06500 0.36300 -0.06200
v -0.06200 0.37500 -0.06200
v -0.06500 0.37200 -0.06200
v -0.06200 0.37200 -0.06500
v 0.06200 0.36000 0.06200
v 0.06200 0.36300 0.06500
v 0.06500 0.36300 0.06200
v 0.06200 0.37500 0.06200
v 0.06500 0.37200 0.06200
v 0.06200 0.37200 0.06500
v 0.06200 0.36000 -0.06200
v 0.06500 0.36300 -0.06200
v 0.06200 0.36300 -0.06500
v 0.06200 0.37500 -0.06200
v 0.06200 0.37200 -0.06500
v 0.06500 0.37200 -0.06200
v -0.06200 0.36000 -0.06200
v -0.06500 0.36300 0.06200
v -0.06200 0.36000 0.06200
v -0.06500 0.36300 -0.06200
v -0.06200 0.36300 0.06500
v -0.06500 0.37200 0.06200
v -0.06200 0.37200 0.06500
v -0.06500 0.36300 0.06200
v -0.06200 0.37500 0.06200
v -0.06500 0.37200 -0.06200
v -0.06200 0.37500 -0.06200
v -0.06500 0.37200 0.06200
v -0.06200 0.37200 -0.06500
v -0.06500 0.36300 -0.06200
v -0.06200 0.36300 -0.06500
v -0.06500 0.37200 -0.06200
v 0.06200 0.36000 -0.06200
v -0.06200 0.36300 -0.06500
v -0.06200 0.36000 -0.06200
v 0.06200 0.36300 -0.06500
v -0.06200 0.37500 -0.06200
v 0.06200 0.37200 -0.06500
v 0.06200 0.37500 -0.06200
v -0.06200 0.37200 -0.06500
v 0.06500 0.37200 -0.06200
v 0.06200 0.36300 -0.06500
v 0.06500 0.36300 -0.06200
v 0.06200 0.37200 -0.06500
v 0.06200 0.36000 0.06200
v 0.06500 0.36300 -0.06200
v 0.06200 0.36000 -0.06200
v 0.06500 0.36300 0.06200
v 0.06200 0.37500 -0.06200
v 0.06500 0.37200 0.06200
v 0.06200 0.37500 0.06200
v 0.06500 0.37200 -0.06200
v 0.06200 0.37200 0.06500
v 0.06500 0.36300 0.06200
v 0.06200 0.36300 0.06500
v 0.06500 0.37200 0.06200
v -0.06200 0.36000 0.06200
v 0.06200 0.36300 0.06500
v 0.06200 0.36000 0.06200
v -0.06200 0.36300 0.06500
v 0.06200 0.37500 0.06200
v -0.06200 0.37200 0.06500
v -0.06200 0.37500 0.06200
v 0.06200 0.37200 0.06500
v -0.06200 0.36000 -0.06200
v 0.06200 0.36000 0.06200
v 0.06200 0.36000 -0.06200
v -0.06200 0.36000 0.06200
v -0.06500 0.36300 0.06200
v -0.06500 0.37200 -0.06200
v -0.06500 0.37200 0.06200
v -0.06500 0.36300 -0.06200
v 0.06200 0.36300 0.06500
v -0.06200 0.37200 0.06500
v 0.06200 0.37200 0.06500
v -0.06200 0.36300 0.06500
v 0.06200 0.37500 -0.06200
v -0.06200 0.37500 0.06200
v -0.06200 0.37500 -0.06200
v 0.06200 0.37500 0.06200
v -0.06200 0.36300 -0.06500
v 0.06200 0.37200 -0.06500
v -0.06200 0.37200 -0.06500
v 0.06200 0.36300 -0.06500
v 0.06500 0.36300 -0.06200
v 0.06500 0.37200 0.06200
v 0.06500 0.37200 -0.06200
v 0.06500 0.36300 0.06200
vn -0.5775 -0.5774 0.5772
vn -0.5775 -0.5774 0.5772
vn -0.5775 -0.5774 0.5772
vn -0.5773 0.5774 0.5774
vn -0.5773 0.5774 0.5774
vn -0.5773 0.5774 0.5774
vn -0.5774 -0.5773 -0.5774
vn -0.5774 -0.5773 -0.5774
vn -0.5774 -0.5773 -0.5774
vn -0.5773 0.5774 -0.5774
vn -0.5773 0.5774 -0.5774
vn -0.5773 0.5774 -0.5774
vn 0.5774 -0.5774 0.5773
vn 0.5774 -0.5774 0.5773
vn 0.5774 -0.5774 0.5773
vn 0.5772 0.5774 0.5775
vn 0.5772 0.5774 0.5775
vn 0.5772 0.5774 0.5775
vn 0.5774 -0.5773 -0.5774
vn 0.5774 -0.5773 -0.5774
vn 0.5774 -0.5773 -0.5774
vn 0.5773 0.5774 -0.5773
vn 0.5773 0.5774 -0.5773
vn 0.5773 0.5774 -0.5773
vn -0.7071 -0.7071 -0.0001
vn -0.7071 -0.7071 -0.0001
vn -0.7071 -0.7071 -0.0001
vn -0.7071 -0.7071 -0.0001
vn -0.7071 -0.0000 0.7071
vn -0.7071 -0.0000 0.7071
vn -0.7071 -0.0000 0.7071
vn -0.7071 -0.0000 0.7071
vn -0.7071 0.7071 -0.0000
vn -0.7071 0.7071 -0.0000
vn -0.7071 0.7071 -0.0000
vn -0.7071 0.7071 -0.0000
vn -0.7071 0.0000 -0.7071
vn -0.7071 0.0000 -0.7071
vn -0.7071 0.0000 -0.7071
vn -0.7071 0.0000 -0.7071
vn 0.0000 -0.7071 -0.7071
vn 0.0000 -0.7071 -0.7071
vn 0.0000 -0.7071 -0.7071
vn 0.0000 -0.7071 -0.7071
vn 0.0000 0.7071 -0.7071
vn 0.0000 0.7071 -0.7071
vn 0.0000 0.7071 -0.7071
vn 0.0000 0.7071 -0.7071
vn 0.7071 0.0000 -0.7071
vn 0.7071 0.0000 -0.7071
vn 0.7071 0.0000 -0.7071
vn 0.7071 0.0000 -0.7071
vn 0.7071 -0.7071 -0.0000
vn 0.7071 -0.7071 -0.0000
vn 0.7071 -0.7071 -0.0000
vn 0.7071 -0.7071 -0.0000
vn 0.7071 0.7071 0.0000
vn 0.7071 0.7071 0.0000
vn 0.7071 0.7071 0.0000
vn 0.7071 0.7071 0.0000
vn 0.7071 -0.0000 0.7071
vn 0.7071 -0.0000 0.7071
vn 0.7071 -0.0000 0.7071
vn 0.7071 -0.0000 0.7071
vn -0.0000 -0.7071 0.7071
vn -0.0000 -0.7071 0.7071
vn -0.0000 -0.7071 0.7071
vn -0.0000 -0.7071 0.7071
vn -0.0000 0.7071 0.7071
vn -0.0000 0.7071 0.7071
vn -0.0000 0.7071 0.7071
vn -0.0000 0.7071 0.7071
vn 0.0000 -1.0000 -0.0000
vn 0.0000 -1.0000 -0.0000
vn 0.0000 -1.0000 -0.0000
vn 0.0000 -1.0000 -0.0000
vn -1.0000 0.0000 -0.0000
vn -1.0000 0.0000 -0.0000
vn -1.0000 0.0000 -0.0000
vn -1.0000 0.0000 -0.0000
vn -0.0000 -0.0000 1.0000
vn -0.0000 -0.0000 1.0000
vn -0.0000 -0.0000 1.0000
vn -0.0000 -0.0000 1.0000
vn 0.0000 1.0000 -0.0000
vn 0.0000 1.0000 -0.0000
vn 0.0000 1.0000 -0.0000
vn 0.0000 1.0000 -0.0000
vn 0.0000 0.0000 -1.0000
vn 0.0000 0.0000 -1.0000
vn 0.0000 0.0000 -1.0000
vn 0.0000 0.0000 -1.0000
vn 1.0000 0.0000 -0.0000
vn 1.0000 0.0000 -0.0000
vn 1.0000 0.0000 -0.0000
vn 1.0000 0.0000 -0.0000
f 613//613 615//615 614//614
f 616//616 618//618 617//617
f 619//619 621//621 620//620
f 622//622 624//624 623//623
f 625//625 627//627 626//626
f 628//628 630//630 629//629
f 631//631 633//633 632//632
f 634//634 636//636 635//635
f 637//637 639//639 638//638
f 637//637 638//638 640//640
f 641//641 643//643 642//642
f 641//641 642//642 644//644
f 645//645 647//647 646//646
f 645//645 646//646 648//648
f 649//649 651//651 650//650
f 649//649 650//650 652//652
f 653//653 655//655 654//654
f 653//653 654//654 656//656
f 657//657 659//659 658//658
f 657//657 658//658 660//660
f 661//661 663//663 662//662
f 661//661 662//662 664//664
f 665//665 667//667 666//666
f 665//665 666//666 668//668
f 669//669 671//671 670//670
f 669//669 670//670 672//672
f 673//673 675//675 674//674
f 673//673 674//674 676//676
f 677//677 679//679 678//678
f 677//677 678//678 680//680
f 681//681 683//683 682//682
f 681//681 682//682 684//684
f 685//685 687//687 686//686
f 685//685 686//686 688//688
f 689//689 691//691 690//690
f 689//689 690//690 692//692
f 693//693 695//695 694//694
f 693//693 694//694 696//696
f 697//697 699//699 698//698
f 697//697 698//698 700//700
f 701//701 703//703 702//702
f 701//701 702//702 704//704
f 705//705 707//707 706//706
f 705//705 706//706 708//708
g core_thatch
usemtl thatch
v -0.08000 0.44000 0.08000
v -0.00000 0.52000 -0.00000
v 0.08000 0.44000 0.08000
v 0.08000 0.44000 0.08000
v -0.00000 0.52000 -0.00000
v 0.08000 0.44000 -0.08000
v 0.08000 0.44000 -0.08000
v -0.00000 0.52000 -0.00000
v -0.08000 0.44000 -0.08000
v -0.08000 0.44000 -0.08000
v -0.00000 0.52000 -0.00000
v -0.08000 0.44000 0.08000
v -0.08000 0.44000 -0.08000
v 0.08000 0.44000 0.08000
v 0.08000 0.44000 -0.08000
v -0.08000 0.44000 0.08000
vn 0.1943 0.3754 0.9063
vn 0.1943 0.3754 0.9063
vn 0.1943 0.3754 0.9063
vn -0.4566 -0.5416 -0.7059
vn -0.4566 -0.5416 -0.7059
vn -0.4566 -0.5416 -0.7059
vn 0.4314 -0.8335 -0.3452
vn 0.4314 -0.8335 -0.3452
vn 0.4314 -0.8335 -0.3452
vn -0.0674 0.7915 0.6074
vn -0.0674 0.7915 0.6074
vn -0.0674 0.7915 0.6074
vn -0.0000 -0.7071 0.7071
vn -0.0000 -0.7071 0.7071
vn -0.0000 -0.7071 0.7071
vn -0.0000 -0.7071 0.7071
f 709//709 711//711 710//710
f 712//712 714//714 713//713
f 715//715 717//717 716//716
f 718//718 720//720 719//719
f 721//721 723//723 722//722
f 721//721 722//722 724//724
g core_metal_dark
usemtl metal_dark
v 0.03000 0.37500 0.01000
v 0.04732 0.39500 0.02000
v 0.03000 0.39500 0.01000
v 0.04732 0.37500 0.02000
v 0.04732 0.37500 0.02000
v 0.04732 0.39500 0.04000
v 0.04732 0.39500 0.02000
v 0.04732 0.37500 0.04000
v 0.04732 0.37500 0.04000
v 0.03000 0.39500 0.05000
v 0.04732 0.39500 0.04000
v 0.03000 0.37500 0.05000
v 0.03000 0.37500 0.05000
v 0.01268 0.39500 0.04000
v 0.03000 0.39500 0.05000
v 0.01268 0.37500 0.04000
v 0.04732 0.39500 0.04000
v 0.03000 0.39500 0.01000
v 0.04732 0.39500 0.02000
v 0.01268 0.39500 0.04000
v 0.03000 0.39500 0.05000
v 0.01268 0.39500 0.02000
v 0.01268 0.37500 0.04000
v 0.01268 0.39500 0.02000
v 0.01268 0.39500 0.04000
v 0.01268 0.37500 0.02000
v 0.01268 0.37500 0.02000
v 0.03000 0.39500 0.01000
v 0.01268 0.39500 0.02000
v 0.03000 0.37500 0.01000
v 0.01268 0.37500 0.02000
v 0.04732 0.37500 0.02000
v 0.03000 0.37500 0.01000
v 0.03000 0.37500 0.05000
v 0.01268 0.37500 0.04000
v 0.04732 0.37500 0.04000
vn 0.8581 -0.4592 0.2299
vn 0.8581 -0.4592 0.2299
vn 0.8581 -0.4592 0.2299
vn 0.8581 -0.4592 0.2299
vn 0.7071 -0.0000 0.7071
vn 0.7071 -0.0000 0.7071
vn 0.7071 -0.0000 0.7071
vn 0.7071 -0.0000 0.7071
vn 0.2563 -0.1372 0.9568
vn 0.2563 -0.1372 0.9568
vn 0.2563 -0.1372 0.9568
vn 0.2563 -0.1372 0.9568
vn -0.2330 0.4353 0.8696
vn -0.2330 0.4353 0.8696
vn -0.2330 0.4353 0.8696
vn -0.2330 0.4353 0.8696
vn -0.0000 0.7071 0.7071
vn -0.0000 0.7071 0.7071
vn -0.0000 0.7071 0.7071
vn -0.0000 0.7071 0.7071
vn -0.0000 0.7071 0.7071
vn -0.0000 0.7071 0.7071
vn 0.0000 1.0000 -0.0000
vn 0.0000 1.0000 -0.0000
vn 0.0000 1.0000 -0.0000
vn 0.0000 1.0000 -0.0000
vn -0.4681 0.8747 0.1254
vn -0.4681 0.8747 0.1254
vn -0.4681 0.8747 0.1254
vn -0.4681 0.8747 0.1254
vn -0.0000 -0.7071 0.7071
vn -0.0000 -0.7071 0.7071
vn -0.0000 -0.7071 0.7071
vn -0.0000 -0.7071 0.7071
vn -0.0000 -0.7071 0.7071
vn -0.0000 -0.7071 0.7071
f 725//725 727//727 726//726
f 725//725 726//726 728//728
f 729//729 731//731 730//730
f 729//729 730//730 732//732
f 733//733 735//735 734//734
f 733//733 734//734 736//736
f 737//737 739//739 738//738
f 737//737 738//738 740//740
f 741//741 743//743 742//742
f 742//742 744//744 741//741
f 744//744 745//745 741//741
f 742//742 746//746 744//744
f 747//747 749//749 748//748
f 747//747 748//748 750//750
f 751//751 753//753 752//752
f 751//751 752//752 754//754
f 755//755 757//757 756//756
f 756//756 758//758 755//755
f 758//758 759//759 755//755
f 756//756 760//760 758//758
g core_fire
usemtl fire
v 0.03000 0.39500 0.03000
v 0.04522 0.39500 0.02506
v 0.03000 0.39500 0.01400
v 0.03940 0.39500 0.04294
v 0.01478 0.39500 0.02506
v 0.02060 0.39500 0.04294
v 0.03000 0.39500 0.01400
v 0.04522 0.39500 0.02506
v 0.03000 0.42500 0.03000
v 0.04522 0.39500 0.02506
v 0.03940 0.39500 0.04294
v 0.03000 0.42500 0.03000
v 0.03940 0.39500 0.04294
v 0.02060 0.39500 0.04294
v 0.03000 0.42500 0.03000
v 0.02060 0.39500 0.04294
v 0.01478 0.39500 0.02506
v 0.03000 0.42500 0.03000
v 0.01478 0.39500 0.02506
v 0.03000 0.39500 0.01400
v 0.03000 0.42500 0.03000
vn -0.0000 -0.7071 0.7071
vn -0.0000 -0.7071 0.7071
vn -0.0000 -0.7071 0.7071
vn -0.0000 -0.7071 0.7071
vn -0.0000 -0.7071 0.7071
vn -0.0000 -0.7071 0.7071
vn 0.8768 -0.4501 0.1692
vn 0.8768 -0.4501 0.1692
vn 0.8768 -0.4501 0.1692
vn 0.5455 0.2460 0.8012
vn 0.5455 0.2460 0.8012
vn 0.5455 0.2460 0.8012
vn 0.1682 0.1994 0.9654
vn 0.1682 0.1994 0.9654
vn 0.1682 0.1994 0.9654
vn 0.0261 0.8879 0.4593
vn 0.0261 0.8879 0.4593
vn 0.0261 0.8879 0.4593
vn -0.4294 0.8428 0.3246
vn -0.4294 0.8428 0.3246
vn -0.4294 0.8428 0.3246
f 761//761 763//763 762//762
f 761//761 762//762 764//764
f 761//761 765//765 763//763
f 761//761 764//764 766//766
f 761//761 766//766 765//765
f 767//767 769//769 768//768
f 770//770 772//772 771//771
f 773//773 775//775 774//774
f 776//776 778//778 777//777
f 779//779 781//781 780//780
g core_gold
usemtl gold
v -0.05300 0.48800 -0.05500
v -0.05300 0.50000 -0.15500
v -0.05300 0.50000 -0.05500
v -0.05300 0.48800 -0.15500
v -0.05300 0.48800 -0.15500
v -0.04700 0.50000 -0.15500
v -0.05300 0.50000 -0.15500
v -0.04700 0.48800 -0.15500
v -0.04700 0.48800 -0.15500
v -0.04700 0.50000 -0.05500
v -0.04700 0.50000 -0.15500
v -0.04700 0.48800 -0.05500
v -0.04700 0.48800 -0.05500
v -0.05300 0.50000 -0.05500
v -0.04700 0.50000 -0.05500
v -0.05300 0.48800 -0.05500
v -0.05300 0.48800 -0.15500
v -0.04700 0.48800 -0.05500
v -0.04700 0.48800 -0.15500
v -0.05300 0.48800 -0.05500
v -0.04700 0.50000 -0.15500
v -0.05300 0.50000 -0.05500
v -0.05300 0.50000 -0.15500
v -0.04700 0.50000 -0.05500
v -0.05000 0.57200 -0.05000
v -0.05387 0.57974 -0.03809
v -0.03987 0.57974 -0.04264
v -0.03987 0.57974 -0.04264
v -0.03987 0.57974 -0.05736
v -0.05000 0.57200 -0.05000
v -0.05000 0.57200 -0.05000
v -0.06252 0.57974 -0.05000
v -0.05387 0.57974 -0.03809
v -0.05000 0.57200 -0.05000
v -0.05387 0.57974 -0.06191
v -0.06252 0.57974 -0.05000
v -0.05000 0.57200 -0.05000
v -0.03987 0.57974 -0.05736
v -0.05387 0.57974 -0.06191
v -0.03987 0.57974 -0.04264
v -0.03748 0.59226 -0.05000
v -0.03987 0.57974 -0.05736
v -0.05387 0.57974 -0.03809
v -0.04613 0.59226 -0.03809
v -0.03987 0.57974 -0.04264
v -0.06252 0.57974 -0.05000
v -0.06013 0.59226 -0.04264
v -0.05387 0.57974 -0.03809
v -0.05387 0.57974 -0.06191
v -0.06013 0.59226 -0.05736
v -0.06252 0.57974 -0.05000
v -0.03987 0.57974 -0.05736
v -0.04613 0.59226 -0.06191
v -0.05387 0.57974 -0.06191
v -0.03987 0.57974 -0.04264
v -0.04613 0.59226 -0.03809
v -0.03748 0.59226 -0.05000
v -0.05387 0.57974 -0.03809
v -0.06013 0.59226 -0.04264
v -0.04613 0.59226 -0.03809
v -0.06252 0.57974 -0.05000
v -0.06013 0.59226 -0.05736
v -0.06013 0.59226 -0.04264
v -0.05387 0.57974 -0.06191
v -0.04613 0.59226 -0.06191
v -0.06013 0.59226 -0.05736
v -0.03987 0.57974 -0.05736
v -0.03748 0.59226 -0.05000
v -0.04613 0.59226 -0.06191
v -0.04613 0.59226 -0.03809
v -0.05000 0.60000 -0.05000
v -0.03748 0.59226 -0.05000
v -0.06013 0.59226 -0.04264
v -0.05000 0.60000 -0.05000
v -0.04613 0.59226 -0.03809
v -0.06013 0.59226 -0.05736
v -0.05000 0.60000 -0.05000
v -0.06013 0.59226 -0.04264
v -0.04613 0.59226 -0.06191
v -0.05000 0.60000 -0.05000
v -0.06013 0.59226 -0.05736
v -0.03748 0.59226 -0.05000
v -0.05000 0.60000 -0.05000
v -0.04613 0.59226 -0.06191
vn 0.0000 1.0000 -0.0000
vn 0.0000 1.0000 -0.0000
vn 0.0000 1.0000 -0.0000
vn 0.0000 1.0000 -0.0000
vn -0.7071 0.7071 -0.0000
vn -0.7071 0.7071 -0.0000
vn -0.7071 0.7071 -0.0000
vn -0.7071 0.7071 -0.0000
vn 0.7071 -0.0000 0.7071
vn 0.7071 -0.0000 0.7071
vn 0.7071 -0.0000 0.7071
vn 0.7071 -0.0000 0.7071
vn -0.0000 -0.0000 1.0000
vn -0.0000 -0.0000 1.0000
vn -0.0000 -0.0000 1.0000
vn -0.0000 -0.0000 1.0000
vn -0.0000 -0.7071 0.7071
vn -0.0000 -0.7071 0.7071
vn -0.0000 -0.7071 0.7071
vn -0.0000 -0.7071 0.7071
vn -0.0000 0.7071 0.7071
vn -0.0000 0.7071 0.7071
vn -0.0000 0.7071 0.7071
vn -0.0000 0.7071 0.7071
vn -0.0795 -0.4827 0.8722
vn -0.0795 -0.4827 0.8722
vn -0.0795 -0.4827 0.8722
vn 0.3666 -0.6071 0.7050
vn 0.3666 -0.6071 0.7050
vn 0.3666 -0.6071 0.7050
vn 0.1816 0.5485 -0.8162
vn 0.1816 0.5485 -0.8162
vn 0.1816 0.5485 -0.8162
vn -0.0193 0.8657 -0.5001
vn -0.0193 0.8657 -0.5001
vn -0.0193 0.8657 -0.5001
vn -0.4310 0.7842 -0.4464
vn -0.4310 0.7842 -0.4464
vn -0.4310 0.7842 -0.4464
vn 0.6943 -0.1338 0.7071
vn 0.6943 -0.1338 0.7071
vn 0.6943 -0.1338 0.7071
vn 0.0843 -0.2056 0.9750
vn 0.0843 -0.2056 0.9750
vn 0.0843 -0.2056 0.9750
vn -0.3100 0.9359 0.1673
vn -0.3100 0.9359 0.1673
vn -0.3100 0.9359 0.1673
vn -0.1515 0.9876 -0.0411
vn -0.1515 0.9876 -0.0411
vn -0.1515 0.9876 -0.0411
vn 0.7901 -0.5858 0.1808
vn 0.7901 -0.5858 0.1808
vn 0.7901 -0.5858 0.1808
vn 0.4624 0.0369 0.8859
vn 0.4624 0.0369 0.8859
vn 0.4624 0.0369 0.8859
vn -0.0249 0.2948 0.9552
vn -0.0249 0.2948 0.9552
vn -0.0249 0.2948 0.9552
vn -0.0017 0.9826 0.1859
vn -0.0017 0.9826 0.1859
vn -0.0017 0.9826 0.1859
vn -0.5790 0.7977 0.1683
vn -0.5790 0.7977 0.1683
vn -0.5790 0.7977 0.1683
vn 0.8940 -0.0788 0.4410
vn 0.8940 -0.0788 0.4410
vn 0.8940 -0.0788 0.4410
vn 0.3088 0.4757 0.8236
vn 0.3088 0.4757 0.8236
vn 0.3088 0.4757 0.8236
vn 0.1359 0.4900 0.8611
vn 0.1359 0.4900 0.8611
vn 0.1359 0.4900 0.8611
vn -0.0827 0.7552 0.6503
vn -0.0827 0.7552 0.6503
vn -0.0827 0.7552 0.6503
vn 0.3427 -0.8220 -0.4549
vn 0.3427 -0.8220 -0.4549
vn 0.3427 -0.8220 -0.4549
vn -0.1939 -0.8143 -0.5472
vn -0.1939 -0.8143 -0.5472
vn -0.1939 -0.8143 -0.5472
f 806//806 808//808 807//807
f 809//809 811//811 810//810
f 812//812 814//814 813//813
f 815//815 817//817 816//816
f 818//818 820//820 819//819
f 821//821 823//823 822//822
f 824//824 826//826 825//825
f 827//827 829//829 828//828
f 830//830 832//832 831//831
f 833//833 835//835 834//834
f 836//836 838//838 837//837
f 839//839 841//841 840//840
f 842//842 844//844 843//843
f 845//845 847//847 846//846
f 848//848 850//850 849//849
f 851//851 853//853 852//852
f 854//854 856//856 855//855
f 857//857 859//859 858//858
f 860//860 862//862 861//861
f 863//863 865//865 864//864
f 782//782 784//784 783//783
f 782//782 783//783 785//785
f 786//786 788//788 787//787
f 786//786 787//787 789//789
f 790//790 792//792 791//791
f 790//790 791//791 793//793
f 794//794 796//796 795//795
f 794//794 795//795 797//797
f 798//798 800//800 799//799
f 798//798 799//799 801//801
f 802//802 804//804 803//803
f 802//802 803//803 805//805
g core_team
usemtl team
v -0.05100 0.50000 -0.05700
v -0.05300 0.50200 -0.05700
v -0.05100 0.50200 -0.05500
v -0.05100 0.56800 -0.05500
v -0.05300 0.56800 -0.05700
v -0.05100 0.57000 -0.05700
v -0.05100 0.50000 -0.15300
v -0.05100 0.50200 -0.15500
v -0.05300 0.50200 -0.15300
v -0.05100 0.57000 -0.15300
v -0.05300 0.56800 -0.15300
v -0.05100 0.56800 -0.15500
v -0.04900 0.50000 -0.05700
v -0.04900 0.50200 -0.05500
v -0.04700 0.50200 -0.05700
v -0.04900 0.57000 -0.05700
v -0.04700 0.56800 -0.05700
v -0.04900 0.56800 -0.05500
v -0.04900 0.50000 -0.15300
v -0.04700 0.50200 -0.15300
v -0.04900 0.50200 -0.15500
v -0.04900 0.57000 -0.15300
v -0.04900 0.56800 -0.15500
v -0.04700 0.56800 -0.15300
v -0.05100 0.50000 -0.15300
v -0.05300 0.50200 -0.05700
v -0.05100 0.50000 -0.05700
v -0.05300 0.50200 -0.15300
v -0.05100 0.50200 -0.05500
v -0.05300 0.56800 -0.05700
v -0.05100 0.56800 -0.05500
v -0.05300 0.50200 -0.05700
v -0.05100 0.57000 -0.05700
v -0.05300 0.56800 -0.15300
v -0.05100 0.57000 -0.15300
v -0.05300 0.56800 -0.05700
v -0.05100 0.56800 -0.15500
v -0.05300 0.50200 -0.15300
v -0.05100 0.50200 -0.15500
v -0.05300 0.56800 -0.15300
v -0.04900 0.50000 -0.15300
v -0.05100 0.50200 -0.15500
v -0.05100 0.50000 -0.15300
v -0.04900 0.50200 -0.15500
v -0.05100 0.57000 -0.15300
v -0.04900 0.56800 -0.15500
v -0.04900 0.57000 -0.15300
v -0.05100 0.56800 -0.15500
v -0.04700 0.56800 -0.15300
v -0.04900 0.50200 -0.15500
v -0.04700 0.50200 -0.15300
v -0.04900 0.56800 -0.15500
v -0.04900 0.50000 -0.05700
v -0.04700 0.50200 -0.15300
v -0.04900 0.50000 -0.15300
v -0.04700 0.50200 -0.05700
v -0.04900 0.57000 -0.15300
v -0.04700 0.56800 -0.05700
v -0.04900 0.57000 -0.05700
v -0.04700 0.56800 -0.15300
v -0.04900 0.56800 -0.05500
v -0.04700 0.50200 -0.05700
v -0.04900 0.50200 -0.05500
v -0.04700 0.56800 -0.05700
v -0.05100 0.50000 -0.05700
v -0.04900 0.50200 -0.05500
v -0.04900 0.50000 -0.05700
v -0.05100 0.50200 -0.05500
v -0.04900 0.57000 -0.05700
v -0.05100 0.56800 -0.05500
v -0.05100 0.57000 -0.05700
v -0.04900 0.56800 -0.05500
v -0.05100 0.50000 -0.15300
v -0.04900 0.50000 -0.05700
v -0.04900 0.50000 -0.15300
v -0.05100 0.50000 -0.05700
v -0.05300 0.50200 -0.05700
v -0.05300 0.56800 -0.15300
v -0.05300 0.56800 -0.05700
v -0.05300 0.50200 -0.15300
v -0.04900 0.50200 -0.05500
v -0.05100 0.56800 -0.05500
v -0.04900 0.56800 -0.05500
v -0.05100 0.50200 -0.05500
v -0.04900 0.57000 -0.15300
v -0.05100 0.57000 -0.05700
v -0.05100 0.57000 -0.15300
v -0.04900 0.57000 -0.05700
v -0.05100 0.50200 -0.15500
v -0.04900 0.56800 -0.15500
v -0.05100 0.56800 -0.15500
v -0.04900 0.50200 -0.15500
v -0.04700 0.50200 -0.15300
v -0.04700 0.56800 -0.05700
v -0.04700 0.56800 -0.15300
v -0.04700 0.50200 -0.05700
vn -0.5773 -0.5774 0.5774
vn -0.5773 -0.5774 0.5774
vn -0.5773 -0.5774 0.5774
vn -0.5773 0.5774 0.5774
vn -0.5773 0.5774 0.5774
vn -0.5773 0.5774 0.5774
vn -0.5773 -0.5774 -0.5774
vn -0.5773 -0.5774 -0.5774
vn -0.5773 -0.5774 -0.5774
vn -0.5773 0.5774 -0.5774
vn -0.5773 0.5774 -0.5774
vn -0.5773 0.5774 -0.5774
vn 0.5772 -0.5774 0.5774
vn 0.5772 -0.5774 0.5774
vn 0.5772 -0.5774 0.5774
vn 0.5772 0.5774 0.5775
vn 0.5772 0.5774 0.5775
vn 0.5772 0.5774 0.5775
vn 0.5773 -0.5774 -0.5774
vn 0.5773 -0.5774 -0.5774
vn 0.5773 -0.5774 -0.5774
vn 0.5773 0.5774 -0.5773
vn 0.5773 0.5774 -0.5773
vn 0.5773 0.5774 -0.5773
vn -0.7071 -0.7071 -0.0001
vn -0.7071 -0.7071 -0.0001
vn -0.7071 -0.7071 -0.0001
vn -0.7071 -0.7071 -0.0001
vn -0.7071 -0.0000 0.7071
vn -0.7071 -0.0000 0.7071
vn -0.7071 -0.0000 0.7071
vn -0.7071 -0.0000 0.7071
vn -0.7071 0.7071 -0.0000
vn -0.7071 0.7071 -0.0000
vn -0.7071 0.7071 -0.0000
vn -0.7071 0.7071 -0.0000
vn -0.7071 0.0000 -0.7071
vn -0.7071 0.0000 -0.7071
vn -0.7071 0.0000 -0.7071
vn -0.7071 0.0000 -0.7071
vn 0.0000 -0.7071 -0.7071
vn 0.0000 -0.7071 -0.7071
vn 0.0000 -0.7071 -0.7071
vn 0.0000 -0.7071 -0.7071
vn 0.0000 0.7071 -0.7071
vn 0.0000 0.7071 -0.7071
vn 0.0000 0.7071 -0.7071
vn 0.0000 0.7071 -0.7071
vn 0.7071 0.0000 -0.7071
vn 0.7071 0.0000 -0.7071
vn 0.7071 0.0000 -0.7071
vn 0.7071 0.0000 -0.7071
vn 0.7071 -0.7071 -0.0000
vn 0.7071 -0.7071 -0.0000
vn 0.7071 -0.7071 -0.0000
vn 0.7071 -0.7071 -0.0000
vn 0.7071 0.7071 0.0000
vn 0.7071 0.7071 0.0000
vn 0.7071 0.7071 0.0000
vn 0.7071 0.7071 0.0000
vn 0.7071 -0.0000 0.7071
vn 0.7071 -0.0000 0.7071
vn 0.7071 -0.0000 0.7071
vn 0.7071 -0.0000 0.7071
vn -0.0000 -0.7071 0.7071
vn -0.0000 -0.7071 0.7071
vn -0.0000 -0.7071 0.7071
vn -0.0000 -0.7071 0.7071
vn -0.0000 0.7071 0.7071
vn -0.0000 0.7071 0.7071
vn -0.0000 0.7071 0.7071
vn -0.0000 0.7071 0.7071
vn 0.0000 -1.0000 -0.0000
vn 0.0000 -1.0000 -0.0000
vn 0.0000 -1.0000 -0.0000
vn 0.0000 -1.0000 -0.0000
vn -1.0000 0.0000 -0.0000
vn -1.0000 0.0000 -0.0000
vn -1.0000 0.0000 -0.0000
vn -1.0000 0.0000 -0.0000
vn -0.0000 -0.0000 1.0000
vn -0.0000 -0.0000 1.0000
vn -0.0000 -0.0000 1.0000
vn -0.0000 -0.0000 1.0000
vn 0.0000 1.0000 -0.0000
vn 0.0000 1.0000 -0.0000
vn 0.0000 1.0000 -0.0000
vn 0.0000 1.0000 -0.0000
vn 0.0000 0.0000 -1.0000
vn 0.0000 0.0000 -1.0000
vn 0.0000 0.0000 -1.0000
vn 0.0000 0.0000 -1.0000
vn 1.0000 0.0000 -0.0000
vn 1.0000 0.0000 -0.0000
vn 1.0000 0.0000 -0.0000
vn 1.0000 0.0000 -0.0000
f 866//866 868//868 867//867
f 869//869 871//871 870//870
f 872//872 874//874 873//873
f 875//875 877//877 876//876
f 878//878 880//880 879//879
f 881//881 883//883 882//882
f 884//884 886//886 885//885
f 887//887 889//889 888//888
f 890//890 892//892 891//891
f 890//890 891//891 893//893
f 894//894 896//896 895//895
f 894//894 895//895 897//897
f 898//898 900//900 899//899
f 898//898 899//899 901//901
f 902//902 904//904 903//903
f 902//902 903//903 905//905
f 906//906 908//908 907//907
f 906//906 907//907 909//909
f 910//910 912//912 911//911
f 910//910 911//911 913//913
f 914//914 916//916 915//915
f 914//914 915//915 917//917
f 918//918 920//920 919//919
f 918//918 919//919 921//921
f 922//922 924//924 923//923
f 922//922 923//923 925//925
f 926//926 928//928 927//927
f 926//926 927//927 929//929
f 930//930 932//932 931//931
f 930//930 931//931 933//933
f 934//934 936//936 935//935
f 934//934 935//935 937//937
f 938//938 940//940 939//939
f 938//938 939//939 941//941
f 942//942 944//944 943//943
f 942//942 943//943 945//945
f 946//946 948//948 947//947
f 946//946 947//947 949//949
f 950//950 952//952 951//951
f 950//950 951//951 953//953
f 954//954 956//956 955//955
f 954//954 955//955 957//957
f 958//958 960//960 959//959
f 958//958 959//959 961//961
