mtllib workshop.mtl
o core
g core_plaster
usemtl plaster
v 0.02100 0.00400 0.05000
v -0.10100 0.18600 0.05000
v 0.02100 0.18600 0.05000
v -0.10100 0.00400 0.05000
v 0.02500 0.00400 -0.06600
v 0.02500 0.18600 0.04600
v 0.02500 0.18600 -0.06600
v 0.02500 0.00400 0.04600
v 0.02100 0.19000 -0.06600
v -0.10100 0.19000 0.04600
v -0.10100 0.19000 -0.06600
v 0.02100 0.19000 0.04600
v -0.10500 0.00400 0.04600
v -0.10500 0.18600 -0.06600
v -0.10500 0.18600 0.04600
v -0.10500 0.00400 -0.06600
v -0.10100 0.00400 -0.07000
v 0.02100 0.18600 -0.07000
v -0.10100 0.18600 -0.07000
v 0.02100 0.00400 -0.07000
v -0.10100 0.00000 0.04600
v -0.10500 0.00400 0.04600
v -0.10100 0.00400 0.05000
v -0.10100 0.18600 0.05000
v -0.10500 0.18600 0.04600
v -0.10100 0.19000 0.04600
v -0.10100 0.00000 -0.06600
v -0.10100 0.00400 -0.07000
v -0.10500 0.00400 -0.06600
v -0.10100 0.19000 -0.06600
v -0.10500 0.18600 -0.06600
v -0.10100 0.18600 -0.07000
v 0.02100 0.00000 0.04600
v 0.02100 0.00400 0.05000
v 0.02500 0.00400 0.04600
v 0.02100 0.19000 0.04600
v 0.02500 0.18600 0.04600
v 0.02100 0.18600 0.05000
v 0.02100 0.00000 -0.06600
v 0.02500 0.00400 -0.06600
v 0.02100 0.00400 -0.07000
v 0.02100 0.19000 -0.06600
v 0.02100 0.18600 -0.07000
v 0.02500 0.18600 -0.06600
v -0.10100 0.00000 -0.06600
v -0.10500 0.00400 0.04600
v -0.10100 0.00000 0.04600
v -0.10500 0.00400 -0.06600
v -0.10100 0.00400 0.05000
v -0.10500 0.18600 0.04600
v -0.10100 0.18600 0.05000
v -0.10500 0.00400 0.04600
v -0.10100 0.19000 0.04600
v -0.10500 0.18600 -0.06600
v -0.10100 0.19000 -0.06600
v -0.10500 0.18600 0.04600
v -0.10100 0.18600 -0.07000
v -0.10500 0.00400 -0.06600
v -0.10100 0.00400 -0.07000
v -0.10500 0.18600 -0.06600
v 0.02100 0.00000 -0.06600
v -0.10100 0.00400 -0.07000
v -0.10100 0.00000 -0.06600
v 0.02100 0.00400 -0.07000
v -0.10100 0.19000 -0.06600
v 0.02100 0.18600 -0.07000
v 0.02100 0.19000 -0.06600
v -0.10100 0.18600 -0.07000
v 0.02500 0.18600 -0.06600
v 0.02100 0.00400 -0.07000
v 0.02500 0.00400 -0.06600
v 0.02100 0.18600 -0.07000
v 0.02100 0.00000 0.04600
v 0.02500 0.00400 -0.06600
v 0.02100 0.00000 -0.06600
v 0.02500 0.00400 0.04600
v 0.02100 0.19000 -0.06600
v 0.02500 0.18600 0.04600
v 0.02100 0.19000 0.04600
v 0.02500 0.18600 -0.06600
v 0.02100 0.18600 0.05000
v 0.02500 0.00400 0.04600
v 0.02100 0.00400 0.05000
v 0.02500 0.18600 0.04600
v -0.10100 0.00000 0.04600
v 0.02100 0.00400 0.05000
v 0.02100 0.00000 0.04600
v -0.10100 0.00400 0.05000
v 0.02100 0.19000 0.04600
v -0.10100 0.18600 0.05000
v -0.10100 0.19000 0.04600
v 0.02100 0.18600 0.05000
v -0.10100 0.00000 -0.06600
v 0.02100 0.00000 0.04600
v 0.02100 0.00000 -0.06600
v -0.10100 0.00000 0.04600
vn -0.0000 -0.0000 1.0000
vn -0.0000 -0.0000 1.0000
vn -0.0000 -0.0000 1.0000
vn -0.0000 -0.0000 1.0000
vn 1.0000 0.0000 -0.0000
vn 1.0000 0.0000 -0.0000
vn 1.0000 0.0000 -0.0000
vn 1.0000 0.0000 -0.0000
vn 0.0000 1.0000 -0.0000
vn 0.0000 1.0000 -0.0000
vn 0.0000 1.0000 -0.0000
vn 0.0000 1.0000 -0.0000
vn -1.0000 0.0000 -0.0000
vn -1.0000 0.0000 -0.0000
vn -1.0000 0.0000 -0.0000
vn -1.0000 0.0000 -0.0000
vn 0.0000 0.0000 -1.0000
vn 0.0000 0.0000 -1.0000
vn 0.0000 0.0000 -1.0000
vn 0.0000 0.0000 -1.0000
vn -0.5774 -0.5774 0.5774
vn -0.5774 -0.5774 0.5774
vn -0.5774 -0.5774 0.5774
vn -0.5773 0.5774 0.5774
vn -0.5773 0.5774 0.5774
vn -0.5773 0.5774 0.5774
vn -0.5773 -0.5774 -0.5774
vn -0.5773 -0.5774 -0.5774
vn -0.5773 -0.5774 -0.5774
vn -0.5773 0.5774 -0.5774
vn -0.5773 0.5774 -0.5774
vn -0.5773 0.5774 -0.5774
vn 0.5774 -0.5774 0.5773
vn 0.5774 -0.5774 0.5773
vn 0.5774 -0.5774 0.5773
vn 0.5772 0.5774 0.5775
vn 0.5772 0.5774 0.5775
vn 0.5772 0.5774 0.5775
vn 0.5773 -0.5774 -0.5774
vn 0.5773 -0.5774 -0.5774
vn 0.5773 -0.5774 -0.5774
vn 0.5773 0.5774 -0.5773
vn 0.5773 0.5774 -0.5773
vn 0.5773 0.5774 -0.5773
vn -0.7071 -0.7071 -0.0001
vn -0.7071 -0.7071 -0.0001
vn -0.7071 -0.7071 -0.0001
vn -0.7071 -0.7071 -0.0001
vn -0.7071 -0.0000 0.7071
vn -0.7071 -0.0000 0.7071
vn -0.7071 -0.0000 0.7071
vn -0.7071 -0.0000 0.7071
vn -0.7071 0.7071 -0.0000
vn -0.7071 0.7071 -0.0000
vn -0.7071 0.7071 -0.0000
vn -0.7071 0.7071 -0.0000
vn -0.7071 0.0000 -0.7071
vn -0.7071 0.0000 -0.7071
vn -0.7071 0.0000 -0.7071
vn -0.7071 0.0000 -0.7071
vn 0.0000 -0.7071 -0.7071
vn 0.0000 -0.7071 -0.7071
vn 0.0000 -0.7071 -0.7071
vn 0.0000 -0.7071 -0.7071
vn 0.0000 0.7071 -0.7071
vn 0.0000 0.7071 -0.7071
vn 0.0000 0.7071 -0.7071
vn 0.0000 0.7071 -0.7071
vn 0.7071 0.0000 -0.7071
vn 0.7071 0.0000 -0.7071
vn 0.7071 0.0000 -0.7071
vn 0.7071 0.0000 -0.7071
vn 0.7071 -0.7071 -0.0000
vn 0.7071 -0.7071 -0.0000
vn 0.7071 -0.7071 -0.0000
vn 0.7071 -0.7071 -0.0000
vn 0.7071 0.7071 0.0000
vn 0.7071 0.7071 0.0000
vn 0.7071 0.7071 0.0000
vn 0.7071 0.7071 0.0000
vn 0.7071 -0.0000 0.7071
vn 0.7071 -0.0000 0.7071
vn 0.7071 -0.0000 0.7071
vn 0.7071 -0.0000 0.7071
vn -0.0000 -0.7071 0.7071
vn -0.0000 -0.7071 0.7071
vn -0.0000 -0.7071 0.7071
vn -0.0000 -0.7071 0.7071
vn -0.0000 0.7071 0.7071
vn -0.0000 0.7071 0.7071
vn -0.0000 0.7071 0.7071
vn -0.0000 0.7071 0.7071
vn 0.0000 -1.0000 -0.0000
vn 0.0000 -1.0000 -0.0000
vn 0.0000 -1.0000 -0.0000
vn 0.0000 -1.0000 -0.0000
f 1//1 3//3 2//2
f 1//1 2//2 4//4
f 5//5 7//7 6//6
f 5//5 6//6 8//8
f 9//9 11//11 10//10
f 9//9 10//10 12//12
f 13//13 15//15 14//14
f 13//13 14//14 16//16
f 17//17 19//19 18//18
f 17//17 18//18 20//20
f 21//21 23//23 22//22
f 24//24 26//26 25//25
f 27//27 29//29 28//28
f 30//30 32//32 31//31
f 33//33 35//35 34//34
f 36//36 38//38 37//37
f 39//39 41//41 40//40
f 42//42 44//44 43//43
f 45//45 47//47 46//46
f 45//45 46//46 48//48
f 49//49 51//51 50//50
f 49//49 50//50 52//52
f 53//53 55//55 54//54
f 53//53 54//54 56//56
f 57//57 59//59 58//58
f 57//57 58//58 60//60
f 61//61 63//63 62//62
f 61//61 62//62 64//64
f 65//65 67//67 66//66
f 65//65 66//66 68//68
f 69//69 71//71 70//70
f 69//69 70//70 72//72
f 73//73 75//75 74//74
f 73//73 74//74 76//76
f 77//77 79//79 78//78
f 77//77 78//78 80//80
f 81//81 83//83 82//82
f 81//81 82//82 84//84
f 85//85 87//87 86//86
f 85//85 86//86 88//88
f 89//89 91//91 90//90
f 89//89 90//90 92//92
f 93//93 95//95 94//94
f 93//93 94//94 96//96
g core_roof_hall
usemtl roof_hall
v -0.11600 0.19000 0.06700
v -0.11600 0.19000 -0.08700
v -0.11600 0.30000 -0.01000
v 0.03600 0.19000 0.06700
v 0.03600 0.30000 -0.01000
v 0.03600 0.19000 -0.08700
v -0.11600 0.19000 0.06700
v 0.03600 0.30000 -0.01000
v 0.03600 0.19000 0.06700
v -0.11600 0.30000 -0.01000
v -0.11600 0.19000 -0.08700
v 0.03600 0.30000 -0.01000
v -0.11600 0.30000 -0.01000
v 0.03600 0.19000 -0.08700
v -0.11600 0.19000 0.06700
v 0.03600 0.19000 -0.08700
v -0.11600 0.19000 -0.08700
v 0.03600 0.19000 0.06700
vn 0.0000 1.0000 -0.0000
vn 0.0000 1.0000 -0.0000
vn 0.0000 1.0000 -0.0000
vn 0.7071 -0.0000 0.7071
vn 0.7071 -0.0000 0.7071
vn 0.7071 -0.0000 0.7071
vn 0.1992 0.2946 0.9346
vn 0.1992 0.2946 0.9346
vn 0.1992 0.2946 0.9346
vn 0.1992 0.2946 0.9346
vn 0.5419 -0.8015 -0.2527
vn 0.5419 -0.8015 -0.2527
vn 0.5419 -0.8015 -0.2527
vn 0.5419 -0.8015 -0.2527
vn -0.0000 -0.7071 0.7071
vn -0.0000 -0.7071 0.7071
vn -0.0000 -0.7071 0.7071
vn -0.0000 -0.7071 0.7071
f 97//97 99//99 98//98
f 100//100 102//102 101//101
f 103//103 105//105 104//104
f 103//103 104//104 106//106
f 107//107 109//109 108//108
f 107//107 108//108 110//110
f 111//111 113//113 112//112
f 111//111 112//112 114//114
g core_wood_dark
usemtl wood_dark
v -0.10400 0.00000 0.05900
v -0.10400 0.18999 0.04900
v -0.10400 0.18999 0.05900
v -0.10400 0.00000 0.04900
v -0.10400 0.00000 0.04900
v -0.09000 0.18999 0.04900
v -0.10400 0.18999 0.04900
v -0.09000 0.00000 0.04900
v -0.09000 0.00000 0.04900
v -0.09000 0.18999 0.05900
v -0.09000 0.18999 0.04900
v -0.09000 0.00000 0.05900
v -0.09000 0.00000 0.05900
v -0.10400 0.18999 0.05900
v -0.09000 0.18999 0.05900
v -0.10400 0.00000 0.05900
v -0.10400 0.00000 0.04900
v -0.09000 0.00000 0.05900
v -0.09000 0.00000 0.04900
v -0.10400 0.00000 0.05900
v -0.09000 0.18999 0.04900
v -0.10400 0.18999 0.05900
v -0.10400 0.18999 0.04900
v -0.09000 0.18999 0.05900
v 0.01000 0.00000 0.05900
v 0.01000 0.18999 0.04900
v 0.01000 0.18999 0.05900
v 0.01000 0.00000 0.04900
v 0.01000 0.00000 0.04900
v 0.02400 0.18999 0.04900
v 0.01000 0.18999 0.04900
v 0.02400 0.00000 0.04900
v 0.02400 0.00000 0.04900
v 0.02400 0.18999 0.05900
v 0.02400 0.18999 0.04900
v 0.02400 0.00000 0.05900
v 0.02400 0.00000 0.05900
v 0.01000 0.18999 0.05900
v 0.02400 0.18999 0.05900
v 0.01000 0.00000 0.05900
v 0.01000 0.00000 0.04900
v 0.02400 0.00000 0.05900
v 0.02400 0.00000 0.04900
v 0.01000 0.00000 0.05900
v 0.02400 0.18999 0.04900
v 0.01000 0.18999 0.05900
v 0.01000 0.18999 0.04900
v 0.02400 0.18999 0.05900
v -0.10500 0.10450 0.05900
v -0.10500 0.11850 0.04900
v -0.10500 0.11850 0.05900
v -0.10500 0.10450 0.04900
v -0.10500 0.10450 0.04900
v 0.02500 0.11850 0.04900
v -0.10500 0.11850 0.04900
v 0.02500 0.10450 0.04900
v 0.02500 0.10450 0.04900
v 0.02500 0.11850 0.05900
v 0.02500 0.11850 0.04900
v 0.02500 0.10450 0.05900
v 0.02500 0.10450 0.05900
v -0.10500 0.11850 0.05900
v 0.02500 0.11850 0.05900
v -0.10500 0.10450 0.05900
v -0.10500 0.10450 0.04900
v 0.02500 0.10450 0.05900
v 0.02500 0.10450 0.04900
v -0.10500 0.10450 0.05900
v 0.02500 0.11850 0.04900
v -0.10500 0.11850 0.05900
v -0.10500 0.11850 0.04900
v 0.02500 0.11850 0.05900
v 0.04000 0.25800 0.03300
v 0.07400 0.24889 0.06700
v 0.04000 0.25800 0.06700
v 0.07400 0.24889 0.03300
v 0.07400 0.24889 0.03300
v 0.09889 0.22399 0.06700
v 0.07400 0.24889 0.06700
v 0.09889 0.22399 0.03300
v 0.09889 0.22399 0.03300
v 0.10800 0.18999 0.06700
v 0.09889 0.22399 0.06700
v 0.10800 0.18999 0.03300
v 0.10800 0.18999 0.03300
v 0.09889 0.15600 0.06700
v 0.10800 0.18999 0.06700
v 0.09889 0.15600 0.03300
v 0.09889 0.15600 0.03300
v 0.07400 0.13111 0.06700
v 0.09889 0.15600 0.06700
v 0.07400 0.13111 0.03300
v 0.07400 0.13111 0.03300
v 0.04000 0.12200 0.06700
v 0.07400 0.13111 0.06700
v 0.04000 0.12200 0.03300
v 0.04000 0.12200 0.03300
v 0.00600 0.13111 0.06700
v 0.04000 0.12200 0.06700
v 0.00600 0.13111 0.03300
v 0.00600 0.13111 0.03300
v -0.01889 0.15600 0.06700
v 0.00600 0.13111 0.06700
v -0.01889 0.15600 0.03300
v -0.01889 0.15600 0.03300
v -0.02800 0.18999 0.06700
v -0.01889 0.15600 0.06700
v -0.02800 0.18999 0.03300
v -0.02800 0.18999 0.03300
v -0.01889 0.22399 0.06700
v -0.02800 0.18999 0.06700
v -0.01889 0.22399 0.03300
v 0.09889 0.22399 0.06700
v 0.04000 0.25800 0.06700
v 0.07400 0.24889 0.06700
v -0.01889 0.22399 0.06700
v 0.00600 0.24889 0.06700
v 0.09889 0.15600 0.06700
v 0.10800 0.18999 0.06700
v 0.04000 0.12200 0.06700
v 0.07400 0.13111 0.06700
v -0.01889 0.15600 0.06700
v 0.00600 0.13111 0.06700
v -0.02800 0.18999 0.06700
v -0.01889 0.22399 0.03300
v 0.00600 0.24889 0.06700
v -0.01889 0.22399 0.06700
v 0.00600 0.24889 0.03300
v 0.00600 0.24889 0.03300
v 0.04000 0.25800 0.06700
v 0.00600 0.24889 0.06700
v 0.04000 0.25800 0.03300
v 0.00600 0.24889 0.03300
v 0.07400 0.24889 0.03300
v 0.04000 0.25800 0.03300
v 0.10800 0.18999 0.03300
v 0.09889 0.22399 0.03300
v -0.02800 0.18999 0.03300
v -0.01889 0.22399 0.03300
v 0.00600 0.13111 0.03300
v -0.01889 0.15600 0.03300
v 0.07400 0.13111 0.03300
v 0.04000 0.12200 0.03300
v 0.09889 0.15600 0.03300
v -0.08500 0.00000 0.06000
v -0.08500 0.07499 0.04800
v -0.08500 0.07499 0.06000
v -0.08500 0.00000 0.04800
v -0.08500 0.00000 0.04800
v -0.04500 0.07499 0.04800
v -0.08500 0.07499 0.04800
v -0.04500 0.00000 0.04800
v -0.04500 0.00000 0.04800
v -0.04500 0.07499 0.06000
v -0.04500 0.07499 0.04800
v -0.04500 0.00000 0.06000
v -0.04500 0.00000 0.06000
v -0.08500 0.07499 0.06000
v -0.04500 0.07499 0.06000
v -0.08500 0.00000 0.06000
v -0.08500 0.00000 0.04800
v -0.04500 0.00000 0.06000
v -0.04500 0.00000 0.04800
v -0.08500 0.00000 0.06000
v -0.04500 0.07499 0.04800
v -0.08500 0.07499 0.06000
v -0.08500 0.07499 0.04800
v -0.04500 0.07499 0.06000
v 0.02800 0.13800 0.08300
v 0.02800 0.24200 0.07500
v 0.02800 0.24200 0.08300
v 0.02800 0.13800 0.07500
v 0.02800 0.13800 0.07500
v 0.05200 0.24200 0.07500
v 0.02800 0.24200 0.07500
v 0.05200 0.13800 0.07500
v 0.05200 0.13800 0.07500
v 0.05200 0.24200 0.08300
v 0.05200 0.24200 0.07500
v 0.05200 0.13800 0.08300
v 0.05200 0.13800 0.08300
v 0.02800 0.24200 0.08300
v 0.05200 0.24200 0.08300
v 0.02800 0.13800 0.08300
v 0.02800 0.13800 0.07500
v 0.05200 0.13800 0.08300
v 0.05200 0.13800 0.07500
v 0.02800 0.13800 0.08300
v 0.05200 0.24200 0.07500
v 0.02800 0.24200 0.08300
v 0.02800 0.24200 0.07500
v 0.05200 0.24200 0.08300
v -0.01200 0.17800 0.08300
v -0.01200 0.20200 0.07500
v -0.01200 0.20200 0.08300
v -0.01200 0.17800 0.07500
v -0.01200 0.17800 0.07500
v 0.09200 0.20200 0.07500
v -0.01200 0.20200 0.07500
v 0.09200 0.17800 0.07500
v 0.09200 0.17800 0.07500
v 0.09200 0.20200 0.08300
v 0.09200 0.20200 0.07500
v 0.09200 0.17800 0.08300
v 0.09200 0.17800 0.08300
v -0.01200 0.20200 0.08300
v 0.09200 0.20200 0.08300
v -0.01200 0.17800 0.08300
v -0.01200 0.17800 0.07500
v 0.09200 0.17800 0.08300
v 0.09200 0.17800 0.07500
v -0.01200 0.17800 0.08300
v 0.09200 0.20200 0.07500
v -0.01200 0.20200 0.08300
v -0.01200 0.20200 0.07500
v 0.09200 0.20200 0.08300
v 0.04000 0.20799 0.07200
v 0.05273 0.20272 0.08400
v 0.04000 0.20799 0.08400
v 0.05273 0.20272 0.07200
v 0.05273 0.20272 0.07200
v 0.05800 0.18999 0.08400
v 0.05273 0.20272 0.08400
v 0.05800 0.18999 0.07200
v 0.05800 0.18999 0.07200
v 0.05273 0.17727 0.08400
v 0.05800 0.18999 0.08400
v 0.05273 0.17727 0.07200
v 0.05273 0.17727 0.07200
v 0.04000 0.17200 0.08400
v 0.05273 0.17727 0.08400
v 0.04000 0.17200 0.07200
v 0.04000 0.17200 0.07200
v 0.02727 0.17727 0.08400
v 0.04000 0.17200 0.08400
v 0.02727 0.17727 0.07200
v 0.02727 0.17727 0.07200
v 0.02200 0.18999 0.08400
v 0.02727 0.17727 0.08400
v 0.02200 0.18999 0.07200
v 0.05800 0.18999 0.08400
v 0.04000 0.20799 0.08400
v 0.05273 0.20272 0.08400
v 0.02200 0.18999 0.08400
v 0.02727 0.20272 0.08400
v 0.04000 0.17200 0.08400
v 0.05273 0.17727 0.08400
v 0.02727 0.17727 0.08400
v 0.02200 0.18999 0.07200
v 0.02727 0.20272 0.08400
v 0.02200 0.18999 0.08400
v 0.02727 0.20272 0.07200
v 0.02727 0.20272 0.07200
v 0.04000 0.20799 0.08400
v 0.02727 0.20272 0.08400
v 0.04000 0.20799 0.07200
v 0.02727 0.20272 0.07200
v 0.05273 0.20272 0.07200
v 0.04000 0.20799 0.07200
v 0.05273 0.17727 0.07200
v 0.05800 0.18999 0.07200
v 0.02727 0.17727 0.07200
v 0.02200 0.18999 0.07200
v 0.04000 0.17200 0.07200
v 0.08300 0.42000 -0.03400
v 0.09512 0.47000 -0.02700
v 0.08300 0.47000 -0.03400
v 0.09512 0.42000 -0.02700
v 0.09512 0.42000 -0.02700
v 0.09512 0.47000 -0.01300
v 0.09512 0.47000 -0.02700
v 0.09512 0.42000 -0.01300
v 0.09512 0.42000 -0.01300
v 0.08300 0.47000 -0.00600
v 0.09512 0.47000 -0.01300
v 0.08300 0.42000 -0.00600
v 0.08300 0.42000 -0.00600
v 0.07087 0.47000 -0.01300
v 0.08300 0.47000 -0.00600
v 0.07087 0.42000 -0.01300
v 0.09512 0.47000 -0.01300
v 0.08300 0.47000 -0.03400
v 0.09512 0.47000 -0.02700
v 0.07087 0.47000 -0.01300
v 0.08300 0.47000 -0.00600
v 0.07087 0.47000 -0.02700
v 0.07087 0.42000 -0.01300
v 0.07087 0.47000 -0.02700
v 0.07087 0.47000 -0.01300
v 0.07087 0.42000 -0.02700
v 0.07087 0.42000 -0.02700
v 0.08300 0.47000 -0.03400
v 0.07087 0.47000 -0.02700
v 0.08300 0.42000 -0.03400
v 0.07087 0.42000 -0.02700
v 0.09512 0.42000 -0.02700
v 0.08300 0.42000 -0.03400
v 0.08300 0.42000 -0.00600
v 0.07087 0.42000 -0.01300
v 0.09512 0.42000 -0.01300
vn 0.0000 1.0000 -0.0000
vn 0.0000 1.0000 -0.0000
vn 0.0000 1.0000 -0.0000
vn 0.0000 1.0000 -0.0000
vn -0.7071 0.7071 -0.0000
vn -0.7071 0.7071 -0.0000
vn -0.7071 0.7071 -0.0000
vn -0.7071 0.7071 -0.0000
vn 0.7071 -0.0000 0.7071
vn 0.7071 -0.0000 0.7071
vn 0.7071 -0.0000 0.7071
vn 0.7071 -0.0000 0.7071
vn -0.0000 -0.0000 1.0000
vn -0.0000 -0.0000 1.0000
vn -0.0000 -0.0000 1.0000
vn -0.0000 -0.0000 1.0000
vn -0.0000 -0.7071 0.7071
vn -0.0000 -0.7071 0.7071
vn -0.0000 -0.7071 0.7071
vn -0.0000 -0.7071 0.7071
vn -0.0000 0.7071 0.7071
vn -0.0000 0.7071 0.7071
vn -0.0000 0.7071 0.7071
vn -0.0000 0.7071 0.7071
vn 0.0000 1.0000 -0.0000
vn 0.0000 1.0000 -0.0000
vn 0.0000 1.0000 -0.0000
vn 0.0000 1.0000 -0.0000
vn -0.7071 0.7071 -0.0000
vn -0.7071 0.7071 -0.0000
vn -0.7071 0.7071 -0.0000
vn -0.7071 0.7071 -0.0000
vn 0.7071 -0.0000 0.7071
vn 0.7071 -0.0000 0.7071
vn 0.7071 -0.0000 0.7071
vn 0.7071 -0.0000 0.7071
vn -0.0000 -0.0000 1.0000
vn -0.0000 -0.0000 1.0000
vn -0.0000 -0.0000 1.0000
vn -0.0000 -0.0000 1.0000
vn -0.0000 -0.7071 0.7071
vn -0.0000 -0.7071 0.7071
vn -0.0000 -0.7071 0.7071
vn -0.0000 -0.7071 0.7071
vn -0.0000 0.7071 0.7071
vn -0.0000 0.7071 0.7071
vn -0.0000 0.7071 0.7071
vn -0.0000 0.7071 0.7071
vn 0.0000 1.0000 -0.0000
vn 0.0000 1.0000 -0.0000
vn 0.0000 1.0000 -0.0000
vn 0.0000 1.0000 -0.0000
vn -0.7071 0.7071 -0.0000
vn -0.7071 0.7071 -0.0000
vn -0.7071 0.7071 -0.0000
vn -0.7071 0.7071 -0.0000
vn 0.7071 -0.0000 0.7071
vn 0.7071 -0.0000 0.7071
vn 0.7071 -0.0000 0.7071
vn 0.7071 -0.0000 0.7071
vn -0.0000 -0.0000 1.0000
vn -0.0000 -0.0000 1.0000
vn -0.0000 -0.0000 1.0000
vn -0.0000 -0.0000 1.0000
vn -0.0000 -0.7071 0.7071
vn -0.0000 -0.7071 0.7071
vn -0.0000 -0.7071 0.7071
vn -0.0000 -0.7071 0.7071
vn -0.0000 0.7071 0.7071
vn -0.0000 0.7071 0.7071
vn -0.0000 0.7071 0.7071
vn -0.0000 0.7071 0.7071
vn -0.1168 -0.6990 -0.7055
vn -0.1168 -0.6990 -0.7055
vn -0.1168 -0.6990 -0.7055
vn -0.1168 -0.6990 -0.7055
vn -0.4566 -0.5416 -0.7059
vn -0.4566 -0.5416 -0.7059
vn -0.4566 -0.5416 -0.7059
vn -0.4566 -0.5416 -0.7059
vn -0.6822 -0.1860 -0.7071
vn -0.6822 -0.1860 -0.7071
vn -0.6822 -0.1860 -0.7071
vn -0.6822 -0.1860 -0.7071
vn 0.6822 -0.1860 0.7071
vn 0.6822 -0.1860 0.7071
vn 0.6822 -0.1860 0.7071
vn 0.6822 -0.1860 0.7071
vn 0.4566 -0.5416 0.7058
vn 0.4566 -0.5416 0.7058
vn 0.4566 -0.5416 0.7058
vn 0.4566 -0.5416 0.7058
vn 0.1167 -0.6991 0.7055
vn 0.1167 -0.6991 0.7055
vn 0.1167 -0.6991 0.7055
vn 0.1167 -0.6991 0.7055
vn 0.0684 0.7087 -0.7022
vn 0.0684 0.7087 -0.7022
vn 0.0684 0.7087 -0.7022
vn 0.0684 0.7087 -0.7022
vn 0.0674 0.7916 -0.6073
vn 0.0674 0.7916 -0.6073
vn 0.0674 0.7916 -0.6073
vn 0.0674 0.7916 -0.6073
vn 0.0043 0.9671 -0.2544
vn 0.0043 0.9671 -0.2544
vn 0.0043 0.9671 -0.2544
vn 0.0043 0.9671 -0.2544
vn -0.0043 0.9671 0.2544
vn -0.0043 0.9671 0.2544
vn -0.0043 0.9671 0.2544
vn -0.0043 0.9671 0.2544
vn -0.0000 -0.0000 1.0000
vn -0.0000 -0.0000 1.0000
vn -0.0000 -0.0000 1.0000
vn -0.0000 -0.0000 1.0000
vn -0.0000 -0.0000 1.0000
vn -0.0000 -0.0000 1.0000
vn -0.0000 -0.0000 1.0000
vn -0.0000 -0.0000 1.0000
vn -0.0000 -0.0000 1.0000
vn -0.0000 -0.0000 1.0000
vn -0.0000 -0.0000 1.0000
vn -0.0000 -0.0000 1.0000
vn -0.0674 0.7915 0.6074
vn -0.0674 0.7915 0.6074
vn -0.0674 0.7915 0.6074
vn -0.0674 0.7915 0.6074
vn -0.0685 0.7086 0.7022
vn -0.0685 0.7086 0.7022
vn -0.0685 0.7086 0.7022
vn -0.0685 0.7086 0.7022
vn -0.7071 0.7071 -0.0000
vn -0.7071 0.7071 -0.0000
vn -0.7071 0.7071 -0.0000
vn -0.7071 0.7071 -0.0000
vn -0.7071 0.7071 -0.0000
vn -0.7071 0.7071 -0.0000
vn -0.7071 0.7071 -0.0000
vn -0.7071 0.7071 -0.0000
vn -0.7071 0.7071 -0.0000
vn -0.7071 0.7071 -0.0000
vn -0.7071 0.7071 -0.0000
vn -0.7071 0.7071 -0.0000
vn 0.0000 1.0000 -0.0000
vn 0.0000 1.0000 -0.0000
vn 0.0000 1.0000 -0.0000
vn 0.0000 1.0000 -0.0000
vn -0.7071 0.7071 -0.0000
vn -0.7071 0.7071 -0.0000
vn -0.7071 0.7071 -0.0000
vn -0.7071 0.7071 -0.0000
vn 0.7071 -0.0000 0.7071
vn 0.7071 -0.0000 0.7071
vn 0.7071 -0.0000 0.7071
vn 0.7071 -0.0000 0.7071
vn -0.0000 -0.0000 1.0000
vn -0.0000 -0.0000 1.0000
vn -0.0000 -0.0000 1.0000
vn -0.0000 -0.0000 1.0000
vn -0.0000 -0.7071 0.7071
vn -0.0000 -0.7071 0.7071
vn -0.0000 -0.7071 0.7071
vn -0.0000 -0.7071 0.7071
vn -0.0000 0.7071 0.7071
vn -0.0000 0.7071 0.7071
vn -0.0000 0.7071 0.7071
vn -0.0000 0.7071 0.7071
vn 0.0000 1.0000 -0.0000
vn 0.0000 1.0000 -0.0000
vn 0.0000 1.0000 -0.0000
vn 0.0000 1.0000 -0.0000
vn -0.7071 0.7071 -0.0000
vn -0.7071 0.7071 -0.0000
vn -0.7071 0.7071 -0.0000
vn -0.7071 0.7071 -0.0000
vn 0.7071 -0.0000 0.7071
vn 0.7071 -0.0000 0.7071
vn 0.7071 -0.0000 0.7071
vn 0.7071 -0.0000 0.7071
vn -0.0000 -0.0000 1.0000
vn -0.0000 -0.0000 1.0000
vn -0.0000 -0.0000 1.0000
vn -0.0000 -0.0000 1.0000
vn -0.0000 -0.7071 0.7071
vn -0.0000 -0.7071 0.7071
vn -0.0000 -0.7071 0.7071
vn -0.0000 -0.7071 0.7071
vn -0.0000 0.7071 0.7071
vn -0.0000 0.7071 0.7071
vn -0.0000 0.7071 0.7071
vn -0.0000 0.7071 0.7071
vn 0.0000 1.0000 -0.0000
vn 0.0000 1.0000 -0.0000
vn 0.0000 1.0000 -0.0000
vn 0.0000 1.0000 -0.0000
vn -0.7071 0.7071 -0.0000
vn -0.7071 0.7071 -0.0000
vn -0.7071 0.7071 -0.0000
vn -0.7071 0.7071 -0.0000
vn 0.7071 -0.0000 0.7071
vn 0.7071 -0.0000 0.7071
vn 0.7071 -0.0000 0.7071
vn 0.7071 -0.0000 0.7071
vn -0.0000 -0.0000 1.0000
vn -0.0000 -0.0000 1.0000
vn -0.0000 -0.0000 1.0000
vn -0.0000 -0.0000 1.0000
vn -0.0000 -0.7071 0.7071
vn -0.0000 -0.7071 0.7071
vn -0.0000 -0.7071 0.7071
vn -0.0000 -0.7071 0.7071
vn -0.0000 0.7071 0.7071
vn -0.0000 0.7071 0.7071
vn -0.0000 0.7071 0.7071
vn -0.0000 0.7071 0.7071
vn -0.1926 -0.6828 -0.7047
vn -0.1926 -0.6828 -0.7047
vn -0.1926 -0.6828 -0.7047
vn -0.1926 -0.6828 -0.7047
vn -0.6493 -0.2800 -0.7071
vn -0.6493 -0.2800 -0.7071
vn -0.6493 -0.2800 -0.7071
vn -0.6493 -0.2800 -0.7071
vn 0.6493 -0.2800 0.7071
vn 0.6493 -0.2800 0.7071
vn 0.6493 -0.2800 0.7071
vn 0.6493 -0.2800 0.7071
vn 0.1926 -0.6829 0.7046
vn 0.1926 -0.6829 0.7046
vn 0.1926 -0.6829 0.7046
vn 0.1926 -0.6829 0.7046
vn 0.0846 0.7155 -0.6934
vn 0.0846 0.7155 -0.6934
vn 0.0846 0.7155 -0.6934
vn 0.0846 0.7155 -0.6934
vn 0.0134 0.9297 -0.3681
vn 0.0134 0.9297 -0.3681
vn 0.0134 0.9297 -0.3681
vn 0.0134 0.9297 -0.3681
vn -0.0000 -0.0000 1.0000
vn -0.0000 -0.0000 1.0000
vn -0.0000 -0.0000 1.0000
vn -0.0000 -0.0000 1.0000
vn -0.0000 -0.0000 1.0000
vn -0.0000 -0.0000 1.0000
vn -0.0000 -0.0000 1.0000
vn -0.0000 -0.0000 1.0000
vn -0.0134 0.9297 0.3682
vn -0.0134 0.9297 0.3682
vn -0.0134 0.9297 0.3682
vn -0.0134 0.9297 0.3682
vn -0.0847 0.7155 0.6935
vn -0.0847 0.7155 0.6935
vn -0.0847 0.7155 0.6935
vn -0.0847 0.7155 0.6935
vn -0.7071 0.7071 -0.0000
vn -0.7071 0.7071 -0.0000
vn -0.7071 0.7071 -0.0000
vn -0.7071 0.7071 -0.0000
vn -0.7071 0.7071 -0.0000
vn -0.7071 0.7071 -0.0000
vn -0.7071 0.7071 -0.0000
vn -0.7071 0.7071 -0.0000
vn 0.8581 -0.4592 0.2299
vn 0.8581 -0.4592 0.2299
vn 0.8581 -0.4592 0.2299
vn 0.8581 -0.4592 0.2299
vn 0.7071 -0.0000 0.7071
vn 0.7071 -0.0000 0.7071
vn 0.7071 -0.0000 0.7071
vn 0.7071 -0.0000 0.7071
vn 0.2563 -0.1372 0.9568
vn 0.2563 -0.1372 0.9568
vn 0.2563 -0.1372 0.9568
vn 0.2563 -0.1372 0.9568
vn -0.2330 0.4353 0.8696
vn -0.2330 0.4353 0.8696
vn -0.2330 0.4353 0.8696
vn -0.2330 0.4353 0.8696
vn -0.0000 0.7071 0.7071
vn -0.0000 0.7071 0.7071
vn -0.0000 0.7071 0.7071
vn -0.0000 0.7071 0.7071
vn -0.0000 0.7071 0.7071
vn -0.0000 0.7071 0.7071
vn 0.0000 1.0000 -0.0000
vn 0.0000 1.0000 -0.0000
vn 0.0000 1.0000 -0.0000
vn 0.0000 1.0000 -0.0000
vn -0.4681 0.8747 0.1254
vn -0.4681 0.8747 0.1254
vn -0.4681 0.8747 0.1254
vn -0.4681 0.8747 0.1254
vn -0.0000 -0.7071 0.7071
vn -0.0000 -0.7071 0.7071
vn -0.0000 -0.7071 0.7071
vn -0.0000 -0.7071 0.7071
vn -0.0000 -0.7071 0.7071
vn -0.0000 -0.7071 0.7071
f 115//115 117//117 116//116
f 115//115 116//116 118//118
f 119//119 121//121 120//120
f 119//119 120//120 122//122
f 123//123 125//125 124//124
f 123//123 124//124 126//126
f 127//127 129//129 128//128
f 127//127 128//128 130//130
f 131//131 133//133 132//132
f 131//131 132//132 134//134
f 135//135 137//137 136//136
f 135//135 136//136 138//138
f 139//139 141//141 140//140
f 139//139 140//140 142//142
f 143//143 145//145 144//144
f 143//143 144//144 146//146
f 147//147 149//149 148//148
f 147//147 148//148 150//150
f 151//151 153//153 152//152
f 151//151 152//152 154//154
f 155//155 157//157 156//156
f 155//155 156//156 158//158
f 159//159 161//161 160//160
f 159//159 160//160 162//162
f 163//163 165//165 164//164
f 163//163 164//164 166//166
f 167//167 169//169 168//168
f 167//167 168//168 170//170
f 171//171 173//173 172//172
f 171//171 172//172 174//174
f 175//175 177//177 176//176
f 175//175 176//176 178//178
f 179//179 181//181 180//180
f 179//179 180//180 182//182
f 183//183 185//185 184//184
f 183//183 184//184 186//186
f 259//259 261//261 260//260
f 259//259 260//260 262//262
f 263//263 265//265 264//264
f 263//263 264//264 266//266
f 267//267 269//269 268//268
f 267//267 268//268 270//270
f 271//271 273//273 272//272
f 271//271 272//272 274//274
f 275//275 277//277 276//276
f 275//275 276//276 278//278
f 279//279 281//281 280//280
f 279//279 280//280 282//282
f 187//187 189//189 188//188
f 187//187 188//188 190//190
f 191//191 193//193 192//192
f 191//191 192//192 194//194
f 195//195 197//197 196//196
f 195//195 196//196 198//198
f 199//199 201//201 200//200
f 199//199 200//200 202//202
f 203//203 205//205 204//204
f 203//203 204//204 206//206
f 207//207 209//209 208//208
f 207//207 208//208 210//210
f 211//211 213//213 212//212
f 211//211 212//212 214//214
f 215//215 217//217 216//216
f 215//215 216//216 218//218
f 219//219 221//221 220//220
f 219//219 220//220 222//222
f 223//223 225//225 224//224
f 223//223 224//224 226//226
f 227//227 229//229 228//228
f 227//227 228//228 230//230
f 228//228 231//231 230//230
f 232//232 233//233 227//227
f 234//234 232//232 227//227
f 230//230 234//234 227//227
f 234//234 235//235 232//232
f 230//230 236//236 234//234
f 236//236 237//237 234//234
f 230//230 238//238 236//236
f 239//239 241//241 240//240
f 239//239 240//240 242//242
f 243//243 245//245 244//244
f 243//243 244//244 246//246
f 247//247 249//249 248//248
f 247//247 248//248 250//250
f 248//248 251//251 250//250
f 252//252 253//253 247//247
f 254//254 252//252 247//247
f 250//250 254//254 247//247
f 254//254 255//255 252//252
f 250//250 256//256 254//254
f 256//256 257//257 254//254
f 250//250 258//258 256//256
f 283//283 285//285 284//284
f 283//283 284//284 286//286
f 287//287 289//289 288//288
f 287//287 288//288 290//290
f 291//291 293//293 292//292
f 291//291 292//292 294//294
f 295//295 297//297 296//296
f 295//295 296//296 298//298
f 299//299 301//301 300//300
f 299//299 300//300 302//302
f 303//303 305//305 304//304
f 303//303 304//304 306//306
f 307//307 309//309 308//308
f 307//307 308//308 310//310
f 311//311 313//313 312//312
f 311//311 312//312 314//314
f 315//315 317//317 316//316
f 315//315 316//316 318//318
f 319//319 321//321 320//320
f 319//319 320//320 322//322
f 323//323 325//325 324//324
f 323//323 324//324 326//326
f 327//327 329//329 328//328
f 327//327 328//328 330//330
f 331//331 333//333 332//332
f 331//331 332//332 334//334
f 335//335 337//337 336//336
f 335//335 336//336 338//338
f 339//339 341//341 340//340
f 339//339 340//340 342//342
f 343//343 345//345 344//344
f 343//343 344//344 346//346
f 347//347 349//349 348//348
f 347//347 348//348 350//350
f 351//351 353//353 352//352
f 351//351 352//352 354//354
f 355//355 357//357 356//356
f 355//355 356//356 358//358
f 356//356 359//359 358//358
f 358//358 360//360 355//355
f 360//360 361//361 355//355
f 358//358 362//362 360//360
f 363//363 365//365 364//364
f 363//363 364//364 366//366
f 367//367 369//369 368//368
f 367//367 368//368 370//370
f 371//371 373//373 372//372
f 371//371 372//372 374//374
f 372//372 375//375 374//374
f 374//374 376//376 371//371
f 376//376 377//377 371//371
f 374//374 378//378 376//376
f 379//379 381//381 380//380
f 379//379 380//380 382//382
f 383//383 385//385 384//384
f 383//383 384//384 386//386
f 387//387 389//389 388//388
f 387//387 388//388 390//390
f 391//391 393//393 392//392
f 391//391 392//392 394//394
f 395//395 397//397 396//396
f 396//396 398//398 395//395
f 398//398 399//399 395//395
f 396//396 400//400 398//398
f 401//401 403//403 402//402
f 401//401 402//402 404//404
f 405//405 407//407 406//406
f 405//405 406//406 408//408
f 409//409 411//411 410//410
f 410//410 412//412 409//409
f 412//412 413//413 409//409
f 410//410 414//414 412//412
g core_window
usemtl window
v -0.07900 0.12500 0.06000
v -0.07900 0.15900 0.04800
v -0.07900 0.15900 0.06000
v -0.07900 0.12500 0.04800
v -0.07900 0.12500 0.04800
v -0.05100 0.15900 0.04800
v -0.07900 0.15900 0.04800
v -0.05100 0.12500 0.04800
v -0.05100 0.12500 0.04800
v -0.05100 0.15900 0.06000
v -0.05100 0.15900 0.04800
v -0.05100 0.12500 0.06000
v -0.05100 0.12500 0.06000
v -0.07900 0.15900 0.06000
v -0.05100 0.15900 0.06000
v -0.07900 0.12500 0.06000
v -0.07900 0.12500 0.04800
v -0.05100 0.12500 0.06000
v -0.05100 0.12500 0.04800
v -0.07900 0.12500 0.06000
v -0.05100 0.15900 0.04800
v -0.07900 0.15900 0.06000
v -0.07900 0.15900 0.04800
v -0.05100 0.15900 0.06000
vn 0.0000 1.0000 -0.0000
vn 0.0000 1.0000 -0.0000
vn 0.0000 1.0000 -0.0000
vn 0.0000 1.0000 -0.0000
vn -0.7071 0.7071 -0.0000
vn -0.7071 0.7071 -0.0000
vn -0.7071 0.7071 -0.0000
vn -0.7071 0.7071 -0.0000
vn 0.7071 -0.0000 0.7071
vn 0.7071 -0.0000 0.7071
vn 0.7071 -0.0000 0.7071
vn 0.7071 -0.0000 0.7071
vn -0.0000 -0.0000 1.0000
vn -0.0000 -0.0000 1.0000
vn -0.0000 -0.0000 1.0000
vn -0.0000 -0.0000 1.0000
vn -0.0000 -0.7071 0.7071
vn -0.0000 -0.7071 0.7071
vn -0.0000 -0.7071 0.7071
vn -0.0000 -0.7071 0.7071
vn -0.0000 0.7071 0.7071
vn -0.0000 0.7071 0.7071
vn -0.0000 0.7071 0.7071
vn -0.0000 0.7071 0.7071
f 415//415 417//417 416//416
f 415//415 416//416 418//418
f 419//419 421//421 420//420
f 419//419 420//420 422//422
f 423//423 425//425 424//424
f 423//423 424//424 426//426
f 427//427 429//429 428//428
f 427//427 428//428 430//430
f 431//431 433//433 432//432
f 431//431 432//432 434//434
f 435//435 437//437 436//436
f 435//435 436//436 438//438
g core_wood
usemtl wood
v 0.06200 0.00000 0.00100
v 0.06200 0.42000 -0.04100
v 0.06200 0.42000 0.00100
v 0.06200 0.00000 -0.04100
v 0.06200 0.00000 -0.04100
v 0.10400 0.42000 -0.04100
v 0.06200 0.42000 -0.04100
v 0.10400 0.00000 -0.04100
v 0.10400 0.00000 -0.04100
v 0.10400 0.42000 0.00100
v 0.10400 0.42000 -0.04100
v 0.10400 0.00000 0.00100
v 0.10400 0.00000 0.00100
v 0.06200 0.42000 0.00100
v 0.10400 0.42000 0.00100
v 0.06200 0.00000 0.00100
v 0.06200 0.00000 -0.04100
v 0.10400 0.00000 0.00100
v 0.10400 0.00000 -0.04100
v 0.06200 0.00000 0.00100
v 0.10400 0.42000 -0.04100
v 0.06200 0.42000 0.00100
v 0.06200 0.42000 -0.04100
v 0.10400 0.42000 0.00100
v -0.05200 0.37500 -0.00000
v -0.05200 0.41499 -0.04000
v -0.05200 0.41499 -0.00000
v -0.05200 0.37500 -0.04000
v -0.05200 0.37500 -0.04000
v 0.09800 0.41499 -0.04000
v -0.05200 0.41499 -0.04000
v 0.09800 0.37500 -0.04000
v 0.09800 0.37500 -0.04000
v 0.09800 0.41499 -0.00000
v 0.09800 0.41499 -0.04000
v 0.09800 0.37500 -0.00000
v 0.09800 0.37500 -0.00000
v -0.05200 0.41499 -0.00000
v 0.09800 0.41499 -0.00000
v -0.05200 0.37500 -0.00000
v -0.05200 0.37500 -0.04000
v 0.09800 0.37500 -0.00000
v 0.09800 0.37500 -0.04000
v -0.05200 0.37500 -0.00000
v 0.09800 0.41499 -0.04000
v -0.05200 0.41499 -0.00000
v -0.05200 0.41499 -0.04000
v 0.09800 0.41499 -0.00000
v 0.06269 0.26842 -0.04000
v 0.02431 0.39158 -0.04000
v -0.00831 0.36842 -0.04000
v 0.09531 0.29157 -0.04000
v 0.09531 0.29157 -0.04000
v 0.02431 0.39158 -0.00000
v 0.02431 0.39158 -0.04000
v 0.09531 0.29157 -0.00000
v 0.09531 0.29157 -0.00000
v -0.00831 0.36842 -0.00000
v 0.02431 0.39158 -0.00000
v 0.06269 0.26842 -0.00000
v 0.06269 0.26842 -0.00000
v -0.00831 0.36842 -0.04000
v -0.00831 0.36842 -0.00000
v 0.06269 0.26842 -0.04000
v 0.09531 0.29157 -0.04000
v 0.06269 0.26842 -0.00000
v 0.09531 0.29157 -0.00000
v 0.06269 0.26842 -0.04000
v 0.02431 0.39158 -0.00000
v -0.00831 0.36842 -0.04000
v 0.02431 0.39158 -0.04000
v -0.00831 0.36842 -0.00000
v 0.04000 0.24200 0.06500
v 0.06600 0.23503 0.07500
v 0.04000 0.24200 0.07500
v 0.06600 0.23503 0.06500
v 0.06600 0.23503 0.06500
v 0.08503 0.21600 0.07500
v 0.06600 0.23503 0.07500
v 0.08503 0.21600 0.06500
v 0.08503 0.21600 0.06500
v 0.09200 0.18999 0.07500
v 0.08503 0.21600 0.07500
v 0.09200 0.18999 0.06500
v 0.09200 0.18999 0.06500
v 0.08503 0.16399 0.07500
v 0.09200 0.18999 0.07500
v 0.08503 0.16399 0.06500
v 0.08503 0.16399 0.06500
v 0.06600 0.14496 0.07500
v 0.08503 0.16399 0.07500
v 0.06600 0.14496 0.06500
v 0.06600 0.14496 0.06500
v 0.04000 0.13799 0.07500
v 0.06600 0.14496 0.07500
v 0.04000 0.13799 0.06500
v 0.04000 0.13799 0.06500
v 0.01400 0.14496 0.07500
v 0.04000 0.13799 0.07500
v 0.01400 0.14496 0.06500
v 0.01400 0.14496 0.06500
v -0.00503 0.16399 0.07500
v 0.01400 0.14496 0.07500
v -0.00503 0.16399 0.06500
v -0.00503 0.16399 0.06500
v -0.01200 0.18999 0.07500
v -0.00503 0.16399 0.07500
v -0.01200 0.18999 0.06500
v -0.01200 0.18999 0.06500
v -0.00503 0.21600 0.07500
v -0.01200 0.18999 0.07500
v -0.00503 0.21600 0.06500
v 0.08503 0.21600 0.07500
v 0.04000 0.24200 0.07500
v 0.06600 0.23503 0.07500
v -0.00503 0.21600 0.07500
v 0.01400 0.23503 0.07500
v 0.08503 0.16399 0.07500
v 0.09200 0.18999 0.07500
v 0.04000 0.13799 0.07500
v 0.06600 0.14496 0.07500
v -0.00503 0.16399 0.07500
v 0.01400 0.14496 0.07500
v -0.01200 0.18999 0.07500
v -0.00503 0.21600 0.06500
v 0.01400 0.23503 0.07500
v -0.00503 0.21600 0.07500
v 0.01400 0.23503 0.06500
v 0.01400 0.23503 0.06500
v 0.04000 0.24200 0.07500
v 0.01400 0.23503 0.07500
v 0.04000 0.24200 0.06500
v 0.01400 0.23503 0.06500
v 0.06600 0.23503 0.06500
v 0.04000 0.24200 0.06500
v 0.09200 0.18999 0.06500
v 0.08503 0.21600 0.06500
v -0.01200 0.18999 0.06500
v -0.00503 0.21600 0.06500
v 0.01400 0.14496 0.06500
v -0.00503 0.16399 0.06500
v 0.06600 0.14496 0.06500
v 0.04000 0.13799 0.06500
v 0.08503 0.16399 0.06500
vn 0.0000 1.0000 -0.0000
vn 0.0000 1.0000 -0.0000
vn 0.0000 1.0000 -0.0000
vn 0.0000 1.0000 -0.0000
vn -0.7071 0.7071 -0.0000
vn -0.7071 0.7071 -0.0000
vn -0.7071 0.7071 -0.0000
vn -0.7071 0.7071 -0.0000
vn 0.7071 -0.0000 0.7071
vn 0.7071 -0.0000 0.7071
vn 0.7071 -0.0000 0.7071
vn 0.7071 -0.0000 0.7071
vn -0.0000 -0.0000 1.0000
vn -0.0000 -0.0000 1.0000
vn -0.0000 -0.0000 1.0000
vn -0.0000 -0.0000 1.0000
vn -0.0000 -0.7071 0.7071
vn -0.0000 -0.7071 0.7071
vn -0.0000 -0.7071 0.7071
vn -0.0000 -0.7071 0.7071
vn -0.0000 0.7071 0.7071
vn -0.0000 0.7071 0.7071
vn -0.0000 0.7071 0.7071
vn -0.0000 0.7071 0.7071
vn 0.0000 1.0000 -0.0000
vn 0.0000 1.0000 -0.0000
vn 0.0000 1.0000 -0.0000
vn 0.0000 1.0000 -0.0000
vn -0.7071 0.7071 -0.0000
vn -0.7071 0.7071 -0.0000
vn -0.7071 0.7071 -0.0000
vn -0.7071 0.7071 -0.0000
vn 0.7071 -0.0000 0.7071
vn 0.7071 -0.0000 0.7071
vn 0.7071 -0.0000 0.7071
vn 0.7071 -0.0000 0.7071
vn -0.0000 -0.0000 1.0000
vn -0.0000 -0.0000 1.0000
vn -0.0000 -0.0000 1.0000
vn -0.0000 -0.0000 1.0000
vn -0.0000 -0.7071 0.7071
vn -0.0000 -0.7071 0.7071
vn -0.0000 -0.7071 0.7071
vn -0.0000 -0.7071 0.7071
vn -0.0000 0.7071 0.7071
vn -0.0000 0.7071 0.7071
vn -0.0000 0.7071 0.7071
vn -0.0000 0.7071 0.7071
vn -0.7071 0.7071 -0.0000
vn -0.7071 0.7071 -0.0000
vn -0.7071 0.7071 -0.0000
vn -0.7071 0.7071 -0.0000
vn -0.5559 -0.4376 -0.7067
vn -0.5559 -0.4376 -0.7067
vn -0.5559 -0.4376 -0.7067
vn -0.5559 -0.4376 -0.7067
vn -0.0000 -0.0000 1.0000
vn -0.0000 -0.0000 1.0000
vn -0.0000 -0.0000 1.0000
vn -0.0000 -0.0000 1.0000
vn 0.0421 0.8494 -0.5260
vn 0.0421 0.8494 -0.5260
vn 0.0421 0.8494 -0.5260
vn 0.0421 0.8494 -0.5260
vn 0.3424 -0.6213 0.7048
vn 0.3424 -0.6213 0.7048
vn 0.3424 -0.6213 0.7048
vn 0.3424 -0.6213 0.7048
vn -0.0854 0.7474 0.6589
vn -0.0854 0.7474 0.6589
vn -0.0854 0.7474 0.6589
vn -0.0854 0.7474 0.6589
vn -0.1168 -0.6990 -0.7055
vn -0.1168 -0.6990 -0.7055
vn -0.1168 -0.6990 -0.7055
vn -0.1168 -0.6990 -0.7055
vn -0.4566 -0.5416 -0.7059
vn -0.4566 -0.5416 -0.7059
vn -0.4566 -0.5416 -0.7059
vn -0.4566 -0.5416 -0.7059
vn -0.6822 -0.1860 -0.7071
vn -0.6822 -0.1860 -0.7071
vn -0.6822 -0.1860 -0.7071
vn -0.6822 -0.1860 -0.7071
vn 0.6822 -0.1860 0.7071
vn 0.6822 -0.1860 0.7071
vn 0.6822 -0.1860 0.7071
vn 0.6822 -0.1860 0.7071
vn 0.4566 -0.5416 0.7058
vn 0.4566 -0.5416 0.7058
vn 0.4566 -0.5416 0.7058
vn 0.4566 -0.5416 0.7058
vn 0.1167 -0.6991 0.7055
vn 0.1167 -0.6991 0.7055
vn 0.1167 -0.6991 0.7055
vn 0.1167 -0.6991 0.7055
vn 0.0684 0.7087 -0.7022
vn 0.0684 0.7087 -0.7022
vn 0.0684 0.7087 -0.7022
vn 0.0684 0.7087 -0.7022
vn 0.0674 0.7916 -0.6073
vn 0.0674 0.7916 -0.6073
vn 0.0674 0.7916 -0.6073
vn 0.0674 0.7916 -0.6073
vn 0.0043 0.9671 -0.2544
vn 0.0043 0.9671 -0.2544
vn 0.0043 0.9671 -0.2544
vn 0.0043 0.9671 -0.2544
vn -0.0043 0.9671 0.2544
vn -0.0043 0.9671 0.2544
vn -0.0043 0.9671 0.2544
vn -0.0043 0.9671 0.2544
vn -0.0000 -0.0000 1.0000
vn -0.0000 -0.0000 1.0000
vn -0.0000 -0.0000 1.0000
vn -0.0000 -0.0000 1.0000
vn -0.0000 -0.0000 1.0000
vn -0.0000 -0.0000 1.0000
vn -0.0000 -0.0000 1.0000
vn -0.0000 -0.0000 1.0000
vn -0.0000 -0.0000 1.0000
vn -0.0000 -0.0000 1.0000
vn -0.0000 -0.0000 1.0000
vn -0.0000 -0.0000 1.0000
vn -0.0674 0.7915 0.6074
vn -0.0674 0.7915 0.6074
vn -0.0674 0.7915 0.6074
vn -0.0674 0.7915 0.6074
vn -0.0685 0.7086 0.7022
vn -0.0685 0.7086 0.7022
vn -0.0685 0.7086 0.7022
vn -0.0685 0.7086 0.7022
vn -0.7071 0.7071 -0.0000
vn -0.7071 0.7071 -0.0000
vn -0.7071 0.7071 -0.0000
vn -0.7071 0.7071 -0.0000
vn -0.7071 0.7071 -0.0000
vn -0.7071 0.7071 -0.0000
vn -0.7071 0.7071 -0.0000
vn -0.7071 0.7071 -0.0000
vn -0.7071 0.7071 -0.0000
vn -0.7071 0.7071 -0.0000
vn -0.7071 0.7071 -0.0000
vn -0.7071 0.7071 -0.0000
f 439//439 441//441 440//440
f 439//439 440//440 442//442
f 443//443 445//445 444//444
f 443//443 444//444 446//446
f 447//447 449//449 448//448
f 447//447 448//448 450//450
f 451//451 453//453 452//452
f 451//451 452//452 454//454
f 455//455 457//457 456//456
f 455//455 456//456 458//458
f 459//459 461//461 460//460
f 459//459 460//460 462//462
f 463//463 465//465 464//464
f 463//463 464//464 466//466
f 467//467 469//469 468//468
f 467//467 468//468 470//470
f 471//471 473//473 472//472
f 471//471 472//472 474//474
f 475//475 477//477 476//476
f 475//475 476//476 478//478
f 479//479 481//481 480//480
f 479//479 480//480 482//482
f 483//483 485//485 484//484
f 483//483 484//484 486//486
f 487//487 489//489 488//488
f 487//487 488//488 490//490
f 491//491 493//493 492//492
f 491//491 492//492 494//494
f 495//495 497//497 496//496
f 495//495 496//496 498//498
f 499//499 501//501 500//500
f 499//499 500//500 502//502
f 503//503 505//505 504//504
f 503//503 504//504 506//506
f 507//507 509//509 508//508
f 507//507 508//508 510//510
f 511//511 513//513 512//512
f 511//511 512//512 514//514
f 515//515 517//517 516//516
f 515//515 516//516 518//518
f 519//519 521//521 520//520
f 519//519 520//520 522//522
f 523//523 525//525 524//524
f 523//523 524//524 526//526
f 527//527 529//529 528//528
f 527//527 528//528 530//530
f 531//531 533//533 532//532
f 531//531 532//532 534//534
f 535//535 537//537 536//536
f 535//535 536//536 538//538
f 539//539 541//541 540//540
f 539//539 540//540 542//542
f 543//543 545//545 544//544
f 543//543 544//544 546//546
f 547//547 549//549 548//548
f 547//547 548//548 550//550
f 551//551 553//553 552//552
f 551//551 552//552 554//554
f 552//552 555//555 554//554
f 556//556 557//557 551//551
f 558//558 556//556 551//551
f 554//554 558//558 551//551
f 558//558 559//559 556//556
f 554//554 560//560 558//558
f 560//560 561//561 558//558
f 554//554 562//562 560//560
f 563//563 565//565 564//564
f 563//563 564//564 566//566
f 567//567 569//569 568//568
f 567//567 568//568 570//570
f 571//571 573//573 572//572
f 571//571 572//572 574//574
f 572//572 575//575 574//574
f 576//576 577//577 571//571
f 578//578 576//576 571//571
f 574//574 578//578 571//571
f 578//578 579//579 576//576
f 574//574 580//580 578//578
f 580//580 581//581 578//578
f 574//574 582//582 580//580
g core_stone
usemtl stone
v -0.02300 0.33900 0.00300
v -0.06100 0.37100 0.00300
v -0.02300 0.37100 0.00300
v -0.06100 0.33900 0.00300
v -0.01900 0.33900 -0.03900
v -0.01900 0.37100 -0.00100
v -0.01900 0.37100 -0.03900
v -0.01900 0.33900 -0.00100
v -0.02300 0.37500 -0.03900
v -0.06100 0.37500 -0.00100
v -0.06100 0.37500 -0.03900
v -0.02300 0.37500 -0.00100
v -0.06500 0.33900 -0.00100
v -0.06500 0.37100 -0.03900
v -0.06500 0.37100 -0.00100
v -0.06500 0.33900 -0.03900
v -0.06100 0.33900 -0.04300
v -0.02300 0.37100 -0.04300
v -0.06100 0.37100 -0.04300
v -0.02300 0.33900 -0.04300
v -0.06100 0.33500 -0.00100
v -0.06500 0.33900 -0.00100
v -0.06100 0.33900 0.00300
v -0.06100 0.37100 0.00300
v -0.06500 0.37100 -0.00100
v -0.06100 0.37500 -0.00100
v -0.06100 0.33500 -0.03900
v -0.06100 0.33900 -0.04300
v -0.06500 0.33900 -0.03900
v -0.06100 0.37500 -0.03900
v -0.06500 0.37100 -0.03900
v -0.06100 0.37100 -0.04300
v -0.02300 0.33500 -0.00100
v -0.02300 0.33900 0.00300
v -0.01900 0.33900 -0.00100
v -0.02300 0.37500 -0.00100
v -0.01900 0.37100 -0.00100
v -0.02300 0.37100 0.00300
v -0.02300 0.33500 -0.03900
v -0.01900 0.33900 -0.03900
v -0.02300 0.33900 -0.04300
v -0.02300 0.37500 -0.03900
v -0.02300 0.37100 -0.04300
v -0.01900 0.37100 -0.03900
v -0.06100 0.33500 -0.03900
v -0.06500 0.33900 -0.00100
v -0.06100 0.33500 -0.00100
v -0.06500 0.33900 -0.03900
v -0.06100 0.33900 0.00300
v -0.06500 0.37100 -0.00100
v -0.06100 0.37100 0.00300
v -0.06500 0.33900 -0.00100
v -0.06100 0.37500 -0.00100
v -0.06500 0.37100 -0.03900
v -0.06100 0.37500 -0.03900
v -0.06500 0.37100 -0.00100
v -0.06100 0.37100 -0.04300
v -0.06500 0.33900 -0.03900
v -0.06100 0.33900 -0.04300
v -0.06500 0.37100 -0.03900
v -0.02300 0.33500 -0.03900
v -0.06100 0.33900 -0.04300
v -0.06100 0.33500 -0.03900
v -0.02300 0.33900 -0.04300
v -0.06100 0.37500 -0.03900
v -0.02300 0.37100 -0.04300
v -0.02300 0.37500 -0.03900
v -0.06100 0.37100 -0.04300
v -0.01900 0.37100 -0.03900
v -0.02300 0.33900 -0.04300
v -0.01900 0.33900 -0.03900
v -0.02300 0.37100 -0.04300
v -0.02300 0.33500 -0.00100
v -0.01900 0.33900 -0.03900
v -0.02300 0.33500 -0.03900
v -0.01900 0.33900 -0.00100
v -0.02300 0.37500 -0.03900
v -0.01900 0.37100 -0.00100
v -0.02300 0.37500 -0.00100
v -0.01900 0.37100 -0.03900
v -0.02300 0.37100 0.00300
v -0.01900 0.33900 -0.00100
v -0.02300 0.33900 0.00300
v -0.01900 0.37100 -0.00100
v -0.06100 0.33500 -0.00100
v -0.02300 0.33900 0.00300
v -0.02300 0.33500 -0.00100
v -0.06100 0.33900 0.00300
v -0.02300 0.37500 -0.00100
v -0.06100 0.37100 0.00300
v -0.06100 0.37500 -0.00100
v -0.02300 0.37100 0.00300
v -0.06100 0.33500 -0.03900
v -0.02300 0.33500 -0.00100
v -0.02300 0.33500 -0.03900
v -0.06100 0.33500 -0.00100
vn -0.0000 -0.0000 1.0000
vn -0.0000 -0.0000 1.0000
vn -0.0000 -0.0000 1.0000
vn -0.0000 -0.0000 1.0000
vn 1.0000 0.0000 -0.0000
vn 1.0000 0.0000 -0.0000
vn 1.0000 0.0000 -0.0000
vn 1.0000 0.0000 -0.0000
vn 0.0000 1.0000 -0.0000
vn 0.0000 1.0000 -0.0000
vn 0.0000 1.0000 -0.0000
vn 0.0000 1.0000 -0.0000
vn -1.0000 0.0000 -0.0000
vn -1.0000 0.0000 -0.0000
vn -1.0000 0.0000 -0.0000
vn -1.0000 0.0000 -0.0000
vn 0.0000 0.0000 -1.0000
vn 0.0000 0.0000 -1.0000
vn 0.0000 0.0000 -1.0000
vn 0.0000 0.0000 -1.0000
vn -0.5775 -0.5774 0.5772
vn -0.5775 -0.5774 0.5772
vn -0.5775 -0.5774 0.5772
vn -0.5773 0.5774 0.5774
vn -0.5773 0.5774 0.5774
vn -0.5773 0.5774 0.5774
vn -0.5774 -0.5773 -0.5774
vn -0.5774 -0.5773 -0.5774
vn -0.5774 -0.5773 -0.5774
vn -0.5773 0.5774 -0.5774
vn -0.5773 0.5774 -0.5774
vn -0.5773 0.5774 -0.5774
vn 0.5774 -0.5774 0.5773
vn 0.5774 -0.5774 0.5773
vn 0.5774 -0.5774 0.5773
vn 0.5772 0.5774 0.5775
vn 0.5772 0.5774 0.5775
vn 0.5772 0.5774 0.5775
vn 0.5774 -0.5773 -0.5774
vn 0.5774 -0.5773 -0.5774
vn 0.5774 -0.5773 -0.5774
vn 0.5773 0.5774 -0.5773
vn 0.5773 0.5774 -0.5773
vn 0.5773 0.5774 -0.5773
vn -0.7071 -0.7071 -0.0001
vn -0.7071 -0.7071 -0.0001
vn -0.7071 -0.7071 -0.0001
vn -0.7071 -0.7071 -0.0001
vn -0.7071 -0.0000 0.7071
vn -0.7071 -0.0000 0.7071
vn -0.7071 -0.0000 0.7071
vn -0.7071 -0.0000 0.7071
vn -0.7071 0.7071 -0.0000
vn -0.7071 0.7071 -0.0000
vn -0.7071 0.7071 -0.0000
vn -0.7071 0.7071 -0.0000
vn -0.7071 0.0000 -0.7071
vn -0.7071 0.0000 -0.7071
vn -0.7071 0.0000 -0.7071
vn -0.7071 0.0000 -0.7071
vn 0.0000 -0.7071 -0.7071
vn 0.0000 -0.7071 -0.7071
vn 0.0000 -0.7071 -0.7071
vn 0.0000 -0.7071 -0.7071
vn 0.0000 0.7071 -0.7071
vn 0.0000 0.7071 -0.7071
vn 0.0000 0.7071 -0.7071
vn 0.0000 0.7071 -0.7071
vn 0.7071 0.0000 -0.7071
vn 0.7071 0.0000 -0.7071
vn 0.7071 0.0000 -0.7071
vn 0.7071 0.0000 -0.7071
vn 0.7071 -0.7071 -0.0000
vn 0.7071 -0.7071 -0.0000
vn 0.7071 -0.7071 -0.0000
vn 0.7071 -0.7071 -0.0000
vn 0.7071 0.7071 0.0000
vn 0.7071 0.7071 0.0000
vn 0.7071 0.7071 0.0000
vn 0.7071 0.7071 0.0000
vn 0.7071 -0.0000 0.7071
vn 0.7071 -0.0000 0.7071
vn 0.7071 -0.0000 0.7071
vn 0.7071 -0.0000 0.7071
vn -0.0000 -0.7071 0.7071
vn -0.0000 -0.7071 0.7071
vn -0.0000 -0.7071 0.7071
vn -0.0000 -0.7071 0.7071
vn -0.0000 0.7071 0.7071
vn -0.0000 0.7071 0.7071
vn -0.0000 0.7071 0.7071
vn -0.0000 0.7071 0.7071
vn 0.0000 -1.0000 -0.0000
vn 0.0000 -1.0000 -0.0000
vn 0.0000 -1.0000 -0.0000
vn 0.0000 -1.0000 -0.0000
f 583//583 585//585 584//584
f 583//583 584//584 586//586
f 587//587 589//589 588//588
f 587//587 588//588 590//590
f 591//591 593//593 592//592
f 591//591 592//592 594//594
f 595//595 597//597 596//596
f 595//595 596//596 598//598
f 599//599 601//601 600//600
f 599//599 600//600 602//602
f 603//603 605//605 604//604
f 606//606 608//608 607//607
f 609//609 611//611 610//610
f 612//612 614//614 613//613
f 615//615 617//617 616//616
f 618//618 620//620 619//619
f 621//621 623//623 622//622
f 624//624 626//626 625//625
f 627//627 629//629 628//628
f 627//627 628//628 630//630
f 631//631 633//633 632//632
f 631//631 632//632 634//634
f 635//635 637//637 636//636
f 635//635 636//636 638//638
f 639//639 641//641 640//640
f 639//639 640//640 642//642
f 643//643 645//645 644//644
f 643//643 644//644 646//646
f 647//647 649//649 648//648
f 647//647 648//648 650//650
f 651//651 653//653 652//652
f 651//651 652//652 654//654
f 655//655 657//657 656//656
f 655//655 656//656 658//658
f 659//659 661//661 660//660
f 659//659 660//660 662//662
f 663//663 665//665 664//664
f 663//663 664//664 666//666
f 667//667 669//669 668//668
f 667//667 668//668 670//670
f 671//671 673//673 672//672
f 671//671 672//672 674//674
f 675//675 677//677 676//676
f 675//675 676//676 678//678
g core_gold
usemtl gold
v 0.08300 0.46200 -0.02000
v 0.07747 0.47306 -0.00299
v 0.09747 0.47306 -0.00949
v 0.09747 0.47306 -0.00949
v 0.09747 0.47306 -0.03051
v 0.08300 0.46200 -0.02000
v 0.08300 0.46200 -0.02000
v 0.06511 0.47306 -0.02000
v 0.07747 0.47306 -0.00299
v 0.08300 0.46200 -0.02000
v 0.07747 0.47306 -0.03701
v 0.06511 0.47306 -0.02000
v 0.08300 0.46200 -0.02000
v 0.09747 0.47306 -0.03051
v 0.07747 0.47306 -0.03701
v 0.09747 0.47306 -0.00949
v 0.10089 0.49094 -0.02000
v 0.09747 0.47306 -0.03051
v 0.07747 0.47306 -0.00299
v 0.08853 0.49094 -0.00299
v 0.09747 0.47306 -0.00949
v 0.06511 0.47306 -0.02000
v 0.06853 0.49094 -0.00949
v 0.07747 0.47306 -0.00299
v 0.07747 0.47306 -0.03701
v 0.06853 0.49094 -0.03051
v 0.06511 0.47306 -0.02000
v 0.09747 0.47306 -0.03051
v 0.08853 0.49094 -0.03701
v 0.07747 0.47306 -0.03701
v 0.09747 0.47306 -0.00949
v 0.08853 0.49094 -0.00299
v 0.10089 0.49094 -0.02000
v 0.07747 0.47306 -0.00299
v 0.06853 0.49094 -0.00949
v 0.08853 0.49094 -0.00299
v 0.06511 0.47306 -0.02000
v 0.06853 0.49094 -0.03051
v 0.06853 0.49094 -0.00949
v 0.07747 0.47306 -0.03701
v 0.08853 0.49094 -0.03701
v 0.06853 0.49094 -0.03051
v 0.09747 0.47306 -0.03051
v 0.10089 0.49094 -0.02000
v 0.08853 0.49094 -0.03701
v 0.08853 0.49094 -0.00299
v 0.08300 0.50200 -0.02000
v 0.10089 0.49094 -0.02000
v 0.06853 0.49094 -0.00949
v 0.08300 0.50200 -0.02000
v 0.08853 0.49094 -0.00299
v 0.06853 0.49094 -0.03051
v 0.08300 0.50200 -0.02000
v 0.06853 0.49094 -0.00949
v 0.08853 0.49094 -0.03701
v 0.08300 0.50200 -0.02000
v 0.06853 0.49094 -0.03051
v 0.10089 0.49094 -0.02000
v 0.08300 0.50200 -0.02000
v 0.08853 0.49094 -0.03701
vn -0.0795 -0.4827 0.8722
vn -0.0795 -0.4827 0.8722
vn -0.0795 -0.4827 0.8722
vn 0.3666 -0.6071 0.7050
vn 0.3666 -0.6071 0.7050
vn 0.3666 -0.6071 0.7050
vn 0.1816 0.5485 -0.8162
vn 0.1816 0.5485 -0.8162
vn 0.1816 0.5485 -0.8162
vn -0.0193 0.8657 -0.5001
vn -0.0193 0.8657 -0.5001
vn -0.0193 0.8657 -0.5001
vn -0.4310 0.7842 -0.4464
vn -0.4310 0.7842 -0.4464
vn -0.4310 0.7842 -0.4464
vn 0.6943 -0.1338 0.7071
vn 0.6943 -0.1338 0.7071
vn 0.6943 -0.1338 0.7071
vn 0.0843 -0.2056 0.9750
vn 0.0843 -0.2056 0.9750
vn 0.0843 -0.2056 0.9750
vn -0.3100 0.9359 0.1673
vn -0.3100 0.9359 0.1673
vn -0.3100 0.9359 0.1673
vn -0.1515 0.9876 -0.0411
vn -0.1515 0.9876 -0.0411
vn -0.1515 0.9876 -0.0411
vn 0.7901 -0.5858 0.1808
vn 0.7901 -0.5858 0.1808
vn 0.7901 -0.5858 0.1808
vn 0.4624 0.0369 0.8859
vn 0.4624 0.0369 0.8859
vn 0.4624 0.0369 0.8859
vn -0.0249 0.2948 0.9552
vn -0.0249 0.2948 0.9552
vn -0.0249 0.2948 0.9552
vn -0.0017 0.9826 0.1859
vn -0.0017 0.9826 0.1859
vn -0.0017 0.9826 0.1859
vn -0.5790 0.7977 0.1683
vn -0.5790 0.7977 0.1683
vn -0.5790 0.7977 0.1683
vn 0.8940 -0.0789 0.4410
vn 0.8940 -0.0789 0.4410
vn 0.8940 -0.0789 0.4410
vn 0.3088 0.4757 0.8236
vn 0.3088 0.4757 0.8236
vn 0.3088 0.4757 0.8236
vn 0.1359 0.4900 0.8611
vn 0.1359 0.4900 0.8611
vn 0.1359 0.4900 0.8611
vn -0.0827 0.7552 0.6503
vn -0.0827 0.7552 0.6503
vn -0.0827 0.7552 0.6503
vn 0.3427 -0.8220 -0.4549
vn 0.3427 -0.8220 -0.4549
vn 0.3427 -0.8220 -0.4549
vn -0.1939 -0.8143 -0.5472
vn -0.1939 -0.8143 -0.5472
vn -0.1939 -0.8143 -0.5472
f 679//679 681//681 680//680
f 682//682 684//684 683//683
f 685//685 687//687 686//686
f 688//688 690//690 689//689
f 691//691 693//693 692//692
f 694//694 696//696 695//695
f 697//697 699//699 698//698
f 700//700 702//702 701//701
f 703//703 705//705 704//704
f 706//706 708//708 707//707
f 709//709 711//711 710//710
f 712//712 714//714 713//713
f 715//715 717//717 716//716
f 718//718 720//720 719//719
f 721//721 723//723 722//722
f 724//724 726//726 725//725
f 727//727 729//729 728//728
f 730//730 732//732 731//731
f 733//733 735//735 734//734
f 736//736 738//738 737//737
g core_team
usemtl team
v 0.01300 0.45800 -0.01600
v 0.08300 0.41300 -0.01600
v 0.08300 0.45800 -0.01600
v 0.03260 0.43550 -0.01600
v 0.01300 0.41300 -0.01600
v 0.08300 0.41300 -0.00400
v 0.01300 0.45800 -0.00400
v 0.08300 0.45800 -0.00400
v 0.03260 0.43550 -0.00400
v 0.01300 0.41300 -0.00400
v 0.08300 0.45800 -0.01600
v 0.01300 0.45800 -0.00400
v 0.01300 0.45800 -0.01600
v 0.08300 0.45800 -0.00400
v 0.01300 0.45800 -0.01600
v 0.03260 0.43550 -0.00400
v 0.03260 0.43550 -0.01600
v 0.01300 0.45800 -0.00400
v 0.03260 0.43550 -0.01600
v 0.01300 0.41300 -0.00400
v 0.01300 0.41300 -0.01600
v 0.03260 0.43550 -0.00400
v 0.01300 0.41300 -0.01600
v 0.08300 0.41300 -0.00400
v 0.08300 0.41300 -0.01600
v 0.01300 0.41300 -0.00400
v 0.08300 0.41300 -0.01600
v 0.08300 0.45800 -0.00400
v 0.08300 0.45800 -0.01600
v 0.08300 0.41300 -0.00400
vn -0.7071 0.7071 -0.0000
vn -0.7071 0.7071 -0.0000
vn -0.7071 0.7071 -0.0000
vn -0.7071 0.7071 -0.0000
vn -0.7071 0.7071 -0.0000
vn -0.0000 -0.0000 1.0000
vn -0.0000 -0.0000 1.0000
vn -0.0000 -0.0000 1.0000
vn -0.0000 -0.0000 1.0000
vn -0.0000 -0.0000 1.0000
vn -0.0000 0.7071 0.7071
vn -0.0000 0.7071 0.7071
vn -0.0000 0.7071 0.7071
vn -0.0000 0.7071 0.7071
vn 0.0574 0.8141 -0.5779
vn 0.0574 0.8141 -0.5779
vn 0.0574 0.8141 -0.5779
vn 0.0574 0.8141 -0.5779
vn -0.0574 0.8140 0.5780
vn -0.0574 0.8140 0.5780
vn -0.0574 0.8140 0.5780
vn -0.0574 0.8140 0.5780
vn -0.0000 -0.7071 0.7071
vn -0.0000 -0.7071 0.7071
vn -0.0000 -0.7071 0.7071
vn -0.0000 -0.7071 0.7071
vn 0.7071 -0.0000 0.7071
vn 0.7071 -0.0000 0.7071
vn 0.7071 -0.0000 0.7071
vn 0.7071 -0.0000 0.7071
f 739//739 741//741 740//740
f 740//740 742//742 739//739
f 740//740 743//743 742//742
f 744//744 746//746 745//745
f 745//745 747//747 744//744
f 747//747 748//748 744//744
f 749//749 751//751 750//750
f 749//749 750//750 752//752
f 753//753 755//755 754//754
f 753//753 754//754 756//756
f 757//757 759//759 758//758
f 757//757 758//758 760//760
f 761//761 763//763 762//762
f 761//761 762//762 764//764
f 765//765 767//767 766//766
f 765//765 766//766 768//768
